<?xml version="1.0" standalone="no"?>
<!DOCTYPE svg PUBLIC "-//W3C//DTD SVG 1.1//EN" "http://www.w3.org/Graphics/SVG/1.1/DTD/svg11.dtd" >
<svg xmlns="http://www.w3.org/2000/svg">
<metadata>
This is a custom SVG webfont generated by Suitcase Type Foundry.
</metadata>
<defs>
<font id="briefcasetype-YCczDKfB" horiz-adv-x="539" >
<font-face units-per-em="1000" ascent="800" descent="-200" />
<missing-glyph horiz-adv-x="250" />
<glyph unicode=" "  horiz-adv-x="250" />
<glyph unicode="&#x09;" horiz-adv-x="250" />
<glyph unicode="&#xa0;" horiz-adv-x="250" />
<glyph unicode="A" horiz-adv-x="660" d="M325 710h102l177 -710h-98l-49 208h-288l-99 -208h-94zM204 280h236l-37 159l-39 191l-84 -191z" />
<glyph unicode="B" horiz-adv-x="589" d="M116 710h253q39 0 72 -9t58 -28.5t39 -49t14 -69.5q0 -70 -34.5 -114t-85.5 -67q51 -16 80.5 -54.5t29.5 -100.5q0 -56 -21 -97t-55.5 -68t-79.5 -40t-93 -13h-264zM289 70q32 0 61 9t51.5 27.5t36 47t13.5 67.5q0 58 -34 84t-86 26h-174l-32 -261h164zM310 400 q30 0 57 8t47.5 25.5t32.5 43.5t12 62q0 54 -31.5 77.5t-79.5 23.5h-153l-30 -240h145z" />
<glyph unicode="C" horiz-adv-x="577" d="M34 299q0 107 32 186.5t84.5 132t120 78.5t139.5 26q53 0 99 -12.5t81 -31.5l-35 -198l-76 -13l17 167q-23 8 -46 12.5t-49 4.5q-52 0 -101.5 -21t-87.5 -64t-61.5 -108.5t-23.5 -153.5q0 -64 16.5 -110t44 -75.5t64.5 -43.5t79 -14q45 0 90 12t92 32l7 -70 q-40 -19 -92.5 -33t-108.5 -14q-57 0 -109 18.5t-91 56.5t-62 96.5t-23 139.5z" />
<glyph unicode="D" horiz-adv-x="683" d="M116 710h256q64 0 116.5 -22t89.5 -62.5t57 -97.5t20 -126q0 -89 -28.5 -162.5t-78.5 -127t-117.5 -83t-145.5 -29.5h-256zM294 72q56 0 105 24t85 67t57 103t21 132q0 54 -14 98.5t-40 76t-63 48.5t-82 17h-167l-69 -566h167z" />
<glyph unicode="E" horiz-adv-x="542" d="M116 710h446l-14 -72h-352l-30 -244l296 6l-9 -77l-295 6l-31 -257h366l-13 -72h-451z" />
<glyph unicode="F" horiz-adv-x="496" d="M116 710h418l-14 -72h-324l-33 -267l279 6l-9 -77l-278 6l-37 -306h-89z" />
<glyph unicode="G" horiz-adv-x="633" d="M34 300q0 109 33 189t87.5 131.5t124.5 76.5t143 25q59 0 110 -14t88 -33l-26 -70q-40 20 -87 32t-92 12q-55 0 -106.5 -20t-92 -61.5t-65 -106.5t-24.5 -155q0 -64 17 -110.5t46.5 -76.5t68.5 -44t83 -14q59 0 123 22l25 209l-172 -3l9 77l257 -7l-40 -322 q-45 -20 -99 -34.5t-113 -14.5q-60 0 -114.5 18.5t-95 56.5t-64.5 97t-24 140z" />
<glyph unicode="H" horiz-adv-x="669" d="M116 710h89l-38 -307h352l38 307h89l-87 -710h-89l41 331h-352l-41 -331h-89z" />
<glyph unicode="I" horiz-adv-x="228" d="M116 710h89l-87 -710h-89z" />
<glyph unicode="J" horiz-adv-x="245" d="M133 710h89l-79 -648q-5 -42 -20 -78t-36.5 -66t-48.5 -55t-57 -45l-42 49q21 19 40 40t34.5 44.5t26 50.5t14.5 60z" />
<glyph unicode="K" horiz-adv-x="612" d="M116 710h89l-43 -349l357 349h115l-325 -313l259 -397h-108l-215 336l-94 -71l-33 -265h-89z" />
<glyph unicode="L" horiz-adv-x="514" d="M116 710h89l-78 -638h348l-14 -72h-432z" />
<glyph unicode="M" horiz-adv-x="917" d="M181 710h116l95 -431l36 -194l84 194l199 431h117l-1 -710h-88l5 415l6 203l-89 -203l-193 -415h-102l-90 415l-41 205l-43 -205l-97 -415h-86z" />
<glyph unicode="N" horiz-adv-x="667" d="M116 710h86l209 -406l82 -172l20 204l45 374h86l-86 -710h-86l-209 404l-82 174l-21 -204l-45 -374h-86z" />
<glyph unicode="O" horiz-adv-x="714" d="M34 305q0 91 29 168t79 132t118 86t145 31q63 0 115 -23t89 -64.5t57 -100t20 -129.5q0 -92 -29 -168.5t-79.5 -131.5t-118 -86t-144.5 -31q-63 0 -115 23t-89 64.5t-57 100t-20 129.5zM127 306q0 -55 13.5 -100t39 -77.5t61.5 -50.5t80 -18q55 0 104.5 25t87 70.5 t59 109t21.5 139.5q0 55 -13.5 100t-39 77.5t-61.5 50.5t-80 18q-56 0 -105 -25t-86.5 -70.5t-59 -109t-21.5 -139.5z" />
<glyph unicode="P" horiz-adv-x="555" d="M116 710h231q45 0 84 -11t67.5 -34t45 -58.5t16.5 -83.5q0 -63 -23 -109.5t-61 -77t-88 -46t-104 -15.5h-132l-34 -275h-89zM285 347q36 0 69 10t58 31t40 52.5t15 75.5q0 32 -10.5 55t-28.5 38t-43 22t-54 7h-135l-36 -291h125z" />
<glyph unicode="Q" horiz-adv-x="713" d="M34 305q0 91 29 168t79 132t118 86t145 31q63 0 115 -23t89 -64.5t57 -100t20 -129.5q0 -59 -12.5 -112t-35 -98.5t-54 -82t-70.5 -63.5l150 -161l-67 -63l-157 185q-61 -22 -125 -22q-63 0 -115 23t-89 64.5t-57 100t-20 129.5zM127 306q0 -55 13.5 -100t39 -77.5 t61.5 -50.5t80 -18q55 0 104.5 25t87 70.5t59 109t21.5 139.5q0 55 -13.5 100t-39 77.5t-61.5 50.5t-80 18q-56 0 -105 -25t-86.5 -70.5t-59 -109t-21.5 -139.5z" />
<glyph unicode="R" horiz-adv-x="581" d="M290 288q-5 -1 -8.5 -1h-7.5l-121 -2l-35 -285h-89l87 710h219q45 0 83 -10.5t66 -33t44 -56.5t16 -80q0 -47 -13 -84.5t-35.5 -65.5t-54 -47.5t-67.5 -30.5l169 -302h-108zM275 357q35 0 67 9.5t56 29.5t38.5 51t14.5 73q0 62 -37.5 90t-94.5 28h-123l-34 -281h113z" />
<glyph unicode="S" horiz-adv-x="546" d="M40 111q48 -26 95 -38.5t87 -12.5q37 0 69.5 11.5t57 32t38.5 48.5t14 62q0 27 -13 45.5t-35 32t-49.5 23l-55.5 19.5q-31 10 -63 22.5t-58.5 32.5t-43 49t-16.5 72q0 48 19.5 87t53.5 66.5t80 43t99 15.5q104 0 193 -43l-26 -72q-48 23 -92.5 33t-81.5 10q-28 0 -56 -8 t-50 -24t-35.5 -40t-13.5 -55q0 -23 9.5 -39.5t25.5 -29t37 -21.5t44 -17l73 -25t70 -33.5t53 -52t21 -80.5q0 -55 -21 -99t-59 -74.5t-90.5 -47t-115.5 -16.5q-51 0 -98.5 12.5t-92.5 34.5z" />
<glyph unicode="T" horiz-adv-x="544" d="M60 710h523l-15 -72h-214l-77 -638h-89l77 638h-220z" />
<glyph unicode="U" horiz-adv-x="666" d="M204 710l-59 -474q-6 -47 4 -80.5t31.5 -54.5t52 -31t66.5 -10t69.5 10t60.5 31t45 54.5t24 80.5l58 474h89l-58 -472q-8 -67 -35 -114.5t-66.5 -77.5t-89.5 -44t-105 -14q-54 0 -100.5 14t-79 44t-47.5 77.5t-7 114.5l58 472h89z" />
<glyph unicode="V" horiz-adv-x="659" d="M61 710h98l102 -436l39 -193l85 193l208 436h95l-350 -710h-100z" />
<glyph unicode="W" horiz-adv-x="972" d="M63 710h94l63 -401l25 -198l76 198l166 401h91l67 -401l26 -198l75 198l162 401h94l-296 -710h-94l-66 396l-27 198l-76 -198l-163 -396h-94z" />
<glyph unicode="X" horiz-adv-x="604" d="M252 357l-189 353h103l105 -203l40 -90l63 90l153 203h108l-277 -357l189 -353h-103l-105 202l-40 90l-63 -90l-153 -202h-107z" />
<glyph unicode="Y" horiz-adv-x="602" d="M251 274l-206 436h100l87 -199l71 -170l110 170l136 199h100l-309 -435l-34 -275h-89z" />
<glyph unicode="Z" horiz-adv-x="552" d="M5 72l319 413l125 153h-375l15 72h473l-9 -72l-319 -413l-124 -153h374l-14 -72h-474z" />
<glyph unicode="&#xc1;" horiz-adv-x="660" d="M325 710h102l177 -710h-98l-49 208h-288l-99 -208h-94zM204 280h236l-37 159l-39 191l-84 -191zM580 911l-168 -141h-85l136 147z" />
<glyph unicode="&#xc4;" horiz-adv-x="660" d="M325 710h102l177 -710h-98l-49 208h-288l-99 -208h-94zM204 280h236l-37 159l-39 191l-84 -191zM233 843q0 25 17 42t42 17q20 0 33 -13.5t13 -33.5q0 -25 -17.5 -42t-41.5 -17q-21 0 -33.5 13.5t-12.5 33.5zM447 843q0 25 17.5 42t41.5 17q21 0 33.5 -13.5t12.5 -33.5 q0 -25 -17 -42t-42 -17q-20 0 -33 13.5t-13 33.5z" />
<glyph unicode="&#x10c;" horiz-adv-x="577" d="M34 299q0 107 32 186.5t84.5 132t120 78.5t139.5 26q53 0 99 -12.5t81 -31.5l-35 -198l-76 -13l17 167q-23 8 -46 12.5t-49 4.5q-52 0 -101.5 -21t-87.5 -64t-61.5 -108.5t-23.5 -153.5q0 -64 16.5 -110t44 -75.5t64.5 -43.5t79 -14q45 0 90 12t92 32l7 -70 q-40 -19 -92.5 -33t-108.5 -14q-57 0 -109 18.5t-91 56.5t-62 96.5t-23 139.5zM241 911l79 6l83 -86l103 86l81 -6l-148 -141h-84z" />
<glyph unicode="&#x10e;" horiz-adv-x="683" d="M200 911l79 6l83 -86l103 86l81 -6l-148 -141h-84zM116 710h256q64 0 116.5 -22t89.5 -62.5t57 -97.5t20 -126q0 -89 -28.5 -162.5t-78.5 -127t-117.5 -83t-145.5 -29.5h-256zM294 72q56 0 105 24t85 67t57 103t21 132q0 54 -14 98.5t-40 76t-63 48.5t-82 17h-167 l-69 -566h167z" />
<glyph unicode="&#xc9;" horiz-adv-x="542" d="M500 911l-168 -141h-85l136 147zM116 710h446l-14 -72h-352l-30 -244l296 6l-9 -77l-295 6l-31 -257h366l-13 -72h-451z" />
<glyph unicode="&#x11a;" horiz-adv-x="542" d="M187 911l79 6l83 -86l103 86l81 -6l-148 -141h-84zM116 710h446l-14 -72h-352l-30 -244l296 6l-9 -77l-295 6l-31 -257h366l-13 -72h-451z" />
<glyph unicode="&#xcd;" horiz-adv-x="228" d="M116 710h89l-87 -710h-89zM363 911l-168 -141h-85l136 147z" />
<glyph unicode="&#x139;" horiz-adv-x="514" d="M364 911l-168 -141h-85l136 147zM116 710h89l-78 -638h348l-14 -72h-432z" />
<glyph unicode="&#x13d;" horiz-adv-x="514" d="M351 779q20 -57 5.5 -111.5t-68.5 -105.5l-45 23q19 25 29 45.5t12.5 40t-1.5 40t-14 45.5zM116 710h89l-78 -638h348l-14 -72h-432z" />
<glyph unicode="&#x13f;" horiz-adv-x="514" d="M313 358q0 27 19 45.5t45 18.5q23 0 37 -14t14 -37q0 -27 -19 -45t-45 -18q-23 0 -37 14t-14 36zM116 710h89l-78 -638h348l-14 -72h-432z" />
<glyph unicode="&#x147;" horiz-adv-x="667" d="M231 911l79 6l83 -86l103 86l81 -6l-148 -141h-84zM116 710h86l209 -406l82 -172l20 204l45 374h86l-86 -710h-86l-209 404l-82 174l-21 -204l-45 -374h-86z" />
<glyph unicode="&#xd3;" horiz-adv-x="714" d="M590 911l-168 -141h-85l136 147zM34 305q0 91 29 168t79 132t118 86t145 31q63 0 115 -23t89 -64.5t57 -100t20 -129.5q0 -92 -29 -168.5t-79.5 -131.5t-118 -86t-144.5 -31q-63 0 -115 23t-89 64.5t-57 100t-20 129.5zM127 306q0 -55 13.5 -100t39 -77.5t61.5 -50.5 t80 -18q55 0 104.5 25t87 70.5t59 109t21.5 139.5q0 55 -13.5 100t-39 77.5t-61.5 50.5t-80 18q-56 0 -105 -25t-86.5 -70.5t-59 -109t-21.5 -139.5z" />
<glyph unicode="&#xd4;" horiz-adv-x="714" d="M34 305q0 91 29 168t79 132t118 86t145 31q63 0 115 -23t89 -64.5t57 -100t20 -129.5q0 -92 -29 -168.5t-79.5 -131.5t-118 -86t-144.5 -31q-63 0 -115 23t-89 64.5t-57 100t-20 129.5zM127 306q0 -55 13.5 -100t39 -77.5t61.5 -50.5t80 -18q55 0 104.5 25t87 70.5 t59 109t21.5 139.5q0 55 -13.5 100t-39 77.5t-61.5 50.5t-80 18q-56 0 -105 -25t-86.5 -70.5t-59 -109t-21.5 -139.5zM581 778h-87l-72 76l-90 -76h-90l143 137l81 6z" />
<glyph unicode="&#xd6;" horiz-adv-x="714" d="M260 843q0 25 17 42t42 17q20 0 33 -13.5t13 -33.5q0 -25 -17.5 -42t-41.5 -17q-21 0 -33.5 13.5t-12.5 33.5zM474 843q0 25 17.5 42t41.5 17q21 0 33.5 -13.5t12.5 -33.5q0 -25 -17 -42t-42 -17q-20 0 -33 13.5t-13 33.5zM34 305q0 91 29 168t79 132t118 86t145 31 q63 0 115 -23t89 -64.5t57 -100t20 -129.5q0 -92 -29 -168.5t-79.5 -131.5t-118 -86t-144.5 -31q-63 0 -115 23t-89 64.5t-57 100t-20 129.5zM127 306q0 -55 13.5 -100t39 -77.5t61.5 -50.5t80 -18q55 0 104.5 25t87 70.5t59 109t21.5 139.5q0 55 -13.5 100t-39 77.5 t-61.5 50.5t-80 18q-56 0 -105 -25t-86.5 -70.5t-59 -109t-21.5 -139.5z" />
<glyph unicode="&#x150;" horiz-adv-x="714" d="M34 305q0 91 29 168t79 132t118 86t145 31q63 0 115 -23t89 -64.5t57 -100t20 -129.5q0 -92 -29 -168.5t-79.5 -131.5t-118 -86t-144.5 -31q-63 0 -115 23t-89 64.5t-57 100t-20 129.5zM127 306q0 -55 13.5 -100t39 -77.5t61.5 -50.5t80 -18q55 0 104.5 25t87 70.5 t59 109t21.5 139.5q0 55 -13.5 100t-39 77.5t-61.5 50.5t-80 18q-56 0 -105 -25t-86.5 -70.5t-59 -109t-21.5 -139.5zM490 911l-159 -141h-80l128 147zM671 911l-161 -141h-81l130 147z" />
<glyph unicode="&#x154;" horiz-adv-x="581" d="M290 288q-5 -1 -8.5 -1h-7.5l-121 -2l-35 -285h-89l87 710h219q45 0 83 -10.5t66 -33t44 -56.5t16 -80q0 -47 -13 -84.5t-35.5 -65.5t-54 -47.5t-67.5 -30.5l169 -302h-108zM275 357q35 0 67 9.5t56 29.5t38.5 51t14.5 73q0 62 -37.5 90t-94.5 28h-123l-34 -281h113z M486 911l-168 -141h-85l136 147z" />
<glyph unicode="&#x158;" horiz-adv-x="581" d="M170 911l79 6l83 -86l103 86l81 -6l-148 -141h-84zM290 288q-5 -1 -8.5 -1h-7.5l-121 -2l-35 -285h-89l87 710h219q45 0 83 -10.5t66 -33t44 -56.5t16 -80q0 -47 -13 -84.5t-35.5 -65.5t-54 -47.5t-67.5 -30.5l169 -302h-108zM275 357q35 0 67 9.5t56 29.5t38.5 51 t14.5 73q0 62 -37.5 90t-94.5 28h-123l-34 -281h113z" />
<glyph unicode="&#x160;" horiz-adv-x="546" d="M40 111q48 -26 95 -38.5t87 -12.5q37 0 69.5 11.5t57 32t38.5 48.5t14 62q0 27 -13 45.5t-35 32t-49.5 23l-55.5 19.5q-31 10 -63 22.5t-58.5 32.5t-43 49t-16.5 72q0 48 19.5 87t53.5 66.5t80 43t99 15.5q104 0 193 -43l-26 -72q-48 23 -92.5 33t-81.5 10q-28 0 -56 -8 t-50 -24t-35.5 -40t-13.5 -55q0 -23 9.5 -39.5t25.5 -29t37 -21.5t44 -17l73 -25t70 -33.5t53 -52t21 -80.5q0 -55 -21 -99t-59 -74.5t-90.5 -47t-115.5 -16.5q-51 0 -98.5 12.5t-92.5 34.5zM171 911l79 6l83 -86l103 86l81 -6l-148 -141h-84z" />
<glyph unicode="&#x164;" horiz-adv-x="544" d="M169 911l79 6l83 -86l103 86l81 -6l-148 -141h-84zM60 710h523l-15 -72h-214l-77 -638h-89l77 638h-220z" />
<glyph unicode="&#xda;" horiz-adv-x="666" d="M566 911l-168 -141h-85l136 147zM204 710l-59 -474q-6 -47 4 -80.5t31.5 -54.5t52 -31t66.5 -10t69.5 10t60.5 31t45 54.5t24 80.5l58 474h89l-58 -472q-8 -67 -35 -114.5t-66.5 -77.5t-89.5 -44t-105 -14q-54 0 -100.5 14t-79 44t-47.5 77.5t-7 114.5l58 472h89z" />
<glyph unicode="&#xdc;" horiz-adv-x="666" d="M236 843q0 25 17 42t42 17q20 0 33 -13.5t13 -33.5q0 -25 -17.5 -42t-41.5 -17q-21 0 -33.5 13.5t-12.5 33.5zM450 843q0 25 17.5 42t41.5 17q21 0 33.5 -13.5t12.5 -33.5q0 -25 -17 -42t-42 -17q-20 0 -33 13.5t-13 33.5zM204 710l-59 -474q-6 -47 4 -80.5t31.5 -54.5 t52 -31t66.5 -10t69.5 10t60.5 31t45 54.5t24 80.5l58 474h89l-58 -472q-8 -67 -35 -114.5t-66.5 -77.5t-89.5 -44t-105 -14q-54 0 -100.5 14t-79 44t-47.5 77.5t-7 114.5l58 472h89z" />
<glyph unicode="&#x170;" horiz-adv-x="666" d="M204 710l-59 -474q-6 -47 4 -80.5t31.5 -54.5t52 -31t66.5 -10t69.5 10t60.5 31t45 54.5t24 80.5l58 474h89l-58 -472q-8 -67 -35 -114.5t-66.5 -77.5t-89.5 -44t-105 -14q-54 0 -100.5 14t-79 44t-47.5 77.5t-7 114.5l58 472h89zM463 911l-159 -141h-80l128 147z M644 911l-161 -141h-81l130 147z" />
<glyph unicode="&#x16e;" horiz-adv-x="666" d="M204 710l-59 -474q-6 -47 4 -80.5t31.5 -54.5t52 -31t66.5 -10t69.5 10t60.5 31t45 54.5t24 80.5l58 474h89l-58 -472q-8 -67 -35 -114.5t-66.5 -77.5t-89.5 -44t-105 -14q-54 0 -100.5 14t-79 44t-47.5 77.5t-7 114.5l58 472h89zM281 838q0 24 10 45.5t27.5 37.5 t40.5 25t50 9q47 0 74 -26.5t27 -65.5q0 -24 -10 -45.5t-27.5 -37.5t-41 -25t-50.5 -9q-46 0 -73 27t-27 65zM347 837q0 -17 10.5 -28t27.5 -11q25 0 42 18.5t17 47.5q0 17 -10.5 28t-28.5 11q-23 0 -40.5 -18.5t-17.5 -47.5z" />
<glyph unicode="&#xdd;" horiz-adv-x="602" d="M251 274l-206 436h100l87 -199l71 -170l110 170l136 199h100l-309 -435l-34 -275h-89zM551 911l-168 -141h-85l136 147z" />
<glyph unicode="&#x17d;" horiz-adv-x="552" d="M173 911l79 6l83 -86l103 86l81 -6l-148 -141h-84zM5 72l319 413l125 153h-375l15 72h473l-9 -72l-319 -413l-124 -153h374l-14 -72h-474z" />
<glyph unicode="a" horiz-adv-x="543" d="M18 193q0 68 19.5 127t55.5 102.5t87.5 68.5t114.5 25q45 0 89 -12t86 -31l-41 -337q-6 -47 12 -62.5t57 -15.5l-19 -64q-60 -7 -92 14t-39 81q-43 -53 -91 -77t-88 -24q-31 0 -58.5 12t-48 37t-32.5 64t-12 92zM104 197q0 -71 26 -107t68 -36q15 0 33.5 8t38.5 22t40 33 t39 40l33 269q-27 14 -53 19t-48 5q-37 0 -69.5 -18t-56.5 -51.5t-37.5 -80t-13.5 -103.5z" />
<glyph unicode="b" horiz-adv-x="533" d="M122 760l85 16l-45 -359q43 51 90.5 75t88.5 24q67 0 110 -50t43 -155q0 -68 -19 -127t-55.5 -102.5t-89 -68.5t-118.5 -25q-50 0 -93.5 12t-85.5 32zM121 78q28 -14 54.5 -19.5t50.5 -5.5q40 0 73.5 18.5t58 52t38 80t13.5 103.5q0 72 -26.5 107t-72.5 35q-16 0 -35 -8 t-40 -22t-41.5 -32.5t-39.5 -40.5z" />
<glyph unicode="c" horiz-adv-x="459" d="M18 195q0 70 23 129t62.5 102t93.5 66.5t116 23.5q27 0 60.5 -7.5t67.5 -22.5l-29 -155l-66 -13l11 124q-47 13 -92.5 2.5t-81 -42.5t-57.5 -84t-22 -121q0 -63 24 -96t63 -41.5t89 4t102 40.5l12 -66q-44 -25 -91.5 -37.5t-89.5 -12.5t-77.5 12.5t-62 38.5t-41 64.5 t-14.5 91.5z" />
<glyph unicode="d" horiz-adv-x="532" d="M18 193q0 64 18 122.5t53 103t86.5 71t118.5 26.5q51 0 106 -19l32 263l85 16l-96 -776h-76l5 86q-43 -51 -90 -74.5t-89 -23.5q-66 0 -109.5 50t-43.5 155zM104 197q0 -72 26 -107.5t73 -35.5q32 0 74.5 30t80.5 73l34 269q-29 14 -55 19t-51 5q-40 0 -73.5 -18.5 t-57.5 -51.5t-37.5 -79.5t-13.5 -103.5z" />
<glyph unicode="e" horiz-adv-x="483" d="M18 196q0 78 23.5 138t60.5 100.5t83.5 61t93.5 20.5q102 0 141.5 -73.5t11.5 -201.5h-328q-2 -11 -2 -22.5v-22.5q0 -63 24 -96t63.5 -41.5t90 4t103.5 40.5l14 -65q-46 -25 -93 -37.5t-91 -12.5q-40 0 -75.5 12t-62 37.5t-42 64.5t-15.5 94zM271 454q-48 0 -93 -41 t-65 -122l246 11q13 75 -12 113.5t-76 38.5z" />
<glyph unicode="f" horiz-adv-x="342" d="M121 438h-88l6 54l90 12l10 72q11 97 61 148t124 51q32 0 67 -9l-19 -68q-16 4 -31 5.5t-27 1.5q-48 0 -66.5 -32t-25.5 -89l-10 -80h128l-14 -66h-122l-79 -642l-84 -16z" />
<glyph unicode="g" horiz-adv-x="532" d="M18 193q0 64 18 122.5t53.5 103t89 71t124.5 26.5q45 0 90 -12.5t87 -30.5l-55 -449q-8 -64 -34.5 -112t-64.5 -80t-85 -48t-96 -16q-41 0 -89 10t-90 30l24 67q42 -20 82.5 -30.5t72.5 -10.5q33 0 66 10t60.5 32.5t46.5 57.5t24 85l8 68q-43 -51 -90 -75t-89 -24 q-66 0 -109.5 50t-43.5 155zM104 197q0 -72 26 -107.5t73 -35.5q16 0 35 8t40 22t41.5 33t39.5 40l33 269q-28 14 -54.5 19t-51.5 5q-40 0 -73.5 -18.5t-57.5 -51.5t-37.5 -79.5t-13.5 -103.5z" />
<glyph unicode="h" d="M122 760l85 16l-45 -359q45 51 96 75t97 24q29 0 53 -10.5t40 -32.5t22.5 -56t0.5 -81l-41 -336h-83l41 329q8 66 -12 92.5t-55 26.5q-20 0 -41.5 -8t-43 -22t-43 -33t-40.5 -41l-42 -344h-82z" />
<glyph unicode="i" horiz-adv-x="221" d="M91 500l84 16l-64 -516h-82zM98 665q0 26 18 43.5t43 17.5q22 0 35.5 -14t13.5 -34q0 -26 -18 -43.5t-44 -17.5q-21 0 -34.5 14t-13.5 34z" />
<glyph unicode="j" horiz-adv-x="240" d="M109 500l84 16l-62 -505q-11 -84 -56.5 -144t-103.5 -99l-38 42q41 39 74 86.5t41 112.5zM116 665q0 26 18.5 43.5t43.5 17.5q22 0 35 -14t13 -34q0 -26 -18 -43.5t-43 -17.5q-22 0 -35.5 14t-13.5 34z" />
<glyph unicode="k" horiz-adv-x="492" d="M122 760l85 16l-66 -532l249 260h102l-212 -216l176 -288h-100l-135 230l-90 -73l-20 -157h-82z" />
<glyph unicode="l" horiz-adv-x="221" d="M122 760l85 16l-96 -776h-82z" />
<glyph unicode="m" horiz-adv-x="800" d="M90 500l81 16l-8 -99q41 54 87 76.5t88 22.5q38 0 67 -23.5t37 -76.5q47 52 95.5 76t89.5 24q27 0 49 -10.5t36.5 -32.5t20 -56t-0.5 -81l-41 -336h-83l41 329q8 65 -9.5 92t-48.5 27q-17 0 -36 -8t-38.5 -22t-38 -33t-34.5 -40l-2 -16l-41 -329h-82l40 329q8 65 -9 92 t-49 27q-35 0 -74.5 -30t-73.5 -74l-42 -344h-82z" />
<glyph unicode="n" d="M90 500l81 16l-8 -99q45 51 95.5 75t96.5 24q29 0 53 -10.5t40 -32.5t22.5 -56t0.5 -81l-41 -336h-83l41 329q8 66 -12 92.5t-55 26.5q-20 0 -41.5 -8t-43 -22t-43 -33t-40.5 -41l-42 -344h-82z" />
<glyph unicode="o" horiz-adv-x="525" d="M18 197q0 72 23 131t62 101t89.5 64.5t105.5 22.5q45 0 80 -16t59.5 -44t37 -66.5t12.5 -82.5q0 -73 -23.5 -132t-62.5 -100.5t-89.5 -64t-104.5 -22.5q-45 0 -80.5 16t-59.5 44t-36.5 66.5t-12.5 82.5zM104 197q0 -30 7 -56.5t21.5 -46t35.5 -31t49 -11.5q35 0 68 17.5 t59 50.5t41.5 80.5t15.5 106.5q0 30 -7.5 56t-21.5 46t-35 31.5t-49 11.5q-35 0 -68 -18t-59 -51t-41.5 -80t-15.5 -106z" />
<glyph unicode="p" horiz-adv-x="533" d="M90 500l81 16l-8 -99q42 51 89.5 75t88.5 24q67 0 110 -50t43 -155q0 -64 -18 -122.5t-53 -103t-86 -71t-118 -26.5q-54 0 -107 19l-26 -211l-84 -16zM121 78q28 -14 54.5 -19.5t50.5 -5.5q40 0 73.5 18.5t58 52t38 80t13.5 103.5q0 72 -26.5 107t-72.5 35q-16 0 -35 -8 t-40 -22t-41.5 -32.5t-39.5 -40.5z" />
<glyph unicode="q" horiz-adv-x="532" d="M18 193q0 64 18 122.5t53.5 103t89 71t124.5 26.5q45 0 90 -12.5t87 -30.5l-83 -677l-84 -16l37 307q-43 -51 -90 -75t-89 -24q-66 0 -109.5 50t-43.5 155zM104 197q0 -72 26 -107.5t73 -35.5q16 0 35 8t40 22t41.5 33t39.5 40l33 269q-28 14 -54.5 19t-51.5 5 q-40 0 -73.5 -18.5t-57.5 -51.5t-37.5 -79.5t-13.5 -103.5z" />
<glyph unicode="r" horiz-adv-x="352" d="M90 500l81 16l-13 -140q32 63 80 101t108 40l5 -81q-63 0 -114.5 -40.5t-90.5 -109.5l-35 -286h-82z" />
<glyph unicode="s" horiz-adv-x="433" d="M30 89q38 -18 75 -28.5t66 -10.5q27 0 48.5 8t37.5 22t24.5 31.5t8.5 37.5q0 18 -9.5 30.5t-24 21t-31 14l-30.5 10.5q-26 7 -52.5 17t-47.5 25t-34.5 37.5t-13.5 55.5q0 32 12.5 60.5t36.5 49.5t59.5 33.5t81.5 12.5q82 0 146 -32q-1 -3 -3.5 -12.5t-6 -20.5l-6.5 -20.5 l-4 -12.5q-79 37 -138 37q-42 0 -70.5 -20.5t-28.5 -61.5q0 -19 8.5 -31.5t22 -20.5t30 -14l31.5 -11l52 -17.5t49 -24.5t36 -37.5t14 -55.5q0 -45 -18.5 -77.5t-48.5 -54t-68.5 -31.5t-78.5 -10q-41 0 -76.5 9.5t-67.5 25.5z" />
<glyph unicode="t" horiz-adv-x="359" d="M224 660l-20 -156h127l-13 -66h-122l-35 -294q-6 -48 2.5 -67.5t31.5 -19.5q15 0 37.5 6t50.5 17l9 -66q-31 -12 -60 -19t-54 -7q-26 0 -47 8t-35 25t-19.5 44.5t-0.5 66.5l39 306h-90l7 54l90 12l32 142z" />
<glyph unicode="u" d="M172 516l-42 -342q-8 -65 11.5 -91.5t54.5 -26.5q40 0 85 30t83 73l42 341l84 16l-64 -516h-78l7 86q-45 -50 -96 -74t-96 -24q-29 0 -53 10.5t-40 32.5t-23 56t-1 81l41 332z" />
<glyph unicode="v" horiz-adv-x="480" d="M116 504l55 -247l38 -185l83 185l116 247h87l-251 -504h-88l-129 504h89z" />
<glyph unicode="w" horiz-adv-x="695" d="M117 504l30 -236l21 -190l70 190l88 236h86l31 -236l22 -190l69 190l86 236h86l-206 -504h-89l-30 215l-24 189l-71 -189l-84 -215h-88l-83 504h86z" />
<glyph unicode="x" horiz-adv-x="459" d="M171 255l-137 249h97l56 -107l41 -88l63 88l81 107h96l-198 -247l142 -257h-98l-60 115l-42 88l-62 -88l-87 -115h-97z" />
<glyph unicode="y" horiz-adv-x="479" d="M116 504l55 -247l38 -185l83 185l116 247h87l-247 -494q-19 -39 -43.5 -77t-56 -71t-71.5 -57.5t-90 -36.5l-16 67q60 22 105 58.5t82 97.5l-131 513h89z" />
<glyph unicode="z" horiz-adv-x="445" d="M4 65l190 226l129 147h-273l13 66h366l-8 -66l-189 -226l-130 -147h274l-14 -65h-366z" />
<glyph unicode="&#xe1;" horiz-adv-x="543" d="M18 193q0 68 19.5 127t55.5 102.5t87.5 68.5t114.5 25q45 0 89 -12t86 -31l-41 -337q-6 -47 12 -62.5t57 -15.5l-19 -64q-60 -7 -92 14t-39 81q-43 -53 -91 -77t-88 -24q-31 0 -58.5 12t-48 37t-32.5 64t-12 92zM104 197q0 -71 26 -107t68 -36q15 0 33.5 8t38.5 22t40 33 t39 40l33 269q-27 14 -53 19t-48 5q-37 0 -69.5 -18t-56.5 -51.5t-37.5 -80t-13.5 -103.5zM458 753l-128 -181h-74l111 192z" />
<glyph unicode="&#xe4;" horiz-adv-x="543" d="M18 193q0 68 19.5 127t55.5 102.5t87.5 68.5t114.5 25q45 0 89 -12t86 -31l-41 -337q-6 -47 12 -62.5t57 -15.5l-19 -64q-60 -7 -92 14t-39 81q-43 -53 -91 -77t-88 -24q-31 0 -58.5 12t-48 37t-32.5 64t-12 92zM104 197q0 -71 26 -107t68 -36q15 0 33.5 8t38.5 22t40 33 t39 40l33 269q-27 14 -53 19t-48 5q-37 0 -69.5 -18t-56.5 -51.5t-37.5 -80t-13.5 -103.5zM166 656q0 24 18 41t41 17q21 0 34 -13t13 -32q0 -25 -18 -42t-41 -17q-21 0 -34 13.5t-13 32.5zM362 656q0 24 18 41t41 17q21 0 34 -13t13 -32q0 -25 -18 -42t-41 -17 q-21 0 -34 13.5t-13 32.5z" />
<glyph unicode="&#x10d;" horiz-adv-x="459" d="M167 753l65 11l67 -130l100 130l65 -11l-128 -181h-87zM18 195q0 70 23 129t62.5 102t93.5 66.5t116 23.5q27 0 60.5 -7.5t67.5 -22.5l-29 -155l-66 -13l11 124q-47 13 -92.5 2.5t-81 -42.5t-57.5 -84t-22 -121q0 -63 24 -96t63 -41.5t89 4t102 40.5l12 -66 q-44 -25 -91.5 -37.5t-89.5 -12.5t-77.5 12.5t-62 38.5t-41 64.5t-14.5 91.5z" />
<glyph unicode="&#x10f;" horiz-adv-x="599" d="M637 779q20 -57 5.5 -111.5t-68.5 -105.5l-45 23q19 25 29 45.5t12.5 40t-1.5 40t-14 45.5zM18 193q0 64 18 122.5t53 103t86.5 71t118.5 26.5q51 0 106 -19l32 263l85 16l-96 -776h-76l5 86q-43 -51 -90 -74.5t-89 -23.5q-66 0 -109.5 50t-43.5 155zM104 197 q0 -72 26 -107.5t73 -35.5q32 0 74.5 30t80.5 73l34 269q-29 14 -55 19t-51 5q-40 0 -73.5 -18.5t-57.5 -51.5t-37.5 -79.5t-13.5 -103.5z" />
<glyph unicode="&#xe9;" horiz-adv-x="483" d="M437 753l-128 -181h-74l111 192zM18 196q0 78 23.5 138t60.5 100.5t83.5 61t93.5 20.5q102 0 141.5 -73.5t11.5 -201.5h-328q-2 -11 -2 -22.5v-22.5q0 -63 24 -96t63.5 -41.5t90 4t103.5 40.5l14 -65q-46 -25 -93 -37.5t-91 -12.5q-40 0 -75.5 12t-62 37.5t-42 64.5 t-15.5 94zM271 454q-48 0 -93 -41t-65 -122l246 11q13 75 -12 113.5t-76 38.5z" />
<glyph unicode="&#x11b;" horiz-adv-x="483" d="M159 753l65 11l67 -130l100 130l65 -11l-128 -181h-87zM18 196q0 78 23.5 138t60.5 100.5t83.5 61t93.5 20.5q102 0 141.5 -73.5t11.5 -201.5h-328q-2 -11 -2 -22.5v-22.5q0 -63 24 -96t63.5 -41.5t90 4t103.5 40.5l14 -65q-46 -25 -93 -37.5t-91 -12.5q-40 0 -75.5 12 t-62 37.5t-42 64.5t-15.5 94zM271 454q-48 0 -93 -41t-65 -122l246 11q13 75 -12 113.5t-76 38.5z" />
<glyph unicode="&#xed;" horiz-adv-x="221" d="M300 753l-128 -181h-74l111 192zM91 500l84 16l-64 -516h-82z" />
<glyph horiz-adv-x="221" d="M91 500l84 16l-64 -516h-82zM98 665q0 26 18 43.5t43 17.5q22 0 35.5 -14t13.5 -34q0 -26 -18 -43.5t-44 -17.5q-21 0 -34.5 14t-13.5 34z" />
<glyph unicode="&#x13a;" horiz-adv-x="221" d="M363 933l-168 -141h-85l136 147zM122 760l85 16l-96 -776h-82z" />
<glyph unicode="&#x13e;" horiz-adv-x="289" d="M327 779q20 -57 5.5 -111.5t-68.5 -105.5l-45 23q19 25 29 45.5t12.5 40t-1.5 40t-14 45.5zM122 760l85 16l-96 -776h-82z" />
<glyph unicode="&#x140;" horiz-adv-x="290" d="M122 760l85 16l-96 -776h-82zM209 401q0 26 18.5 43.5t43.5 17.5q22 0 35.5 -14t13.5 -34q0 -26 -18.5 -43.5t-43.5 -17.5q-22 0 -35.5 14t-13.5 34z" />
<glyph unicode="&#x148;" d="M171 753l65 11l67 -130l100 130l65 -11l-128 -181h-87zM90 500l81 16l-8 -99q45 51 95.5 75t96.5 24q29 0 53 -10.5t40 -32.5t22.5 -56t0.5 -81l-41 -336h-83l41 329q8 66 -12 92.5t-55 26.5q-20 0 -41.5 -8t-43 -22t-43 -33t-40.5 -41l-42 -344h-82z" />
<glyph unicode="&#xf3;" horiz-adv-x="525" d="M443 753l-128 -181h-74l111 192zM18 197q0 72 23 131t62 101t89.5 64.5t105.5 22.5q45 0 80 -16t59.5 -44t37 -66.5t12.5 -82.5q0 -73 -23.5 -132t-62.5 -100.5t-89.5 -64t-104.5 -22.5q-45 0 -80.5 16t-59.5 44t-36.5 66.5t-12.5 82.5zM104 197q0 -30 7 -56.5t21.5 -46 t35.5 -31t49 -11.5q35 0 68 17.5t59 50.5t41.5 80.5t15.5 106.5q0 30 -7.5 56t-21.5 46t-35 31.5t-49 11.5q-35 0 -68 -18t-59 -51t-41.5 -80t-15.5 -106z" />
<glyph unicode="&#xf4;" horiz-adv-x="525" d="M450 572h-72l-62 120l-92 -120h-72l127 181l86 6zM18 197q0 72 23 131t62 101t89.5 64.5t105.5 22.5q45 0 80 -16t59.5 -44t37 -66.5t12.5 -82.5q0 -73 -23.5 -132t-62.5 -100.5t-89.5 -64t-104.5 -22.5q-45 0 -80.5 16t-59.5 44t-36.5 66.5t-12.5 82.5zM104 197 q0 -30 7 -56.5t21.5 -46t35.5 -31t49 -11.5q35 0 68 17.5t59 50.5t41.5 80.5t15.5 106.5q0 30 -7.5 56t-21.5 46t-35 31.5t-49 11.5q-35 0 -68 -18t-59 -51t-41.5 -80t-15.5 -106z" />
<glyph unicode="&#xf6;" horiz-adv-x="525" d="M152 656q0 24 18 41t41 17q21 0 34 -13t13 -32q0 -25 -18 -42t-41 -17q-21 0 -34 13.5t-13 32.5zM348 656q0 24 18 41t41 17q21 0 34 -13t13 -32q0 -25 -18 -42t-41 -17q-21 0 -34 13.5t-13 32.5zM18 197q0 72 23 131t62 101t89.5 64.5t105.5 22.5q45 0 80 -16t59.5 -44 t37 -66.5t12.5 -82.5q0 -73 -23.5 -132t-62.5 -100.5t-89.5 -64t-104.5 -22.5q-45 0 -80.5 16t-59.5 44t-36.5 66.5t-12.5 82.5zM104 197q0 -30 7 -56.5t21.5 -46t35.5 -31t49 -11.5q35 0 68 17.5t59 50.5t41.5 80.5t15.5 106.5q0 30 -7.5 56t-21.5 46t-35 31.5t-49 11.5 q-35 0 -68 -18t-59 -51t-41.5 -80t-15.5 -106z" />
<glyph unicode="&#x151;" horiz-adv-x="525" d="M358 753l-127 -181h-70l108 192zM520 753l-128 -181h-72l111 192zM18 197q0 72 23 131t62 101t89.5 64.5t105.5 22.5q45 0 80 -16t59.5 -44t37 -66.5t12.5 -82.5q0 -73 -23.5 -132t-62.5 -100.5t-89.5 -64t-104.5 -22.5q-45 0 -80.5 16t-59.5 44t-36.5 66.5t-12.5 82.5z M104 197q0 -30 7 -56.5t21.5 -46t35.5 -31t49 -11.5q35 0 68 17.5t59 50.5t41.5 80.5t15.5 106.5q0 30 -7.5 56t-21.5 46t-35 31.5t-49 11.5q-35 0 -68 -18t-59 -51t-41.5 -80t-15.5 -106z" />
<glyph unicode="&#x155;" horiz-adv-x="352" d="M354 753l-128 -181h-74l111 192zM90 500l81 16l-13 -140q32 63 80 101t108 40l5 -81q-63 0 -114.5 -40.5t-90.5 -109.5l-35 -286h-82z" />
<glyph unicode="&#x159;" horiz-adv-x="352" d="M79 753l65 11l67 -130l100 130l65 -11l-128 -181h-87zM90 500l81 16l-13 -140q32 63 80 101t108 40l5 -81q-63 0 -114.5 -40.5t-90.5 -109.5l-35 -286h-82z" />
<glyph unicode="&#x161;" horiz-adv-x="433" d="M111 753l65 11l67 -130l100 130l65 -11l-128 -181h-87zM30 89q38 -18 75 -28.5t66 -10.5q27 0 48.5 8t37.5 22t24.5 31.5t8.5 37.5q0 18 -9.5 30.5t-24 21t-31 14l-30.5 10.5q-26 7 -52.5 17t-47.5 25t-34.5 37.5t-13.5 55.5q0 32 12.5 60.5t36.5 49.5t59.5 33.5 t81.5 12.5q82 0 146 -32q-1 -3 -3.5 -12.5t-6 -20.5l-6.5 -20.5l-4 -12.5q-79 37 -138 37q-42 0 -70.5 -20.5t-28.5 -61.5q0 -19 8.5 -31.5t22 -20.5t30 -14l31.5 -11l52 -17.5t49 -24.5t36 -37.5t14 -55.5q0 -45 -18.5 -77.5t-48.5 -54t-68.5 -31.5t-78.5 -10 q-41 0 -76.5 9.5t-67.5 25.5z" />
<glyph unicode="&#x165;" horiz-adv-x="369" d="M358 779q20 -57 5.5 -111.5t-68.5 -105.5l-45 23q19 25 29 45.5t12.5 40t-1.5 40t-14 45.5zM224 660l-20 -156h127l-13 -66h-122l-35 -294q-6 -48 2.5 -67.5t31.5 -19.5q15 0 37.5 6t50.5 17l9 -66q-31 -12 -60 -19t-54 -7q-26 0 -47 8t-35 25t-19.5 44.5t-0.5 66.5 l39 306h-90l7 54l90 12l32 142z" />
<glyph unicode="&#xfa;" d="M448 753l-128 -181h-74l111 192zM172 516l-42 -342q-8 -65 11.5 -91.5t54.5 -26.5q40 0 85 30t83 73l42 341l84 16l-64 -516h-78l7 86q-45 -50 -96 -74t-96 -24q-29 0 -53 10.5t-40 32.5t-23 56t-1 81l41 332z" />
<glyph unicode="&#xfc;" d="M157 656q0 24 18 41t41 17q21 0 34 -13t13 -32q0 -25 -18 -42t-41 -17q-21 0 -34 13.5t-13 32.5zM353 656q0 24 18 41t41 17q21 0 34 -13t13 -32q0 -25 -18 -42t-41 -17q-21 0 -34 13.5t-13 32.5zM172 516l-42 -342q-8 -65 11.5 -91.5t54.5 -26.5q40 0 85 30t83 73 l42 341l84 16l-64 -516h-78l7 86q-45 -50 -96 -74t-96 -24q-29 0 -53 10.5t-40 32.5t-23 56t-1 81l41 332z" />
<glyph unicode="&#x171;" d="M172 516l-42 -342q-8 -65 11.5 -91.5t54.5 -26.5q40 0 85 30t83 73l42 341l84 16l-64 -516h-78l7 86q-45 -50 -96 -74t-96 -24q-29 0 -53 10.5t-40 32.5t-23 56t-1 81l41 332zM364 753l-127 -181h-70l108 192zM526 753l-128 -181h-72l111 192z" />
<glyph unicode="&#x16f;" d="M195 653q0 25 10 47.5t27.5 39t40.5 26t50 9.5q47 0 74 -27.5t27 -69.5q0 -26 -10 -48t-27.5 -38.5t-41 -26t-50.5 -9.5q-46 0 -73 27.5t-27 69.5zM261 651q0 -17 8.5 -29.5t28.5 -12.5q25 0 42.5 19.5t17.5 51.5q0 17 -9 30t-29 13q-24 0 -41.5 -20t-17.5 -52zM172 516 l-42 -342q-8 -65 11.5 -91.5t54.5 -26.5q40 0 85 30t83 73l42 341l84 16l-64 -516h-78l7 86q-45 -50 -96 -74t-96 -24q-29 0 -53 10.5t-40 32.5t-23 56t-1 81l41 332z" />
<glyph unicode="&#xfd;" horiz-adv-x="479" d="M116 504l55 -247l38 -185l83 185l116 247h87l-247 -494q-19 -39 -43.5 -77t-56 -71t-71.5 -57.5t-90 -36.5l-16 67q60 22 105 58.5t82 97.5l-131 513h89zM418 753l-128 -181h-74l111 192z" />
<glyph unicode="&#x17e;" horiz-adv-x="445" d="M126 753l65 11l67 -130l100 130l65 -11l-128 -181h-87zM4 65l190 226l129 147h-273l13 66h366l-8 -66l-189 -226l-130 -147h274l-14 -65h-366z" />
<glyph unicode="$" horiz-adv-x="600" d="M77 111q48 -26 95 -38.5t86 -12.5q37 0 70 11.5t57.5 32t38.5 48.5t14 62q0 27 -14 45.5t-36 32t-50.5 23l-56.5 19.5q-32 10 -65 22.5t-59.5 32t-43.5 48.5t-17 73t17 81t47 64.5t71.5 44.5t90.5 21l13 119h67l-16 -120q89 -6 162 -41l-12 -36q-2 -7 -4.5 -13.5 l-4.5 -11.5q-3 -6 -4 -11q-48 23 -94.5 33t-83.5 10q-30 0 -58.5 -8t-51 -24t-36.5 -40t-14 -55q0 -24 10 -40.5t27 -28.5t39 -21t45 -17l73 -25t72 -33.5t54.5 -52t21.5 -80.5t-16.5 -89t-46.5 -70t-72.5 -49t-94.5 -25l-14 -122h-67l16 118q-49 2 -94 14t-89 33z" />
<glyph unicode="&#xa2;" horiz-adv-x="600" d="M88 195q0 60 16.5 111.5t46 92t70.5 68.5t89 40l14 127h67l-16 -118h8q27 0 60.5 -7.5t67.5 -22.5l-29 -155l-10.5 -2l-22.5 -4.5l-22.5 -4.5l-10.5 -2l11 124q-47 13 -92.5 2.5t-81.5 -42.5t-58 -84t-22 -121q0 -63 24 -96t63 -41.5t89 4t103 40.5l12 -66 q-37 -21 -76 -32.5t-77 -15.5l-13 -120h-67l16 121q-70 9 -114.5 60t-44.5 144z" />
<glyph unicode="&#xa3;" horiz-adv-x="600" d="M62 353l127 -2q-3 24 -10 46.5l-13.5 44t-11.5 43t-5 43.5q0 43 16.5 78.5t46.5 61t71 40t91 14.5q56 0 98.5 -10t87.5 -32l-27 -160l-74 -13l13 128q-22 8 -46 11.5t-55 3.5q-26 0 -50 -8.5t-42 -24.5t-28.5 -38.5t-10.5 -50.5q0 -20 5 -40t12 -42t13.5 -45.5t8.5 -50.5 l185 3l-14 -64l-173 2q-7 -46 -34.5 -100t-89.5 -120h352l-15 -71h-449l9 71q71 67 102 121t37 99l-141 -2z" />
<glyph unicode="&#xa5;" horiz-adv-x="600" d="M66 424l114 -2l-132 288h98l85 -199l69 -171l110 171l133 199h98l-202 -288l123 2l-14 -65l-150 3l-61 -87l-4 -34l206 3l-14 -65l-200 3l-22 -182h-89l22 182l-205 -3l13 65l200 -3l4 33l-41 88l-155 -3z" />
<glyph unicode="&#x20ac;" horiz-adv-x="600" d="M37 473l80 -2q21 65 55.5 112.5t78 78t93 45.5t99.5 15q53 0 97.5 -14t76.5 -33l-26 -70q-34 18 -71.5 31t-78.5 13q-36 0 -70 -10.5t-64.5 -32.5t-55 -56t-40.5 -81l302 4l-14 -65l-303 3q-9 -48 -9 -107v-6l251 3l-14 -65l-233 3q7 -45 23.5 -78.5t40 -55.5t52.5 -33 t61 -11q41 0 82 13t81 31l7 -70q-36 -19 -83.5 -33t-100.5 -14q-47 0 -90 15t-78 46t-58.5 78t-31.5 111l-93 -2l14 65l76 -2q0 60 9 110l-78 -1z" />
<glyph unicode="&#xa4;" horiz-adv-x="570" d="M69 316q0 48 16 88.5t45 75.5l-74 86l50 49l72 -90q29 21 64.5 32.5t71.5 11.5q37 0 69.5 -11.5t55.5 -33.5l94 91l41 -49l-97 -87q14 -22 21 -51t7 -59q0 -42 -15.5 -84.5t-44.5 -77.5l75 -87l-50 -49l-74 91q-29 -21 -64 -33t-74 -12q-36 0 -67 11.5t-56 31.5l-92 -88 l-41 48l95 85q-13 23 -20.5 49.5t-7.5 61.5zM142 322q0 -31 9 -57t25.5 -45t39.5 -29.5t50 -10.5q33 0 63.5 14t54 39t37 58.5t13.5 71.5q0 31 -9.5 57t-26.5 45t-40.5 30t-50.5 11q-33 0 -63 -14.5t-52.5 -39t-36 -58t-13.5 -72.5z" />
<glyph unicode="#" horiz-adv-x="608" d="M84 496l133 -2l97 211l63 -19l-92 -193h69l114 1l98 211l63 -19l-92 -191l93 1l-13 -63l-109 1l-48 -101l-37 -82l119 2l-14 -63l-133 1l-95 -210l-64 19l91 192l-68 1l-115 -1l-96 -211l-64 19l91 191l-93 -1l14 63l108 -1l48 101l37 81l-118 -1zM171 251l95 -1l89 1 l48 102l38 82l-94 2l-89 -2l-49 -102z" />
<glyph unicode="0" horiz-adv-x="574" d="M34 284q0 91 24 167t64.5 131t95 85.5t116.5 30.5q48 0 86.5 -21.5t66.5 -60.5t43 -93.5t15 -120.5q0 -91 -24 -167t-64.5 -131t-95 -85.5t-115.5 -30.5q-48 0 -87 21.5t-66.5 60.5t-43 93.5t-15.5 120.5zM124 278q0 -49 9 -90t25.5 -70t40.5 -45.5t54 -16.5 q40 0 77 26.5t65 74t44.5 112t16.5 139.5q0 49 -9 90t-26 70t-40.5 45.5t-53.5 16.5q-41 0 -77.5 -26.5t-64.5 -74t-44.5 -112t-16.5 -139.5z" />
<glyph unicode="1" horiz-adv-x="369" d="M228 604l-185 -104l-6 70l207 116h80l-84 -686h-86z" />
<glyph unicode="2" horiz-adv-x="489" d="M-3 69l151 127.5t122.5 118.5t82.5 109t30 98q0 47 -25.5 77t-79.5 30q-31 0 -61.5 -7t-61.5 -19l-20 -141l-72 -14l16 191q51 27 104.5 43t110.5 16q88 0 133.5 -46.5t45.5 -121.5q0 -54 -31 -112.5t-82.5 -117.5t-118 -117.5t-136.5 -113.5h325l-14 -69h-427z" />
<glyph unicode="3" horiz-adv-x="490" d="M8 119q44 -27 88 -44t95 -17q31 0 59 9t50 26.5t35 44.5t13 63q0 28 -10.5 49.5t-28.5 35.5t-41.5 21t-48.5 7h-57l8 69h53q30 0 56.5 9.5t46.5 27.5t31.5 44t11.5 60q0 50 -29.5 77.5t-79.5 27.5q-34 0 -81 -14t-99 -43l-8 69q52 29 105 43t98 14q82 0 132.5 -41 t50.5 -117q0 -66 -36.5 -115t-93.5 -75q47 -17 78 -54.5t31 -96.5q0 -53 -21 -93t-55.5 -66t-79.5 -39t-93 -13q-63 0 -113.5 17.5t-91.5 43.5z" />
<glyph unicode="4" horiz-adv-x="530" d="M6 237l251 449h94l-263 -449h199l34 160l71 11l-22 -171h122l-14 -69h-116l-21 -168h-83l21 168h-281z" />
<glyph unicode="5" horiz-adv-x="495" d="M22 102q38 -20 81.5 -32t87.5 -12q33 0 63 12t52.5 33.5t35.5 53t13 70.5t-16.5 66.5t-50.5 41t-86 11t-122 -23.5l-15 10l62 354h337l-14 -69h-262l-40 -218q73 20 129 15t93 -28.5t56 -62.5t19 -87q0 -60 -20.5 -106t-56 -77.5t-83.5 -48t-103 -16.5q-54 0 -97 12.5 t-85 31.5z" />
<glyph unicode="6" horiz-adv-x="517" d="M24 212q0 68 26.5 140t77 137.5t124 120t167.5 88.5l32 -62q-125 -51 -200 -123.5t-108 -159.5q49 35 91.5 47.5t79.5 12.5q38 0 68 -14t51 -38.5t32.5 -57.5t11.5 -70q0 -55 -21 -100t-56 -77.5t-81.5 -50t-98.5 -17.5q-49 0 -86 17.5t-61.5 48t-36.5 71t-12 87.5z M122 283q-8 -38 -8 -73q0 -30 6.5 -58t20.5 -49t36 -34t53 -13q28 0 56.5 12t51.5 34t37 53.5t14 70.5q0 52 -30 85.5t-77 33.5q-27 0 -65.5 -12t-94.5 -50z" />
<glyph unicode="7" horiz-adv-x="470" d="M69 686h419l-7 -69l-309 -617h-94l230 445l93 172h-260l-22 -155l-72 -14l14 169z" />
<glyph unicode="8" horiz-adv-x="540" d="M16 156q0 37 12.5 68t34.5 56.5t51.5 47t62.5 39.5q-39 25 -66 58t-27 84q0 41 19 76t51.5 60t74.5 39t87 14t80.5 -12t59.5 -32.5t37 -47.5t13 -58q0 -60 -38 -105.5t-109 -82.5q25 -14 48.5 -30t41 -35.5t28 -43.5t10.5 -54q0 -46 -22.5 -84.5t-58.5 -66t-82.5 -43 t-94.5 -15.5q-54 0 -94 14t-66.5 37.5t-39.5 53.5t-13 63zM399 190q0 27 -14.5 47.5t-37.5 37.5t-53 31.5l-60 29.5q-58 -35 -93.5 -75t-35.5 -95q0 -23 10 -43t27.5 -35t41.5 -23.5t53 -8.5q31 0 60.5 11t52 29.5t36 43t13.5 50.5zM168 516q0 -23 11 -40.5t29 -32.5t42 -28 l50 -26q68 40 94.5 76.5t26.5 74.5q0 39 -28.5 65t-85.5 26q-22 0 -46.5 -6t-45 -19.5t-34 -35.5t-13.5 -54z" />
<glyph unicode="9" horiz-adv-x="517" d="M44 453q0 55 20.5 100t56 77.5t82 50t98.5 17.5q49 0 85.5 -17.5t61 -48t37 -71.5t12.5 -87q0 -68 -26.5 -140t-77 -137.5t-124 -120t-167.5 -88.5l-32 62q125 51 200 123.5t108 159.5q-49 -35 -91.5 -47.5t-79.5 -12.5q-38 0 -68 14t-51 38.5t-32.5 57.5t-11.5 70z M132 460q0 -52 30 -85.5t77 -33.5q27 0 65 12t95 50q8 38 8 73q0 30 -7 58t-21 49.5t-35.5 34t-52.5 12.5q-29 0 -57.5 -12t-51 -34t-36.5 -53.5t-14 -70.5z" />
<glyph unicode="+" horiz-adv-x="529" d="M51 378h184l24 194h70l-24 -194h184l-9 -71h-183l-24 -193h-71l25 193h-184z" />
<glyph unicode="&#x3c;" horiz-adv-x="529" d="M51 377l434 200l21 -63l-285 -132l-96 -40l86 -40l253 -132l-37 -63l-384 200z" />
<glyph unicode="&#x3e;" horiz-adv-x="529" d="M481 307l-434 -200l-21 64l285 131l96 40l-86 41l-253 131l37 63l384 -200z" />
<glyph unicode="=" horiz-adv-x="529" d="M39 276h437l-8 -70h-438zM64 480h437l-8 -70h-438z" />
<glyph unicode="|" horiz-adv-x="269" d="M103 330l58 510h72l-67 -510l-58 -510h-72z" />
<glyph unicode="'" horiz-adv-x="178" d="M98 762h89l-57 -315h-52z" />
<glyph unicode="&#x22;" horiz-adv-x="346" d="M98 762h89l-57 -315h-52zM265 762h90l-58 -315h-52z" />
<glyph unicode="_" horiz-adv-x="713" d="M15 -12h599l-8 -65h-598z" />
<glyph unicode="&#x2014;" horiz-adv-x="950" d="M29 286h881l-8 -67h-881z" />
<glyph unicode="&#x2013;" horiz-adv-x="475" d="M29 286h406l-8 -67h-406z" />
<glyph unicode="-" horiz-adv-x="324" d="M40 290h233l-9 -75h-233z" />
<glyph unicode="&#x2039;" horiz-adv-x="356" d="M273 480l52 -49l-194 -181l150 -181l-64 -46l-183 229z" />
<glyph unicode="&#x203a;" horiz-adv-x="356" d="M64 23l-52 50l194 180l-150 181l64 46l184 -228z" />
<glyph unicode="&#x2019;" horiz-adv-x="209" d="M151 770q30 -26 44 -68.5t6.5 -89.5t-40 -94t-95.5 -81l-27 43q41 27 62 59.5t24.5 66t-9.5 65t-40 55.5z" />
<glyph unicode="&#x201d;" horiz-adv-x="373" d="M151 770q30 -26 44 -68.5t6.5 -89.5t-40 -94t-95.5 -81l-27 43q42 27 63 59.5t24 66t-10 65t-40 55.5zM314 770q30 -26 44 -68.5t6.5 -89.5t-40 -94t-95.5 -81l-26 43q41 27 62 59.5t24 66t-10 65t-40 55.5z" />
<glyph unicode="&#x2018;" horiz-adv-x="209" d="M126 437q-30 26 -44 68.5t-6.5 89.5t40 93.5t95.5 81.5l26 -43q-41 -27 -62 -59.5t-24 -66t10 -65t40 -55.5z" />
<glyph unicode="&#x201c;" horiz-adv-x="373" d="M289 437q-30 26 -44 68.5t-6.5 89.5t40 93.5t96.5 81.5l25 -43q-41 -27 -62 -59.5t-24 -66t10 -65t40 -55.5zM126 437q-30 26 -44 68.5t-6.5 89.5t40 93.5t95.5 81.5l26 -43q-41 -27 -62 -59.5t-24 -66t10 -65t40 -55.5z" />
<glyph unicode="," horiz-adv-x="209" d="M74 149q30 -26 44 -68.5t6.5 -89.5t-39.5 -94t-95 -81l-27 43q41 27 62 59.5t24 66t-10 65t-40 55.5z" />
<glyph unicode="." horiz-adv-x="209" d="M11 46q0 28 20 47t48 19q23 0 37 -15t14 -38q0 -28 -19.5 -47t-47.5 -19q-23 0 -37.5 15t-14.5 38z" />
<glyph unicode=":" horiz-adv-x="209" d="M11 46q0 28 20 47t48 19q23 0 37 -15t14 -38q0 -28 -19.5 -47t-47.5 -19q-23 0 -37.5 15t-14.5 38zM59 444q0 29 20 48t48 19q23 0 37.5 -15t14.5 -38q0 -29 -20 -48t-48 -19q-23 0 -37.5 15t-14.5 38z" />
<glyph unicode=";" horiz-adv-x="209" d="M74 149q30 -26 44 -68.5t6.5 -89.5t-39.5 -94t-95 -81l-27 43q41 27 62 59.5t24 66t-10 65t-40 55.5zM59 444q0 29 20 48t48 19q23 0 37.5 -15t14.5 -38q0 -29 -20 -48t-48 -19q-23 0 -37.5 15t-14.5 38z" />
<glyph unicode="?" horiz-adv-x="476" d="M136 286q59 30 103.5 63.5t74 69t44.5 70.5t15 67q0 42 -24.5 69.5t-73.5 27.5q-31 0 -58.5 -6.5t-56.5 -18.5l-21 -142l-70 -14l15 191q51 27 100.5 43t106.5 16q42 0 73.5 -11.5t53 -32.5t32.5 -49.5t11 -62.5q0 -44 -19 -90t-56.5 -91t-94 -85.5t-131.5 -73.5zM144 45 q0 28 19.5 47t45.5 19q23 0 37.5 -15t14.5 -38q0 -27 -19.5 -46t-45.5 -19q-23 0 -37.5 14.5t-14.5 37.5z" />
<glyph unicode="&#xbf;" horiz-adv-x="476" d="M321 217q-119 -60 -178 -132.5t-59 -137.5q0 -42 24.5 -69t73.5 -27q30 0 58 6.5t57 18.5l21 142l70 13l-14 -191q-52 -26 -101.5 -42t-106.5 -16q-42 0 -73.5 11.5t-53 32.5t-32.5 49.5t-11 62.5q0 43 19 89.5t56.5 91.5t94 85.5t131.5 73.5zM314 458q0 -27 -20 -46 t-46 -19q-23 0 -37.5 14.5t-14.5 37.5q0 28 19.5 47t46.5 19q23 0 37.5 -15t14.5 -38z" />
<glyph unicode="!" horiz-adv-x="304" d="M147 710h104l-82 -505h-64zM59 45q0 28 20 47t46 19q23 0 37.5 -15t14.5 -38q0 -27 -20 -46t-46 -19q-23 0 -37.5 14.5t-14.5 37.5z" />
<glyph unicode="&#xa1;" horiz-adv-x="304" d="M138 -206h-103l81 505h65zM226 458q0 -27 -20 -46t-46 -19q-23 0 -37.5 14.5t-14.5 37.5q0 28 20 47t46 19q23 0 37.5 -15t14.5 -38z" />
<glyph unicode="(" horiz-adv-x="360" d="M42 289q0 97 26 183.5t71.5 159.5t106 131.5t129.5 99.5l39 -53q-59 -36 -112 -88t-92.5 -118t-62.5 -145t-23 -168q0 -66 13 -125.5t37 -110.5t56.5 -91.5t71.5 -67.5l-52 -49q-46 32 -84 78t-65.5 102.5t-43 122.5t-15.5 139z" />
<glyph unicode=")" horiz-adv-x="360" d="M241 419q0 66 -13 125.5t-36.5 110.5t-56 91.5t-71.5 67.5l52 49q46 -32 84 -78t65.5 -102.5t43 -122.5t15.5 -139q0 -97 -26 -183.5t-71.5 -159.5t-106 -131.5t-129.5 -99.5l-39 53q59 36 111.5 88t92 118t62.5 145t23 168z" />
<glyph unicode="[" horiz-adv-x="305" d="M136 839h224l-18 -66h-135l-104 -836h146l-18 -66h-214z" />
<glyph unicode="]" horiz-adv-x="306" d="M-30 -63h135l104 836h-146l18 66h214l-119 -968h-224z" />
<glyph unicode="{" horiz-adv-x="319" d="M26 388h23q29 0 44 19t19 51l19 156q6 47 20 87.5t40 72.5t66 54.5t98 34.5l17 -63q-42 -7 -71 -24t-48 -41.5t-29 -55.5t-14 -65l-18 -154q-9 -69 -52 -105q35 -37 26 -105l-19 -154q-4 -35 -1.5 -65.5t15 -55t37 -41.5t64.5 -24l-32 -63q-55 12 -89.5 34.5t-52.5 55 t-22 73t2 87.5l19 155q4 32 -6.5 51t-39.5 19h-24z" />
<glyph unicode="}" horiz-adv-x="320" d="M276 322q-29 0 -43.5 -19t-18.5 -51l-19 -155q-6 -47 -20.5 -87.5t-40.5 -73t-66 -55t-98 -34.5l-16 63q42 7 71 24t47.5 41.5t28.5 55t14 65.5l19 154q7 67 51 105q-18 19 -24 45t-2 60l19 154q4 34 1.5 65t-15 55.5t-37 41.5t-64.5 24l32 63q55 -12 89.5 -34.5 t52.5 -54.5t22 -72.5t-2 -87.5l-19 -156q-4 -32 7 -51t40 -19h23l-9 -66h-23z" />
<glyph unicode="/" horiz-adv-x="420" d="M177 338l241 518l65 -24l-242 -510l-239 -518l-65 24z" />
<glyph unicode="\" horiz-adv-x="420" d="M178 322l-117 510l67 24l112 -518l119 -510l-68 -24z" />
<glyph unicode="*" horiz-adv-x="445" d="M186 375l36 157l-132 -93l-32 74l145 64l-130 64l50 74l110 -94l2 158h83l-36 -158l133 94l33 -74l-147 -64l132 -64l-51 -74l-110 93l-3 -157h-83z" />
<glyph unicode="&#x2022;" horiz-adv-x="338" d="M50 339q0 31 11 57.5t29.5 45.5t44 30t54.5 11q49 0 78 -31t29 -81q0 -31 -11 -57.5t-29.5 -45.5t-44 -30t-54.5 -11q-49 0 -78 31t-29 81z" />
<glyph unicode="&#xa7;" horiz-adv-x="594" d="M29 -118q35 -16 67 -25t62 -13q24 52 25.5 99.5t-10 92.5t-31 89l-39 89.5t-33.5 93.5t-14 101q0 70 25.5 124t69 91t100 55.5t119.5 18.5q109 0 196 -43l-26 -71q-35 16 -67 25t-63 13q-24 -53 -25 -100t10.5 -92.5t31.5 -89l39.5 -89t33.5 -93.5t14 -101 q0 -71 -25.5 -124.5t-69 -90.5t-100.5 -55.5t-119 -18.5q-110 0 -196 43zM430 47q0 45 -14 89.5t-33 89.5l-38.5 91.5t-30.5 95.5t-9.5 101.5t25.5 109.5q-40 -5 -75 -21.5t-60.5 -43t-40 -62t-14.5 -78.5q0 -46 14 -90.5t32.5 -89.5l38 -91.5t30.5 -95t9.5 -101 t-25.5 -109.5q40 5 74.5 21.5t60.5 43t41 62t15 78.5z" />
<glyph unicode="&#x2020;" horiz-adv-x="554" d="M181 -70l80 511l-227 -17l12 96l222 -17l16 259h93l-49 -259l227 17l-12 -96l-224 17l-45 -511h-93z" />
<glyph unicode="&#xa9;" horiz-adv-x="793" d="M48 313q0 86 32 160.5t86.5 130t126.5 87t152 31.5q68 0 124.5 -25t97 -68.5t63 -103t22.5 -128.5q0 -86 -32 -160.5t-86.5 -130t-126.5 -87t-152 -31.5q-68 0 -124.5 25t-97 68.5t-63 103t-22.5 128.5zM116 318q0 -58 18 -107t50 -84t77.5 -55t99.5 -20q65 0 123.5 26 t103 71.5t70.5 107.5t26 135q0 58 -18 107t-50.5 84.5t-78 55t-99.5 19.5q-65 0 -123.5 -26t-102.5 -71.5t-70 -107.5t-26 -135zM225 320q0 58 18.5 101t48.5 71t67.5 41.5t75.5 13.5q30 0 57.5 -7t50.5 -19l-20 -113l-61 -13l9 91q-20 7 -42 7q-21 0 -44 -9.5t-42 -30 t-31.5 -52t-12.5 -76.5q0 -52 27 -78.5t73 -26.5q24 0 50.5 6.5t53.5 17.5l4 -53q-26 -12 -57.5 -20t-63.5 -8q-72 0 -116.5 40t-44.5 117z" />
<glyph unicode="&#xae;" horiz-adv-x="514" d="M75 537q0 51 19 96t51.5 78t76 52t91.5 19q40 0 74 -14.5t58.5 -41t38 -62t13.5 -77.5q0 -51 -19 -96t-52 -78t-76 -52t-91 -19q-41 0 -75 14.5t-58 41t-37.5 62t-13.5 77.5zM126 542q0 -33 10 -60.5t28.5 -47.5t44 -31.5t56.5 -11.5q37 0 69.5 14.5t57 40.5t39 60.5 t14.5 75.5q0 33 -10 60.5t-28.5 47.5t-44 31.5t-56.5 11.5q-37 0 -69.5 -14.5t-57 -40.5t-39 -61t-14.5 -75zM283 527l-31 -2l-8 -67h-52l26 208h87q32 0 51.5 -15.5t19.5 -45.5q0 -26 -13 -42.5t-33 -25.5l45 -79h-60zM282 565q17 0 28.5 8.5t11.5 26.5q0 14 -8.5 20.5 t-22.5 6.5h-27l-7 -62h25z" />
<glyph unicode="&#x2122;" horiz-adv-x="783" d="M98 710h261l-10 -51h-95l-34 -267h-65l33 267h-99zM414 710h84l40 -186l9 -66l26 66l83 186h85l2 -318h-65l4 189l2 68l-26 -65l-84 -192h-73l-36 192l-10 65l-14 -68l-43 -189h-64z" />
<glyph unicode="@" horiz-adv-x="1053" d="M281 193q0 68 19.5 127t55.5 102t87.5 67.5t114.5 24.5q44 0 88.5 -11.5t86.5 -31.5l-41 -335q-5 -38 6.5 -60.5t36.5 -22.5q33 0 67 22t61.5 62t45 96t17.5 123q0 80 -27 137.5t-73 94.5t-106 54.5t-126 17.5q-46 0 -100 -11.5t-107.5 -36.5t-103 -64.5t-87.5 -94.5 t-61 -127.5t-23 -163.5q0 -82 24.5 -144t68 -104t103.5 -63t132 -21q80 0 149 21t132 53l6 -56q-64 -35 -137.5 -57.5t-157.5 -22.5q-86 0 -159 24t-125.5 72t-82 119.5t-29.5 167.5q0 103 27 186t72.5 146t104.5 108.5t122.5 74.5t126.5 42.5t117 13.5q79 0 150 -20.5 t124.5 -64t85 -111t31.5 -161.5q0 -83 -23.5 -152t-62.5 -119t-90 -78t-106 -28q-18 0 -35.5 4.5t-32 16t-24.5 31t-12 49.5q-43 -53 -91 -77t-88 -24q-31 0 -58.5 12t-48 37t-32.5 64t-12 92zM367 197q0 -71 26 -107t68 -36q15 0 33.5 8t38.5 22t40 33t39 40l33 267 q-27 14 -53 19.5t-48 5.5q-38 0 -70 -18t-56 -51t-37.5 -79.5t-13.5 -103.5z" />
<glyph unicode="&#x26;" horiz-adv-x="679" d="M12 158q0 75 46.5 134.5t130.5 91.5q-29 41 -43 76.5t-14 71.5q0 42 16.5 76.5t46 60t70.5 39.5t90 14q28 0 51 -2.5t44 -7.5t40.5 -13t42.5 -19l-27 -160l-74 -13l13 128q-22 8 -41.5 11.5t-49.5 3.5q-60 0 -95.5 -33t-35.5 -82q0 -27 12 -57t41 -69t77.5 -90 t122.5 -120q18 35 29.5 80.5t14.5 104.5l82 -13q-3 -67 -20.5 -123.5t-48.5 -102.5l96 -86l-50 -70l-99 92q-48 -45 -111 -69t-136 -24q-53 0 -94 13t-69 36t-43 54t-15 67zM427 131l-111.5 108.5t-83.5 90.5q-67 -27 -97.5 -69t-30.5 -93q0 -47 37.5 -78.5t101.5 -31.5 q48 0 96 16.5t88 56.5z" />
<glyph unicode="%" horiz-adv-x="889" d="M494 174q0 54 15.5 99t42 77.5t62 50.5t76.5 18q33 0 60 -13t46 -37t29.5 -57.5t10.5 -73.5q0 -54 -16 -99t-43 -77.5t-63 -50.5t-76 -18q-66 0 -105 49.5t-39 131.5zM571 170q0 -54 19.5 -87.5t54.5 -33.5q23 0 43.5 14.5t36 40t24.5 61t9 77.5q0 54 -19.5 87.5 t-53.5 33.5q-23 0 -44 -14.5t-36.5 -40t-24.5 -61t-9 -77.5zM750 734l-275 -406l-271 -409l-52 33l275 406l270 410zM52 448q0 54 15.5 99t42 77.5t62 50.5t76.5 18q33 0 60 -13t46 -37t29.5 -57.5t10.5 -73.5q0 -54 -16 -99t-43 -77.5t-63 -50.5t-76 -18q-66 0 -105 49.5 t-39 131.5zM129 444q0 -54 19.5 -87.5t54.5 -33.5q23 0 43.5 14.5t36 40t24.5 61t9 77.5q0 54 -19.5 87.5t-53.5 33.5q-23 0 -44 -14.5t-36.5 -40t-24.5 -61t-9 -77.5z" />
<glyph unicode="&#x2030;" horiz-adv-x="1313" d="M494 174q0 54 15.5 99t42 77.5t62 50.5t76.5 18q33 0 60 -13t46 -37t29.5 -57.5t10.5 -73.5q0 -54 -16 -99t-43 -77.5t-63 -50.5t-76 -18q-66 0 -105 49.5t-39 131.5zM571 170q0 -54 19.5 -87.5t54.5 -33.5q23 0 43.5 14.5t36 40t24.5 61t9 77.5q0 54 -19.5 87.5 t-53.5 33.5q-23 0 -44 -14.5t-36.5 -40t-24.5 -61t-9 -77.5zM918 174q0 54 15.5 99t42 77.5t62 50.5t76.5 18q33 0 60 -13t46 -37t29.5 -57.5t10.5 -73.5q0 -54 -16 -99t-43 -77.5t-63 -50.5t-76 -18q-66 0 -105 49.5t-39 131.5zM995 170q0 -54 19.5 -87.5t54.5 -33.5 q23 0 43.5 14.5t36 40t24.5 61t9 77.5q0 54 -19.5 87.5t-53.5 33.5q-23 0 -44 -14.5t-36.5 -40t-24.5 -61t-9 -77.5zM750 734l-275 -406l-271 -409l-52 33l275 406l270 410zM52 448q0 54 15.5 99t42 77.5t62 50.5t76.5 18q33 0 60 -13t46 -37t29.5 -57.5t10.5 -73.5 q0 -54 -16 -99t-43 -77.5t-63 -50.5t-76 -18q-66 0 -105 49.5t-39 131.5zM129 444q0 -54 19.5 -87.5t54.5 -33.5q23 0 43.5 14.5t36 40t24.5 61t9 77.5q0 54 -19.5 87.5t-53.5 33.5q-23 0 -44 -14.5t-36.5 -40t-24.5 -61t-9 -77.5z" />
</font>
</defs>
</svg>
