<?xml version="1.0" standalone="no"?>
<!DOCTYPE svg PUBLIC "-//W3C//DTD SVG 1.1//EN" "http://www.w3.org/Graphics/SVG/1.1/DTD/svg11.dtd" >
<svg xmlns="http://www.w3.org/2000/svg">
<metadata>
This is a custom SVG webfont generated by Suitcase Type Foundry.
</metadata>
<defs>
<font id="briefcasetype-v7wXGOnl" horiz-adv-x="577" >
<font-face units-per-em="1000" ascent="800" descent="-200" />
<missing-glyph horiz-adv-x="256" />
<glyph unicode=" "  horiz-adv-x="256" />
<glyph unicode="&#x09;" horiz-adv-x="256" />
<glyph unicode="&#xa0;" horiz-adv-x="256" />
<glyph unicode="A" horiz-adv-x="704" d="M284 710h136l270 -710h-128l-67 191h-291l-66 -191h-124zM236 282h227l-55 157l-58 176l-59 -176z" />
<glyph unicode="B" horiz-adv-x="628" d="M68 710h284q45 0 84 -11t68.5 -33.5t46 -56t16.5 -79.5q0 -60 -29.5 -99.5t-75.5 -59.5q62 -18 99.5 -63t37.5 -116q0 -48 -18.5 -84t-50.5 -60t-74.5 -36t-89.5 -12h-298v710zM343 88q28 0 53 7t44 21.5t30 37t11 52.5t-10 52t-27.5 36t-41.5 20.5t-51 6.5h-170v-233 h162zM321 406q26 0 49 6.5t40.5 20t28 34.5t10.5 49t-9.5 48t-25.5 33t-38 19t-47 6h-148v-216h140z" />
<glyph unicode="C" horiz-adv-x="617" d="M34 355q0 91 28 160t76 115t111 69t134 23q56 0 107 -13t94 -35l-10 -205l-98 -17l-3 166q-23 7 -44.5 10.5t-44.5 3.5q-47 0 -88.5 -16.5t-72.5 -51t-49.5 -86.5t-18.5 -123q0 -73 19 -125t50.5 -85t73.5 -48.5t89 -15.5t94 12t93 32l20 -88q-42 -21 -98 -35t-116 -14 q-68 0 -130.5 21.5t-110.5 66t-76.5 114t-28.5 165.5z" />
<glyph unicode="D" horiz-adv-x="723" d="M68 710h275q75 0 138.5 -25.5t109.5 -72.5t72 -112.5t26 -144.5q0 -80 -26 -145t-72 -112t-109.5 -72.5t-138.5 -25.5h-275v710zM343 91q49 0 90 18.5t71 53t46.5 83.5t16.5 109t-16.5 108.5t-46.5 83t-71 53.5t-90 19h-159v-528h159z" />
<glyph unicode="E" horiz-adv-x="575" d="M68 710h482l-7 -91h-359v-217l301 7v-97l-301 8v-229h376l-7 -91h-485v710z" />
<glyph unicode="F" horiz-adv-x="530" d="M68 710h455l-7 -91h-332v-243l284 7v-97l-284 8v-294h-116v710z" />
<glyph unicode="G" horiz-adv-x="672" d="M34 355q0 96 30 165.5t80 114t115 66t136 21.5q63 0 120 -14t102 -35l-20 -87q-47 19 -99 31.5t-100 12.5t-92 -15.5t-77.5 -49t-53.5 -85.5t-20 -125t20 -125t53.5 -85t77.5 -48.5t92 -15.5q57 0 113 18v188l-171 -4v97l281 -10v-332q-48 -22 -105.5 -36t-120.5 -14 q-71 0 -136 21.5t-115 66t-80 114t-30 165.5z" />
<glyph unicode="H" horiz-adv-x="712" d="M68 710h116v-297h344v297h116v-710h-116v322h-344v-322h-116v710z" />
<glyph unicode="I" horiz-adv-x="252" d="M68 710h116v-710h-116v710z" />
<glyph unicode="J" horiz-adv-x="269" d="M85 710h116v-638q0 -44 -12 -81t-32 -68.5t-47 -57.5t-58 -47l-60 60q19 19 36 40t29.5 44t20 50t7.5 59v639z" />
<glyph unicode="K" horiz-adv-x="657" d="M68 710h116v-326l312 326h141l-296 -306l318 -404h-146l-248 321l-81 -62v-259h-116v710z" />
<glyph unicode="L" horiz-adv-x="547" d="M68 710h116v-619h356l-6 -91h-466v710z" />
<glyph unicode="M" horiz-adv-x="968" d="M137 710h149l141 -411l57 -181l56 181l141 411h149l93 -710h-118l-45 398l-18 187l-60 -187l-136 -398h-130l-137 398l-62 190l-17 -190l-44 -398h-111z" />
<glyph unicode="N" horiz-adv-x="709" d="M68 710h110l257 -379l100 -156l-4 187v348h110v-710h-110l-257 377l-100 158l4 -187v-348h-110v710z" />
<glyph unicode="O" horiz-adv-x="756" d="M34 355q0 82 25.5 149.5t71.5 116t109 75t137 26.5q75 0 138.5 -26.5t109 -75t71.5 -116t26 -149.5t-26 -149.5t-71.5 -116t-109 -75t-138.5 -26.5q-74 0 -137 26.5t-109 75t-71.5 116t-25.5 149.5zM155 355q0 -62 16.5 -113t46.5 -87t70.5 -56t88.5 -20q49 0 90 20 t70.5 56t46 87t16.5 113t-16.5 113t-46 87t-70.5 56t-90 20q-48 0 -88.5 -20t-70.5 -56t-46.5 -87t-16.5 -113z" />
<glyph unicode="P" horiz-adv-x="598" d="M68 710h257q54 0 101 -14t81.5 -41.5t54 -70t19.5 -99.5q0 -56 -21 -99t-57 -71.5t-84 -43t-103 -14.5h-132v-257h-116v710zM303 348q33 0 61.5 8.5t49.5 25.5t33.5 42.5t12.5 60.5q0 70 -42 102t-106 32h-128v-271h119z" />
<glyph unicode="Q" horiz-adv-x="756" d="M34 355q0 82 25.5 149.5t71.5 116t109 75t137 26.5q75 0 138.5 -26.5t109 -75t71.5 -116t26 -149.5q0 -95 -33.5 -170t-93.5 -123l170 -155l-82 -82l-183 183q-58 -20 -123 -20q-74 0 -137 26.5t-109 75t-71.5 116t-25.5 149.5zM155 355q0 -62 16.5 -113t46.5 -87 t70.5 -56t88.5 -20q49 0 90 20t70.5 56t46 87t16.5 113t-16.5 113t-46 87t-70.5 56t-90 20q-48 0 -88.5 -20t-70.5 -56t-46.5 -87t-16.5 -113z" />
<glyph unicode="R" horiz-adv-x="621" d="M313 270h-8l-121 -3v-267h-116v710h246q53 0 99 -13t79.5 -40t52.5 -68t19 -96q0 -78 -38.5 -127t-101.5 -73l203 -293h-143zM291 358q31 0 59 8t48.5 24.5t32.5 41t12 58.5t-11 58t-30 40t-45 23.5t-57 7.5h-116v-261h107z" />
<glyph unicode="S" horiz-adv-x="585" d="M72 130q57 -24 109 -37t100 -13q69 0 108 35.5t39 86.5q0 26 -12.5 43.5t-33.5 29.5t-48.5 21l-56.5 18q-35 10 -75.5 23t-75.5 36t-58.5 58.5t-23.5 89.5q0 39 14 75.5t44.5 64t78 44.5t114.5 17q56 0 109.5 -11.5t103.5 -31.5l-21 -93q-56 21 -104 32.5t-93 11.5 q-66 0 -98 -29t-32 -71q0 -22 9.5 -38t26 -27.5t38 -20.5t46.5 -16l85 -25t86 -37t66.5 -60t26.5 -95q0 -54 -20.5 -95.5t-57.5 -70t-89 -43t-114 -14.5q-55 0 -108 13t-104 34z" />
<glyph unicode="T" horiz-adv-x="582" d="M14 710h561l-6 -91h-220v-619h-116v619h-226z" />
<glyph unicode="U" horiz-adv-x="706" d="M181 710v-466q0 -44 13.5 -75t37 -51t54.5 -29.5t66 -9.5q36 0 67.5 9.5t55 29.5t37 51t13.5 75v466h116v-464q0 -69 -23 -118t-62 -80t-91.5 -45.5t-112.5 -14.5q-59 0 -111.5 14.5t-91.5 45.5t-61.5 80t-22.5 118v464h116z" />
<glyph unicode="V" horiz-adv-x="701" d="M14 710h128l152 -433l59 -179l58 179l153 433h123l-269 -710h-134z" />
<glyph unicode="W" horiz-adv-x="1027" d="M14 710h125l107 -387l46 -183l49 183l115 387h117l113 -387l48 -183l48 183l108 387h123l-218 -710h-121l-111 375l-49 183l-50 -183l-111 -375h-122z" />
<glyph unicode="X" horiz-adv-x="651" d="M255 353l-241 357h139l121 -182l53 -92l55 92l121 182h134l-241 -353l241 -357h-139l-120 182l-54 91l-54 -91l-121 -182h-135z" />
<glyph unicode="Y" horiz-adv-x="647" d="M266 265l-269 445h134l110 -199l86 -157l86 157l111 199h126l-268 -445v-265h-116v265z" />
<glyph unicode="Z" horiz-adv-x="586" d="M37 91l272 388l104 140h-376l7 91h505v-91l-271 -388l-104 -140h375l-6 -91h-506v91z" />
<glyph unicode="&#xc1;" horiz-adv-x="704" d="M284 710h136l270 -710h-128l-67 191h-291l-66 -191h-124zM236 282h227l-55 157l-58 176l-59 -176zM552 917l-171 -149h-102l128 156z" />
<glyph unicode="&#xc4;" horiz-adv-x="704" d="M284 710h136l270 -710h-128l-67 191h-291l-66 -191h-124zM236 282h227l-55 157l-58 176l-59 -176zM171 850q0 27 18 44.5t46 17.5q27 0 45.5 -17.5t18.5 -44.5q0 -26 -18.5 -44t-45.5 -18q-28 0 -46 18t-18 44zM403 850q0 27 18.5 44.5t45.5 17.5t45.5 -17.5t18.5 -44.5 q0 -26 -18.5 -44t-45.5 -18t-45.5 18t-18.5 44z" />
<glyph unicode="&#x10c;" horiz-adv-x="617" d="M34 355q0 91 28 160t76 115t111 69t134 23q56 0 107 -13t94 -35l-10 -205l-98 -17l-3 166q-23 7 -44.5 10.5t-44.5 3.5q-47 0 -88.5 -16.5t-72.5 -51t-49.5 -86.5t-18.5 -123q0 -73 19 -125t50.5 -85t73.5 -48.5t89 -15.5t94 12t93 32l20 -88q-42 -21 -98 -35t-116 -14 q-68 0 -130.5 21.5t-110.5 66t-76.5 114t-28.5 165.5zM172 917l98 7l94 -86l93 86l97 -7l-136 -149h-110z" />
<glyph unicode="&#x10e;" horiz-adv-x="723" d="M130 917l98 7l94 -86l93 86l97 -7l-136 -149h-110zM68 710h275q75 0 138.5 -25.5t109.5 -72.5t72 -112.5t26 -144.5q0 -80 -26 -145t-72 -112t-109.5 -72.5t-138.5 -25.5h-275v710zM343 91q49 0 90 18.5t71 53t46.5 83.5t16.5 109t-16.5 108.5t-46.5 83t-71 53.5t-90 19 h-159v-528h159z" />
<glyph unicode="&#xc9;" horiz-adv-x="575" d="M468 917l-171 -149h-102l128 156zM68 710h482l-7 -91h-359v-217l301 7v-97l-301 8v-229h376l-7 -91h-485v710z" />
<glyph unicode="&#x11a;" horiz-adv-x="575" d="M116 917l98 7l94 -86l93 86l97 -7l-136 -149h-110zM68 710h482l-7 -91h-359v-217l301 7v-97l-301 8v-229h376l-7 -91h-485v710z" />
<glyph unicode="&#xcd;" horiz-adv-x="252" d="M68 710h116v-710h-116v710zM326 917l-171 -149h-102l128 156z" />
<glyph unicode="&#x139;" horiz-adv-x="547" d="M326 917l-171 -149h-102l128 156zM68 710h116v-619h356l-6 -91h-466v710z" />
<glyph unicode="&#x13d;" horiz-adv-x="547" d="M339 791q30 -59 20 -119t-64 -110l-57 26q17 25 25.5 46t9 41.5t-7 42t-21.5 47.5zM68 710h116v-619h356l-6 -91h-466v710z" />
<glyph unicode="&#x13f;" horiz-adv-x="547" d="M330 366q0 29 20 48t50 19t49.5 -19.5t19.5 -48.5t-19.5 -48t-49.5 -19t-50 19.5t-20 48.5zM68 710h116v-619h356l-6 -91h-466v710z" />
<glyph unicode="&#x147;" horiz-adv-x="709" d="M163 917l98 7l94 -86l93 86l97 -7l-136 -149h-110zM68 710h110l257 -379l100 -156l-4 187v348h110v-710h-110l-257 377l-100 158l4 -187v-348h-110v710z" />
<glyph unicode="&#xd3;" horiz-adv-x="756" d="M564 917l-171 -149h-102l128 156zM34 355q0 82 25.5 149.5t71.5 116t109 75t137 26.5q75 0 138.5 -26.5t109 -75t71.5 -116t26 -149.5t-26 -149.5t-71.5 -116t-109 -75t-138.5 -26.5q-74 0 -137 26.5t-109 75t-71.5 116t-25.5 149.5zM155 355q0 -62 16.5 -113t46.5 -87 t70.5 -56t88.5 -20q49 0 90 20t70.5 56t46 87t16.5 113t-16.5 113t-46 87t-70.5 56t-90 20q-48 0 -88.5 -20t-70.5 -56t-46.5 -87t-16.5 -113z" />
<glyph unicode="&#xd4;" horiz-adv-x="756" d="M34 355q0 82 25.5 149.5t71.5 116t109 75t137 26.5q75 0 138.5 -26.5t109 -75t71.5 -116t26 -149.5t-26 -149.5t-71.5 -116t-109 -75t-138.5 -26.5q-74 0 -137 26.5t-109 75t-71.5 116t-25.5 149.5zM155 355q0 -62 16.5 -113t46.5 -87t70.5 -56t88.5 -20q49 0 90 20 t70.5 56t46 87t16.5 113t-16.5 113t-46 87t-70.5 56t-90 20q-48 0 -88.5 -20t-70.5 -56t-46.5 -87t-16.5 -113zM565 775h-107l-82 75l-82 -75h-105l131 144l108 7z" />
<glyph unicode="&#xd6;" horiz-adv-x="756" d="M197 850q0 27 18 44.5t46 17.5q27 0 45.5 -17.5t18.5 -44.5q0 -26 -18.5 -44t-45.5 -18q-28 0 -46 18t-18 44zM429 850q0 27 18.5 44.5t45.5 17.5t45.5 -17.5t18.5 -44.5q0 -26 -18.5 -44t-45.5 -18t-45.5 18t-18.5 44zM34 355q0 82 25.5 149.5t71.5 116t109 75t137 26.5 q75 0 138.5 -26.5t109 -75t71.5 -116t26 -149.5t-26 -149.5t-71.5 -116t-109 -75t-138.5 -26.5q-74 0 -137 26.5t-109 75t-71.5 116t-25.5 149.5zM155 355q0 -62 16.5 -113t46.5 -87t70.5 -56t88.5 -20q49 0 90 20t70.5 56t46 87t16.5 113t-16.5 113t-46 87t-70.5 56t-90 20 q-48 0 -88.5 -20t-70.5 -56t-46.5 -87t-16.5 -113z" />
<glyph unicode="&#x150;" horiz-adv-x="756" d="M34 355q0 82 25.5 149.5t71.5 116t109 75t137 26.5q75 0 138.5 -26.5t109 -75t71.5 -116t26 -149.5t-26 -149.5t-71.5 -116t-109 -75t-138.5 -26.5q-74 0 -137 26.5t-109 75t-71.5 116t-25.5 149.5zM155 355q0 -62 16.5 -113t46.5 -87t70.5 -56t88.5 -20q49 0 90 20 t70.5 56t46 87t16.5 113t-16.5 113t-46 87t-70.5 56t-90 20q-48 0 -88.5 -20t-70.5 -56t-46.5 -87t-16.5 -113zM446 917l-155 -149h-93l113 156zM647 917l-157 -149h-94l117 156z" />
<glyph unicode="&#x154;" horiz-adv-x="621" d="M313 270h-8l-121 -3v-267h-116v710h246q53 0 99 -13t79.5 -40t52.5 -68t19 -96q0 -78 -38.5 -127t-101.5 -73l203 -293h-143zM291 358q31 0 59 8t48.5 24.5t32.5 41t12 58.5t-11 58t-30 40t-45 23.5t-57 7.5h-116v-261h107zM456 917l-171 -149h-102l128 156z" />
<glyph unicode="&#x158;" horiz-adv-x="621" d="M99 917l98 7l94 -86l93 86l97 -7l-136 -149h-110zM313 270h-8l-121 -3v-267h-116v710h246q53 0 99 -13t79.5 -40t52.5 -68t19 -96q0 -78 -38.5 -127t-101.5 -73l203 -293h-143zM291 358q31 0 59 8t48.5 24.5t32.5 41t12 58.5t-11 58t-30 40t-45 23.5t-57 7.5h-116v-261 h107z" />
<glyph unicode="&#x160;" horiz-adv-x="585" d="M72 130q57 -24 109 -37t100 -13q69 0 108 35.5t39 86.5q0 26 -12.5 43.5t-33.5 29.5t-48.5 21l-56.5 18q-35 10 -75.5 23t-75.5 36t-58.5 58.5t-23.5 89.5q0 39 14 75.5t44.5 64t78 44.5t114.5 17q56 0 109.5 -11.5t103.5 -31.5l-21 -93q-56 21 -104 32.5t-93 11.5 q-66 0 -98 -29t-32 -71q0 -22 9.5 -38t26 -27.5t38 -20.5t46.5 -16l85 -25t86 -37t66.5 -60t26.5 -95q0 -54 -20.5 -95.5t-57.5 -70t-89 -43t-114 -14.5q-55 0 -108 13t-104 34zM101 917l98 7l94 -86l93 86l97 -7l-136 -149h-110z" />
<glyph unicode="&#x164;" horiz-adv-x="582" d="M99 917l98 7l94 -86l93 86l97 -7l-136 -149h-110zM14 710h561l-6 -91h-220v-619h-116v619h-226z" />
<glyph unicode="&#xda;" horiz-adv-x="706" d="M539 917l-171 -149h-102l128 156zM181 710v-466q0 -44 13.5 -75t37 -51t54.5 -29.5t66 -9.5q36 0 67.5 9.5t55 29.5t37 51t13.5 75v466h116v-464q0 -69 -23 -118t-62 -80t-91.5 -45.5t-112.5 -14.5q-59 0 -111.5 14.5t-91.5 45.5t-61.5 80t-22.5 118v464h116z" />
<glyph unicode="&#xdc;" horiz-adv-x="706" d="M172 850q0 27 18 44.5t46 17.5q27 0 45.5 -17.5t18.5 -44.5q0 -26 -18.5 -44t-45.5 -18q-28 0 -46 18t-18 44zM404 850q0 27 18.5 44.5t45.5 17.5t45.5 -17.5t18.5 -44.5q0 -26 -18.5 -44t-45.5 -18t-45.5 18t-18.5 44zM181 710v-466q0 -44 13.5 -75t37 -51t54.5 -29.5 t66 -9.5q36 0 67.5 9.5t55 29.5t37 51t13.5 75v466h116v-464q0 -69 -23 -118t-62 -80t-91.5 -45.5t-112.5 -14.5q-59 0 -111.5 14.5t-91.5 45.5t-61.5 80t-22.5 118v464h116z" />
<glyph unicode="&#x170;" horiz-adv-x="706" d="M181 710v-466q0 -44 13.5 -75t37 -51t54.5 -29.5t66 -9.5q36 0 67.5 9.5t55 29.5t37 51t13.5 75v466h116v-464q0 -69 -23 -118t-62 -80t-91.5 -45.5t-112.5 -14.5q-59 0 -111.5 14.5t-91.5 45.5t-61.5 80t-22.5 118v464h116zM415 917l-155 -149h-93l113 156zM616 917 l-157 -149h-94l117 156z" />
<glyph unicode="&#x16e;" horiz-adv-x="706" d="M181 710v-466q0 -44 13.5 -75t37 -51t54.5 -29.5t66 -9.5q36 0 67.5 9.5t55 29.5t37 51t13.5 75v466h116v-464q0 -69 -23 -118t-62 -80t-91.5 -45.5t-112.5 -14.5q-59 0 -111.5 14.5t-91.5 45.5t-61.5 80t-22.5 118v464h116zM226 854q0 47 35.5 78t90.5 31t90.5 -31 t35.5 -78q0 -24 -9.5 -44t-26 -34.5t-40 -23t-50.5 -8.5t-50.5 8.5t-40 23t-26 34.5t-9.5 44zM304 854q0 -21 13 -35t35 -14t35 14t13 35t-13 34.5t-35 13.5t-35 -13.5t-13 -34.5z" />
<glyph unicode="&#xdd;" horiz-adv-x="647" d="M266 265l-269 445h134l110 -199l86 -157l86 157l111 199h126l-268 -445v-265h-116v265zM524 917l-171 -149h-102l128 156z" />
<glyph unicode="&#x17d;" horiz-adv-x="586" d="M101 917l98 7l94 -86l93 86l97 -7l-136 -149h-110zM37 91l272 388l104 140h-376l7 91h505v-91l-271 -388l-104 -140h375l-6 -91h-506v91z" />
<glyph unicode="a" horiz-adv-x="513" d="M23 122q0 43 21 74.5t60 52.5t93.5 33t122.5 18v42q0 97 -85 97q-32 0 -72 -9t-91 -32l-16 81q48 17 98 28.5t101 11.5q85 0 129 -45.5t44 -140.5v-189q0 -41 19 -55.5t59 -14.5l-13 -80q-67 -8 -104 10.5t-53 63.5q-35 -35 -81 -57.5t-91 -22.5q-62 0 -101.5 35.5 t-39.5 98.5zM131 130q-2 -62 65 -62q18 0 36.5 6.5t35 15.5t30.5 19.5t22 18.5v111q-98 -11 -143 -37.5t-46 -71.5z" />
<glyph unicode="b" horiz-adv-x="575" d="M68 758l108 19v-327q40 35 84 52t86 17q39 0 74.5 -15.5t62.5 -47.5t42.5 -80.5t15.5 -113.5q0 -67 -20 -118.5t-55.5 -86t-84.5 -52t-107 -17.5q-56 0 -105.5 11.5t-100.5 32.5v726zM176 95q57 -26 103 -26q69 0 109.5 51.5t40.5 141.5q0 84 -32 128.5t-86 44.5 q-29 0 -63.5 -13.5t-71.5 -40.5v-286z" />
<glyph unicode="c" horiz-adv-x="489" d="M34 247q0 65 20.5 116t56.5 85.5t85 52.5t105 18q38 0 77 -8t77 -25l-10 -161l-82 -17l-4 122q-45 9 -84 2.5t-68 -29.5t-46 -62t-17 -94q0 -47 11 -80.5t31 -54.5t47 -30.5t60 -9.5q34 0 72.5 9.5t79.5 26.5l17 -79q-47 -21 -91 -31t-86 -10q-52 0 -97.5 16t-79.5 48 t-54 80.5t-20 114.5z" />
<glyph unicode="d" horiz-adv-x="575" d="M34 245q0 66 19 117t53 86t79.5 53t98.5 18q57 0 115 -19v258l108 19v-777h-103l-5 58q-40 -35 -84 -52.5t-86 -17.5q-39 0 -74.5 16t-62.5 48t-42.5 80t-15.5 113zM146 245q0 -84 32 -128.5t86 -44.5q62 0 135 55v285q-28 14 -54 20t-49 6q-69 0 -109.5 -51t-40.5 -142z " />
<glyph unicode="e" horiz-adv-x="519" d="M34 244q0 69 21 121t55 86t78 51t89 17q57 0 98 -20t67 -57t36 -89.5t4 -118.5h-341q2 -68 28 -105t69 -50t98 -4.5t115 32.5l17 -78q-91 -41 -179 -41q-52 0 -98.5 15.5t-81 47t-55 79.5t-20.5 114zM276 446q-22 0 -43 -9t-39 -27.5t-31 -46.5t-19 -67l235 11 q2 66 -26 102.5t-77 36.5z" />
<glyph unicode="f" horiz-adv-x="371" d="M108 425h-90v69l90 13v68q0 93 45 147t130 54q41 0 84 -10l-13 -84q-17 3 -33.5 5t-29.5 2q-46 0 -60.5 -28.5t-14.5 -80.5v-73h131l-7 -82h-124v-425h-108v425z" />
<glyph unicode="g" horiz-adv-x="539" d="M41 343q0 39 16 71.5t44.5 55.5t68 36t85.5 13q22 0 42.5 -3.5t39.5 -8.5h185v-64l-80 -11q12 -20 19 -42t7 -47q0 -39 -16 -72t-44.5 -56t-68 -36t-85.5 -13q-13 0 -25.5 1t-23.5 3q-36 -35 -29 -61t50 -26h94q106 0 154 -33t48 -102q0 -33 -18 -65.5t-55 -58t-92 -41 t-130 -15.5q-59 0 -100.5 12t-67 31t-37 43.5t-11.5 48.5q0 34 22 66.5t73 62.5q-30 31 -23 76t53 85q-44 23 -69.5 61t-25.5 89zM218 -6q-22 0 -40 3q-32 -24 -45.5 -46t-13.5 -42q0 -14 6.5 -27t20.5 -23t36.5 -16.5t54.5 -6.5q48 0 82 9t55 23.5t31 32t10 35.5 q0 32 -25 45t-82 13h-90zM146 343q0 -48 30.5 -77t77.5 -29q48 0 78.5 29t30.5 77q0 47 -30 76t-78 29t-78.5 -29t-30.5 -76z" />
<glyph unicode="h" d="M68 758l108 19v-327q42 33 88.5 51t91.5 18q32 0 60.5 -10.5t49.5 -32.5t33.5 -55.5t12.5 -79.5v-341h-108v330q0 57 -25 80.5t-64 23.5q-32 0 -69 -15.5t-70 -41.5v-377h-108v758z" />
<glyph unicode="i" horiz-adv-x="244" d="M68 500l108 19v-519h-108v500zM55 671q0 29 19 47.5t48 18.5t48.5 -18.5t19.5 -47.5q0 -28 -19.5 -46.5t-48.5 -18.5t-48 18.5t-19 46.5z" />
<glyph unicode="j" horiz-adv-x="261" d="M85 500l108 19v-500q0 -43 -12 -80t-32.5 -68t-47.5 -57t-57 -46l-52 51q19 20 36 41t29.5 45t20 51t7.5 59v485zM72 671q0 29 19 47.5t48 18.5t48.5 -18.5t19.5 -47.5q0 -28 -19.5 -46.5t-48.5 -18.5t-48 18.5t-19 46.5z" />
<glyph unicode="k" horiz-adv-x="534" d="M68 758l108 19v-508l214 238h127l-195 -212l221 -295h-135l-157 217l-75 -59v-158h-108v758z" />
<glyph unicode="l" horiz-adv-x="244" d="M68 758l108 19v-777h-108v758z" />
<glyph unicode="m" horiz-adv-x="859" d="M68 500l104 19l4 -69q38 33 81.5 51t84.5 18t73 -19t52 -60q45 38 93 58.5t92 20.5q30 0 56 -11t45.5 -33t30.5 -55.5t11 -78.5v-341h-108v330q0 56 -21.5 80t-56.5 24q-29 0 -63 -16.5t-64 -43.5q3 -21 3 -44v-330h-108v330q0 57 -22 80.5t-56 23.5q-29 0 -61.5 -15.5 t-61.5 -41.5v-377h-108v500z" />
<glyph unicode="n" d="M68 500l104 19l4 -69q42 33 88.5 51t91.5 18q32 0 60.5 -10.5t49.5 -32.5t33.5 -55.5t12.5 -79.5v-341h-108v330q0 57 -25 80.5t-64 23.5q-32 0 -69 -15.5t-70 -41.5v-377h-108v500z" />
<glyph unicode="o" horiz-adv-x="580" d="M34 254q0 59 19 108t53.5 84t81 54t102.5 19q55 0 102 -19t81.5 -54t53.5 -84t19 -108q0 -60 -19 -109t-53.5 -84t-81.5 -54t-102 -19q-56 0 -102.5 19t-81 54t-53.5 84t-19 109zM146 254q0 -42 10.5 -76.5t30 -59t45.5 -38t58 -13.5q31 0 57.5 13.5t46 38t30 59 t10.5 76.5t-10.5 76.5t-30 58.5t-46 37.5t-57.5 13.5q-32 0 -58 -13.5t-45.5 -37.5t-30 -58.5t-10.5 -76.5z" />
<glyph unicode="p" horiz-adv-x="575" d="M68 500l104 19l4 -69q40 35 84 52t86 17q39 0 74.5 -15.5t62.5 -47.5t42.5 -80.5t15.5 -113.5q0 -66 -19 -117t-53 -86t-79.5 -53t-98.5 -18q-28 0 -56.5 4.5t-58.5 15.5v-228h-108v720zM176 95q57 -26 103 -26q69 0 109.5 51.5t40.5 141.5q0 84 -32 128.5t-86 44.5 q-29 0 -63.5 -13.5t-71.5 -40.5v-286z" />
<glyph unicode="q" horiz-adv-x="575" d="M34 245q0 67 20 118.5t55 86t84 52t107 17.5q57 0 106.5 -11.5t100.5 -33.5v-694h-108v278q-40 -35 -84 -52.5t-86 -17.5q-39 0 -74.5 16t-62.5 48t-42.5 80t-15.5 113zM146 245q0 -84 32 -128.5t86 -44.5q62 0 135 55v285q-28 14 -54 20t-49 6q-69 0 -109.5 -51 t-40.5 -142z" />
<glyph unicode="r" horiz-adv-x="383" d="M68 500l104 19l4 -123q26 54 70 88t107 39l19 -108q-129 0 -196 -105v-310h-108v500z" />
<glyph unicode="s" horiz-adv-x="463" d="M61 104q42 -17 84.5 -28.5t76.5 -11.5q47 0 73 22t26 57q0 16 -8 27t-21.5 19.5t-31.5 14l-37 11.5q-30 7 -62 17.5t-59 28t-44 44.5t-17 68q0 66 50 106t138 40q45 0 87 -8.5t79 -23.5l-15 -81q-42 18 -82.5 28t-72.5 10q-42 0 -62.5 -17.5t-20.5 -47.5q0 -17 7.5 -28 t20.5 -19t30.5 -14t36.5 -11q30 -8 62.5 -18t59.5 -27t45 -44t18 -69q0 -43 -17.5 -73.5t-47 -50t-67.5 -28.5t-78 -9q-45 0 -86.5 10t-78.5 26z" />
<glyph unicode="t" horiz-adv-x="388" d="M209 664v-157h131l-7 -82h-124v-263q0 -53 15 -70t44 -17q15 0 35.5 3t42.5 9l14 -82q-32 -8 -60.5 -12.5t-54.5 -4.5q-73 0 -108.5 42.5t-35.5 122.5v272h-90v69l90 13l18 142z" />
<glyph unicode="u" d="M173 519v-341q0 -57 25 -80.5t64 -23.5q32 0 69 15t70 41v370l108 19v-519h-103l-5 58q-42 -34 -88.5 -52t-91.5 -18q-32 0 -60.5 10.5t-49.5 32.5t-33.5 56t-12.5 80v333z" />
<glyph unicode="v" horiz-adv-x="520" d="M122 507l83 -241l57 -174l57 174l83 241h114l-198 -507h-116l-198 507h118z" />
<glyph unicode="w" horiz-adv-x="754" d="M120 507l57 -235l42 -178l44 178l59 235h113l59 -235l43 -178l43 178l56 235h110l-152 -507h-116l-56 204l-45 176l-45 -176l-56 -204h-116l-152 507h112z" />
<glyph unicode="x" horiz-adv-x="506" d="M188 257l-178 250h129l62 -93l54 -90l53 90l64 93h124l-178 -249l183 -258h-129l-68 99l-53 91l-53 -91l-68 -99h-125z" />
<glyph unicode="y" horiz-adv-x="520" d="M122 507l83 -241l57 -174l57 174l83 241h114l-190 -487q-16 -41 -38 -81t-53 -74t-72.5 -59.5t-97.5 -37.5l-30 88q56 19 97.5 50.5t73.5 82.5l-202 518h118z" />
<glyph unicode="z" horiz-adv-x="474" d="M37 82l161 208l111 135h-272l7 82h393v-82l-161 -208l-111 -135h272l-6 -82h-394v82z" />
<glyph unicode="&#xe1;" horiz-adv-x="513" d="M23 122q0 43 21 74.5t60 52.5t93.5 33t122.5 18v42q0 97 -85 97q-32 0 -72 -9t-91 -32l-16 81q48 17 98 28.5t101 11.5q85 0 129 -45.5t44 -140.5v-189q0 -41 19 -55.5t59 -14.5l-13 -80q-67 -8 -104 10.5t-53 63.5q-35 -35 -81 -57.5t-91 -22.5q-62 0 -101.5 35.5 t-39.5 98.5zM131 130q-2 -62 65 -62q18 0 36.5 6.5t35 15.5t30.5 19.5t22 18.5v111q-98 -11 -143 -37.5t-46 -71.5zM388 757l-118 -185h-90l93 198z" />
<glyph unicode="&#xe4;" horiz-adv-x="513" d="M23 122q0 43 21 74.5t60 52.5t93.5 33t122.5 18v42q0 97 -85 97q-32 0 -72 -9t-91 -32l-16 81q48 17 98 28.5t101 11.5q85 0 129 -45.5t44 -140.5v-189q0 -41 19 -55.5t59 -14.5l-13 -80q-67 -8 -104 10.5t-53 63.5q-35 -35 -81 -57.5t-91 -22.5q-62 0 -101.5 35.5 t-39.5 98.5zM131 130q-2 -62 65 -62q18 0 36.5 6.5t35 15.5t30.5 19.5t22 18.5v111q-98 -11 -143 -37.5t-46 -71.5zM74 662q0 26 18 44t45 18q26 0 44.5 -18t18.5 -44t-18.5 -43.5t-44.5 -17.5q-27 0 -45 17.5t-18 43.5zM289 662q0 26 18.5 44t44.5 18q27 0 45.5 -18 t18.5 -44t-18.5 -43.5t-45.5 -17.5q-26 0 -44.5 17.5t-18.5 43.5z" />
<glyph unicode="&#x10d;" horiz-adv-x="489" d="M114 757l82 13l85 -123l85 123l78 -13l-113 -185h-104zM34 247q0 65 20.5 116t56.5 85.5t85 52.5t105 18q38 0 77 -8t77 -25l-10 -161l-82 -17l-4 122q-45 9 -84 2.5t-68 -29.5t-46 -62t-17 -94q0 -47 11 -80.5t31 -54.5t47 -30.5t60 -9.5q34 0 72.5 9.5t79.5 26.5 l17 -79q-47 -21 -91 -31t-86 -10q-52 0 -97.5 16t-79.5 48t-54 80.5t-20 114.5z" />
<glyph unicode="&#x10f;" horiz-adv-x="665" d="M642 791q30 -59 20 -119t-64 -110l-57 26q17 25 25.5 46t9 41.5t-7 42t-21.5 47.5zM34 245q0 66 19 117t53 86t79.5 53t98.5 18q57 0 115 -19v258l108 19v-777h-103l-5 58q-40 -35 -84 -52.5t-86 -17.5q-39 0 -74.5 16t-62.5 48t-42.5 80t-15.5 113zM146 245 q0 -84 32 -128.5t86 -44.5q62 0 135 55v285q-28 14 -54 20t-49 6q-69 0 -109.5 -51t-40.5 -142z" />
<glyph unicode="&#xe9;" horiz-adv-x="519" d="M420 757l-118 -185h-90l93 198zM34 244q0 69 21 121t55 86t78 51t89 17q57 0 98 -20t67 -57t36 -89.5t4 -118.5h-341q2 -68 28 -105t69 -50t98 -4.5t115 32.5l17 -78q-91 -41 -179 -41q-52 0 -98.5 15.5t-81 47t-55 79.5t-20.5 114zM276 446q-22 0 -43 -9t-39 -27.5 t-31 -46.5t-19 -67l235 11q2 66 -26 102.5t-77 36.5z" />
<glyph unicode="&#x11b;" horiz-adv-x="519" d="M112 757l82 13l85 -123l85 123l78 -13l-113 -185h-104zM34 244q0 69 21 121t55 86t78 51t89 17q57 0 98 -20t67 -57t36 -89.5t4 -118.5h-341q2 -68 28 -105t69 -50t98 -4.5t115 32.5l17 -78q-91 -41 -179 -41q-52 0 -98.5 15.5t-81 47t-55 79.5t-20.5 114zM276 446 q-22 0 -43 -9t-39 -27.5t-31 -46.5t-19 -67l235 11q2 66 -26 102.5t-77 36.5z" />
<glyph unicode="&#xed;" horiz-adv-x="244" d="M273 757l-118 -185h-90l93 198zM68 500l108 19v-519h-108v500z" />
<glyph horiz-adv-x="244" d="M68 500l108 19v-519h-108v500zM55 671q0 29 19 47.5t48 18.5t48.5 -18.5t19.5 -47.5q0 -28 -19.5 -46.5t-48.5 -18.5t-48 18.5t-19 46.5z" />
<glyph unicode="&#x13a;" horiz-adv-x="244" d="M323 943l-171 -149h-102l128 156zM68 758l108 19v-777h-108v758z" />
<glyph unicode="&#x13e;" horiz-adv-x="334" d="M311 791q30 -59 20 -119t-64 -110l-57 26q17 25 25.5 46t9 41.5t-7 42t-21.5 47.5zM68 758l108 19v-777h-108v758z" />
<glyph unicode="&#x140;" horiz-adv-x="344" d="M68 758l108 19v-777h-108v758zM226 407q0 29 19.5 47.5t48.5 18.5q28 0 47.5 -18.5t19.5 -47.5q0 -28 -19.5 -46.5t-47.5 -18.5q-29 0 -48.5 18.5t-19.5 46.5z" />
<glyph unicode="&#x148;" d="M123 757l82 13l85 -123l85 123l78 -13l-113 -185h-104zM68 500l104 19l4 -69q42 33 88.5 51t91.5 18q32 0 60.5 -10.5t49.5 -32.5t33.5 -55.5t12.5 -79.5v-341h-108v330q0 57 -25 80.5t-64 23.5q-32 0 -69 -15.5t-70 -41.5v-377h-108v500z" />
<glyph unicode="&#xf3;" horiz-adv-x="580" d="M433 757l-118 -185h-90l93 198zM34 254q0 59 19 108t53.5 84t81 54t102.5 19q55 0 102 -19t81.5 -54t53.5 -84t19 -108q0 -60 -19 -109t-53.5 -84t-81.5 -54t-102 -19q-56 0 -102.5 19t-81 54t-53.5 84t-19 109zM146 254q0 -42 10.5 -76.5t30 -59t45.5 -38t58 -13.5 q31 0 57.5 13.5t46 38t30 59t10.5 76.5t-10.5 76.5t-30 58.5t-46 37.5t-57.5 13.5q-32 0 -58 -13.5t-45.5 -37.5t-30 -58.5t-10.5 -76.5z" />
<glyph unicode="&#xf4;" horiz-adv-x="580" d="M457 572h-91l-78 111l-78 -111h-87l114 186l102 7zM34 254q0 59 19 108t53.5 84t81 54t102.5 19q55 0 102 -19t81.5 -54t53.5 -84t19 -108q0 -60 -19 -109t-53.5 -84t-81.5 -54t-102 -19q-56 0 -102.5 19t-81 54t-53.5 84t-19 109zM146 254q0 -42 10.5 -76.5t30 -59 t45.5 -38t58 -13.5q31 0 57.5 13.5t46 38t30 59t10.5 76.5t-10.5 76.5t-30 58.5t-46 37.5t-57.5 13.5q-32 0 -58 -13.5t-45.5 -37.5t-30 -58.5t-10.5 -76.5z" />
<glyph unicode="&#xf6;" horiz-adv-x="580" d="M119 662q0 26 18 44t45 18q26 0 44.5 -18t18.5 -44t-18.5 -43.5t-44.5 -17.5q-27 0 -45 17.5t-18 43.5zM334 662q0 26 18.5 44t44.5 18q27 0 45.5 -18t18.5 -44t-18.5 -43.5t-45.5 -17.5q-26 0 -44.5 17.5t-18.5 43.5zM34 254q0 59 19 108t53.5 84t81 54t102.5 19 q55 0 102 -19t81.5 -54t53.5 -84t19 -108q0 -60 -19 -109t-53.5 -84t-81.5 -54t-102 -19q-56 0 -102.5 19t-81 54t-53.5 84t-19 109zM146 254q0 -42 10.5 -76.5t30 -59t45.5 -38t58 -13.5q31 0 57.5 13.5t46 38t30 59t10.5 76.5t-10.5 76.5t-30 58.5t-46 37.5t-57.5 13.5 q-32 0 -58 -13.5t-45.5 -37.5t-30 -58.5t-10.5 -76.5z" />
<glyph unicode="&#x151;" horiz-adv-x="580" d="M335 757l-115 -185h-84l90 198zM518 757l-119 -185h-83l93 198zM34 254q0 59 19 108t53.5 84t81 54t102.5 19q55 0 102 -19t81.5 -54t53.5 -84t19 -108q0 -60 -19 -109t-53.5 -84t-81.5 -54t-102 -19q-56 0 -102.5 19t-81 54t-53.5 84t-19 109zM146 254q0 -42 10.5 -76.5 t30 -59t45.5 -38t58 -13.5q31 0 57.5 13.5t46 38t30 59t10.5 76.5t-10.5 76.5t-30 58.5t-46 37.5t-57.5 13.5q-32 0 -58 -13.5t-45.5 -37.5t-30 -58.5t-10.5 -76.5z" />
<glyph unicode="&#x155;" horiz-adv-x="383" d="M334 757l-118 -185h-90l93 198zM68 500l104 19l4 -123q26 54 70 88t107 39l19 -108q-129 0 -196 -105v-310h-108v500z" />
<glyph unicode="&#x159;" horiz-adv-x="383" d="M26 757l82 13l85 -123l85 123l78 -13l-113 -185h-104zM68 500l104 19l4 -123q26 54 70 88t107 39l19 -108q-129 0 -196 -105v-310h-108v500z" />
<glyph unicode="&#x161;" horiz-adv-x="463" d="M56 757l82 13l85 -123l85 123l78 -13l-113 -185h-104zM61 104q42 -17 84.5 -28.5t76.5 -11.5q47 0 73 22t26 57q0 16 -8 27t-21.5 19.5t-31.5 14l-37 11.5q-30 7 -62 17.5t-59 28t-44 44.5t-17 68q0 66 50 106t138 40q45 0 87 -8.5t79 -23.5l-15 -81q-42 18 -82.5 28 t-72.5 10q-42 0 -62.5 -17.5t-20.5 -47.5q0 -17 7.5 -28t20.5 -19t30.5 -14t36.5 -11q30 -8 62.5 -18t59.5 -27t45 -44t18 -69q0 -43 -17.5 -73.5t-47 -50t-67.5 -28.5t-78 -9q-45 0 -86.5 10t-78.5 26z" />
<glyph unicode="&#x165;" horiz-adv-x="408" d="M343 791q30 -59 20 -119t-64 -110l-57 26q17 25 25.5 46t9 41.5t-7 42t-21.5 47.5zM209 664v-157h131l-7 -82h-124v-263q0 -53 15 -70t44 -17q15 0 35.5 3t42.5 9l14 -82q-32 -8 -60.5 -12.5t-54.5 -4.5q-73 0 -108.5 42.5t-35.5 122.5v272h-90v69l90 13l18 142z" />
<glyph unicode="&#xfa;" d="M432 757l-118 -185h-90l93 198zM173 519v-341q0 -57 25 -80.5t64 -23.5q32 0 69 15t70 41v370l108 19v-519h-103l-5 58q-42 -34 -88.5 -52t-91.5 -18q-32 0 -60.5 10.5t-49.5 32.5t-33.5 56t-12.5 80v333z" />
<glyph unicode="&#xfc;" d="M117 662q0 26 18 44t45 18q26 0 44.5 -18t18.5 -44t-18.5 -43.5t-44.5 -17.5q-27 0 -45 17.5t-18 43.5zM332 662q0 26 18.5 44t44.5 18q27 0 45.5 -18t18.5 -44t-18.5 -43.5t-45.5 -17.5q-26 0 -44.5 17.5t-18.5 43.5zM173 519v-341q0 -57 25 -80.5t64 -23.5q32 0 69 15 t70 41v370l108 19v-519h-103l-5 58q-42 -34 -88.5 -52t-91.5 -18q-32 0 -60.5 10.5t-49.5 32.5t-33.5 56t-12.5 80v333z" />
<glyph unicode="&#x171;" d="M173 519v-341q0 -57 25 -80.5t64 -23.5q32 0 69 15t70 41v370l108 19v-519h-103l-5 58q-42 -34 -88.5 -52t-91.5 -18q-32 0 -60.5 10.5t-49.5 32.5t-33.5 56t-12.5 80v333zM333 757l-115 -185h-84l90 198zM516 757l-119 -185h-83l93 198z" />
<glyph unicode="&#x16f;" d="M162 669q0 49 35.5 81.5t90.5 32.5t90.5 -32.5t35.5 -81.5q0 -50 -35.5 -82.5t-90.5 -32.5t-90.5 32.5t-35.5 82.5zM240 669q0 -23 13 -38t35 -15t35 15t13 38t-13 37.5t-35 14.5t-35 -14.5t-13 -37.5zM173 519v-341q0 -57 25 -80.5t64 -23.5q32 0 69 15t70 41v370 l108 19v-519h-103l-5 58q-42 -34 -88.5 -52t-91.5 -18q-32 0 -60.5 10.5t-49.5 32.5t-33.5 56t-12.5 80v333z" />
<glyph unicode="&#xfd;" horiz-adv-x="520" d="M122 507l83 -241l57 -174l57 174l83 241h114l-190 -487q-16 -41 -38 -81t-53 -74t-72.5 -59.5t-97.5 -37.5l-30 88q56 19 97.5 50.5t73.5 82.5l-202 518h118zM402 757l-118 -185h-90l93 198z" />
<glyph unicode="&#x17e;" horiz-adv-x="474" d="M72 757l82 13l85 -123l85 123l78 -13l-113 -185h-104zM37 82l161 208l111 135h-272l7 82h393v-82l-161 -208l-111 -135h272l-6 -82h-394v82z" />
<glyph unicode="$" horiz-adv-x="600" d="M81 130q57 -24 109 -37t100 -13q69 0 108 35.5t39 86.5q0 26 -13 43.5t-34.5 30t-49.5 21l-57 17.5q-36 10 -78 23.5t-77 36t-58.5 58t-23.5 89.5q0 36 13 69.5t39.5 60.5t67 45.5t96.5 23.5v120h75l-1 -119q48 -3 93.5 -14t87.5 -28l-21 -93q-56 21 -104 32.5t-93 11.5 q-66 0 -101.5 -29t-35.5 -71q0 -22 10 -38t27 -27.5t39.5 -20.5t47.5 -16l85.5 -25t87 -37t67.5 -60t27 -95q0 -47 -15.5 -84t-44 -64.5t-68.5 -45t-89 -24.5l1 -123h-75v118q-52 2 -102.5 14.5t-98.5 32.5z" />
<glyph unicode="&#xa2;" horiz-adv-x="600" d="M86 247q0 55 15 100.5t42 79t64.5 55.5t82.5 31l-1 125h75l-2 -119q35 -1 72.5 -9t72.5 -24l-10 -161l-82 -17l-3 122q-45 9 -84 2.5t-68.5 -29.5t-46 -62t-16.5 -94q0 -47 11 -80.5t30.5 -54.5t47 -30.5t59.5 -9.5q35 0 73 9.5t79 26.5l18 -79q-41 -18 -79 -27.5 t-74 -12.5l2 -119h-75l1 122q-43 6 -80.5 25t-65 50.5t-43 76.5t-15.5 103z" />
<glyph unicode="&#xa3;" horiz-adv-x="600" d="M44 357l126 -2q-8 25 -19 48l-21 45.5t-17.5 45.5t-7.5 47q0 41 15.5 74.5t44.5 57t69 36.5t90 13q30 0 56.5 -2.5t51.5 -8t50 -13.5t52 -20l-9 -164l-91 -18l-4 123q-21 7 -43 9.5t-50 2.5q-53 0 -84 -27.5t-31 -72.5q0 -20 7.5 -40t18 -41.5l21 -45t17.5 -50.5l187 3 l-7 -73l-174 3q-2 -42 -24 -90.5t-75 -107.5h359l-6 -89h-481v89q62 60 87 108t27 90l-142 -3z" />
<glyph unicode="&#xa5;" horiz-adv-x="600" d="M36 434l110 -2l-161 278h129l106 -198l84 -161l83 161l107 198h121l-161 -278l120 2l-6 -73l-153 3l-57 -99v-21l216 3l-6 -73l-210 3v-177h-115v177l-213 -3l6 73l207 -3v21l-58 99l-155 -3z" />
<glyph unicode="&#x20ac;" horiz-adv-x="600" d="M4 307l76 -2q-2 12 -2 24.5v25.5v25t2 24l-82 -1l6 73l87 -2q15 64 45.5 111t71 77.5t89 45t99.5 14.5q55 0 106.5 -14t90.5 -35l-20 -87q-40 18 -81.5 31t-83.5 13q-32 0 -62 -9t-55.5 -28.5t-45 -49.5t-31.5 -71l296 4l-6 -73l-303 2q-1 -12 -1.5 -24t-0.5 -26 t0.5 -26.5t1.5 -24.5l252 3l-6 -73l-233 2q12 -41 31.5 -70.5t45 -48t55.5 -27.5t62 -9q42 0 83 13t81 31l21 -88q-39 -21 -90.5 -35t-106.5 -14q-51 0 -99.5 14.5t-89 45t-71 77t-45.5 110.5l-93 -1z" />
<glyph unicode="&#xa4;" horiz-adv-x="600" d="M74 343q0 38 11 72t31 62l-89 87l53 53l87 -90q28 20 61.5 31t71.5 11t72 -11t61 -32l89 91l53 -53l-91 -88q20 -28 31 -61.5t11 -71.5t-11 -71.5t-31 -61.5l91 -88l-53 -53l-89 90q-27 -20 -61 -31t-72 -11t-71.5 10.5t-61.5 30.5l-87 -89l-53 53l89 87q-20 28 -31 62 t-11 72zM157 343q0 -33 11 -61t30 -49t45.5 -32.5t56.5 -11.5t56.5 11.5t45.5 32.5t30 49t11 61t-11 61.5t-30 49t-45.5 32.5t-56.5 12t-56.5 -12t-45.5 -32.5t-30 -49t-11 -61.5z" />
<glyph unicode="#" horiz-adv-x="640" d="M66 501l140 -2l74 208l69 -23l-70 -186l72 -1l122 1l74 209l70 -23l-70 -185l96 2l-6 -70l-115 1l-37 -100l-28 -79l123 2l-6 -70l-141 2l-73 -208l-69 23l69 186l-72 1l-122 -2l-73 -208l-70 23l68 184l-94 -1l6 70l113 -2l38 101l28 78l-122 -1zM189 252l99 -1l96 1 l38 102l28 79l-99 2l-96 -2l-38 -101z" />
<glyph unicode="0" horiz-adv-x="607" d="M34 343q0 79 20 144.5t56 112.5t85.5 72.5t108.5 25.5q58 0 107.5 -25.5t85.5 -72.5t56 -112.5t20 -144.5q0 -80 -20 -145t-56 -112t-85.5 -72.5t-107.5 -25.5q-59 0 -108.5 25.5t-85.5 72.5t-56 112t-20 145zM151 343q0 -60 11.5 -110t31.5 -85t48.5 -54.5t61.5 -19.5 t61 19.5t48 54.5t31.5 85t11.5 110t-11.5 110t-31.5 85t-48 54.5t-61 19.5t-61.5 -19.5t-48.5 -54.5t-31.5 -85t-11.5 -110z" />
<glyph unicode="1" horiz-adv-x="400" d="M200 580l-175 -101l-18 90l203 117h102v-686h-112v580z" />
<glyph unicode="2" horiz-adv-x="526" d="M30 87l135 117.5t107 108t70.5 97.5t25.5 87q0 48 -28.5 80.5t-86.5 32.5q-52 0 -109 -20l-3 -134l-91 -18l-8 202q54 27 109 42.5t116 15.5q52 0 92.5 -14.5t68.5 -40.5t43 -62t15 -79q0 -48 -26 -100t-69.5 -105t-101 -106.5t-120.5 -103.5h330l-7 -87h-462v87z" />
<glyph unicode="3" horiz-adv-x="525" d="M37 136q54 -28 102.5 -44t99.5 -16q28 0 53 7.5t43.5 21.5t29.5 35.5t11 49.5t-11 49t-30 35.5t-44.5 22t-53.5 7.5h-68v87h59q56 0 90.5 29.5t34.5 81.5q0 51 -31.5 79.5t-85.5 28.5q-35 0 -81 -12.5t-102 -42.5l-20 87q53 29 108.5 42.5t106.5 13.5q49 0 89.5 -12 t69.5 -35.5t45 -57t16 -76.5q0 -56 -29.5 -99t-78.5 -66q55 -20 93 -62.5t38 -109.5q0 -48 -19 -84t-52 -60t-77 -36t-95 -12q-66 0 -124.5 16.5t-106.5 42.5z" />
<glyph unicode="4" horiz-adv-x="565" d="M17 245l206 441h118l-219 -441h190l19 155l88 13v-168h119l-6 -87h-113v-158h-107v158h-295v87z" />
<glyph unicode="5" horiz-adv-x="530" d="M54 119q45 -19 93 -31t93 -12q58 0 97 35t39 98q0 40 -18 68.5t-54 42.5t-90.5 12t-127.5 -22l-20 13l21 363h366l-6 -87h-275l-12 -196q82 22 144.5 15t104.5 -35t63 -73t21 -99t-18.5 -95.5t-52.5 -70t-80.5 -43t-101.5 -14.5q-57 0 -106 11.5t-97 30.5z" />
<glyph unicode="6" horiz-adv-x="556" d="M37 250q0 67 24 135t70.5 128t113.5 108t154 77l47 -77q-118 -47 -184 -112.5t-90 -145.5q44 29 84.5 41.5t76.5 12.5q43 0 79 -16t62 -44t40.5 -65t14.5 -80q0 -48 -18 -89t-50.5 -71t-78 -47t-100.5 -17q-59 0 -105 20.5t-77 56t-47 83t-16 102.5zM155 281 q-1 -8 -1.5 -16t-0.5 -16q0 -35 8 -67t24 -56t41 -38t58 -14q25 0 48.5 9t42 26.5t29.5 43t11 58.5q0 27 -9.5 49.5t-25 38.5t-37 24.5t-45.5 8.5q-26 0 -60.5 -9.5t-82.5 -41.5z" />
<glyph unicode="7" horiz-adv-x="499" d="M24 686h451v-87l-240 -599h-121l187 442l72 157h-349v87zM122 456l-91 -18l-7 161h101z" />
<glyph unicode="8" horiz-adv-x="579" d="M37 173q0 33 10.5 60t29.5 50t44.5 42t54.5 36q-24 13 -45 29t-36 35.5t-24 43.5t-9 53q0 37 17.5 69t48.5 56t72.5 37.5t88.5 13.5q53 0 95.5 -13.5t72 -36.5t45 -53t15.5 -64q0 -53 -33.5 -93t-92.5 -74q30 -14 57.5 -31t48 -38.5t33 -49t12.5 -61.5q0 -44 -21.5 -80 t-56.5 -61.5t-81 -40t-94 -14.5q-62 0 -109 15.5t-79 41t-48 59t-16 69.5zM427 184q0 26 -15 45.5t-40 36t-57 30.5l-65 29q-44 -28 -71 -62t-27 -80q0 -22 10.5 -42t28.5 -35t43 -23.5t55 -8.5q29 0 54 9t44 24t29.5 35t10.5 42zM170 520q0 -22 12 -39.5t32 -32t46.5 -27 t55.5 -24.5q51 32 72 63t21 64q0 40 -31.5 65.5t-88.5 25.5q-19 0 -40 -5t-38.5 -16.5t-29 -29.5t-11.5 -44z" />
<glyph unicode="9" horiz-adv-x="556" d="M27 474q0 48 18 89t51 71t78.5 47t100.5 17q59 0 104.5 -20.5t76.5 -56t47 -83t16 -102.5q0 -67 -24 -135t-70 -128t-113.5 -108.5t-153.5 -76.5l-48 77q118 47 184 112.5t91 145.5q-44 -28 -84.5 -41t-77.5 -13q-43 0 -79 16t-62 43.5t-40.5 65t-14.5 80.5zM141 475 q0 -27 9.5 -49.5t25.5 -38.5t37.5 -24.5t45.5 -8.5q25 0 59.5 9.5t83.5 41.5q1 8 1 16.5v16.5q0 35 -8 66.5t-24 55.5t-41 38t-58 14q-25 0 -48.5 -9t-42 -26.5t-29.5 -43t-11 -58.5z" />
<glyph unicode="+" horiz-adv-x="562" d="M47 388h189v189h90v-189h189v-90h-189v-189h-90v189h-189v90z" />
<glyph unicode="&#x3c;" horiz-adv-x="562" d="M47 386l432 201l36 -78l-273 -125l-97 -39l97 -39l273 -125l-36 -84l-432 202v87z" />
<glyph unicode="&#x3e;" horiz-adv-x="562" d="M515 299l-432 -202l-36 79l273 125l97 39l-97 39l-273 124l36 84l432 -201v-87z" />
<glyph unicode="=" horiz-adv-x="562" d="M47 281h468v-90h-468v90zM47 495h468v-90h-468v90z" />
<glyph unicode="|" horiz-adv-x="289" d="M105 330l-4 510h87l-4 -510l4 -510h-87z" />
<glyph unicode="'" horiz-adv-x="197" d="M44 762h109l-24 -324h-61z" />
<glyph unicode="&#x22;" horiz-adv-x="378" d="M44 762h109l-24 -324h-61zM225 762h109l-24 -324h-61z" />
<glyph unicode="_" horiz-adv-x="750" d="M60 -12h630v-83h-630v83z" />
<glyph unicode="&#x2014;" horiz-adv-x="1000" d="M33 297h934v-85h-934v85z" />
<glyph unicode="&#x2013;" horiz-adv-x="500" d="M33 297h434v-85h-434v85z" />
<glyph unicode="-" horiz-adv-x="341" d="M47 301h247v-94h-247v94z" />
<glyph unicode="&#x2039;" horiz-adv-x="383" d="M265 491l77 -61l-176 -176l176 -177l-77 -60l-224 237z" />
<glyph unicode="&#x203a;" horiz-adv-x="383" d="M118 17l-77 60l176 177l-176 176l77 61l224 -237z" />
<glyph unicode="&#x2019;" horiz-adv-x="237" d="M119 774q38 -30 58 -76.5t16 -97.5t-35.5 -100t-95.5 -83l-37 52q39 26 56 58.5t15 67t-21 68t-51 60.5z" />
<glyph unicode="&#x201d;" horiz-adv-x="426" d="M119 774q38 -30 58 -76.5t16 -97.5t-35.5 -100t-95.5 -83l-37 52q39 26 56 58.5t15 67t-21 68t-51 60.5zM308 774q38 -30 58 -76.5t16 -97.5t-35.5 -100t-95.5 -83l-37 52q39 26 56 58.5t15 67t-21 68t-51 60.5z" />
<glyph unicode="&#x2018;" horiz-adv-x="237" d="M118 417q-38 30 -58 76.5t-16 97.5t35 100t95 83l38 -51q-39 -26 -56 -59t-15.5 -67.5t20.5 -68t51 -60.5z" />
<glyph unicode="&#x201c;" horiz-adv-x="426" d="M307 417q-38 30 -58 76.5t-16 97.5t35 100t95 83l38 -51q-39 -26 -56 -59t-15.5 -67.5t20.5 -68t51 -60.5zM118 417q-38 30 -58 76.5t-16 97.5t35 100t95 83l38 -51q-39 -26 -56 -59t-15.5 -67.5t20.5 -68t51 -60.5z" />
<glyph unicode="," horiz-adv-x="237" d="M119 169q38 -30 58 -76.5t16 -97.5t-35.5 -100t-95.5 -83l-37 51q39 26 56 59t15 67.5t-21 68t-51 60.5z" />
<glyph unicode="." horiz-adv-x="237" d="M47 63q0 30 20.5 50.5t50.5 20.5t51 -20.5t21 -50.5t-21 -50.5t-51 -20.5t-50.5 20.5t-20.5 50.5z" />
<glyph unicode=":" horiz-adv-x="237" d="M47 63q0 30 20.5 50.5t50.5 20.5t51 -20.5t21 -50.5t-21 -50.5t-51 -20.5t-50.5 20.5t-20.5 50.5zM47 444q0 30 20.5 50.5t50.5 20.5t51 -20.5t21 -50.5t-21 -50.5t-51 -20.5t-50.5 20.5t-20.5 50.5z" />
<glyph unicode=";" horiz-adv-x="237" d="M119 169q38 -30 58 -76.5t16 -97.5t-35.5 -100t-95.5 -83l-37 51q39 26 56 59t15 67.5t-21 68t-51 60.5zM47 444q0 30 20.5 50.5t50.5 20.5t51 -20.5t21 -50.5t-21 -50.5t-51 -20.5t-50.5 20.5t-20.5 50.5z" />
<glyph unicode="?" horiz-adv-x="510" d="M146 304q108 51 157.5 110.5t49.5 119.5q0 43 -27 71.5t-80 28.5t-103 -19l-3 -135l-90 -18l-9 202q55 27 106 42.5t112 15.5q50 0 89 -13.5t66 -38t41 -58t14 -73.5q0 -43 -18 -87t-53.5 -84.5t-89 -76.5t-124.5 -64zM183 61q0 30 20.5 50t50.5 20t50.5 -20t20.5 -50 q0 -29 -20.5 -49t-50.5 -20t-50.5 20t-20.5 49z" />
<glyph unicode="&#xbf;" horiz-adv-x="510" d="M363 203q-107 -50 -156.5 -110t-49.5 -119q0 -44 26.5 -72.5t80.5 -28.5q52 0 102 19l4 135l90 18l9 -201q-55 -28 -106 -43.5t-112 -15.5q-50 0 -89 14t-66 38.5t-41 58t-14 72.5q0 43 18 87t53.5 84.5t89 76.5t124.5 64zM327 446q0 -30 -20.5 -49.5t-50.5 -19.5 t-50.5 19.5t-20.5 49.5q0 29 20.5 49t50.5 20t50.5 -20t20.5 -49z" />
<glyph unicode="!" horiz-adv-x="336" d="M100 710h136l-26 -492h-84zM97 61q0 30 20.5 50t50.5 20t50.5 -20t20.5 -50q0 -29 -20.5 -49t-50.5 -20t-50.5 20t-20.5 49z" />
<glyph unicode="&#xa1;" horiz-adv-x="336" d="M236 -203h-136l26 493h84zM239 446q0 -30 -20.5 -49.5t-50.5 -19.5t-50.5 19.5t-20.5 49.5q0 29 20.5 49t50.5 20t50.5 -20t20.5 -49z" />
<glyph unicode="(" horiz-adv-x="385" d="M44 355q0 85 21 160.5t58.5 140.5t90 117.5t114.5 90.5l56 -67q-50 -31 -92.5 -75.5t-73.5 -101t-48.5 -123.5t-17.5 -142t17.5 -142t48.5 -123.5t73.5 -101t92.5 -75.5l-56 -67q-62 38 -114.5 90.5t-90 117.5t-58.5 140.5t-21 160.5z" />
<glyph unicode=")" horiz-adv-x="385" d="M233 355q0 75 -17.5 142t-48.5 123.5t-73.5 101t-92.5 75.5l56 67q62 -38 114.5 -90.5t90 -117.5t58.5 -140.5t21 -160.5t-21 -160.5t-58.5 -140.5t-90 -117.5t-114.5 -90.5l-56 67q50 31 92.5 75.5t73.5 101t48.5 123.5t17.5 142z" />
<glyph unicode="[" horiz-adv-x="328" d="M74 840h247l-10 -83h-135v-804h145l-10 -83h-237v970z" />
<glyph unicode="]" horiz-adv-x="328" d="M17 -47h135v804h-145l10 83h237v-970h-247z" />
<glyph unicode="{" horiz-adv-x="342" d="M17 396h21q30 0 45 19t15 51v146q0 50 10.5 91t34.5 73t64.5 54t100.5 33l27 -80q-40 -7 -66 -22t-41.5 -37.5t-21.5 -50.5t-6 -61v-143q0 -73 -44 -114q44 -41 44 -114v-143q0 -33 6 -61t21.5 -50.5t41.5 -37.5t66 -22l-27 -80q-60 11 -100.5 33t-64.5 54t-34.5 73 t-10.5 91v146q0 32 -15 51t-45 19h-21v82z" />
<glyph unicode="}" horiz-adv-x="342" d="M304 314q-30 0 -45 -19t-15 -51v-146q0 -50 -10.5 -91t-34.5 -73t-64 -54t-100 -33l-28 80q40 7 66 22t41.5 37.5t21.5 50.5t6 61v143q0 73 45 114q-45 40 -45 114v143q0 33 -6 61t-21.5 50.5t-41.5 37.5t-66 22l28 80q60 -11 100 -33t64 -54t34.5 -73t10.5 -91v-146 q0 -32 15 -51t45 -19h21v-82h-21z" />
<glyph unicode="/" horiz-adv-x="450" d="M186 339l185 520l82 -29l-189 -510l-186 -519l-81 29z" />
<glyph unicode="\" horiz-adv-x="450" d="M186 320l-189 510l81 29l186 -520l189 -509l-82 -29z" />
<glyph unicode="*" horiz-adv-x="470" d="M187 373l18 151l-122 -91l-49 84l140 60l-140 60l49 84l122 -92l-18 153h97l-18 -152l122 91l48 -84l-140 -60l140 -60l-48 -84l-122 91l18 -151h-97z" />
<glyph unicode="&#x2022;" horiz-adv-x="356" d="M50 355q0 57 35.5 92.5t92.5 35.5t92.5 -35.5t35.5 -92.5t-35.5 -92.5t-92.5 -35.5t-92.5 35.5t-35.5 92.5z" />
<glyph unicode="&#xa7;" horiz-adv-x="633" d="M89 -99q35 -14 68 -23t63 -14q18 51 12.5 97.5t-25 91t-47.5 88.5t-54 90t-44 96.5t-18 106.5q0 66 24 115.5t65.5 82.5t97 49.5t117.5 16.5q116 0 217 -43l-21 -90q-69 28 -130 37q-19 -51 -13 -97.5t25 -91t47 -88.5t54 -90.5t44 -96t18 -106.5q0 -66 -24 -115.5 t-65.5 -82.5t-96.5 -49.5t-118 -16.5q-116 0 -217 43zM484 32q0 45 -18 89.5t-43.5 89.5l-52.5 91t-46 95t-24.5 100.5t13.5 107.5q-72 -10 -117.5 -55t-45.5 -116q0 -45 18 -89.5t43 -89.5l52 -91t46 -94.5t24.5 -100t-13.5 -107.5q73 10 118.5 55t45.5 115z" />
<glyph unicode="&#x2020;" horiz-adv-x="580" d="M237 -70l19 507l-234 -19v108l233 -19l-18 255h107l-20 -255l234 19v-108l-235 19l21 -507h-107z" />
<glyph unicode="&#xa9;" horiz-adv-x="834" d="M50 355q0 78 28 145t77.5 116.5t116.5 77.5t145 28t145 -28t116.5 -77.5t77.5 -116.5t28 -145t-28 -145t-77.5 -116.5t-116.5 -77.5t-145 -28t-145 28t-116.5 77.5t-77.5 116.5t-28 145zM126 355q0 -63 22.5 -117t61.5 -93.5t92 -62.5t115 -23t115.5 23t92.5 62.5 t61.5 93.5t22.5 117t-22.5 117t-61.5 94t-92.5 62.5t-115.5 22.5t-115 -22.5t-92 -62.5t-61.5 -94t-22.5 -117zM234 355q0 46 15.5 82t42 60.5t62 37t75.5 12.5q65 0 121 -28l-7 -116l-72 -14l-2 90q-11 3 -19 4.5t-18 1.5q-20 0 -39.5 -8t-34.5 -24.5t-24.5 -40.5t-9.5 -57 q0 -35 9 -59.5t24.5 -39.5t35.5 -22t42 -7q25 0 52 7t55 19l13 -60q-28 -13 -61.5 -21.5t-66.5 -8.5q-39 0 -74 11t-61.5 34.5t-42 60t-15.5 86.5z" />
<glyph unicode="&#xae;" horiz-adv-x="540" d="M50 562q0 47 17 87t46.5 69.5t69.5 46.5t87 17t87 -17t69.5 -46.5t46.5 -69.5t17 -87t-17 -87t-46.5 -69.5t-69.5 -46.5t-87 -17t-87 17t-69.5 46.5t-46.5 69.5t-17 87zM104 562q0 -36 12.5 -67t35 -53.5t53 -35.5t65.5 -13t65.5 13t53 35.5t35 53.5t12.5 67t-12.5 67 t-35 53.5t-53 35.5t-65.5 13t-65.5 -13t-53 -35.5t-35 -53.5t-12.5 -67zM270 523l-27 -2v-64h-60v210h95q38 0 61.5 -18.5t23.5 -53.5q0 -21 -10 -35.5t-27 -22.5l55 -80h-72zM266 565q15 0 25 7.5t10 22.5q0 14 -9.5 21t-23.5 7h-25v-58h23z" />
<glyph unicode="&#x2122;" horiz-adv-x="830" d="M55 710h278l-4 -58h-98v-260h-79v260h-102zM388 710h100l58 -172l17 -66l16 66l57 172h101l43 -318h-78l-20 179l-5 68l-18 -66l-57 -181h-85l-57 181l-17 66l-5 -68l-19 -179h-74z" />
<glyph unicode="@" horiz-adv-x="1047" d="M281 194q0 68 19.5 127t55.5 102.5t87.5 68t116.5 24.5q49 0 96.5 -12.5t93.5 -33.5l-39 -327q-5 -40 8 -57t39 -17q28 0 57.5 18t53.5 50.5t39 76.5t15 97q0 90 -31 153.5t-82 104.5t-117 60t-137 19q-43 0 -90.5 -10.5t-94.5 -32t-90 -56t-76 -83t-52.5 -111 t-19.5 -141.5q0 -94 28 -163.5t76.5 -116t115.5 -69.5t145 -23t145.5 20t130.5 52l14 -67q-62 -35 -134 -57t-156 -22q-96 0 -179 27t-144 82t-96 138t-35 195q0 92 24 166t64 131t93 97.5t110 66.5t115 38.5t109 12.5q88 0 168.5 -23.5t142.5 -73t99 -127.5t37 -187 q0 -67 -23 -126t-61 -102.5t-88.5 -69t-105.5 -25.5q-22 0 -42 4t-35.5 15t-26.5 29.5t-15 47.5q-42 -51 -89 -73.5t-85 -22.5q-31 0 -59 12t-49 37.5t-33.5 64.5t-12.5 92zM389 199q0 -63 23 -95.5t61 -32.5q27 0 63.5 26t70.5 64l32 252q-25 12 -47.5 17t-42.5 5 q-35 0 -64.5 -17.5t-50.5 -49t-33 -75t-12 -94.5z" />
<glyph unicode="&#x26;" horiz-adv-x="723" d="M30 178q0 69 40 121.5t116 80.5q-43 48 -62 87t-19 81q0 38 15.5 70t44.5 55t69 36t90 13q30 0 55.5 -2.5t49 -8t47.5 -13.5t51 -20l-9 -164l-91 -18l-4 123q-21 7 -39.5 9.5t-46.5 2.5q-56 0 -85 -26t-29 -66q0 -24 12.5 -50t45.5 -61.5t90 -84t146 -117.5 q11 32 16.5 72.5t1.5 90.5l107 -16q9 -119 -40 -212l107 -80l-56 -92l-59.5 46l-54.5 43q-46 -42 -109 -66t-141 -24q-61 0 -109 15t-81.5 40.5t-51 60.5t-17.5 74zM462 139l-120.5 98l-93.5 81q-52 -22 -76.5 -56t-24.5 -77q0 -46 39.5 -77.5t108.5 -31.5q45 0 88.5 14.5 t78.5 48.5z" />
<glyph unicode="%" horiz-adv-x="949" d="M549 206q0 48 13.5 87t38 67t58 43.5t73.5 15.5t73.5 -15.5t57.5 -43.5t37.5 -67t13.5 -87t-13.5 -87t-37.5 -67t-57.5 -43.5t-73.5 -15.5t-73.5 15.5t-58 43.5t-38 67t-13.5 87zM647 206q0 -68 24 -106.5t61 -38.5q36 0 60 38.5t24 106.5t-24 106.5t-60 38.5 q-37 0 -61 -38.5t-24 -106.5zM741 732l-239 -404l-231 -410l-64 36l240 405l230 410zM34 480q0 48 13.5 87t38 67t58 43.5t73.5 15.5t73.5 -15.5t57.5 -43.5t37.5 -67t13.5 -87t-13.5 -87t-37.5 -67t-57.5 -43.5t-73.5 -15.5t-73.5 15.5t-58 43.5t-38 67t-13.5 87zM132 480 q0 -68 24 -106.5t61 -38.5q36 0 60 38.5t24 106.5t-24 106.5t-60 38.5q-37 0 -61 -38.5t-24 -106.5z" />
<glyph unicode="&#x2030;" horiz-adv-x="1382" d="M549 206q0 48 13.5 87t38 67t58 43.5t73.5 15.5t73.5 -15.5t57.5 -43.5t37.5 -67t13.5 -87t-13.5 -87t-37.5 -67t-57.5 -43.5t-73.5 -15.5t-73.5 15.5t-58 43.5t-38 67t-13.5 87zM647 206q0 -68 24 -106.5t61 -38.5q36 0 60 38.5t24 106.5t-24 106.5t-60 38.5 q-37 0 -61 -38.5t-24 -106.5zM982 206q0 48 13.5 87t38 67t58 43.5t73.5 15.5t73.5 -15.5t57.5 -43.5t37.5 -67t13.5 -87t-13.5 -87t-37.5 -67t-57.5 -43.5t-73.5 -15.5t-73.5 15.5t-58 43.5t-38 67t-13.5 87zM1080 206q0 -68 24 -106.5t61 -38.5q36 0 60 38.5t24 106.5 t-24 106.5t-60 38.5q-37 0 -61 -38.5t-24 -106.5zM741 732l-239 -404l-231 -410l-64 36l240 405l230 410zM34 480q0 48 13.5 87t38 67t58 43.5t73.5 15.5t73.5 -15.5t57.5 -43.5t37.5 -67t13.5 -87t-13.5 -87t-37.5 -67t-57.5 -43.5t-73.5 -15.5t-73.5 15.5t-58 43.5t-38 67 t-13.5 87zM132 480q0 -68 24 -106.5t61 -38.5q36 0 60 38.5t24 106.5t-24 106.5t-60 38.5q-37 0 -61 -38.5t-24 -106.5z" />
</font>
</defs>
</svg>
