<svg xmlns="http://www.w3.org/2000/svg" width="14" height="10" viewBox="0 0 14 10">
  <path fill="#FFFFFF" d="M3.88117386,9.297413 L0.292893234,5.7091324 L0.292893234,5.7091324 C-0.0966556558,5.31958349 -0.0977709158,4.6883448 0.290399044,4.29742179 L0.293280644,4.2945198 L0.293280644,4.2945198 C0.681267994,3.90378079 1.31255044,3.9015501 1.70328947,4.28953739 C1.7041228,4.29036489 1.70495466,4.29119379 1.70578506,4.29202419 L3.88117386,6.467413 L3.88117386,6.467413 C4.27169815,6.8579373 4.90486314,6.8579373 5.29538744,6.467413 L11.4707762,0.292024215 L11.4707762,0.292024215 C11.8601418,-0.097341405 12.4914282,-0.097341405 12.8807938,0.292024215 C12.8816242,0.292854605 12.8824531,0.293686475 12.8832806,0.294519795 L12.8861622,0.297421825 L12.8861622,0.297421825 C13.2743322,0.688344765 13.2732169,1.31958349 12.883668,1.70913238 L5.29538744,9.297413 L5.29538744,9.297413 C4.90486314,9.68793729 4.27169815,9.68793729 3.88117386,9.297413 Z"/>
</svg>
