<svg xmlns="http://www.w3.org/2000/svg" width="24" height="24" viewBox="0 0 24 24">
  <path d="M13.4142136,12 L18.7071068,6.70710678 C19.0976311,6.31658249 19.0976311,5.68341751 18.7071068,5.29289322 C18.3165825,4.90236893 17.6834175,4.90236893 17.2928932,5.29289322 L12,10.5857864 L6.70710678,5.29289322 C6.31658249,4.90236893 5.68341751,4.90236893 5.29289322,5.29289322 C4.90236893,5.68341751 4.90236893,6.31658249 5.29289322,6.70710678 L10.5857864,12 L5.29289322,17.2928932 C4.90236893,17.6834175 4.90236893,18.3165825 5.29289322,18.7071068 C5.68341751,19.0976311 6.31658249,19.0976311 6.70710678,18.7071068 L12,13.4142136 L17.2928932,18.7071068 C17.6834175,19.0976311 18.3165825,19.0976311 18.7071068,18.7071068 C19.0976311,18.3165825 19.0976311,17.6834175 18.7071068,17.2928932 L13.4142136,12 L13.4142136,12 Z"/>
</svg>
