<svg xmlns="http://www.w3.org/2000/svg" width="24" height="24" viewBox="0 0 24 24" xmlns:xlink="http://www.w3.org/1999/xlink">
  <defs>
    <path id="a" d="M11,15.5857864 L7.70710678,12.2928932 C7.31658249,11.9023689 6.68341751,11.9023689 6.29289322,12.2928932 C5.90236893,12.6834175 5.90236893,13.3165825 6.29289322,13.7071068 L11.2928932,18.7071068 C11.6834175,19.0976311 12.3165825,19.0976311 12.7071068,18.7071068 L17.7071068,13.7071068 C18.0976311,13.3165825 18.0976311,12.6834175 17.7071068,12.2928932 C17.3165825,11.9023689 16.6834175,11.9023689 16.2928932,12.2928932 L13,15.5857864 L13,6 C13,5.44771525 12.5522847,5 12,5 C11.4477153,5 11,5.44771525 11,6 L11,15.5857864 Z"/>
  </defs>
  <g fill="none" fill-rule="evenodd">
    <use fill="#000000" fill-rule="nonzero" transform="matrix(1 0 0 -1 0 24)" xlink:href="#a"/>
  </g>
</svg>
