<svg xmlns="http://www.w3.org/2000/svg" width="50" height="50" viewBox="0 0 50 50">
  <path fill="#000000" d="M13.0053996,44.6285721 C16.4977212,46.7672173 20.6048947,48 25,48 C28.9921341,48 32.7467148,46.9829128 36.0187516,45.1937288 C36.0064482,45.131054 36,45.06628 36,45 C36,38.3639984 30.8423092,33 24.5,33 C18.2764554,33 13.1935789,38.1649892 13.0053996,44.6285721 Z M11.095904,43.3230339 C11.8945252,36.3881973 17.5836285,31 24.5,31 C31.6397149,31 37.47162,36.7418072 37.9660409,43.9995619 C44.0242059,39.8572533 48,32.8929249 48,25 C48,12.2974508 37.7025492,2 25,2 C12.2974508,2 2,12.2974508 2,25 C2,32.477921 5.56869711,39.122328 11.095904,43.3230339 Z M25,50 C11.1928813,50 0,38.8071187 0,25 C0,11.1928813 11.1928813,0 25,0 C38.8071187,0 50,11.1928813 50,25 C50,38.8071187 38.8071187,50 25,50 Z M25,29 C18.9248678,29 14,24.0751322 14,18 C14,11.9248678 18.9248678,7 25,7 C31.0751322,7 36,11.9248678 36,18 C36,24.0751322 31.0751322,29 25,29 Z M25,27 C29.9705627,27 34,22.9705627 34,18 C34,13.0294373 29.9705627,9 25,9 C20.0294373,9 16,13.0294373 16,18 C16,22.9705627 20.0294373,27 25,27 Z M20,19 C20,18.4477153 20.4477153,18 21,18 C21.5522847,18 22,18.4477153 22,19 C22,20.6568542 23.3431458,22 25,22 C26.6568542,22 28,20.6568542 28,19 C28,18.4477153 28.4477153,18 29,18 C29.5522847,18 30,18.4477153 30,19 C30,21.7614237 27.7614237,24 25,24 C22.2385763,24 20,21.7614237 20,19 Z"/>
</svg>
