<?xml version="1.0" encoding="utf-8"?>
<!-- Generator: Adobe Illustrator 23.0.6, SVG Export Plug-In . SVG Version: 6.00 Build 0)  -->
<svg version="1.1" id="Layer_1" xmlns="http://www.w3.org/2000/svg" xmlns:xlink="http://www.w3.org/1999/xlink" x="0px" y="0px"
	 viewBox="0 0 24 24" style="enable-background:new 0 0 24 24;" xml:space="preserve">
<style type="text/css">
	.st0{fill:#111111;}
</style>
<g>
	<path class="st0" d="M21.3,16.6c-0.8-0.9-2.4-2.3-2.4-6.7c0-3.4-2.4-6.1-5.5-6.7V2.3c0-0.8-0.6-1.4-1.4-1.4s-1.4,0.6-1.4,1.4v0.9
		C7.4,3.9,5.1,6.6,5.1,9.9c0,4.4-1.6,5.8-2.4,6.7c-0.3,0.3-0.4,0.6-0.4,0.9c0,0.7,0.6,1.4,1.4,1.4h16.6c0.8,0,1.4-0.7,1.4-1.4
		C21.7,17.2,21.6,16.9,21.3,16.6L21.3,16.6z M5.2,16.9c0.9-1.2,1.9-3.2,1.9-6.9c0,0,0,0,0,0c0-2.7,2.2-4.9,4.9-4.9s4.9,2.2,4.9,4.9
		c0,0,0,0,0,0c0,3.7,1,5.7,1.9,6.9H5.2z M12,23.1c1,0,1.9-0.6,2.4-1.4c0.4-0.6-0.1-1.4-0.9-1.4h-3.1c-0.8,0-1.2,0.9-0.8,1.5
		C10.2,22.6,11,23.1,12,23.1z"/>
</g>
</svg>
