<svg xmlns="http://www.w3.org/2000/svg" width="24" height="24" viewBox="0 0 24 24">
  <path fill="#000000" d="M16,20.4387503 L20,20.4387503 L20,10.4 L12,4 L4,10.4 L4,20.4387503 L8,20.4387503 L8,13 C8,12.4477153 8.44771525,12 9,12 L15,12 C15.5522847,12 16,12.4477153 16,13 L16,20.4387503 Z M14,20.4387503 L14,14 L10,14 L10,20.4387503 L14,20.4387503 Z M2.7506099,8.83826238 L10.7506099,2.43826238 C11.4810472,1.85391254 12.5189528,1.85391254 13.2493901,2.43826238 L21.2493901,8.83826238 C21.7238206,9.21780675 22,9.79243256 22,10.4 L22,20.4387503 C22,21.5433198 21.1045695,22.4387503 20,22.4387503 L4,22.4387503 C2.8954305,22.4387503 2,21.5433198 2,20.4387503 L2,10.4 C2,9.79243256 2.27617944,9.21780675 2.7506099,8.83826238 Z"/>
</svg>
