<?xml version="1.0" encoding="utf-8"?>
<!-- Generator: Adobe Illustrator 23.1.1, SVG Export Plug-In . SVG Version: 6.00 Build 0)  -->
<svg version="1.1" id="Layer_1" xmlns="http://www.w3.org/2000/svg" xmlns:xlink="http://www.w3.org/1999/xlink" x="0px" y="0px"
	 viewBox="0 0 24 24" style="enable-background:new 0 0 24 24;" xml:space="preserve">
<path d="M21.3,4.3H2.7c-1.2,0-2.2,1-2.2,2.2v12c0,1.2,1,2.2,2.2,2.2h18.7c1.2,0,2.2-1,2.2-2.2v-12C23.6,5.3,22.6,4.3,21.3,4.3z
	 M21.6,18.5c0,0.1-0.1,0.2-0.2,0.2H2.7c-0.1,0-0.2-0.1-0.2-0.2v-6.6h19.2V18.5z M21.6,7.9H2.4V6.5c0-0.1,0.1-0.2,0.2-0.2h18.7
	c0.1,0,0.2,0.1,0.2,0.2V7.9z M4.3,17.8h2.4c0.6,0,1-0.4,1-1s-0.4-1-1-1H4.3c-0.6,0-1,0.4-1,1S3.7,17.8,4.3,17.8z M9.5,17.8h4.2
	c0.6,0,1-0.4,1-1s-0.4-1-1-1H9.5c-0.6,0-1,0.4-1,1S9,17.8,9.5,17.8z"/>
</svg>
