<svg xmlns="http://www.w3.org/2000/svg" width="24" height="24" viewBox="0 0 24 24">
  <path fill="#000000" d="M7.17070571,8 C7.06015422,7.68722107 7,7.35063542 7,7 L7,6 C7,4.34314575 8.34314575,3 10,3 L14,3 C15.6568542,3 17,4.34314575 17,6 L17,7 C17,7.35063542 16.9398458,7.68722107 16.8292943,8 L19.5410983,8 C20.6456678,8 21.5410983,8.8954305 21.5410983,10 C21.5410983,10.0946377 21.5343811,10.1891561 21.5209973,10.2828427 L20.0924259,20.2828427 C19.9516691,21.2681402 19.1078276,22 18.1125269,22 L5.58170848,22 C4.58640772,22 3.74256627,21.2681402 3.60180949,20.2828427 L2.17323806,10.2828427 C2.01702835,9.1893747 2.77682632,8.17631073 3.87029434,8.02010101 C3.96398092,8.00671722 4.05849931,8 4.15313705,8 L7.17070571,8 Z M10,10 L4.15313705,10 L5.58170848,20 L18.1125269,20 L19.5410983,10 L10,10 C8.69378117,10 7.58254212,9.16519237 7.17070571,8 Z M10,5 C9.44771525,5 9,5.44771525 9,6 L9,7 C9,7.55228475 9.44771525,8 10,8 L14,8 C14.5522847,8 15,7.55228475 15,7 L15,6 C15,5.44771525 14.5522847,5 14,5 L10,5 Z M8,14 C7.44771525,14 7,13.5522847 7,13 C7,12.4477153 7.44771525,12 8,12 L16,12 C16.5522847,12 17,12.4477153 17,13 C17,13.5522847 16.5522847,14 16,14 L8,14 Z M9,18 C8.44771525,18 8,17.5522847 8,17 C8,16.4477153 8.44771525,16 9,16 L15,16 C15.5522847,16 16,16.4477153 16,17 C16,17.5522847 15.5522847,18 15,18 L9,18 Z"/>
</svg>
