<svg xmlns="http://www.w3.org/2000/svg" width="24" height="24" viewBox="0 0 24 24">
  <path fill="#33ab4e" d="M21,11.07 C21,10.5177153 21.4477153,10.07 22,10.07 C22.5522847,10.07 23,10.5177153 23,11.07 L22.9999998,12.0005718 C22.9972144,16.8721262 19.7905232,21.161606 15.1188875,22.5428628 C10.4472518,23.9241196 5.42353274,22.0681151 2.77205043,17.9813447 C0.120568123,13.8945744 0.472949627,8.55057464 3.63810145,4.84735113 C6.80325327,1.14412761 12.0271837,-0.0361504183 16.4769998,1.94657177 C16.9814723,2.17135157 17.208208,2.76252735 16.9834282,3.26699984 C16.7586484,3.77147232 16.1674726,3.99820803 15.6630002,3.77342823 C12.0222415,2.15120099 7.74811661,3.11688301 5.15844694,6.14679316 C2.56877726,9.17670331 2.28046513,13.5490667 4.44985974,16.8927879 C6.61925436,20.2365091 10.7295699,21.7550583 14.5518173,20.6249391 C18.3740647,19.4948199 20.9977212,15.9852455 21,12 L21,11.07 Z M12,12.5857864 L21.2928932,3.29289322 C21.6834175,2.90236893 22.3165825,2.90236893 22.7071068,3.29289322 C23.0976311,3.68341751 23.0976311,4.31658249 22.7071068,4.70710678 L12.7071068,14.7071068 C12.3165825,15.0976311 11.6834175,15.0976311 11.2928932,14.7071068 L8.29289322,11.7071068 C7.90236893,11.3165825 7.90236893,10.6834175 8.29289322,10.2928932 C8.68341751,9.90236893 9.31658249,9.90236893 9.70710678,10.2928932 L12,12.5857864 Z"/>
</svg>
