<?xml version="1.0" encoding="utf-8"?>
<!-- Generator: Adobe Illustrator 23.0.0, SVG Export Plug-In . SVG Version: 6.00 Build 0)  -->
<svg version="1.1" id="Layer_1" xmlns="http://www.w3.org/2000/svg" xmlns:xlink="http://www.w3.org/1999/xlink" x="0px" y="0px"
	 viewBox="0 0 24 24" style="enable-background:new 0 0 24 24;" xml:space="preserve">
<style type="text/css">
	.st0{fill:#33AB4E;}
</style>
<path class="st0" d="M21,11.1c0-0.6,0.4-1,1-1s1,0.4,1,1V12c0,4.9-3.2,9.2-7.9,10.5c-4.7,1.4-9.7-0.5-12.3-4.6S0.5,8.6,3.6,4.8
	S12,0,16.5,1.9C17,2.2,17.2,2.8,17,3.3c-0.2,0.5-0.8,0.7-1.3,0.5C12,2.2,7.7,3.1,5.2,6.1s-2.9,7.4-0.7,10.7s6.3,4.9,10.1,3.7
	S21,16,21,12V11.1z"/>
<path class="st0" d="M21,11.1c0-0.6,0.4-1,1-1s1,0.4,1,1V12c0,4.9-3.2,9.2-7.9,10.5c-4.7,1.4-9.7-0.5-12.3-4.6S0.5,8.6,3.6,4.8
	S12,0,16.5,1.9C17,2.2,17.2,2.8,17,3.3c-0.2,0.5-0.8,0.7-1.3,0.5C12,2.2,7.7,3.1,5.2,6.1s-2.9,7.4-0.7,10.7s6.3,4.9,10.1,3.7
	S21,16,21,12V11.1z"/>
<path d="M12,1C5.9,1,1,5.9,1,12s4.9,11,11,11s11-4.9,11-11S18.1,1,12,1z M12,21c-5,0-9-4-9-9s4-9,9-9s9,4,9,9S17,21,12,21z"/>
</svg>
