<?xml version="1.0" encoding="utf-8"?>
<!-- Generator: Adobe Illustrator 22.1.0, SVG Export Plug-In . SVG Version: 6.00 Build 0)  -->
<svg version="1.1" id="Layer_1" xmlns="http://www.w3.org/2000/svg" xmlns:xlink="http://www.w3.org/1999/xlink" x="0px" y="0px"
	 viewBox="0 0 24 24" style="enable-background:new 0 0 24 24;" xml:space="preserve">
<style type="text/css">
	.st0{fill:#231F20;}
	.st1{fill:none;stroke:#231F20;stroke-width:5;stroke-linecap:round;stroke-linejoin:round;stroke-miterlimit:10;}
</style>
<g>
	<path class="st0" d="M16.2,9.5c0.5,0,0.9,0.4,0.9,0.9v0.8c0.5-0.2,1-0.4,1.5-0.4c1.8,0,3.3,1.5,3.3,3.3c0,1.8-1.5,3.3-3.3,3.3
		c-0.9,0-1.7-0.3-2.3-0.9c-1.2,2.5-3.7,4.2-6.7,4.2h0c-4.1,0-7.4-3.3-7.4-7.4v-3c0-0.5,0.4-0.9,0.9-0.9H16.2 M18.2,16
		c1,0,1.8-0.8,1.8-1.8c0-1-0.8-1.8-1.8-1.8c-0.4,0-0.8,0.2-1.2,0.4v0.8c0,0.6-0.1,1.2-0.3,1.7C17.1,15.7,17.6,16,18.2,16 M16.2,7.5
		H3.1c-1.6,0-2.9,1.3-2.9,2.9v3c0,5.2,4.2,9.4,9.4,9.4c2.9,0,5.6-1.3,7.3-3.5c0.5,0.2,1,0.2,1.6,0.2c2.9,0,5.3-2.4,5.3-5.3
		c0-2.9-2.4-5.3-5.3-5.3C18.1,8,17.2,7.5,16.2,7.5L16.2,7.5z"/>
</g>
<g>
	<path class="st0" d="M6.2,6.6c-0.6,0-1-0.4-1-1V1.1c0-0.6,0.4-1,1-1s1,0.4,1,1v4.5C7.2,6.1,6.7,6.6,6.2,6.6z"/>
</g>
<g>
	<path class="st0" d="M9.8,6.6c-0.6,0-1-0.4-1-1V1.1c0-0.6,0.4-1,1-1s1,0.4,1,1v4.5C10.8,6.1,10.3,6.6,9.8,6.6z"/>
</g>
<g>
	<path class="st0" d="M13.3,6.6c-0.6,0-1-0.4-1-1V1.1c0-0.6,0.4-1,1-1c0.6,0,1,0.4,1,1v4.5C14.3,6.1,13.9,6.6,13.3,6.6z"/>
</g>
<g>
	<g>
		<path class="st0" d="M253,229.4c2.2,0,4,1.8,4,4v3.7c2.1-1,4.4-1.7,6.9-1.7c8.5,0,15.4,6.9,15.4,15.4c0,8.5-6.9,15.4-15.4,15.4
			c-4,0-7.7-1.6-10.4-4.1c-5.6,11.4-17.3,19.2-30.8,19.2h0c-18.8,0-34.2-15.4-34.2-34.3v-13.8c0-2.2,1.8-4,4-4H253 M264,261.7
			c6,0,10.9-4.9,10.9-10.9c0-6-4.9-10.9-10.9-10.9c-2.6,0-5,0.9-6.9,2.5v4.8c0,3.6-0.6,7.1-1.6,10.4
			C257.4,260.1,260.5,261.7,264,261.7 M253,224.4h-60.5c-5,0-9,4-9,9v13.8c0,21.6,17.6,39.3,39.2,39.3c12.9,0,25.1-6.6,32.4-17.2
			c2.7,1.3,5.7,2,8.8,2c11.3,0,20.4-9.2,20.4-20.4c0-11.3-9.2-20.4-20.4-20.4c-0.8,0-1.6,0-2.4,0.1C260.4,226.9,257,224.4,253,224.4
			L253,224.4z M262,245.2c0.6-0.2,1.2-0.3,1.9-0.3c3.3,0,5.9,2.6,5.9,5.9c0,3.3-2.6,5.9-5.9,5.9c-1,0-2-0.3-2.9-0.8
			c0.7-2.9,1-5.8,1-8.8V245.2L262,245.2z"/>
	</g>
	<path class="st1" d="M214.6,168c5.5,2.4,5.9,10.7,4.5,15.7c-2.1,7.1-8.4,12.1-9.6,19.4c-0.7,4.1,0.3,12,5,13.7"/>
	<path class="st1" d="M223.3,168c5.5,2.4,5.9,10.7,4.5,15.7c-2.1,7.1-8.4,12.1-9.6,19.4c-0.7,4.1,0.3,12,5,13.7"/>
	<path class="st1" d="M232.6,168c5.5,2.4,5.9,10.7,4.5,15.7c-2.1,7.1-8.4,12.1-9.6,19.4c-0.7,4.1,0.3,12,5,13.7"/>
</g>
<g>
	<g>
		<path class="st0" d="M256.6,229.4c2.2,0,4,1.8,4,4v3.7c2.1-1,4.4-1.7,6.9-1.7c8.5,0,15.4,6.9,15.4,15.4c0,8.5-6.9,15.4-15.4,15.4
			c-4,0-7.7-1.6-10.4-4.1c-5.6,11.4-17.3,19.2-30.8,19.2h0c-18.8,0-34.2-15.4-34.2-34.3v-13.8c0-2.2,1.8-4,4-4H256.6 M267.5,261.7
			c6,0,10.9-4.9,10.9-10.9c0-6-4.9-10.9-10.9-10.9c-2.6,0-5,0.9-6.9,2.5v4.8c0,3.6-0.6,7.1-1.6,10.4
			C261,260.1,264.1,261.7,267.5,261.7 M256.6,224.4h-60.5c-5,0-9,4-9,9v13.8c0,21.6,17.6,39.3,39.2,39.3c12.9,0,25.1-6.6,32.4-17.2
			c2.7,1.3,5.7,2,8.8,2c11.3,0,20.4-9.2,20.4-20.4c0-11.3-9.2-20.4-20.4-20.4c-0.8,0-1.6,0-2.4,0.1
			C264,226.9,260.6,224.4,256.6,224.4L256.6,224.4z M265.6,245.2c0.6-0.2,1.2-0.3,1.9-0.3c3.3,0,5.9,2.6,5.9,5.9
			c0,3.3-2.6,5.9-5.9,5.9c-1,0-2-0.3-2.9-0.8c0.7-2.9,1-5.8,1-8.8V245.2L265.6,245.2z"/>
	</g>
	<path class="st1" d="M218.2,168c5.5,2.4,5.9,10.7,4.5,15.7c-2.1,7.1-8.4,12.1-9.6,19.4c-0.7,4.1,0.3,12,5,13.7"/>
	<path class="st1" d="M226.9,168c5.5,2.4,5.9,10.7,4.5,15.7c-2.1,7.1-8.4,12.1-9.6,19.4c-0.7,4.1,0.3,12,5,13.7"/>
	<path class="st1" d="M236.1,168c5.5,2.4,5.9,10.7,4.5,15.7c-2.1,7.1-8.4,12.1-9.6,19.4c-0.7,4.1,0.3,12,5,13.7"/>
</g>
</svg>
