<svg xmlns="http://www.w3.org/2000/svg" width="24" height="24" viewBox="0 0 24 24">
  <path fill="#33AB4E" fill-rule="evenodd" d="M17,19.3636364 C16.54,19.3636364 16.1666667,18.9970909 16.1666667,18.5454545 C16.1666667,18.0938182 16.54,17.7272727 17,17.7272727 C17.46,17.7272727 17.8333333,18.0938182 17.8333333,18.5454545 C17.8333333,18.9970909 17.46,19.3636364 17,19.3636364 L17,19.3636364 Z M8.51333333,17.7272727 C8.16833333,16.7773636 7.25166667,16.0909091 6.16666667,16.0909091 C5.08166667,16.0909091 4.165,16.7773636 3.82,17.7272727 L3.66666667,17.7272727 L3.66666667,4.63636364 L12.8333333,4.63636364 L12.8333333,12 L6.16666667,12 C5.70583333,12 5.33333333,12.3665455 5.33333333,12.8181818 C5.33333333,13.2698182 5.70583333,13.6363636 6.16666667,13.6363636 L13.6666667,13.6363636 L19.155,13.6363636 L20.3333333,14.7932727 L20.3333333,17.7272727 L19.3466667,17.7272727 C19.0016667,16.7773636 18.085,16.0909091 17,16.0909091 C15.9041667,16.0909091 14.9816667,16.7912727 14.6441667,17.7559091 C14.5958333,17.7469091 14.5516667,17.7272727 14.5,17.7272727 L8.51333333,17.7272727 Z M6.16666667,19.3636364 C5.70666667,19.3636364 5.33333333,18.9970909 5.33333333,18.5454545 C5.33333333,18.0938182 5.70666667,17.7272727 6.16666667,17.7272727 C6.62666667,17.7272727 7,18.0938182 7,18.5454545 C7,18.9970909 6.62666667,19.3636364 6.16666667,19.3636364 L6.16666667,19.3636364 Z M17.1825,7.09090909 L18.4325,12 L14.5,12 L14.5,7.09090909 L17.1825,7.09090909 Z M19.3466667,19.3636364 L21.1666667,19.3636364 C21.6275,19.3636364 22,18.9979091 22,18.5454545 L22,14.4545455 C22,14.2369091 21.9125,14.0290909 21.7558333,13.8760909 L20.2525,12.4000909 L18.6416667,6.07390909 C18.5483333,5.71063636 18.2158333,5.45454545 17.8333333,5.45454545 L14.5,5.45454545 L14.5,3.81818182 C14.5,3.36654545 14.1275,3 13.6666667,3 L2.83333333,3 C2.3725,3 2,3.36654545 2,3.81818182 L2,18.5454545 C2,18.9979091 2.3725,19.3636364 2.83333333,19.3636364 L3.82,19.3636364 C4.165,20.3135455 5.08166667,21 6.16666667,21 C7.25166667,21 8.16833333,20.3135455 8.51333333,19.3636364 L14.5,19.3636364 C14.5516667,19.3636364 14.5958333,19.344 14.6441667,19.335 C14.9816667,20.2996364 15.9041667,21 17,21 C18.085,21 19.0016667,20.3135455 19.3466667,19.3636364 L19.3466667,19.3636364 Z"/>
</svg>
