<svg xmlns="http://www.w3.org/2000/svg" width="24" height="24" viewBox="0 0 24 24">
  <path fill="#000000" d="M6,6 L6,14 L8,14 L8,6 L6,6 Z M10,5 L17.5119387,5 C18.3951551,5 19.1738009,5.57933631 19.4275913,6.42530423 L21.2275913,12.4253042 C21.2835233,12.6117443 21.3119387,12.8053509 21.3119387,13 C21.3119387,14.1045695 20.4165082,15 19.3119387,15 L17,15 C16.4477153,15 16,15.4477153 16,16 L16,18 C16,19.1045695 15.1045695,20 14,20 C12.8954305,20 12,19.1045695 12,18 L12,17 C12,15.8954305 11.1045695,15 10,15 C10,15.5522847 9.55228475,16 9,16 L5,16 C4.44771525,16 4,15.5522847 4,15 L4,5 C4,4.44771525 4.44771525,4 5,4 L9,4 C9.55228475,4 10,4.44771525 10,5 Z M14,16 C14,14.3431458 15.3431458,13 17,13 L19.3119387,13 L17.5119387,7 L10,7 L10,13 C12.209139,13 14,14.790861 14,17 L14,18 L14,16 Z"/>
</svg>
