<svg xmlns="http://www.w3.org/2000/svg" width="24" height="24" viewBox="0 0 24 24">
  <path fill="#000000" d="M13,5 L13,3 L11,3 L11,5 L13,5 Z M13,7 L11,7 L11,19.9385883 L12,21.0338264 L13,19.9385883 L13,7 Z M11,1 L13,1 C14.1045695,1 15,1.8954305 15,3 L15,19.9385883 C15,20.4376105 14.8134464,20.9186063 14.476971,21.287127 L13.476971,22.3823651 C12.7321936,23.1980737 11.4671698,23.2555747 10.6514613,22.5107974 C10.6067277,22.4699536 10.5638727,22.4270987 10.523029,22.3823651 L9.52302901,21.287127 C9.1865536,20.9186063 9,20.4376105 9,19.9385883 L9,3 C9,1.8954305 9.8954305,1 11,1 Z" transform="rotate(45 12 12.017)"/>
</svg>
