<svg xmlns="http://www.w3.org/2000/svg" width="24" height="24" viewBox="0 0 24 24">
  <path fill="#000000" d="M10,21 C3.92486775,21 -1,16.0751322 -1,10 C-1,3.92486775 3.92486775,-1 10,-1 C16.0751322,-1 21,3.92486775 21,10 C21,16.0751322 16.0751322,21 10,21 Z M10,19 C14.9705627,19 19,14.9705627 19,10 C19,5.02943725 14.9705627,1 10,1 C5.02943725,1 1,5.02943725 1,10 C1,14.9705627 5.02943725,19 10,19 Z M9,6 C9,5.44771525 9.44771525,5 10,5 C10.5522847,5 11,5.44771525 11,6 L11,10 C11,10.5522847 10.5522847,11 10,11 C9.44771525,11 9,10.5522847 9,10 L9,6 Z M10,16 C9.44771525,16 9,15.5522847 9,15 C9,14.4477153 9.44771525,14 10,14 C10.5522847,14 11,14.4477153 11,15 C11,15.5522847 10.5522847,16 10,16 Z" transform="translate(2 2)"/>
</svg>
