<svg xmlns="http://www.w3.org/2000/svg" width="24" height="24" viewBox="0 0 24 24">
  <g fill="none" fill-rule="evenodd" stroke="#000000" stroke-linecap="round" stroke-linejoin="round" stroke-width="2" transform="translate(1 1)">
    <path d="M16.94 16.94C15.23059 18.2430022 13.1491075 18.9648632 11 19 4 19 0 11 0 11 1.2438899 8.68189567 2.96913545 6.65660741 5.06 5.06M8.9 3.24C9.5883323 3.07887951 10.2930641 2.99833874 11 3 18 3 22 11 22 11 21.3929796 12.1356074 20.6690554 13.2047361 19.84 14.19M13.12 13.12C12.3721177 13.9226127 11.2457778 14.2529967 10.1828444 13.9815422 9.1199109 13.7100876 8.28991239 12.8800891 8.01845783 11.8171556 7.74700327 10.7542222 8.07738729 9.62788232 8.88 8.88M0 0L22 22"/>
  </g>
</svg>
