<svg xmlns="http://www.w3.org/2000/svg" width="24" height="24" viewBox="0 0 24 24">
  <path fill="#000000" d="M6,4.14798939 C6.53965001,4.0493298 7.12298335,4 7.75,4 C10,4 13.3920851,5.55401777 15.25,5.69388895 C16.0608099,5.75492992 16.8765007,5.65503574 17.6970723,5.39420639 C18.2234071,5.22690403 18.7857112,5.51795735 18.9530135,6.04429219 C18.9841517,6.14225308 19,6.24442926 19,6.34721992 L19,13.7681988 C19,14.1106592 18.824755,14.4293026 18.5355449,14.6127055 C17.8887835,15.02285 16.7936018,15.1553742 15.25,15.0102782 C12.2329149,14.7266771 9.625,13.3163892 7.75,13.3163892 C7.16666667,13.3163892 6.58333333,13.3778711 6,13.5008349 L6,20.5 C6,21.0522847 5.55228475,21.5 5,21.5 C4.44771525,21.5 4,21.0522847 4,20.5 L4,3.5 C4,2.94771525 4.44771525,2.5 5,2.5 C5.55228475,2.5 6,2.94771525 6,3.5 L6,4.14798939 Z M6,11.4652331 C6.58155347,11.3661683 7.1652317,11.3163892 7.75,11.3163892 C8.89000817,11.3163892 9.08705853,11.367714 12.0801995,12.2737802 C13.5031946,12.704541 14.4532909,12.9265725 15.4371716,13.0190557 C16.0763424,13.0791367 16.5968978,13.0816168 16.988827,13.0341908 C16.9913244,13.0338886 16.9950488,11.2257357 17,7.60973229 C16.3677052,7.70936977 15.7334377,7.73594371 15.099857,7.68824525 C14.1606568,7.61753855 13.6249555,7.47571251 11.2644952,6.76763071 C10.9552983,6.67487903 10.7209814,6.60567045 10.4946826,6.54070821 C9.21870862,6.17442203 8.35474123,6 7.75,6 C7.08549501,6 6.50301461,6.06625795 6,6.19313171 L6,11.4652331 Z"/>
</svg>
