<?xml version="1.0" encoding="utf-8"?>
<!-- Generator: Adobe Illustrator 22.1.0, SVG Export Plug-In . SVG Version: 6.00 Build 0)  -->
<svg version="1.1" id="Layer_1" xmlns="http://www.w3.org/2000/svg" xmlns:xlink="http://www.w3.org/1999/xlink" x="0px" y="0px"
	 viewBox="0 0 24 24" style="enable-background:new 0 0 24 24;" xml:space="preserve">
<g>
	<rect x="2" y="9.9" width="20" height="2"/>
</g>
<g>
	<path d="M8.4,5l2.1,2.3L11.1,8H12h7.5C19.8,8,20,8.2,20,8.5v11.4c0,0.6-0.5,1.2-1.2,1.2H5.2C4.5,21,4,20.5,4,19.8V6.2
		C4,5.5,4.5,5,5.2,5H8.4 M9.2,3H5.2C3.4,3,2,4.4,2,6.2v13.7C2,21.6,3.4,23,5.2,23h13.7c1.7,0,3.2-1.4,3.2-3.2V8.5
		C22,7.1,20.9,6,19.5,6H12L9.2,3L9.2,3z"/>
</g>
</svg>
