<svg xmlns="http://www.w3.org/2000/svg" width="64" height="64" viewBox="0 0 64 64">
<g fill="#625D58" fill-rule="evenodd">
	<rect fill-opacity=".2" x="15.5" y="41.6" class="st0" width="41.9" height="15.2"/>
	<rect fill-opacity=".2" x="13.9" y="19.6" class="st1" width="41.1" height="9.2"/>
	<path fill-rule="nonzero" d="M58.6,44H18.5c-0.8,0-1.4,0.6-1.4,1.4s0.6,1.4,1.4,1.4h40.1c0.8,0,1.4-0.6,1.4-1.4S59.3,44,58.6,44z
		 M58.6,48.1H18.5c-0.8,0-1.4,0.6-1.4,1.4s0.6,1.4,1.4,1.4h40.1c0.8,0,1.4-0.6,1.4-1.4S59.3,48.1,58.6,48.1z M58.6,52.2H18.5
		c-0.8,0-1.4,0.6-1.4,1.4s0.6,1.4,1.4,1.4h40.1c0.8,0,1.4-0.6,1.4-1.4S59.3,52.2,58.6,52.2z M58.7,56.4h-41c-0.8,0-1.4-0.6-1.4-1.4
		V43.9c0-0.8,0.6-1.4,1.4-1.4h41c1.7,0,2-2.5,0.3-2.8c-0.1,0-0.3,0-0.4,0h-14v-8.1c0,0,0,0,0,0h10.4c1.5,0,2.8-1.3,2.8-2.8v-9.2
		c0-1.5-1.3-2.8-2.8-2.8h-2.3V7.6c0-1.5-1.3-2.8-2.8-2.8h-41C7.2,4.8,6,6,6,7.6v9.2c0,1.5,1.3,2.8,2.8,2.8h2.3v9.2c0,0,0,0,0,0H6.7
		c-1.5,0-2.8,1.3-2.8,2.8v8.1c0,1.5,1.3,2.8,2.8,2.8h6.9c-0.2,0.4-0.3,0.9-0.3,1.4V55c0,2.3,1.9,4.2,4.2,4.2h40.9c0.1,0,0.3,0,0.4,0
		C60.6,59,60.3,56.4,58.7,56.4z M50.3,19.6h4.6v9.2h-41v-9.2h35.9C50,19.6,50.1,19.6,50.3,19.6z M8.8,7.6h41v3.1h-41V7.6z M8.8,16.8
		v-3.3h41v3.3H13.9c-0.2,0-0.3,0-0.5,0H8.8z M6.7,39.7v-8.1h35v8.1H6.7z"/>
</g>
</svg>
