<svg xmlns="http://www.w3.org/2000/svg" width="64" height="64" viewBox="0 0 64 64">
	<g fill="#625D58" fill-rule="evenodd">
	<path fill-rule="nonzero" d="M11.9,56.4v-3.3c0.1-1.1-0.7-2-1.8-2.1c-0.1,0-0.2,0-0.2,0C9.1,51,8.4,51.3,8,52c-0.4-0.6-1-1-1.7-0.9
		c-0.6,0-1.2,0.3-1.5,0.8v-0.6H3.7v5.2h1.1v-2.9c-0.1-0.7,0.4-1.3,1-1.4c0.1,0,0.2,0,0.2,0c0.7,0,1.1,0.5,1.1,1.4v2.9h1.1v-2.9
		c-0.1-0.7,0.4-1.3,1.1-1.4c0.1,0,0.1,0,0.2,0c0.8,0,1.1,0.5,1.1,1.4v2.9L11.9,56.4z M28.8,51.2h-1.9v-1.6h-1.1v1.6h-1v1h1.1v2.4
		c0,1.2,0.5,1.9,1.8,1.9c0.5,0,1-0.1,1.4-0.4l-0.3-1c-0.3,0.2-0.6,0.3-1,0.3c-0.5,0-0.7-0.3-0.7-0.9v-2.4h1.8L28.8,51.2z M38.4,51
		c-0.6,0-1.1,0.3-1.4,0.8v-0.6h-1.1v5.2H37v-2.9c0-0.9,0.4-1.3,1.1-1.3c0.2,0,0.5,0,0.7,0.1l0.3-1.1C38.9,51.1,38.6,51,38.4,51
		L38.4,51z M23.8,51.6c-0.6-0.4-1.4-0.6-2.1-0.5c-1.3,0-2.2,0.6-2.2,1.7c0,0.8,0.6,1.4,1.8,1.5l0.5,0.1c0.6,0.1,0.9,0.2,0.9,0.5
		c0,0.4-0.4,0.6-1.2,0.6c-0.6,0-1.2-0.2-1.7-0.5l-0.5,0.9c0.7,0.5,1.4,0.7,2.2,0.7c1.5,0,2.4-0.7,2.4-1.7c0-1-0.7-1.4-1.8-1.6
		l-0.5-0.1c-0.5-0.1-0.9-0.2-0.9-0.5c0-0.3,0.4-0.6,1-0.6c0.6,0,1.1,0.2,1.6,0.4L23.8,51.6z M54,51c-0.6,0-1.1,0.3-1.4,0.8v-0.6
		h-1.1v5.2h1.1v-2.9c0-0.9,0.4-1.3,1.1-1.3c0.2,0,0.5,0,0.7,0.1l0.3-1.1C54.6,51.1,54.3,51,54,51L54,51z M39.5,53.8
		c-0.1,1.4,1.1,2.7,2.5,2.7c0.1,0,0.2,0,0.2,0c0.7,0,1.3-0.2,1.9-0.6l-0.5-0.9c-0.4,0.3-0.9,0.5-1.4,0.5c-0.9-0.1-1.6-0.9-1.5-1.8
		c0.1-0.8,0.7-1.5,1.5-1.5c0.5,0,1,0.2,1.4,0.5l0.5-0.9C43.6,51.2,43,51,42.3,51c-1.4-0.1-2.7,1-2.8,2.5
		C39.5,53.6,39.5,53.6,39.5,53.8L39.5,53.8z M50.1,53.8v-2.6h-1.1v0.6c-0.4-0.5-1-0.8-1.6-0.8c-1.5,0-2.7,1.2-2.7,2.7
		c0,1.5,1.2,2.7,2.7,2.7c0.6,0,1.2-0.3,1.6-0.8v0.6h1.1V53.8z M45.9,53.8c0.1-0.9,0.8-1.5,1.7-1.5c0.9,0.1,1.5,0.8,1.5,1.7
		c0,0.8-0.7,1.5-1.6,1.5c-0.9,0-1.6-0.7-1.6-1.5C45.9,53.8,45.9,53.8,45.9,53.8z M32.3,51c-1.5,0-2.7,1.3-2.7,2.7
		c0,1.5,1.3,2.7,2.7,2.7l0,0c0.8,0,1.5-0.2,2.2-0.7L34,54.9c-0.4,0.3-1,0.5-1.5,0.5c-0.8,0.1-1.5-0.5-1.6-1.3h3.8c0-0.1,0-0.3,0-0.4
		C34.7,52.1,33.7,51.1,32.3,51L32.3,51z M32.3,52c0.7,0,1.3,0.5,1.3,1.3c0,0,0,0,0,0h-2.7C30.9,52.6,31.5,52,32.3,52L32.3,52z
		 M60.5,53.8v-4.7h-1.1v2.7c-0.4-0.5-1-0.8-1.6-0.8c-1.5,0-2.7,1.2-2.7,2.7c0,1.5,1.2,2.7,2.7,2.7c0.6,0,1.2-0.3,1.6-0.8v0.6h1.1
		V53.8z M56.4,53.8c0.1-0.9,0.8-1.5,1.7-1.5c0.9,0.1,1.5,0.8,1.5,1.7c0,0.8-0.7,1.5-1.6,1.5c-0.9,0-1.6-0.7-1.6-1.5
		C56.3,53.8,56.3,53.8,56.4,53.8z M18.3,53.8v-2.6h-1.1v0.6c-0.4-0.5-1-0.8-1.6-0.8c-1.5,0-2.7,1.2-2.7,2.7c0,1.5,1.2,2.7,2.7,2.7
		c0.6,0,1.2-0.3,1.6-0.8v0.6h1.1L18.3,53.8z M14.1,53.8c0.1-0.9,0.8-1.5,1.7-1.5c0.9,0.1,1.5,0.8,1.5,1.7c0,0.8-0.7,1.5-1.6,1.5
		c-0.9,0-1.6-0.7-1.6-1.5C14.1,53.9,14.1,53.8,14.1,53.8L14.1,53.8z"/>
	<path fill-opacity=".5" class="st0" d="M24.5,27c0-6,2.7-11.7,7.5-15.4C23.5,5,11.3,6.5,4.6,15s-5.2,20.7,3.3,27.4c7.1,5.6,17,5.6,24.1,0
		C27.3,38.7,24.5,33,24.5,27z"/>
	<path fill-opacity=".2" d="M63.6,27c0,10.8-8.7,19.5-19.5,19.5c-4.4,0-8.6-1.5-12.1-4.2c8.5-6.7,9.9-18.9,3.3-27.4
		c-1-1.2-2.1-2.3-3.3-3.3C40.5,5,52.7,6.5,59.4,15C62.1,18.4,63.6,22.6,63.6,27L63.6,27z"/>
	<path fill-rule="nonzero" d="M35.3,15c-1-1.2-2.1-2.3-3.3-3.3c-4.7,3.7-7.5,9.4-7.5,15.4c0,6,2.7,11.6,7.5,15.3
		C40.5,35.7,41.9,23.4,35.3,15z"/>
</g>
</svg>
