<svg xmlns="http://www.w3.org/2000/svg" width="64" height="64" viewBox="0 0 64 64">
<g fill="#625D58" fill-rule="evenodd">
	<polygon fill-opacity=".2" points="27,15.6 20.5,22.2 43.7,46.2 49.7,43.7 50.3,36.4 	"/>
	<rect x="9.1" y="56.2" fill-opacity=".2" width="40.6" height="3.9"/>
	<path fill-rule="nonzero" d="M15.1,10.3c0.8-0.8,0.8-2,0-2.8c-0.8-0.8-2-0.8-2.8,0c-0.8,0.8-0.8,2,0,2.8C13.1,11,14.3,11,15.1,10.3z
		 M20.8,11.8c0.3,1,1.3,1.7,2.4,1.4s1.7-1.3,1.4-2.4c-0.3-1-1.3-1.7-2.4-1.4C21.2,9.7,20.5,10.8,20.8,11.8z M14.2,13.6
		c-0.3-1-1.3-1.7-2.4-1.4s-1.7,1.3-1.4,2.4s1.3,1.7,2.4,1.4C13.9,15.7,14.5,14.6,14.2,13.6z M18.4,9.4c1,0.3,2.1-0.3,2.4-1.4
		c0.3-1-0.3-2.1-1.4-2.4C18.4,5.3,17.3,6,17,7C16.7,8,17.4,9.1,18.4,9.4z M18.9,11.3c-0.8-0.8-2-0.8-2.8,0c-0.8,0.8-0.8,2,0,2.8
		c0.8,0.8,2,0.8,2.8,0C19.7,13.3,19.7,12.1,18.9,11.3z M57.8,50.5L51,43.7c0,0-0.1-0.1-0.1-0.1c1.9-2.8,1.6-6.7-0.9-9.2L29.2,13.7
		c0-0.3,0-0.7,0-1c0-3.1-1.2-6.1-3.4-8.3c-2.2-2.2-5.2-3.4-8.3-3.4h0c-3.1,0-6.1,1.2-8.3,3.4C7,6.6,5.8,9.6,5.8,12.7
		c0,3.1,1.2,6.1,3.4,8.3c2.2,2.2,5.2,3.4,8.3,3.4c0.3,0,0.7,0,1,0l6.3,6.3v22.2c0,0.1,0,0.2,0,0.3H9.1c-1.6,0-3,1.3-3,3v3.9
		c0,1.6,1.3,3,3,3h40.6c1.6,0,3-1.3,3-3v-3.9c0-1.6-1.3-3-3-3H33.4c0-0.1,0-0.2,0-0.3V39.3l5.8,5.8c2.6,2.6,6.8,2.8,9.6,0.6
		c0,0,0,0,0,0.1l6.8,6.8c0.3,0.3,0.7,0.4,1,0.4c0.4,0,0.8-0.1,1-0.4C58.4,52,58.4,51.1,57.8,50.5z M17.5,21.5
		c-2.2,0-4.5-0.9-6.2-2.6c-3.4-3.4-3.4-9,0-12.4c1.7-1.7,4-2.6,6.2-2.6c2.2,0,4.5,0.9,6.2,2.6c3.4,3.4,3.4,9,0,12.4
		C22,20.6,19.8,21.5,17.5,21.5z M49.7,56.2v3.9H9.1v-3.9H49.7z M30.6,53.3h-2.8c0-0.1,0-0.2,0-0.3V33.7l2.7,2.7c0,0,0,0,0,0v16.5
		C30.5,53,30.5,53.2,30.6,53.3z M47.9,42.7l-0.4,0.4c-1.7,1.7-4.4,1.7-6.1,0L21.9,23.6c1.5-0.6,2.8-1.5,3.9-2.6
		c1.1-1.1,2-2.5,2.6-3.9l19.5,19.5C49.6,38.2,49.6,41,47.9,42.7z M16.6,16c-1-0.3-2.1,0.3-2.4,1.4c-0.3,1,0.3,2.1,1.4,2.4
		c1,0.3,2.1-0.3,2.4-1.4C18.3,17.3,17.7,16.3,16.6,16z M19.9,15.1c-0.8,0.8-0.8,2,0,2.8s2,0.8,2.8,0s0.8-2,0-2.8
		C21.9,14.3,20.7,14.3,19.9,15.1z"/>
</g>
</svg>
