<svg xmlns="http://www.w3.org/2000/svg" width="64" height="64" viewBox="0 0 64 64">
<g fill="#625D58" fill-rule="evenodd">
	<path fill-rule="nonzero" d="M23.1,25.6v29.2H6.7V25.6H23.1 M23.1,22.8H6.7c-1.5,0-2.8,1.3-2.8,2.8v29.2c0,1.5,1.3,2.8,2.8,2.8h16.4
		c1.5,0,2.8-1.3,2.8-2.8V25.6C25.9,24,24.6,22.8,23.1,22.8L23.1,22.8z"/>
	<path fill-opacity=".2" d="M53.6,27.1h-7.6c-3.9,0-7.1-3.2-7.1-7.1l0-7.5c0-1.7-1.3-3.3-3-3.3c-1.8-0.1-3.3,1.4-3.3,3.2v8.3
		c0,3.6-2.9,6.4-6.4,6.4h0v25.2h20.1c2.6,0,4.9-1.7,5.7-4.1L57.1,32C57.9,29.6,56.1,27.1,53.6,27.1z"/>
	<path fill-rule="nonzero" d="M35.7,9.2c0.1,0,0.1,0,0.2,0c1.7,0.1,3,1.6,3,3.3V20c0,3.9,3.2,7.1,7.1,7.1h7.6c2.5,0,4.3,2.5,3.6,4.9
		l-5.3,16.2c-0.8,2.5-3.1,4.1-5.7,4.1H26.1V27.1h0c3.6,0,6.4-2.9,6.4-6.4v-8.3C32.5,10.6,33.9,9.2,35.7,9.2 M35.7,6.4
		C35.7,6.4,35.7,6.4,35.7,6.4c-1.6,0-3.1,0.6-4.2,1.7c-1.1,1.1-1.7,2.6-1.7,4.2v8.3c0,2-1.6,3.6-3.6,3.6c-1.5,0-2.8,1.3-2.8,2.8
		l0,25.2c0,0.7,0.3,1.5,0.8,2c0.5,0.5,1.2,0.8,2,0.8h20.1c3.8,0,7.2-2.4,8.3-6.1l5.3-16.2c0.6-2,0.3-4.2-0.9-5.9
		c-1.2-1.7-3.2-2.7-5.3-2.7h-7.6c-2.4,0-4.3-1.9-4.3-4.3v-7.5c0-3.3-2.5-6-5.6-6.1C35.9,6.4,35.8,6.4,35.7,6.4L35.7,6.4L35.7,6.4z"
		/>
</g>
</svg>
