<svg xmlns="http://www.w3.org/2000/svg" width="64" height="64" viewBox="0 0 64 64">
<g fill="#625D58" fill-rule="evenodd">
	<path fill-opacity=".2" d="M13.8,33.8l0-20.7l0,0c0-0.8,0.6-1.4,1.4-1.4l26.2,0l0,0c0.8,0,1.4,0.6,1.4,1.4l0,20.7"/>
	<path fill-rule="nonzero" d="M57.9,49c-0.3,3.1-3,5.5-6.2,5.5c-3.2,0-5.8-2.4-6.2-5.5H30.3c-0.3,3.1-3,5.5-6.2,5.5S18.3,52.1,18,49h-2.8
		c-1.5,0-2.8-1.2-2.8-2.8l0-12.4l0-20.7c0-1.5,1.2-2.8,2.8-2.8l26.2,0c1.5,0,2.8,1.2,2.8,2.8l0,5.5h4.6c2.4,0,4.5,1.5,5.3,3.8
		l3.3,10.1l1.8,1.4c2.8,2.1,4.4,5.4,4.4,8.8v3.4c0,1.5-1.2,2.8-2.8,2.8H57.9z M45.9,46.2c0.9-2.4,3.2-4.1,5.9-4.1
		c2.7,0,5,1.7,5.9,4.1h3.1v-3.4c0-2.6-1.2-5.1-3.3-6.6l-1.3-1l-40.9,0l0,11h3.1c0.9-2.4,3.2-4.1,5.9-4.1s5,1.7,5.9,4.1L45.9,46.2z
		 M41.4,32.4l0-19.3l-26.2,0l0,19.3L41.4,32.4z M44.2,32.4h10.1l-2.9-9.1c-0.4-1.1-1.4-1.9-2.6-1.9h-4.6L44.2,32.4z M24.1,51.7
		c1.9,0,3.4-1.5,3.4-3.4c0-1.9-1.5-3.4-3.4-3.4c-1.9,0-3.4,1.5-3.4,3.4C20.7,50.2,22.2,51.7,24.1,51.7z M24.1,50.3
		c-1.1,0-2.1-0.9-2.1-2.1c0-1.1,0.9-2.1,2.1-2.1s2.1,0.9,2.1,2.1C26.2,49.4,25.3,50.3,24.1,50.3z M51.7,51.7c1.9,0,3.4-1.5,3.4-3.4
		s-1.5-3.4-3.4-3.4c-1.9,0-3.4,1.5-3.4,3.4S49.8,51.7,51.7,51.7z M51.7,50.3c-1.1,0-2.1-0.9-2.1-2.1s0.9-2.1,2.1-2.1
		c1.1,0,2.1,0.9,2.1,2.1S52.9,50.3,51.7,50.3z M41.4,37.9c0-0.8,0.6-1.4,1.4-1.4s1.4,0.6,1.4,1.4l0,8.3c0,0.8-0.6,1.4-1.4,1.4
		s-1.4-0.6-1.4-1.4L41.4,37.9z M48.4,30.1c-0.2-0.7,0.1-1.5,0.9-1.7c0.7-0.2,1.5,0.1,1.7,0.9l1.4,4.1c0.2,0.7-0.1,1.5-0.9,1.7
		c-0.7,0.2-1.5-0.1-1.7-0.9L48.4,30.1z M8.3,13.1c0.8,0,1.4,0.6,1.4,1.4c0,0.8-0.6,1.4-1.4,1.4H6.9c-0.8,0-1.4-0.6-1.4-1.4
		c0-0.8,0.6-1.4,1.4-1.4L8.3,13.1z M8.3,29.6c0.8,0,1.4,0.6,1.4,1.4c0,0.8-0.6,1.4-1.4,1.4H6.9c-0.8,0-1.4-0.6-1.4-1.4
		c0-0.8,0.6-1.4,1.4-1.4H8.3z M8.3,18.6c0.8,0,1.4,0.6,1.4,1.4c0,0.8-0.6,1.4-1.4,1.4H1.4C0.6,21.4,0,20.7,0,20
		c0-0.8,0.6-1.4,1.4-1.4H8.3z M8.3,24.1c0.8,0,1.4,0.6,1.4,1.4S9,26.9,8.3,26.9l-5.5,0c-0.8,0-1.4-0.6-1.4-1.4
		c0-0.8,0.6-1.4,1.4-1.4H8.3z"/>
</g>
</svg>
