<svg xmlns="http://www.w3.org/2000/svg" width="64" height="64" viewBox="0 0 64 64">
<g fill="#625D58" fill-rule="evenodd">
	<path fill-opacity=".2" d="M9.2,31.1h45.7c1.7,0,3-1.4,3-3v-9.1c0-1.7-1.4-3-3-3H9.2c-1.7,0-3,1.4-3,3V28C6.1,29.7,7.5,31.1,9.2,31.1z"/>
	<path fill-rule="nonzero" d="M25.1,15.8c-7.6-3.6-10-7.5-6.1-11.5c2.4-2.4,5.2-2.3,7.7,0.1c2,2,3.9,5.7,5.9,11.1C36.8,4,41.4-0.4,46.2,4.4
		c2.4,2.4,2.3,5.2-0.1,7.7c-1.3,1.3-3.2,2.5-5.9,3.8h14.7c1.7,0,3,1.4,3,3V28c0,1.7-1.4,3-3,3v27.4c0,1.7-1.4,3-3,3H12.2
		c-1.7,0-3-1.4-3-3V31.1c-1.7,0-3-1.4-3-3v-9.1c0-1.7,1.4-3,3-3H25.1z M12.2,31.1v27.4h39.6V31.1H12.2z M9.2,18.9V28h45.7v-9.1H9.2z
		 M43.9,9.9c1.3-1.3,1.3-2.2,0.1-3.4c-2.1-2.1-4.5,0-7.6,7.6C40.1,12.7,42.6,11.2,43.9,9.9z M24.6,6.7c-1.3-1.3-2.2-1.3-3.4-0.1
		c-2.1,2.1,0,4.5,7.6,7.6C27.3,10.5,25.9,8,24.6,6.7z"/>
</g>
</svg>
