<svg xmlns="http://www.w3.org/2000/svg" width="64" height="64" viewBox="0 0 64 64">
<g fill="#625D58" fill-rule="evenodd">
	<rect fill-opacity=".2" x="20" y="39.7" class="st0" width="14.1" height="14.1"/>
	<path fill-rule="nonzero" class="st1" d="M15.8,14.3c0.7-6.7,5.8-7.1,10.4-7.1c4.6,0,9.7,0.3,10.4,7.1h6c1.6,0,2.8,1.3,2.8,2.8v39.6H8.7V17.1
		c0-1.6,1.3-2.8,2.8-2.8H15.8z M15.8,17.1h-4.3v36.7h31.1V17.1h-6c-0.6,7.2-6.5,7.5-10.4,7.5C22.3,24.7,16.4,24.3,15.8,17.1z
		 M32.6,16.7l1.5-1.5l-1.7-1.7c-1.9-1.9-3.3-3.2-6.3,0c-1.3-1.4-3.4-4.3-7.6,1.7l7.8,7.8l1.5-1.5v0l-6.5-6.5c1.4-1.7,2.2-0.9,3-0.1
		l5,5l1.5-1.5l-3.4-3.4c1.5-1.8,2.3-0.9,3.1-0.1L32.6,16.7z M28.5,56.7L28.5,56.7l-2.8,0.1v-0.1H20c-1.6,0-2.8-1.3-2.8-2.8V39.7
		c0-1.6,1.3-2.8,2.8-2.8h14.1c1.6,0,2.8,1.3,2.8,2.8v14.1c0,1.6-1.3,2.8-2.8,2.8H28.5z M25.6,39.7H20v14.1h5.7V39.7z M28.5,39.7
		v14.1h5.7V39.7H28.5z M3,34.1h8.5v22.6H0.2V36.9C0.2,35.4,1.5,34.1,3,34.1z M8.7,53.9v-17H3v17H8.7z M45.4,36.9H61
		c1.6,0,2.8,1.3,2.8,2.8v17H42.6v-17C42.6,38.2,43.9,36.9,45.4,36.9z M61,39.7H45.4v14.1H61V39.7z"/>
</g>
</svg>
