<svg xmlns="http://www.w3.org/2000/svg" width="64" height="64" viewBox="0 0 24 24">
<g fill="#625D58" fill-rule="evenodd">
	<polygon fill-opacity=".2" points="1.5,5.2 15.2,5.2 15.2,9 10.8,9 10.3,10.1 10.3,21.1 5.4,21.1 2.9,19.7 1.5,17 	"/>
	<path fill-opacity=".2" d="M9.7,11.8h12.6v10.9l0,0c0,0.6-0.5,1.1-1.1,1.1h-9.3l0,0c-1.2,0-2.2-1-2.2-2.2V11.8z"/>
	<path fill-rule="nonzero" d="M14.7,9V1.4H4.8V0.3h9.8c0.6,0,1.1,0.5,1.1,1.1c0,2.4,0,6.5,0,7.7H14.7z M10.3,20.5v1.1H5.4
		c-2.1,0-3.8-1.7-3.8-3.8V3h1.1v14.8c0,1.5,1.2,2.7,2.7,2.7H10.3z M22,8.8c0.2,0.2,0.3,0.5,0.3,0.8v13.1c0,0.6-0.5,1.1-1.1,1.1h-9.3
		c-1.2,0-2.2-1-2.2-2.2V10.7c0,0,0-0.1,0-0.1c0,0,0-0.1,0-0.1c0-1.1,0.9-1.9,1.9-1.9h9.6C21.5,8.5,21.8,8.6,22,8.8z M11.6,12.3
		c-0.3,0-0.6-0.1-0.8-0.2v9.5c0,0.6,0.5,1.1,1.1,1.1h9.3V12.3H11.6z M15.8,3c0,0,0,0.1,0,0.1v1.5c0,0.6-0.5,1.1-1.1,1.1H4.3
		C2.8,5.8,1.5,4.5,1.5,3s1.2-2.7,2.7-2.7h10.4c0.6,0,1.1,0.5,1.1,1.1v1.5C15.8,2.9,15.8,3,15.8,3z M14.7,2.5V1.4H4.3
		C3.4,1.4,2.6,2.1,2.6,3s0.7,1.6,1.6,1.6h10.4V3.6H4.8C4.5,3.6,4.3,3.3,4.3,3s0.2-0.5,0.5-0.5H14.7z M11.6,9.6
		c-0.5,0-0.8,0.4-0.8,0.8s0.4,0.8,0.8,0.8h9.6V9.6H11.6z"/>
</g>
</svg>
