<svg xmlns="http://www.w3.org/2000/svg" width="24" height="24" viewBox="0 0 24 24">
  <path fill="#000000" d="M17.6842142,7.0169319 L18.4384472,4 L7,4 L7,18 L10.6,13.2 C11.1665631,12.4445825 12.0557281,12 13,12 L16.4384472,12 L17.1884472,9 L10.5,9 C9.94771525,9 9.5,8.55228475 9.5,8 C9.5,7.44771525 9.94771525,7 10.5,7 L17.5,7 C17.5629317,7 17.6245057,7.00581319 17.6842142,7.0169319 Z M6,2 L19.7192236,2 C20.2715083,2 20.7192236,2.44771525 20.7192236,3 C20.7192236,3.08176181 20.7091962,3.16321502 20.6893661,3.24253563 L18.1893661,13.2425356 C18.0780743,13.6877026 17.6780912,14 17.2192236,14 L13,14 C12.6852427,14 12.3888544,14.1481942 12.2,14.4 L6.8,21.6 C6.46862915,22.0418278 5.8418278,22.1313708 5.4,21.8 C5.14819416,21.6111456 5,21.3147573 5,21 L5,3 C5,2.44771525 5.44771525,2 6,2 Z"/>
</svg>
