<svg xmlns="http://www.w3.org/2000/svg" width="24" height="24" viewBox="0 0 24 24">
  <path fill="#000000" d="M12.66542,10.4250601 C12.6613024,11.4097268 12.66542,12.3943386 12.6695926,13.3789503 C14.3203298,13.4327543 15.9751298,13.4078837 17.6258671,13.4327543 C16.8977573,17.0941111 11.9166671,18.2814209 9.28131808,15.8902209 C6.5714671,13.7926915 6.69971808,9.19223661 9.517122,7.24365622 C11.4864004,5.67153857 14.287224,6.06040916 16.2564475,7.42153857 C17.0301259,6.70583661 17.7540632,5.94044837 18.4532396,5.14612681 C16.8149651,3.83880132 14.8043455,2.90793857 12.66542,3.00725622 C8.20150631,2.8583072 4.09747494,6.76787583 4.02302788,11.2318445 C3.73753768,14.8807386 6.13708278,18.4593582 9.52541219,19.7501582 C12.9012789,21.0491935 17.2287063,20.1638445 19.3841573,17.1313346 C20.8073259,15.2158601 21.1134593,12.7501582 20.9479847,10.4333503 C18.1843298,10.4126523 15.4249024,10.4167699 12.66542,10.4250601 Z"/>
</svg>
