<svg xmlns="http://www.w3.org/2000/svg" width="24" height="24" viewBox="0 0 24 24">
  <path fill="#000000" fill-rule="evenodd" d="M6.70589848,5.74233263 C5.92117079,5.74233263 5.13644309,6.05872419 4.53843781,6.69150733 C3.96264181,7.30250041 3.64513144,8.11831999 3.64513144,8.9890505 C3.64513144,9.85978101 3.96264181,10.674729 4.53843781,11.2848505 L6.08239367,12.9208476 L10.9585633,17.921229 L15.9301505,12.9060304 L17.4593001,11.2848505 C18.6536656,10.0192842 18.6536656,7.9579452 17.4593001,6.69150733 C16.2641121,5.42594106 14.3195668,5.42594106 13.1243788,6.69150733 L11.5804229,8.32750449 C11.2587997,8.66830092 10.7381156,8.66830092 10.417315,8.32750449 L8.87335915,6.69150733 C8.27535387,6.05872419 7.49062618,5.74233263 6.70589848,5.74233263 M20,18 L21.009222,18 C21.5564136,18 22,18.4438648 22,19 C22,19.5522847 21.5490248,20 21.009222,20 L20,20 L20,21.009222 C20,21.5564136 19.5561352,22 19,22 C18.4477153,22 18,21.5490248 18,21.009222 L18,20 L16.990778,20 C16.4435864,20 16,19.5561352 16,19 C16,18.4477153 16.4509752,18 16.990778,18 L18,18 L18,16.990778 C18,16.4435864 18.4438648,16 19,16 C19.5522847,16 20,16.4509752 20,16.990778 L20,18 Z M10.3819447,19.7550798 L3.37532988,12.5172959 C2.48860404,11.5785804 2,10.3252165 2,8.9890505 C2,7.65201286 2.48860404,6.39864902 3.37532988,5.45906194 C5.2129417,3.51364602 8.20050039,3.51364602 10.0364671,5.45906194 L10.998869,6.47883641 L11.9612709,5.45906194 C13.7972376,3.51364602 16.7847962,3.51364602 18.6224081,5.45906194 C20.4591973,7.40534946 20.4591973,10.5718799 18.6224081,12.5172959 L17.0784522,14.153293 L11.5211982,19.7603094 C11.3616205,19.9206842 11.1576242,20 10.9536279,20 C10.7471639,20 10.5406999,19.918941 10.3819447,19.7550798 Z"/>
</svg>
