<svg xmlns="http://www.w3.org/2000/svg" width="24" height="24" viewBox="0 0 24 24">
  <path fill="#000000" d="M17.998,2 L5.8324,2 C3.7192,2 2,3.68509804 2,5.75686275 L2,9.7254902 L2,17.6843137 C2,19.7560784 3.7192,21.4411765 5.8324,21.4411765 L17.9984,21.4411765 C20.1116,21.4411765 21.8304,19.7560784 21.8304,17.6843137 L21.8304,9.72509804 L21.8304,5.75647059 C21.83,3.68470588 20.1112,2 17.998,2 Z M19.0972,4.24039216 L19.5356,4.23882353 L19.5356,4.66666667 L19.5356,7.53411765 L16.1856,7.54470588 L16.174,4.24980392 L19.0972,4.24039216 Z M9.0848,9.72509804 C9.72,8.86352941 10.7504,8.29843137 11.9152,8.29843137 C13.08,8.29843137 14.1104,8.86352941 14.7448,9.72509804 C15.158,10.287451 15.4056,10.9752941 15.4056,11.7203922 C15.4056,13.6070588 13.8384,15.1419608 11.9148,15.1419608 C9.99,15.1419608 8.4244,13.6070588 8.4244,11.7203922 C8.4248,10.9752941 8.6716,10.287451 9.0848,9.72509804 Z M19.898,17.6839216 C19.898,18.7117647 19.0456,19.5466667 17.998,19.5466667 L5.8324,19.5466667 C4.7844,19.5466667 3.932,18.7117647 3.932,17.6839216 L3.932,9.72509804 L6.892,9.72509804 C6.6364,10.3415686 6.4928,11.014902 6.4928,11.7203922 C6.4928,14.6509804 8.9248,17.0368627 11.9152,17.0368627 C14.9052,17.0368627 17.3372,14.6509804 17.3372,11.7203922 C17.3372,11.014902 17.1928,10.3415686 16.9372,9.72509804 L19.898,9.72509804 L19.898,17.6839216 Z"/>
</svg>
