<svg xmlns="http://www.w3.org/2000/svg" width="24" height="24" viewBox="0 0 24 24">
  <path fill="#00B6EB" d="M7.17070571,5 C7.58254212,3.83480763 8.69378117,3 10,3 L14,3 C15.3062188,3 16.4174579,3.83480763 16.8292943,5 L17,5 C18.6568542,5 20,6.34314575 20,8 L20,18 C20,19.6568542 18.6568542,21 17,21 L7,21 C5.34314575,21 4,19.6568542 4,18 L4,8 C4,6.34314575 5.34314575,5 7,5 L7.17070571,5 Z M7.17070571,7 L7,7 C6.44771525,7 6,7.44771525 6,8 L6,18 C6,18.5522847 6.44771525,19 7,19 L17,19 C17.5522847,19 18,18.5522847 18,18 L18,8 C18,7.44771525 17.5522847,7 17,7 L16.8292943,7 C16.4174579,8.16519237 15.3062188,9 14,9 L10,9 C8.69378117,9 7.58254212,8.16519237 7.17070571,7 Z M15,15 C15.5522847,15 16,15.4477153 16,16 C16,16.5522847 15.5522847,17 15,17 L13,17 C12.4477153,17 12,16.5522847 12,16 C12,15.4477153 12.4477153,15 13,15 L15,15 Z M15,11 C15.5522847,11 16,11.4477153 16,12 C16,12.5522847 15.5522847,13 15,13 L9,13 C8.44771525,13 8,12.5522847 8,12 C8,11.4477153 8.44771525,11 9,11 L15,11 Z M10,5 C9.44771525,5 9,5.44771525 9,6 C9,6.55228475 9.44771525,7 10,7 L14,7 C14.5522847,7 15,6.55228475 15,6 C15,5.44771525 14.5522847,5 14,5 L10,5 Z"/>
</svg>
