<?xml version="1.0" encoding="utf-8"?>
<!-- Generator: Adobe Illustrator 22.0.1, SVG Export Plug-In . SVG Version: 6.00 Build 0)  -->
<svg version="1.1" id="Layer_1" xmlns="http://www.w3.org/2000/svg" xmlns:xlink="http://www.w3.org/1999/xlink" x="0px" y="0px"
	 viewBox="0 0 50 50" style="enable-background:new 0 0 50 50;" xml:space="preserve">
<style type="text/css">
	.st0{fill:#231F20;}
</style>
<g>
	<path class="st0" d="M33.5,21.9C33.5,21.9,33.5,21.9,33.5,21.9l-17.8-1.1c-0.5,0-0.8-0.4-0.9-0.8c0-0.2-0.8-4.1-0.9-8
		c-0.1-4,1.7-8.7,1.8-8.9c0.1-0.3,0.4-0.5,0.7-0.6c0.2,0,3.8-0.8,9-0.7c5.2,0.1,9.1,1.3,9.3,1.3c0.4,0.1,0.6,0.4,0.7,0.8
		c0,0.2,0.8,4.1,1,8.3c0.1,4.3-1.9,8.9-2,9.1C34.3,21.7,33.9,21.9,33.5,21.9z M16.7,18.9l16.2,1c0.5-1.4,1.6-4.6,1.5-7.6
		c-0.1-3.1-0.6-6.1-0.8-7.4c-1.3-0.3-4.4-1-8.2-1.1c-3.8-0.1-6.8,0.4-8,0.6C17,5.7,15.8,9.1,15.9,12C16,14.8,16.4,17.6,16.7,18.9z"
		/>
</g>
<g>
	<path class="st0" d="M20.2,34.9c-0.5,0-1-0.4-1-0.9l-0.6-9.7c0-0.6,0.4-1,0.9-1.1l9.7-0.6c0.6,0,1,0.4,1.1,0.9l0.6,9.7
		c0,0.6-0.4,1-0.9,1.1L20.2,34.9C20.3,34.9,20.2,34.9,20.2,34.9z M20.6,25.2l0.5,7.7l7.7-0.5l-0.5-7.7L20.6,25.2z"/>
</g>
<g>
	<path class="st0" d="M20.8,47.8c0,0-0.1,0-0.1,0l-4.6-0.7c-0.3,0-0.6-0.2-0.7-0.5c-0.1-0.3-0.2-0.6,0-0.9l4.6-9.4
		c0.2-0.3,0.5-0.5,0.9-0.6l2.7-0.1c0.3,0,0.6,0.1,0.8,0.4c0.2,0.2,0.3,0.6,0.2,0.9L21.8,47C21.7,47.5,21.3,47.8,20.8,47.8z
		 M17.7,45.3l2.4,0.3l2.1-8l-0.7,0L17.7,45.3z"/>
</g>
<g>
	<path class="st0" d="M28.7,48C28.7,48,28.7,48,28.7,48l-4.9-0.3c-0.3,0-0.6-0.2-0.7-0.4c-0.2-0.2-0.2-0.5-0.2-0.8l2.3-10.2
		c0.1-0.4,0.5-0.8,0.9-0.8l2.3-0.1c0.3,0,0.5,0.1,0.7,0.3c0.2,0.2,0.3,0.4,0.3,0.7L29.7,47c0,0.3-0.1,0.5-0.3,0.7
		C29.2,47.9,29,48,28.7,48z M25.1,45.8l2.6,0.1l-0.1-8.5l-0.5,0L25.1,45.8z"/>
</g>
<g>
	<path class="st0" d="M9,35.7c-0.3,0-0.5-0.1-0.7-0.3l-2-2c-0.4-0.4-0.4-1,0-1.4l7.6-7.6c0.2-0.2,0.4-0.3,0.7-0.3c0,0,0,0,0,0
		c0.3,0,0.5,0.1,0.7,0.3l2,2c0.4,0.4,0.4,1,0,1.4l-7.6,7.6C9.5,35.6,9.3,35.7,9,35.7z M8.4,32.7L9,33.3l6.2-6.2l-0.6-0.6L8.4,32.7z"
		/>
</g>
<g>
	<path class="st0" d="M40.3,34.9c-0.3,0-0.5-0.1-0.7-0.3L32,27c-0.4-0.4-0.4-1,0-1.4l2-2c0.2-0.2,0.5-0.3,0.7-0.3
		c0.3,0,0.5,0.1,0.7,0.3l7.6,7.6c0.2,0.2,0.3,0.4,0.3,0.7c0,0.3-0.1,0.5-0.3,0.7l-2.1,2C40.8,34.8,40.6,34.9,40.3,34.9z M34.2,26.3
		l6.2,6.2l0.6-0.6l-6.2-6.2L34.2,26.3z"/>
</g>
<g>
	<path class="st0" d="M43.2,38.3c-0.1,0-0.3,0-0.4-0.1L40,36.9c-0.4-0.2-0.6-0.5-0.6-0.9l0.1-2.1c0-0.3,0.1-0.5,0.3-0.7l2-1.9
		c0.3-0.3,0.8-0.4,1.2-0.2l2.2,1.3c0.3,0.2,0.5,0.6,0.5,1l-0.2,2.6c0,0.2-0.1,0.4-0.3,0.6L43.9,38C43.7,38.2,43.5,38.3,43.2,38.3z
		 M41.5,35.4l1.5,0.7l0.6-0.7l0.1-1.7l-1-0.6l-1.1,1.1L41.5,35.4z"/>
</g>
<g>
	<path class="st0" d="M6.4,38.8c-0.2,0-0.5-0.1-0.6-0.2l-1.6-1.3c-0.2-0.2-0.3-0.4-0.4-0.7l-0.3-2.7c0-0.4,0.2-0.9,0.6-1l2.4-1
		c0.4-0.2,0.8-0.1,1.1,0.2l1.9,1.8c0.2,0.1,0.3,0.3,0.3,0.6l0.3,1.9c0.1,0.4-0.1,0.9-0.5,1.1l-2.7,1.3C6.7,38.8,6.6,38.8,6.4,38.8z
		 M5.8,36l0.8,0.7L8,35.9l-0.2-0.9l-1.2-1.1l-1.1,0.5L5.8,36z"/>
</g>
<g>
	<path class="st0" d="M21.5,16.6C21.5,16.6,21.4,16.6,21.5,16.6c-0.6,0-1-0.5-1-1l0.3-7.5c0-0.6,0.5-1,1-1c0.6,0,1,0.5,1,1l-0.3,7.5
		C22.5,16.2,22,16.6,21.5,16.6z"/>
</g>
<g>
	<path class="st0" d="M28.6,17C28.6,17,28.6,17,28.6,17c-0.6,0-1-0.5-1-1l0.3-7.5c0-0.6,0.5-1,1-1c0.6,0,1,0.5,1,1l-0.3,7.5
		C29.6,16.6,29.1,17,28.6,17z"/>
</g>
</svg>
