<svg xmlns="http://www.w3.org/2000/svg" width="24" height="24" viewBox="0 0 24 24">
  <path fill="#000000" d="M6,10 L6,18 L8,18 L8,10 L6,10 Z M10,9 C11.1045695,9 12,8.1045695 12,7 L12,6 C12,4.8954305 12.8954305,4 14,4 C15.1045695,4 16,4.8954305 16,6 L16,8 C16,8.55228475 16.4477153,9 17,9 L19.3119387,9 C20.4165082,9 21.3119387,9.8954305 21.3119387,11 C21.3119387,11.1946491 21.2835233,11.3882557 21.2275913,11.5746958 L19.4275913,17.5746958 C19.1738009,18.4206637 18.3951551,19 17.5119387,19 L10,19 C10,19.5522847 9.55228475,20 9,20 L5,20 C4.44771525,20 4,19.5522847 4,19 L4,9 C4,8.44771525 4.44771525,8 5,8 L9,8 C9.55228475,8 10,8.44771525 10,9 Z M14,8 L14,6 L14,7 C14,9.209139 12.209139,11 10,11 L10,17 L17.5119387,17 L19.3119387,11 L17,11 C15.3431458,11 14,9.65685425 14,8 Z"/>
</svg>
