<?xml version="1.0" encoding="utf-8"?>
<!-- Generator: Adobe Illustrator 22.1.0, SVG Export Plug-In . SVG Version: 6.00 Build 0)  -->
<svg version="1.1" id="Layer_1" xmlns="http://www.w3.org/2000/svg" xmlns:xlink="http://www.w3.org/1999/xlink" x="0px" y="0px"
	 viewBox="0 0 24 24" style="enable-background:new 0 0 24 24;" xml:space="preserve">
<g>
	<g>
		<path d="M13.1,14.1c-0.3,0-0.5-0.1-0.7-0.3c-0.4-0.4-0.4-1,0-1.4c1.4-1.4,1.4-3.6,0-4.9l-2.1-2.1C8.9,4,6.7,4,5.3,5.3
			c-1.4,1.4-1.4,3.6,0,5l2.1,2.1c0.4,0.4,0.4,1,0,1.4c-0.4,0.4-1,0.4-1.4,0l-2.1-2.1c-2.1-2.1-2.1-5.6,0-7.8c2.1-2.1,5.6-2.1,7.8,0
			L13.8,6c2.1,2.1,2.1,5.6,0,7.8C13.6,14,13.4,14.1,13.1,14.1z"/>
	</g>
	<g>
		<path d="M16.2,21.7c-1.4,0-2.8-0.5-3.9-1.6L10.2,18c-2.1-2.1-2.1-5.6,0-7.8c0.4-0.4,1-0.4,1.4,0s0.4,1,0,1.4c-1.4,1.4-1.4,3.6,0,5
			l2.1,2.1c1.4,1.4,3.6,1.4,5,0c1.4-1.4,1.4-3.6,0-5l-2.1-2.1c-0.4-0.4-0.4-1,0-1.4s1-0.4,1.4,0l2.1,2.1c1,1,1.6,2.4,1.6,3.9
			c0,1.5-0.6,2.8-1.6,3.9C19,21.2,17.6,21.7,16.2,21.7z"/>
	</g>
</g>
</svg>
