<svg xmlns="http://www.w3.org/2000/svg" xmlns:xlink="http://www.w3.org/1999/xlink" version="1" width="64" height="64" viewBox="0 0 128 128"><script type="text/ecmascript" xlink:href="//preloaders.net/jscripts/smil.user.js"/><g><path d="M64 14.75a6.73 6.73 0 0 1 6.75 6.7V38.8a6.75 6.75 0 0 1-13.5 0V21.45a6.73 6.73 0 0 1 6.75-6.7z" fill="currentColor"/><path d="M98.825 29.175a6.73 6.73 0 0 1 .035 9.51L86.592 50.955a6.75 6.75 0 0 1-9.546-9.546L89.314 29.14a6.73 6.73 0 0 1 9.511.035z" fill="currentColor" fill-opacity=".26"/><path d="M113.25 64a6.73 6.73 0 0 1-6.7 6.75H89.2a6.75 6.75 0 0 1 0-13.5h17.35a6.73 6.73 0 0 1 6.7 6.75z" fill="currentColor" fill-opacity=".35"/><path d="M98.825 98.825a6.73 6.73 0 0 1-9.51.035L77.045 86.592a6.75 6.75 0 0 1 9.546-9.546L98.86 89.314a6.73 6.73 0 0 1-.035 9.511z" fill="currentColor" fill-opacity=".44"/><path d="M64 113.25a6.73 6.73 0 0 1-6.75-6.7V89.2a6.75 6.75 0 0 1 13.5 0v17.35a6.73 6.73 0 0 1-6.75 6.7z" fill="currentColor" fill-opacity=".52"/><path d="M29.175 98.825a6.73 6.73 0 0 1-.035-9.51l12.268-12.269a6.75 6.75 0 0 1 9.546 9.546L38.686 98.86a6.73 6.73 0 0 1-9.511-.035z" fill="currentColor" fill-opacity=".61"/><path d="M14.75 64a6.73 6.73 0 0 1 6.7-6.75H38.8a6.75 6.75 0 0 1 0 13.5H21.45a6.73 6.73 0 0 1-6.7-6.75z" fill="currentColor" fill-opacity=".69"/><path d="M29.175 29.175a6.73 6.73 0 0 1 9.51-.035l12.269 12.268a6.75 6.75 0 0 1-9.546 9.546L29.14 38.686a6.73 6.73 0 0 1 .035-9.511z" fill="currentColor" fill-opacity=".78"/></g></svg>