<svg xmlns="http://www.w3.org/2000/svg" width="24" height="24" viewBox="0 0 24 24">
  <path fill="#000000" d="M19.5,22 L4,22 C2.8954305,22 2,21.1045695 2,20 L2,4.00010914 C2,2.89553964 2.8954305,2.00010914 4,2.00010914 L18.9850731,2.00010914 C18.9900401,2.00003646 18.9950158,2 19,2 L21,2 C21.5522847,2 22,2.44771525 22,3 L22,3 C22,3.55228475 21.5522847,4 21,4 L20,4 L4,4.00010914 L4,20 L19.5,20 L21,20 C21.5522847,20 22,20.4477153 22,21 C22,21.5522847 21.5522847,22 21,22 L19.5,22 Z M18.5857864,13 L9,13 C8.44771525,13 8,12.5522847 8,12 C8,11.4477153 8.44771525,11 9,11 L18.5857864,11 L16.2928932,8.70710678 C15.9023689,8.31658249 15.9023689,7.68341751 16.2928932,7.29289322 C16.6834175,6.90236893 17.3165825,6.90236893 17.7071068,7.29289322 L21.7071068,11.2928932 C22.0976311,11.6834175 22.0976311,12.3165825 21.7071068,12.7071068 L17.7071068,16.7071068 C17.3165825,17.0976311 16.6834175,17.0976311 16.2928932,16.7071068 C15.9023689,16.3165825 15.9023689,15.6834175 16.2928932,15.2928932 L18.5857864,13 Z"/>
</svg>
