<?xml version="1.0" encoding="utf-8"?>
<!-- Generator: Adobe Illustrator 21.1.0, SVG Export Plug-In . SVG Version: 6.00 Build 0)  -->
<svg version="1.1" id="Layer_1" xmlns="http://www.w3.org/2000/svg" xmlns:xlink="http://www.w3.org/1999/xlink" x="0px" y="0px"
	 viewBox="0 0 24 24" style="enable-background:new 0 0 24 24;" xml:space="preserve">
<path d="M12,2.3C6.6,2.3,0.3,2.7,0.3,12s7,9.7,11.7,9.7c4.6,0,11.7-0.4,11.7-9.7C23.7,2.7,17.5,2.3,12,2.3z M19.6,11.9l-2.3-2.3
	c-0.9-0.9-1.9-2-3.7,0.1l4.1,4.1l-1.9,1.9L9.7,9.6c-1-1-2-2-3.7,0.2l7.9,7.9v0L12,19.5L2.6,10c5.2-7.3,7.6-3.8,9.2-2.1
	c3.7-3.9,5.4-2.3,7.6,0l2,2.1L19.6,11.9z"/>
</svg>
