<svg xmlns="http://www.w3.org/2000/svg" width="24" height="24" viewBox="0 0 24 24">
  <g fill="#000000">
    <path d="M17 9L3 9C2.44771525 9 2 9.44771525 2 10 2 10.5522847 2.44771525 11 3 11L17 11C17.5522847 11 18 10.5522847 18 10 18 9.44771525 17.5522847 9 17 9zM21 5L3 5C2.44771525 5 2 5.44771525 2 6 2 6.55228475 2.44771525 7 3 7L21 7C21.5522847 7 22 6.55228475 22 6 22 5.44771525 21.5522847 5 21 5zM13 13L3 13C2.44771525 13 2 13.4477153 2 14 2 14.5522847 2.44771525 15 3 15L13 15C13.5522847 15 14 14.5522847 14 14 14 13.4477153 13.5522847 13 13 13zM9 17L3 17C2.44771525 17 2 17.4477153 2 18 2 18.5522847 2.44771525 19 3 19L9 19C9.55228475 19 10 18.5522847 10 18 10 17.4477153 9.55228475 17 9 17z"/>
  </g>
</svg>
