<svg xmlns="http://www.w3.org/2000/svg" width="64" height="64" viewBox="0 0 64 64">
  <g fill="#625D58" fill-rule="evenodd">
    <path fill-opacity=".2" d="M19,33 L19,18 L19,18 C19,17.4477153 19.4477153,17 20,17 L39,17 L39,17 C39.5522847,17 40,17.4477153 40,18 L40,33"/>
    <path fill-rule="nonzero" d="M50.9725356,44 C50.7238135,46.2499752 48.8162768,48 46.5,48 C44.1837232,48 42.2761865,46.2499752 42.0274644,44 L30.9725356,44 C30.7238135,46.2499752 28.8162768,48 26.5,48 C24.1837232,48 22.2761865,46.2499752 22.0274644,44 L20,44 C18.8954305,44 18,43.1045695 18,42 L18,33 L18,18 C18,16.8954305 18.8954305,16 20,16 L39,16 C40.1045695,16 41,16.8954305 41,18 L41,22 L44.3158214,22 C46.0516521,22 47.5893686,23.1195492 48.1224928,24.7714833 L50.4942914,32.1207186 L51.8,33.1 C53.8144467,34.6108351 55,36.9819416 55,39.5 L55,42 C55,43.1045695 54.1045695,44 53,44 L50.9725356,44 Z M42.2560586,42 C42.8738132,40.2522114 44.5406718,39 46.5,39 C48.4593282,39 50.1261868,40.2522114 50.7439414,42 L53,42 L53,39.5 C53,37.6114562 52.1108351,35.8331263 50.6,34.7 L49.6666667,34 L20,34 L20,42 L22.2560586,42 C22.8738132,40.2522114 24.5406718,39 26.5,39 C28.4593282,39 30.1261868,40.2522114 30.7439414,42 L42.2560586,42 Z M39,32 L39,18 L20,18 L20,32 L39,32 Z M41,32 L48.3537587,32 L46.2191571,25.3857417 C45.952595,24.5597746 45.1837367,24 44.3158214,24 L41,24 L41,32 Z M26.5,46 C27.8807119,46 29,44.8807119 29,43.5 C29,42.1192881 27.8807119,41 26.5,41 C25.1192881,41 24,42.1192881 24,43.5 C24,44.8807119 25.1192881,46 26.5,46 Z M26.5,45 C25.6715729,45 25,44.3284271 25,43.5 C25,42.6715729 25.6715729,42 26.5,42 C27.3284271,42 28,42.6715729 28,43.5 C28,44.3284271 27.3284271,45 26.5,45 Z M46.5,46 C47.8807119,46 49,44.8807119 49,43.5 C49,42.1192881 47.8807119,41 46.5,41 C45.1192881,41 44,42.1192881 44,43.5 C44,44.8807119 45.1192881,46 46.5,46 Z M46.5,45 C45.6715729,45 45,44.3284271 45,43.5 C45,42.6715729 45.6715729,42 46.5,42 C47.3284271,42 48,42.6715729 48,43.5 C48,44.3284271 47.3284271,45 46.5,45 Z M39,36 C39,35.4477153 39.4477153,35 40,35 C40.5522847,35 41,35.4477153 41,36 L41,42 C41,42.5522847 40.5522847,43 40,43 C39.4477153,43 39,42.5522847 39,42 L39,36 Z M44.0513167,30.3162278 C43.8766689,29.7922844 44.1598289,29.2259645 44.6837722,29.0513167 C45.2077156,28.8766689 45.7740355,29.1598289 45.9486833,29.6837722 L46.9486833,32.6837722 C47.1233311,33.2077156 46.8401711,33.7740355 46.3162278,33.9486833 C45.7922844,34.1233311 45.2259645,33.8401711 45.0513167,33.3162278 L44.0513167,30.3162278 Z M15,18 C15.5522847,18 16,18.4477153 16,19 C16,19.5522847 15.5522847,20 15,20 L14,20 C13.4477153,20 13,19.5522847 13,19 C13,18.4477153 13.4477153,18 14,18 L15,18 Z M15,30 C15.5522847,30 16,30.4477153 16,31 C16,31.5522847 15.5522847,32 15,32 L14,32 C13.4477153,32 13,31.5522847 13,31 C13,30.4477153 13.4477153,30 14,30 L15,30 Z M15,22 C15.5522847,22 16,22.4477153 16,23 C16,23.5522847 15.5522847,24 15,24 L10,24 C9.44771525,24 9,23.5522847 9,23 C9,22.4477153 9.44771525,22 10,22 L15,22 Z M15,26 C15.5522847,26 16,26.4477153 16,27 C16,27.5522847 15.5522847,28 15,28 L11,28 C10.4477153,28 10,27.5522847 10,27 C10,26.4477153 10.4477153,26 11,26 L15,26 Z"/>
  </g>
</svg>
