<svg xmlns="http://www.w3.org/2000/svg" width="64" height="64" viewBox="0 0 64 64">
  <g fill="#625D58" fill-rule="evenodd">
    <path fill-rule="nonzero" d="M21.0428257,47 C21.5951104,47 22.0428257,46.5522847 22.0428257,46 L22.0428257,44 C22.0428257,42.8954305 22.9382562,42 24.0428257,42 L44.9571743,42 C46.0617438,42 46.9571743,42.8954305 46.9571743,44 L46.9571743,46 C46.9571743,47.6568542 45.6140286,49 43.9571743,49 L32,49 L21,49 C19.3431458,49 18,47.6568542 18,46 L18,17 C18,15.8954305 18.8954305,15 20,15 L41,15 C42.1045695,15 43,15.8954305 43,17 L43,42 L41,42 L41,17 L20,17 L20,46 C20,46.5522847 20.4477153,47 21,47 L21.0428262,47 Z M43.9571743,47 C44.5094591,47 44.9571743,46.5522847 44.9571743,46 L44.9571743,44 L24.0428257,44 L24.0428257,46 C24.0428257,46.3506354 23.9826715,46.6872211 23.87212,47 L43.9571743,47 Z M23,22 C22.4477153,22 22,21.5522847 22,21 C22,20.4477153 22.4477153,20 23,20 L38,20 C38.5522847,20 39,20.4477153 39,21 C39,21.5522847 38.5522847,22 38,22 L23,22 Z M23,27 C22.4477153,27 22,26.5522847 22,26 C22,25.4477153 22.4477153,25 23,25 L32,25 C32.5522847,25 33,25.4477153 33,26 C33,26.5522847 32.5522847,27 32,27 L23,27 Z M36,27 C35.4477153,27 35,26.5522847 35,26 C35,25.4477153 35.4477153,25 36,25 L38,25 C38.5522847,25 39,25.4477153 39,26 C39,26.5522847 38.5522847,27 38,27 L36,27 Z M23,31 C22.4477153,31 22,30.5522847 22,30 C22,29.4477153 22.4477153,29 23,29 L29,29 C29.5522847,29 30,29.4477153 30,30 C30,30.5522847 29.5522847,31 29,31 L23,31 Z M36,31 C35.4477153,31 35,30.5522847 35,30 C35,29.4477153 35.4477153,29 36,29 L38,29 C38.5522847,29 39,29.4477153 39,30 C39,30.5522847 38.5522847,31 38,31 L36,31 Z M23,38 C22.4477153,38 22,37.5522847 22,37 C22,36.4477153 22.4477153,36 23,36 L32,36 C32.5522847,36 33,36.4477153 33,37 C33,37.5522847 32.5522847,38 32,38 L23,38 Z M36,38 C35.4477153,38 35,37.5522847 35,37 C35,36.4477153 35.4477153,36 36,36 L38,36 C38.5522847,36 39,36.4477153 39,37 C39,37.5522847 38.5522847,38 38,38 L36,38 Z"/>
    <path fill-opacity=".2" d="M46.9571743,44 L46.9571743,46 C46.9571743,47.6568542 45.6140286,49 43.9571743,49 L21,49 L21.0428257,47 C21.5951104,47 22.0428257,46.5522847 22.0428257,46 L22.0428257,44 L22.0428257,44 C22.0428257,42.8954305 22.9382562,42 24.0428257,42 L44.9571743,42 L44.9571743,42 C46.0617438,42 46.9571743,42.8954305 46.9571743,44 Z"/>
  </g>
</svg>
