<svg xmlns="http://www.w3.org/2000/svg" width="24" height="24" viewBox="0 0 24 24">
  <path fill="#000000" d="M12,13.5857864 L14.2928932,11.2928932 C14.6834175,10.9023689 15.3165825,10.9023689 15.7071068,11.2928932 C16.0976311,11.6834175 16.0976311,12.3165825 15.7071068,12.7071068 L13.4142136,15 L15.7071068,17.2928932 C16.0976311,17.6834175 16.0976311,18.3165825 15.7071068,18.7071068 C15.3165825,19.0976311 14.6834175,19.0976311 14.2928932,18.7071068 L12,16.4142136 L9.70710678,18.7071068 C9.31658249,19.0976311 8.68341751,19.0976311 8.29289322,18.7071068 C7.90236893,18.3165825 7.90236893,17.6834175 8.29289322,17.2928932 L10.5857864,15 L8.29289322,12.7071068 C7.90236893,12.3165825 7.90236893,11.6834175 8.29289322,11.2928932 C8.68341751,10.9023689 9.31658249,10.9023689 9.70710678,11.2928932 L12,13.5857864 Z M15,4.41421356 L15,7 L17.5857864,7 L15,4.41421356 Z M19,9 L14,9 C13.4477153,9 13,8.55228475 13,8 L13,3 L6,3 C5.44771525,3 5,3.44771525 5,4 L5,20 C5,20.5522847 5.44771525,21 6,21 L18,21 C18.5522847,21 19,20.5522847 19,20 L19,9 Z M14,1 C14.2652165,1 14.5195704,1.10535684 14.7071068,1.29289322 L20.7071068,7.29289322 C20.8946432,7.4804296 21,7.73478351 21,8 L21,20 C21,21.6568542 19.6568542,23 18,23 L6,23 C4.34314575,23 3,21.6568542 3,20 L3,4 C3,2.34314575 4.34314575,1 6,1 L14,1 Z"/>
</svg>
