<svg xmlns="http://www.w3.org/2000/svg" width="64" height="64" viewBox="0 0 64 64">
  <g fill="none" fill-rule="evenodd">
    <rect width="34" height="10" x="15" y="19" fill="#DEDEDE" rx="2" transform="matrix(1 0 0 -1 0 48)"/>
    <path fill="#DEDEDE" d="M39,36 C39,33.790861 37.209139,32 35,32 C33.8053075,32 32.7329445,32.5237549 32,33.3541756 C31.2670555,32.5237549 30.1946925,32 29,32 C26.790861,32 25,33.790861 25,36 C25,37.3193669 26.8725972,39.7696611 30.6177915,43.3508827 L30.6177986,43.3508753 C31.3909754,44.0902007 32.6090397,44.0902006 33.3822164,43.3508751 C37.1274055,39.7696576 39,37.3193659 39,36 Z"/>
    <path fill="#625D58" fill-rule="nonzero" d="M27.4668727,19 C22.452906,16.6243386 20.8654584,14.0909499 23.4815346,11.4748737 C25.0584949,9.89791337 26.8992173,9.94280904 28.5196704,11.5632621 C29.8363704,12.8799621 31.1123417,15.2961852 32.4022373,18.8448711 C35.1702007,11.2470258 38.1859342,8.34709939 41.3203693,11.4815346 C42.8973297,13.0584949 42.852434,14.8992173 41.231981,16.5196704 C40.3933901,17.3582612 39.1088033,18.1803314 37.3697109,19 L47,19 C48.1045695,19 49,19.8954305 49,21 L49,27 C49,28.1045695 48.1045695,29 47,29 L47,47 C47,48.1045695 46.1045695,49 45,49 L19,49 C17.8954305,49 17,48.1045695 17,47 L17,29 C15.8954305,29 15,28.1045695 15,27 L15,21 C15,19.8954305 15.8954305,19 17,19 L27.4668727,19 Z M19,29 L19,47 L45,47 L45,29 L19,29 Z M17,21 L17,27 L47,27 L47,21 L17,21 Z M39.8177674,15.1054568 C40.6721881,14.2510361 40.686218,13.6758104 39.9061558,12.8957481 C38.5543924,11.5439847 36.9189987,12.8791717 34.9040886,17.8941662 C37.2985166,16.9204153 38.9425244,15.9806999 39.8177674,15.1054568 Z M27.1054568,12.9774756 C26.2510361,12.123055 25.6758104,12.1090251 24.8957481,12.8890873 C23.5439847,14.2408507 24.8791717,15.8762444 29.8941662,17.8911545 C28.9204153,15.4967264 27.9806999,13.8527187 27.1054568,12.9774756 Z M32,33.3541756 L32.7493631,32.6927741 C33.3905406,32.2555936 34.1654218,32 35,32 C37.209139,32 39,33.790861 39,36 C39,37.3193659 37.1274055,39.7696576 33.3822164,43.3508751 C32.6090397,44.0902006 31.3909754,44.0902007 30.6177986,43.3508753 C26.8725972,39.7696611 25,37.3193669 25,36 C25,33.790861 26.790861,32 29,32 C29.8345782,32 30.6094594,32.2555936 31.2506369,32.6927741 L32,33.3541756 Z M37,36 C37,34.8954305 36.1045695,34 35,34 C34.416858,34 33.8784334,34.2482892 33.4994784,34.6776425 L32,36.3765405 L30.5005216,34.6776425 C30.1215666,34.2482892 29.583142,34 29,34 C27.8954305,34 27,34.8954305 27,36 C27,36.5232427 28.7061319,38.7557171 31.9999936,41.9053663 C35.2938708,38.7557137 37,36.523242 37,36 Z"/>
  </g>
</svg>
