<svg xmlns="http://www.w3.org/2000/svg" width="64" height="64" viewBox="0 0 64 64">
  <g fill="#625D58" fill-rule="evenodd">
    <path fill-opacity=".2" d="M15,23 L18,23 L18,23 C19.1045695,23 20,23.8954305 20,25 L20,27 L20,27 C20,28.1045695 19.1045695,29 18,29 L15,29 L15,29 C13.8954305,29 13,28.1045695 13,27 L13,25 L13,25 C13,23.8954305 13.8954305,23 15,23 Z"/>
    <path fill-opacity=".2" d="M13.5,43 L35.5,43 L35.5,43 C36.3284271,43 37,43.6715729 37,44.5 L37,44.5 L37,44.5 C37,45.3284271 36.3284271,46 35.5,46 L13.5,46 L13.5,46 C12.6715729,46 12,45.3284271 12,44.5 L12,44.5 L12,44.5 C12,43.6715729 12.6715729,43 13.5,43 Z" transform="matrix(1 0 0 -1 0 89)"/>
    <path fill-rule="nonzero" d="M14 19L35 19C38.3137085 19 41 21.6862915 41 25L41 35C41 38.3137085 38.3137085 41 35 41L14 41C10.6862915 41 8 38.3137085 8 35L8 25C8 21.6862915 10.6862915 19 14 19zM14 21C11.790861 21 10 22.790861 10 25L10 35C10 37.209139 11.790861 39 14 39L35 39C37.209139 39 39 37.209139 39 35L39 25C39 22.790861 37.209139 21 35 21L14 21zM15 23L18 23C19.1045695 23 20 23.8954305 20 25L20 27C20 28.1045695 19.1045695 29 18 29L15 29C13.8954305 29 13 28.1045695 13 27L13 25C13 23.8954305 13.8954305 23 15 23zM15 25L15 27 18 27 18 25 15 25zM14 33C13.4477153 33 13 32.5522847 13 32 13 31.4477153 13.4477153 31 14 31L17 31C17.5522847 31 18 31.4477153 18 32 18 32.5522847 17.5522847 33 17 33L14 33zM20 33C19.4477153 33 19 32.5522847 19 32 19 31.4477153 19.4477153 31 20 31L23 31C23.5522847 31 24 31.4477153 24 32 24 32.5522847 23.5522847 33 23 33L20 33zM14 36C13.4477153 36 13 35.5522847 13 35 13 34.4477153 13.4477153 34 14 34L20 34C20.5522847 34 21 34.4477153 21 35 21 35.5522847 20.5522847 36 20 36L14 36zM23 36C22.4477153 36 22 35.5522847 22 35 22 34.4477153 22.4477153 34 23 34L29 34C29.5522847 34 30 34.4477153 30 35 30 35.5522847 29.5522847 36 29 36L23 36zM26 33C25.4477153 33 25 32.5522847 25 32 25 31.4477153 25.4477153 31 26 31L29 31C29.5522847 31 30 31.4477153 30 32 30 32.5522847 29.5522847 33 29 33L26 33zM32 33C31.4477153 33 31 32.5522847 31 32 31 31.4477153 31.4477153 31 32 31L35 31C35.5522847 31 36 31.4477153 36 32 36 32.5522847 35.5522847 33 35 33L32 33zM32 36C31.4477153 36 31 35.5522847 31 35 31 34.4477153 31.4477153 34 32 34L35 34C35.5522847 34 36 34.4477153 36 35 36 35.5522847 35.5522847 36 35 36L32 36zM53.9965772 41.0737564L53.9857957 41.2746093 53.9862349 41.1423335C53.990751 41.1193728 53.9942041 41.0965073 53.9965772 41.0737564zM44.9878006 41.0606849L44.999989 41.2878907 45.0004843 41.1387017C44.9949077 41.1125759 44.9906718 41.0865612 44.9878006 41.0606849zM53.999989 37L56 37 55.9857847 41.28125C55.7627974 43.4189931 52.9442385 45.109375 49.5 45.109375 46.0557615 45.109375 43.2372026 43.4189931 43 41.28125L43.0142153 37 45.0142155 37 45.0004843 41.1387017C45.1962169 42.0556852 47.0435274 43.109375 49.5 43.109375 51.9627899 43.109375 53.8074575 42.0512724 53.9862349 41.1423335L53.999989 37zM44.9878006 41.0606849L44.999989 41.2878907 45.0004843 41.1387017C44.9949077 41.1125759 44.9906718 41.0865612 44.9878006 41.0606849zM53.9965772 41.0737564L53.9857957 41.2746093 53.9862349 41.1423335C53.990751 41.1193728 53.9942041 41.0965073 53.9965772 41.0737564zM43.0130094 33.3631813C43.0043799 33.2766753 43 33.1894417 43 33.1015625 43 30.8363321 45.9101491 29 49.5 29 53.0360449 29 55.9126106 30.7816974 55.9980462 33L56 33 55.9997768 33.0672145C55.9999255 33.0786527 56 33.0901021 56 33.1015625 56 33.1188845 55.9998298 33.1361815 55.9994905 33.1534527L55.9867185 37 56 37 55.9857847 41.28125C55.7627974 43.4189931 52.9442385 45.109375 49.5 45.109375 46.0557615 45.109375 43.2372026 43.4189931 43 41.28125L43.012951 37.3807824C43.008013 37.3477165 43.0036936 37.3145375 43 37.28125L43.0130094 33.3631813zM45.0040509 36.0637184L45.0009445 37 45.0142155 37 45.0135796 37.1916697C45.2673876 38.0957637 47.0906979 39.109375 49.5 39.109375 51.9627899 39.109375 53.8074575 38.0512724 53.9862349 37.1423335L53.989804 36.0674284C52.8228852 36.7710064 51.241415 37.203125 49.5 37.203125 47.7555263 37.203125 46.1715597 36.7694871 45.0040509 36.0637184zM47.0368327 40.8046969C46.2769908 40.6082953 45.5889309 40.3237685 45.0043576 39.9712677L45.0004843 41.1387017C45.1962169 42.0556852 47.0435274 43.109375 49.5 43.109375 51.9627899 43.109375 53.8074575 42.0512724 53.9862349 41.1423335L53.9901159 39.9734903C53.4066414 40.3253349 52.719505 40.609306 51.9605409 40.8053161 51.2015768 41.0013261 50.3707851 41.109375 49.5 41.109375 48.6282985 41.109375 47.7966746 41.0010986 47.0368327 40.8046969zM49.5 35.203125C52.1239173 35.203125 54 34.0192988 54 33.1015625 54 32.1838262 52.1239173 31 49.5 31 46.8760827 31 45 32.1838262 45 33.1015625 45 34.0192988 46.8760827 35.203125 49.5 35.203125z"/>
    <polygon fill-opacity=".2" points="44 34 49.5 36.5 55 34 55 43 49.5 44 44 43"/>
  </g>
</svg>
