<svg xmlns="http://www.w3.org/2000/svg" width="64" height="64" viewBox="0 0 64 64">
  <g fill="#625D58" fill-rule="evenodd">
    <polygon fill-opacity=".2" points="13 20 38 20 38 27 30 27 29 29 29 49 20 49 15.5 46.5 13 41.5"/>
    <path fill-opacity=".2" d="M28,32 L50.999988,32 L50.999988,51.9997776 L50.999988,51.9997776 C50.999988,53.1043471 50.1045575,53.9997776 48.999988,53.9997776 L32,53.9997776 L32,53.9997776 C29.790861,53.9997776 28,52.2089166 28,49.9997776 L28,32 Z"/>
    <path fill-rule="nonzero" d="M37,27 L37,13 L19,13 L19,11 L37,11 C38.1045695,11 39,11.8954305 39,13 C39,17.4643466 39,24.79768 39,27 L37,27 Z M29,48 L29,50 L20,50 C16.1340068,50 13,46.8659932 13,43 L13,16 L15,16 L15,43 C15,45.7614237 17.2385763,48 20,48 L29,48 Z M50.4142136,26.5857864 C50.7761424,26.9477153 51,27.4477153 51,28 L51,52 C51,53.1045695 50.1045695,54 49,54 L32,54 C29.790861,54 28,52.209139 28,50 L28,30 C28,29.9132034 28.0027645,29.8270525 28.0082103,29.7416306 C28.0027665,29.6617926 28,29.5812194 28,29.5 C28,27.5670034 29.5670034,26 31.5,26 L49,26 C49.5522847,26 50.0522847,26.2238576 50.4142136,26.5857864 Z M31.5,33 C30.9632014,33 30.4546277,32.8791545 30,32.6631844 L30,50 C30,51.1045695 30.8954305,52 32,52 L49,52 L49,33 L31.5,33 Z M39.0277564,16 C39.0277564,16.0809222 39.0181444,16.1595993 39,16.2349521 L39,19 C39,20.1045695 38.1045695,21 37,21 L18,21 C15.2385763,21 13,18.7614237 13,16 C13,13.2385763 15.2385763,11 18,11 L37,11 C38.1045695,11 39,11.8954305 39,13 L39,15.7650479 C39.0181444,15.8404007 39.0277564,15.9190778 39.0277564,16 Z M37,15 L37,13 L18,13 C16.3431458,13 15,14.3431458 15,16 C15,17.6568542 16.3431458,19 18,19 L37,19 L37,17 L19,17 C18.4477153,17 18,16.5522847 18,16 C18,15.4477153 18.4477153,15 19,15 L37,15 Z M31.5,28 C30.6715729,28 30,28.6715729 30,29.5 C30,30.3284271 30.6715729,31 31.5,31 L49,31 L49,28 L31.5,28 Z"/>
  </g>
</svg>
