<svg xmlns="http://www.w3.org/2000/svg" width="64" height="64" viewBox="0 0 64 64">
  <g fill="#625D58" fill-rule="evenodd">
    <path d="M49,35.999019 C50.0729708,35.9968053 51,36.8670839 51,38 L51,41 C51,41.9177353 50.3754053,42.7177015 49.4850713,42.940285 L49,43.0615528 L49,46 C49,46.9665723 48.3087523,47.7948341 47.3577709,47.9677398 L36.3577709,49.9677398 C36.2372477,49.9896531 36.1176651,50.0003255 35.9999999,50.0005722 C35.9996908,51.1048787 35.1043788,52 34,52 L31,52 C29.8956212,52 29.0003092,51.1048787 29.0000001,50.0005722 C28.8823349,50.0003255 28.7627523,49.9896531 28.6422291,49.9677398 L17.6422291,47.9677398 C16.6912477,47.7948341 16,46.9665723 16,46 L16,43.0615528 L15.5149287,42.940285 C14.6245947,42.7177015 14,41.9177353 14,41 L14,38 C14,36.8670839 14.9270292,35.9968053 16,35.999019 L16,29 C16,27.7521919 17.13009,26.8090455 18.3577709,27.0322602 L22,27.6944837 L22,23 C22,18.0294373 26.0294373,14 31,14 L34,14 C38.9705627,14 43,18.0294373 43,23 L43,27.6944837 L46.6422291,27.0322602 C47.86991,26.8090455 49,27.7521919 49,29 L49,35.999019 Z M47,36.4384472 L47,29 L36,31 L36,48 L47,46 L47,43.5615528 L46.7276069,43.6296511 C46.4896451,43.6891415 46.2452854,43.7192236 46,43.7192236 C44.3431458,43.7192236 43,42.3760778 43,40.7192236 L43,39.7807764 C43,38.4041735 43.9368921,37.2042242 45.2723931,36.8703489 L47,36.4384472 Z M18,43.5615528 L18,46 L29,48 L29,31 L18,29 L18,36.4384472 L19.7276069,36.8703489 C21.0631079,37.2042242 22,38.4041735 22,39.7807764 L22,40.7192236 C22,42.3760778 20.6568542,43.7192236 19,43.7192236 C18.7547146,43.7192236 18.5103549,43.6891415 18.2723931,43.6296511 L18,43.5615528 Z M38,28.6035746 L38,24.5 L30,21 L27,25 L27,28.6035746 L29.3577709,29.0322602 C30.3087523,29.2051659 31,30.0334277 31,31 L34,31 C34,30.0334277 34.6912477,29.2051659 35.6422291,29.0322602 L38,28.6035746 Z M41,28.05812 L41,23 C41,19.1340068 37.8659932,16 34,16 L31,16 C27.1340068,16 24,19.1340068 24,23 L24,28.05812 L25,28.2399382 L25,25 C25,24.5672596 25.1403557,24.1461923 25.4,23.8 L28.4,19.8 C28.9568618,19.0575176 29.9513493,18.7956842 30.8016377,19.1676853 L38.8016377,22.6676853 C39.5296123,22.9861742 40,23.7054043 40,24.5 L40,28.2399382 L41,28.05812 Z M30,28 C29.4477153,28 29,27.5522847 29,27 C29,26.4477153 29.4477153,26 30,26 C30.5522847,26 31,26.4477153 31,27 C31,27.5522847 30.5522847,28 30,28 Z M35,28 C34.4477153,28 34,27.5522847 34,27 C34,26.4477153 34.4477153,26 35,26 C35.5522847,26 36,26.4477153 36,27 C36,27.5522847 35.5522847,28 35,28 Z M31,33 L31,50 L34,50 L34,33 L31,33 Z M16,38 L16,41 L18.7574644,41.6893661 C18.836785,41.7091962 18.9182382,41.7192236 19,41.7192236 C19.5522847,41.7192236 20,41.2715083 20,40.7192236 L20,39.7807764 C20,39.3219088 19.6877026,38.9219257 19.2425356,38.8106339 L16,38 Z M49,38 L45.7574644,38.8106339 C45.3122974,38.9219257 45,39.3219088 45,39.7807764 L45,40.7192236 C45,41.2715083 45.4477153,41.7192236 46,41.7192236 C46.0817618,41.7192236 46.163215,41.7091962 46.2425356,41.6893661 L49,41 L49,38 Z"/>
    <path fill-opacity=".2" d="M45,38 L48.2425356,38.8106339 L48.2425356,38.8106339 C48.6877026,38.9219257 49,39.3219088 49,39.7807764 L49,40.7192236 L49,40.7192236 C49,41.2715083 48.5522847,41.7192236 48,41.7192236 C47.9182382,41.7192236 47.836785,41.7091962 47.7574644,41.6893661 L45,41 L45,38 Z" transform="matrix(-1 0 0 1 94 0)"/>
    <path fill-opacity=".2" d="M16,38 L19.2425356,38.8106339 L19.2425356,38.8106339 C19.6877026,38.9219257 20,39.3219088 20,39.7807764 L20,40.7192236 L20,40.7192236 C20,41.2715083 19.5522847,41.7192236 19,41.7192236 C18.9182382,41.7192236 18.836785,41.7091962 18.7574644,41.6893661 L16,41 L16,38 Z"/>
    <polygon fill-opacity=".2" points="29.5 20 26.5 24.5 26 29 29.5 30 30 32 35 32 35.5 30 39 29.5 39 24"/>
  </g>
</svg>
