<svg xmlns="http://www.w3.org/2000/svg" width="64" height="64" viewBox="0 0 64 64">
  <g fill="#625D58" fill-rule="evenodd">
    <polygon fill-opacity=".2" points="17 18 47 18 47 31 34 31 30.5 29 30 31 17 31"/>
    <path fill-rule="nonzero" d="M38.4841857,33 L41.7349465,35.5782165 C42.8409696,36.4554165 42.7146773,38.1714294 41.4921491,38.8772564 L40.0836483,39.6904547 L42.1477777,43.2656316 C42.7000624,44.2222169 42.3723121,45.4453977 41.4157269,45.9976825 L39.8993761,46.873148 C38.9427908,47.4254327 37.71961,47.0976824 37.1673253,46.1410972 L35.1031959,42.5659202 L33.6946951,43.3791185 C32.4721669,44.0849455 30.9229099,43.3363115 30.7162441,41.9398673 L29.3931941,33 L17,33 C15.8954305,33 15,32.1045695 15,31 L15,18 C15,16.8954305 15.8954305,16 17,16 L47,16 C48.1045695,16 49,16.8954305 49,18 L49,31 C49,32.1045695 48.1045695,33 47,33 L38.4841857,33 Z M35.9624729,31 L47,31 L47,18 L17,18 L17,31 L29.0972054,31 L28.9244451,29.8326561 C28.6590385,28.0393 30.7253049,26.8463406 32.1456935,27.9728674 L35.9624729,31 Z M37.3515975,38.9584039 L40.4921491,37.1452056 L30.9028961,29.5398565 L32.6946951,41.6470677 L35.8352467,39.8338694 L38.8993761,45.1410972 L40.4157269,44.2656316 L37.3515975,38.9584039 Z"/>
  </g>
</svg>
