<svg xmlns="http://www.w3.org/2000/svg" width="64" height="64" viewBox="0 0 64 64">
  <g fill="#625D58" fill-rule="evenodd">
    <rect width="10" height="10" x="24" y="36" fill-opacity=".2" transform="matrix(-1 0 0 1 58 0)"/>
    <path fill-rule="nonzero" d="M21.0580036,18 C21.5573766,13.2579455 25.1901324,13 28.403358,13 C31.631187,13 35.2490095,13.2332088 35.7438528,18 L40,18 C41.1045695,18 42,18.8954305 42,20 L42,48 L16,48 L16,20 C16,18.8954305 16.8954305,18 18,18 L21.0580036,18 Z M21.0322412,20 L18,20 L18,46 L40,46 L40,20 L35.7693205,20 C35.365799,25.1061417 31.1989037,25.3395629 28.403358,25.3395629 C25.6093198,25.3395629 21.4392259,25.064146 21.0322412,20 Z M32.9149212,19.6692635 L34.0022608,18.5815756 L32.8093914,17.388358 C31.4904436,16.0171677 30.5048026,15.126608 28.3750519,17.3692024 C27.4350361,16.3856512 26.0018514,14.3311296 23,18.5791377 L28.5025235,24.0816612 L29.5902114,22.9939733 L29.5902114,22.993625 L25.0148173,18.4185792 C26.0227484,17.1887918 26.5831358,17.7498758 27.1626787,18.3294187 L30.7085482,21.8756365 L31.7965844,20.7876003 L29.4240804,18.4154446 C30.508982,17.1577946 31.0422033,17.7965457 31.5945802,18.3489226 L32.9149212,19.6692635 Z M30,48 L30,48.0356688 L28,48.0356688 L28,48 L24,48 C22.8954305,48 22,47.1045695 22,46 L22,36 C22,34.8954305 22.8954305,34 24,34 L34,34 C35.1045695,34 36,34.8954305 36,36 L36,46 C36,47.1045695 35.1045695,48 34,48 L30,48 Z M28,36 L24,36 L24,46 L28,46 L28,36 Z M30,36 L30,46 L34,46 L34,36 L30,36 Z M12,32 L18,32 L18,48 L10,48 L10,34 C10,32.8954305 10.8954305,32 12,32 Z M16,46 L16,34 L12,34 L12,46 L16,46 Z M42,34 L53,34 C54.1045695,34 55,34.8954305 55,36 L55,48 L40,48 L40,36 C40,34.8954305 40.8954305,34 42,34 Z M53,36 L42,36 L42,46 L53,46 L53,36 Z"/>
  </g>
</svg>
