<svg xmlns="http://www.w3.org/2000/svg" width="24" height="24" viewBox="0 0 24 24">
  <path fill="#979797" d="M12,22.6694174 L5.87132034,16.5407377 C2.48654403,13.1559614 2.48654403,7.66815472 5.87132034,4.28337841 C9.25609665,0.898602102 14.7439033,0.898602102 18.1286797,4.28337841 C21.513456,7.66815472 21.513456,13.1559614 18.1286797,16.5407377 L12,22.6694174 Z M16.7144661,15.1265242 C19.3181938,12.5227964 19.3181938,8.3013197 16.7144661,5.69759198 C14.1107384,3.09386425 9.88926163,3.09386425 7.28553391,5.69759198 C4.68180618,8.3013197 4.68180618,12.5227964 7.28553391,15.1265242 L12,19.8409903 L16.7144661,15.1265242 Z M12,13.8304192 C9.790861,13.8304192 8,12.0395582 8,9.83041924 C8,7.62128024 9.790861,5.83041924 12,5.83041924 C14.209139,5.83041924 16,7.62128024 16,9.83041924 C16,12.0395582 14.209139,13.8304192 12,13.8304192 Z M12,11.8304192 C13.1045695,11.8304192 14,10.9349887 14,9.83041924 C14,8.72584974 13.1045695,7.83041924 12,7.83041924 C10.8954305,7.83041924 10,8.72584974 10,9.83041924 C10,10.9349887 10.8954305,11.8304192 12,11.8304192 Z"/>
</svg>
