<svg xmlns="http://www.w3.org/2000/svg" width="64" height="64" viewBox="0 0 64 64">
<g fill="#625D58" fill-rule="evenodd">
    <path fill-rule="nonzero" class="st0" d="M35.9,25.3h-27c-2.2,0-4,1.8-4,4v27c0,2.2,1.8,4,4,4h27c2.2,0,4-1.8,4-4v-27C39.9,27.1,38.1,25.3,35.9,25.3z
    	 M37.4,56.3c0,0.8-0.7,1.5-1.5,1.5h-27c-0.8,0-1.5-0.7-1.5-1.5v-27c0-0.8,0.7-1.5,1.5-1.5h27c0.8,0,1.5,0.7,1.5,1.5V56.3z
    	 M56.1,11.2L30.2,3.9c-2.1-0.6-4.3,0.6-4.9,2.8l-4.6,16.5h2.6l4.5-15.8c0.2-0.8,1.1-1.3,1.9-1l25.9,7.3c0.8,0.2,1.3,1.1,1,1.9
    	l-7.3,25.9c-0.2,0.8-1.1,1.3-1.9,1l-5.2-1.5v2.6l4.5,1.3c2.1,0.6,4.3-0.6,4.9-2.8l7.3-25.9C59.5,14,58.3,11.8,56.1,11.2z"/>
    <path fill-opacity=".2" class="st1" d="M14.8,46.6c-2,0-3.7,1.7-3.7,3.7s1.7,3.7,3.7,3.7c2,0,3.7-1.7,3.7-3.7S16.8,46.6,14.8,46.6z M22.6,38.7
    	c-2,0-3.7,1.7-3.7,3.7s1.7,3.7,3.7,3.7s3.7-1.7,3.7-3.7S24.7,38.7,22.6,38.7z M30.4,30.9c-2,0-3.7,1.7-3.7,3.7c0,2,1.7,3.7,3.7,3.7
    	c2,0,3.7-1.7,3.7-3.7C34.1,32.6,32.4,30.9,30.4,30.9z M33.7,10.8c-2,0-3.7,1.7-3.7,3.7s1.7,3.7,3.7,3.7c2,0,3.7-1.7,3.7-3.7
    	S35.7,10.8,33.7,10.8z M48.5,14.5c-2,0-3.7,1.7-3.7,3.7s1.7,3.7,3.7,3.7c2,0,3.7-1.7,3.7-3.7S50.5,14.5,48.5,14.5z M44.8,29.7
    	c-1,0-1.9,0.4-2.6,1.1v5.3c0.7,0.7,1.6,1.1,2.6,1.1c2,0,3.7-1.7,3.7-3.7S46.8,29.7,44.8,29.7z"/>
</g>
</svg>
