<svg xmlns="http://www.w3.org/2000/svg" width="64" height="64" viewBox="0 0 64 64">
	<g fill="#625D58" fill-rule="evenodd">
<path fill-opacity=".2" d="M31.1,11c-0.6,0-1.3,0.2-1.8,0.8l-9.8,9.8H8.3c-1.5,0-2.6,1.2-2.6,2.6v15.8c0,1.5,1.2,2.6,2.6,2.6h11.2l9.8,9.8
	c0.5,0.5,1.2,0.8,1.8,0.8c1.4,0,2.7-1,2.7-2.6V13.6C33.7,12,32.4,11,31.1,11z M41.9,25.2c-0.9-0.4-1.9-0.1-2.3,0.8
	c-0.4,0.9,0,1.9,0.8,2.3c1.5,0.7,2.5,2.2,2.5,3.7c0,1.5-1,2.9-2.5,3.7c-0.9,0.4-1.2,1.5-0.8,2.3c0.4,0.9,1.5,1.2,2.3,0.8
	c2.8-1.3,4.5-4,4.5-6.8S44.7,26.5,41.9,25.2z M47.2,14.7c-0.8-0.5-1.9-0.2-2.4,0.6c-0.5,0.8-0.2,1.9,0.7,2.4c4.9,2.8,8,8.3,8,14.3
	c0,6-3.1,11.5-8,14.3c-0.8,0.5-1.1,1.6-0.7,2.4c0.5,0.8,1.5,1.1,2.4,0.6c6-3.4,9.7-10.1,9.7-17.3C56.9,24.8,53.2,18.1,47.2,14.7z"/>
<path fill-rule="nonzero" d="M31.1,9.8c-1,0-1.9,0.4-2.6,1.1L19,20.3H8.3c-2.1,0-3.8,1.7-3.8,3.8v15.8c0,2.1,1.7,3.8,3.8,3.8H19l9.4,9.4
	c0.7,0.7,1.6,1.1,2.6,1.1c2.1,0,3.8-1.7,3.8-3.8V13.6C34.9,11.2,32.9,9.8,31.1,9.8z M32.6,50.4c0,0.9-0.8,1.5-1.5,1.5
	c-0.3,0-0.7-0.1-1-0.4L20,41.4H8.3c-0.8,0-1.5-0.7-1.5-1.5V24.1c0-0.8,0.7-1.5,1.5-1.5H20L30,12.5c0.4-0.4,0.8-0.4,1-0.4
	c0.7,0,1.5,0.6,1.5,1.5V50.4z M48.7,32c0-3.8-2.2-7.2-5.8-8.9c-0.5-0.3-1.1-0.4-1.7-0.4c-1.5,0-3,0.9-3.6,2.3c-1,2-0.1,4.4,1.9,5.4
	c0.8,0.4,1.2,1,1.2,1.6c0,0.7-0.5,1.3-1.2,1.6c-1,0.5-1.7,1.3-2,2.3c-0.4,1-0.3,2.1,0.2,3.1c0.7,1.4,2.1,2.3,3.6,2.3
	c0.6,0,1.2-0.1,1.7-0.4C46.5,39.2,48.7,35.8,48.7,32z M41.2,39c-0.6,0-1.3-0.4-1.6-1c-0.4-0.9,0-1.9,0.8-2.3
	c1.5-0.7,2.5-2.2,2.5-3.7c0-1.5-1-2.9-2.5-3.7c-0.9-0.4-1.2-1.5-0.8-2.3c0.3-0.6,0.9-1,1.6-1c0.3,0,0.5,0.1,0.8,0.2
	c2.8,1.3,4.5,4,4.5,6.8s-1.7,5.5-4.5,6.8C41.7,39,41.4,39,41.2,39z M48.3,12.7c-0.6-0.3-1.3-0.5-2-0.5c-1.4,0-2.8,0.8-3.5,2
	c-0.5,0.9-0.7,2-0.4,3c0.3,1,1,1.9,1.9,2.4c4.2,2.4,6.8,7.1,6.8,12.3c0,5.2-2.6,9.9-6.8,12.3c-0.9,0.5-1.6,1.4-1.9,2.4
	c-0.3,1-0.1,2.1,0.4,3c0.7,1.2,2.1,2,3.5,2c0.7,0,1.4-0.2,2-0.5C55,47.4,59.2,40.1,59.2,32C59.2,23.9,55,16.6,48.3,12.7z M47.2,49.3
	c-0.3,0.2-0.6,0.2-0.9,0.2c-0.6,0-1.2-0.3-1.5-0.9c-0.5-0.8-0.2-1.9,0.7-2.4c4.9-2.8,8-8.3,8-14.3c0-6-3.1-11.5-8-14.3
	c-0.8-0.5-1.1-1.6-0.7-2.4c0.3-0.6,0.9-0.9,1.5-0.9c0.3,0,0.6,0.1,0.9,0.2c6,3.4,9.7,10.1,9.7,17.3C56.9,39.2,53.2,45.9,47.2,49.3z"
	/>
</g>
</svg>
