<svg xmlns="http://www.w3.org/2000/svg" width="64" height="64" viewBox="0 0 64 64">
<g fill="#625D58" fill-rule="evenodd">
  <path fill-rule="nonzero" class="st1" d="M25.7,12.9c4.2,0,8.3,1.4,11.7,3.9l0.6,0.5l0.4,0l2,2.3c3.1,3.6,4.8,8.1,4.8,12.8c0,10.8-8.7,19.5-19.5,19.5
    c-10.8,0-19.5-8.7-19.5-19.5C6.2,21.7,14.9,12.9,25.7,12.9 M19,20.8c-0.2-0.1-0.4-0.2-0.6-0.4c-1-0.6-2.2-0.9-3.4-0.9
    c-2.4,0-4.6,1.3-5.8,3.4c-0.9,1.6-1.1,3.4-0.7,5.1c0.5,1.7,1.6,3.2,3.1,4.1c0.2,0.1,0.4,0.2,0.6,0.3c-0.2,0.1-0.4,0.2-0.6,0.3
    c-1.6,0.9-2.7,2.3-3.1,4.1c-0.5,1.7-0.2,3.5,0.7,5.1c1.2,2.1,3.4,3.4,5.8,3.4c1.2,0,2.3-0.3,3.4-0.9c0.2-0.1,0.4-0.2,0.6-0.4
    c0,0.2,0,0.4,0,0.7c0,3.7,3,6.7,6.7,6.7c1.8,0,3.5-0.7,4.8-2c1.3-1.3,2-3,2-4.8c0-0.2,0-0.4,0-0.7c0.2,0.1,0.4,0.2,0.6,0.4
    c1,0.6,2.2,0.9,3.4,0.9c2.4,0,4.6-1.3,5.8-3.4c0.9-1.6,1.1-3.4,0.7-5.1c-0.5-1.7-1.6-3.2-3.1-4.1c-0.2-0.1-0.4-0.2-0.6-0.3
    c0.2-0.1,0.4-0.2,0.6-0.3c1.6-0.9,2.7-2.3,3.1-4.1c0.5-1.7,0.2-3.5-0.7-5.1c-1.2-2.1-3.4-3.4-5.8-3.4c-1.2,0-2.3,0.3-3.4,0.9
    c-0.2,0.1-0.4,0.2-0.6,0.4c0-0.2,0-0.4,0-0.7c0-3.7-3-6.7-6.7-6.7c-3.7,0-6.7,3-6.7,6.7C19,20.4,19,20.6,19,20.8 M21.8,25.6
    c1.1,0.8,2.5,1.3,3.9,1.3c1.4,0,2.8-0.4,3.9-1.3c-0.1,1.4,0.1,2.8,0.9,4c0.7,1.2,1.8,2.2,3.1,2.8c-1.3,0.6-2.3,1.5-3.1,2.8
    c-0.7,1.2-1,2.6-0.9,4c-1.1-0.8-2.5-1.3-3.9-1.3c-1.5,0-2.8,0.5-3.9,1.3c0.1-1.4-0.2-2.8-0.9-4c-0.7-1.2-1.8-2.2-3.1-2.8
    c1.3-0.6,2.3-1.5,3.1-2.8C21.6,28.4,21.9,27,21.8,25.6 M25.7,37.3c2.7,0,4.9-2.2,4.9-4.9c0-2.7-2.2-4.9-4.9-4.9
    c-2.7,0-4.9,2.2-4.9,4.9C20.8,35.1,23,37.3,25.7,37.3 M25.7,10.4c-12.1,0-22,9.8-22,22c0,12.1,9.8,22,22,22c12.1,0,22-9.8,22-22
    c0-5.5-2.1-10.6-5.4-14.5c3.8,1.4,8.4,5.2,8.7,13.8c0.5,13.7,9.3,13.9,9.4,13.9l0-2.4h0c-0.1,0-6.7-0.1-7.1-11.6
    c-0.4-12.1-8.7-16.7-14.5-16.9C35.2,12.1,30.6,10.4,25.7,10.4L25.7,10.4z M25.7,24.4c-2.3,0-4.2-1.9-4.2-4.2
    c0-2.3,1.9-4.2,4.2-4.2c2.3,0,4.2,1.9,4.2,4.2C29.9,22.5,28,24.4,25.7,24.4L25.7,24.4z M15.1,30.5c-0.7,0-1.4-0.2-2.1-0.6
    c-2-1.2-2.7-3.8-1.5-5.8c0.8-1.4,2.2-2.1,3.7-2.1c0.7,0,1.4,0.2,2.1,0.6c2,1.2,2.7,3.8,1.5,5.8C17.9,29.8,16.5,30.5,15.1,30.5
    L15.1,30.5z M36.3,30.5c-1.5,0-2.9-0.8-3.7-2.1c-1.2-2-0.5-4.6,1.5-5.8c0.7-0.4,1.4-0.6,2.1-0.6c1.5,0,2.9,0.8,3.7,2.1
    c1.2,2,0.5,4.6-1.5,5.8C37.8,30.3,37,30.5,36.3,30.5L36.3,30.5z M25.7,34.8c-1.3,0-2.4-1.1-2.4-2.4c0-1.3,1.1-2.4,2.4-2.4
    c1.3,0,2.4,1.1,2.4,2.4C28.1,33.7,27,34.8,25.7,34.8L25.7,34.8z M36.3,42.8c-0.7,0-1.4-0.2-2.1-0.6c-2-1.2-2.7-3.8-1.5-5.8
    c0.8-1.4,2.2-2.1,3.7-2.1c0.7,0,1.4,0.2,2.1,0.6c2,1.2,2.7,3.8,1.5,5.8C39.2,42,37.8,42.8,36.3,42.8L36.3,42.8z M15.1,42.8
    c-1.5,0-2.9-0.8-3.7-2.1c-1.2-2-0.5-4.6,1.5-5.8c0.7-0.4,1.4-0.6,2.1-0.6c1.5,0,2.9,0.8,3.7,2.1c1.2,2,0.5,4.6-1.5,5.8
    C16.5,42.6,15.8,42.8,15.1,42.8L15.1,42.8z M25.7,48.9c-2.3,0-4.2-1.9-4.2-4.2c0-2.3,1.9-4.2,4.2-4.2c2.3,0,4.2,1.9,4.2,4.2
    C29.9,47,28,48.9,25.7,48.9L25.7,48.9z"/>
    <path fill-opacity=".2" class="st1" d="M25.7,15.9c-2.3,0-4.2,1.9-4.2,4.2c0,2.3,1.9,4.2,4.2,4.2c2.3,0,4.2-1.9,4.2-4.2C29.9,17.8,28,15.9,25.7,15.9z
  		 M36.3,30.5c2.3,0,4.2-1.9,4.2-4.2c0-2.3-1.9-4.2-4.2-4.2c-2.3,0-4.2,1.9-4.2,4.2C32.1,28.6,34,30.5,36.3,30.5z M36.3,34.3
  		c-2.3,0-4.2,1.9-4.2,4.2c0,2.3,1.9,4.2,4.2,4.2c2.3,0,4.2-1.9,4.2-4.2C40.5,36.2,38.6,34.3,36.3,34.3z M25.7,40.5
  		c-2.3,0-4.2,1.9-4.2,4.2c0,2.3,1.9,4.2,4.2,4.2c2.3,0,4.2-1.9,4.2-4.2C29.9,42.3,28,40.5,25.7,40.5z M15.1,34.3
  		c-2.3,0-4.2,1.9-4.2,4.2c0,2.3,1.9,4.2,4.2,4.2c2.3,0,4.2-1.9,4.2-4.2C19.3,36.2,17.4,34.3,15.1,34.3z M15.1,22.1
  		c-2.3,0-4.2,1.9-4.2,4.2c0,2.3,1.9,4.2,4.2,4.2c2.3,0,4.2-1.9,4.2-4.2C19.3,24,17.4,22.1,15.1,22.1z"/>
</g>
</svg>
