<svg xmlns="http://www.w3.org/2000/svg" width="24" height="24" viewBox="0 0 24 24">
  <path fill="#000000" d="M15.2379751,13.5 L14.3598407,14.2317787 C13.9355638,14.5853428 13.8782397,15.2159075 14.2318038,15.6401844 C14.5853679,16.0644613 15.2159326,16.1217854 15.6402095,15.7682213 L18.6402095,13.2682213 C19.1199636,12.8684262 19.1199636,12.1315738 18.6402095,11.7317787 L15.6402095,9.23177872 C15.2159326,8.87821464 14.5853679,8.9355387 14.2318038,9.3598156 C13.8782397,9.7840925 13.9355638,10.4146572 14.3598407,10.7682213 L15.2379751,11.5 L10.2727273,11.5 C8.18910753,11.5 6.5,9.81089247 6.5,7.72727273 C6.5,7.17498798 6.05228475,6.72727273 5.5,6.72727273 C4.94771525,6.72727273 4.5,7.17498798 4.5,7.72727273 C4.5,10.915462 7.08453804,13.5 10.2727273,13.5 L15.2379751,13.5 Z"/>
</svg>
