<svg xmlns="http://www.w3.org/2000/svg" width="24" height="24" viewBox="0 0 24 24">
  <path fill="#000000" d="M11.1715729,16 L19,16 C19.5522847,16 20,15.5522847 20,15 L20,6 C20,5.44771525 19.5522847,5 19,5 L5,5 C4.44771525,5 4,5.44771525 4,6 L4,15 C4,15.5522847 4.44771525,16 5,16 L9,16 L9,18.1715729 L11.1715729,16 Z M10.7620499,9.5 L11.6401844,8.76822128 C12.0644613,8.4146572 12.1217854,7.7840925 11.7682213,7.3598156 C11.4146572,6.9355387 10.7840925,6.87821464 10.3598156,7.23177872 L7.3598156,9.73177872 C6.88006147,10.1315738 6.88006147,10.8684262 7.3598156,11.2682213 L10.3598156,13.7682213 C10.7840925,14.1217854 11.4146572,14.0644613 11.7682213,13.6401844 C12.1217854,13.2159075 12.0644613,12.5853428 11.6401844,12.2317787 L10.7620499,11.5 L14,11.5 C14.8284271,11.5 15.5,12.1715729 15.5,13 C15.5,13.5522847 15.9477153,14 16.5,14 C17.0522847,14 17.5,13.5522847 17.5,13 C17.5,11.0670034 15.9329966,9.5 14,9.5 L10.7620499,9.5 Z M12,18 L8.70710678,21.2928932 C8.31658249,21.6834175 7.68341751,21.6834175 7.29289322,21.2928932 C7.10535684,21.1053568 7,20.8510029 7,20.5857864 L7,18 L5,18 C3.34314575,18 2,16.6568542 2,15 L2,6 C2,4.34314575 3.34314575,3 5,3 L19,3 C20.6568542,3 22,4.34314575 22,6 L22,15 C22,16.6568542 20.6568542,18 19,18 L12,18 Z"/>
</svg>
