<svg xmlns="http://www.w3.org/2000/svg" width="24" height="24" viewBox="0 0 24 24">
  <path fill="#000000" d="M10.9884178,10.5872519 L10.9469362,11.0270033 C10.9445337,11.052472 10.9433192,11.0782599 10.9433192,11.1043469 L10.9433192,17.6066486 C10.9433192,17.8337201 11.0206,18.0540306 11.1624504,18.2313437 L12.525154,19.9347232 C12.5351838,19.9375467 12.5418829,16.994088 12.5452512,11.1043469 C12.5452512,11.0782599 12.5440367,11.052472 12.5416342,11.0270033 L12.5001526,10.5872519 L18.4885634,4 L5.00000705,4 L10.9884178,10.5872519 Z M8.94331924,11.3108572 L3.52012691,5.34534559 C2.77711306,4.52803035 2.83734623,3.2631337 3.65466147,2.52011985 C4.0228054,2.18544355 4.50247496,2 5.00000705,2 L18.4885634,2 C19.5931329,2 20.4885634,2.8954305 20.4885634,4 C20.4885634,4.49753209 20.3031198,4.97720166 19.9684435,5.34534559 L14.5452512,11.3108572 L14.5452512,19.9276735 C14.5452512,21.0384755 13.6447682,21.9389585 12.5339662,21.9389585 C11.9229705,21.9389585 11.3451024,21.6612207 10.9634164,21.1841133 L9.60071281,19.4807338 C9.1751615,18.9487946 8.94331924,18.2878631 8.94331924,17.6066486 L8.94331924,11.3108572 Z"/>
</svg>
