<svg xmlns="http://www.w3.org/2000/svg" width="24" height="24" viewBox="0 0 24 24">
  <path fill="#000000" d="M12,23 C5.92486775,23 1,18.0751322 1,12 C1,5.92486775 5.92486775,1 12,1 C18.0751322,1 23,5.92486775 23,12 C23,18.0751322 18.0751322,23 12,23 Z M12,21 C16.9705627,21 21,16.9705627 21,12 C21,7.02943725 16.9705627,3 12,3 C7.02943725,3 3,7.02943725 3,12 C3,16.9705627 7.02943725,21 12,21 Z M8.5,10 C7.67157288,10 7,9.32842712 7,8.5 C7,7.67157288 7.67157288,7 8.5,7 C9.32842712,7 10,7.67157288 10,8.5 C10,9.32842712 9.32842712,10 8.5,10 Z M15.5,10 C14.6715729,10 14,9.32842712 14,8.5 C14,7.67157288 14.6715729,7 15.5,7 C16.3284271,7 17,7.67157288 17,8.5 C17,9.32842712 16.3284271,10 15.5,10 Z M7.07626706,16.2883221 C7.34445155,15.6415679 7.73806564,15.0545721 8.23224351,14.5603943 C9.2244168,13.568221 10.5684605,12.9997384 12,12.9997384 C13.4315395,12.9997384 14.7755832,13.568221 15.7677565,14.5603943 C16.2619344,15.0545721 16.6555484,15.6415679 16.9237329,16.2883221 C17.1352785,16.7984857 16.8932008,17.3835466 16.3830371,17.5950922 C15.8728735,17.8066377 15.2878126,17.56456 15.0762671,17.0543964 C14.9089666,16.6509343 14.662878,16.2839429 14.3535429,15.9746078 C13.7327242,15.3537891 12.8956544,14.9997384 12,14.9997384 C11.1043456,14.9997384 10.2672758,15.3537891 9.64645707,15.9746078 C9.33712204,16.2839429 9.09103343,16.6509343 8.92373294,17.0543964 C8.71218738,17.56456 8.12712648,17.8066377 7.61696286,17.5950922 C7.10679925,17.3835466 6.86472149,16.7984857 7.07626706,16.2883221 Z"/>
</svg>
