<svg xmlns="http://www.w3.org/2000/svg" width="24" height="24" viewBox="0 0 24 24">
  <path fill="#000000" d="M6,4 L5,4 C4.44771525,4 4,4.44771525 4,5 L4,19 C4,19.5522847 4.44771525,20 5,20 L19,20 C19.5522847,20 20,19.5522847 20,19 L20,8.41421356 L15.5857864,4 L8,4 L8,8 L16,8 C16.5522847,8 17,8.44771525 17,9 C17,9.55228475 16.5522847,10 16,10 L7,10 C6.44771525,10 6,9.55228475 6,9 L6,4 Z M19,22 L5,22 C3.34314575,22 2,20.6568542 2,19 L2,5 C2,3.34314575 3.34314575,2 5,2 L16,2 C16.2652165,2 16.5195704,2.10535684 16.7071068,2.29289322 L21.7071068,7.29289322 C21.8946432,7.4804296 22,7.73478351 22,8 L22,19 C22,20.6568542 20.6568542,22 19,22 Z M12,19 C9.790861,19 8,17.209139 8,15 C8,12.790861 9.790861,11 12,11 C14.209139,11 16,12.790861 16,15 C16,17.209139 14.209139,19 12,19 Z M12,17 C13.1045695,17 14,16.1045695 14,15 C14,13.8954305 13.1045695,13 12,13 C10.8954305,13 10,13.8954305 10,15 C10,16.1045695 10.8954305,17 12,17 Z"/>
</svg>
