<svg xmlns="http://www.w3.org/2000/svg" width="16" height="16" viewBox="0 0 16 16">
  <path fill="#000000" d="M12.8075333,10.8613636 C12.8075333,11.368054 12.6061059,11.8539606 12.2484091,12.2112588 C11.8903242,12.5697422 11.4044177,12.7711697 10.8977273,12.7711697 C10.5439251,12.7711697 10.2002565,12.67296 9.90329634,12.4917809 C9.71912185,13.3536712 8.95322184,14 8.03636364,14 C7.1237296,14 6.36066595,13.359613 6.17201353,12.5036798 C5.86622847,12.7005215 5.50795329,12.8075333 5.13863636,12.8075333 C4.63194598,12.8075333 4.1460394,12.6061059 3.7887412,12.2484091 C3.43025776,11.8903242 3.22883031,11.4044177 3.22883031,10.8977273 C3.22883031,10.5439251 3.32703998,10.2002565 3.50821912,9.90329634 C2.64632882,9.71912185 2,8.95322184 2,8.03636364 C2,7.1237296 2.64038699,6.36066595 3.49632016,6.17201353 C3.2994785,5.86622847 3.19246668,5.50795329 3.19246668,5.13863636 C3.19246668,4.63194598 3.39389412,4.1460394 3.75159091,3.7887412 C4.10967576,3.43025776 4.59558234,3.22883031 5.10227273,3.22883031 C5.46893144,3.22883031 5.82470678,3.33430721 6.12888994,3.52829828 C6.30537848,2.65638653 7.07603559,2 8,2 C8.90549409,2 9.66374895,2.63040612 9.8598171,3.47627088 C10.1585027,3.29222291 10.5047866,3.19246668 10.8613636,3.19246668 C11.368054,3.19246668 11.8539606,3.39389412 12.2112588,3.75159091 C12.5697422,4.10967576 12.7711697,4.59558234 12.7711697,5.10227273 C12.7711697,5.46893144 12.6656928,5.82470678 12.4717017,6.12888994 C13.3436135,6.30537848 14,7.07603559 14,8 C14,8.90549409 13.3695939,9.66374895 12.5237291,9.8598171 C12.7077771,10.1585027 12.8075333,10.5047866 12.8075333,10.8613636 Z M10.4487738,8.95987102 C10.6416172,8.50977338 11.0211758,8.1653264 11.4789645,8.00634808 C11.005836,7.85353985 10.610677,7.5028808 10.4081329,7.03029508 L10.3272727,6.84162822 L10.3272727,6.76575807 C10.2108242,6.34686724 10.2560256,5.90198727 10.4490437,5.51573663 C9.99136827,5.74486487 9.44762875,5.7664769 8.96970492,5.55550346 C8.50977338,5.35838275 8.1653264,4.97882416 8.00634808,4.52103555 C7.85353985,4.99416397 7.5028808,5.38932297 7.03029508,5.5918671 L6.84162822,5.67272727 L6.76575807,5.67272727 C6.34723522,5.78907355 5.90276887,5.74405367 5.51675468,5.55146464 C5.74621226,6.00642822 5.77129895,6.54019979 5.57489974,6.98154472 C5.39233987,7.47791905 5.0001046,7.85502497 4.50998859,8.02634383 C4.98776688,8.17676521 5.38665899,8.52730464 5.58758986,8.99623466 C5.80093227,9.47963176 5.78109483,10.022988 5.55146464,10.4832453 C6.00642822,10.2537877 6.54019979,10.228701 6.98154472,10.4251003 C7.47791905,10.6076601 7.85502497,10.9998954 8.02634383,11.4900114 C8.17676521,11.0122331 8.52730464,10.613341 8.99623466,10.4124101 C9.48006245,10.1988776 10.0239563,10.2189407 10.4844753,10.4491496 C10.2554296,9.99092965 10.2345863,9.4451828 10.4487738,8.95987102 Z M8,9.71428571 C7.05322614,9.71428571 6.28571429,8.94677386 6.28571429,8 C6.28571429,7.05322614 7.05322614,6.28571429 8,6.28571429 C8.94677386,6.28571429 9.71428571,7.05322614 9.71428571,8 C9.71428571,8.94677386 8.94677386,9.71428571 8,9.71428571 Z M8,7.71428571 C7.84220436,7.71428571 7.71428571,7.84220436 7.71428571,8 C7.71428571,8.15779564 7.84220436,8.28571429 8,8.28571429 C8.15779564,8.28571429 8.28571429,8.15779564 8.28571429,8 C8.28571429,7.84220436 8.15779564,7.71428571 8,7.71428571 Z"/>
</svg>
