<svg xmlns="http://www.w3.org/2000/svg" width="24" height="24" viewBox="0 0 24 24">
  <path fill="#000000" d="M12,23 C5.92486775,23 1,18.0751322 1,12 C1,5.92486775 5.92486775,1 12,1 C18.0751322,1 23,5.92486775 23,12 C23,18.0751322 18.0751322,23 12,23 Z M12,21 C16.9705627,21 21,16.9705627 21,12 C21,7.02943725 16.9705627,3 12,3 C7.02943725,3 3,7.02943725 3,12 C3,16.9705627 7.02943725,21 12,21 Z M8.5,10 C7.67157288,10 7,9.32842712 7,8.5 C7,7.67157288 7.67157288,7 8.5,7 C9.32842712,7 10,7.67157288 10,8.5 C10,9.32842712 9.32842712,10 8.5,10 Z M15.5,10 C14.6715729,10 14,9.32842712 14,8.5 C14,7.67157288 14.6715729,7 15.5,7 C16.3284271,7 17,7.67157288 17,8.5 C17,9.32842712 16.3284271,10 15.5,10 Z M7.07626706,14.3830371 C6.86472149,13.8728735 7.10679925,13.2878126 7.61696286,13.0762671 C8.12712648,12.8647215 8.71218738,13.1067992 8.92373294,13.6169629 C9.09103343,14.020425 9.33712204,14.3874164 9.64645707,14.6967514 C10.2672758,15.3175701 11.1043456,15.6716208 12,15.6716208 C12.8956544,15.6716208 13.7327242,15.3175701 14.3535429,14.6967514 C14.662878,14.3874164 14.9089666,14.020425 15.0762671,13.6169629 C15.2878126,13.1067992 15.8728735,12.8647215 16.3830371,13.0762671 C16.8932008,13.2878126 17.1352785,13.8728735 16.9237329,14.3830371 C16.6555484,15.0297913 16.2619344,15.6167871 15.7677565,16.110965 C14.7755832,17.1031382 13.4315395,17.6716208 12,17.6716208 C10.5684605,17.6716208 9.2244168,17.1031382 8.23224351,16.110965 C7.73806564,15.6167871 7.34445155,15.0297913 7.07626706,14.3830371 Z"/>
</svg>
