<svg xmlns="http://www.w3.org/2000/svg" width="24" height="24" viewBox="0 0 24 24">
  <g fill="none" fill-rule="evenodd">
    <path fill="currentColor" data-keep-fill="true" d="M12.0021753,16.5150251 L7.43017527,19.8070251 C6.75217527,20.2950251 5.85117527,19.6210251 6.11617527,18.8250251 L7.84317527,13.6470251 L3.37117527,10.5450251 C2.67917527,10.0610251 3.01917527,8.9890251 3.86017527,8.9890251 L9.43217527,8.9890251 L11.1861753,3.6010251 C11.3162597,3.20223344 11.5,2.99999653 12.0068225,3 C12,5.99999653 12.0021753,16.5150251 12.0021753,16.5150251 Z"/>
    <path fill="#e5e5e5" data-keep-fill="true" d="M21.0021753,16.5150251 L16.4301753,19.8070251 C15.7521753,20.2950251 14.8511753,19.6210251 15.1161753,18.8250251 L16.8431753,13.6470251 L12.3711753,10.5450251 C11.6791753,10.0610251 12.0191753,8.9890251 12.8601753,8.9890251 L18.4321753,8.9890251 L20.1861753,3.6010251 C20.3162597,3.20223344 20.5,2.99999653 21.0068225,3 C21,5.99999653 21.0021753,16.5150251 21.0021753,16.5150251 Z" transform="matrix(-1 0 0 1 33.007 0)"/>
  </g>
</svg>
