<?xml version="1.0" encoding="utf-8"?>
<!-- Generator: Adobe Illustrator 24.0.3, SVG Export Plug-In . SVG Version: 6.00 Build 0)  -->
<svg version="1.1" id="Layer_1" xmlns="http://www.w3.org/2000/svg" xmlns:xlink="http://www.w3.org/1999/xlink" x="0px" y="0px"
	 viewBox="0 0 24 24" style="enable-background:new 0 0 24 24;" xml:space="preserve">
<g>
	<path d="M10.5,18.7c-4.8,0-8.5-1.9-8.5-4.3v-3.6h2v3.6c0,0.9,2.6,2.3,6.5,2.3c3.9,0,6.5-1.4,6.5-2.3v-2.6h2v2.6
		C19,16.9,15.4,18.7,10.5,18.7z"/>
</g>
<g>
	<path d="M10.5,22.5c-4.8,0-8.5-1.9-8.5-4.3v-3.6h2v3.6c0,0.9,2.6,2.3,6.5,2.3c3.9,0,6.5-1.4,6.5-2.3v-3.6h2v3.6
		C19,20.6,15.4,22.5,10.5,22.5z"/>
</g>
<g>
	<path d="M13.6,13.6c-4.8,0-8.5-1.9-8.5-4.3V5.7h2v3.6c0,0.9,2.6,2.3,6.5,2.3c3.9,0,6.5-1.4,6.5-2.3V5.7h2v3.6
		C22.1,11.7,18.4,13.6,13.6,13.6z"/>
</g>
<g>
	<path d="M10.5,15.1c-4.8,0-8.5-1.9-8.5-4.3C2,9.3,3.4,8,5.8,7.2c0.3-0.1,0.6,0,0.9,0.1c0.3,0.2,0.4,0.5,0.4,0.8v1.1
		c0,0.9,2.6,2.3,6.5,2.3c1.3,0,2.5-0.2,3.6-0.5c0.4-0.1,0.9,0.1,1.1,0.4c0.2,0.4,0.2,0.9-0.1,1.2C16.8,14.2,13.9,15.1,10.5,15.1z
		 M5.1,9.6C4.4,10.1,4,10.5,4,10.8c0,0.9,2.2,2.1,5.7,2.3C7.1,12.5,5.4,11.2,5.1,9.6z"/>
</g>
<g>
	<path d="M13.6,10c-4.8,0-8.5-1.9-8.5-4.3s3.6-4.3,8.5-4.3c4.8,0,8.5,1.9,8.5,4.3S18.4,10,13.6,10z M13.6,3.3
		c-3.9,0-6.5,1.4-6.5,2.3S9.7,8,13.6,8c3.9,0,6.5-1.4,6.5-2.3S17.5,3.3,13.6,3.3z"/>
</g>
</svg>
