<?xml version="1.0" encoding="utf-8"?>
<!-- Generator: Adobe Illustrator 24.0.3, SVG Export Plug-In . SVG Version: 6.00 Build 0)  -->
<svg version="1.1" id="Layer_1" xmlns="http://www.w3.org/2000/svg" xmlns:xlink="http://www.w3.org/1999/xlink" x="0px" y="0px"
	 viewBox="0 0 24 24" style="enable-background:new 0 0 24 24;" xml:space="preserve">
<style type="text/css">
	.st0{fill-rule:evenodd;clip-rule:evenodd;}
</style>
<g>
	<path class="st0" d="M15.2,20.2l-3.3-3.4c-0.4-0.4-0.6-1-0.6-1.7c0-0.6,0.2-1.2,0.6-1.7c0.9-0.9,2.3-0.9,3.1,0l0.5,0.5l0.5-0.5
		c0.9-0.9,2.3-0.9,3.1,0c0.9,0.9,0.9,2.4,0,3.3l-0.7,0.8l-2.6,2.6c-0.1,0.1-0.2,0.1-0.3,0.1C15.4,20.3,15.3,20.3,15.2,20.2z"/>
</g>
<g>
	<path d="M15.4,23.4c-4.2,0-7.6-3.4-7.6-7.6s3.4-7.6,7.6-7.6s7.6,3.4,7.6,7.6S19.6,23.4,15.4,23.4z M15.4,10.2
		c-3.1,0-5.7,2.5-5.7,5.7s2.5,5.7,5.7,5.7s5.7-2.5,5.7-5.7S18.5,10.2,15.4,10.2z"/>
</g>
<g>
	<path d="M9.7,19.1c-0.1,0-0.3,0-0.4,0c-3.7,0-6.2-1.3-6.2-2.2V16c1.4,0.9,3.5,1.4,6,1.4c-0.1-0.5-0.2-1-0.2-1.6c0-0.1,0-0.2,0-0.3
		C5.3,15.4,3,14.1,3,13.3v-0.7C4.5,13.4,6.6,14,9.1,14c0.4-1.4,1.3-2.6,2.4-3.5C8.1,10.4,6,9.2,6,8.3V7.6C7.4,8.5,9.6,9,12.2,9
		c2.6,0,4.8-0.5,6.2-1.4v0.7c0,0.4-0.4,0.8-1.1,1.2c0.7,0.2,1.4,0.5,2,1c0.7-0.6,1.1-1.3,1.1-2.1V4.9c0-2.4-3.5-4.2-8.2-4.2
		C7.5,0.7,4,2.5,4,4.9v1.7C2.2,7.4,1.1,8.5,1.1,9.8v3.4c0,0.1,0,0.1,0,0.2h0v3.4c0,2.4,3.5,4.2,8.2,4.2c0.7,0,1.3,0,1.9-0.1
		C10.6,20.4,10.1,19.8,9.7,19.1z M12.2,2.6c3.7,0,6.2,1.3,6.2,2.2s-2.5,2.2-6.2,2.2C8.4,7.1,6,5.8,6,4.9S8.4,2.6,12.2,2.6z M4.1,8.7
		C4.1,8.7,4.1,8.7,4.1,8.7c0,0.2,0.1,0.4,0.2,0.5c0,0,0,0.1,0.1,0.1c0.1,0.1,0.1,0.2,0.2,0.4c0,0,0.1,0.1,0.1,0.1
		c0.1,0.1,0.2,0.2,0.3,0.3c0,0,0.1,0.1,0.1,0.1c0.1,0.1,0.3,0.3,0.5,0.4c0,0,0.1,0.1,0.1,0.1C5.7,10.9,5.8,11,6,11.1
		c0.1,0,0.1,0.1,0.2,0.1c0.2,0.1,0.3,0.2,0.5,0.2c0.1,0,0.1,0.1,0.2,0.1c0.2,0.1,0.5,0.2,0.7,0.3c0,0,0.1,0,0.1,0
		C7.9,11.9,8.1,12,8.4,12c0,0,0.1,0,0.1,0C5.2,11.9,3,10.7,3,9.8C3,9.5,3.4,9.1,4.1,8.7z"/>
</g>
</svg>
