<svg xmlns="http://www.w3.org/2000/svg" width="24" height="24" viewBox="0 0 24 24">
  <g fill="#000000" fill-rule="evenodd">
    <path fill-rule="nonzero" d="M7,5 L7,4 C7,2.34314575 8.34314575,1 10,1 L14,1 C15.6568542,1 17,2.34314575 17,4 L17,5 L21,5 C22.3333333,5 22.3333333,7 21,7 L20,7 L20,20 C20,21.6568542 18.6568542,23 17,23 L7,23 C5.34314575,23 4,21.6568542 4,20 L4,7 L3,7 C1.66666667,7 1.66666667,5 3,5 L7,5 Z M9,5 L15,5 L15,4 C15,3.44771525 14.5522847,3 14,3 L10,3 C9.44771525,3 9,3.44771525 9,4 L9,5 Z M18,7 L6,7 L6,20 C6,20.5522847 6.44771525,21 7,21 L17,21 C17.5522847,21 18,20.5522847 18,20 L18,7 Z"/>
    <path d="M12.0710678,15.4852814 L14.1956426,17.6098561 C14.5772916,17.9915051 15.2160774,17.997126 15.6066017,17.6066017 C15.9998487,17.2133548 15.9985831,16.5843695 15.6098561,16.1956426 L13.4852814,14.0710678 L15.6098561,11.9464931 C15.9915051,11.5648441 15.997126,10.9260582 15.6066017,10.5355339 C15.2133548,10.142287 14.5843695,10.1435526 14.1956426,10.5322795 L12.0710678,12.6568542 L9.94649306,10.5322795 C9.56484407,10.1506305 8.9260582,10.1450096 8.53553391,10.5355339 C8.14228695,10.9287809 8.14355256,11.5577661 8.53227949,11.9464931 L10.6568542,14.0710678 L8.53227949,16.1956426 C8.15063051,16.5772916 8.14500961,17.2160774 8.53553391,17.6066017 C8.92878086,17.9998487 9.55776613,17.9985831 9.94649306,17.6098561 L12.0710678,15.4852814 L12.0710678,15.4852814 Z"/>
  </g>
</svg>
