<?xml version="1.0" encoding="utf-8"?>
<!-- Generator: Adobe Illustrator 23.0.3, SVG Export Plug-In . SVG Version: 6.00 Build 0)  -->
<svg version="1.1" id="Layer_1" xmlns="http://www.w3.org/2000/svg" xmlns:xlink="http://www.w3.org/1999/xlink" x="0px" y="0px"
	 viewBox="0 0 24 24" style="enable-background:new 0 0 24 24;" xml:space="preserve">
<g>
	<g>
		<path d="M14.3,6.1c0.6,0.1,1.1,0.2,1.7,0.4c1,0.3,1.9,0.7,2.7,1.3c0.1,0,0.1,0,0.2,0.1c0.6,0,1.7,0,2.4,0c0.4,0,0.6,0.4,0.4,0.7
			c-0.2,0.4-0.5,0.9-0.5,1.2c0,0.1,0,0.1,0,0.2c0.9,1.3,1.2,2.8,0.7,4.4c-0.2,0.8-0.7,1.6-1.3,2.2c-1,1-2.3,1.5-3.6,1.5
			c-0.4,0-0.8-0.1-1.2-0.2c-1-0.3-1.8-0.7-2.5-1.5c-0.1-0.1-0.2-0.2-0.3-0.3c-0.2,0.3-0.4,0.7-0.7,1c-0.2,0.3-0.7,0.3-0.9,0
			c-0.2-0.3-0.4-0.6-0.6-1c0,0,0,0,0,0c0,0,0,0,0,0c-0.8,1-1.9,1.6-3.2,1.8c-0.7,0.1-1.4,0.1-2.1-0.1c-1-0.3-1.8-0.8-2.5-1.6
			c-0.7-0.8-1.1-1.6-1.2-2.6c-0.2-0.9,0-1.8,0.1-2C2,11,2.3,10.5,2.7,9.9c0,0,0-0.1,0-0.2C2.6,9.5,2.4,9,2.1,8.5
			C1.9,8.2,2.2,7.8,2.5,7.8c0.7,0,1.7,0,2.4,0c0,0,0.1,0,0.1,0C5.7,7.3,6.5,7,7.3,6.7c0.6-0.2,1.2-0.4,1.8-0.5
			C9.7,6.1,10.3,6,10.9,6C12.4,5.8,13.5,6,14.3,6.1z M13,12.9c0,2.3,1.8,4.1,4.1,4.1c2.3,0,4.1-1.8,4.1-4.1c0-2.4-1.9-4.1-4.2-4.1
			C14.8,8.9,13,10.7,13,12.9z M6.9,8.8c-2.2,0-4.1,1.8-4.1,4.2c0,2.2,1.8,4,4.1,4c2.2,0,4.1-1.9,4.1-4.1C11,10.7,9.1,8.8,6.9,8.8z
			 M7.1,7.8c1.2,0.1,2.3,0.5,3.3,1.4c0.9,0.8,1.5,1.9,1.7,3.1c0.2-1.2,0.7-2.3,1.6-3.1c0.9-0.8,2-1.3,3.2-1.4c-1.5-0.6-3-0.9-4.6-1
			C10.5,6.8,8.7,7.1,7.1,7.8z"/>
		<path d="M17.1,10.3c1.4,0,2.5,1.1,2.5,2.5c0,1.4-1.1,2.5-2.4,2.5c-1.5,0.1-2.7-1.1-2.7-2.5C14.6,11.4,15.8,10.3,17.1,10.3z
			 M18.8,12.9c0-0.9-0.7-1.7-1.6-1.7c-0.9,0-1.7,0.7-1.7,1.7c0,0.9,0.7,1.7,1.7,1.7C18,14.5,18.8,13.8,18.8,12.9z"/>
		<path d="M6.8,10.3c1.4,0,2.5,1.1,2.5,2.5c0,1.4-1.1,2.5-2.4,2.5c-1.5,0.1-2.7-1.1-2.7-2.5C4.3,11.4,5.5,10.3,6.8,10.3z M8.5,12.9
			c0-0.9-0.7-1.7-1.7-1.7c-0.9,0-1.6,0.8-1.6,1.7c0,0.9,0.8,1.7,1.7,1.7C7.7,14.5,8.5,13.8,8.5,12.9z"/>
		<path d="M17.1,12c0.5,0,0.8,0.4,0.8,0.8c0,0.5-0.4,0.8-0.8,0.8c-0.5,0-0.8-0.4-0.8-0.8C16.3,12.4,16.6,12,17.1,12z"/>
		<path d="M6.8,12c0.5,0,0.9,0.4,0.9,0.8c0,0.5-0.4,0.9-0.9,0.9c-0.5,0-0.9-0.4-0.9-0.9C6,12.4,6.3,12,6.8,12z"/>
	</g>
</g>
</svg>
