<?xml version="1.0" encoding="utf-8"?>
<!-- Generator: Adobe Illustrator 21.1.0, SVG Export Plug-In . SVG Version: 6.00 Build 0)  -->
<svg version="1.1" id="Layer_1" xmlns="http://www.w3.org/2000/svg" xmlns:xlink="http://www.w3.org/1999/xlink" x="0px" y="0px"
	 viewBox="0 0 24 24" style="enable-background:new 0 0 24 24;" xml:space="preserve">
<path d="M1.4,18.7c2.3,0.2,4.5-0.4,6.3-1.8C6.8,16.9,6,16.6,5.2,16c-0.7-0.5-1.2-1.3-1.5-2.1c0.3,0,0.6,0,0.9,0
	c0.3,0,0.6-0.1,0.9-0.1c-1.3-0.3-2.2-1-2.9-2.2C2.3,10.9,2.1,10,2.2,9.5c0.3,0.1,0.6,0.2,0.9,0.3c0.3,0.1,0.6,0.1,1,0.2
	C2.1,8.4,1.7,6.4,2.8,4.1c2.4,2.8,5.4,4.3,9,4.6c0-0.3-0.1-0.5-0.1-0.8c-0.1-1.4,0.4-2.5,1.4-3.4c1.1-1,2.4-1.3,3.9-1.1
	c0.8,0.2,1.6,0.6,2.2,1.2c0.1,0.1,0.2,0.1,0.3,0.1c0.8-0.2,1.6-0.5,2.3-0.9c0.1,0,0.2-0.1,0.3-0.1c-0.3,1-1,1.8-1.8,2.4
	c0.8-0.1,1.6-0.3,2.4-0.6C22.2,6,21.8,6.5,21.3,7c-0.2,0.2-0.4,0.4-0.7,0.6c-0.1,0.1-0.2,0.2-0.2,0.3c0.1,1.3-0.1,2.5-0.5,3.7
	c-0.3,1-0.7,2-1.2,2.9c-0.6,1-1.3,1.9-2.1,2.7c-1.1,1.1-2.4,2-3.9,2.5c-1.4,0.6-2.8,0.8-4.3,0.9c-1,0-2.1,0-3.1-0.2
	c-1-0.2-2-0.5-2.9-1C2.1,19.2,1.8,19,1.4,18.7C1.4,18.8,1.4,18.7,1.4,18.7z"/>
</svg>
