<svg xmlns="http://www.w3.org/2000/svg" width="24" height="24" viewBox="0 0 24 24">
  <path fill="#000000" d="M7.98691508,21.1621844 C9.21528758,21.7009861 10.5727246,22 12,22 C13.4272754,22 14.7847124,21.7009861 16.0130849,21.1621844 C16.004476,21.109397 16,21.0552212 16,21 C16,18.790861 14.209139,17 12,17 C9.790861,17 8,18.790861 8,21 C8,21.0552212 7.99552402,21.109397 7.98691508,21.1621844 Z M6.0738836,20.0557002 C6.52681292,17.1906302 9.00758191,15 12,15 C14.9924181,15 17.4731871,17.1906302 17.9261164,20.0557002 C20.3969854,18.2349777 22,15.3046909 22,12 C22,6.4771525 17.5228475,2 12,2 C6.4771525,2 2,6.4771525 2,12 C2,15.3046909 3.60301462,18.2349777 6.0738836,20.0557002 Z M12,24 C5.372583,24 0,18.627417 0,12 C0,5.372583 5.372583,0 12,0 C18.627417,0 24,5.372583 24,12 C24,18.627417 18.627417,24 12,24 Z M12,14 C9.790861,14 8,12.209139 8,10 C8,7.790861 9.790861,6 12,6 C14.209139,6 16,7.790861 16,10 C16,12.209139 14.209139,14 12,14 Z M12,12 C13.1045695,12 14,11.1045695 14,10 C14,8.8954305 13.1045695,8 12,8 C10.8954305,8 10,8.8954305 10,10 C10,11.1045695 10.8954305,12 12,12 Z"/>
</svg>
