<svg xmlns="http://www.w3.org/2000/svg" width="24" height="24" viewBox="0 0 24 24">
  <path fill="#000000" d="M9.43213258,3.34612892 C9.97884849,2.44479398 10.9513707,1.897256 12,1.897256 C13.0486293,1.897256 14.0211515,2.44479398 14.5678674,3.34612892 L23.0459905,17.4999396 C23.5790281,18.4230391 23.5822106,19.55966 23.0543507,20.4857299 C22.5264909,21.4117999 21.5468725,21.9882243 20.47,22 L3.51900947,21.9999396 C2.4531275,21.9882243 1.47350913,21.4117999 0.94564925,20.4857299 C0.41778937,19.55966 0.420971911,18.4230391 0.962132578,17.4861289 L9.43213258,3.34612892 Z M11.1461945,4.37666387 L2.68599053,18.5000604 C2.50831134,18.8077602 2.5072505,19.1866339 2.68320379,19.4953238 C2.85915708,19.8040138 3.18569654,19.9961553 3.53,20 L20.4590095,20.0000604 C20.8143035,19.9961553 21.1408429,19.8040138 21.3167962,19.4953238 C21.4927495,19.1866339 21.4916887,18.8077602 21.3221326,18.5138711 L12.855,4.378628 C12.6737172,4.07976866 12.3495431,3.897256 12,3.897256 C11.6512233,3.897256 11.3277045,4.07896919 11.1461945,4.37666387 Z M11,9 C11,8.44771525 11.4477153,8 12,8 C12.5522847,8 13,8.44771525 13,9 L13,13 C13,13.5522847 12.5522847,14 12,14 C11.4477153,14 11,13.5522847 11,13 L11,9 Z M12,18 C11.4477153,18 11,17.5522847 11,17 C11,16.4477153 11.4477153,16 12,16 C12.5522847,16 13,16.4477153 13,17 C13,17.5522847 12.5522847,18 12,18 Z"/>
</svg>
