<?xml version="1.0" encoding="utf-8"?>
<!-- Generator: Adobe Illustrator 21.1.0, SVG Export Plug-In . SVG Version: 6.00 Build 0)  -->
<svg version="1.1" id="Layer_1" xmlns="http://www.w3.org/2000/svg" xmlns:xlink="http://www.w3.org/1999/xlink" x="0px" y="0px"
	 viewBox="0 0 24 24" style="enable-background:new 0 0 24 24;" xml:space="preserve">
<g>
	<path d="M12,8.2c0.1,0,0.1,0,0.2,0.1l3.1,2.6c0.1,0.1,0.1,0.3,0,0.4l-0.8,0.7c-0.1,0.1-0.1,0.3,0,0.4l3.2,2.6
		c0.1,0.1,0.1,0.3,0,0.4L16,16.6c-0.1,0.1-0.1,0.3,0,0.4l3,2.5c0.2,0.2,0.2,0.5-0.1,0.6c-0.6,0.2-1.6,0.6-3.2,0.8
		c-1.7,0.3-2.8,0.3-3.3,0.3c-0.3,0-0.4,0-0.4,0s-0.1,0-0.4,0c-0.5,0-1.6,0-3.3-0.3c-1.6-0.3-2.6-0.6-3.2-0.8C4.8,20,4.8,19.7,5,19.5
		L8,17c0.1-0.1,0.1-0.3,0-0.4l-1.6-1.3c-0.1-0.1-0.1-0.3,0-0.4l3.2-2.6c0.1-0.1,0.1-0.3,0-0.4l-0.8-0.7c-0.1-0.1-0.1-0.3,0-0.4
		l3.1-2.6C11.9,8.2,11.9,8.2,12,8.2 M12,6.2c-0.5,0-1,0.2-1.4,0.5L7.4,9.2C6.9,9.7,6.6,10.3,6.6,11c0,0.3,0.1,0.6,0.2,0.9l-1.7,1.4
		c-0.5,0.4-0.8,1.1-0.8,1.8c0,0.7,0.3,1.3,0.8,1.8l0,0l-1.4,1.1c-0.6,0.5-1,1.3-0.8,2.2c0.1,0.8,0.7,1.5,1.5,1.8
		C5,22.2,6.2,22.6,8,22.9c1.8,0.3,3,0.4,3.7,0.4c0.2,0,0.3,0,0.4,0c0.1,0,0.2,0,0.4,0c0.7,0,1.9-0.1,3.7-0.4
		c1.7-0.3,2.9-0.7,3.6-0.9c0.8-0.3,1.3-1,1.5-1.8c0.1-0.8-0.2-1.6-0.8-2.2l-1.4-1.1l0,0c0.5-0.4,0.8-1.1,0.8-1.8
		c0-0.7-0.3-1.3-0.8-1.8l-1.7-1.4c0.1-0.3,0.2-0.6,0.2-0.9c0-0.7-0.3-1.3-0.8-1.8l-3.1-2.6C13,6.3,12.5,6.2,12,6.2L12,6.2z"/>
</g>
<g>
	<path d="M12,2.8L12.6,4l1.3,0.2l-1,0.9l0.2,1.3L12,5.8l-1.2,0.6L11,5.1l-1-0.9L11.4,4L12,2.8 M12,0.8c-0.8,0-1.5,0.4-1.8,1.1
		l-0.1,0.3l-0.3,0C9,2.3,8.4,2.9,8.2,3.6c-0.2,0.7,0,1.5,0.5,2.1l0.2,0.2L8.8,6.1C8.7,6.9,9,7.6,9.6,8.1c0.3,0.3,0.8,0.4,1.2,0.4
		c0.3,0,0.6-0.1,0.9-0.2L12,8.1l0.3,0.1c0.3,0.2,0.6,0.2,0.9,0.2c0.4,0,0.8-0.1,1.2-0.4c0.6-0.4,0.9-1.2,0.8-2l-0.1-0.3l0.2-0.2
		c0.5-0.5,0.7-1.3,0.5-2.1c-0.2-0.7-0.9-1.3-1.6-1.4l-0.3,0l-0.1-0.3C13.4,1.2,12.8,0.8,12,0.8L12,0.8z"/>
</g>
<circle cx="11.1" cy="13.1" r="1.1"/>
<circle cx="13.3" cy="15.7" r="1.1"/>
<circle cx="9.6" cy="18.8" r="1.1"/>
<circle cx="15" cy="19.2" r="1.1"/>
</svg>
