<?xml version="1.0" encoding="utf-8"?>
<!-- Generator: Adobe Illustrator 21.1.0, SVG Export Plug-In . SVG Version: 6.00 Build 0)  -->
<svg version="1.1" id="Layer_1" xmlns="http://www.w3.org/2000/svg" xmlns:xlink="http://www.w3.org/1999/xlink" x="0px" y="0px"
	 viewBox="0 0 24 24" style="enable-background:new 0 0 24 24;" xml:space="preserve">
<path d="M12,2.7c0.1,0,0.1,0,0.2,0.1l3.7,3.6C16,6.6,16,6.9,15.9,7l-1,1c-0.2,0.1-0.2,0.4,0,0.6l3.7,3.7c0.2,0.1,0.2,0.4,0,0.6
	l-1.9,1.9c-0.2,0.1-0.2,0.4,0,0.6l3.5,3.5c0.2,0.2,0.2,0.7-0.1,0.8c-0.7,0.3-1.9,0.8-3.7,1.2c-2,0.4-3.3,0.5-3.9,0.5
	c-0.3,0-0.4,0-0.4,0s-0.1,0-0.4,0c-0.6,0-1.9-0.1-3.9-0.5c-1.9-0.4-3.1-0.9-3.7-1.2c-0.3-0.2-0.4-0.6-0.1-0.8l3.5-3.5
	c0.2-0.1,0.2-0.4,0-0.6l-1.9-1.9c-0.2-0.1-0.2-0.4,0-0.6l3.7-3.7c0.2-0.1,0.2-0.4,0-0.6l-1-1C8,6.9,8,6.6,8.1,6.4l3.7-3.6
	C11.9,2.8,11.9,2.7,12,2.7 M12,0.7c-0.6,0-1.2,0.2-1.6,0.7L6.7,5C6.3,5.5,6,6.1,6,6.7c0,0.6,0.2,1.1,0.5,1.5L4,10.8
	c-0.4,0.4-0.7,1.1-0.7,1.7c0,0.6,0.3,1.3,0.7,1.7L4.8,15l-2.4,2.4c-0.6,0.6-0.8,1.4-0.7,2.2c0.1,0.8,0.6,1.5,1.4,1.8
	c0.8,0.4,2.2,0.9,4.2,1.3c2.1,0.4,3.5,0.5,4.3,0.5c0.2,0,0.3,0,0.4,0c0.1,0,0.3,0,0.4,0c0.8,0,2.2-0.1,4.3-0.5
	c2-0.4,3.4-0.9,4.2-1.3c0.7-0.4,1.2-1,1.4-1.8c0.1-0.8-0.1-1.6-0.7-2.2L19.2,15l0.8-0.8c0.4-0.4,0.7-1.1,0.7-1.7
	c0-0.6-0.3-1.3-0.7-1.7l-2.6-2.6c0.3-0.4,0.5-1,0.5-1.5c0-0.6-0.3-1.3-0.7-1.7l-3.7-3.6C13.2,1,12.6,0.7,12,0.7L12,0.7z"/>
</svg>
