<svg xmlns="http://www.w3.org/2000/svg" width="24" height="24" viewBox="0 0 24 24">
  <path fill="#000000" d="M19.00084,11.4208163 L5.30408,11.4208163 C3.12696,11.4208163 1.36212,13.2234694 1.36212,15.4445714 L1.36212,18.6776735 C1.36212,20.8987755 3.12696,22.7009796 5.30408,22.7009796 L19.00084,22.7009796 C21.17752,22.7009796 22.9428,20.8987755 22.9428,18.6776735 L22.9428,15.4445714 C22.9428,13.2234694 21.17752,11.4208163 19.00084,11.4208163 Z M8.18168,13.9377959 L6.90832,13.9377959 L6.90832,20.3941224 L5.67808,20.3941224 L5.67808,13.9377959 L4.4056,13.9377959 L4.4056,12.8395918 L8.18168,12.8395918 L8.18168,13.9377959 L8.18168,13.9377959 Z M11.77868,20.3941224 L10.68748,20.3941224 L10.68748,19.7835102 C10.48464,20.0093469 10.27564,20.1817551 10.0574,20.2980408 C9.83916,20.4192653 9.6284,20.4758367 9.42336,20.4758367 C9.16992,20.4758367 8.9816,20.3936735 8.85268,20.2266531 C8.72596,20.0600816 8.66128,19.8131429 8.66128,19.479551 L8.66128,14.8204898 L9.75248,14.8204898 L9.75248,19.0961224 C9.75248,19.2281224 9.77668,19.3228571 9.82024,19.3816735 C9.86732,19.4422857 9.94212,19.4701224 10.04464,19.4701224 C10.12384,19.4701224 10.22592,19.4315102 10.34868,19.3533878 C10.47232,19.2743673 10.58496,19.1755918 10.68748,19.0534694 L10.68748,14.8200408 L11.77868,14.8200408 L11.77868,20.3941224 L11.77868,20.3941224 Z M15.74044,19.2433878 C15.74044,19.6371429 15.65464,19.9397551 15.48348,20.1507755 C15.3132,20.3617959 15.06416,20.4655102 14.74164,20.4655102 C14.52692,20.4655102 14.33596,20.426 14.17008,20.3442857 C14.00332,20.2634694 13.84624,20.139102 13.70324,19.9666939 L13.70324,20.3936735 L12.59884,20.3936735 L12.59884,12.8395918 L13.70324,12.8395918 L13.70324,15.2726122 C13.85108,15.1042449 14.00728,14.9735918 14.17052,14.8860408 C14.33728,14.7966939 14.50492,14.7535918 14.67476,14.7535918 C15.02016,14.7535918 15.28328,14.8712245 15.46544,15.1087347 C15.64848,15.3462449 15.73956,15.6942041 15.73956,16.1503673 L15.73956,19.2433878 L15.74044,19.2433878 Z M19.52576,17.741551 L17.43752,17.741551 L17.43752,18.7917143 C17.43752,19.084449 17.47272,19.2882857 17.544,19.4018776 C17.61704,19.5159184 17.7398,19.5715918 17.91448,19.5715918 C18.09576,19.5715918 18.22116,19.523551 18.2942,19.4274694 C18.3646,19.3304898 18.40244,19.1194694 18.40244,18.7917143 L18.40244,18.5380408 L19.52576,18.5380408 L19.52576,18.8240408 C19.52576,19.3951429 19.3898,19.8257143 19.11392,20.1162041 C18.84244,20.404 18.43324,20.5467755 17.8894,20.5467755 C17.39968,20.5467755 17.0138,20.3945714 16.73352,20.0883673 C16.45412,19.7839592 16.31156,19.3614694 16.31156,18.8244898 L16.31156,16.3209796 C16.31156,15.8392245 16.46732,15.4427755 16.77664,15.1388163 C17.08508,14.8348571 17.4824,14.683102 17.97124,14.683102 C18.47152,14.683102 18.85564,14.8236327 19.1236,15.1055918 C19.39156,15.388 19.52576,15.7920816 19.52576,16.3205306 L19.52576,17.741551 L19.52576,17.741551 Z M17.92504,15.6573878 C17.7508,15.6573878 17.62672,15.7072245 17.55104,15.8113878 C17.4736,15.9092653 17.43752,16.0767347 17.43752,16.3106531 L17.43752,16.8741224 L18.40244,16.8741224 L18.40244,16.3106531 C18.40244,16.0767347 18.36372,15.9088163 18.28716,15.8113878 C18.21368,15.7076735 18.09092,15.6573878 17.92504,15.6573878 Z M14.15996,15.6385306 C14.30692,15.6385306 14.42044,15.6870204 14.50052,15.783102 C14.57796,15.8805306 14.61492,16.0224082 14.61492,16.2118776 L14.61492,19.0902857 C14.61492,19.2685306 14.58324,19.3946939 14.5212,19.4737143 C14.45828,19.5536327 14.3606,19.5931429 14.2264,19.5931429 C14.13356,19.5931429 14.04644,19.5715918 13.9624,19.5334286 C13.87792,19.4939184 13.79124,19.4247755 13.70368,19.3349796 L13.70368,15.8630204 C13.7776,15.7866939 13.8524,15.7278776 13.92896,15.6924082 C14.0042,15.6560408 14.08252,15.6385306 14.15996,15.6385306 Z M7.09752,9.48481633 L7.09752,6.1875102 L5.44972,1.16163265 L6.8432,1.16163265 L7.74212,4.48857143 L7.82924,4.48857143 L8.68548,1.16163265 L10.09172,1.16163265 L8.48088,6.03216327 L8.48088,9.48481633 L7.09752,9.48481633 Z M11.96612,9.63971429 C11.42888,9.63971429 10.99768,9.48481633 10.67516,9.17636735 C10.35264,8.86657143 10.19116,8.4535102 10.19116,7.93134694 L10.19116,4.74897959 C10.19116,4.27171429 10.35704,3.89412245 10.68704,3.61261224 C11.01792,3.33110204 11.46276,3.19012245 12.02156,3.19012245 C12.5302,3.19012245 12.94732,3.33918367 13.27292,3.63506122 C13.59632,3.93183673 13.75868,4.31661224 13.75868,4.784 L13.75868,7.95559184 C13.75868,8.48089796 13.59984,8.89081633 13.2826,9.19118367 C12.96316,9.49020408 12.52492,9.63971429 11.96612,9.63971429 Z M11.4566,4.70228571 L11.45616,4.70228571 L11.45616,8.04718367 C11.45616,8.21555102 11.50016,8.34485714 11.58684,8.43689796 C11.67484,8.53118367 11.80024,8.57608163 11.9626,8.57608163 C12.12848,8.57608163 12.26048,8.52983673 12.3586,8.43555102 C12.4576,8.34171429 12.50644,8.2115102 12.50644,8.04763265 L12.50644,4.70228571 C12.50644,4.56893878 12.45672,4.46118367 12.35684,4.37677551 C12.25652,4.29416327 12.12496,4.25420408 11.9626,4.25420408 C11.81212,4.25420408 11.69112,4.29416327 11.59564,4.37677551 C11.50368,4.46118367 11.4566,4.56893878 11.4566,4.70228571 Z M15.61416,9.57461224 C15.3286,9.57461224 15.11652,9.48167347 14.97132,9.29759184 C14.82876,9.11620408 14.7566,8.84277551 14.7566,8.47685714 L14.7566,3.34546939 L15.98376,3.34546939 L15.98376,8.05257143 C15.98376,8.19669388 16.01236,8.3017551 16.06296,8.36595918 C16.11268,8.43285714 16.1976,8.46518367 16.31288,8.46518367 C16.40308,8.46518367 16.51748,8.42208163 16.65652,8.33587755 C16.79292,8.24877551 16.92008,8.13922449 17.03448,8.00587755 L17.03448,3.34546939 L18.2634,3.34546939 L18.2634,9.48526531 L17.03448,9.48526531 L17.03448,8.80506122 C16.80964,9.05514286 16.57336,9.24685714 16.32652,9.37795918 C16.08232,9.50726531 15.84516,9.57461224 15.61416,9.57461224 Z"/>
</svg>
