<svg xmlns="http://www.w3.org/2000/svg" width="24" height="24" viewBox="0 0 24 24">
  <path fill="#000000" d="M21.7,20.3 L18,16.6 C19.2,15.1 20,13.1 20,11 C20,6 16,2 11,2 C6,2 2,6 2,11 C2,16 6,20 11,20 C13.1,20 15.1,19.3 16.6,18 L20.3,21.7 C20.5,21.9 20.8,22 21,22 C21.2,22 21.5,21.9 21.7,21.7 C22.1,21.3 22.1,20.7 21.7,20.3 Z M11,18 C7.1,18 4,14.9 4,11 C4,7.1 7.1,4 11,4 C14.9,4 18,7.1 18,11 C18,14.9 14.9,18 11,18 Z M14.0029699,10 L7.99703014,10 C7.45303631,10 7,10.4477153 7,11 C7,11.5561352 7.4463856,12 7.99703014,12 L14.0029699,12 C14.5469637,12 15,11.5522847 15,11 C15,10.4438648 14.5536144,10 14.0029699,10 Z"/>
</svg>
