<svg id="Layer_1" xmlns="http://www.w3.org/2000/svg" viewBox="0 0 120 171"><style>.st0{fill:#dedede}.st1{fill:none;stroke:#625d58;stroke-width:2}</style><title>Group 4</title><g id="D-Moj-Martinus"><g id="_x35_-4-Downloads" transform="translate(-350 -357)"><g id="Group-4" transform="translate(350 357)"><g id="Rectangle"><path id="path-1" class="st0" d="M3 0h114c1.7 0 3 1.3 3 3v165c0 1.7-1.3 3-3 3H3c-1.7 0-3-1.3-3-3V3c0-1.7 1.3-3 3-3z"/><path class="st1" d="M4 1h112c1.7 0 3 1.3 3 3v163c0 1.7-1.3 3-3 3H4c-1.7 0-3-1.3-3-3V4c0-1.7 1.3-3 3-3z"/></g><g id="Rectangle_1_"><path id="path-2" class="st0" d="M3 0h5v171H3c-1.7 0-3-1.3-3-3V3c0-1.7 1.3-3 3-3z"/><path class="st1" d="M7 170V1H3c-1.1 0-2 .9-2 2v165c0 1.1.9 2 2 2h4z"/></g></g></g></g></svg>