<svg width="190" height="38" viewBox="0 0 190 38" xmlns="http://www.w3.org/2000/svg"><title>Untitled</title><g fill="none"><path d="M21.459 1.02c-10 0-21.397.87-21.397 17.918s12.9 17.938 21.397 17.938c8.497 0 21.376-.745 21.376-17.938C42.835 1.786 31.5 1.02 21.46 1.02" fill="#D22121"/><path d="M35.367 18.793l-4.156-4.18c-1.749-1.758-3.415-3.765-6.83.208l7.468 7.51-3.436 3.455L17.24 14.552c-1.831-1.842-3.6-3.621-6.769.29l14.423 14.503-3.436 3.455L4.115 15.338c9.464-13.448 13.97-6.952 16.932-3.828 6.708-7.096 9.814-4.282 13.97.062l3.765 3.787-3.415 3.434zm52.459 7.746h3.621V17.25c0-.607.165-1.073.535-1.417.74-.688 2.181-.708 3.991-.627v-2.853c-3.415-.486-5.842-.04-7.036 1.315l-.04.06c-.021.021-1.05 1.013-1.07 3.501v9.309zm-20.882 0h3.621v-9.207c0-3.278-2.098-5.16-5.78-5.16-1.585 0-2.881.344-3.869 1.011l-.144.102-.144-.102c-.987-.667-2.283-1.011-3.806-1.011-3.703 0-5.801 1.882-5.801 5.16v9.186h3.62v-9.45c0-1.193.823-1.902 2.202-1.902 1.378 0 2.16.688 2.16 1.903v9.45h3.621v-9.45c0-1.194.823-1.903 2.201-1.903 1.379 0 2.16.688 2.16 1.903v9.47h-.04zm40.468 0h3.621V12.475h-3.62zm15.183 0h3.621v-8.803c0-3.52-2.263-5.544-6.213-5.544-3.97 0-6.234 2.023-6.234 5.544v8.803h3.621v-9.086c0-1.416.988-2.266 2.613-2.266 1.646 0 2.592.83 2.592 2.266v9.086zm5.802-14.084v8.802c0 3.521 2.263 5.545 6.213 5.545 3.97 0 6.234-2.024 6.234-5.545v-8.802h-3.621v9.086c0 1.416-.987 2.266-2.613 2.266-1.646 0-2.592-.83-2.592-2.266v-9.086h-3.62zm14.443 9.955v.163c0 2.731 2.16 4.229 6.069 4.229 2.777 0 6.09-.77 6.09-4.432 0-2.064-1.482-3.5-4.156-4.047l-2.737-.566c-1.028-.203-1.522-.628-1.522-1.316 0-.95.782-1.436 2.345-1.436.576 0 2.305 0 2.305 1.517v.02h3.62v-.161c0-2.732-2.098-4.23-5.925-4.23-3.888 0-5.945 1.518-5.945 4.371 0 2.105 1.48 3.562 4.155 4.088l2.737.566c1.028.203 1.522.628 1.522 1.316 0 .647-.432 1.436-2.49 1.436-2.015 0-2.448-.83-2.448-1.517v-.02h-3.62v.02zM109.305 6.142c-1.214 0-2.18.97-2.18 2.145 0 1.193.987 2.144 2.18 2.144 1.214 0 2.18-.97 2.18-2.144.021-1.194-.966-2.145-2.18-2.145zM97.66 15.47v6.09c0 2.085.432 3.42 1.379 4.23 1.131.95 3.065 1.214 5.946.81v-2.854c-1.626.081-2.654.06-3.21-.445-.35-.324-.494-.81-.494-1.578V15.51h3.704v-2.994h-3.724v-4.27l-3.6 1.012v6.212zm-18.454-3.278c-3.724 0-5.72 1.639-5.863 4.25h3.62c.083-1.093.762-1.579 2.243-1.579 1.4 0 2.407.81 2.407 2.125v.89H77.89c-3.62 0-5.246 1.72-5.246 4.452 0 2.752 1.749 4.451 4.794 4.451 3.312 0 4.485-2.266 4.485-2.266v1.983h3.189v-9.126c-.041-3.278-2.181-5.18-5.905-5.18zm2.551 9.733c0 .668-.884 1.882-3.065 1.882-1.975 0-2.592-.607-2.592-1.74 0-1.174.678-1.64 2.736-1.64h2.921v1.498z" fill="#FFF"/><path d="M159.113 22.492c-1.214 0-2.18.97-2.18 2.144 0 1.194.987 2.145 2.18 2.145 1.214 0 2.18-.97 2.18-2.145 0-1.173-.966-2.144-2.18-2.144zm9.875-10.3c-3.97 0-6.233 2.023-6.233 5.565v3.5c0 3.541 2.263 5.565 6.213 5.565 3.909 0 6.172-1.963 6.234-5.383h-3.704v.102c0 1.416-.905 2.205-2.55 2.205-1.606 0-2.51-.81-2.51-2.205v-4.068c0-1.396.925-2.205 2.55-2.205 1.605 0 2.51.81 2.51 2.205v.101h3.704c-.062-3.44-2.325-5.382-6.214-5.382zm8.168 14.326h11.603v-3.075h-7.18l7.18-7.79v-3.198h-11.603v3.076h7.16l-7.18 7.79v3.197z" fill="#A0A0A0"/></g></svg>