<svg width="45" height="38" viewBox="0 0 45 38" xmlns="http://www.w3.org/2000/svg"><title>Group 2</title><g fill="none" fill-rule="evenodd"><path d="M.346 18.758c0 17.58 13.372 18.493 22.18 18.493 8.81 0 22.165-.773 22.165-18.493C44.69 1.09 32.932.28 22.527.28 12.164.28.346 1.176.346 18.758z" fill="#D22121"/><path d="M36.94 18.617l-4.314-4.314c-1.804-1.804-3.546-3.89-7.09.218l7.75 7.749-3.554 3.554L18.148 14.24c-1.893-1.893-3.723-3.726-7.016.291l14.946 14.945v.001l-3.553 3.553L4.55 15.056c9.806-13.877 14.488-7.166 17.56-3.953 6.957-7.326 10.177-4.417 14.485.063l3.897 3.897-3.552 3.554z" fill="#FFF"/></g></svg>