<svg id="Layer_1" xmlns="http://www.w3.org/2000/svg" viewBox="0 0 161 38" enable-background="new 0 0 161 38"><style>.st0{filter:url(#Adobe_OpacityMaskFilter)}.st1{fill:#fff}.st2{mask:url(#mask-2_1_)}.st3{filter:url(#Adobe_OpacityMaskFilter_1_)}.st4{mask:url(#mask-2_2_)}.st5{filter:url(#Adobe_OpacityMaskFilter_2_)}.st6{mask:url(#mask-2_3_)}.st7{filter:url(#Adobe_OpacityMaskFilter_3_)}.st8{mask:url(#mask-2_4_)}.st9{filter:url(#Adobe_OpacityMaskFilter_4_)}.st10{mask:url(#mask-2_5_)}.st11{filter:url(#Adobe_OpacityMaskFilter_5_)}.st12{mask:url(#mask-2_6_)}.st13{filter:url(#Adobe_OpacityMaskFilter_6_)}.st14{mask:url(#mask-2_7_)}.st15{filter:url(#Adobe_OpacityMaskFilter_7_)}.st16{mask:url(#mask-2_8_);fill:#d22121}.st17{filter:url(#Adobe_OpacityMaskFilter_8_)}.st18{mask:url(#mask-2_9_);fill:#fff}</style><title>Page 1 Copy</title><g id="Symbols"><g id="Page-1-Copy" transform="translate(-15 -8)"><path id="Fill-1" d="M106.2 34.2h3.7v-9.8c0-.6.2-1.1.5-1.5.8-.7 2.3-.7 4.1-.7v-3c-3.5-.5-6.1 0-7.3 1.4l-.1.1s-1.1 1.1-1.1 3.7v9.8z"/><path id="Fill-3" d="M84.5 34.2h3.7v-9.7c0-3.5-2.2-5.4-6-5.4-1.6 0-3 .4-4 1.1l-.2.1-.2-.1c-1-.7-2.4-1.1-4-1.1-3.8 0-6 2-6 5.4v9.7h3.7v-10c0-1.3.9-2 2.3-2s2.2.7 2.2 2v10h4v-10c0-1.3.8-2 2.3-2 1.4 0 2.2.7 2.2 2v10z"/><defs><filter id="Adobe_OpacityMaskFilter" filterUnits="userSpaceOnUse" x="126.5" y="19.4" width="3.7" height="14.8"><feColorMatrix values="1 0 0 0 0 0 1 0 0 0 0 0 1 0 0 0 0 0 1 0"/></filter></defs><mask maskUnits="userSpaceOnUse" x="126.5" y="19.4" width="3.7" height="14.8" id="mask-2_1_"><g class="st0"><path id="path-1_1_" class="st1" d="M0 52.9h189.6V0H0z"/></g></mask><path id="Fill-5" class="st2" d="M126.5 34.2h3.7V19.4h-3.7z"/><defs><filter id="Adobe_OpacityMaskFilter_1_" filterUnits="userSpaceOnUse" x="133" y="19.1" width="12.9" height="15.1"><feColorMatrix values="1 0 0 0 0 0 1 0 0 0 0 0 1 0 0 0 0 0 1 0"/></filter></defs><mask maskUnits="userSpaceOnUse" x="133" y="19.1" width="12.9" height="15.1" id="mask-2_2_"><g class="st3"><path id="path-1_2_" class="st1" d="M0 52.9h189.6V0H0z"/></g></mask><path id="Fill-7" class="st4" d="M142.2 34.2h3.7v-9.3c0-3.7-2.3-5.8-6.4-5.8-4.1 0-6.5 2.1-6.5 5.8v9.3h3.8v-9.6c0-1.5 1-2.4 2.7-2.4 1.7 0 2.7.9 2.7 2.4v9.6z"/><defs><filter id="Adobe_OpacityMaskFilter_2_" filterUnits="userSpaceOnUse" x="148.2" y="19.4" width="12.9" height="15.1"><feColorMatrix values="1 0 0 0 0 0 1 0 0 0 0 0 1 0 0 0 0 0 1 0"/></filter></defs><mask maskUnits="userSpaceOnUse" x="148.2" y="19.4" width="12.9" height="15.1" id="mask-2_3_"><g class="st5"><path id="path-1_3_" class="st1" d="M0 52.9h189.6V0H0z"/></g></mask><path id="Fill-8" class="st6" d="M148.2 19.4v9.3c0 3.7 2.3 5.8 6.4 5.8 4.1 0 6.5-2.1 6.5-5.8v-9.3h-3.7V29c0 1.5-1 2.4-2.7 2.4-1.7 0-2.7-.9-2.7-2.4v-9.6h-3.8z"/><defs><filter id="Adobe_OpacityMaskFilter_3_" filterUnits="userSpaceOnUse" x="163.2" y="19.1" width="12.6" height="15.4"><feColorMatrix values="1 0 0 0 0 0 1 0 0 0 0 0 1 0 0 0 0 0 1 0"/></filter></defs><mask maskUnits="userSpaceOnUse" x="163.2" y="19.1" width="12.6" height="15.4" id="mask-2_4_"><g class="st7"><path id="path-1_4_" class="st1" d="M0 52.9h189.6V0H0z"/></g></mask><path id="Fill-9" class="st8" d="M163.2 29.8v.2c0 2.9 2.2 4.5 6.3 4.5 2.9 0 6.3-.8 6.3-4.7 0-2.2-1.5-3.7-4.3-4.3l-2.8-.6c-1.1-.2-1.6-.7-1.6-1.4 0-1 .8-1.5 2.4-1.5.6 0 2.4 0 2.4 1.6h3.8v-.2c0-2.9-2.2-4.5-6.1-4.5-4 0-6.2 1.6-6.2 4.6 0 2.2 1.5 3.8 4.3 4.3l2.8.6c1.1.2 1.6.7 1.6 1.4s-.4 1.5-2.6 1.5c-2.1 0-2.5-.9-2.5-1.6h-3.8z"/><defs><filter id="Adobe_OpacityMaskFilter_4_" filterUnits="userSpaceOnUse" x="126.2" y="12.7" width="4.5" height="4.5"><feColorMatrix values="1 0 0 0 0 0 1 0 0 0 0 0 1 0 0 0 0 0 1 0"/></filter></defs><mask maskUnits="userSpaceOnUse" x="126.2" y="12.7" width="4.5" height="4.5" id="mask-2_5_"><g class="st9"><path id="path-1_5_" class="st1" d="M0 52.9h189.6V0H0z"/></g></mask><path id="Fill-10" class="st10" d="M128.4 12.7c-1.2 0-2.3 1-2.3 2.3 0 1.3 1 2.3 2.3 2.3 1.3 0 2.3-1 2.3-2.3 0-1.3-1-2.3-2.3-2.3"/><defs><filter id="Adobe_OpacityMaskFilter_5_" filterUnits="userSpaceOnUse" x="116.3" y="14.9" width="7.6" height="19.6"><feColorMatrix values="1 0 0 0 0 0 1 0 0 0 0 0 1 0 0 0 0 0 1 0"/></filter></defs><mask maskUnits="userSpaceOnUse" x="116.3" y="14.9" width="7.6" height="19.6" id="mask-2_6_"><g class="st11"><path id="path-1_6_" class="st1" d="M0 52.9h189.6V0H0z"/></g></mask><path id="Fill-11" class="st12" d="M116.3 22.5v6.4c0 2.2.5 3.6 1.4 4.5 1.2 1 3.2 1.3 6.2.8v-3c-1.7.1-2.7.1-3.3-.5-.4-.3-.5-.8-.5-1.7v-6.6h3.8v-3.2H120v-4.5l-3.7 1.1v6.7z"/><defs><filter id="Adobe_OpacityMaskFilter_6_" filterUnits="userSpaceOnUse" x="90.4" y="19.1" width="12.9" height="15.4"><feColorMatrix values="1 0 0 0 0 0 1 0 0 0 0 0 1 0 0 0 0 0 1 0"/></filter></defs><mask maskUnits="userSpaceOnUse" x="90.4" y="19.1" width="12.9" height="15.4" id="mask-2_7_"><g class="st13"><path id="path-1_7_" class="st1" d="M0 52.9h189.6V0H0z"/></g></mask><path id="Fill-12" class="st14" d="M99.9 28.2v1.2c0 .7-.9 2-3.2 2-2 0-2.7-.6-2.7-1.8 0-1.2.7-1.7 2.8-1.7h3v.3zm-2.7-9.1c-3.9 0-5.9 1.7-6.1 4.5h3.8c.1-1.2.8-1.7 2.3-1.7 1.4 0 2.5.9 2.5 2.2v.9h-3.9c-3.8 0-5.4 1.8-5.4 4.7 0 2.9 1.8 4.7 5 4.7 2.1 0 3.7-.7 4.5-2l.1-.3V34h3.3v-9.6c0-3.3-2.2-5.3-6.1-5.3z"/><defs><filter id="Adobe_OpacityMaskFilter_7_" filterUnits="userSpaceOnUse" x="15.3" y="8.3" width="44.3" height="37"><feColorMatrix values="1 0 0 0 0 0 1 0 0 0 0 0 1 0 0 0 0 0 1 0"/></filter></defs><mask maskUnits="userSpaceOnUse" x="15.3" y="8.3" width="44.3" height="37" id="mask-2_8_"><g class="st15"><path id="path-1_8_" class="st1" d="M0 52.9h189.6V0H0z"/></g></mask><path id="Fill-13" class="st16" d="M37.5 8.3c-10.4 0-22.2.9-22.2 18.5s13.4 18.5 22.2 18.5c8.8 0 22.2-.8 22.2-18.5S47.9 8.3 37.5 8.3"/><defs><filter id="Adobe_OpacityMaskFilter_8_" filterUnits="userSpaceOnUse" x="19.6" y="14.6" width="35.9" height="26.4"><feColorMatrix values="1 0 0 0 0 0 1 0 0 0 0 0 1 0 0 0 0 0 1 0"/></filter></defs><mask maskUnits="userSpaceOnUse" x="19.6" y="14.6" width="35.9" height="26.4" id="mask-2_9_"><g class="st17"><path id="path-1_9_" class="st1" d="M0 52.9h189.6V0H0z"/></g></mask><path id="Fill-14" class="st18" d="M51.9 26.6l-4.3-4.3c-1.8-1.8-3.5-3.9-7.1.2l7.8 7.7-3.6 3.6-11.6-11.6c-1.9-1.9-3.7-3.7-7 .3L41 37.4 37.5 41l-18-18c9.8-13.9 14.5-7.2 17.6-4 7-7.3 10.2-4.4 14.5.1l3.9 3.9-3.6 3.6z"/></g></g></svg>