<svg width="161" height="38" viewBox="0 0 161 38" xmlns="http://www.w3.org/2000/svg" xmlns:xlink="http://www.w3.org/1999/xlink"><title>Page 1 Copy</title><defs><path id="a" d="M0 52.873h189.63V0H0z"/></defs><g transform="translate(-15 -8)" fill="none" fill-rule="evenodd"><path d="M106.152 34.18h3.75v-9.787c0-.649.18-1.136.55-1.487.772-.735 2.267-.743 4.147-.655v-3.005c-3.547-.51-6.068-.032-7.297 1.385l-.051.06c-.015.014-1.094 1.068-1.1 3.7v9.79zm-21.644 0h3.75v-9.688c0-3.455-2.186-5.435-5.996-5.435-1.636 0-2.986.36-4.014 1.074l-.151.105-.153-.104c-1.027-.715-2.357-1.075-3.954-1.075-3.83 0-6.026 1.98-6.026 5.435v9.688h3.75v-9.955c0-1.258.851-2.01 2.276-2.01 1.428 0 2.246.733 2.246 2.01v9.955h3.75v-9.955c0-1.258.85-2.01 2.276-2.01 1.428 0 2.246.733 2.246 2.01v9.955z" fill="#FFF"/><mask id="b" fill="#fff"><use xlink:href="#a"/></mask><path fill="#FFF" mask="url(#b)" d="M126.47 34.18h3.75V19.353h-3.75zm15.737 0h3.75v-9.275c0-3.717-2.347-5.848-6.44-5.848-4.11 0-6.468 2.13-6.468 5.848v9.275h3.75v-9.57c0-1.5 1.017-2.395 2.719-2.395 1.709 0 2.69.873 2.69 2.395v9.57zm6.022-14.828v9.275c0 3.717 2.347 5.848 6.44 5.848 4.11 0 6.468-2.13 6.468-5.848v-9.275h-3.75v9.57c0 1.5-1.017 2.394-2.719 2.394-1.709 0-2.69-.872-2.69-2.394v-9.57h-3.75zm14.966 10.488v.176c0 2.876 2.234 4.46 6.291 4.46 2.885 0 6.322-.81 6.322-4.668 0-2.178-1.53-3.69-4.307-4.258l-2.837-.59c-1.056-.206-1.571-.66-1.571-1.385 0-1 .815-1.508 2.423-1.508.593 0 2.394 0 2.394 1.597v.03h3.75v-.178c0-2.875-2.181-4.46-6.144-4.46-4.039 0-6.173 1.594-6.173 4.608 0 2.217 1.529 3.75 4.306 4.318l2.838.59c1.056.207 1.57.659 1.57 1.384 0 .689-.445 1.508-2.57 1.508-2.1 0-2.542-.868-2.542-1.596v-.029h-3.75zm-34.76-17.164a2.27 2.27 0 0 0-2.266 2.266 2.27 2.27 0 0 0 2.266 2.267 2.269 2.269 0 0 0 2.267-2.267 2.269 2.269 0 0 0-2.267-2.266m-12.093 9.835l-.001 6.411c0 2.196.457 3.61 1.437 4.45 1.162.999 3.175 1.275 6.154.845v-3.006c-1.68.081-2.75.074-3.328-.477-.355-.336-.512-.85-.512-1.664v-6.559h3.84v-3.16h-3.857v-4.495l-3.733 1.058v6.597zm-16.486 5.643v1.172c0 .7-.925 1.99-3.172 1.99-2.046 0-2.69-.64-2.69-1.839 0-1.247.706-1.733 2.842-1.733h3.02v.41zm-2.637-9.098c-3.867 0-5.932 1.726-6.08 4.486h3.756c.09-1.159.794-1.655 2.324-1.655 1.44 0 2.486.86 2.486 2.246v.942h-3.864c-3.754 0-5.445 1.81-5.445 4.701 0 2.89 1.808 4.7 4.962 4.7 2.068 0 3.725-.681 4.502-1.969l.148-.269v1.943h3.297V24.55c0-3.49-2.219-5.494-6.086-5.494z"/><path d="M37.527 8.28c-10.363 0-22.181.896-22.181 18.478 0 17.58 13.372 18.493 22.18 18.493 8.81 0 22.165-.773 22.165-18.493C59.69 9.09 47.932 8.28 37.527 8.28" fill="#D22121" mask="url(#b)"/><path d="M51.94 26.617l-4.314-4.314c-1.804-1.804-3.546-3.89-7.09.218l7.75 7.749-3.554 3.554L33.148 22.24c-1.893-1.893-3.723-3.726-7.016.291l14.946 14.945v.001l-3.553 3.553L19.55 23.056c9.806-13.877 14.488-7.166 17.559-3.953 6.957-7.326 10.177-4.417 14.485.063l3.897 3.897-3.552 3.554z" fill="#FFF" mask="url(#b)"/></g></svg>