<svg width="1280" height="61" viewBox="0 0 1280 61" xmlns="http://www.w3.org/2000/svg"><g fill="transparent" fill-rule="evenodd"><path fill="#E58A40" d="M6 12h13v48H6z"/><path fill="#C3362D" d="M741 7h20v53h-20zm32 0h9v53h-9z"/><path fill="#57A858" d="M362 7h20v53h-20zm745 0h20v53h-20z"/><path fill="#6E4430" d="M637 7h20v53h-20z"/><path fill="#926AA3" d="M239 7h20v53h-20z"/><path fill="#BBBBBA" d="M506 7h20v53h-20z"/><path fill="#F3C361" d="M99 16h28v44H99zm775 0h13v44h-13z"/><path fill="#3F98C9" d="M425 16h13v44h-13zm745 0h13v44h-13z"/><path fill="#9BD2EF" d="M451 4h9v56h-9zm745 6h9v50h-9z"/><path fill="#57A758" d="M333 16h9v44h-9zm745 0h9v44h-9z"/><path fill="#E58A40" d="M591 16h28v44h-28z"/><path fill="#D57833" d="M37 4h26.11v56.25H37z"/><path fill="#D57120" d="M0 0h6v60H0z"/><path fill="#AB2825" d="M782 4h4v56h-4zm-21-4h4v60h-4z"/><path fill="#C3362D" d="M765 0h4v60h-4z"/><path fill="#D94334" d="M769 0h4v60h-4z"/><path fill="#3D7F44" d="M380 0h26v60h-26zm745 0h26v60h-26z"/><path fill="#8B5437" d="M657 0h26v60h-26z"/><path fill="#805993" d="M259 0h17v60h-17zm720 10h9v50h-9zM233 0h6v60h-6zm740 0h6v60h-6z"/><path fill="#704A84" d="M227 0h6v60h-6zm740 0h6v60h-6z"/><path fill="#805993" d="M221 0h6v60h-6zm740 0h6v60h-6z"/><path fill="#926AA3" d="M215 0h6v60h-6zm740 0h6v60h-6z"/><path fill="#E5C9B5" d="M799 21h10v39h-10z"/><path fill="#E2AE46" d="M127 4h13.056v56.25H127z"/><path fill="#4C934B" d="M342 4h13v56h-13zm745 0h13v56h-13zm-40 0h13v56h-13z"/><path fill="#3D7F44" d="M1034 4h13v56h-13z"/><path fill="#57A858" d="M1021 4h13v56h-13z"/><path fill="#4C934B" d="M327 0h6v60h-6zm745 0h6v60h-6z"/><path fill="#CE9132" d="M75 0h6v60h-6z"/><path fill="#53362A" d="M172 0h6v60h-6zm740 0h6v60h-6zM708 0h6v60h-6z"/><path fill="#C56827" d="M31 0h6v60h-6z"/><path fill="#57A858" d="M315 0h6v60h-6zm745 0h6v60h-6z"/><path fill="#F3C361" d="M63 0h6v60h-6zm779 0h6v60h-6z"/><path fill="#8B5437" d="M160 0h6v60h-6zm740 0h6v60h-6zM696 0h6v60h-6z"/><path fill="#E58A40" d="M19 0h6v60h-6z"/><path fill="#57A858" d="M309 4h6v56h-6z"/><path fill="#3D7F44" d="M321 0h6v60h-6zm745 0h6v60h-6z"/><path fill="#E2AE46" d="M69 0h6v60h-6zm779 0h6v60h-6z"/><path fill="#6E4430" d="M166 0h6v60h-6zm740 0h6v60h-6zM702 0h6v60h-6z"/><path fill="#AA6029" d="M25 0h6v60h-6z"/><path fill="#D47833" d="M618 4h13v56h-13z"/><path fill="#6E4430" d="M198 4h10v56h-10zm740 0h10v56h-10zM147 4h13v56h-13zm740 0h13v56h-13z"/><path fill="#8F8D89" d="M486 4h13.87v56.25H486z"/><path fill="#F3C361" d="M81 4h13v56H81zm773 0h13v56h-13z"/><path fill="#327EAC" d="M406 4h14v56h-14zm745 0h14v56h-14z"/><path fill="#6B9FC2" d="M1247 4h14v56h-14z"/><path fill="#53362A" d="M683 4h13v56h-13z"/><path fill="#704A84" d="M276 4h13v56h-13zm712 0h13v56h-13z"/><path fill="#CE9132" d="M539 4h14v56h-14z"/><path fill="#F3C361" d="M526 9h13v51h-13z"/><path fill="#E2AE46" d="M552 0h9v60h-9z"/><path fill="#F3C361" d="M561 4h7v56h-7z"/><path fill="#CE9132" d="M568 0h9v60h-9z"/><path fill="#D2B4A2" d="M809 4h13v56h-13z"/><path fill="#D94334" d="M786 4h13v56h-13zm-52-4h7v60h-7z"/><path fill="#7A533C" d="M208 0h7v60h-7zm740 0h7v60h-7z"/><path fill="#7C7874" d="M500 0h7v60h-7z"/><path fill="#F3C361" d="M140 6h7v54h-7z"/><path fill="#8F8D89" d="M460 6h7v54h-7z"/><path fill="#3D7F44" d="M355 6h7v54h-7zm745 0h7v54h-7z"/><path fill="#C46827" d="M631 6h7v54h-7z"/><path fill="#E2AE46" d="M94 0h7v60h-7zm773 0h7v60h-7z"/><path fill="#4CB2E4" d="M419 0h7v60h-7zm745 0h7v60h-7z"/><path fill="#4CB3E5" d="M1226 0h7v60h-7zm47 0h7v60h-7z"/><path fill="#AEDAF2" d="M1219 0h7v60h-7z"/><path fill="#88CAED" d="M1212 0h7v60h-7z"/><path fill="#5ABBE7" d="M1205 0h7v60h-7z"/><path fill="#3F98C9" d="M1233 0h7v60h-7z"/><path fill="#327EAC" d="M1240 0h7v60h-7z"/><path fill="#5ABBE7" d="M438 5h13v55h-13zm745 0h13v55h-13z"/><path fill="#63AAD3" d="M1261 7h13v53h-13z"/><path fill="#926AA3" d="M289 0h7v60h-7zm712 0h7v60h-7z"/><path fill="#F8DFC9" d="M822 0h7v60h-7z"/><path fill="#8B5437" d="M178 0h20v60h-20zm740 0h20v60h-20zM714 0h20v60h-20z"/><path fill="#7B7773" d="M467 0h20v60h-20z"/><path fill="#704A84" d="M296 9h13v51h-13zm712 0h13v51h-13z"/><path fill="#F3C361" d="M577 9h14v51h-14z"/><path fill="#D1B3A1" d="M829 9h13v51h-13z"/></g></svg>