<svg width="1280" height="5" viewBox="0 0 1280 5" xmlns="http://www.w3.org/2000/svg"><title>Group 63 Copy</title><g fill="none" fill-rule="evenodd"><path fill="#E58A40" d="M31 0h32v5H31z"/><path fill="#C3362D" d="M1089 0h32v5h-32z"/><path fill="#57A858" d="M479 0h32v5h-32z"/><path fill="#6E4430" d="M927 0h32v5h-32z"/><path fill="#926AA3" d="M275 0h32v5h-32z"/><path fill="#BBBBBA" d="M724 0h32v5h-32z"/><path fill="#F3C361" d="M135 0h45v5h-45z"/><path fill="#3F98C9" d="M584 0h45v5h-45z"/><path fill="#53362A" d="M1033 0h45v5h-45z"/><path fill="#57A758" d="M401 0h46v5h-46z"/><path fill="#E58A40" d="M851 0h45v5h-45z"/><path fill="#D57833" d="M62 0h42v5H62z"/><path fill="#AB2825" d="M1120 0h42v5h-42z"/><path fill="#3D7F44" d="M510 0h42v5h-42z"/><path fill="#8B5437" d="M959 0h42v5h-42z"/><path fill="#805993" d="M307 0h42v5h-42z"/><path fill="#F3C361" d="M756 0h42v5h-42z"/><path fill="#E5C9B5" d="M1183 0h42v5h-42z"/><path fill="#E2AE46" d="M180 0h21v5h-21z"/><path fill="#327EAC" d="M629 0h21v5h-21z"/><path fill="#4C934B" d="M447 0h21v5h-21z"/><path fill="#D47833" d="M896 0h21v5h-21z"/><path fill="#C56827" d="M0 0h21v5H0z"/><path fill="#6E4430" d="M243 0h21v5h-21z"/><path fill="#8F8D89" d="M692 0h22v5h-22z"/><path fill="#F3C361" d="M104 0h21v5h-21z"/><path fill="#327EAC" d="M552 0h22v5h-22z"/><path fill="#53362A" d="M1001 0h21v5h-21z"/><path fill="#704A84" d="M349 0h21v5h-21z"/><path fill="#CD9031" d="M797 0h22v5h-22z"/><path fill="#D2B4A2" d="M1225 0h21v5h-21z"/><path fill="#D94334" d="M1162 0h21v5h-21z"/><path fill="#C56827" d="M21 0h10v5H21z"/><path fill="#D94334" d="M1078 0h11v5h-11z"/><path fill="#7A533C" d="M264 0h11v5h-11z"/><path fill="#7C7874" d="M714 0h10v5h-10z"/><path fill="#F3C361" d="M201 0h11v5h-11z"/><path fill="#8F8D89" d="M650 0h10v5h-10z"/><path fill="#3D7F44" d="M468 0h11v5h-11z"/><path fill="#C46827" d="M917 0h10v5h-10z"/><path fill="#E2AE46" d="M125 0h10v5h-10z"/><path fill="#4CB2E4" d="M574 0h10v5h-10z"/><path fill="#604435" d="M1022 0h11v5h-11z"/><path fill="#926AA3" d="M370 0h10v5h-10z"/><path fill="#E2AE46" d="M819 0h10v5h-10z"/><path fill="#F8DFC9" d="M1246 0h11v5h-11z"/><path fill="#8B5437" d="M212 0h32v5h-32z"/><path fill="#7B7773" d="M660 0h32v5h-32z"/><path fill="#704A84" d="M380 0h21v5h-21z"/><path fill="#F3C361" d="M829 0h22v5h-22z"/><path fill="#D1B3A1" d="M1257 0h23v5h-23z"/></g></svg>