<?xml version="1.0" standalone="no"?>
<!DOCTYPE svg PUBLIC "-//W3C//DTD SVG 1.1//EN" "http://www.w3.org/Graphics/SVG/1.1/DTD/svg11.dtd" >
<svg>
<metadata>
Created by FontForge 20120731 at Thu Jun  9 17:39:33 2016
 By ,,,
Copyright 2010 Yrsa and Rasa Project Authors (info@rosettatype.com)
</metadata>
<defs>
<font id="Yrsa-Bold" horiz-adv-x="0" >
  <font-face 
    font-family="Yrsa"
    font-weight="700"
    font-stretch="normal"
    units-per-em="1000"
    panose-1="2 13 0 0 0 4 0 0 0 0"
    ascent="800"
    descent="-200"
    x-height="414"
    cap-height="568"
    bbox="-169 -225 1144 855"
    underline-thickness="56"
    underline-position="16"
    unicode-range="U+000D-25CA"
  />
<missing-glyph horiz-adv-x="644" 
d="M160 141l43 -49l118 128l123 -128l41 41l-127 124l127 122l-44 42l-119 -128l-121 128l-41 -42l125 -123zM64 0v515h515v-515h-515z" />
    <glyph glyph-name="f_b" unicode="fb" horiz-adv-x="812" 
d="M305 0h-276v52l39 7q17 3 17 20v262l-61 11v50l64 12v23q0 79 69.5 148t151.5 69q45 0 94 -29q57 23 95 30l17 -16v-259q45 45 113 45q69 0 111.5 -49.5t42.5 -147.5q0 -113 -60 -174.5t-173 -61.5q-98 0 -163 28v520q-37 12 -83 12q-38 0 -64 -18t-26 -61v-60h116v-70
h-115v-264q0 -17 18 -19l73 -8v-52zM559 43q82 0 85 161q1 79 -18 111.5t-58 32.5q-27 0 -53 -14v-281q20 -10 44 -10z" />
    <glyph glyph-name="f_f" unicode="ff" horiz-adv-x="648" 
d="M294 0h-265v52l39 7q17 3 17 20v262l-61 11v50l64 11l1 9q3 78 63 143.5t132 65.5q51 0 107 -38l-28 -74q-52 11 -75 10q-38 -1 -56 -16.5t-18 -60.5v-39h183v16q0 80 61 152.5t132 72.5q52 0 110 -39l-26 -74q-55 11 -80 10q-38 -1 -55 -16.5t-17 -61.5v-60h115v-70
h-114v-264q0 -17 17 -19l75 -8v-52h-274v52l36 7q17 3 17 20v264h-180v-264q0 -17 18 -19l62 -8v-52z" />
    <glyph glyph-name="f_h" unicode="fh" horiz-adv-x="850" 
d="M294 0h-265v52l39 7q17 3 17 20v262l-61 11v50l64 12v23q0 79 70.5 148t153.5 69q49 0 97 -30q50 21 96 31l18 -17v-263q51 48 129 48q70 0 98.5 -39t28.5 -118v-186q0 -18 16 -21l40 -7v-52h-228v52l24 7q16 6 16 21v172q0 50 -14.5 71.5t-47.5 21.5q-31 0 -62 -17v-248
q0 -15 16 -21l24 -7v-52h-225v52l39 7q17 3 17 21v460q-41 12 -89 12q-38 0 -65 -18.5t-27 -60.5v-60h116v-70h-115v-264q0 -17 18 -19l62 -8v-52z" />
    <glyph glyph-name="f_k" unicode="fk" horiz-adv-x="836" 
d="M294 0h-265v52l39 7q17 3 17 20v262l-61 11v50l64 12v23q0 79 70.5 148t153.5 69q49 0 97 -30q50 21 96 31l18 -17v-428l134 142l-67 12v49h217v-49l-42 -11q-26 -5 -38 -17l-68 -67q21 -25 47 -75l58 -111q9 -16 25 -20l39 -11v-52h-151q-16 0 -26.5 15.5t-25.5 48.5
q-2 5 -3 7l-32 73q-11 25 -20 39l-47 -46v-57q0 -18 16 -21l38 -7v-52h-239v52l39 7q17 3 17 21v460q-41 12 -89 12q-38 0 -65 -18.5t-27 -60.5v-60h116v-70h-115v-264q0 -17 18 -19l62 -8v-52z" />
    <glyph glyph-name="f_l" unicode="fl" horiz-adv-x="600" 
d="M294 0h-265v52l39 7q17 3 17 20v262l-61 11v50l64 12v23q0 79 70.5 148t153.5 69q49 0 97 -30q50 21 96 31l18 -17v-558q0 -18 17 -21l44 -7v-52h-246v52l39 7q17 3 17 20v461q-41 12 -89 12q-38 0 -65 -18.5t-27 -60.5v-60h116v-70h-115v-264q0 -17 18 -19l62 -8v-52z
" />
    <glyph glyph-name="f_f_b" unicode="ffb" horiz-adv-x="1121" 
d="M294 0h-265v52l39 7q17 3 17 20v262l-61 11v50l64 11l1 9q3 78 63 143.5t132 65.5q51 0 107 -38l-28 -74q-52 11 -75 10q-38 -1 -56 -16.5t-18 -60.5v-39h183v24q0 79 69 148t151 69q46 0 94 -29q60 24 96 30l17 -16v-259q45 45 113 45q69 0 111.5 -49.5t42.5 -147.5
q0 -113 -60 -174.5t-173 -61.5q-98 0 -163 28v520q-37 12 -84 12q-37 0 -63 -18.5t-26 -60.5v-60h115v-70h-114v-264q0 -17 17 -19l74 -8v-52h-276v52l39 7q17 3 17 20v264h-180v-264q0 -17 18 -19l62 -8v-52zM867 43q84 0 85 161q1 79 -17.5 111.5t-57.5 32.5
q-27 0 -53 -14v-281q20 -10 43 -10z" />
    <glyph glyph-name="f_f_h" unicode="ffh" horiz-adv-x="1159" 
d="M294 0h-265v52l39 7q17 3 17 20v262l-61 11v50l64 11l1 9q3 78 63 143.5t132 65.5q51 0 107 -38l-28 -74q-52 11 -75 10q-38 -1 -56 -16.5t-18 -60.5v-39h183v24q0 79 70.5 148t152.5 69q48 0 98 -30q51 22 95 31l18 -17v-264q50 49 129 49q70 0 98.5 -39t28.5 -118v-186
q0 -18 17 -21l40 -7v-52h-229v52l25 7q16 6 16 21v172q0 50 -14.5 71.5t-47.5 21.5q-32 0 -63 -18v-247q0 -15 16 -21l25 -7v-52h-225v52l39 7q17 3 17 21v459q-39 13 -89 13q-38 0 -65 -18.5t-27 -60.5v-60h115v-70h-114v-264q0 -17 17 -19l63 -8v-52h-265v52l39 7
q17 3 17 20v264h-180v-264q0 -17 18 -19l62 -8v-52z" />
    <glyph glyph-name="f_f_k" unicode="ffk" horiz-adv-x="1144" 
d="M294 0h-265v52l39 7q17 3 17 20v262l-61 11v50l64 11l1 9q3 78 63 143.5t132 65.5q51 0 107 -38l-28 -74q-52 11 -75 10q-38 -1 -56 -16.5t-18 -60.5v-39h183v24q0 79 70.5 148t152.5 69q48 0 98 -30q51 22 95 31l18 -17v-429l135 143l-67 12v49h217v-49l-43 -11
q-25 -5 -38 -17l-68 -66q22 -26 48 -76l58 -111q7 -16 25 -20l39 -11v-52h-151q-16 0 -26.5 15.5t-25.5 48.5q-2 5 -3 7l-32 73q-8 18 -20 39l-48 -47v-56q0 -18 17 -21l38 -7v-52h-239v52l39 7q17 3 17 21v459q-39 13 -89 13q-38 0 -65 -18.5t-27 -60.5v-60h115v-70h-114
v-264q0 -17 17 -19l63 -8v-52h-265v52l39 7q17 3 17 20v264h-180v-264q0 -17 18 -19l62 -8v-52z" />
    <glyph glyph-name="f_f_l" unicode="ffl" horiz-adv-x="908" 
d="M294 0h-265v52l39 7q17 3 17 20v262l-61 11v50l64 11l1 9q3 78 63 143.5t132 65.5q51 0 107 -38l-28 -74q-52 11 -75 10q-38 -1 -56 -16.5t-18 -60.5v-39h183v24q0 79 70.5 148t152.5 69q48 0 98 -30q51 22 95 31l18 -17v-558q0 -18 17 -21l44 -7v-52h-245v52l39 7
q17 3 17 20v460q-39 13 -89 13q-38 0 -65 -18.5t-27 -60.5v-60h115v-70h-114v-264q0 -17 17 -19l63 -8v-52h-265v52l39 7q17 3 17 20v264h-180v-264q0 -17 18 -19l62 -8v-52z" />
    <glyph glyph-name=".notdef" horiz-adv-x="644" 
d="M160 141l43 -49l118 128l123 -128l41 41l-127 124l127 122l-44 42l-119 -128l-121 128l-41 -42l125 -123zM64 0v515h515v-515h-515z" />
    <glyph glyph-name=".null" 
 />
    <glyph glyph-name="uni000D" unicode="&#xd;" 
 />
    <glyph glyph-name="space" unicode=" " horiz-adv-x="188" 
 />
    <glyph glyph-name="exclam" unicode="!" horiz-adv-x="258" 
d="M57 546v77h144v-77l-33 -361h-78zM202 59q0 -29 -20 -47t-53 -18t-53 18t-20 47q0 30 20 48t53 18t53 -18t20 -48z" />
    <glyph glyph-name="quotedbl" unicode="&#x22;" horiz-adv-x="407" 
d="M60 310l-19 319h116l-20 -319h-77zM270 310l-19 319h116l-20 -319h-77z" />
    <glyph glyph-name="numbersign" unicode="#" horiz-adv-x="547" 
d="M94 0l15 127h-75l-1 66h84l14 120h-86v65h95l13 121h98l-13 -121h98l13 121h98l-14 -121h83l-1 -65h-92l-12 -120h88l1 -66h-97l-14 -127h-98l14 127h-99l-14 -127h-98zM215 193h96l14 120h-98z" />
    <glyph glyph-name="dollar" unicode="$" horiz-adv-x="448" 
d="M420 154q0 -57 -43.5 -99t-132.5 -48v-83h-71v84q-73 8 -136 36q-4 70 9 141h77l14 -77q2 -14 14 -24q29 -23 72 -23q31 0 49.5 14.5t18.5 38.5q0 29 -25 47.5t-78 42.5q-9 4 -14 6q-65 30 -99.5 62.5t-34.5 83.5q0 56 43 94.5t124 44.5v84h72v-85q63 -6 110 -25
q5 -66 -8 -133h-74l-16 70q-3 17 -14 25q-17 13 -52 13q-30 0 -46 -13t-16 -35q0 -9 2.5 -17t9.5 -15.5t12.5 -12.5t19 -12t20.5 -10.5t25.5 -12t26.5 -12.5q72 -34 106.5 -67t34.5 -83z" />
    <glyph glyph-name="percent" unicode="%" horiz-adv-x="753" 
d="M244 0h-86l352 568h86zM328 416q0 -80 -44.5 -123.5t-111.5 -43.5q-69 0 -108 42.5t-39 113.5q0 80 45 123.5t112 43.5q69 0 107.5 -42.5t38.5 -113.5zM128 417q0 -118 52 -118q45 0 45 105q0 118 -52 118q-45 0 -45 -105zM729 162q0 -80 -45 -123.5t-112 -43.5
q-69 0 -108 42.5t-39 113.5q0 80 45 123.5t112 43.5q69 0 108 -42.5t39 -113.5zM529 163q0 -118 51 -118q45 0 45 106q0 117 -51 117q-45 0 -45 -105z" />
    <glyph glyph-name="ampersand" unicode="&#x26;" horiz-adv-x="609" 
d="M207 461q0 -49 51 -120q48 47 48 121t-46 74q-53 0 -53 -75zM258 46q38 0 72 17q-63 58 -152 171q-30 -34 -30 -78q0 -50 29.5 -80t80.5 -30zM581 264l-37 -12q-11 -3 -14 -21q-15 -75 -70 -122q32 -29 55 -37.5t62 -8.5v-54q-48 -16 -100 -16q-54 0 -106 37
q-58 -41 -148 -41q-89 0 -141.5 36.5t-52.5 111.5q0 110 116 141q-60 86 -60 152q0 68 49 108.5t131 40.5q74 0 113 -33.5t39 -93.5q0 -110 -130 -150q73 -92 138 -159q23 38 23 86q0 19 -13 23l-56 12v55h202v-55z" />
    <glyph glyph-name="quotesingle" unicode="'" horiz-adv-x="197" 
d="M60 310l-19 319h116l-20 -319h-77z" />
    <glyph glyph-name="parenleft" unicode="(" horiz-adv-x="272" 
d="M259 -128l-40 -41q-18 16 -33 31t-47 58t-53.5 89t-39 120t-17.5 155q0 93 23.5 177.5t58 140t62 88.5t46.5 47l40 -41q-20 -33 -33.5 -60t-33.5 -79t-31 -119t-11 -144q0 -83 10.5 -154.5t31.5 -126t33.5 -80t33.5 -61.5z" />
    <glyph glyph-name="parenright" unicode=")" horiz-adv-x="272" 
d="M243 283q0 -93 -23.5 -177.5t-58 -140t-62 -88t-46.5 -46.5l-40 41q20 33 33.5 60t33.5 79t31 119t11 144q0 83 -10.5 154t-32 126.5t-33 79.5t-33.5 62l40 41q18 -16 33 -31t47 -58t53.5 -89t39 -120.5t17.5 -155.5z" />
    <glyph glyph-name="asterisk" unicode="*" horiz-adv-x="443" 
d="M239 499l69 72l45 33l51 -88l-52 -23l-96 -24l96 -24l52 -22l-51 -88l-45 33l-69 72l27 -96l7 -56h-103l7 56l27 96l-69 -72l-45 -33l-51 88l52 22l96 24l-96 24l-52 23l51 88l45 -33l69 -72l-27 96l-7 56h103l-7 -56z" />
    <glyph glyph-name="plus" unicode="+" horiz-adv-x="401" 
d="M244 50h-87v80l3 55l-55 -2h-75v80h75l55 -3l-3 55v81h87v-81l-3 -55l55 3h75v-80h-75l-55 2l3 -55v-80z" />
    <glyph glyph-name="comma" unicode="," horiz-adv-x="226" 
d="M189 30q0 -63 -40 -117t-97 -85l-25 32q65 61 65 113q0 8 -2.5 13.5t-4.5 7.5t-8 6l-9 6q-31 21 -31 58q0 31 19.5 49.5t50.5 18.5q37 0 59.5 -27.5t22.5 -74.5z" />
    <glyph glyph-name="hyphen" unicode="-" horiz-adv-x="375" 
d="M47 175v84h281v-84h-281z" />
    <glyph glyph-name="period" unicode="." horiz-adv-x="227" 
d="M187 61q0 -31 -20 -49t-54 -18q-33 0 -53 18t-20 49t20 49t53 18q34 0 54 -18t20 -49z" />
    <glyph glyph-name="slash" unicode="/" horiz-adv-x="376" 
d="M123 -105h-103l235 738h102z" />
    <glyph glyph-name="zero" unicode="0" horiz-adv-x="507" 
d="M185 269q0 102 16 145t51 43q38 0 54.5 -50.5t16.5 -171.5q0 -102 -16.5 -146t-51.5 -44q-38 0 -54 51.5t-16 172.5zM40 246q0 -257 207 -257q101 0 160.5 67t59.5 202q0 255 -206 255q-101 0 -161 -66.5t-60 -200.5z" />
    <glyph glyph-name="one" unicode="1" horiz-adv-x="363" 
d="M265 503v-420q0 -17 17 -20l70 -12v-51h-318v51l86 13q18 2 18 20v304q-49 -9 -95 -9l-9 54q43 10 91 34t75 47z" />
    <glyph glyph-name="two" unicode="2" horiz-adv-x="456" 
d="M405 0h-358l-24 68q133 113 181.5 168t48.5 104q0 36 -21.5 56t-53.5 20q-55 0 -100 -60l-39 36q22 54 70.5 87.5t117.5 33.5q72 0 119.5 -41.5t47.5 -110.5q0 -70 -59.5 -134t-199.5 -146h84q48 0 76 7q20 5 25 18l34 73l67 -8q0 -100 -16 -171z" />
    <glyph glyph-name="three" unicode="3" horiz-adv-x="433" 
d="M401 147q0 -71 -60 -115t-146 -44q-105 0 -175 72l33 46q51 -40 113 -40q40 0 66 22t27 64q0 33 -19.5 55.5t-52.5 26.5q-1 0 -23 -5t-31 -6l-14 56q115 29 115 98q0 23 -15 38.5t-39 15.5q-28 0 -55 -14t-43 -33l-39 36q61 93 179 93q64 0 107 -30t43 -89q0 -44 -36 -79
t-83 -47q55 3 101.5 -29t46.5 -92z" />
    <glyph glyph-name="four" unicode="4" horiz-adv-x="463" 
d="M31 88l-26 56q100 156 192 359h114l18 -23q-75 -146 -120.5 -217t-99.5 -113l141 7l13 111l106 6v-111l77 4v-79h-77v-88h-120v88h-218z" />
    <glyph glyph-name="five" unicode="5" horiz-adv-x="435" 
d="M55 107q51 -41 108 -41q44 0 71.5 26t27.5 70q0 40 -23 64t-62 24q-29 0 -77 -23l-43 28l20 247h299l-11 -94h-215l-16 -114q41 34 106 34q74 0 119 -42.5t45 -113.5q0 -82 -59.5 -133t-149.5 -51q-54 0 -100.5 19.5t-73.5 53.5z" />
    <glyph glyph-name="six" unicode="6" horiz-adv-x="471" 
d="M244 -12q-96 0 -152.5 60.5t-56.5 171.5q0 131 74 212t187 81q72 0 116 -26l-19 -55q-33 11 -61 11q-61 0 -103.5 -41t-52.5 -117q42 44 118 44q68 0 108 -43.5t40 -113.5q0 -81 -53 -132.5t-145 -51.5zM250 46q29 0 46 27t17 77q0 52 -20 79.5t-54 27.5q-37 0 -66 -17
v-34q0 -77 21 -118.5t56 -41.5z" />
    <glyph glyph-name="seven" unicode="7" horiz-adv-x="424" 
d="M336 424h-103q-54 0 -80 -8q-16 -4 -22 -19l-32 -86h-67q-7 89 5 191h349l30 -65q-75 -101 -115.5 -202.5t-48.5 -234.5h-119l-18 20q6 110 67.5 216.5t153.5 187.5z" />
    <glyph glyph-name="eight" unicode="8" horiz-adv-x="476" 
d="M33 121q0 44 27 78t73 50q-75 51 -75 124q0 63 49.5 101.5t134.5 38.5q78 0 126 -32.5t48 -86.5q0 -38 -24 -68t-64 -45q54 -28 84.5 -61t30.5 -85q0 -69 -56.5 -108t-153.5 -39q-92 0 -146 35.5t-54 97.5zM177 404q0 -30 23.5 -51t71.5 -45q31 29 31 76q0 36 -18.5 55.5
t-48.5 19.5q-27 0 -43 -15t-16 -40zM238 44q33 0 51.5 18.5t18.5 45.5q0 32 -25 53t-80 49q-9 5 -14 7l-1 1q-39 -34 -39 -86q0 -42 26 -65t63 -23z" />
    <glyph glyph-name="nine" unicode="9" horiz-adv-x="471" 
d="M232 245q36 0 65 17v31q0 75 -20.5 119t-56.5 44q-30 0 -46.5 -28.5t-16.5 -76.5q0 -51 20.5 -78.5t54.5 -27.5zM225 513q98 0 154.5 -61.5t56.5 -178.5q0 -134 -69.5 -209.5t-175.5 -75.5q-84 0 -135 41l20 52q40 -21 89 -21q50 0 87 39t44 118q-46 -44 -117 -44
q-70 0 -110 43t-40 112q0 82 52 133.5t144 51.5z" />
    <glyph glyph-name="colon" unicode=":" horiz-adv-x="248" 
d="M197 361q0 -30 -20 -48t-53 -18q-34 0 -53.5 18t-19.5 48q0 31 19.5 49t53.5 18q33 0 53 -18t20 -49zM197 61q0 -31 -20 -49t-53 -18q-34 0 -53.5 18t-19.5 49t19.5 49t53.5 18q33 0 53 -18t20 -49z" />
    <glyph glyph-name="semicolon" unicode=";" horiz-adv-x="250" 
d="M202 30q0 -63 -40 -117t-97 -85l-25 32q66 62 66 113q0 8 -2.5 13.5t-4.5 7.5t-8.5 6t-9.5 6q-30 21 -30 58q0 30 19.5 49t49.5 19q37 0 59.5 -27.5t22.5 -74.5zM197 363q0 -31 -19.5 -49t-53.5 -18q-33 0 -53 18t-20 49t20 49t53 18q34 0 53.5 -18t19.5 -49z" />
    <glyph glyph-name="less" unicode="&#x3c;" horiz-adv-x="405" 
d="M367 113l-37 -82l-304 157v69l304 157l37 -81l-238 -109z" />
    <glyph glyph-name="equal" unicode="=" horiz-adv-x="439" 
d="M387 264h-342v83h342v-83zM387 99h-342v82h342v-82z" />
    <glyph glyph-name="greater" unicode="&#x3e;" horiz-adv-x="405" 
d="M379 188l-304 -157l-38 82l239 110l-239 110l38 81l304 -157v-69z" />
    <glyph glyph-name="question" unicode="?" horiz-adv-x="421" 
d="M223 185h-75q-32 53 -32 89q0 9 1.5 17t6.5 16.5t8 14t12 14.5t13.5 13t16.5 15t17 15q72 67 72 125q0 31 -16.5 51.5t-42.5 20.5q-29 0 -47 -22q-11 -13 -14 -37l-11 -86h-78q-24 73 -29 149q72 59 172 59q89 0 144.5 -49t55.5 -122q0 -53 -30 -91t-92 -81
q-33 -24 -37 -32q-4 -7 -7 -25zM259 59q0 -29 -20 -47t-53 -18q-34 0 -53.5 18t-19.5 47q0 30 19.5 48t53.5 18q33 0 53 -18t20 -48z" />
    <glyph glyph-name="at" unicode="@" horiz-adv-x="773" 
d="M333 -192q-140 0 -221 84.5t-83 228.5q-2 189 122.5 318.5t300.5 129.5q128 0 208 -73.5t80 -202.5q0 -72 -27 -134t-65 -98t-76 -56t-64 -20q-25 0 -39.5 19.5t-14.5 55.5q0 24 11 98q-28 -79 -67 -130.5t-87 -51.5q-47 0 -82 45t-35 121q0 98 57 176t148 78
q43 0 90 -25l24 25l71 -22q-42 -210 -42 -265q0 -46 21 -46q31 0 67.5 56t36.5 145q0 65 -22.5 114t-60 75t-79 38.5t-87.5 12.5q-135 0 -220.5 -97t-85.5 -253q0 -140 68.5 -210t174.5 -70q41 0 84 9t63 23l20 -43q-66 -55 -189 -55zM449 244q7 24 12 45q-14 18 -36 29
t-41 11q-41 0 -64.5 -47t-23.5 -106q0 -40 11 -71.5t31 -31.5q24 0 56.5 47.5t54.5 123.5z" />
    <glyph glyph-name="A" unicode="A" horiz-adv-x="584" 
d="M357 570l166 -488q5 -14 20 -18l45 -12v-52h-273v52l70 12l-32 102h-185l-31 -102l69 -12v-52h-212v52l49 12q15 4 19 18l166 488h129zM334 228l-74 239l-73 -239h147z" />
    <glyph glyph-name="B" unicode="B" horiz-adv-x="578" 
d="M511 439q0 -110 -100 -136q62 -5 100 -39.5t38 -95.5q0 -81 -55.5 -126.5t-188.5 -45.5q-28 0 -67 2t-62 2h-144v52l59 11q15 3 15 18v403q0 15 -15 17l-59 12v55h142q23 0 65.5 2t68.5 2q115 0 159 -32t44 -101zM298 321q77 0 77 106q0 50 -20.5 72t-63.5 22
q-35 0 -48 -3v-196q22 -1 55 -1zM298 49q99 0 99 115q0 54 -23 76.5t-70 22.5q-15 0 -61 -2v-207q23 -5 55 -5z" />
    <glyph glyph-name="C" unicode="C" horiz-adv-x="531" 
d="M294 -13q-130 0 -195 73t-65 212q0 154 75 230.5t207 76.5q95 0 177 -31q6 -76 -8 -164h-81l-21 95q-7 21 -20 29q-23 16 -58 16q-116 0 -116 -238q0 -243 119 -243q41 0 64 22q10 10 16 28l25 84l80 -6q5 -77 -6 -152q-92 -32 -193 -32z" />
    <glyph glyph-name="D" unicode="D" horiz-adv-x="614" 
d="M173 568q25 0 67.5 2t62.5 2q140 0 208.5 -65t68.5 -204q0 -151 -75 -231t-211 -78q-14 0 -59 3t-61 3h-142v52l59 11q15 3 15 18v403q0 15 -15 17l-59 12v55h141zM244 59q16 -8 52 -8q67 1 100 53t33 178q0 237 -136 237q-21 0 -49 -7v-453z" />
    <glyph glyph-name="E" unicode="E" horiz-adv-x="528" 
d="M472 413h-65l-20 67q-4 16 -21 24q-26 8 -61 8h-61v-191l156 6v-75l-156 4v-197h77q45 0 66 8q12 6 19 24l31 90l65 -10q0 -79 -14 -171h-456v52l57 11q17 3 17 20v398q0 18 -17 21l-57 11v55h437q9 -69 3 -155z" />
    <glyph glyph-name="F" unicode="F" horiz-adv-x="490" 
d="M400 243l-156 4v-166q0 -15 16 -17l93 -12v-52h-321v52l58 11q16 3 16 19v399q0 18 -17 21l-57 11v55h437q9 -69 3 -155h-65l-20 67q-4 16 -21 24q-26 8 -61 8h-61v-200l156 5v-74z" />
    <glyph glyph-name="G" unicode="G" horiz-adv-x="580" 
d="M520 9l-26 -15l-71 54q-55 -60 -154 -60q-113 0 -173.5 76t-60.5 214q0 301 288 301q101 0 184 -34q5 -62 -7 -150h-84l-20 83q-5 18 -18 28q-23 18 -59 18q-63 0 -93.5 -59.5t-30.5 -189.5q0 -110 26 -163t91 -53q46 0 77 22v149l-69 8v56h237v-56l-37 -6v-223z" />
    <glyph glyph-name="H" unicode="H" horiz-adv-x="687" 
d="M655 568v-55l-58 -11q-16 -3 -16 -21v-398q0 -17 17 -20l57 -11v-52h-269v52l40 11q17 5 17 20v172h-199v-172q0 -17 16 -20l46 -11v-52h-274v52l57 11q17 3 17 20v398q0 18 -17 21l-57 11v55h274v-55l-46 -11q-16 -3 -16 -21v-159h199v159q0 16 -16 21l-42 11v55h270z
" />
    <glyph glyph-name="I" unicode="I" horiz-adv-x="350" 
d="M317 568v-55l-56 -11q-17 -3 -17 -21v-397q0 -18 17 -21l56 -11v-52h-285v52l57 11q17 3 17 20v398q0 18 -17 21l-57 11v55h285z" />
    <glyph glyph-name="J" unicode="J" horiz-adv-x="329" 
d="M252 502q-17 -5 -17 -21v-353q0 -129 -45.5 -188t-181.5 -94l-23 55q71 37 91.5 77.5t20.5 132.5v370q0 18 -17 21l-56 11v55h277v-55z" />
    <glyph glyph-name="K" unicode="K" horiz-adv-x="609" 
d="M317 0h-285v52l57 11q17 3 17 20v398q0 18 -17 21l-57 11v55h285v-55l-57 -11q-17 -3 -17 -21v-208l188 229l-64 11l-1 55h224v-55l-58 -11q-14 -3 -22 -11l-121 -138q29 -36 74 -117l80 -150q10 -21 28 -25l34 -9v-52h-159q-24 0 -57 72l-47 101q-25 55 -41 80l-58 -69
v-103q0 -16 18 -19l56 -10v-52z" />
    <glyph glyph-name="L" unicode="L" horiz-adv-x="515" 
d="M394 93l36 117l69 -9q0 -131 -15 -201h-452v52l57 11q17 3 17 20v399q0 17 -17 20l-57 11v55h304v-55l-75 -12q-17 -3 -17 -20v-421h63q43 0 66 9q16 6 21 24z" />
    <glyph glyph-name="M" unicode="M" horiz-adv-x="835" 
d="M692 480l59 -396q3 -15 18 -20l54 -12v-52h-274v52l66 11l-57 419l-109 -462h-110l-131 457l-46 -414l79 -11v-52h-226v52l56 12q16 5 17 20l48 396q2 19 -16 22l-62 11v55h264l98 -377l89 377h264v-55l-65 -11q-19 -3 -16 -22z" />
    <glyph glyph-name="N" unicode="N" horiz-adv-x="657" 
d="M579 502q-17 -3 -17 -21v-481h-125l-255 420v-337q0 -17 17 -20l66 -11v-52h-233v52l57 11q17 3 17 20v398q0 18 -17 21l-57 11v55h216l238 -388v301q0 18 -17 21l-60 11v55h223v-55z" />
    <glyph glyph-name="O" unicode="O" horiz-adv-x="581" 
d="M281 -12q-125 0 -186 74.5t-61 210.5q0 147 68.5 227t197.5 80q125 0 186 -75t61 -211q0 -146 -68.5 -226t-197.5 -80zM292 523q-54 0 -80.5 -57.5t-26.5 -185.5q0 -124 25.5 -180t78.5 -56q54 0 80.5 58.5t26.5 186.5q0 124 -25.5 179t-78.5 55z" />
    <glyph glyph-name="P" unicode="P" horiz-adv-x="533" 
d="M244 516v-259q21 -3 44 -3q88 0 88 147q0 119 -89 119q-3 0 -43 -4zM350 52v-52h-318v52l58 11q16 3 16 18v403q0 14 -15 17l-59 12v55h145q13 0 53.5 2t71.5 2q119 -1 166.5 -41.5t47.5 -125.5q0 -97 -57.5 -150.5t-166.5 -53.5q-18 0 -48 2v-122q0 -15 16 -17z" />
    <glyph glyph-name="Q" unicode="Q" horiz-adv-x="581" 
d="M495 -154q-39 0 -71 16.5t-51 37.5t-48 47.5t-56 40.5q-118 4 -176.5 79t-58.5 206q0 145 68.5 226t197.5 81q124 0 185.5 -75.5t61.5 -210.5q0 -114 -45 -189.5t-128 -102.5q30 -9 75 -33q57 -32 108 -32q19 0 43 4l12 -43q-17 -20 -49.5 -36t-67.5 -16zM292 523
q-54 0 -80.5 -57.5t-26.5 -185.5q0 -125 25 -180.5t78 -55.5q54 0 81 58.5t27 186.5q0 124 -25.5 179t-78.5 55z" />
    <glyph glyph-name="R" unicode="R" horiz-adv-x="602" 
d="M243 517v-224q13 -2 56 -2q38 1 61 31t23 92q0 57 -23 82t-72 25q-19 0 -45 -4zM317 0h-285v52l57 11q17 3 17 20v399q0 17 -17 20l-57 11v55h139q20 0 61 2t68 2q123 0 175.5 -35t52.5 -117q0 -73 -33.5 -107t-88.5 -50q57 -23 86 -90l40 -88q9 -20 26 -24l34 -9v-52
h-156q-15 0 -27 18t-27 55l-37 96q-21 51 -39 72h-63v-160q0 -16 18 -19l56 -10v-52z" />
    <glyph glyph-name="S" unicode="S" horiz-adv-x="481" 
d="M449 161q0 -70 -53.5 -121.5t-162.5 -51.5q-102 0 -192 43q-5 81 10 160h78l14 -94q3 -18 16 -28q30 -28 77 -28q36 0 56 19.5t20 52.5q0 22 -8.5 40t-28 34t-36.5 26t-48 26q-38 20 -56.5 31.5t-43.5 33t-35.5 48t-10.5 60.5q0 74 53 120.5t153 46.5q92 0 165 -30
q6 -69 -8 -150h-76l-15 82q-4 21 -16 30q-23 16 -57 16q-32 0 -50.5 -18.5t-18.5 -48.5q0 -27 16.5 -48t37 -33.5t67.5 -35.5q74 -38 113.5 -79t39.5 -103z" />
    <glyph glyph-name="T" unicode="T" horiz-adv-x="585" 
d="M464 0h-343v52l86 14q17 3 17 19v427h-31q-29 0 -50 -7q-14 -6 -17 -20l-31 -125h-67q-13 118 -3 208h535q9 -89 -2 -208h-67l-33 126q-3 13 -17 19q-19 7 -50 7h-29v-427q0 -16 17 -19l85 -14v-52z" />
    <glyph glyph-name="U" unicode="U" horiz-adv-x="629" 
d="M380 568h218v-55l-40 -10q-16 -4 -16 -21v-272q0 -219 -224 -219q-120 0 -177.5 53t-57.5 171v267q0 16 -16 21l-36 10v55h269v-55l-58 -12q-17 -3 -17 -21v-277q0 -78 27 -118t88 -40q117 0 117 158v278q0 18 -16 21l-61 11v55z" />
    <glyph glyph-name="V" unicode="V" horiz-adv-x="585" 
d="M236 -2l-178 487q-4 14 -19 17l-46 11v55h274v-55l-70 -13l131 -386l117 386l-70 13v55h212v-55l-50 -11q-15 -3 -19 -17l-159 -487h-123z" />
    <glyph glyph-name="W" unicode="W" horiz-adv-x="845" 
d="M518 -2l-95 331l-89 -331h-123l-149 486q-5 15 -18 18l-48 11v55h266v-55l-63 -13l101 -387l90 324l-16 47q-4 14 -18 18l-33 11v55h259v-55l-72 -13l98 -379l99 379l-63 13v55h203v-55l-51 -11q-14 -3 -19 -18l-136 -486h-123z" />
    <glyph glyph-name="X" unicode="X" horiz-adv-x="565" 
d="M562 0h-270v52l56 12l-95 156l-102 -156l68 -12v-52h-213v52l54 11q13 3 20 14l136 193l-140 217q-7 11 -20 15l-41 11v55h267v-55l-56 -13l86 -142l94 142l-62 13v55h201v-55l-49 -11q-14 -3 -21 -14l-127 -178l152 -233q7 -11 21 -14l41 -11v-52z" />
    <glyph glyph-name="Y" unicode="Y" horiz-adv-x="549" 
d="M436 0h-315v52l69 14q17 3 17 19v138l-150 264q-7 12 -21 15l-45 11v55h277v-55l-57 -14l101 -197l95 197l-64 14v55h203v-55l-42 -10q-15 -5 -20 -15l-135 -267v-136q0 -16 18 -19l69 -14v-52z" />
    <glyph glyph-name="Z" unicode="Z" horiz-adv-x="519" 
d="M467 0h-423l-26 45l304 469h-69q-45 0 -66 -8q-15 -5 -22 -23l-33 -102h-76q-5 99 12 188h397l19 -46l-296 -463h95q45 0 66 8q16 6 21 24l37 106l74 -10q4 -91 -14 -188z" />
    <glyph glyph-name="bracketleft" unicode="[" horiz-adv-x="304" 
d="M289 -141q-98 -12 -203 -12l-17 16v841l17 16q103 2 203 -12v-52l-87 -10q-19 -3 -19 -21v-682q0 -19 19 -22l87 -10v-52z" />
    <glyph glyph-name="backslash" unicode="\" horiz-adv-x="376" 
d="M355 -105h-102l-235 738h103z" />
    <glyph glyph-name="bracketright" unicode="]" horiz-adv-x="304" 
d="M235 -137l-18 -16q-105 0 -203 12v52l87 10q19 3 19 22v682q0 18 -19 21l-87 10v52q100 14 203 12l18 -16v-841z" />
    <glyph glyph-name="asciicircum" unicode="^" horiz-adv-x="472" 
d="M27 308l154 250l97 8l169 -258l-54 -37l-163 182l-157 -182z" />
    <glyph glyph-name="underscore" unicode="_" horiz-adv-x="637" 
d="M0 -91h637v-59h-637v59z" />
    <glyph glyph-name="grave" unicode="`" horiz-adv-x="364" 
d="M130 659l139 -162l-35 -42q-119 66 -175 137z" />
    <glyph glyph-name="a" unicode="a" horiz-adv-x="455" 
d="M201 64q32 0 58 18v90l-40 -3q-61 -3 -61 -60q0 -45 43 -45zM145 -8q-55 0 -88 27.5t-33 74.5q0 55 46 86.5t115 35.5l74 4v41q0 43 -19.5 60.5t-59.5 17.5q-67 0 -114 -43l-30 26q39 102 183 102q87 0 127 -40t40 -121v-180q0 -20 19 -22l36 -5v-49q-56 -14 -86 -14
q-66 0 -88 49q-42 -50 -122 -50z" />
    <glyph glyph-name="b" unicode="b" horiz-adv-x="483" 
d="M55 20v532q0 18 -17 20l-47 8v52q83 21 177 23l18 -16v-259q45 45 113 45q69 0 111.5 -49.5t42.5 -147.5q0 -113 -60 -174.5t-173 -61.5q-100 0 -165 28zM229 43q84 0 85 161q1 79 -17.5 111.5t-57.5 32.5q-28 0 -53 -13v-282q18 -10 43 -10z" />
    <glyph glyph-name="c" unicode="c" horiz-adv-x="414" 
d="M29 202q0 107 58.5 165t153.5 58q81 0 140 -32q5 -67 -8 -143h-64l-21 73q-5 23 -15 31q-15 13 -35 13q-68 0 -68 -147q0 -76 22.5 -112.5t73.5 -36.5q52 0 93 34l28 -22q-14 -41 -57 -66.5t-107 -25.5q-97 0 -145.5 58t-48.5 153z" />
    <glyph glyph-name="d" unicode="d" horiz-adv-x="503" 
d="M240 63q31 0 59 14v283q-18 9 -44 9q-42 0 -64 -36t-23 -123q0 -147 72 -147zM194 -8q-75 0 -119.5 50.5t-44.5 152.5q0 111 55.5 170.5t159.5 59.5q27 0 54 -5v132q0 18 -17 21l-48 7v51q84 22 178 24l18 -17v-555q0 -20 18 -22l36 -5v-49q-48 -14 -88 -14q-63 0 -87 49
q-45 -50 -115 -50z" />
    <glyph glyph-name="e" unicode="e" horiz-adv-x="431" 
d="M30 204q0 107 53 163.5t153 56.5q83 0 124 -38t41 -102q0 -34 -6 -59h-231q0 -83 22.5 -118.5t78.5 -35.5q68 0 105 41l28 -21q-14 -49 -60 -74.5t-113 -25.5q-98 0 -146.5 56t-48.5 157zM227 371q-53 0 -61 -98h115q1 5 1 17q0 81 -55 81z" />
    <glyph glyph-name="f" unicode="f" horiz-adv-x="343" 
d="M88 429q0 79 62 152t134 73q53 0 110 -42l-26 -71q-55 11 -80 10q-38 -1 -55 -16.5t-17 -61.5v-60h116v-70h-115v-264q0 -17 18 -19l74 -8v-52h-280v52l39 7q17 3 17 20v262l-61 11v50l64 12v15z" />
    <glyph glyph-name="g" unicode="g" horiz-adv-x="485" 
d="M459 -34q0 -77 -67.5 -122t-182.5 -45q-94 0 -140 31t-46 83q0 66 83 94q-47 19 -47 69q0 54 55 78q-78 31 -78 121q0 71 50 110.5t144 39.5t138 -40q28 41 69 41q15 0 38 -7v-89h-74q5 -22 5 -44q0 -69 -46.5 -109t-143.5 -40q-35 0 -56 4q-10 -11 -10 -28
q0 -19 18 -26.5t61 -7.5h74q156 0 156 -113zM231 -142q45 0 69 21.5t24 61.5q0 29 -14.5 41t-49.5 12h-75q-14 0 -20 1q-17 -25 -17 -59q0 -78 83 -78zM167 282q0 -93 57 -93q29 0 41.5 23t12.5 70q0 50 -12.5 71.5t-41.5 21.5q-57 0 -57 -93z" />
    <glyph glyph-name="h" unicode="h" horiz-adv-x="533" 
d="M247 0h-229v52l39 7q18 3 18 21v476q0 18 -17 20l-47 8v51q74 20 177 20l18 -18v-262q51 48 129 48q70 0 98.5 -39t28.5 -118v-186q0 -18 17 -21l39 -7v-52h-228v52l24 7q17 6 17 21v172q0 50 -15 71.5t-48 21.5q-31 0 -62 -17v-248q0 -15 16 -21l25 -7v-52z" />
    <glyph glyph-name="i" unicode="i" horiz-adv-x="291" 
d="M217 408v-328q0 -18 17 -21l39 -7v-52h-244v52l39 7q17 3 17 21v239q0 18 -16 21l-44 9v54q78 21 174 21zM216 538q0 -30 -19.5 -48t-51.5 -18q-33 0 -52.5 18t-19.5 48t19.5 47.5t52.5 17.5q32 0 51.5 -17.5t19.5 -47.5z" />
    <glyph glyph-name="j" unicode="j" horiz-adv-x="268" 
d="M191 424l17 -16v-372q0 -116 -62 -166q-47 -39 -153 -66l-23 55q63 31 85.5 68t22.5 102v290q0 18 -16 21l-45 9v54q78 21 174 21zM202 538q0 -30 -19.5 -48t-51.5 -18q-33 0 -52.5 18t-19.5 48t19.5 47.5t52.5 17.5q32 0 51.5 -17.5t19.5 -47.5z" />
    <glyph glyph-name="k" unicode="k" horiz-adv-x="519" 
d="M260 0h-242v52l39 7q18 3 18 21v472q0 18 -17 21l-47 7v51q83 22 177 24l17 -16v-430l135 143l-67 12v49h217v-49l-42 -11q-26 -5 -39 -17l-67 -66q20 -23 47 -76l58 -111q7 -16 25 -20l39 -11v-52h-151q-16 0 -26.5 15.5t-25.5 48.5q-2 5 -3 7l-32 73q-11 25 -20 39
l-48 -47v-56q0 -18 17 -21l38 -7v-52z" />
    <glyph glyph-name="l" unicode="l" horiz-adv-x="285" 
d="M208 638v-558q0 -18 17 -21l44 -7v-52h-253v52l44 7q17 3 17 20v473q0 18 -17 21l-47 7v51q82 22 178 24z" />
    <glyph glyph-name="m" unicode="m" horiz-adv-x="789" 
d="M774 0h-227v52l22 7q17 6 17 21v168q0 52 -15 74.5t-48 22.5q-32 0 -61 -18q5 -30 5 -61v-186q0 -15 16 -21l23 -7v-52h-209v52l22 7q17 6 17 21v172q0 51 -14.5 72t-47.5 21q-30 0 -57 -15v-250q0 -16 15 -21l24 -7v-52h-227v52l40 7q16 3 16 21v239q0 18 -16 21l-44 9
v54q76 19 159 21l19 -16l7 -38q47 53 130 53q82 0 110 -57q51 57 140 57q71 0 99 -39.5t28 -120.5v-183q0 -18 17 -21l40 -7v-52z" />
    <glyph glyph-name="n" unicode="n" horiz-adv-x="544" 
d="M529 0h-229v52l25 7q16 6 16 21v172q0 50 -14.5 71.5t-47.5 21.5q-31 0 -62 -17v-248q0 -15 16 -21l24 -7v-52h-228v52l40 7q16 3 16 21v239q0 18 -16 21l-44 9v54q76 19 159 21l19 -16l7 -40q52 55 135 55q70 0 98.5 -39t28.5 -118v-186q0 -18 17 -21l40 -7v-52z" />
    <glyph glyph-name="o" unicode="o" horiz-adv-x="478" 
d="M307 202q0 94 -15 131t-55 37q-34 0 -50 -35.5t-16 -121.5q0 -93 15 -130.5t55 -37.5q34 0 50 35.5t16 121.5zM29 203q0 116 58.5 169t157.5 53q97 0 150 -53t53 -160q0 -221 -215 -221q-98 0 -151 53t-53 159z" />
    <glyph glyph-name="p" unicode="p" horiz-adv-x="505" 
d="M251 43q42 0 64 37.5t22 126.5q1 75 -17 108t-58 33q-27 0 -53 -13v-284q17 -8 42 -8zM476 227q0 -114 -60 -174.5t-165 -60.5q-19 0 -42 3v-96q0 -18 17 -20l57 -8v-51h-262v51l40 8q16 3 16 20v420q0 18 -15 21l-45 9v54q84 21 159 21l19 -16l7 -35q49 52 119 52
t112.5 -50t42.5 -148z" />
    <glyph glyph-name="q" unicode="q" horiz-adv-x="489" 
d="M194 -8q-75 0 -119.5 50.5t-44.5 152.5q0 107 55.5 168.5t156.5 61.5q58 0 112 -27l55 23l20 -16v-506q0 -17 18 -20l34 -8v-51h-262v51l62 8q17 2 17 20v134q-39 -41 -104 -41zM240 63q30 0 58 15v276q-18 15 -47 15q-83 0 -83 -154q0 -81 18 -116.5t54 -35.5z" />
    <glyph glyph-name="r" unicode="r" horiz-adv-x="410" 
d="M196 408l14 -72q53 89 123 89q32 0 58 -12q9 -72 -11 -160h-57l-13 42q-7 22 -30 22q-33 0 -63 -25v-212q0 -18 18 -21l61 -7v-52h-267v52l39 7q17 3 17 21v239q0 18 -16 21l-44 9v54q70 19 150 21z" />
    <glyph glyph-name="s" unicode="s" horiz-adv-x="407" 
d="M38 20q-7 53 2 119h66l15 -54q7 -21 17 -29q24 -17 55 -17q26 0 41 14t15 34q0 11 -4.5 20t-17.5 18t-22.5 14t-32.5 15.5t-34 16.5q-51 25 -76.5 53t-25.5 72q0 59 44 93.5t131 34.5q80 0 143 -25q5 -57 -6 -113h-61l-16 51q-5 18 -18 26q-17 10 -42 12q-24 0 -38.5 -12
t-14.5 -33q0 -17 13 -30.5t25 -19.5t42 -19q6 -3 9 -4q32 -14 51 -24t40.5 -27t31.5 -39t10 -50q0 -62 -50.5 -95.5t-132.5 -33.5q-77 0 -159 32z" />
    <glyph glyph-name="t" unicode="t" horiz-adv-x="345" 
d="M73 122v223l-56 10v48l46 9q17 4 22 20l41 115h73l4 -133h114v-67h-112v-196q0 -40 11.5 -56t37.5 -16q36 0 62 22l25 -28q-35 -79 -146 -79q-61 0 -91.5 28.5t-30.5 99.5z" />
    <glyph glyph-name="u" unicode="u" horiz-adv-x="526" 
d="M508 7q-50 -14 -88 -14q-64 0 -88 48q-46 -49 -129 -49q-130 0 -130 143v185q0 18 -16 21l-39 10v54q81 19 169 19l17 -16v-256q0 -50 14 -69.5t45 -19.5t59 18v240q0 18 -16 21l-42 10v54q78 18 172 18l17 -16v-325q0 -20 19 -22l36 -5v-49z" />
    <glyph glyph-name="v" unicode="v" horiz-adv-x="472" 
d="M183 -6l-135 343q-6 13 -19 17l-27 9v51h239v-53l-52 -11l83 -249l82 249l-52 11v53h164v-51l-27 -9q-15 -4 -20 -17l-122 -343h-114z" />
    <glyph glyph-name="w" unicode="w" horiz-adv-x="684" 
d="M162 -6l-113 343q-4 13 -18 17l-27 9v51h221v-53l-50 -11l64 -231l78 295h105l82 -294l61 230l-53 11v53h165v-51l-26 -9q-15 -5 -20 -18l-104 -342h-102l-84 276l-75 -276h-104z" />
    <glyph glyph-name="x" unicode="x" horiz-adv-x="484" 
d="M198 0h-183v51l37 7q12 3 21 13l104 128l-110 145q-9 10 -20 13l-30 7v50h238v-50l-46 -12l61 -88l66 88l-41 12v50h166v-50l-33 -7q-12 -3 -21 -13l-99 -121l116 -152q6 -10 21 -13l30 -7v-51h-235v51l41 11l-64 93l-69 -93l50 -11v-51z" />
    <glyph glyph-name="y" unicode="y" horiz-adv-x="472" 
d="M18 -117q94 14 141 36.5t78 80.5h-53l-129 335q-6 15 -22 19l-28 9v51l243 -1v-52l-54 -12l83 -244l78 245l-51 11v53h165v-51l-28 -9q-16 -6 -21 -19l-120 -342q-33 -93 -76 -137t-106 -44q-52 0 -100 10v61z" />
    <glyph glyph-name="z" unicode="z" horiz-adv-x="433" 
d="M21 47l230 315h-48q-32 0 -53 -3q-17 -3 -22 -19l-18 -73h-59q-12 81 -6 147h339l20 -47l-226 -315h45q43 0 66 5q18 3 22 16l26 80l58 -6q7 -72 -2 -147h-350z" />
    <glyph glyph-name="braceleft" unicode="{" horiz-adv-x="333" 
d="M324 -97l-8 -57q-53 0 -98 6q-138 13 -138 132q0 34 8 94.5t8 84.5q0 41 -17.5 60t-72.5 25v72q55 5 72.5 24.5t17.5 59.5q0 24 -8 85t-8 94q0 120 138 133q60 6 98 6l8 -57l-47 -12q-42 -10 -59 -30.5t-17 -61.5q0 -23 5 -81.5t5 -84.5q0 -89 -118 -110
q118 -20 118 -113q0 -26 -5 -84.5t-5 -81.5q0 -41 17 -61.5t59 -30.5z" />
    <glyph glyph-name="bar" unicode="|" horiz-adv-x="237" 
d="M70 -116v809h98l-1 -809h-97z" />
    <glyph glyph-name="braceright" unicode="}" horiz-adv-x="333" 
d="M115 -149q-50 -5 -97 -5l-9 57l47 10q42 10 59 30.5t17 61.5q0 24 -4.5 82.5t-4.5 84.5q0 93 117 113q-117 20 -117 110q0 26 4.5 85t4.5 82q0 41 -17 62t-59 31l-47 10l9 57q47 0 97 -5q138 -14 138 -133q0 -34 -7.5 -95t-7.5 -85q0 -40 17 -59.5t73 -24.5v-72
q-56 -6 -73 -25t-17 -60q0 -24 7.5 -85t7.5 -94q0 -120 -138 -133z" />
    <glyph glyph-name="asciitilde" unicode="~" horiz-adv-x="473" 
d="M429 258q-21 -49 -55 -77t-72 -28q-30 0 -81 25t-72 25q-36 0 -75 -44l-36 28q20 49 54.5 77t72.5 28q31 0 81 -25t72 -25q37 0 75 45z" />
    <glyph glyph-name="uni00A0" unicode="&#xa0;" horiz-adv-x="188" 
 />
    <glyph glyph-name="exclamdown" unicode="&#xa1;" horiz-adv-x="247" 
d="M196 -203h-145v76l33 361h79l33 -361v-76zM196 360q0 -30 -19.5 -47.5t-52.5 -17.5q-34 0 -54 17.5t-20 47.5t20 47.5t54 17.5q33 0 52.5 -17.5t19.5 -47.5z" />
    <glyph glyph-name="cent" unicode="&#xa2;" horiz-adv-x="429" 
d="M31 214q0 98 50.5 154.5t134.5 66.5v79h72v-79q63 -9 106 -33q4 -73 -9 -140h-67l-18 74q-4 20 -15 30q-13 13 -38 13q-33 0 -54 -37t-21 -106q0 -154 98 -154q56 0 95 41l31 -29q-15 -35 -53 -59t-89 -30v-81h-71v82q-75 13 -113.5 69.5t-38.5 138.5z" />
    <glyph glyph-name="sterling" unicode="&#xa3;" horiz-adv-x="508" 
d="M478 100q0 -58 -31 -85t-81 -27q-40 0 -103.5 27t-93.5 27q-50 -38 -110 -49l-33 66q83 41 83 128v37h-69v56h69v23q0 98 47.5 154t140.5 56q66 0 134 -28q5 -62 -7 -137h-74l-17 74q-4 18 -16 27q-14 11 -32 11q-42 0 -42 -97v-83h105v-56h-105v-9q0 -77 -34 -128
q15 0 50 -5.5t51 -5.5q50 0 62 41q7 22 11 65h84q11 -51 11 -82z" />
    <glyph glyph-name="currency" unicode="&#xa4;" horiz-adv-x="511" 
d="M88 277q0 54 31 101l-84 82l47 49l85 -85q39 25 87 25q47 0 89 -24l85 85l49 -49l-84 -82q29 -43 29 -94q0 -54 -32 -99l85 -84l-48 -48l-85 85q-41 -25 -88 -25q-48 0 -86 23l-85 -85l-48 49l82 82q-29 42 -29 94zM255 204q35 0 53.5 21.5t18.5 54.5q0 34 -22 56t-52 22
q-32 0 -51 -23t-19 -55q0 -31 21.5 -53.5t50.5 -22.5z" />
    <glyph glyph-name="yen" unicode="&#xa5;" horiz-adv-x="556" 
d="M87 112v52h135v51h-135v52h111l-112 168q-8 9 -18 12l-42 9v46h253v-46l-53 -12l89 -153l85 154l-59 12v46h186v-46l-38 -9q-13 -3 -19 -13l-101 -168h114v-52h-135v-51h135v-52h-135v-35q0 -15 16 -18l64 -13v-46h-287v46l65 13q16 3 16 18v35h-135z" />
    <glyph glyph-name="brokenbar" unicode="&#xa6;" horiz-adv-x="236" 
d="M69 345v348h98v-348h-98zM69 -116v347h98v-347h-98z" />
    <glyph glyph-name="section" unicode="&#xa7;" horiz-adv-x="462" 
d="M53 -64q-3 61 7 119h74l13 -61q2 -16 16 -25q25 -20 70 -20q33 0 51.5 13.5t18.5 35.5q0 25 -26.5 42.5t-102.5 51.5q-8 3 -12 5q-63 28 -96 62.5t-33 86.5q0 44 21 78.5t51 50.5q-48 38 -48 96q0 55 45 94t137 39q48 0 93 -11.5t67 -24.5q3 -63 -7 -119h-74l-13 61
q-2 15 -16 25q-23 16 -58 16q-31 0 -47.5 -13.5t-16.5 -36.5q0 -24 22.5 -40t88.5 -48q15 -7 23 -11q63 -29 96 -63.5t33 -85.5q0 -43 -19.5 -76t-49.5 -50q52 -39 52 -99q0 -55 -46.5 -93.5t-141.5 -38.5q-52 0 -100 13t-72 27zM257 183q36 -16 65 -32q18 31 18 54
q0 32 -29 54t-105 57q-44 21 -65 34q-18 -31 -18 -56q0 -32 29.5 -55t104.5 -56z" />
    <glyph glyph-name="dieresis" unicode="&#xa8;" horiz-adv-x="364" 
d="M155 539q0 -28 -16.5 -45t-43.5 -17q-29 0 -45.5 16.5t-16.5 45.5t16.5 45.5t45.5 16.5q27 0 43.5 -17t16.5 -45zM330 539q0 -29 -16 -45.5t-44 -16.5t-44.5 17t-16.5 45t16.5 45t44.5 17t44 -16.5t16 -45.5z" />
    <glyph glyph-name="copyright" unicode="&#xa9;" horiz-adv-x="729" 
d="M363 94q-78 0 -123 50t-45 136q0 93 50.5 143t131.5 50q75 0 122 -33q7 -58 -5 -124h-56l-16 62q-3 16 -13 23q-16 14 -38 14q-65 0 -65 -118q0 -132 89 -132q53 0 85 32l26 -23q-14 -36 -52 -58t-91 -22zM89 284q0 -125 77 -204.5t199 -79.5q121 0 198 79.5t77 204.5
q0 126 -76.5 205.5t-198.5 79.5t-199 -79.5t-77 -205.5zM31 284q0 145 94.5 239.5t239.5 94.5t239 -94.5t94 -239.5t-94 -239t-239 -94t-239.5 94t-94.5 239z" />
    <glyph glyph-name="ordfeminine" unicode="&#xaa;" horiz-adv-x="404" 
d="M131 247q-45 0 -71.5 21.5t-26.5 56.5q0 41 37 66.5t93 27.5l57 3v28q0 30 -15 41.5t-46 11.5q-50 0 -89 -31l-26 21q32 82 150 82q72 0 105 -31.5t33 -94.5v-129q0 -16 15 -17l27 -3v-42q-47 -11 -72 -11q-56 0 -74 36q-33 -36 -97 -36zM181 307q21 0 39 10v65l-26 -1
q-43 -1 -43 -42q0 -32 30 -32z" />
    <glyph glyph-name="guillemotleft" unicode="&#xab;" horiz-adv-x="546" 
d="M26 193v58l217 169l36 -46l-115 -152l116 -151l-37 -44zM263 193v58l217 169l36 -46l-115 -152l116 -151l-37 -44z" />
    <glyph glyph-name="logicalnot" unicode="&#xac;" horiz-adv-x="458" 
d="M47 181v83h360v-227h-88v144h-272z" />
    <glyph glyph-name="uni00AD" unicode="&#xad;" horiz-adv-x="383" 
d="M47 175v84h289v-84h-289z" />
    <glyph glyph-name="registered" unicode="&#xae;" horiz-adv-x="629" 
d="M85 397q0 -105 64.5 -171t165.5 -66t165 66t64 171q0 104 -63.5 170t-165.5 66q-101 0 -165.5 -66t-64.5 -170zM32 397q0 122 80.5 201.5t202.5 79.5t201.5 -79.5t79.5 -201.5t-79.5 -202t-201.5 -80t-202.5 80t-80.5 202zM318 403q17 0 28.5 15t11.5 42q0 29 -11 41.5
t-36 12.5q-13 0 -27 -3v-107q14 -1 34 -1zM317 277v-32h-143v32l20 6q10 3 10 14v200q0 11 -11 14l-19 5v36h70q15 -1 39.5 0t33.5 1q68 0 96.5 -20.5t28.5 -68.5q0 -66 -66 -83q27 -9 37 -36l18 -42q4 -10 10.5 -13.5t24.5 -9.5v-35h-81q-18 0 -30 38l-16 46q-9 24 -18 36
l-37 -1v-68q0 -12 11 -14z" />
    <glyph glyph-name="macron" unicode="&#xaf;" horiz-adv-x="364" 
d="M48 493v75h267v-75h-267z" />
    <glyph glyph-name="degree" unicode="&#xb0;" horiz-adv-x="335" 
d="M167 332q-57 0 -98 41t-41 97q0 59 40.5 98.5t98.5 39.5q60 0 100 -40.5t40 -97.5q0 -59 -40.5 -98.5t-99.5 -39.5zM167 400q28 0 46 20t18 50q0 28 -19 49t-46 21t-45 -20t-18 -50q0 -28 19 -49t45 -21z" />
    <glyph glyph-name="plusminus" unicode="&#xb1;" horiz-adv-x="424" 
d="M255 120h-86v65l3 54l-55 -2h-76v77h76l55 -2l-3 55v70h86v-70l-2 -55l54 2h76v-77h-76l-54 2l2 -54v-65zM379 0h-334v76h334v-76z" />
    <glyph glyph-name="twosuperior" unicode="&#xb2;" horiz-adv-x="377" 
d="M48 227l-13 43q85 58 129 104.5t44 92.5q0 28 -16 45t-47 17q-43 0 -81 -36l-24 24q12 33 47 56t90 23q65 0 101 -32.5t36 -81.5q0 -58 -48 -107t-117 -85h55q59 0 69 21l21 43l51 -6q-4 -77 -17 -121h-280z" />
    <glyph glyph-name="threesuperior" unicode="&#xb3;" horiz-adv-x="351" 
d="M29 269l23 39q39 -25 91 -25q34 0 53.5 14.5t19.5 39.5q0 47 -75 47h-37v45h8q43 0 65 15.5t22 40.5q0 23 -17.5 34.5t-43.5 11.5q-43 0 -75 -26l-23 27q16 32 52 48t78 16q55 0 91.5 -25.5t36.5 -66.5q0 -34 -25.5 -56.5t-60.5 -28.5q45 0 78 -23t33 -66
q0 -46 -42.5 -77.5t-114.5 -31.5q-87 0 -137 48z" />
    <glyph glyph-name="acute" unicode="&#xb4;" horiz-adv-x="364" 
d="M146 455l-33 40l144 164l72 -67q-54 -67 -183 -137z" />
    <glyph glyph-name="uni00B5" unicode="&#xb5;" horiz-adv-x="551" 
d="M184 -160l-97 -36l-17 16q2 188 2 307q0 29 -5 284l104 13l18 -16l-4 -203q1 -54 24 -81.5t54 -27.5q24 0 46 18t33 53l-3 244l100 13l17 -16l-10 -280q-2 -58 37 -58h45v-46q-46 -33 -92 -33q-33 0 -56 25t-30 71q-14 -45 -42.5 -70.5t-63.5 -25.5q-54 0 -82 52z" />
    <glyph glyph-name="paragraph" unicode="&#xb6;" horiz-adv-x="577" 
d="M107 -145l-23 56q62 31 82.5 71.5t20.5 129.5v130q-68 9 -115.5 52.5t-47.5 123.5q0 73 46.5 117t140.5 44q30 0 112 -5.5t134 -5.5h82v-55l-53 -11q-17 -3 -17 -20v-399q0 -17 17 -20l57 -11v-52h-176v507l-33 2q-32 2 -46 2v-436q0 -102 -39.5 -148.5t-141.5 -71.5z
" />
    <glyph glyph-name="periodcentered" unicode="&#xb7;" horiz-adv-x="236" 
d="M192 243q0 -31 -20 -49t-54 -18q-33 0 -53 18t-20 49t20 49t53 18q34 0 54 -18t20 -49z" />
    <glyph glyph-name="cedilla" unicode="&#xb8;" horiz-adv-x="364" 
d="M162 19h43l-15 -51h11q33 -1 53 -19t20 -48q0 -42 -40 -67.5t-104 -25.5q-16 0 -24 1l-7 42q75 7 75 46q0 30 -43 32z" />
    <glyph glyph-name="onesuperior" unicode="&#xb9;" horiz-adv-x="353" 
d="M240 586v-278q0 -15 16 -18l73 -12v-51h-282v51l80 12q17 3 17 18v184q-39 -13 -95 -16l-11 49q74 17 141 72z" />
    <glyph glyph-name="ordmasculine" unicode="&#xba;" horiz-adv-x="404" 
d="M248 404q0 72 -10 98t-37 26q-24 0 -35 -25.5t-11 -90.5q0 -72 10 -97.5t38 -25.5q23 0 34 25.5t11 89.5zM31 404q0 170 176 170q166 0 166 -162q0 -169 -176 -169q-166 0 -166 161z" />
    <glyph glyph-name="guillemotright" unicode="&#xbb;" horiz-adv-x="543" 
d="M283 193l-217 -166l-37 44l116 151l-115 152l36 46l217 -169v-58zM517 193l-217 -166l-37 44l116 151l-115 152l36 46l217 -169v-58z" />
    <glyph glyph-name="onequarter" unicode="&#xbc;" horiz-adv-x="906" 
d="M236 586v-278q0 -15 16 -18l73 -12v-51h-282v51l80 12q17 3 17 18v184q-39 -13 -95 -16l-11 49q74 17 141 72zM312 0h-86l352 568h86zM575 68l-30 40q82 125 142 257h88l14 -17q-86 -165 -159 -229l102 7l16 85h73v-80l62 4v-67h-62v-68h-91v68h-155z" />
    <glyph glyph-name="onehalf" unicode="&#xbd;" horiz-adv-x="896" 
d="M234 586v-278q0 -15 16 -18l73 -12v-51h-282v51l80 12q17 3 17 18v184q-39 -13 -95 -16l-11 49q74 17 141 72zM310 0h-86l352 568h86zM575 0l-13 43q85 58 129 104.5t44 92.5q0 28 -16 45t-47 17q-43 0 -81 -36l-24 24q12 33 47 56t90 23q65 0 101 -32.5t36 -81.5
q0 -58 -48 -107t-117 -85h55q59 0 69 21l21 43l51 -6q-4 -77 -17 -121h-280z" />
    <glyph glyph-name="threequarters" unicode="&#xbe;" horiz-adv-x="897" 
d="M27 269l23 39q39 -25 91 -25q34 0 53.5 14.5t19.5 39.5q0 47 -75 47h-37v45h8q43 0 65 15.5t22 40.5q0 23 -17.5 34.5t-43.5 11.5q-43 0 -75 -26l-23 27q16 32 52 48t78 16q55 0 91.5 -25.5t36.5 -66.5q0 -34 -25.5 -56.5t-60.5 -28.5q45 0 78 -23t33 -66
q0 -46 -42.5 -77.5t-114.5 -31.5q-87 0 -137 48zM303 0h-86l352 568h86zM566 68l-30 40q82 125 142 257h88l14 -17q-86 -165 -159 -229l102 7l16 85h73v-80l62 4v-67h-62v-68h-91v68h-155z" />
    <glyph glyph-name="questiondown" unicode="&#xbf;" horiz-adv-x="415" 
d="M195 235h76q32 -59 32 -90q0 -11 -3 -21t-6.5 -17t-13 -17t-14.5 -15t-18.5 -17.5t-19.5 -17.5q-38 -35 -55 -63.5t-17 -61.5q0 -31 16 -51.5t42 -20.5q27 0 47 22q11 13 15 37l10 86h78q24 -68 29 -148q-69 -59 -172 -59q-89 0 -144.5 48.5t-55.5 121.5q0 53 30 91
t92 81q29 21 34.5 28t9.5 30zM159 360q0 29 20 47t53 18q34 0 53.5 -17.5t19.5 -47.5t-19.5 -47.5t-53.5 -17.5q-33 0 -53 18t-20 47z" />
    <glyph glyph-name="Agrave" unicode="&#xc0;" horiz-adv-x="584" 
d="M357 570l166 -488q5 -14 20 -18l45 -12v-52h-273v52l70 12l-32 102h-185l-31 -102l69 -12v-52h-212v52l49 12q15 4 19 18l166 488h129zM209 780l186 -129l-26 -47q-157 50 -218 96zM334 228l-74 239l-73 -239h147z" />
    <glyph glyph-name="Aacute" unicode="&#xc1;" horiz-adv-x="584" 
d="M357 570l166 -488q5 -14 20 -18l45 -12v-52h-273v52l70 12l-32 102h-185l-31 -102l69 -12v-52h-212v52l49 12q15 4 19 18l166 488h129zM444 695q-61 -43 -225 -88l-23 45l193 124zM334 228l-74 239l-73 -239h147z" />
    <glyph glyph-name="Acircumflex" unicode="&#xc2;" horiz-adv-x="584" 
d="M357 570l166 -488q5 -14 20 -18l45 -12v-52h-273v52l70 12l-32 102h-185l-31 -102l69 -12v-52h-212v52l49 12q15 4 19 18l166 488h129zM167 602l-35 40l116 119l81 3l125 -119l-37 -42l-129 73zM334 228l-74 239l-73 -239h147z" />
    <glyph glyph-name="Atilde" unicode="&#xc3;" horiz-adv-x="584" 
d="M357 570l166 -488q5 -14 20 -18l45 -12v-52h-273v52l70 12l-32 102h-185l-31 -102l69 -12v-52h-212v52l49 12q15 4 19 18l166 488h129zM462 722q-12 -46 -42 -77t-71 -31q-31 0 -71 24t-56 24q-30 0 -60 -44l-38 21q12 46 42 77t71 31q31 0 71 -24t56 -24q31 0 60 44z
M334 228l-74 239l-73 -239h147z" />
    <glyph glyph-name="Adieresis" unicode="&#xc4;" horiz-adv-x="584" 
d="M357 570l166 -488q5 -14 20 -18l45 -12v-52h-273v52l70 12l-32 102h-185l-31 -102l69 -12v-52h-212v52l49 12q15 4 19 18l166 488h129zM256 676q0 -29 -16.5 -46t-44.5 -17t-44.5 17t-16.5 46q0 28 16.5 45t44.5 17t44.5 -17t16.5 -45zM452 676q0 -29 -16.5 -46
t-44.5 -17t-44.5 17t-16.5 46q0 28 16.5 45t44.5 17t44.5 -17t16.5 -45zM334 228l-74 239l-73 -239h147z" />
    <glyph glyph-name="Aring" unicode="&#xc5;" horiz-adv-x="584" 
d="M409 652q0 -57 -52 -83l166 -487q5 -14 20 -18l45 -12v-52h-273v52l70 12l-32 102h-185l-31 -102l69 -12v-52h-212v52l49 12q15 4 19 18l165 485q-51 25 -51 86q1 44 35 70.5t86 26.5q55 0 83.5 -26.5t28.5 -71.5zM246 654q0 -22 12 -36.5t35 -14.5q46 0 46 47
q0 51 -46 51q-47 0 -47 -47zM334 228l-74 239l-73 -239h147z" />
    <glyph glyph-name="AE" unicode="&#xc6;" horiz-adv-x="780" 
d="M740 0h-450v52l57 11q17 3 17 20v116h-164l-57 -136l72 -11v-52h-222v52l55 12q13 4 19 17l181 417l-93 15v55h566q8 -71 2 -155h-65l-19 67q-5 16 -22 24q-24 8 -60 8h-62v-195l157 6v-74l-157 4v-194h77q45 0 66 8q14 6 19 24l32 90l64 -10q0 -86 -13 -171zM329 506
l-103 -245h138v245h-35z" />
    <glyph glyph-name="Ccedilla" unicode="&#xc7;" horiz-adv-x="531" 
d="M380 -99q0 -42 -40 -67.5t-104 -25.5q-16 0 -24 1l-7 42q75 7 75 46q0 30 -43 32l21 60q-224 19 -224 283q0 154 75 230.5t207 76.5q95 0 177 -31q6 -76 -8 -164h-81l-21 95q-7 21 -20 29q-23 16 -58 16q-116 0 -116 -238q0 -243 119 -243q41 0 64 22q10 10 16 28l25 84
l80 -6q5 -77 -6 -152q-90 -30 -185 -32l-6 -19h11q33 -1 53 -19t20 -48z" />
    <glyph glyph-name="Egrave" unicode="&#xc8;" horiz-adv-x="528" 
d="M472 413h-65l-20 67q-4 16 -21 24q-26 8 -61 8h-61v-191l156 6v-75l-156 4v-197h77q45 0 66 8q12 6 19 24l31 90l65 -10q0 -79 -14 -171h-456v52l57 11q17 3 17 20v398q0 18 -17 21l-57 11v55h437q9 -69 3 -155zM187 780l186 -129l-26 -47q-157 50 -218 96z" />
    <glyph glyph-name="Eacute" unicode="&#xc9;" horiz-adv-x="528" 
d="M472 413h-65l-20 67q-4 16 -21 24q-26 8 -61 8h-61v-191l156 6v-75l-156 4v-197h77q45 0 66 8q12 6 19 24l31 90l65 -10q0 -79 -14 -171h-456v52l57 11q17 3 17 20v398q0 18 -17 21l-57 11v55h437q9 -69 3 -155zM422 695q-61 -43 -225 -88l-23 45l193 124z" />
    <glyph glyph-name="Ecircumflex" unicode="&#xca;" horiz-adv-x="528" 
d="M472 413h-65l-20 67q-4 16 -21 24q-26 8 -61 8h-61v-191l156 6v-75l-156 4v-197h77q45 0 66 8q12 6 19 24l31 90l65 -10q0 -79 -14 -171h-456v52l57 11q17 3 17 20v398q0 18 -17 21l-57 11v55h437q9 -69 3 -155zM145 602l-35 40l116 119l81 3l125 -119l-37 -42l-129 73z
" />
    <glyph glyph-name="Edieresis" unicode="&#xcb;" horiz-adv-x="528" 
d="M472 413h-65l-20 67q-4 16 -21 24q-26 8 -61 8h-61v-191l156 6v-75l-156 4v-197h77q45 0 66 8q12 6 19 24l31 90l65 -10q0 -79 -14 -171h-456v52l57 11q17 3 17 20v398q0 18 -17 21l-57 11v55h437q9 -69 3 -155zM234 676q0 -29 -16.5 -46t-44.5 -17t-44.5 17t-16.5 46
q0 28 16.5 45t44.5 17t44.5 -17t16.5 -45zM430 676q0 -29 -16.5 -46t-44.5 -17t-44.5 17t-16.5 46q0 28 16.5 45t44.5 17t44.5 -17t16.5 -45z" />
    <glyph glyph-name="Igrave" unicode="&#xcc;" horiz-adv-x="350" 
d="M317 568v-55l-56 -11q-17 -3 -17 -21v-397q0 -18 17 -21l56 -11v-52h-285v52l57 11q17 3 17 20v398q0 18 -17 21l-57 11v55h285zM91 780l186 -129l-26 -47q-157 50 -218 96z" />
    <glyph glyph-name="Iacute" unicode="&#xcd;" horiz-adv-x="350" 
d="M317 568v-55l-56 -11q-17 -3 -17 -21v-397q0 -18 17 -21l56 -11v-52h-285v52l57 11q17 3 17 20v398q0 18 -17 21l-57 11v55h285zM326 695q-61 -43 -225 -88l-23 45l193 124z" />
    <glyph glyph-name="Icircumflex" unicode="&#xce;" horiz-adv-x="350" 
d="M317 568v-55l-56 -11q-17 -3 -17 -21v-397q0 -18 17 -21l56 -11v-52h-285v52l57 11q17 3 17 20v398q0 18 -17 21l-57 11v55h285zM49 602l-35 40l116 119l81 3l125 -119l-37 -42l-129 73z" />
    <glyph glyph-name="Idieresis" unicode="&#xcf;" horiz-adv-x="350" 
d="M317 568v-55l-56 -11q-17 -3 -17 -21v-397q0 -18 17 -21l56 -11v-52h-285v52l57 11q17 3 17 20v398q0 18 -17 21l-57 11v55h285zM138 676q0 -29 -16.5 -46t-44.5 -17t-44.5 17t-16.5 46q0 28 16.5 45t44.5 17t44.5 -17t16.5 -45zM334 676q0 -29 -16.5 -46t-44.5 -17
t-44.5 17t-16.5 46q0 28 16.5 45t44.5 17t44.5 -17t16.5 -45z" />
    <glyph glyph-name="Eth" unicode="&#xd0;" horiz-adv-x="615" 
d="M37 259v61h69v164q0 15 -14 17l-59 12v55h140q26 0 68 2t62 2q140 0 208.5 -65t68.5 -204q0 -151 -74.5 -231t-210.5 -78q-15 0 -60 3t-60 3h-142v52l58 11q15 3 15 18v178h-69zM244 59q17 -8 52 -8q67 1 100.5 53t33.5 178q0 237 -137 237q-14 0 -49 -7v-192h93v-61h-93
v-200z" />
    <glyph glyph-name="Ntilde" unicode="&#xd1;" horiz-adv-x="657" 
d="M579 502q-17 -3 -17 -21v-481h-125l-255 420v-337q0 -17 17 -20l66 -11v-52h-233v52l57 11q17 3 17 20v398q0 18 -17 21l-57 11v55h216l238 -388v301q0 18 -17 21l-60 11v55h223v-55zM502 722q-12 -46 -42 -77t-71 -31q-31 0 -71 24t-56 24q-30 0 -60 -44l-38 21
q12 46 42 77t71 31q31 0 71 -24t56 -24q31 0 60 44z" />
    <glyph glyph-name="Ograve" unicode="&#xd2;" horiz-adv-x="581" 
d="M281 -12q-125 0 -186 74.5t-61 210.5q0 147 68.5 227t197.5 80q125 0 186 -75t61 -211q0 -146 -68.5 -226t-197.5 -80zM292 523q-54 0 -80.5 -57.5t-26.5 -185.5q0 -124 25.5 -180t78.5 -56q54 0 80.5 58.5t26.5 186.5q0 124 -25.5 179t-78.5 55zM207 780l186 -129
l-26 -47q-157 50 -218 96z" />
    <glyph glyph-name="Oacute" unicode="&#xd3;" horiz-adv-x="581" 
d="M281 -12q-125 0 -186 74.5t-61 210.5q0 147 68.5 227t197.5 80q125 0 186 -75t61 -211q0 -146 -68.5 -226t-197.5 -80zM292 523q-54 0 -80.5 -57.5t-26.5 -185.5q0 -124 25.5 -180t78.5 -56q54 0 80.5 58.5t26.5 186.5q0 124 -25.5 179t-78.5 55zM442 695
q-61 -43 -225 -88l-23 45l193 124z" />
    <glyph glyph-name="Ocircumflex" unicode="&#xd4;" horiz-adv-x="581" 
d="M281 -12q-125 0 -186 74.5t-61 210.5q0 147 68.5 227t197.5 80q125 0 186 -75t61 -211q0 -146 -68.5 -226t-197.5 -80zM292 523q-54 0 -80.5 -57.5t-26.5 -185.5q0 -124 25.5 -180t78.5 -56q54 0 80.5 58.5t26.5 186.5q0 124 -25.5 179t-78.5 55zM165 602l-35 40l116 119
l81 3l125 -119l-37 -42l-129 73z" />
    <glyph glyph-name="Otilde" unicode="&#xd5;" horiz-adv-x="581" 
d="M281 -12q-125 0 -186 74.5t-61 210.5q0 147 68.5 227t197.5 80q125 0 186 -75t61 -211q0 -146 -68.5 -226t-197.5 -80zM292 523q-54 0 -80.5 -57.5t-26.5 -185.5q0 -124 25.5 -180t78.5 -56q54 0 80.5 58.5t26.5 186.5q0 124 -25.5 179t-78.5 55zM460 722
q-12 -46 -42 -77t-71 -31q-31 0 -71 24t-56 24q-30 0 -60 -44l-38 21q12 46 42 77t71 31q31 0 71 -24t56 -24q31 0 60 44z" />
    <glyph glyph-name="Odieresis" unicode="&#xd6;" horiz-adv-x="581" 
d="M281 -12q-125 0 -186 74.5t-61 210.5q0 147 68.5 227t197.5 80q125 0 186 -75t61 -211q0 -146 -68.5 -226t-197.5 -80zM292 523q-54 0 -80.5 -57.5t-26.5 -185.5q0 -124 25.5 -180t78.5 -56q54 0 80.5 58.5t26.5 186.5q0 124 -25.5 179t-78.5 55zM254 676
q0 -29 -16.5 -46t-44.5 -17t-44.5 17t-16.5 46q0 28 16.5 45t44.5 17t44.5 -17t16.5 -45zM450 676q0 -29 -16.5 -46t-44.5 -17t-44.5 17t-16.5 46q0 28 16.5 45t44.5 17t44.5 -17t16.5 -45z" />
    <glyph glyph-name="multiply" unicode="&#xd7;" horiz-adv-x="403" 
d="M98 56l-62 64l108 104l-108 104l63 65l102 -113l103 113l63 -65l-108 -104l108 -104l-62 -64l-104 113z" />
    <glyph glyph-name="Oslash" unicode="&#xd8;" horiz-adv-x="581" 
d="M544 294q0 -146 -68.5 -226t-197.5 -80q-44 0 -85 11l-41 -84l-59 30l40 81q-102 67 -102 247q0 147 68.5 227t197.5 80q50 0 89 -12l36 73l58 -31l-35 -70q99 -68 99 -246zM174 280q0 -98 17 -155l167 369q-26 30 -69 30q-58 0 -86.5 -57t-28.5 -187zM285 43
q58 0 86.5 58t28.5 188q0 91 -14 147l-166 -366q24 -27 65 -27z" />
    <glyph glyph-name="Ugrave" unicode="&#xd9;" horiz-adv-x="627" 
d="M380 568h218v-55l-40 -10q-16 -4 -16 -21v-272q0 -219 -224 -219q-120 0 -177.5 53t-57.5 171v267q0 16 -16 21l-36 10v55h269v-55l-58 -12q-17 -3 -17 -21v-277q0 -78 27 -118t88 -40q117 0 117 158v278q0 18 -16 21l-61 11v55zM239 780l186 -129l-26 -47
q-157 50 -218 96z" />
    <glyph glyph-name="Uacute" unicode="&#xda;" horiz-adv-x="627" 
d="M380 568h218v-55l-40 -10q-16 -4 -16 -21v-272q0 -219 -224 -219q-120 0 -177.5 53t-57.5 171v267q0 16 -16 21l-36 10v55h269v-55l-58 -12q-17 -3 -17 -21v-277q0 -78 27 -118t88 -40q117 0 117 158v278q0 18 -16 21l-61 11v55zM474 695q-61 -43 -225 -88l-23 45
l193 124z" />
    <glyph glyph-name="Ucircumflex" unicode="&#xdb;" horiz-adv-x="627" 
d="M380 568h218v-55l-40 -10q-16 -4 -16 -21v-272q0 -219 -224 -219q-120 0 -177.5 53t-57.5 171v267q0 16 -16 21l-36 10v55h269v-55l-58 -12q-17 -3 -17 -21v-277q0 -78 27 -118t88 -40q117 0 117 158v278q0 18 -16 21l-61 11v55zM197 602l-35 40l116 119l81 3l125 -119
l-37 -42l-129 73z" />
    <glyph glyph-name="Udieresis" unicode="&#xdc;" horiz-adv-x="627" 
d="M380 568h218v-55l-40 -10q-16 -4 -16 -21v-272q0 -219 -224 -219q-120 0 -177.5 53t-57.5 171v267q0 16 -16 21l-36 10v55h269v-55l-58 -12q-17 -3 -17 -21v-277q0 -78 27 -118t88 -40q117 0 117 158v278q0 18 -16 21l-61 11v55zM286 676q0 -29 -16.5 -46t-44.5 -17
t-44.5 17t-16.5 46q0 28 16.5 45t44.5 17t44.5 -17t16.5 -45zM482 676q0 -29 -16.5 -46t-44.5 -17t-44.5 17t-16.5 46q0 28 16.5 45t44.5 17t44.5 -17t16.5 -45z" />
    <glyph glyph-name="Yacute" unicode="&#xdd;" horiz-adv-x="549" 
d="M436 0h-315v52l69 14q17 3 17 19v138l-150 264q-7 12 -21 15l-45 11v55h277v-55l-57 -14l101 -197l95 197l-64 14v55h203v-55l-42 -10q-15 -5 -20 -15l-135 -267v-136q0 -16 18 -19l69 -14v-52zM438 695q-61 -43 -225 -88l-23 45l193 124z" />
    <glyph glyph-name="Thorn" unicode="&#xde;" horiz-adv-x="533" 
d="M314 0h-280v52l50 11q17 3 17 20v398q0 18 -17 21l-50 11v55h280v-55l-60 -11q-17 -3 -17 -21v-40q82 7 106 7q84 0 125 -37.5t41 -116.5q0 -176 -194 -176q-46 0 -78 4v-38q0 -18 17 -21l60 -11v-52zM289 170q76 0 76 119q0 46 -18.5 75t-59.5 28q-23 0 -50 -3v-215
q25 -4 52 -4z" />
    <glyph glyph-name="germandbls" unicode="&#xdf;" horiz-adv-x="607" 
d="M592 122q0 -64 -49 -98.5t-127 -34.5q-77 0 -148 30q-3 24 -3 50q0 39 6 72h65l15 -55q6 -22 17 -30q18 -16 43 -16q22 0 36 12t14 33q0 19 -13 36.5t-28 28t-46 28.5q-42 25 -64 52t-22 66q0 76 87 120q8 32 8 59q0 47 -22.5 74t-64.5 27q-80 0 -80 -103v-473h-187v52
l39 7q17 3 17 20v263l-61 10v50l61 12v22q0 84 74 151t172 67q74 0 128.5 -41t55.5 -116q0 -43 -20 -97q-81 -19 -81 -66q0 -20 17 -36t60 -42q54 -32 77.5 -61.5t23.5 -72.5z" />
    <glyph glyph-name="agrave" unicode="&#xe0;" horiz-adv-x="455" 
d="M201 64q32 0 58 18v90l-40 -3q-61 -3 -61 -60q0 -45 43 -45zM145 -8q-55 0 -88 27.5t-33 74.5q0 55 46 86.5t115 35.5l74 4v41q0 43 -19.5 60.5t-59.5 17.5q-67 0 -114 -43l-30 26q39 102 183 102q87 0 127 -40t40 -121v-180q0 -20 19 -22l36 -5v-49q-56 -14 -86 -14
q-66 0 -88 49q-42 -50 -122 -50zM168 659l139 -162l-35 -42q-119 66 -175 137z" />
    <glyph glyph-name="aacute" unicode="&#xe1;" horiz-adv-x="455" 
d="M201 64q32 0 58 18v90l-40 -3q-61 -3 -61 -60q0 -45 43 -45zM145 -8q-55 0 -88 27.5t-33 74.5q0 55 46 86.5t115 35.5l74 4v41q0 43 -19.5 60.5t-59.5 17.5q-67 0 -114 -43l-30 26q39 102 183 102q87 0 127 -40t40 -121v-180q0 -20 19 -22l36 -5v-49q-56 -14 -86 -14
q-66 0 -88 49q-42 -50 -122 -50zM184 455l-33 40l144 164l72 -67q-54 -67 -183 -137z" />
    <glyph glyph-name="acircumflex" unicode="&#xe2;" horiz-adv-x="455" 
d="M201 64q32 0 58 18v90l-40 -3q-61 -3 -61 -60q0 -45 43 -45zM145 -8q-55 0 -88 27.5t-33 74.5q0 55 46 86.5t115 35.5l74 4v41q0 43 -19.5 60.5t-59.5 17.5q-67 0 -114 -43l-30 26q39 102 183 102q87 0 127 -40t40 -121v-180q0 -20 19 -22l36 -5v-49q-56 -14 -86 -14
q-66 0 -88 49q-42 -50 -122 -50zM105 459l-40 38l110 143l79 7l120 -147l-42 -40l-118 92z" />
    <glyph glyph-name="atilde" unicode="&#xe3;" horiz-adv-x="455" 
d="M201 64q32 0 58 18v90l-40 -3q-61 -3 -61 -60q0 -45 43 -45zM145 -8q-55 0 -88 27.5t-33 74.5q0 55 46 86.5t115 35.5l74 4v41q0 43 -19.5 60.5t-59.5 17.5q-67 0 -114 -43l-30 26q39 102 183 102q87 0 127 -40t40 -121v-180q0 -20 19 -22l36 -5v-49q-56 -14 -86 -14
q-66 0 -88 49q-42 -50 -122 -50zM383 581q-12 -48 -41 -80t-69 -32q-29 0 -67.5 26t-53.5 26q-30 0 -57 -48l-38 22q11 48 40 80t69 32q30 0 68 -25.5t54 -25.5q29 0 57 47z" />
    <glyph glyph-name="adieresis" unicode="&#xe4;" horiz-adv-x="455" 
d="M201 64q32 0 58 18v90l-40 -3q-61 -3 -61 -60q0 -45 43 -45zM145 -8q-55 0 -88 27.5t-33 74.5q0 55 46 86.5t115 35.5l74 4v41q0 43 -19.5 60.5t-59.5 17.5q-67 0 -114 -43l-30 26q39 102 183 102q87 0 127 -40t40 -121v-180q0 -20 19 -22l36 -5v-49q-56 -14 -86 -14
q-66 0 -88 49q-42 -50 -122 -50zM193 539q0 -28 -16.5 -45t-43.5 -17q-29 0 -45.5 16.5t-16.5 45.5t16.5 45.5t45.5 16.5q27 0 43.5 -17t16.5 -45zM368 539q0 -29 -16 -45.5t-44 -16.5t-44.5 17t-16.5 45t16.5 45t44.5 17t44 -16.5t16 -45.5z" />
    <glyph glyph-name="aring" unicode="&#xe5;" horiz-adv-x="455" 
d="M201 64q32 0 58 18v90l-40 -3q-61 -3 -61 -60q0 -45 43 -45zM145 -8q-55 0 -88 27.5t-33 74.5q0 55 46 86.5t115 35.5l74 4v41q0 43 -19.5 60.5t-59.5 17.5q-67 0 -114 -43l-30 26q39 102 183 102q87 0 127 -40t40 -121v-180q0 -20 19 -22l36 -5v-49q-56 -14 -86 -14
q-66 0 -88 49q-42 -50 -122 -50zM333 557q0 -42 -32.5 -68t-81.5 -26q-54 0 -83 25.5t-29 70.5q0 42 33.5 67.5t83.5 25.5q54 0 81.5 -26t27.5 -69zM177 559q0 -21 11 -34t32 -13q43 0 43 43q0 48 -43 48t-43 -44z" />
    <glyph glyph-name="ae" unicode="&#xe6;" horiz-adv-x="652" 
d="M620 91q-15 -50 -62 -75t-110 -25q-105 0 -153 70q-48 -69 -146 -69q-59 0 -92 27.5t-33 73.5q0 56 46 88t115 35l74 5v40q0 78 -82 78q-65 0 -111 -43l-30 26q18 48 64 75t109 27q79 0 115 -45q51 45 136 45q81 0 122 -38.5t41 -102.5q0 -24 -6 -58h-231
q1 -83 25 -118.5t77 -35.5q68 0 103 41zM449 371q-53 0 -61 -98h115v17q0 36 -13.5 58.5t-40.5 22.5zM201 64q38 0 76 30q-14 36 -17 78l-41 -3q-61 -3 -61 -60q0 -45 43 -45z" />
    <glyph glyph-name="ccedilla" unicode="&#xe7;" horiz-adv-x="414" 
d="M29 202q0 107 58.5 165t153.5 58q81 0 140 -32q5 -67 -8 -143h-64l-21 73q-5 23 -15 31q-15 13 -35 13q-68 0 -68 -147q0 -76 22.5 -112.5t73.5 -36.5q52 0 93 34l28 -22q-14 -41 -56 -66.5t-101 -25.5l-7 -23h11q33 -1 53 -19t20 -48q0 -42 -40 -67.5t-104 -25.5
q-16 0 -24 1l-7 42q75 7 75 46q0 30 -43 32l22 65q-79 11 -118 67t-39 141z" />
    <glyph glyph-name="egrave" unicode="&#xe8;" horiz-adv-x="431" 
d="M30 204q0 107 53 163.5t153 56.5q83 0 124 -38t41 -102q0 -34 -6 -59h-231q0 -83 22.5 -118.5t78.5 -35.5q68 0 105 41l28 -21q-14 -49 -60 -74.5t-113 -25.5q-98 0 -146.5 56t-48.5 157zM227 371q-53 0 -61 -98h115q1 5 1 17q0 81 -55 81zM172 659l139 -162l-35 -42
q-119 66 -175 137z" />
    <glyph glyph-name="eacute" unicode="&#xe9;" horiz-adv-x="431" 
d="M30 204q0 107 53 163.5t153 56.5q83 0 124 -38t41 -102q0 -34 -6 -59h-231q0 -83 22.5 -118.5t78.5 -35.5q68 0 105 41l28 -21q-14 -49 -60 -74.5t-113 -25.5q-98 0 -146.5 56t-48.5 157zM227 371q-53 0 -61 -98h115q1 5 1 17q0 81 -55 81zM188 455l-33 40l144 164
l72 -67q-54 -67 -183 -137z" />
    <glyph glyph-name="ecircumflex" unicode="&#xea;" horiz-adv-x="431" 
d="M30 204q0 107 53 163.5t153 56.5q83 0 124 -38t41 -102q0 -34 -6 -59h-231q0 -83 22.5 -118.5t78.5 -35.5q68 0 105 41l28 -21q-14 -49 -60 -74.5t-113 -25.5q-98 0 -146.5 56t-48.5 157zM227 371q-53 0 -61 -98h115q1 5 1 17q0 81 -55 81zM109 459l-40 38l110 143l79 7
l120 -147l-42 -40l-118 92z" />
    <glyph glyph-name="edieresis" unicode="&#xeb;" horiz-adv-x="431" 
d="M30 204q0 107 53 163.5t153 56.5q83 0 124 -38t41 -102q0 -34 -6 -59h-231q0 -83 22.5 -118.5t78.5 -35.5q68 0 105 41l28 -21q-14 -49 -60 -74.5t-113 -25.5q-98 0 -146.5 56t-48.5 157zM227 371q-53 0 -61 -98h115q1 5 1 17q0 81 -55 81zM197 539q0 -28 -16.5 -45
t-43.5 -17q-29 0 -45.5 16.5t-16.5 45.5t16.5 45.5t45.5 16.5q27 0 43.5 -17t16.5 -45zM372 539q0 -29 -16 -45.5t-44 -16.5t-44.5 17t-16.5 45t16.5 45t44.5 17t44 -16.5t16 -45.5z" />
    <glyph glyph-name="igrave" unicode="&#xec;" horiz-adv-x="291" 
d="M217 408v-328q0 -18 17 -21l39 -7v-52h-244v52l39 7q17 3 17 21v239q0 18 -16 21l-44 9v54q78 21 174 21zM84 659l139 -162l-35 -42q-119 66 -175 137z" />
    <glyph glyph-name="iacute" unicode="&#xed;" horiz-adv-x="291" 
d="M217 408v-328q0 -18 17 -21l39 -7v-52h-244v52l39 7q17 3 17 21v239q0 18 -16 21l-44 9v54q78 21 174 21zM100 455l-33 40l144 164l72 -67q-54 -67 -183 -137z" />
    <glyph glyph-name="icircumflex" unicode="&#xee;" horiz-adv-x="291" 
d="M217 408v-328q0 -18 17 -21l39 -7v-52h-244v52l39 7q17 3 17 21v239q0 18 -16 21l-44 9v54q78 21 174 21zM36 460l-40 35l95 143l79 7l105 -147l-42 -38l-103 93z" />
    <glyph glyph-name="idieresis" unicode="&#xef;" horiz-adv-x="291" 
d="M217 408v-328q0 -18 17 -21l39 -7v-52h-244v52l39 7q17 3 17 21v239q0 18 -16 21l-44 9v54q78 21 174 21zM109 539q0 -28 -16.5 -45t-43.5 -17q-29 0 -45.5 16.5t-16.5 45.5t16.5 45.5t45.5 16.5q27 0 43.5 -17t16.5 -45zM284 539q0 -29 -16 -45.5t-44 -16.5t-44.5 17
t-16.5 45t16.5 45t44.5 17t44 -16.5t16 -45.5z" />
    <glyph glyph-name="eth" unicode="&#xf0;" horiz-adv-x="477" 
d="M439 238q0 -50 -10.5 -91.5t-34 -77.5t-67 -56.5t-102.5 -20.5q-92 0 -143.5 53t-51.5 155q0 106 51.5 158t117.5 52q52 0 85 -29q-19 68 -66 121l-103 -69l-35 58l92 53q-42 33 -101 64l23 46q89 -19 156 -62l93 61l36 -57l-77 -43q137 -122 137 -315zM237 48
q36 0 51 38t15 132q0 53 -6 98q-24 24 -59 24q-34 0 -50 -31t-16 -110q0 -151 65 -151z" />
    <glyph glyph-name="ntilde" unicode="&#xf1;" horiz-adv-x="544" 
d="M529 0h-229v52l25 7q16 6 16 21v172q0 50 -14.5 71.5t-47.5 21.5q-31 0 -62 -17v-248q0 -15 16 -21l24 -7v-52h-228v52l40 7q16 3 16 21v239q0 18 -16 21l-44 9v54q76 19 159 21l19 -16l7 -40q52 55 135 55q70 0 98.5 -39t28.5 -118v-186q0 -18 17 -21l40 -7v-52z
M437 581q-12 -48 -41 -80t-69 -32q-29 0 -67.5 26t-53.5 26q-30 0 -57 -48l-38 22q11 48 40 80t69 32q30 0 68 -25.5t54 -25.5q29 0 57 47z" />
    <glyph glyph-name="ograve" unicode="&#xf2;" horiz-adv-x="478" 
d="M307 202q0 94 -15 131t-55 37q-34 0 -50 -35.5t-16 -121.5q0 -93 15 -130.5t55 -37.5q34 0 50 35.5t16 121.5zM29 203q0 116 58.5 169t157.5 53q97 0 150 -53t53 -160q0 -221 -215 -221q-98 0 -151 53t-53 159zM187 659l139 -162l-35 -42q-119 66 -175 137z" />
    <glyph glyph-name="oacute" unicode="&#xf3;" horiz-adv-x="478" 
d="M307 202q0 94 -15 131t-55 37q-34 0 -50 -35.5t-16 -121.5q0 -93 15 -130.5t55 -37.5q34 0 50 35.5t16 121.5zM29 203q0 116 58.5 169t157.5 53q97 0 150 -53t53 -160q0 -221 -215 -221q-98 0 -151 53t-53 159zM203 455l-33 40l144 164l72 -67q-54 -67 -183 -137z" />
    <glyph glyph-name="ocircumflex" unicode="&#xf4;" horiz-adv-x="478" 
d="M307 202q0 94 -15 131t-55 37q-34 0 -50 -35.5t-16 -121.5q0 -93 15 -130.5t55 -37.5q34 0 50 35.5t16 121.5zM29 203q0 116 58.5 169t157.5 53q97 0 150 -53t53 -160q0 -221 -215 -221q-98 0 -151 53t-53 159zM124 459l-40 38l110 143l79 7l120 -147l-42 -40l-118 92z
" />
    <glyph glyph-name="otilde" unicode="&#xf5;" horiz-adv-x="478" 
d="M307 202q0 94 -15 131t-55 37q-34 0 -50 -35.5t-16 -121.5q0 -93 15 -130.5t55 -37.5q34 0 50 35.5t16 121.5zM29 203q0 116 58.5 169t157.5 53q97 0 150 -53t53 -160q0 -221 -215 -221q-98 0 -151 53t-53 159zM402 581q-12 -48 -41 -80t-69 -32q-29 0 -67.5 26t-53.5 26
q-30 0 -57 -48l-38 22q11 48 40 80t69 32q30 0 68 -25.5t54 -25.5q29 0 57 47z" />
    <glyph glyph-name="odieresis" unicode="&#xf6;" horiz-adv-x="478" 
d="M307 202q0 94 -15 131t-55 37q-34 0 -50 -35.5t-16 -121.5q0 -93 15 -130.5t55 -37.5q34 0 50 35.5t16 121.5zM29 203q0 116 58.5 169t157.5 53q97 0 150 -53t53 -160q0 -221 -215 -221q-98 0 -151 53t-53 159zM212 539q0 -28 -16.5 -45t-43.5 -17q-28 0 -45 16.5
t-17 45.5t17 45.5t45 16.5q27 0 43.5 -17t16.5 -45zM387 539q0 -29 -16 -45.5t-44 -16.5t-44.5 17t-16.5 45t16.5 45t44.5 17t44 -16.5t16 -45.5z" />
    <glyph glyph-name="divide" unicode="&#xf7;" horiz-adv-x="408" 
d="M375 188h-342v76h342v-76zM270 88q0 -26 -18 -42.5t-48 -16.5t-48 16.5t-18 42.5q0 27 18 43t48 16t48 -16t18 -43zM270 363q0 -27 -18 -43t-48 -16t-48 16t-18 43t18 43t48 16t48 -16t18 -43z" />
    <glyph glyph-name="oslash" unicode="&#xf8;" horiz-adv-x="478" 
d="M448 212q0 -221 -215 -221q-28 0 -56 5l-38 -77l-55 28l34 70q-89 48 -89 186q0 116 58.5 169t157.5 53q33 0 61 -6l34 70l54 -28l-31 -64q85 -50 85 -185zM159 213q0 -72 10 -109l114 254q-17 14 -46 14q-39 0 -58.5 -36t-19.5 -123zM241 43q39 0 58.5 36t19.5 123
q0 65 -9 104l-112 -251q16 -12 43 -12z" />
    <glyph glyph-name="ugrave" unicode="&#xf9;" horiz-adv-x="526" 
d="M508 7q-50 -14 -88 -14q-64 0 -88 48q-46 -49 -129 -49q-130 0 -130 143v185q0 18 -16 21l-39 10v54q81 19 169 19l17 -16v-256q0 -50 14 -69.5t45 -19.5t59 18v240q0 18 -16 21l-42 10v54q78 18 172 18l17 -16v-325q0 -20 19 -22l36 -5v-49zM203 659l139 -162l-35 -42
q-119 66 -175 137z" />
    <glyph glyph-name="uacute" unicode="&#xfa;" horiz-adv-x="526" 
d="M508 7q-50 -14 -88 -14q-64 0 -88 48q-46 -49 -129 -49q-130 0 -130 143v185q0 18 -16 21l-39 10v54q81 19 169 19l17 -16v-256q0 -50 14 -69.5t45 -19.5t59 18v240q0 18 -16 21l-42 10v54q78 18 172 18l17 -16v-325q0 -20 19 -22l36 -5v-49zM219 455l-33 40l144 164
l72 -67q-54 -67 -183 -137z" />
    <glyph glyph-name="ucircumflex" unicode="&#xfb;" horiz-adv-x="526" 
d="M508 7q-50 -14 -88 -14q-64 0 -88 48q-46 -49 -129 -49q-130 0 -130 143v185q0 18 -16 21l-39 10v54q81 19 169 19l17 -16v-256q0 -50 14 -69.5t45 -19.5t59 18v240q0 18 -16 21l-42 10v54q78 18 172 18l17 -16v-325q0 -20 19 -22l36 -5v-49zM140 459l-40 38l110 143
l79 7l120 -147l-42 -40l-118 92z" />
    <glyph glyph-name="udieresis" unicode="&#xfc;" horiz-adv-x="526" 
d="M508 7q-50 -14 -88 -14q-64 0 -88 48q-46 -49 -129 -49q-130 0 -130 143v185q0 18 -16 21l-39 10v54q81 19 169 19l17 -16v-256q0 -50 14 -69.5t45 -19.5t59 18v240q0 18 -16 21l-42 10v54q78 18 172 18l17 -16v-325q0 -20 19 -22l36 -5v-49zM228 539q0 -28 -16.5 -45
t-43.5 -17q-28 0 -45 16.5t-17 45.5t17 45.5t45 16.5q27 0 43.5 -17t16.5 -45zM403 539q0 -29 -16 -45.5t-44 -16.5t-44.5 17t-16.5 45t16.5 45t44.5 17t44 -16.5t16 -45.5z" />
    <glyph glyph-name="yacute" unicode="&#xfd;" horiz-adv-x="472" 
d="M18 -117q94 14 141 36.5t78 80.5h-53l-129 335q-6 15 -22 19l-28 9v51l243 -1v-52l-54 -12l83 -244l78 245l-51 11v53h165v-51l-28 -9q-16 -6 -21 -19l-120 -342q-33 -93 -76 -137t-106 -44q-52 0 -100 10v61zM219 455l-33 40l144 164l72 -67q-54 -67 -183 -137z" />
    <glyph glyph-name="thorn" unicode="&#xfe;" horiz-adv-x="486" 
d="M231 43q42 0 64 37.5t23 126.5q1 75 -17.5 108t-57.5 33q-31 0 -54 -13v-284q17 -8 42 -8zM456 227q0 -113 -60 -174t-164 -61q-23 0 -43 4v-97q0 -19 18 -20l56 -8v-51h-262v51l40 8q17 3 17 20v653q0 18 -17 20l-47 8v52q83 21 178 23l17 -16v-259q47 45 112 45
q70 0 112.5 -50t42.5 -148z" />
    <glyph glyph-name="ydieresis" unicode="&#xff;" horiz-adv-x="472" 
d="M18 -117q94 14 141 36.5t78 80.5h-53l-129 335q-6 15 -22 19l-28 9v51l243 -1v-52l-54 -12l83 -244l78 245l-51 11v53h165v-51l-28 -9q-16 -6 -21 -19l-120 -342q-33 -93 -76 -137t-106 -44q-52 0 -100 10v61zM228 539q0 -28 -16.5 -45t-43.5 -17q-28 0 -45 16.5
t-17 45.5t17 45.5t45 16.5q27 0 43.5 -17t16.5 -45zM403 539q0 -29 -16 -45.5t-44 -16.5t-44.5 17t-16.5 45t16.5 45t44.5 17t44 -16.5t16 -45.5z" />
    <glyph glyph-name="Amacron" unicode="&#x100;" horiz-adv-x="584" 
d="M357 570l166 -488q5 -14 20 -18l45 -12v-52h-273v52l70 12l-32 102h-185l-31 -102l69 -12v-52h-212v52l49 12q15 4 19 18l166 488h129zM153 635v75h280v-75h-280zM334 228l-74 239l-73 -239h147z" />
    <glyph glyph-name="amacron" unicode="&#x101;" horiz-adv-x="455" 
d="M201 64q32 0 58 18v90l-40 -3q-61 -3 -61 -60q0 -45 43 -45zM145 -8q-55 0 -88 27.5t-33 74.5q0 55 46 86.5t115 35.5l74 4v41q0 43 -19.5 60.5t-59.5 17.5q-67 0 -114 -43l-30 26q39 102 183 102q87 0 127 -40t40 -121v-180q0 -20 19 -22l36 -5v-49q-56 -14 -86 -14
q-66 0 -88 49q-42 -50 -122 -50zM86 493v75h267v-75h-267z" />
    <glyph glyph-name="Abreve" unicode="&#x102;" horiz-adv-x="584" 
d="M357 570l166 -488q5 -14 20 -18l45 -12v-52h-273v52l70 12l-32 102h-185l-31 -102l69 -12v-52h-212v52l49 12q15 4 19 18l166 488h129zM447 732q-14 -53 -56 -86t-99 -33q-59 0 -101 34t-52 85l51 27q36 -60 106 -60q68 0 106 60zM334 228l-74 239l-73 -239h147z" />
    <glyph glyph-name="abreve" unicode="&#x103;" horiz-adv-x="455" 
d="M201 64q32 0 58 18v90l-40 -3q-61 -3 -61 -60q0 -45 43 -45zM145 -8q-55 0 -88 27.5t-33 74.5q0 55 46 86.5t115 35.5l74 4v41q0 43 -19.5 60.5t-59.5 17.5q-67 0 -114 -43l-30 26q39 102 183 102q87 0 127 -40t40 -121v-180q0 -20 19 -22l36 -5v-49q-56 -14 -86 -14
q-66 0 -88 49q-42 -50 -122 -50zM371 594q-12 -55 -54 -88.5t-100 -33.5t-99 34.5t-49 87.5l52 27q34 -63 100 -63q65 0 104 63z" />
    <glyph glyph-name="Aogonek" unicode="&#x104;" horiz-adv-x="584" 
d="M564 -161q-45 -28 -107 -28q-46 1 -74 20.5t-28 56.5t30 66t74 44v2h-144v52l70 12l-32 102h-185l-31 -102l69 -12v-52h-212v52l49 12q15 4 19 18l166 488h129l166 -488q5 -14 20 -18l45 -12v-52h-46q-38 -13 -61.5 -35.5t-23.5 -46.5q0 -37 47 -37q20 0 40 9zM334 228
l-74 239l-73 -239h147z" />
    <glyph glyph-name="aogonek" unicode="&#x105;" horiz-adv-x="455" 
d="M433 -161q-44 -28 -104 -28q-45 1 -73 20.5t-28 56.5q0 36 29 64.5t70 42.5q-43 8 -60 47q-42 -50 -122 -50q-55 0 -88 27.5t-33 74.5q0 55 46 86.5t115 35.5l74 4v41q0 43 -19.5 60.5t-59.5 17.5q-67 0 -114 -43l-30 26q39 102 183 102q87 0 127 -40t40 -121v-180
q0 -20 19 -22l36 -5v-49q-22 -5 -31 -7q-37 -13 -59.5 -36t-22.5 -46q0 -37 46 -37q20 0 41 9zM201 64q32 0 58 18v90l-40 -3q-61 -3 -61 -60q0 -45 43 -45z" />
    <glyph glyph-name="Cacute" unicode="&#x106;" horiz-adv-x="531" 
d="M294 -13q-130 0 -195 73t-65 212q0 154 75 230.5t207 76.5q95 0 177 -31q6 -76 -8 -164h-81l-21 95q-7 21 -20 29q-23 16 -58 16q-116 0 -116 -238q0 -243 119 -243q41 0 64 22q10 10 16 28l25 84l80 -6q5 -77 -6 -152q-92 -32 -193 -32zM456 695q-61 -43 -225 -88
l-23 45l193 124z" />
    <glyph glyph-name="cacute" unicode="&#x107;" horiz-adv-x="414" 
d="M29 202q0 107 58.5 165t153.5 58q81 0 140 -32q5 -67 -8 -143h-64l-21 73q-5 23 -15 31q-15 13 -35 13q-68 0 -68 -147q0 -76 22.5 -112.5t73.5 -36.5q52 0 93 34l28 -22q-14 -41 -57 -66.5t-107 -25.5q-97 0 -145.5 58t-48.5 153zM192 455l-33 40l144 164l72 -67
q-54 -67 -183 -137z" />
    <glyph glyph-name="Ccircumflex" unicode="&#x108;" horiz-adv-x="531" 
d="M294 -13q-130 0 -195 73t-65 212q0 154 75 230.5t207 76.5q95 0 177 -31q6 -76 -8 -164h-81l-21 95q-7 21 -20 29q-23 16 -58 16q-116 0 -116 -238q0 -243 119 -243q41 0 64 22q10 10 16 28l25 84l80 -6q5 -77 -6 -152q-92 -32 -193 -32zM179 602l-35 40l116 119l81 3
l125 -119l-37 -42l-129 73z" />
    <glyph glyph-name="ccircumflex" unicode="&#x109;" horiz-adv-x="414" 
d="M29 202q0 107 58.5 165t153.5 58q81 0 140 -32q5 -67 -8 -143h-64l-21 73q-5 23 -15 31q-15 13 -35 13q-68 0 -68 -147q0 -76 22.5 -112.5t73.5 -36.5q52 0 93 34l28 -22q-14 -41 -57 -66.5t-107 -25.5q-97 0 -145.5 58t-48.5 153zM113 459l-40 38l110 143l79 7l120 -147
l-42 -40l-118 92z" />
    <glyph glyph-name="Cdotaccent" unicode="&#x10a;" horiz-adv-x="531" 
d="M294 -13q-130 0 -195 73t-65 212q0 154 75 230.5t207 76.5q95 0 177 -31q6 -76 -8 -164h-81l-21 95q-7 21 -20 29q-23 16 -58 16q-116 0 -116 -238q0 -243 119 -243q41 0 64 22q10 10 16 28l25 84l80 -6q5 -77 -6 -152q-92 -32 -193 -32zM378 686q0 -31 -19.5 -49
t-53.5 -18q-33 0 -53 18t-20 49t20 49t53 18q34 0 53.5 -18t19.5 -49z" />
    <glyph glyph-name="cdotaccent" unicode="&#x10b;" horiz-adv-x="414" 
d="M29 202q0 107 58.5 165t153.5 58q81 0 140 -32q5 -67 -8 -143h-64l-21 73q-5 23 -15 31q-15 13 -35 13q-68 0 -68 -147q0 -76 22.5 -112.5t73.5 -36.5q52 0 93 34l28 -22q-14 -41 -57 -66.5t-107 -25.5q-97 0 -145.5 58t-48.5 153zM308 538q0 -30 -19.5 -48t-51.5 -18
q-33 0 -52.5 18t-19.5 48t19.5 47.5t52.5 17.5q32 0 51.5 -17.5t19.5 -47.5z" />
    <glyph glyph-name="Ccaron" unicode="&#x10c;" horiz-adv-x="531" 
d="M294 -13q-130 0 -195 73t-65 212q0 154 75 230.5t207 76.5q95 0 177 -31q6 -76 -8 -164h-81l-21 95q-7 21 -20 29q-23 16 -58 16q-116 0 -116 -238q0 -243 119 -243q41 0 64 22q10 10 16 28l25 84l80 -6q5 -77 -6 -152q-92 -32 -193 -32zM430 771l36 -40l-117 -119
l-80 -4l-125 120l37 42l129 -73z" />
    <glyph glyph-name="ccaron" unicode="&#x10d;" horiz-adv-x="414" 
d="M29 202q0 107 58.5 165t153.5 58q81 0 140 -32q5 -67 -8 -143h-64l-21 73q-5 23 -15 31q-15 13 -35 13q-68 0 -68 -147q0 -76 22.5 -112.5t73.5 -36.5q52 0 93 34l28 -22q-14 -41 -57 -66.5t-107 -25.5q-97 0 -145.5 58t-48.5 153zM348 659l40 -38l-109 -142l-79 -7
l-120 147l42 39l117 -91z" />
    <glyph glyph-name="Dcaron" unicode="&#x10e;" horiz-adv-x="614" 
d="M173 568q25 0 67.5 2t62.5 2q140 0 208.5 -65t68.5 -204q0 -151 -75 -231t-211 -78q-14 0 -59 3t-61 3h-142v52l59 11q15 3 15 18v403q0 15 -15 17l-59 12v55h141zM244 59q16 -8 52 -8q67 1 100 53t33 178q0 237 -136 237q-21 0 -49 -7v-453zM423 771l36 -40l-117 -119
l-80 -4l-125 120l37 42l129 -73z" />
    <glyph glyph-name="dcaron" unicode="&#x10f;" horiz-adv-x="516" 
d="M240 63q31 0 59 14v283q-18 9 -44 9q-42 0 -64 -36t-23 -123q0 -147 72 -147zM194 -8q-75 0 -119.5 50.5t-44.5 152.5q0 111 55.5 170.5t159.5 59.5q27 0 54 -5v132q0 18 -17 21l-48 7v51q84 22 178 24l18 -17v-555q0 -20 18 -22l36 -5v-49q-48 -14 -88 -14q-63 0 -87 49
q-45 -50 -115 -50zM528 468l-54 11l15 208l97 -11q-16 -108 -58 -208z" />
    <glyph glyph-name="Dcroat" unicode="&#x110;" horiz-adv-x="615" 
d="M37 259v61h69v164q0 15 -14 17l-59 12v55h140q26 0 68 2t62 2q140 0 208.5 -65t68.5 -204q0 -151 -74.5 -231t-210.5 -78q-15 0 -60 3t-60 3h-142v52l58 11q15 3 15 18v178h-69zM244 59q17 -8 52 -8q67 1 100.5 53t33.5 178q0 237 -137 237q-14 0 -49 -7v-192h93v-61h-93
v-200z" />
    <glyph glyph-name="dcroat" unicode="&#x111;" horiz-adv-x="503" 
d="M170 470v53h129v29q0 18 -17 21l-48 7v51q84 22 178 24l18 -17v-115h53v-53h-53v-387q0 -20 18 -22l36 -5v-49q-48 -14 -88 -14q-63 0 -87 49q-45 -50 -115 -50q-75 0 -119.5 49.5t-44.5 149.5q0 108 55.5 165.5t159.5 57.5q27 0 54 -5v61h-129zM240 63q31 0 59 14v272
q-18 9 -44 9q-42 0 -64 -34t-23 -117q0 -144 72 -144z" />
    <glyph glyph-name="Emacron" unicode="&#x112;" horiz-adv-x="528" 
d="M472 413h-65l-20 67q-4 16 -21 24q-26 8 -61 8h-61v-191l156 6v-75l-156 4v-197h77q45 0 66 8q12 6 19 24l31 90l65 -10q0 -79 -14 -171h-456v52l57 11q17 3 17 20v398q0 18 -17 21l-57 11v55h437q9 -69 3 -155zM131 635v75h280v-75h-280z" />
    <glyph glyph-name="emacron" unicode="&#x113;" horiz-adv-x="431" 
d="M30 204q0 107 53 163.5t153 56.5q83 0 124 -38t41 -102q0 -34 -6 -59h-231q0 -83 22.5 -118.5t78.5 -35.5q68 0 105 41l28 -21q-14 -49 -60 -74.5t-113 -25.5q-98 0 -146.5 56t-48.5 157zM227 371q-53 0 -61 -98h115q1 5 1 17q0 81 -55 81zM90 493v75h267v-75h-267z" />
    <glyph glyph-name="Ebreve" unicode="&#x114;" horiz-adv-x="528" 
d="M472 413h-65l-20 67q-4 16 -21 24q-26 8 -61 8h-61v-191l156 6v-75l-156 4v-197h77q45 0 66 8q12 6 19 24l31 90l65 -10q0 -79 -14 -171h-456v52l57 11q17 3 17 20v398q0 18 -17 21l-57 11v55h437q9 -69 3 -155zM425 732q-14 -53 -56 -86t-99 -33q-59 0 -101 34t-52 85
l51 27q36 -60 106 -60q68 0 106 60z" />
    <glyph glyph-name="ebreve" unicode="&#x115;" horiz-adv-x="431" 
d="M30 204q0 107 53 163.5t153 56.5q83 0 124 -38t41 -102q0 -34 -6 -59h-231q0 -83 22.5 -118.5t78.5 -35.5q68 0 105 41l28 -21q-14 -49 -60 -74.5t-113 -25.5q-98 0 -146.5 56t-48.5 157zM227 371q-53 0 -61 -98h115q1 5 1 17q0 81 -55 81zM375 594q-12 -55 -54 -88.5
t-100 -33.5t-99 34.5t-49 87.5l52 27q34 -63 100 -63q65 0 104 63z" />
    <glyph glyph-name="Edotaccent" unicode="&#x116;" horiz-adv-x="528" 
d="M472 413h-65l-20 67q-4 16 -21 24q-26 8 -61 8h-61v-191l156 6v-75l-156 4v-197h77q45 0 66 8q12 6 19 24l31 90l65 -10q0 -79 -14 -171h-456v52l57 11q17 3 17 20v398q0 18 -17 21l-57 11v55h437q9 -69 3 -155zM344 686q0 -31 -19.5 -49t-53.5 -18q-33 0 -53 18t-20 49
t20 49t53 18q34 0 53.5 -18t19.5 -49z" />
    <glyph glyph-name="edotaccent" unicode="&#x117;" horiz-adv-x="431" 
d="M30 204q0 107 53 163.5t153 56.5q83 0 124 -38t41 -102q0 -34 -6 -59h-231q0 -83 22.5 -118.5t78.5 -35.5q68 0 105 41l28 -21q-14 -49 -60 -74.5t-113 -25.5q-98 0 -146.5 56t-48.5 157zM227 371q-53 0 -61 -98h115q1 5 1 17q0 81 -55 81zM304 538q0 -30 -19.5 -48
t-51.5 -18q-33 0 -52.5 18t-19.5 48t19.5 47.5t52.5 17.5q32 0 51.5 -17.5t19.5 -47.5z" />
    <glyph glyph-name="Eogonek" unicode="&#x118;" horiz-adv-x="528" 
d="M494 -161q-45 -28 -106 -28q-46 1 -74.5 21t-28.5 56q0 37 30 66t76 44v2h-359v52l57 11q17 3 17 20v398q0 18 -17 21l-57 11v55h437q9 -69 3 -155h-65l-20 67q-4 16 -21 24q-26 8 -61 8h-61v-191l156 6v-75l-156 4v-197h77q45 0 66 8q12 5 19 24l31 90l65 -10
q0 -79 -14 -171q-44 -10 -72 -33.5t-28 -48.5q0 -37 47 -37q21 0 40 9z" />
    <glyph glyph-name="eogonek" unicode="&#x119;" horiz-adv-x="431" 
d="M177 -113q0 63 81 104v2q-20 -2 -33 -2q-98 0 -146.5 56t-48.5 157q0 107 53 163.5t153 56.5q83 0 124 -38t41 -102q0 -34 -6 -59h-231q0 -83 22.5 -118.5t78.5 -35.5q68 0 105 41l30 -23q-14 -36 -49 -64q-1 -1 -3.5 -2.5t-3.5 -2.5q-67 -58 -67 -100q0 -39 44 -39
q23 0 43 9l19 -51q-45 -28 -105 -28q-44 1 -72.5 20.5t-28.5 55.5zM227 371q-53 0 -61 -98h115q1 5 1 17q0 81 -55 81z" />
    <glyph glyph-name="Ecaron" unicode="&#x11a;" horiz-adv-x="528" 
d="M472 413h-65l-20 67q-4 16 -21 24q-26 8 -61 8h-61v-191l156 6v-75l-156 4v-197h77q45 0 66 8q12 6 19 24l31 90l65 -10q0 -79 -14 -171h-456v52l57 11q17 3 17 20v398q0 18 -17 21l-57 11v55h437q9 -69 3 -155zM396 771l36 -40l-117 -119l-80 -4l-125 120l37 42l129 -73
z" />
    <glyph glyph-name="ecaron" unicode="&#x11b;" horiz-adv-x="431" 
d="M30 204q0 107 53 163.5t153 56.5q83 0 124 -38t41 -102q0 -34 -6 -59h-231q0 -83 22.5 -118.5t78.5 -35.5q68 0 105 41l28 -21q-14 -49 -60 -74.5t-113 -25.5q-98 0 -146.5 56t-48.5 157zM227 371q-53 0 -61 -98h115q1 5 1 17q0 81 -55 81zM344 659l40 -38l-109 -142
l-79 -7l-120 147l42 39l117 -91z" />
    <glyph glyph-name="Gcircumflex" unicode="&#x11c;" horiz-adv-x="580" 
d="M520 9l-26 -15l-71 54q-55 -60 -154 -60q-113 0 -173.5 76t-60.5 214q0 301 288 301q101 0 184 -34q5 -62 -7 -150h-84l-20 83q-5 18 -18 28q-23 18 -59 18q-63 0 -93.5 -59.5t-30.5 -189.5q0 -110 26 -163t91 -53q46 0 77 22v149l-69 8v56h237v-56l-37 -6v-223zM201 602
l-35 40l116 119l81 3l125 -119l-37 -42l-129 73z" />
    <glyph glyph-name="gcircumflex" unicode="&#x11d;" horiz-adv-x="485" 
d="M459 -34q0 -77 -67.5 -122t-182.5 -45q-94 0 -140 31t-46 83q0 66 83 94q-47 19 -47 69q0 54 55 78q-78 31 -78 121q0 71 50 110.5t144 39.5t138 -40q28 41 69 41q15 0 38 -7v-89h-74q5 -22 5 -44q0 -69 -46.5 -109t-143.5 -40q-35 0 -56 4q-10 -11 -10 -28
q0 -19 18 -26.5t61 -7.5h74q156 0 156 -113zM231 -142q45 0 69 21.5t24 61.5q0 29 -14.5 41t-49.5 12h-75q-14 0 -20 1q-17 -25 -17 -59q0 -78 83 -78zM167 282q0 -93 57 -93q29 0 41.5 23t12.5 70q0 50 -12.5 71.5t-41.5 21.5q-57 0 -57 -93zM108 459l-40 38l110 143l79 7
l120 -147l-42 -40l-118 92z" />
    <glyph glyph-name="Gbreve" unicode="&#x11e;" horiz-adv-x="580" 
d="M520 9l-26 -15l-71 54q-55 -60 -154 -60q-113 0 -173.5 76t-60.5 214q0 301 288 301q101 0 184 -34q5 -62 -7 -150h-84l-20 83q-5 18 -18 28q-23 18 -59 18q-63 0 -93.5 -59.5t-30.5 -189.5q0 -110 26 -163t91 -53q46 0 77 22v149l-69 8v56h237v-56l-37 -6v-223zM481 732
q-14 -53 -56 -86t-99 -33q-59 0 -101 34t-52 85l51 27q36 -60 106 -60q68 0 106 60z" />
    <glyph glyph-name="gbreve" unicode="&#x11f;" horiz-adv-x="485" 
d="M459 -34q0 -77 -67.5 -122t-182.5 -45q-94 0 -140 31t-46 83q0 66 83 94q-47 19 -47 69q0 54 55 78q-78 31 -78 121q0 71 50 110.5t144 39.5t138 -40q28 41 69 41q15 0 38 -7v-89h-74q5 -22 5 -44q0 -69 -46.5 -109t-143.5 -40q-35 0 -56 4q-10 -11 -10 -28
q0 -19 18 -26.5t61 -7.5h74q156 0 156 -113zM231 -142q45 0 69 21.5t24 61.5q0 29 -14.5 41t-49.5 12h-75q-14 0 -20 1q-17 -25 -17 -59q0 -78 83 -78zM167 282q0 -93 57 -93q29 0 41.5 23t12.5 70q0 50 -12.5 71.5t-41.5 21.5q-57 0 -57 -93zM374 594q-12 -55 -54 -88.5
t-100 -33.5t-99 34.5t-49 87.5l52 27q34 -63 100 -63q65 0 104 63z" />
    <glyph glyph-name="Gdotaccent" unicode="&#x120;" horiz-adv-x="580" 
d="M520 9l-26 -15l-71 54q-55 -60 -154 -60q-113 0 -173.5 76t-60.5 214q0 301 288 301q101 0 184 -34q5 -62 -7 -150h-84l-20 83q-5 18 -18 28q-23 18 -59 18q-63 0 -93.5 -59.5t-30.5 -189.5q0 -110 26 -163t91 -53q46 0 77 22v149l-69 8v56h237v-56l-37 -6v-223zM400 686
q0 -31 -19.5 -49t-53.5 -18q-33 0 -53 18t-20 49t20 49t53 18q34 0 53.5 -18t19.5 -49z" />
    <glyph glyph-name="gdotaccent" unicode="&#x121;" horiz-adv-x="485" 
d="M459 -34q0 -77 -67.5 -122t-182.5 -45q-94 0 -140 31t-46 83q0 66 83 94q-47 19 -47 69q0 54 55 78q-78 31 -78 121q0 71 50 110.5t144 39.5t138 -40q28 41 69 41q15 0 38 -7v-89h-74q5 -22 5 -44q0 -69 -46.5 -109t-143.5 -40q-35 0 -56 4q-10 -11 -10 -28
q0 -19 18 -26.5t61 -7.5h74q156 0 156 -113zM231 -142q45 0 69 21.5t24 61.5q0 29 -14.5 41t-49.5 12h-75q-14 0 -20 1q-17 -25 -17 -59q0 -78 83 -78zM167 282q0 -93 57 -93q29 0 41.5 23t12.5 70q0 50 -12.5 71.5t-41.5 21.5q-57 0 -57 -93zM303 538q0 -30 -19.5 -48
t-51.5 -18q-33 0 -52.5 18t-19.5 48t19.5 47.5t52.5 17.5q32 0 51.5 -17.5t19.5 -47.5z" />
    <glyph glyph-name="Gcommaaccent" unicode="&#x122;" horiz-adv-x="580" 
d="M520 9l-26 -15l-71 54q-55 -60 -154 -60q-113 0 -173.5 76t-60.5 214q0 301 288 301q101 0 184 -34q5 -62 -7 -150h-84l-20 83q-5 18 -18 28q-23 18 -59 18q-63 0 -93.5 -59.5t-30.5 -189.5q0 -110 26 -163t91 -53q46 0 77 22v149l-69 8v56h237v-56l-37 -6v-223z
M359 -113q-1 -36 -26.5 -65t-65.5 -47l-27 30q32 26 32 45q0 15 -16 26q-20 18 -20 38t16 34.5t39 14.5q30 0 49.5 -21.5t18.5 -54.5z" />
    <glyph glyph-name="gcommaaccent" unicode="&#x123;" horiz-adv-x="485" 
d="M459 -34q0 -77 -67.5 -122t-182.5 -45q-94 0 -140 31t-46 83q0 66 83 94q-47 19 -47 69q0 54 55 78q-78 31 -78 121q0 71 50 110.5t144 39.5t138 -40q28 41 69 41q15 0 38 -7v-89h-74q5 -22 5 -44q0 -69 -46.5 -109t-143.5 -40q-35 0 -56 4q-10 -11 -10 -28
q0 -19 18 -26.5t61 -7.5h74q156 0 156 -113zM231 -142q45 0 69 21.5t24 61.5q0 29 -14.5 41t-49.5 12h-75q-14 0 -20 1q-17 -25 -17 -59q0 -78 83 -78zM167 282q0 -93 57 -93q29 0 41.5 23t12.5 70q0 50 -12.5 71.5t-41.5 21.5q-57 0 -57 -93zM162 548q3 71 92 112l28 -31
q-33 -23 -33 -44q0 -15 16 -26q19 -15 19 -38q0 -21 -15 -35t-38 -14q-30 0 -50 21.5t-19 54.5z" />
    <glyph glyph-name="Hcircumflex" unicode="&#x124;" horiz-adv-x="687" 
d="M655 568v-55l-58 -11q-16 -3 -16 -21v-398q0 -17 17 -20l57 -11v-52h-269v52l40 11q17 5 17 20v172h-199v-172q0 -17 16 -20l46 -11v-52h-274v52l57 11q17 3 17 20v398q0 18 -17 21l-57 11v55h274v-55l-46 -11q-16 -3 -16 -21v-159h199v159q0 16 -16 21l-42 11v55h270z
M219 602l-35 40l116 119l81 3l125 -119l-37 -42l-129 73z" />
    <glyph glyph-name="hcircumflex" unicode="&#x125;" horiz-adv-x="533" 
d="M247 0h-229v52l39 7q18 3 18 21v476q0 18 -17 20l-47 8v51q74 20 177 20l18 -18v-262q51 48 129 48q70 0 98.5 -39t28.5 -118v-186q0 -18 17 -21l39 -7v-52h-228v52l24 7q17 6 17 21v172q0 50 -15 71.5t-48 21.5q-31 0 -62 -17v-248q0 -15 16 -21l25 -7v-52zM41 677
l-35 40l116 119l81 3l125 -119l-37 -42l-129 73z" />
    <glyph glyph-name="Hbar" unicode="&#x126;" horiz-adv-x="687" 
d="M36 368v52h70v61q0 18 -16 21l-57 11v55h273v-55l-46 -11q-16 -3 -16 -21v-61h199v61q0 16 -16 21l-41 11v55h269v-55l-57 -11q-17 -3 -17 -21v-61h70v-52h-70v-285q0 -17 17 -20l57 -11v-52h-269v52l41 11q16 3 16 20v154h-199v-154q0 -17 17 -20l45 -11v-52h-273v52
l56 11q17 3 17 20v285h-70zM244 304h199v64h-199v-64z" />
    <glyph glyph-name="hbar" unicode="&#x127;" horiz-adv-x="533" 
d="M15 467v52h60v37q0 18 -17 20l-47 8v51q74 20 177 20l18 -18v-118h119v-52h-119v-102q51 48 129 48q70 0 98.5 -38.5t28.5 -117.5v-177q0 -18 17 -21l39 -7v-52h-228v52l24 7q17 6 17 21v163q0 50 -15 71.5t-48 21.5q-31 0 -62 -17v-239q0 -15 16 -21l25 -7v-52h-229v52
l39 7q18 3 18 21v387h-60z" />
    <glyph glyph-name="Itilde" unicode="&#x128;" horiz-adv-x="350" 
d="M317 568v-55l-56 -11q-17 -3 -17 -21v-397q0 -18 17 -21l56 -11v-52h-285v52l57 11q17 3 17 20v398q0 18 -17 21l-57 11v55h285zM344 722q-12 -46 -42 -77t-71 -31q-31 0 -71 24t-56 24q-30 0 -60 -44l-38 21q12 46 42 77t71 31q31 0 71 -24t56 -24q31 0 60 44z" />
    <glyph glyph-name="itilde" unicode="&#x129;" horiz-adv-x="291" 
d="M217 408v-328q0 -18 17 -21l39 -7v-52h-244v52l39 7q17 3 17 21v239q0 18 -16 21l-44 9v54q78 21 174 21zM289 581q-11 -48 -39.5 -80t-67.5 -32q-26 0 -60 26t-47 26q-26 0 -54 -44l-38 18q11 48 39 80t67 32q27 0 60.5 -25.5t46.5 -25.5q29 0 54 44z" />
    <glyph glyph-name="Imacron" unicode="&#x12a;" horiz-adv-x="350" 
d="M317 568v-55l-56 -11q-17 -3 -17 -21v-397q0 -18 17 -21l56 -11v-52h-285v52l57 11q17 3 17 20v398q0 18 -17 21l-57 11v55h285zM35 635v75h280v-75h-280z" />
    <glyph glyph-name="imacron" unicode="&#x12b;" horiz-adv-x="291" 
d="M217 408v-328q0 -18 17 -21l39 -7v-52h-244v52l39 7q17 3 17 21v239q0 18 -16 21l-44 9v54q78 21 174 21zM13 493v75h246v-75h-246z" />
    <glyph glyph-name="Ibreve" unicode="&#x12c;" horiz-adv-x="350" 
d="M317 568v-55l-56 -11q-17 -3 -17 -21v-397q0 -18 17 -21l56 -11v-52h-285v52l57 11q17 3 17 20v398q0 18 -17 21l-57 11v55h285zM329 732q-14 -53 -56 -86t-99 -33q-59 0 -101 34t-52 85l51 27q36 -60 106 -60q68 0 106 60z" />
    <glyph glyph-name="ibreve" unicode="&#x12d;" horiz-adv-x="291" 
d="M217 408v-328q0 -18 17 -21l39 -7v-52h-244v52l39 7q17 3 17 21v239q0 18 -16 21l-44 9v54q78 21 174 21zM280 594q-15 -56 -54 -89t-93 -33t-91.5 34t-49.5 88l52 25q33 -63 93 -63t97 63z" />
    <glyph glyph-name="Iogonek" unicode="&#x12e;" horiz-adv-x="350" 
d="M276 -161q-44 -28 -106 -28q-46 1 -74 20.5t-28 56.5t29 66t72 44v2h-137v52l57 11q17 3 17 20v398q0 18 -17 21l-57 11v55h285v-55l-56 -11q-17 -3 -17 -21v-397q0 -18 17 -21l56 -11v-52h-65q-37 -13 -59.5 -35.5t-22.5 -46.5q0 -37 46 -37q22 0 41 9z" />
    <glyph glyph-name="iogonek" unicode="&#x12f;" horiz-adv-x="291" 
d="M252 -161q-45 -28 -106 -28q-46 1 -74.5 20.5t-28.5 56.5t29.5 66t72.5 44v2h-116v52l39 7q17 3 17 21v239q0 18 -16 21l-44 9v54q78 21 174 21l18 -16v-328q0 -18 17 -21l39 -7v-52h-45q-37 -13 -60 -35.5t-23 -46.5q0 -37 47 -37q22 0 41 9zM216 538q0 -30 -19.5 -48
t-51.5 -18q-33 0 -52.5 18t-19.5 48t19.5 47.5t52.5 17.5q32 0 51.5 -17.5t19.5 -47.5z" />
    <glyph glyph-name="Idotaccent" unicode="&#x130;" horiz-adv-x="350" 
d="M317 568v-55l-56 -11q-17 -3 -17 -21v-397q0 -18 17 -21l56 -11v-52h-285v52l57 11q17 3 17 20v398q0 18 -17 21l-57 11v55h285zM248 686q0 -31 -19.5 -49t-53.5 -18q-33 0 -53 18t-20 49t20 49t53 18q34 0 53.5 -18t19.5 -49z" />
    <glyph glyph-name="dotlessi" unicode="&#x131;" horiz-adv-x="291" 
d="M217 408v-328q0 -18 17 -21l39 -7v-52h-244v52l39 7q17 3 17 21v239q0 18 -16 21l-44 9v54q78 21 174 21z" />
    <glyph glyph-name="IJ" unicode="&#x132;" horiz-adv-x="679" 
d="M317 568v-55l-56 -11q-17 -3 -17 -21v-397q0 -18 17 -21l56 -11v-52h-285v52l57 11q17 3 17 20v398q0 18 -17 21l-57 11v55h285zM602 502q-17 -5 -17 -21v-353q0 -129 -45.5 -188t-181.5 -94l-23 55q71 37 91.5 77.5t20.5 132.5v370q0 18 -17 21l-56 11v55h277v-55z" />
    <glyph glyph-name="ij" unicode="&#x133;" horiz-adv-x="553" 
d="M217 408v-328q0 -18 17 -21l39 -7v-52h-244v52l39 7q17 3 17 21v239q0 18 -16 21l-44 9v54q78 21 174 21zM216 538q0 -30 -19.5 -48t-51.5 -18q-33 0 -52.5 18t-19.5 48t19.5 47.5t52.5 17.5q32 0 51.5 -17.5t19.5 -47.5zM476 424l17 -16v-372q0 -116 -62 -166
q-47 -39 -153 -66l-23 55q63 31 85.5 68t22.5 102v290q0 18 -16 21l-45 9v54q78 21 174 21zM487 538q0 -30 -19.5 -48t-51.5 -18q-33 0 -52.5 18t-19.5 48t19.5 47.5t52.5 17.5q32 0 51.5 -17.5t19.5 -47.5z" />
    <glyph glyph-name="Jcircumflex" unicode="&#x134;" horiz-adv-x="329" 
d="M252 502q-17 -5 -17 -21v-353q0 -129 -45.5 -188t-181.5 -94l-23 55q71 37 91.5 77.5t20.5 132.5v370q0 18 -17 21l-56 11v55h277v-55zM37 602l-35 40l116 119l81 3l125 -119l-37 -42l-129 73z" />
    <glyph glyph-name="jcircumflex" unicode="&#x135;" horiz-adv-x="268" 
d="M191 424l17 -16v-372q0 -116 -62 -166q-47 -39 -153 -66l-23 55q63 31 85.5 68t22.5 102v290q0 18 -16 21l-45 9v54q78 21 174 21zM22 460l-40 35l95 143l79 7l105 -147l-42 -38l-103 93z" />
    <glyph glyph-name="Kcommaaccent" unicode="&#x136;" horiz-adv-x="609" 
d="M317 0h-285v52l57 11q17 3 17 20v398q0 18 -17 21l-57 11v55h285v-55l-57 -11q-17 -3 -17 -21v-208l188 229l-64 11l-1 55h224v-55l-58 -11q-14 -3 -22 -11l-121 -138q29 -36 74 -117l80 -150q10 -21 28 -25l34 -9v-52h-159q-24 0 -57 72l-47 101q-25 55 -41 80l-58 -69
v-103q0 -16 18 -19l56 -10v-52zM398 -113q-1 -36 -26.5 -65t-65.5 -47l-27 30q32 26 32 45q0 15 -16 26q-20 18 -20 38t16 34.5t39 14.5q30 0 49.5 -21.5t18.5 -54.5z" />
    <glyph glyph-name="kcommaaccent" unicode="&#x137;" horiz-adv-x="519" 
d="M260 0h-242v52l39 7q18 3 18 21v472q0 18 -17 21l-47 7v51q83 22 177 24l17 -16v-430l135 143l-67 12v49h217v-49l-42 -11q-26 -5 -39 -17l-67 -66q20 -23 47 -76l58 -111q7 -16 25 -20l39 -11v-52h-151q-16 0 -26.5 15.5t-25.5 48.5q-2 5 -3 7l-32 73q-11 25 -20 39
l-48 -47v-56q0 -18 17 -21l38 -7v-52zM347 -113q-1 -36 -26.5 -65t-65.5 -47l-27 30q32 26 32 45q0 15 -16 26q-20 18 -20 38t16 34.5t39 14.5q30 0 49.5 -21.5t18.5 -54.5z" />
    <glyph glyph-name="Lacute" unicode="&#x139;" horiz-adv-x="515" 
d="M394 93l36 117l69 -9q0 -131 -15 -201h-452v52l57 11q17 3 17 20v399q0 17 -17 20l-57 11v55h304v-55l-75 -12q-17 -3 -17 -20v-421h63q43 0 66 9q16 6 21 24zM374 695q-61 -43 -225 -88l-23 45l193 124z" />
    <glyph glyph-name="lacute" unicode="&#x13a;" horiz-adv-x="285" 
d="M208 638v-558q0 -18 17 -21l44 -7v-52h-253v52l44 7q17 3 17 20v473q0 18 -17 21l-47 7v51q82 22 178 24zM286 774q-61 -43 -225 -88l-23 45l193 124z" />
    <glyph glyph-name="Lcommaaccent" unicode="&#x13b;" horiz-adv-x="515" 
d="M394 93l36 117l69 -9q0 -131 -15 -201h-452v52l57 11q17 3 17 20v399q0 17 -17 20l-57 11v55h304v-55l-75 -12q-17 -3 -17 -20v-421h63q43 0 66 9q16 6 21 24zM347 -113q-1 -36 -26.5 -65t-65.5 -47l-27 30q32 26 32 45q0 15 -16 26q-20 18 -20 38t16 34.5t39 14.5
q30 0 49.5 -21.5t18.5 -54.5z" />
    <glyph glyph-name="lcommaaccent" unicode="&#x13c;" horiz-adv-x="285" 
d="M208 638v-558q0 -18 17 -21l44 -7v-52h-253v52l44 7q17 3 17 20v473q0 18 -17 21l-47 7v51q82 22 178 24zM203 -113q-1 -36 -26.5 -65t-65.5 -47l-27 30q32 26 32 45q0 15 -16 26q-20 18 -20 38t16 34.5t39 14.5q30 0 49.5 -21.5t18.5 -54.5z" />
    <glyph glyph-name="Lcaron" unicode="&#x13d;" horiz-adv-x="517" 
d="M394 93l36 117l69 -9q0 -131 -15 -201h-452v52l57 11q17 3 17 20v399q0 17 -17 20l-57 11v55h304v-55l-75 -12q-17 -3 -17 -20v-421h63q43 0 66 9q16 6 21 24zM420 387l-54 11l15 208l97 -11q-16 -108 -58 -208z" />
    <glyph glyph-name="lcaron" unicode="&#x13e;" horiz-adv-x="298" 
d="M208 638v-558q0 -18 17 -21l44 -7v-52h-253v52l44 7q17 3 17 20v473q0 18 -17 21l-47 7v51q82 22 178 24zM306 468l-54 11l15 208l97 -11q-16 -108 -58 -208z" />
    <glyph glyph-name="Ldot" unicode="&#x13f;" horiz-adv-x="520" 
d="M394 93l36 117l69 -9q0 -131 -15 -201h-452v52l57 11q17 3 17 20v399q0 17 -17 20l-57 11v55h304v-55l-75 -12q-17 -3 -17 -20v-421h63q43 0 66 9q16 6 21 24zM500 332q0 -31 -20 -49t-54 -18q-33 0 -53 18t-20 49t20 49t53 18q34 0 54 -18t20 -49z" />
    <glyph glyph-name="ldot" unicode="&#x140;" horiz-adv-x="362" 
d="M208 638v-558q0 -18 17 -21l44 -7v-52h-253v52l44 7q17 3 17 20v473q0 18 -17 21l-47 7v51q82 22 178 24zM393 276q0 -31 -20 -49t-53 -18q-34 0 -54 18t-20 49t20 49t54 18q33 0 53 -18t20 -49z" />
    <glyph glyph-name="Lslash" unicode="&#x141;" horiz-adv-x="516" 
d="M32 185v64l75 29v204q0 17 -17 20l-57 11v55h303v-55l-74 -12q-17 -3 -17 -20v-154l142 58v-66l-142 -56v-203h63q43 0 65 9q16 6 22 24l36 117l68 -9q0 -131 -14 -201h-452v52l56 11q18 3 18 20v131z" />
    <glyph glyph-name="lslash" unicode="&#x142;" horiz-adv-x="300" 
d="M10 228v67l76 33v224q0 18 -17 21l-47 7v51q82 22 178 24l17 -17v-261l76 37v-69l-76 -34v-231q0 -18 18 -21l43 -7v-52h-253v52l44 7q17 3 17 20v184z" />
    <glyph glyph-name="Nacute" unicode="&#x143;" horiz-adv-x="657" 
d="M579 502q-17 -3 -17 -21v-481h-125l-255 420v-337q0 -17 17 -20l66 -11v-52h-233v52l57 11q17 3 17 20v398q0 18 -17 21l-57 11v55h216l238 -388v301q0 18 -17 21l-60 11v55h223v-55zM484 695q-61 -43 -225 -88l-23 45l193 124z" />
    <glyph glyph-name="nacute" unicode="&#x144;" horiz-adv-x="544" 
d="M529 0h-229v52l25 7q16 6 16 21v172q0 50 -14.5 71.5t-47.5 21.5q-31 0 -62 -17v-248q0 -15 16 -21l24 -7v-52h-228v52l40 7q16 3 16 21v239q0 18 -16 21l-44 9v54q76 19 159 21l19 -16l7 -40q52 55 135 55q70 0 98.5 -39t28.5 -118v-186q0 -18 17 -21l40 -7v-52z
M238 455l-33 40l144 164l72 -67q-54 -67 -183 -137z" />
    <glyph glyph-name="Ncommaaccent" unicode="&#x145;" horiz-adv-x="657" 
d="M579 502q-17 -3 -17 -21v-481h-125l-255 420v-337q0 -17 17 -20l66 -11v-52h-233v52l57 11q17 3 17 20v398q0 18 -17 21l-57 11v55h216l238 -388v301q0 18 -17 21l-60 11v55h223v-55zM413 -113q-1 -36 -26.5 -65t-65.5 -47l-27 30q32 26 32 45q0 15 -16 26q-20 18 -20 38
t16 34.5t39 14.5q30 0 49.5 -21.5t18.5 -54.5z" />
    <glyph glyph-name="ncommaaccent" unicode="&#x146;" horiz-adv-x="544" 
d="M529 0h-229v52l25 7q16 6 16 21v172q0 50 -14.5 71.5t-47.5 21.5q-31 0 -62 -17v-248q0 -15 16 -21l24 -7v-52h-228v52l40 7q16 3 16 21v239q0 18 -16 21l-44 9v54q76 19 159 21l19 -16l7 -40q52 55 135 55q70 0 98.5 -39t28.5 -118v-186q0 -18 17 -21l40 -7v-52z
M343 -113q-1 -36 -26.5 -65t-65.5 -47l-27 30q32 26 32 45q0 15 -16 26q-20 18 -20 38t16 34.5t39 14.5q30 0 49.5 -21.5t18.5 -54.5z" />
    <glyph glyph-name="Ncaron" unicode="&#x147;" horiz-adv-x="657" 
d="M579 502q-17 -3 -17 -21v-481h-125l-255 420v-337q0 -17 17 -20l66 -11v-52h-233v52l57 11q17 3 17 20v398q0 18 -17 21l-57 11v55h216l238 -388v301q0 18 -17 21l-60 11v55h223v-55zM458 771l36 -40l-117 -119l-80 -4l-125 120l37 42l129 -73z" />
    <glyph glyph-name="ncaron" unicode="&#x148;" horiz-adv-x="544" 
d="M529 0h-229v52l25 7q16 6 16 21v172q0 50 -14.5 71.5t-47.5 21.5q-31 0 -62 -17v-248q0 -15 16 -21l24 -7v-52h-228v52l40 7q16 3 16 21v239q0 18 -16 21l-44 9v54q76 19 159 21l19 -16l7 -40q52 55 135 55q70 0 98.5 -39t28.5 -118v-186q0 -18 17 -21l40 -7v-52z
M394 659l40 -38l-109 -142l-79 -7l-120 147l42 39l117 -91z" />
    <glyph glyph-name="napostrophe" unicode="&#x149;" horiz-adv-x="568" 
d="M553 0h-229v52l25 7q16 6 16 21v172q0 50 -14.5 71.5t-47.5 21.5q-31 0 -62 -17v-248q0 -15 16 -21l24 -7v-52h-228v52l40 7q16 3 16 21v239q0 18 -16 21l-44 9v54q76 19 159 21l19 -16l7 -40q52 55 135 55q70 0 98.5 -39t28.5 -118v-186q0 -18 17 -21l40 -7v-52z
M113 569q0 -49 -32 -90t-88 -65l-25 33q51 36 51 73q0 14 -16 27q-23 19 -23 46q0 25 18.5 41.5t43.5 16.5q30 0 50.5 -22.5t20.5 -59.5z" />
    <glyph glyph-name="Eng" unicode="&#x14a;" horiz-adv-x="657" 
d="M562 39q0 -111 -40 -170.5t-134 -59.5q-28 0 -72 8l-3 58q57 6 93 30q42 28 59 80l-283 437v-338q0 -18 17 -21l66 -11v-52h-233v52l57 11q17 3 17 20v398q0 18 -17 21l-57 11v55h216l238 -378v291q0 18 -17 21l-60 11v55h223v-55l-53 -11q-17 -3 -17 -21v-442z" />
    <glyph glyph-name="eng" unicode="&#x14b;" horiz-adv-x="528" 
d="M474 9q0 -200 -170 -200q-30 0 -62 5l-3 53q56 11 76 32q25 26 25 120v233q0 50 -14.5 71.5t-47.5 21.5q-30 0 -61 -17v-248q0 -15 16 -21l24 -7v-52h-228v52l40 7q16 3 16 21v239q0 18 -16 21l-44 9v54q76 19 159 21l19 -16l7 -40q52 55 136 55q71 0 99.5 -38.5
t28.5 -118.5v-257z" />
    <glyph glyph-name="Omacron" unicode="&#x14c;" horiz-adv-x="581" 
d="M281 -12q-125 0 -186 74.5t-61 210.5q0 147 68.5 227t197.5 80q125 0 186 -75t61 -211q0 -146 -68.5 -226t-197.5 -80zM292 523q-54 0 -80.5 -57.5t-26.5 -185.5q0 -124 25.5 -180t78.5 -56q54 0 80.5 58.5t26.5 186.5q0 124 -25.5 179t-78.5 55zM151 635v75h280v-75
h-280z" />
    <glyph glyph-name="omacron" unicode="&#x14d;" horiz-adv-x="478" 
d="M307 202q0 94 -15 131t-55 37q-34 0 -50 -35.5t-16 -121.5q0 -93 15 -130.5t55 -37.5q34 0 50 35.5t16 121.5zM29 203q0 116 58.5 169t157.5 53q97 0 150 -53t53 -160q0 -221 -215 -221q-98 0 -151 53t-53 159zM105 493v75h267v-75h-267z" />
    <glyph glyph-name="Obreve" unicode="&#x14e;" horiz-adv-x="581" 
d="M281 -12q-125 0 -186 74.5t-61 210.5q0 147 68.5 227t197.5 80q125 0 186 -75t61 -211q0 -146 -68.5 -226t-197.5 -80zM292 523q-54 0 -80.5 -57.5t-26.5 -185.5q0 -124 25.5 -180t78.5 -56q54 0 80.5 58.5t26.5 186.5q0 124 -25.5 179t-78.5 55zM445 732
q-14 -53 -56 -86t-99 -33q-59 0 -101 34t-52 85l51 27q36 -60 106 -60q68 0 106 60z" />
    <glyph glyph-name="obreve" unicode="&#x14f;" horiz-adv-x="478" 
d="M307 202q0 94 -15 131t-55 37q-34 0 -50 -35.5t-16 -121.5q0 -93 15 -130.5t55 -37.5q34 0 50 35.5t16 121.5zM29 203q0 116 58.5 169t157.5 53q97 0 150 -53t53 -160q0 -221 -215 -221q-98 0 -151 53t-53 159zM390 594q-12 -55 -54 -88.5t-100 -33.5t-99 34.5t-49 87.5
l52 27q34 -63 100 -63q65 0 104 63z" />
    <glyph glyph-name="Ohungarumlaut" unicode="&#x150;" horiz-adv-x="581" 
d="M281 -12q-125 0 -186 74.5t-61 210.5q0 147 68.5 227t197.5 80q125 0 186 -75t61 -211q0 -146 -68.5 -226t-197.5 -80zM292 523q-54 0 -80.5 -57.5t-26.5 -185.5q0 -124 25.5 -180t78.5 -56q54 0 80.5 58.5t26.5 186.5q0 124 -25.5 179t-78.5 55zM188 599l-38 36l112 144
l75 -59q-44 -49 -149 -121zM356 599l-34 39l123 141l70 -65q-67 -64 -159 -115z" />
    <glyph glyph-name="ohungarumlaut" unicode="&#x151;" horiz-adv-x="478" 
d="M307 202q0 94 -15 131t-55 37q-34 0 -50 -35.5t-16 -121.5q0 -93 15 -130.5t55 -37.5q34 0 50 35.5t16 121.5zM29 203q0 116 58.5 169t157.5 53q97 0 150 -53t53 -160q0 -221 -215 -221q-98 0 -151 53t-53 159zM156 463l-41 32l92 168l80 -46q-55 -92 -131 -154zM314 463
l-40 34l101 164l77 -49q-24 -37 -63.5 -80t-74.5 -69z" />
    <glyph glyph-name="OE" unicode="&#x152;" horiz-adv-x="790" 
d="M296 45q43 0 72 25v429q-30 23 -68 23q-60 0 -87.5 -56t-27.5 -186q0 -127 26.5 -181t84.5 -54zM750 0h-382q-40 -8 -82 -8q-252 0 -252 281q0 143 68 222.5t196 79.5q41 0 75 -7h358q10 -72 2 -155h-64l-20 67q-5 17 -21 24q-26 8 -61 8h-61v-191l156 6v-75l-156 4v-197
h77q46 0 65 8q13 6 20 24l31 90l65 -10q0 -79 -14 -171z" />
    <glyph glyph-name="oe" unicode="&#x153;" horiz-adv-x="708" 
d="M171 207q0 -87 15 -124t53 -37q35 0 50.5 35.5t15.5 126.5q0 88 -15.5 124.5t-52.5 36.5q-35 0 -50.5 -36t-15.5 -126zM676 91q-15 -49 -61 -74.5t-108 -25.5q-86 0 -134 50q-50 -50 -145 -50q-94 0 -146.5 53t-52.5 160q0 114 58 167.5t153 53.5q92 0 139 -48
q50 47 138 47q80 0 121 -38.5t41 -102.5q0 -24 -6 -58h-231q0 -83 22.5 -118.5t78.5 -35.5q69 0 104 41zM504 371q-52 0 -60 -98h115v17q0 81 -55 81z" />
    <glyph glyph-name="Racute" unicode="&#x154;" horiz-adv-x="602" 
d="M243 517v-224q13 -2 56 -2q38 1 61 31t23 92q0 57 -23 82t-72 25q-19 0 -45 -4zM317 0h-285v52l57 11q17 3 17 20v399q0 17 -17 20l-57 11v55h139q20 0 61 2t68 2q123 0 175.5 -35t52.5 -117q0 -73 -33.5 -107t-88.5 -50q57 -23 86 -90l40 -88q9 -20 26 -24l34 -9v-52
h-156q-15 0 -27 18t-27 55l-37 96q-21 51 -39 72h-63v-160q0 -16 18 -19l56 -10v-52zM440 695q-61 -43 -225 -88l-23 45l193 124z" />
    <glyph glyph-name="racute" unicode="&#x155;" horiz-adv-x="410" 
d="M196 408l14 -72q53 89 123 89q32 0 58 -12q9 -72 -11 -160h-57l-13 42q-7 22 -30 22q-33 0 -63 -25v-212q0 -18 18 -21l61 -7v-52h-267v52l39 7q17 3 17 21v239q0 18 -16 21l-44 9v54q70 19 150 21zM184 455l-33 40l144 164l72 -67q-54 -67 -183 -137z" />
    <glyph glyph-name="Rcommaaccent" unicode="&#x156;" horiz-adv-x="602" 
d="M243 517v-224q13 -2 56 -2q38 1 61 31t23 92q0 57 -23 82t-72 25q-19 0 -45 -4zM317 0h-285v52l57 11q17 3 17 20v399q0 17 -17 20l-57 11v55h139q20 0 61 2t68 2q123 0 175.5 -35t52.5 -117q0 -73 -33.5 -107t-88.5 -50q57 -23 86 -90l40 -88q9 -20 26 -24l34 -9v-52
h-156q-15 0 -27 18t-27 55l-37 96q-21 51 -39 72h-63v-160q0 -16 18 -19l56 -10v-52zM396 -113q-1 -36 -26.5 -65t-65.5 -47l-27 30q32 26 32 45q0 15 -16 26q-20 18 -20 38t16 34.5t39 14.5q30 0 49.5 -21.5t18.5 -54.5z" />
    <glyph glyph-name="rcommaaccent" unicode="&#x157;" horiz-adv-x="410" 
d="M196 408l14 -72q53 89 123 89q32 0 58 -12q9 -72 -11 -160h-57l-13 42q-7 22 -30 22q-33 0 -63 -25v-212q0 -18 18 -21l61 -7v-52h-267v52l39 7q17 3 17 21v239q0 18 -16 21l-44 9v54q70 19 150 21zM225 -113q-1 -36 -26.5 -65t-65.5 -47l-27 30q32 26 32 45q0 15 -16 26
q-20 18 -20 38t16 34.5t39 14.5q30 0 49.5 -21.5t18.5 -54.5z" />
    <glyph glyph-name="Rcaron" unicode="&#x158;" horiz-adv-x="602" 
d="M243 517v-224q13 -2 56 -2q38 1 61 31t23 92q0 57 -23 82t-72 25q-19 0 -45 -4zM317 0h-285v52l57 11q17 3 17 20v399q0 17 -17 20l-57 11v55h139q20 0 61 2t68 2q123 0 175.5 -35t52.5 -117q0 -73 -33.5 -107t-88.5 -50q57 -23 86 -90l40 -88q9 -20 26 -24l34 -9v-52
h-156q-15 0 -27 18t-27 55l-37 96q-21 51 -39 72h-63v-160q0 -16 18 -19l56 -10v-52zM414 771l36 -40l-117 -119l-80 -4l-125 120l37 42l129 -73z" />
    <glyph glyph-name="rcaron" unicode="&#x159;" horiz-adv-x="410" 
d="M196 408l14 -72q53 89 123 89q32 0 58 -12q9 -72 -11 -160h-57l-13 42q-7 22 -30 22q-33 0 -63 -25v-212q0 -18 18 -21l61 -7v-52h-267v52l39 7q17 3 17 21v239q0 18 -16 21l-44 9v54q70 19 150 21zM340 659l40 -38l-109 -142l-79 -7l-120 147l42 39l117 -91z" />
    <glyph glyph-name="Sacute" unicode="&#x15a;" horiz-adv-x="481" 
d="M449 161q0 -70 -53.5 -121.5t-162.5 -51.5q-102 0 -192 43q-5 81 10 160h78l14 -94q3 -18 16 -28q30 -28 77 -28q36 0 56 19.5t20 52.5q0 22 -8.5 40t-28 34t-36.5 26t-48 26q-38 20 -56.5 31.5t-43.5 33t-35.5 48t-10.5 60.5q0 74 53 120.5t153 46.5q92 0 165 -30
q6 -69 -8 -150h-76l-15 82q-4 21 -16 30q-23 16 -57 16q-32 0 -50.5 -18.5t-18.5 -48.5q0 -27 16.5 -48t37 -33.5t67.5 -35.5q74 -38 113.5 -79t39.5 -103zM399 695q-61 -43 -225 -88l-23 45l193 124z" />
    <glyph glyph-name="sacute" unicode="&#x15b;" horiz-adv-x="407" 
d="M38 20q-7 53 2 119h66l15 -54q7 -21 17 -29q24 -17 55 -17q26 0 41 14t15 34q0 11 -4.5 20t-17.5 18t-22.5 14t-32.5 15.5t-34 16.5q-51 25 -76.5 53t-25.5 72q0 59 44 93.5t131 34.5q80 0 143 -25q5 -57 -6 -113h-61l-16 51q-5 18 -18 26q-17 10 -42 12q-24 0 -38.5 -12
t-14.5 -33q0 -17 13 -30.5t25 -19.5t42 -19q6 -3 9 -4q32 -14 51 -24t40.5 -27t31.5 -39t10 -50q0 -62 -50.5 -95.5t-132.5 -33.5q-77 0 -159 32zM163 455l-33 40l144 164l72 -67q-54 -67 -183 -137z" />
    <glyph glyph-name="Scircumflex" unicode="&#x15c;" horiz-adv-x="481" 
d="M449 161q0 -70 -53.5 -121.5t-162.5 -51.5q-102 0 -192 43q-5 81 10 160h78l14 -94q3 -18 16 -28q30 -28 77 -28q36 0 56 19.5t20 52.5q0 22 -8.5 40t-28 34t-36.5 26t-48 26q-38 20 -56.5 31.5t-43.5 33t-35.5 48t-10.5 60.5q0 74 53 120.5t153 46.5q92 0 165 -30
q6 -69 -8 -150h-76l-15 82q-4 21 -16 30q-23 16 -57 16q-32 0 -50.5 -18.5t-18.5 -48.5q0 -27 16.5 -48t37 -33.5t67.5 -35.5q74 -38 113.5 -79t39.5 -103zM122 602l-35 40l116 119l81 3l125 -119l-37 -42l-129 73z" />
    <glyph glyph-name="scircumflex" unicode="&#x15d;" horiz-adv-x="407" 
d="M38 20q-7 53 2 119h66l15 -54q7 -21 17 -29q24 -17 55 -17q26 0 41 14t15 34q0 11 -4.5 20t-17.5 18t-22.5 14t-32.5 15.5t-34 16.5q-51 25 -76.5 53t-25.5 72q0 59 44 93.5t131 34.5q80 0 143 -25q5 -57 -6 -113h-61l-16 51q-5 18 -18 26q-17 10 -42 12q-24 0 -38.5 -12
t-14.5 -33q0 -17 13 -30.5t25 -19.5t42 -19q6 -3 9 -4q32 -14 51 -24t40.5 -27t31.5 -39t10 -50q0 -62 -50.5 -95.5t-132.5 -33.5q-77 0 -159 32zM84 459l-40 38l110 143l79 7l120 -147l-42 -40l-118 92z" />
    <glyph glyph-name="Scedilla" unicode="&#x15e;" horiz-adv-x="481" 
d="M449 161q0 -70 -52.5 -121.5t-157.5 -51.5l-6 -20h11q33 -1 53 -19t20 -48q0 -42 -40 -67.5t-104 -25.5q-16 0 -24 1l-7 42q75 7 75 46q0 30 -43 32l21 61q-82 7 -154 41q-5 81 10 160h78l14 -94q3 -18 16 -28q30 -28 77 -28q36 0 56 19.5t20 52.5q0 22 -8.5 40t-28 34
t-36.5 26t-48 26q-38 20 -56.5 31.5t-43.5 33t-35.5 48t-10.5 60.5q0 74 53 120.5t153 46.5q92 0 165 -30q6 -69 -8 -150h-76l-15 82q-4 21 -16 30q-23 16 -57 16q-32 0 -50.5 -18.5t-18.5 -48.5q0 -27 16.5 -48t37 -33.5t67.5 -35.5q74 -38 113.5 -79t39.5 -103z" />
    <glyph glyph-name="scedilla" unicode="&#x15f;" horiz-adv-x="407" 
d="M38 20q-7 53 2 119h66l15 -54q7 -21 17 -29q24 -17 55 -17q26 0 41 14t15 34q0 11 -4.5 20t-17.5 18t-22.5 14t-32.5 15.5t-34 16.5q-51 25 -76.5 53t-25.5 72q0 59 44 93.5t131 34.5q80 0 143 -25q5 -57 -6 -113h-61l-16 51q-5 18 -18 26q-17 10 -42 12q-24 0 -38.5 -12
t-14.5 -33q0 -17 13 -30.5t25 -19.5t42 -19q6 -3 9 -4q32 -14 51 -24t40.5 -27t31.5 -39t10 -50q0 -61 -48 -94t-126 -35l-6 -20h11q33 -1 53 -19t20 -48q0 -42 -40 -67.5t-104 -25.5q-16 0 -24 1l-7 42q75 7 75 46q0 30 -43 32l21 61q-61 5 -124 30z" />
    <glyph glyph-name="Scaron" unicode="&#x160;" horiz-adv-x="481" 
d="M449 161q0 -70 -53.5 -121.5t-162.5 -51.5q-102 0 -192 43q-5 81 10 160h78l14 -94q3 -18 16 -28q30 -28 77 -28q36 0 56 19.5t20 52.5q0 22 -8.5 40t-28 34t-36.5 26t-48 26q-38 20 -56.5 31.5t-43.5 33t-35.5 48t-10.5 60.5q0 74 53 120.5t153 46.5q92 0 165 -30
q6 -69 -8 -150h-76l-15 82q-4 21 -16 30q-23 16 -57 16q-32 0 -50.5 -18.5t-18.5 -48.5q0 -27 16.5 -48t37 -33.5t67.5 -35.5q74 -38 113.5 -79t39.5 -103zM373 771l36 -40l-117 -119l-80 -4l-125 120l37 42l129 -73z" />
    <glyph glyph-name="scaron" unicode="&#x161;" horiz-adv-x="407" 
d="M38 20q-7 53 2 119h66l15 -54q7 -21 17 -29q24 -17 55 -17q26 0 41 14t15 34q0 11 -4.5 20t-17.5 18t-22.5 14t-32.5 15.5t-34 16.5q-51 25 -76.5 53t-25.5 72q0 59 44 93.5t131 34.5q80 0 143 -25q5 -57 -6 -113h-61l-16 51q-5 18 -18 26q-17 10 -42 12q-24 0 -38.5 -12
t-14.5 -33q0 -17 13 -30.5t25 -19.5t42 -19q6 -3 9 -4q32 -14 51 -24t40.5 -27t31.5 -39t10 -50q0 -62 -50.5 -95.5t-132.5 -33.5q-77 0 -159 32zM319 659l40 -38l-109 -142l-79 -7l-120 147l42 39l117 -91z" />
    <glyph glyph-name="uni0162" unicode="&#x162;" horiz-adv-x="585" 
d="M464 0h-154l-9 -32h11q33 -1 53 -19t20 -48q0 -42 -40 -67.5t-104 -25.5q-16 0 -24 1l-7 42q75 7 75 46q0 30 -43 32l24 71h-145v52l86 14q17 3 17 19v427h-31q-29 0 -50 -7q-14 -6 -17 -20l-31 -125h-67q-13 118 -3 208h535q9 -89 -2 -208h-67l-33 126q-3 13 -17 19
q-19 7 -50 7h-29v-427q0 -16 17 -19l85 -14v-52z" />
    <glyph glyph-name="uni0163" unicode="&#x163;" horiz-adv-x="345" 
d="M73 122v223l-56 10v48l46 9q17 4 22 20l41 115h73l4 -133h114v-67h-112v-196q0 -40 11.5 -56t37.5 -16q36 0 62 22l25 -28q-35 -79 -146 -79l-8 -26h11q33 -1 53 -19t20 -48q0 -42 -40 -67.5t-104 -25.5q-16 0 -24 1l-7 42q75 7 75 46q0 30 -43 32l24 69q-79 17 -79 124z
" />
    <glyph glyph-name="Tcaron" unicode="&#x164;" horiz-adv-x="585" 
d="M464 0h-343v52l86 14q17 3 17 19v427h-31q-29 0 -50 -7q-14 -6 -17 -20l-31 -125h-67q-13 118 -3 208h535q9 -89 -2 -208h-67l-33 126q-3 13 -17 19q-19 7 -50 7h-29v-427q0 -16 17 -19l85 -14v-52zM418 771l36 -40l-117 -119l-80 -4l-125 120l37 42l129 -73z" />
    <glyph glyph-name="tcaron" unicode="&#x165;" horiz-adv-x="345" 
d="M73 122v223l-56 10v48l46 9q17 4 22 20l41 115h73l4 -133h114v-67h-112v-196q0 -40 11.5 -56t37.5 -16q36 0 62 22l25 -28q-35 -79 -146 -79q-61 0 -91.5 28.5t-30.5 99.5zM301 468l-54 11l15 208l97 -11q-16 -108 -58 -208z" />
    <glyph glyph-name="Tbar" unicode="&#x166;" horiz-adv-x="585" 
d="M136 213v60h88v239h-31q-29 0 -50 -7q-14 -6 -17 -20l-31 -125h-67q-13 118 -3 208h535q9 -89 -2 -208h-67l-33 126q-3 13 -17 19q-19 7 -50 7h-29v-239h87v-60h-87v-128q0 -16 17 -19l85 -14v-52h-343v52l86 14q17 3 17 19v128h-88z" />
    <glyph glyph-name="tbar" unicode="&#x167;" horiz-adv-x="346" 
d="M21 209v59h53v73l-56 10v52l45 9q18 4 23 20l41 115h72l5 -133h114v-71h-113v-75h109v-59h-109v-58q0 -40 12 -56t38 -16q35 0 62 22l25 -28q-37 -79 -147 -79q-60 0 -90.5 28.5t-30.5 99.5v87h-53z" />
    <glyph glyph-name="Utilde" unicode="&#x168;" horiz-adv-x="627" 
d="M380 568h218v-55l-40 -10q-16 -4 -16 -21v-272q0 -219 -224 -219q-120 0 -177.5 53t-57.5 171v267q0 16 -16 21l-36 10v55h269v-55l-58 -12q-17 -3 -17 -21v-277q0 -78 27 -118t88 -40q117 0 117 158v278q0 18 -16 21l-61 11v55zM492 722q-12 -46 -42 -77t-71 -31
q-31 0 -71 24t-56 24q-30 0 -60 -44l-38 21q12 46 42 77t71 31q31 0 71 -24t56 -24q31 0 60 44z" />
    <glyph glyph-name="utilde" unicode="&#x169;" horiz-adv-x="526" 
d="M508 7q-50 -14 -88 -14q-64 0 -88 48q-46 -49 -129 -49q-130 0 -130 143v185q0 18 -16 21l-39 10v54q81 19 169 19l17 -16v-256q0 -50 14 -69.5t45 -19.5t59 18v240q0 18 -16 21l-42 10v54q78 18 172 18l17 -16v-325q0 -20 19 -22l36 -5v-49zM418 581q-12 -48 -41 -80
t-69 -32q-29 0 -67.5 26t-53.5 26q-30 0 -57 -48l-38 22q11 48 40 80t69 32q30 0 68 -25.5t54 -25.5q29 0 57 47z" />
    <glyph glyph-name="Umacron" unicode="&#x16a;" horiz-adv-x="627" 
d="M380 568h218v-55l-40 -10q-16 -4 -16 -21v-272q0 -219 -224 -219q-120 0 -177.5 53t-57.5 171v267q0 16 -16 21l-36 10v55h269v-55l-58 -12q-17 -3 -17 -21v-277q0 -78 27 -118t88 -40q117 0 117 158v278q0 18 -16 21l-61 11v55zM183 635v75h280v-75h-280z" />
    <glyph glyph-name="umacron" unicode="&#x16b;" horiz-adv-x="526" 
d="M508 7q-50 -14 -88 -14q-64 0 -88 48q-46 -49 -129 -49q-130 0 -130 143v185q0 18 -16 21l-39 10v54q81 19 169 19l17 -16v-256q0 -50 14 -69.5t45 -19.5t59 18v240q0 18 -16 21l-42 10v54q78 18 172 18l17 -16v-325q0 -20 19 -22l36 -5v-49zM121 493v75h267v-75h-267z
" />
    <glyph glyph-name="Ubreve" unicode="&#x16c;" horiz-adv-x="627" 
d="M380 568h218v-55l-40 -10q-16 -4 -16 -21v-272q0 -219 -224 -219q-120 0 -177.5 53t-57.5 171v267q0 16 -16 21l-36 10v55h269v-55l-58 -12q-17 -3 -17 -21v-277q0 -78 27 -118t88 -40q117 0 117 158v278q0 18 -16 21l-61 11v55zM477 732q-14 -53 -56 -86t-99 -33
q-59 0 -101 34t-52 85l51 27q36 -60 106 -60q68 0 106 60z" />
    <glyph glyph-name="ubreve" unicode="&#x16d;" horiz-adv-x="526" 
d="M508 7q-50 -14 -88 -14q-64 0 -88 48q-46 -49 -129 -49q-130 0 -130 143v185q0 18 -16 21l-39 10v54q81 19 169 19l17 -16v-256q0 -50 14 -69.5t45 -19.5t59 18v240q0 18 -16 21l-42 10v54q78 18 172 18l17 -16v-325q0 -20 19 -22l36 -5v-49zM406 594q-12 -55 -54 -88.5
t-100 -33.5t-99 34.5t-49 87.5l52 27q34 -63 100 -63q65 0 104 63z" />
    <glyph glyph-name="Uring" unicode="&#x16e;" horiz-adv-x="627" 
d="M380 568h218v-55l-40 -10q-16 -4 -16 -21v-272q0 -219 -224 -219q-120 0 -177.5 53t-57.5 171v267q0 16 -16 21l-36 10v55h269v-55l-58 -12q-17 -3 -17 -21v-277q0 -78 27 -118t88 -40q117 0 117 158v278q0 18 -16 21l-61 11v55zM439 695q0 -44 -33.5 -71t-83.5 -27
q-56 0 -86 26.5t-30 73.5q1 43 35 69.5t86 26.5q55 0 83.5 -26.5t28.5 -71.5zM278 697q0 -22 11.5 -35.5t33.5 -13.5q45 0 45 45q0 50 -45 50t-45 -46z" />
    <glyph glyph-name="uring" unicode="&#x16f;" horiz-adv-x="526" 
d="M508 7q-50 -14 -88 -14q-64 0 -88 48q-46 -49 -129 -49q-130 0 -130 143v185q0 18 -16 21l-39 10v54q81 19 169 19l17 -16v-256q0 -50 14 -69.5t45 -19.5t59 18v240q0 18 -16 21l-42 10v54q78 18 172 18l17 -16v-325q0 -20 19 -22l36 -5v-49zM368 557q0 -42 -32.5 -68
t-81.5 -26q-54 0 -83 25.5t-29 70.5q0 42 33.5 67.5t83.5 25.5q54 0 81.5 -26t27.5 -69zM212 559q0 -21 11 -34t32 -13q43 0 43 43q0 48 -43 48t-43 -44z" />
    <glyph glyph-name="Uhungarumlaut" unicode="&#x170;" horiz-adv-x="627" 
d="M380 568h218v-55l-40 -10q-16 -4 -16 -21v-272q0 -219 -224 -219q-120 0 -177.5 53t-57.5 171v267q0 16 -16 21l-36 10v55h269v-55l-58 -12q-17 -3 -17 -21v-277q0 -78 27 -118t88 -40q117 0 117 158v278q0 18 -16 21l-61 11v55zM220 599l-38 36l112 144l75 -59
q-44 -49 -149 -121zM388 599l-34 39l123 141l70 -65q-67 -64 -159 -115z" />
    <glyph glyph-name="uhungarumlaut" unicode="&#x171;" horiz-adv-x="526" 
d="M508 7q-50 -14 -88 -14q-64 0 -88 48q-46 -49 -129 -49q-130 0 -130 143v185q0 18 -16 21l-39 10v54q81 19 169 19l17 -16v-256q0 -50 14 -69.5t45 -19.5t59 18v240q0 18 -16 21l-42 10v54q78 18 172 18l17 -16v-325q0 -20 19 -22l36 -5v-49zM172 463l-41 32l92 168
l80 -46q-55 -92 -131 -154zM330 463l-40 34l101 164l77 -49q-24 -37 -63.5 -80t-74.5 -69z" />
    <glyph glyph-name="Uogonek" unicode="&#x172;" horiz-adv-x="627" 
d="M258 -112q0 35 28 61.5t66 40.5v2q-11 -1 -34 -1q-120 0 -177.5 53t-57.5 171v267q0 16 -16 21l-36 10v55h269v-55l-58 -12q-17 -3 -17 -21v-277q0 -78 27 -118t88 -40q117 0 117 158v278q0 18 -16 21l-61 11v55h218v-55l-40 -10q-16 -4 -16 -21v-272q0 -135 -80 -185
l-1 -1q-51 -32 -76 -57t-25 -50q0 -36 46 -36q22 0 42 9l19 -51q-45 -28 -106 -28q-46 1 -74.5 21t-28.5 56z" />
    <glyph glyph-name="uogonek" unicode="&#x173;" horiz-adv-x="526" 
d="M500 -161q-44 -28 -104 -28q-45 1 -73 20.5t-28 56.5q0 35 28.5 64t69.5 43q-42 9 -61 46q-46 -49 -129 -49q-130 0 -130 143v185q0 18 -16 21l-39 10v54q81 19 169 19l17 -16v-256q0 -50 14 -69.5t45 -19.5t59 18v240q0 18 -16 21l-42 10v54q78 18 172 18l17 -16v-325
q0 -20 19 -22l36 -5v-49l-32 -8q-36 -13 -58.5 -35.5t-22.5 -45.5q0 -37 46 -37q21 0 40 9z" />
    <glyph glyph-name="Wcircumflex" unicode="&#x174;" horiz-adv-x="845" 
d="M518 -2l-95 331l-89 -331h-123l-149 486q-5 15 -18 18l-48 11v55h266v-55l-63 -13l101 -387l90 324l-16 47q-4 14 -18 18l-33 11v55h259v-55l-72 -13l98 -379l99 379l-63 13v55h203v-55l-51 -11q-14 -3 -19 -18l-136 -486h-123zM301 602l-35 40l116 119l81 3l125 -119
l-37 -42l-129 73z" />
    <glyph glyph-name="wcircumflex" unicode="&#x175;" horiz-adv-x="684" 
d="M162 -6l-113 343q-4 13 -18 17l-27 9v51h221v-53l-50 -11l64 -231l78 295h105l82 -294l61 230l-53 11v53h165v-51l-26 -9q-15 -5 -20 -18l-104 -342h-102l-84 276l-75 -276h-104zM243 459l-40 38l110 143l79 7l120 -147l-42 -40l-118 92z" />
    <glyph glyph-name="Ycircumflex" unicode="&#x176;" horiz-adv-x="549" 
d="M436 0h-315v52l69 14q17 3 17 19v138l-150 264q-7 12 -21 15l-45 11v55h277v-55l-57 -14l101 -197l95 197l-64 14v55h203v-55l-42 -10q-15 -5 -20 -15l-135 -267v-136q0 -16 18 -19l69 -14v-52zM161 602l-35 40l116 119l81 3l125 -119l-37 -42l-129 73z" />
    <glyph glyph-name="ycircumflex" unicode="&#x177;" horiz-adv-x="472" 
d="M18 -117q94 14 141 36.5t78 80.5h-53l-129 335q-6 15 -22 19l-28 9v51l243 -1v-52l-54 -12l83 -244l78 245l-51 11v53h165v-51l-28 -9q-16 -6 -21 -19l-120 -342q-33 -93 -76 -137t-106 -44q-52 0 -100 10v61zM140 459l-40 38l110 143l79 7l120 -147l-42 -40l-118 92z
" />
    <glyph glyph-name="Ydieresis" unicode="&#x178;" horiz-adv-x="549" 
d="M436 0h-315v52l69 14q17 3 17 19v138l-150 264q-7 12 -21 15l-45 11v55h277v-55l-57 -14l101 -197l95 197l-64 14v55h203v-55l-42 -10q-15 -5 -20 -15l-135 -267v-136q0 -16 18 -19l69 -14v-52zM250 676q0 -29 -16.5 -46t-44.5 -17t-44.5 17t-16.5 46q0 28 16.5 45
t44.5 17t44.5 -17t16.5 -45zM446 676q0 -29 -16.5 -46t-44.5 -17t-44.5 17t-16.5 46q0 28 16.5 45t44.5 17t44.5 -17t16.5 -45z" />
    <glyph glyph-name="Zacute" unicode="&#x179;" horiz-adv-x="519" 
d="M467 0h-423l-26 45l304 469h-69q-45 0 -66 -8q-15 -5 -22 -23l-33 -102h-76q-5 99 12 188h397l19 -46l-296 -463h95q45 0 66 8q16 6 21 24l37 106l74 -10q4 -91 -14 -188zM427 695q-61 -43 -225 -88l-23 45l193 124z" />
    <glyph glyph-name="zacute" unicode="&#x17a;" horiz-adv-x="433" 
d="M21 47l230 315h-48q-32 0 -53 -3q-17 -3 -22 -19l-18 -73h-59q-12 81 -6 147h339l20 -47l-226 -315h45q43 0 66 5q18 3 22 16l26 80l58 -6q7 -72 -2 -147h-350zM178 455l-33 40l144 164l72 -67q-54 -67 -183 -137z" />
    <glyph glyph-name="Zdotaccent" unicode="&#x17b;" horiz-adv-x="519" 
d="M467 0h-423l-26 45l304 469h-69q-45 0 -66 -8q-15 -5 -22 -23l-33 -102h-76q-5 99 12 188h397l19 -46l-296 -463h95q45 0 66 8q16 6 21 24l37 106l74 -10q4 -91 -14 -188zM349 686q0 -31 -19.5 -49t-53.5 -18q-33 0 -53 18t-20 49t20 49t53 18q34 0 53.5 -18t19.5 -49z
" />
    <glyph glyph-name="zdotaccent" unicode="&#x17c;" horiz-adv-x="433" 
d="M21 47l230 315h-48q-32 0 -53 -3q-17 -3 -22 -19l-18 -73h-59q-12 81 -6 147h339l20 -47l-226 -315h45q43 0 66 5q18 3 22 16l26 80l58 -6q7 -72 -2 -147h-350zM293 538q0 -30 -19.5 -48t-51.5 -18q-33 0 -52.5 18t-19.5 48t19.5 47.5t52.5 17.5q32 0 51.5 -17.5
t19.5 -47.5z" />
    <glyph glyph-name="Zcaron" unicode="&#x17d;" horiz-adv-x="519" 
d="M467 0h-423l-26 45l304 469h-69q-45 0 -66 -8q-15 -5 -22 -23l-33 -102h-76q-5 99 12 188h397l19 -46l-296 -463h95q45 0 66 8q16 6 21 24l37 106l74 -10q4 -91 -14 -188zM401 771l36 -40l-117 -119l-80 -4l-125 120l37 42l129 -73z" />
    <glyph glyph-name="zcaron" unicode="&#x17e;" horiz-adv-x="433" 
d="M21 47l230 315h-48q-32 0 -53 -3q-17 -3 -22 -19l-18 -73h-59q-12 81 -6 147h339l20 -47l-226 -315h45q43 0 66 5q18 3 22 16l26 80l58 -6q7 -72 -2 -147h-350zM334 659l40 -38l-109 -142l-79 -7l-120 147l42 39l117 -91z" />
    <glyph glyph-name="uni018F" unicode="&#x18f;" horiz-adv-x="565" 
d="M262 -12q-105 0 -167.5 56t-62.5 168q0 49 6 70l342 -1q-7 241 -131 241q-38 0 -63 -21q-13 -10 -16 -29l-19 -94h-80q-18 63 -20 150q77 51 196 51q132 0 208 -76t76 -220q0 -141 -72 -218t-197 -77zM271 45q98 0 108 174h-199q-3 -18 -3 -44q0 -57 22.5 -93.5
t71.5 -36.5z" />
    <glyph glyph-name="uni0192" unicode="&#x192;" horiz-adv-x="435" 
d="M147 -124q-46 -49 -139 -74l-29 54q56 37 76 85t28 142l12 126l-61 12v49l68 13l2 18q10 81 77 146.5t149 65.5q54 0 92 -24q-3 -51 -23 -142h-66l-8 60q-2 14 -10 21q-11 8 -24 8q-48 0 -55 -81l-7 -74h110v-70h-114l-12 -128q-13 -152 -66 -207z" />
    <glyph glyph-name="uni01FC" unicode="&#x1fc;" horiz-adv-x="780" 
d="M740 0h-450v52l57 11q17 3 17 20v116h-164l-57 -136l72 -11v-52h-222v52l55 12q13 4 19 17l181 417l-93 15v55h566q8 -71 2 -155h-65l-19 67q-5 16 -22 24q-24 8 -60 8h-62v-195l157 6v-74l-157 4v-194h77q45 0 66 8q14 6 19 24l32 90l64 -10q0 -86 -13 -171zM329 506
l-103 -245h138v245h-35zM578 695q-61 -43 -225 -88l-23 45l193 124z" />
    <glyph glyph-name="uni01FD" unicode="&#x1fd;" horiz-adv-x="652" 
d="M620 91q-15 -50 -62 -75t-110 -25q-105 0 -153 70q-48 -69 -146 -69q-59 0 -92 27.5t-33 73.5q0 56 46 88t115 35l74 5v40q0 78 -82 78q-65 0 -111 -43l-30 26q18 48 64 75t109 27q79 0 115 -45q51 45 136 45q81 0 122 -38.5t41 -102.5q0 -24 -6 -58h-231
q1 -83 25 -118.5t77 -35.5q68 0 103 41zM449 371q-53 0 -61 -98h115v17q0 36 -13.5 58.5t-40.5 22.5zM201 64q38 0 76 30q-14 36 -17 78l-41 -3q-61 -3 -61 -60q0 -45 43 -45zM304 455l-33 40l144 164l72 -67q-54 -67 -183 -137z" />
    <glyph glyph-name="Scommaaccent" unicode="&#x218;" horiz-adv-x="481" 
d="M449 161q0 -70 -53.5 -121.5t-162.5 -51.5q-102 0 -192 43q-5 81 10 160h78l14 -94q3 -18 16 -28q30 -28 77 -28q36 0 56 19.5t20 52.5q0 22 -8.5 40t-28 34t-36.5 26t-48 26q-38 20 -56.5 31.5t-43.5 33t-35.5 48t-10.5 60.5q0 74 53 120.5t153 46.5q92 0 165 -30
q6 -69 -8 -150h-76l-15 82q-4 21 -16 30q-23 16 -57 16q-32 0 -50.5 -18.5t-18.5 -48.5q0 -27 16.5 -48t37 -33.5t67.5 -35.5q74 -38 113.5 -79t39.5 -103zM289 -113q-1 -36 -26.5 -65t-65.5 -47l-27 30q32 26 32 45q0 15 -16 26q-20 18 -20 38t16 34.5t39 14.5
q30 0 49.5 -21.5t18.5 -54.5z" />
    <glyph glyph-name="scommaaccent" unicode="&#x219;" horiz-adv-x="407" 
d="M38 20q-7 53 2 119h66l15 -54q7 -21 17 -29q24 -17 55 -17q26 0 41 14t15 34q0 11 -4.5 20t-17.5 18t-22.5 14t-32.5 15.5t-34 16.5q-51 25 -76.5 53t-25.5 72q0 59 44 93.5t131 34.5q80 0 143 -25q5 -57 -6 -113h-61l-16 51q-5 18 -18 26q-17 10 -42 12q-24 0 -38.5 -12
t-14.5 -33q0 -17 13 -30.5t25 -19.5t42 -19q6 -3 9 -4q32 -14 51 -24t40.5 -27t31.5 -39t10 -50q0 -62 -50.5 -95.5t-132.5 -33.5q-77 0 -159 32zM256 -113q-1 -36 -26.5 -65t-65.5 -47l-27 30q32 26 32 45q0 15 -16 26q-20 18 -20 38t16 34.5t39 14.5q30 0 49.5 -21.5
t18.5 -54.5z" />
    <glyph glyph-name="uni021A" unicode="&#x21a;" horiz-adv-x="585" 
d="M464 0h-343v52l86 14q17 3 17 19v427h-31q-29 0 -50 -7q-14 -6 -17 -20l-31 -125h-67q-13 118 -3 208h535q9 -89 -2 -208h-67l-33 126q-3 13 -17 19q-19 7 -50 7h-29v-427q0 -16 17 -19l85 -14v-52zM357 -113q-1 -36 -26.5 -65t-65.5 -47l-27 30q32 26 32 45q0 15 -16 26
q-20 18 -20 38t16 34.5t39 14.5q30 0 49.5 -21.5t18.5 -54.5z" />
    <glyph glyph-name="uni021B" unicode="&#x21b;" horiz-adv-x="345" 
d="M73 122v223l-56 10v48l46 9q17 4 22 20l41 115h73l4 -133h114v-67h-112v-196q0 -40 11.5 -56t37.5 -16q36 0 62 22l25 -28q-35 -79 -146 -79q-61 0 -91.5 28.5t-30.5 99.5zM242 -113q-1 -36 -26.5 -65t-65.5 -47l-27 30q32 26 32 45q0 15 -16 26q-20 18 -20 38t16 34.5
t39 14.5q30 0 49.5 -21.5t18.5 -54.5z" />
    <glyph glyph-name="dotlessj" unicode="&#x237;" horiz-adv-x="267" 
d="M191 424l17 -16v-372q0 -116 -62 -166q-47 -39 -153 -66l-23 55q63 31 85.5 68t22.5 102v290q0 18 -16 21l-45 9v54q78 21 174 21z" />
    <glyph glyph-name="uni0259" unicode="&#x259;" horiz-adv-x="429" 
d="M399 209q0 -104 -52.5 -161t-149.5 -57q-82 0 -125.5 41.5t-43.5 121.5q0 39 7 67h229q-5 64 -29 93.5t-75 29.5q-56 0 -94 -32l-30 27q47 85 168 85q96 0 145.5 -57.5t49.5 -157.5zM204 44q30 0 45.5 27.5t15.5 101.5h-113q-3 -14 -3 -34q0 -95 55 -95z" />
    <glyph glyph-name="uni02BC" unicode="&#x2bc;" horiz-adv-x="273" 
d="M199 569q0 -49 -32 -90t-88 -65l-25 33q51 36 51 73q0 14 -16 27q-23 19 -23 46q0 25 18.5 41.5t43.5 16.5q30 0 50.5 -22.5t20.5 -59.5z" />
    <glyph glyph-name="circumflex" unicode="&#x2c6;" horiz-adv-x="364" 
d="M67 459l-40 38l110 143l79 7l120 -147l-42 -40l-118 92z" />
    <glyph glyph-name="caron" unicode="&#x2c7;" horiz-adv-x="364" 
d="M302 659l40 -38l-109 -142l-79 -7l-120 147l42 39l117 -91z" />
    <glyph glyph-name="uni02C9" unicode="&#x2c9;" horiz-adv-x="364" 
d="M48 494v75h267v-75h-267z" />
    <glyph glyph-name="breve" unicode="&#x2d8;" horiz-adv-x="364" 
d="M333 594q-12 -55 -54 -88.5t-100 -33.5t-99 34.5t-49 87.5l52 27q34 -63 100 -63q65 0 104 63z" />
    <glyph glyph-name="dotaccent" unicode="&#x2d9;" horiz-adv-x="364" 
d="M262 538q0 -30 -19.5 -48t-51.5 -18q-33 0 -52.5 18t-19.5 48t19.5 47.5t52.5 17.5q32 0 51.5 -17.5t19.5 -47.5z" />
    <glyph glyph-name="ring" unicode="&#x2da;" horiz-adv-x="364" 
d="M295 557q0 -42 -32.5 -68t-81.5 -26q-54 0 -83 25.5t-29 70.5q0 42 33.5 67.5t83.5 25.5q54 0 81.5 -26t27.5 -69zM139 559q0 -21 11 -34t32 -13q43 0 43 43q0 48 -43 48t-43 -44z" />
    <glyph glyph-name="ogonek" unicode="&#x2db;" horiz-adv-x="364" 
d="M285 -161q-45 -28 -105 -28q-45 1 -73 20.5t-28 56.5q0 36 30.5 66t80.5 47l37 13l47 -10q-42 -12 -68.5 -36t-26.5 -50q0 -37 47 -37q20 0 40 9z" />
    <glyph glyph-name="tilde" unicode="&#x2dc;" horiz-adv-x="364" 
d="M345 581q-12 -48 -41 -80t-69 -32q-29 0 -67.5 26t-53.5 26q-30 0 -57 -48l-38 22q11 48 40 80t69 32q30 0 68 -25.5t54 -25.5q29 0 57 47z" />
    <glyph glyph-name="hungarumlaut" unicode="&#x2dd;" horiz-adv-x="364" 
d="M99 463l-41 32l92 168l80 -46q-55 -92 -131 -154zM257 463l-40 34l101 164l77 -49q-24 -37 -63.5 -80t-74.5 -69z" />
    <glyph glyph-name="gravecomb" unicode="&#x300;" 
d="M-52 659l139 -162l-35 -42q-119 66 -175 137z" />
    <glyph glyph-name="acutecomb" unicode="&#x301;" 
d="M-36 455l-33 40l144 164l72 -67q-54 -67 -183 -137z" />
    <glyph glyph-name="uni0302" unicode="&#x302;" 
d="M-115 459l-40 38l110 143l79 7l120 -147l-42 -40l-118 92z" />
    <glyph glyph-name="tildecomb" unicode="&#x303;" 
d="M163 581q-12 -48 -41 -80t-69 -32q-29 0 -67.5 26t-53.5 26q-30 0 -57 -48l-38 22q11 48 40 80t69 32q30 0 68 -25.5t54 -25.5q29 0 57 47z" />
    <glyph glyph-name="uni0304" unicode="&#x304;" 
d="M-134 493v75h267v-75h-267z" />
    <glyph glyph-name="uni0306" unicode="&#x306;" 
d="M151 594q-12 -55 -54 -88.5t-100 -33.5t-99 34.5t-49 87.5l52 27q34 -63 100 -63q65 0 104 63z" />
    <glyph glyph-name="uni0307" unicode="&#x307;" 
d="M80 538q0 -30 -19.5 -48t-51.5 -18q-33 0 -52.5 18t-19.5 48t19.5 47.5t52.5 17.5q32 0 51.5 -17.5t19.5 -47.5z" />
    <glyph glyph-name="uni0308" unicode="&#x308;" 
d="M-27 539q0 -28 -16.5 -45t-43.5 -17q-29 0 -45.5 16.5t-16.5 45.5t16.5 45.5t45.5 16.5q27 0 43.5 -17t16.5 -45zM148 539q0 -29 -16 -45.5t-44 -16.5t-44.5 17t-16.5 45t16.5 45t44.5 17t44 -16.5t16 -45.5z" />
    <glyph glyph-name="uni030A" unicode="&#x30a;" 
d="M113 557q0 -42 -32.5 -68t-81.5 -26q-54 0 -83 25.5t-29 70.5q0 42 33.5 67.5t83.5 25.5q54 0 81.5 -26t27.5 -69zM-43 559q0 -21 11 -34t32 -13q43 0 43 43q0 48 -43 48t-43 -44z" />
    <glyph glyph-name="uni030B" unicode="&#x30b;" 
d="M-83 463l-41 32l92 168l80 -46q-55 -92 -131 -154zM75 463l-40 34l101 164l77 -49q-24 -37 -63.5 -80t-74.5 -69z" />
    <glyph glyph-name="uni030C" unicode="&#x30c;" 
d="M120 659l40 -38l-109 -142l-79 -7l-120 147l42 39l117 -91z" />
    <glyph glyph-name="uni0326" unicode="&#x326;" 
d="M64 -113q-1 -36 -26.5 -65t-65.5 -47l-27 30q32 26 32 45q0 15 -16 26q-20 18 -20 38t16 34.5t39 14.5q30 0 49.5 -21.5t18.5 -54.5z" />
    <glyph glyph-name="uni0327" unicode="&#x327;" 
d="M-20 19h43l-15 -51h11q33 -1 53 -19t20 -48q0 -42 -40 -67.5t-104 -25.5q-16 0 -24 1l-7 42q75 7 75 46q0 30 -43 32z" />
    <glyph glyph-name="uni0328" unicode="&#x328;" 
d="M103 -161q-45 -28 -105 -28q-45 1 -73 20.5t-28 56.5q0 36 30.5 66t80.5 47l37 13l47 -10q-42 -12 -68.5 -36t-26.5 -50q0 -37 47 -37q20 0 40 9z" />
    <glyph glyph-name="uni0394" unicode="&#x394;" horiz-adv-x="553" 
d="M507 0h-461l-24 62l190 508h129l190 -508zM108 80h274l-138 393z" />
    <glyph glyph-name="uni03A9" unicode="&#x3a9;" horiz-adv-x="721" 
d="M307 0h-260q-17 86 -19 177l65 10l35 -83q7 -19 20 -24q29 -10 65 -11l40 -2q-71 36 -115 106t-44 154q0 114 77.5 183t197.5 69q115 0 189 -64.5t74 -175.5q0 -86 -46 -158.5t-117 -112.5l38 1q37 1 66 11q12 5 20 24l37 83l64 -10q-3 -91 -22 -177h-248l-35 70
q92 93 92 234q0 91 -32 150t-91 59q-53 0 -83 -48.5t-30 -129.5q0 -151 97 -265z" />
    <glyph glyph-name="uni03BC" unicode="&#x3bc;" horiz-adv-x="523" 
d="M173 -160l-97 -36l-17 16q2 188 2 307q0 29 -5 284l104 13l18 -16l-4 -203q1 -54 24 -81.5t54 -27.5q24 0 46 18t33 53l-3 244l100 13l17 -16l-10 -280q-2 -58 37 -58h45v-46q-46 -33 -92 -33q-33 0 -56 25t-30 71q-14 -45 -42.5 -70.5t-63.5 -25.5q-54 0 -82 52z" />
    <glyph glyph-name="pi" unicode="&#x3c0;" horiz-adv-x="541" 
d="M242 227q-17 -87 -50.5 -146t-91.5 -98l-77 67l1 23q110 45 164 220l5 16h-37q-52 0 -87 -53l-46 21q18 73 55.5 104.5t107.5 31.5l325 2l17 -16l-27 -90h-96l-7 -176q-3 -58 29 -58q29 0 63 17l17 -47q-26 -25 -63 -41t-71 -16q-77 0 -77 86q0 33 8 87l19 148h-65z" />
    <glyph glyph-name="Wgrave" unicode="&#x1e80;" horiz-adv-x="845" 
d="M518 -2l-95 331l-89 -331h-123l-149 486q-5 15 -18 18l-48 11v55h266v-55l-63 -13l101 -387l90 324l-16 47q-4 14 -18 18l-33 11v55h259v-55l-72 -13l98 -379l99 379l-63 13v55h203v-55l-51 -11q-14 -3 -19 -18l-136 -486h-123zM343 780l186 -129l-26 -47
q-157 50 -218 96z" />
    <glyph glyph-name="wgrave" unicode="&#x1e81;" horiz-adv-x="684" 
d="M162 -6l-113 343q-4 13 -18 17l-27 9v51h221v-53l-50 -11l64 -231l78 295h105l82 -294l61 230l-53 11v53h165v-51l-26 -9q-15 -5 -20 -18l-104 -342h-102l-84 276l-75 -276h-104zM306 659l139 -162l-35 -42q-119 66 -175 137z" />
    <glyph glyph-name="Wacute" unicode="&#x1e82;" horiz-adv-x="845" 
d="M518 -2l-95 331l-89 -331h-123l-149 486q-5 15 -18 18l-48 11v55h266v-55l-63 -13l101 -387l90 324l-16 47q-4 14 -18 18l-33 11v55h259v-55l-72 -13l98 -379l99 379l-63 13v55h203v-55l-51 -11q-14 -3 -19 -18l-136 -486h-123zM578 695q-61 -43 -225 -88l-23 45l193 124
z" />
    <glyph glyph-name="wacute" unicode="&#x1e83;" horiz-adv-x="684" 
d="M162 -6l-113 343q-4 13 -18 17l-27 9v51h221v-53l-50 -11l64 -231l78 295h105l82 -294l61 230l-53 11v53h165v-51l-26 -9q-15 -5 -20 -18l-104 -342h-102l-84 276l-75 -276h-104zM322 455l-33 40l144 164l72 -67q-54 -67 -183 -137z" />
    <glyph glyph-name="Wdieresis" unicode="&#x1e84;" horiz-adv-x="845" 
d="M518 -2l-95 331l-89 -331h-123l-149 486q-5 15 -18 18l-48 11v55h266v-55l-63 -13l101 -387l90 324l-16 47q-4 14 -18 18l-33 11v55h259v-55l-72 -13l98 -379l99 379l-63 13v55h203v-55l-51 -11q-14 -3 -19 -18l-136 -486h-123zM390 676q0 -29 -16.5 -46t-44.5 -17
t-44.5 17t-16.5 46q0 28 16.5 45t44.5 17t44.5 -17t16.5 -45zM586 676q0 -29 -16.5 -46t-44.5 -17t-44.5 17t-16.5 46q0 28 16.5 45t44.5 17t44.5 -17t16.5 -45z" />
    <glyph glyph-name="wdieresis" unicode="&#x1e85;" horiz-adv-x="684" 
d="M162 -6l-113 343q-4 13 -18 17l-27 9v51h221v-53l-50 -11l64 -231l78 295h105l82 -294l61 230l-53 11v53h165v-51l-26 -9q-15 -5 -20 -18l-104 -342h-102l-84 276l-75 -276h-104zM331 539q0 -28 -16.5 -45t-43.5 -17q-29 0 -45.5 16.5t-16.5 45.5t16.5 45.5t45.5 16.5
q27 0 43.5 -17t16.5 -45zM506 539q0 -29 -16 -45.5t-44 -16.5t-44.5 17t-16.5 45t16.5 45t44.5 17t44 -16.5t16 -45.5z" />
    <glyph glyph-name="uni1E9E" unicode="&#x1e9e;" horiz-adv-x="640" 
d="M613 159q0 -77 -53.5 -123.5t-144.5 -46.5q-82 0 -148 29q-6 62 11 154h77l12 -92q3 -16 13 -23q15 -12 39 -12q27 0 43.5 20t16.5 60q0 62 -38.5 96.5t-105.5 54.5l-12 23l103 181q-50 43 -105 43q-49 0 -74.5 -43t-25.5 -117v-363h-208v52l57 11q17 3 17 20v247
q0 121 64.5 185t177.5 64q105 0 220 -46l6 -26l-107 -157q73 -23 119 -70.5t46 -120.5z" />
    <glyph glyph-name="Ygrave" unicode="&#x1ef2;" horiz-adv-x="549" 
d="M436 0h-315v52l69 14q17 3 17 19v138l-150 264q-7 12 -21 15l-45 11v55h277v-55l-57 -14l101 -197l95 197l-64 14v55h203v-55l-42 -10q-15 -5 -20 -15l-135 -267v-136q0 -16 18 -19l69 -14v-52zM203 780l186 -129l-26 -47q-157 50 -218 96z" />
    <glyph glyph-name="ygrave" unicode="&#x1ef3;" horiz-adv-x="472" 
d="M18 -117q94 14 141 36.5t78 80.5h-53l-129 335q-6 15 -22 19l-28 9v51l243 -1v-52l-54 -12l83 -244l78 245l-51 11v53h165v-51l-28 -9q-16 -6 -21 -19l-120 -342q-33 -93 -76 -137t-106 -44q-52 0 -100 10v61zM203 659l139 -162l-35 -42q-119 66 -175 137z" />
    <glyph glyph-name="enspace" unicode="&#x2002;" horiz-adv-x="428" 
 />
    <glyph glyph-name="uni2003" unicode="&#x2003;" horiz-adv-x="721" 
 />
    <glyph glyph-name="uni2009" unicode="&#x2009;" horiz-adv-x="130" 
 />
    <glyph glyph-name="endash" unicode="&#x2013;" horiz-adv-x="521" 
d="M47 174v85h428v-85h-428z" />
    <glyph glyph-name="emdash" unicode="&#x2014;" horiz-adv-x="814" 
d="M47 174v85h721v-85h-721z" />
    <glyph glyph-name="quoteleft" unicode="&#x2018;" horiz-adv-x="213" 
d="M26 515q0 59 39.5 109.5t95.5 77.5l25 -31q-65 -56 -65 -101q0 -6 1 -10.5t4 -7.5t5 -4.5t7.5 -5t7.5 -4.5q29 -21 29 -56q0 -30 -19 -48t-49 -18q-36 0 -58.5 26.5t-22.5 72.5z" />
    <glyph glyph-name="quoteright" unicode="&#x2019;" horiz-adv-x="213" 
d="M190 596q0 -59 -39.5 -110t-95.5 -78l-24 32q64 55 64 101q0 7 -2.5 12.5t-4 7.5t-9 6.5t-8.5 5.5q-30 21 -30 56q0 29 19 47.5t50 18.5q36 0 58 -26.5t22 -72.5z" />
    <glyph glyph-name="quotesinglbase" unicode="&#x201a;" horiz-adv-x="231" 
d="M189 68q0 -59 -39.5 -110t-95.5 -78l-24 32q64 55 64 101q0 7 -2.5 12.5t-4 7.5t-9 6.5t-8.5 5.5q-30 21 -30 56q0 29 19 47.5t50 18.5q36 0 58 -26.5t22 -72.5z" />
    <glyph glyph-name="quotedblleft" unicode="&#x201c;" horiz-adv-x="389" 
d="M26 515q0 59 39.5 109.5t95.5 77.5l25 -31q-65 -56 -65 -101q0 -6 1 -10.5t4 -7.5t5 -4.5t7.5 -5t7.5 -4.5q29 -21 29 -56q0 -30 -19 -48t-49 -18q-36 0 -58.5 26.5t-22.5 72.5zM202 515q0 59 39.5 109.5t95.5 77.5l25 -31q-65 -56 -65 -101q0 -6 1 -10.5t4 -7.5t5 -4.5
t7.5 -5t7.5 -4.5q29 -21 29 -56q0 -30 -19 -48t-49 -18q-36 0 -58.5 26.5t-22.5 72.5z" />
    <glyph glyph-name="quotedblright" unicode="&#x201d;" horiz-adv-x="389" 
d="M190 596q0 -59 -39.5 -110t-95.5 -78l-24 32q64 55 64 101q0 7 -2.5 12.5t-4 7.5t-9 6.5t-8.5 5.5q-30 21 -30 56q0 29 19 47.5t50 18.5q36 0 58 -26.5t22 -72.5zM366 596q0 -59 -39.5 -110t-95.5 -78l-24 32q64 55 64 101q0 7 -2.5 12.5t-4 7.5t-9 6.5t-8.5 5.5
q-30 21 -30 56q0 29 19 47.5t50 18.5q36 0 58 -26.5t22 -72.5z" />
    <glyph glyph-name="quotedblbase" unicode="&#x201e;" horiz-adv-x="408" 
d="M189 68q0 -59 -39.5 -110t-95.5 -78l-24 32q64 55 64 101q0 7 -2.5 12.5t-4 7.5t-9 6.5t-8.5 5.5q-30 21 -30 56q0 29 19 47.5t50 18.5q36 0 58 -26.5t22 -72.5zM365 68q0 -59 -39.5 -110t-95.5 -78l-24 32q64 55 64 101q0 7 -2.5 12.5t-4 7.5t-9 6.5t-8.5 5.5
q-30 21 -30 56q0 29 19 47.5t50 18.5q36 0 58 -26.5t22 -72.5z" />
    <glyph glyph-name="dagger" unicode="&#x2020;" horiz-adv-x="363" 
d="M209 -93h-55l-29 450q-2 14 -16 18l-87 24v52l97 -3l-6 90v70h138v-70l-6 -90l96 3v-52l-87 -24q-12 -3 -15 -14z" />
    <glyph glyph-name="daggerdbl" unicode="&#x2021;" horiz-adv-x="373" 
d="M214 -93h-55l-19 285q-3 12 -15 15l-98 28v53l107 -4l-5 77q-3 11 -15 14l-87 24v52l96 -3l-6 90v70h138v-70l-6 -90l97 3v-52l-87 -24q-14 -4 -16 -19l-5 -72l108 4v-53l-98 -28q-14 -4 -16 -18z" />
    <glyph glyph-name="bullet" unicode="&#x2022;" horiz-adv-x="349" 
d="M280 230q0 -45 -28.5 -72t-77.5 -27q-48 0 -76.5 27t-28.5 72q0 46 28.5 72.5t76.5 26.5q49 0 77.5 -26.5t28.5 -72.5z" />
    <glyph glyph-name="ellipsis" unicode="&#x2026;" horiz-adv-x="681" 
d="M413 61q0 -31 -19.5 -49t-53.5 -18q-33 0 -53 18t-20 49t20 49t53 18q34 0 53.5 -18t19.5 -49zM640 61q0 -31 -19.5 -49t-53.5 -18q-33 0 -53 18t-20 49t20 49t53 18q34 0 53.5 -18t19.5 -49zM187 61q0 -31 -20 -49t-54 -18q-33 0 -53 18t-20 49t20 49t53 18q34 0 54 -18
t20 -49z" />
    <glyph glyph-name="perthousand" unicode="&#x2030;" horiz-adv-x="1096" 
d="M244 0h-86l352 568h86zM328 416q0 -80 -44.5 -123.5t-111.5 -43.5q-69 0 -108 42.5t-39 113.5q0 80 45 123.5t112 43.5q69 0 107.5 -42.5t38.5 -113.5zM128 417q0 -118 52 -118q45 0 45 105q0 118 -52 118q-45 0 -45 -105zM729 162q0 -80 -45 -123.5t-112 -43.5
q-69 0 -108 42.5t-39 113.5q0 80 45 123.5t112 43.5q69 0 108 -42.5t39 -113.5zM529 163q0 -118 51 -118q45 0 45 106q0 117 -51 117q-45 0 -45 -105zM1072 162q0 -79 -45 -123t-111 -44q-70 0 -108.5 42t-38.5 114q0 80 44.5 123.5t111.5 43.5q70 0 108.5 -42t38.5 -114z
M872 163q0 -118 51 -118q45 0 45 106q0 117 -51 117q-45 0 -45 -105z" />
    <glyph glyph-name="minute" unicode="&#x2032;" horiz-adv-x="204" 
d="M35 405h82l71 247h-117z" />
    <glyph glyph-name="second" unicode="&#x2033;" horiz-adv-x="395" 
d="M35 405h82l71 247h-117zM226 405h82l71 247h-117z" />
    <glyph glyph-name="guilsinglleft" unicode="&#x2039;" horiz-adv-x="309" 
d="M26 193v58l217 169l36 -46l-115 -152l116 -151l-37 -44z" />
    <glyph glyph-name="guilsinglright" unicode="&#x203a;" horiz-adv-x="309" 
d="M283 193l-217 -166l-37 44l116 151l-115 152l36 46l217 -169v-58z" />
    <glyph glyph-name="fraction" unicode="&#x2044;" horiz-adv-x="144" 
d="M-61 0h-86l352 568h86z" />
    <glyph glyph-name="foursuperior" unicode="&#x2074;" horiz-adv-x="378" 
d="M47 295l-30 40q82 125 142 257h88l14 -17q-86 -165 -159 -229l102 7l16 85h73v-80l62 4v-67h-62v-68h-91v68h-155z" />
    <glyph glyph-name="Euro" unicode="&#x20ac;" horiz-adv-x="554" 
d="M500 19q-66 -28 -167 -28q-190 0 -220 175h-85v52h80v19q0 25 1 36h-76v52h83q19 92 80 138t155 46q82 0 154 -28q4 -60 -8 -143h-73l-17 71q-5 25 -19 36q-18 13 -47 13q-76 0 -89 -133h132v-52h-135v-23v-32h129v-52h-125q14 -124 85 -124q33 0 53 20q9 9 15 25l26 72
l74 -6q5 -59 -6 -134z" />
    <glyph glyph-name="uni20B9" unicode="&#x20b9;" horiz-adv-x="476" 
d="M419 0h-144q-25 0 -49 61l-32 77q-20 50 -47 58h-104v52h80q45 0 67 17.5t26 59.5h-173v49h174q-3 42 -24 59t-72 17h-78v52h394v-49h-113q36 -27 39 -79h70v-49h-72q-14 -80 -98 -105q46 -16 69 -72l32 -71q8 -17 22 -21l33 -8v-48z" />
    <glyph glyph-name="uni20BA" unicode="&#x20ba;" horiz-adv-x="518" 
d="M210 0h-91v178l-83 -35v54l83 35v55l-83 -35v54l83 35v161h129v-106l113 48v-55l-113 -48v-54l112 48v-55l-112 -47v-161q64 0 90.5 38t26.5 117l123 14q2 -16 2 -34q0 -207 -280 -207z" />
    <glyph glyph-name="uni20BD" unicode="&#x20bd;" horiz-adv-x="540" 
d="M257 450v-174h30q91 0 91 96q0 83 -76 83q-8 0 -16.5 -1t-17 -2.5t-11.5 -1.5zM49 122v50h84v54h-84v50h84v141q0 15 -15 18l-59 12v55h138q8 0 52.5 2.5t72.5 1.5q101 -2 146.5 -32t45.5 -97q0 -72 -53 -111.5t-155 -39.5h-49v-54h158v-50h-158v-41q0 -6 5.5 -11
t11.5 -6l86 -12v-52h-301v52l58 11q16 4 16 18v41h-84z" />
    <glyph glyph-name="uni2113" unicode="&#x2113;" horiz-adv-x="435" 
d="M348 136l38 -23q-20 -56 -60 -89t-93 -33q-78 0 -117 76q-41 -25 -73 -41l-25 49q40 21 79 48q-11 49 -11 106q0 160 68.5 270.5t157.5 110.5q49 0 77 -35t28 -96q0 -81 -51.5 -172t-154.5 -173q21 -59 60 -59q41 0 77 61zM194 266q0 -32 3 -58q104 113 104 262
q0 78 -28 78q-32 0 -55.5 -89t-23.5 -193z" />
    <glyph glyph-name="trademark" unicode="&#x2122;" horiz-adv-x="860" 
d="M284 269h-195v32l36 7q14 3 14 16v204h-29q-15 0 -18 -13l-18 -63h-38q-4 63 5 116h288q6 -55 2 -116h-38l-14 63q-3 13 -18 13h-31v-203q0 -14 14 -17l40 -7v-32zM472 269h-127v32l26 7q12 3 14 16l27 187q1 13 -14 16l-28 6v35h165l54 -187l56 187h152v-35l-26 -5
q-15 -3 -13 -17l23 -187q3 -11 15 -16l25 -7v-32h-162v32l38 7l-24 201l-73 -241h-62l-78 246l-27 -206l39 -7v-32z" />
    <glyph glyph-name="uni2126" unicode="&#x2126;" horiz-adv-x="722" 
d="M306 0h-260q-17 86 -19 177l65 10l35 -83q7 -19 20 -24q29 -10 65 -11l40 -2q-71 36 -115 106t-44 154q0 114 77.5 183t197.5 69q115 0 189 -64.5t74 -175.5q0 -86 -46 -158.5t-117 -112.5l38 1q37 1 66 11q12 5 20 24l37 83l64 -10q-3 -91 -22 -177h-248l-35 70
q92 93 92 234q0 91 -32 150t-91 59q-53 0 -83 -48.5t-30 -129.5q0 -151 97 -265z" />
    <glyph glyph-name="estimated" unicode="&#x212e;" horiz-adv-x="507" 
d="M176 417v-137h167v147q-24 21 -74 21q-59 0 -93 -31zM444 36q-63 -48 -163 -48q-112 0 -179 71t-67 186q0 112 63 183t174 71q93 0 147 -51.5t57 -146.5q0 -55 -4 -74l-296 1v-147q39 -37 113 -37t130 39z" />
    <glyph glyph-name="uni2190" unicode="&#x2190;" horiz-adv-x="570" 
d="M521 243h-273l-61 6l126 -126l-57 -57l-220 219l220 220l57 -57l-126 -126l61 7h273v-86z" />
    <glyph glyph-name="uni2191" unicode="&#x2191;" horiz-adv-x="570" 
d="M242 47v273l7 61l-126 -126l-58 57l219 220l1 -1v1l220 -220l-58 -57l-125 125l6 -60v-273h-86z" />
    <glyph glyph-name="uni2192" unicode="&#x2192;" horiz-adv-x="563" 
d="M310 66l-57 57l126 126l-61 -6h-273v86h273l61 -7l-126 126l57 57l220 -220z" />
    <glyph glyph-name="uni2193" unicode="&#x2193;" horiz-adv-x="570" 
d="M242 538h86v-273l-6 -60l125 125l58 -57l-220 -220v1l-1 -1l-219 220l58 57l126 -126l-7 61v273z" />
    <glyph glyph-name="uni2194" unicode="&#x2194;" horiz-adv-x="949" 
d="M919 285l-220 -219l-58 57l126 126l-60 -6h-459l-60 6l125 -126l-57 -57l-220 219l220 220l57 -57l-125 -125l60 6h459l60 -6l-126 125l58 57z" />
    <glyph glyph-name="uni2195" unicode="&#x2195;" horiz-adv-x="570" 
d="M285 724l219 -219l-57 -58l-125 126l6 -61v-458l-6 -61l125 126l57 -58l-219 -220l-220 220l58 58l125 -126l-7 61v458l7 61l-125 -126l-58 58z" />
    <glyph glyph-name="partialdiff" unicode="&#x2202;" horiz-adv-x="494" 
d="M29 165q0 97 61.5 152.5t152.5 55.5q52 0 89 -18q-6 56 -21.5 100t-50 76t-83.5 32q-47 0 -89 -28l-25 41q56 68 164 68q111 0 174.5 -80t63.5 -220q0 -94 -27 -172t-88 -129.5t-146 -51.5q-83 0 -129 47t-46 127zM237 66q27 0 47 21t30.5 55t15.5 71t5 76q-31 24 -74 24
q-45 0 -70.5 -37.5t-25.5 -94.5q0 -48 18.5 -81.5t53.5 -33.5z" />
    <glyph glyph-name="uni2206" unicode="&#x2206;" horiz-adv-x="553" 
d="M507 0h-461l-24 62l190 508h129l190 -508zM108 80h274l-138 393z" />
    <glyph glyph-name="product" unicode="&#x220f;" horiz-adv-x="644" 
d="M543 482v-484q0 -17 16 -20l57 -11v-52h-261v52l34 10q16 5 16 21v510h-165v-510q0 -17 16 -21l38 -10v-52h-266v52l57 11q17 3 17 20v484q0 17 -17 20l-57 11v55h588v-55l-57 -10q-16 -4 -16 -21z" />
    <glyph glyph-name="summation" unicode="&#x2211;" horiz-adv-x="532" 
d="M481 -85h-438l-19 42l199 272l-194 294l22 45h413q11 -81 4 -174h-65l-26 85q-5 18 -21 25q-26 8 -61 8h-100l150 -236l-200 -280h170q46 0 65 8q13 6 20 26l32 103l64 -13q0 -90 -15 -205z" />
    <glyph glyph-name="minus" unicode="&#x2212;" horiz-adv-x="428" 
d="M48 181v83h332v-83h-332z" />
    <glyph glyph-name="uni2215" unicode="&#x2215;" horiz-adv-x="144" 
d="M-61 0h-86l352 568h86z" />
    <glyph glyph-name="bulletoperator" unicode="&#x2219;" horiz-adv-x="358" 
d="M257 223q0 -34 -21.5 -55t-56.5 -21t-56 20.5t-21 55.5q0 34 21 54.5t56 20.5t56.5 -20.5t21.5 -54.5z" />
    <glyph glyph-name="radical" unicode="&#x221a;" horiz-adv-x="559" 
d="M5 144l-19 47q29 24 83 51t92 38l24 -13l99 -285l197 698h87l-250 -809l-111 -13l-115 285q-7 18 -28 13z" />
    <glyph glyph-name="infinity" unicode="&#x221e;" horiz-adv-x="720" 
d="M685 231q0 -77 -52.5 -129.5t-130.5 -52.5q-47 0 -85 23.5t-82 77.5q-61 -98 -159 -98q-62 0 -101.5 42t-39.5 109q0 77 52.5 129t130.5 52q47 0 85 -23.5t82 -78.5q61 99 158 99q63 0 102.5 -42t39.5 -108zM213 138q47 0 94 48q-67 86 -85 103q-24 21 -46 21
q-23 0 -38.5 -20t-15.5 -52q0 -42 26 -71t65 -29zM544 123q23 0 38 20t15 52q0 43 -25.5 71.5t-65.5 28.5q-46 0 -94 -48q66 -85 85 -102q25 -22 47 -22z" />
    <glyph glyph-name="integral" unicode="&#x222b;" horiz-adv-x="356" 
d="M292 0q0 -92 -51 -143t-125 -51q-76 0 -120 46l28 45q31 -17 60 -17q72 0 72 100q0 63 -45.5 244t-45.5 249q0 93 51 143.5t124 50.5q75 0 121 -46l-29 -45q-32 18 -60 18q-71 0 -71 -101q0 -63 45.5 -244t45.5 -249z" />
    <glyph glyph-name="approxequal" unicode="&#x2248;" horiz-adv-x="476" 
d="M430 173q-21 -49 -55 -77t-72 -28q-30 0 -80.5 25t-72.5 25q-36 0 -75 -44l-36 28q20 49 54.5 77t72.5 28q30 0 81 -25t72 -25q37 0 75 45zM430 343q-21 -49 -55 -77t-72 -28q-30 0 -80.5 25t-72.5 25q-36 0 -75 -44l-36 28q20 49 54.5 77t72.5 28q30 0 81 -25t72 -25
q37 0 75 45z" />
    <glyph glyph-name="notequal" unicode="&#x2260;" horiz-adv-x="414" 
d="M378 99h-188l-35 -88h-65l35 88h-89v82h121l33 83h-154v83h187l36 92h65l-36 -92h90v-83h-123l-33 -83h156v-82z" />
    <glyph glyph-name="lessequal" unicode="&#x2264;" horiz-adv-x="424" 
d="M377 205l-34 -82l-304 146v68l304 147l34 -81l-235 -99zM380 0h-334v79h334v-79z" />
    <glyph glyph-name="greaterequal" unicode="&#x2265;" horiz-adv-x="424" 
d="M386 269l-305 -146l-34 81l237 99l-237 98l34 83l305 -147v-68zM379 0h-335v79h335v-79z" />
    <glyph glyph-name="uni25CA" unicode="&#x25ca;" horiz-adv-x="453" 
d="M227 142l6 8l88 129l-5 8l-88 124l-6 -8l-88 -123l5 -10zM227 -11l-159 220l-47 71l158 217l49 66l156 -216l48 -68l-156 -222z" />
    <glyph glyph-name="uni0302.case" 
d="M-126 602l-35 40l116 119l81 3l125 -119l-37 -42l-129 73z" />
    <glyph glyph-name="uni030C.case" 
d="M125 771l36 -40l-117 -119l-80 -4l-125 120l37 42l129 -73z" />
    <glyph glyph-name="uni0304.case" 
d="M-140 635v75h280v-75h-280z" />
    <glyph glyph-name="uni0306.case" 
d="M154 732q-14 -53 -56 -86t-99 -33q-59 0 -101 34t-52 85l51 27q36 -60 106 -60q68 0 106 60z" />
    <glyph glyph-name="uni0308.case" 
d="M-37 676q0 -29 -16.5 -46t-44.5 -17t-44.5 17t-16.5 46q0 28 16.5 45t44.5 17t44.5 -17t16.5 -45zM159 676q0 -29 -16.5 -46t-44.5 -17t-44.5 17t-16.5 46q0 28 16.5 45t44.5 17t44.5 -17t16.5 -45z" />
    <glyph glyph-name="acutecomb.case" 
d="M151 695q-61 -43 -225 -88l-23 45l193 124z" />
    <glyph glyph-name="gravecomb.case" 
d="M-84 780l186 -129l-26 -47q-157 50 -218 96z" />
    <glyph glyph-name="uni0307.case" 
d="M73 686q0 -31 -19.5 -49t-53.5 -18q-33 0 -53 18t-20 49t20 49t53 18q34 0 53.5 -18t19.5 -49z" />
    <glyph glyph-name="uni030A.case" 
d="M116 695q0 -44 -33.5 -71t-83.5 -27q-56 0 -86 26.5t-30 73.5q1 43 35 69.5t86 26.5q55 0 83.5 -26.5t28.5 -71.5zM-45 697q0 -22 11.5 -35.5t33.5 -13.5q45 0 45 45q0 50 -45 50t-45 -46z" />
    <glyph glyph-name="tildecomb.case" 
d="M169 722q-12 -46 -42 -77t-71 -31q-31 0 -71 24t-56 24q-30 0 -60 -44l-38 21q12 46 42 77t71 31q31 0 71 -24t56 -24q31 0 60 44z" />
    <glyph glyph-name="uni030B.case" 
d="M-103 599l-38 36l112 144l75 -59q-44 -49 -149 -121zM65 599l-34 39l123 141l70 -65q-67 -64 -159 -115z" />
    <glyph glyph-name="Iacute_J.NLD" horiz-adv-x="679" 
d="M317 568v-55l-56 -11q-17 -3 -17 -21v-397q0 -18 17 -21l56 -11v-52h-285v52l57 11q17 3 17 20v398q0 18 -17 21l-57 11v55h285zM602 502q-17 -5 -17 -21v-353q0 -129 -45.5 -188t-181.5 -94l-23 55q71 37 91.5 77.5t20.5 132.5v370q0 18 -17 21l-56 11v55h277v-55z
M326 695q-61 -43 -225 -88l-23 45l193 124zM663 695q-61 -43 -225 -88l-23 45l193 124z" />
    <glyph glyph-name="Jacute" horiz-adv-x="329" 
d="M252 502q-17 -5 -17 -21v-353q0 -129 -45.5 -188t-181.5 -94l-23 55q71 37 91.5 77.5t20.5 132.5v370q0 18 -17 21l-56 11v55h277v-55zM314 695q-61 -43 -225 -88l-23 45l193 124z" />
    <glyph glyph-name="iacute_j.NLD" horiz-adv-x="559" 
d="M217 408v-328q0 -18 17 -21l39 -7v-52h-244v52l39 7q17 3 17 21v239q0 18 -16 21l-44 9v54q78 21 174 21zM482 424l17 -16v-372q0 -116 -62 -166q-47 -39 -153 -66l-23 55q63 31 85.5 68t22.5 102v290q0 18 -16 21l-45 9v54q78 21 174 21zM100 455l-33 40l144 164l72 -67
q-54 -67 -183 -137zM377 455l-33 40l144 164l72 -67q-54 -67 -183 -137z" />
    <glyph glyph-name="jacute" horiz-adv-x="268" 
d="M191 424l17 -16v-372q0 -116 -62 -166q-47 -39 -153 -66l-23 55q63 31 85.5 68t22.5 102v290q0 18 -16 21l-45 9v54q78 21 174 21zM86 455l-33 40l144 164l72 -67q-54 -67 -183 -137z" />
    <glyph glyph-name="zero.tf" horiz-adv-x="460" 
d="M161 269q0 102 16 145t51 43q38 0 54.5 -50.5t16.5 -171.5q0 -102 -16.5 -146t-51.5 -44q-38 0 -54 51.5t-16 172.5zM16 246q0 -257 207 -257q101 0 160.5 67t59.5 202q0 255 -206 255q-101 0 -161 -66.5t-60 -200.5z" />
    <glyph glyph-name="one.tf" horiz-adv-x="460" 
d="M310 503v-420q0 -17 17 -20l70 -12v-51h-318v51l86 13q18 2 18 20v304q-49 -9 -95 -9l-9 54q43 10 91 34t75 47z" />
    <glyph glyph-name="two.tf" horiz-adv-x="460" 
d="M407 0h-358l-24 68q133 113 181.5 168t48.5 104q0 36 -21.5 56t-53.5 20q-55 0 -100 -60l-39 36q22 54 70.5 87.5t117.5 33.5q72 0 119.5 -41.5t47.5 -110.5q0 -70 -59.5 -134t-199.5 -146h84q48 0 76 7q20 5 25 18l34 73l67 -8q0 -100 -16 -171z" />
    <glyph glyph-name="three.tf" horiz-adv-x="460" 
d="M414 147q0 -71 -60 -115t-146 -44q-105 0 -175 72l33 46q51 -40 113 -40q40 0 66 22t27 64q0 33 -19.5 55.5t-52.5 26.5q-1 0 -23 -5t-31 -6l-14 56q115 29 115 98q0 23 -15 38.5t-39 15.5q-28 0 -55 -14t-43 -33l-39 36q61 93 179 93q64 0 107 -30t43 -89q0 -44 -36 -79
t-83 -47q55 3 101.5 -29t46.5 -92z" />
    <glyph glyph-name="four.tf" horiz-adv-x="460" 
d="M30 88l-26 56q100 156 192 359h114l18 -23q-75 -146 -120.5 -217t-99.5 -113l141 7l13 111l106 6v-111l77 4v-79h-77v-88h-120v88h-218z" />
    <glyph glyph-name="five.tf" horiz-adv-x="460" 
d="M67 107q51 -41 108 -41q44 0 71.5 26t27.5 70q0 40 -23 64t-62 24q-29 0 -77 -23l-43 28l20 247h299l-11 -94h-215l-16 -114q41 34 106 34q74 0 119 -42.5t45 -113.5q0 -82 -59.5 -133t-149.5 -51q-54 0 -100.5 19.5t-73.5 53.5z" />
    <glyph glyph-name="six.tf" horiz-adv-x="460" 
d="M239 -12q-96 0 -152.5 60.5t-56.5 171.5q0 131 74 212t187 81q72 0 116 -26l-19 -55q-33 11 -61 11q-61 0 -103.5 -41t-52.5 -117q42 44 118 44q68 0 108 -43.5t40 -113.5q0 -81 -53 -132.5t-145 -51.5zM245 46q29 0 46 27t17 77q0 52 -20 79.5t-54 27.5q-37 0 -66 -17
v-34q0 -77 21 -118.5t56 -41.5z" />
    <glyph glyph-name="seven.tf" horiz-adv-x="460" 
d="M354 424h-103q-54 0 -80 -8q-16 -4 -22 -19l-32 -86h-67q-7 89 5 191h349l30 -65q-75 -101 -115.5 -202.5t-48.5 -234.5h-119l-18 20q6 110 67.5 216.5t153.5 187.5z" />
    <glyph glyph-name="eight.tf" horiz-adv-x="460" 
d="M25 121q0 44 27 78t73 50q-75 51 -75 124q0 63 49.5 101.5t134.5 38.5q78 0 126 -32.5t48 -86.5q0 -38 -24 -68t-64 -45q54 -28 84.5 -61t30.5 -85q0 -69 -56.5 -108t-153.5 -39q-92 0 -146 35.5t-54 97.5zM169 404q0 -30 23.5 -51t71.5 -45q31 29 31 76q0 36 -18.5 55.5
t-48.5 19.5q-27 0 -43 -15t-16 -40zM230 44q33 0 51.5 18.5t18.5 45.5q0 32 -25 53t-80 49q-9 5 -14 7l-1 1q-39 -34 -39 -86q0 -42 26 -65t63 -23z" />
    <glyph glyph-name="nine.tf" horiz-adv-x="460" 
d="M226 245q36 0 65 17v31q0 75 -20.5 119t-56.5 44q-30 0 -46.5 -28.5t-16.5 -76.5q0 -51 20.5 -78.5t54.5 -27.5zM219 513q98 0 154.5 -61.5t56.5 -178.5q0 -134 -69.5 -209.5t-175.5 -75.5q-84 0 -135 41l20 52q40 -21 89 -21q50 0 87 39t44 118q-46 -44 -117 -44
q-70 0 -110 43t-40 112q0 82 52 133.5t144 51.5z" />
    <glyph glyph-name="dollar.tf" horiz-adv-x="460" 
d="M425 154q0 -57 -43.5 -99t-132.5 -48v-83h-71v84q-73 8 -136 36q-4 70 9 141h77l14 -77q2 -14 14 -24q29 -23 72 -23q31 0 49.5 14.5t18.5 38.5q0 29 -25 47.5t-78 42.5q-9 4 -14 6q-65 30 -99.5 62.5t-34.5 83.5q0 56 43 94.5t124 44.5v84h72v-85q63 -6 110 -25
q5 -66 -8 -133h-74l-16 70q-3 17 -14 25q-17 13 -52 13q-30 0 -46 -13t-16 -35q0 -9 2.5 -17t9.5 -15.5t12.5 -12.5t19 -12t20.5 -10.5t25.5 -12t26.5 -12.5q72 -34 106.5 -67t34.5 -83z" />
    <glyph glyph-name="Euro.tf" horiz-adv-x="460" 
d="M-3 166v52h63v18q0 25 1 37h-61v52h67q33 184 217 184q78 0 143 -28q4 -60 -8 -143h-74l-16 71q-7 27 -13 35q-13 14 -38 14q-35 0 -53.5 -30.5t-24.5 -102.5h110v-52h-113v-25v-30h109v-52h-106q12 -124 72 -124q28 0 48 18q12 10 17 32l21 68l74 -6q7 -68 -4 -135
q-72 -28 -160 -28q-92 0 -141.5 42.5t-62.5 132.5h-67z" />
    <glyph glyph-name="cent.tf" horiz-adv-x="460" 
d="M43 214q0 98 50.5 154.5t134.5 66.5v79h72v-79q63 -9 106 -33q4 -73 -9 -140h-67l-18 74q-4 20 -15 30q-13 13 -38 13q-33 0 -54 -37t-21 -106q0 -154 98 -154q56 0 95 41l31 -29q-15 -35 -53 -59t-89 -30v-81h-71v82q-75 13 -113.5 69.5t-38.5 138.5z" />
    <glyph glyph-name="sterling.tf" horiz-adv-x="460" 
d="M442 100q0 -58 -31.5 -85t-80.5 -27q-38 0 -97 27t-86 27q-45 -38 -103 -49l-32 66q76 42 76 128v37h-70v56h70v23q0 98 45.5 154t134.5 56q65 0 131 -28q4 -64 -8 -137h-74l-17 74q-2 15 -15 27q-10 11 -27 11q-37 0 -37 -97v-83h102v-56h-102v-9q0 -77 -34 -128
q14 0 43.5 -5.5t42.5 -5.5q27 0 41.5 9.5t21.5 31.5q8 28 11 65h83q12 -55 12 -82z" />
    <glyph glyph-name="yen.tf" horiz-adv-x="460" 
d="M58 112v52h119v51h-119v52h98l-100 168q-5 9 -19 12l-41 9v46h245v-46l-48 -12l75 -148l69 149l-52 12v46h179v-46l-38 -9q-14 -3 -19 -13l-89 -168h100v-52h-119v-51h119v-52h-119v-35q0 -15 16 -18l67 -13v-46h-287v46l66 13q16 3 16 18v35h-119z" />
    <glyph glyph-name="uni20BA.tf" horiz-adv-x="460" 
d="M176 0h-91v179l-74 -31v54l74 31v54l-73 -31v55l73 31v160h130v-106l97 41v-55l-97 -41v-54l97 41v-55l-97 -40v-161q52 0 73 36t21 112l123 14q3 -27 3 -34q0 -94 -63 -147t-196 -53z" />
    <glyph glyph-name="uni20BD.tf" horiz-adv-x="460" 
d="M226 450v-174h19q69 0 69 96q0 83 -54 83q-7 0 -13.5 -1t-12.5 -2.5t-8 -1.5zM26 122v50h79v54h-79v50h79v141q0 15 -15 18l-59 12v55h134q7 0 48.5 2.5t66.5 1.5q89 -2 129.5 -32t40.5 -97q0 -72 -48 -111.5t-139 -39.5h-37v-54h139v-50h-139v-41q0 -6 5.5 -11t10.5 -6
l87 -12v-52h-298v52l58 11q16 4 16 18v41h-79z" />
    <glyph glyph-name="uni20B9.tf" horiz-adv-x="460" 
d="M410 0h-144q-25 0 -49 61l-32 77q-20 50 -47 58h-104v52h80q45 0 67 17.5t26 59.5h-173v49h174q-3 42 -24 59t-72 17h-78v52h394v-49h-113q36 -27 39 -79h70v-49h-72q-14 -80 -98 -105q46 -16 69 -72l32 -71q8 -17 22 -21l33 -8v-48z" />
    <glyph glyph-name="one.dnom" horiz-adv-x="390" 
d="M262 359v-278q0 -15 16 -18l73 -12v-51h-282v51l80 12q17 3 17 18v184q-39 -13 -95 -16l-11 49q74 17 141 72z" />
    <glyph glyph-name="two.dnom" horiz-adv-x="390" 
d="M53 0l-13 43q85 58 129 104.5t44 92.5q0 28 -16 45t-47 17q-43 0 -81 -36l-24 24q12 33 47 56t90 23q65 0 101 -32.5t36 -81.5q0 -58 -48 -107t-117 -85h55q59 0 69 21l21 43l51 -6q-4 -77 -17 -121h-280z" />
    <glyph glyph-name="three.dnom" horiz-adv-x="390" 
d="M45 42l23 39q39 -25 91 -25q34 0 53.5 14.5t19.5 39.5q0 47 -75 47h-37v45h8q43 0 65 15.5t22 40.5q0 23 -17.5 34.5t-43.5 11.5q-43 0 -75 -26l-23 27q16 32 52 48t78 16q55 0 91.5 -25.5t36.5 -66.5q0 -34 -25.5 -56.5t-60.5 -28.5q45 0 78 -23t33 -66
q0 -46 -42.5 -77.5t-114.5 -31.5q-87 0 -137 48z" />
    <glyph glyph-name="four.dnom" horiz-adv-x="390" 
d="M50 68l-30 40q82 125 142 257h88l14 -17q-86 -165 -159 -229l102 7l16 85h73v-80l62 4v-67h-62v-68h-91v68h-155z" />
    <glyph glyph-name="one.numr" horiz-adv-x="390" 
d="M259 586v-278q0 -15 16 -18l73 -12v-51h-282v51l80 12q17 3 17 18v184q-39 -13 -95 -16l-11 49q74 17 141 72z" />
    <glyph glyph-name="two.numr" horiz-adv-x="390" 
d="M55 227l-13 43q85 58 129 104.5t44 92.5q0 28 -16 45t-47 17q-43 0 -81 -36l-24 24q12 33 47 56t90 23q65 0 101 -32.5t36 -81.5q0 -58 -48 -107t-117 -85h55q59 0 69 21l21 43l51 -6q-4 -77 -17 -121h-280z" />
    <glyph glyph-name="three.numr" horiz-adv-x="390" 
d="M48 269l23 39q39 -25 91 -25q34 0 53.5 14.5t19.5 39.5q0 47 -75 47h-37v45h8q43 0 65 15.5t22 40.5q0 23 -17.5 34.5t-43.5 11.5q-43 0 -75 -26l-23 27q16 32 52 48t78 16q55 0 91.5 -25.5t36.5 -66.5q0 -34 -25.5 -56.5t-60.5 -28.5q45 0 78 -23t33 -66
q0 -46 -42.5 -77.5t-114.5 -31.5q-87 0 -137 48z" />
    <glyph glyph-name="four.numr" horiz-adv-x="390" 
d="M53 295l-30 40q82 125 142 257h88l14 -17q-86 -165 -159 -229l102 7l16 85h73v-80l62 4v-67h-62v-68h-91v68h-155z" />
    <glyph glyph-name="__periodcentered.CAT" horiz-adv-x="77" 
d="M108 276q0 -31 -20 -49t-53 -18q-34 0 -54 18t-20 49t20 49t54 18q33 0 53 -18t20 -49z" />
    <glyph glyph-name="__periodcentered.CAT.case" horiz-adv-x="5" 
d="M-7 332q0 -31 -20 -49t-53 -18q-34 0 -53.5 18t-19.5 49t19.5 49t53.5 18q33 0 53 -18t20 -49z" />
    </font>
</defs>
</svg>
