<?xml version="1.0" encoding="UTF-8"?><!DOCTYPE svg PUBLIC "-//W3C//DTD SVG 1.1//EN" "http://www.w3.org/Graphics/SVG/1.1/DTD/svg11.dtd"><svg xmlns="http://www.w3.org/2000/svg" xmlns:xlink="http://www.w3.org/1999/xlink"><defs><path id="a" d="M11 15.586l-3.293-3.293a1 1 0 1 0-1.414 1.414l5 5a1 1 0 0 0 1.414 0l5-5a1 1 0 0 0-1.414-1.414L13 15.586V6a1 1 0 0 0-2 0v9.586z"/><path id="a" d="M11 15.586l-3.293-3.293a1 1 0 1 0-1.414 1.414l5 5a1 1 0 0 0 1.414 0l5-5a1 1 0 0 0-1.414-1.414L13 15.586V6a1 1 0 0 0-2 0v9.586z"/></defs><symbol id="icon-arrow-down-right" viewBox="0 0 24 24"><path d="M17 15.586L6.707 5.293a1 1 0 0 0-1.414 1.414L15.586 17H9a1 1 0 0 0 0 2h9a1 1 0 0 0 1-1V9a1 1 0 0 0-2 0v6.586z"/></symbol><symbol id="icon-arrow-down" viewBox="0 0 24 24"><use xlink:href="#a"/></symbol><symbol id="icon-arrow-left" viewBox="0 0 24 24"><path d="M5.376 12.992l3.301 3.3a1 1 0 0 1-1.414 1.415l-5-5a1 1 0 0 1 0-1.414l5-5a1 1 0 0 1 1.414 1.414l-3.284 3.285h15.106a1 1 0 1 1 0 2H5.376z"/></symbol><symbol id="icon-arrow-right" viewBox="0 0 24 24"><path d="M18.094 12.992l-3.301 3.3a1 1 0 0 0 1.414 1.415l5-5a1 1 0 0 0 0-1.414l-5-5a1 1 0 0 0-1.414 1.414l3.284 3.285H2.971a1 1 0 1 0 0 2h15.123z"/></symbol><symbol id="icon-arrow-up-right" viewBox="0 0 24 24"><path d="M15.586 7L5.293 17.293a1 1 0 0 0 1.414 1.414L17 8.414V15a1 1 0 0 0 2 0V6a1 1 0 0 0-1-1H9a1 1 0 1 0 0 2h6.586z"/></symbol><symbol id="icon-arrow-up" viewBox="0 0 24 24"><use transform="matrix(1 0 0 -1 0 24)" xlink:href="#a"/></symbol><symbol id="icon-avatar" viewBox="0 0 50 50"><path d="M13.005 44.629A22.893 22.893 0 0 0 25 48a22.9 22.9 0 0 0 11.019-2.806A1.005 1.005 0 0 1 36 45c0-6.636-5.158-12-11.5-12-6.224 0-11.306 5.165-11.495 11.629zm-1.91-1.306C11.896 36.388 17.585 31 24.5 31c7.14 0 12.972 5.742 13.466 13C44.024 39.857 48 32.893 48 25 48 12.297 37.703 2 25 2S2 12.297 2 25c0 7.478 3.569 14.122 9.096 18.323zM25 50C11.193 50 0 38.807 0 25S11.193 0 25 0s25 11.193 25 25-11.193 25-25 25zm0-21c-6.075 0-11-4.925-11-11S18.925 7 25 7s11 4.925 11 11-4.925 11-11 11zm0-2a9 9 0 1 0 0-18 9 9 0 0 0 0 18zm-5-8a1 1 0 0 1 2 0 3 3 0 0 0 6 0 1 1 0 0 1 2 0 5 5 0 0 1-10 0z"/></symbol><symbol id="icon-bell" viewBox="0 0 24 24"><style>.st0{fill:#111}</style><path class="st0" d="M21.3 16.6c-.8-.9-2.4-2.3-2.4-6.7 0-3.4-2.4-6.1-5.5-6.7v-.9c0-.8-.6-1.4-1.4-1.4s-1.4.6-1.4 1.4v.9c-3.2.7-5.5 3.4-5.5 6.7 0 4.4-1.6 5.8-2.4 6.7-.3.3-.4.6-.4.9 0 .7.6 1.4 1.4 1.4h16.6c.8 0 1.4-.7 1.4-1.4 0-.3-.1-.6-.4-.9zm-16.1.3c.9-1.2 1.9-3.2 1.9-6.9 0-2.7 2.2-4.9 4.9-4.9s4.9 2.2 4.9 4.9c0 3.7 1 5.7 1.9 6.9H5.2zm6.8 6.2c1 0 1.9-.6 2.4-1.4.4-.6-.1-1.4-.9-1.4h-3.1c-.8 0-1.2.9-.8 1.5.6.8 1.4 1.3 2.4 1.3z"/></symbol><symbol id="icon-breadcrumbs" viewBox="0 0 24 24"><path d="M16 20.439h4V10.4L12 4l-8 6.4v10.039h4V13a1 1 0 0 1 1-1h6a1 1 0 0 1 1 1v7.439zm-2 0V14h-4v6.439h4zM2.75 8.839l8-6.4a2 2 0 0 1 2.5 0l8 6.4A2 2 0 0 1 22 10.4v10.039a2 2 0 0 1-2 2H4a2 2 0 0 1-2-2V10.4a2 2 0 0 1 .75-1.562z"/></symbol><symbol id="icon-calendar" viewBox="0 0 24 24"><path d="M20 9V6a1 1 0 0 0-1-1h-2v1a1 1 0 0 1-2 0V5H9v1a1 1 0 1 1-2 0V5H5a1 1 0 0 0-1 1v3h16zm0 2H4v9a1 1 0 0 0 1 1h14a1 1 0 0 0 1-1v-9zM9 3h6V2a1 1 0 0 1 2 0v1h2a3 3 0 0 1 3 3v14a3 3 0 0 1-3 3H5a3 3 0 0 1-3-3V6a3 3 0 0 1 3-3h2V2a1 1 0 1 1 2 0v1z"/></symbol><symbol id="icon-card" viewBox="0 0 24 24"><path d="M21.3 4.3H2.7C1.5 4.3.5 5.3.5 6.5v12c0 1.2 1 2.2 2.2 2.2h18.7c1.2 0 2.2-1 2.2-2.2v-12c0-1.2-1-2.2-2.3-2.2zm.3 14.2c0 .1-.1.2-.2.2H2.7c-.1 0-.2-.1-.2-.2v-6.6h19.2v6.6zm0-10.6H2.4V6.5c0-.1.1-.2.2-.2h18.7c.1 0 .2.1.2.2v1.4zM4.3 17.8h2.4c.6 0 1-.4 1-1s-.4-1-1-1H4.3c-.6 0-1 .4-1 1s.4 1 1 1zm5.2 0h4.2c.6 0 1-.4 1-1s-.4-1-1-1H9.5c-.6 0-1 .4-1 1s.5 1 1 1z"/></symbol><symbol id="icon-cart" viewBox="0 0 24 24"><path d="M7.17 8C7.06 7.687 7 7.35 7 7V6a3 3 0 0 1 3-3h4a3 3 0 0 1 3 3v1c0 .35-.06.687-.17 1h2.711a2 2 0 0 1 1.98 2.283l-1.429 10A2 2 0 0 1 18.112 22H5.583a2 2 0 0 1-1.98-1.717l-1.429-10A2 2 0 0 1 4.153 8h3.018zM10 10H4.153l1.429 10h12.53l1.43-10H10a3.001 3.001 0 0 1-2.83-2zm0-5a1 1 0 0 0-1 1v1a1 1 0 0 0 1 1h4a1 1 0 0 0 1-1V6a1 1 0 0 0-1-1h-4zm-2 9a1 1 0 0 1 0-2h8a1 1 0 0 1 0 2H8zm1 4a1 1 0 0 1 0-2h6a1 1 0 0 1 0 2H9z"/></symbol><symbol id="icon-check-circle" viewBox="0 0 24 24"><path d="M21 11.07a1 1 0 0 1 2 0V12a11 11 0 1 1-6.523-10.053 1 1 0 0 1-.814 1.826A9 9 0 1 0 21 12v-.93zm-9 1.516l9.293-9.293a1 1 0 0 1 1.414 1.414l-10 10a1 1 0 0 1-1.414 0l-3-3a1 1 0 0 1 1.414-1.414L12 12.586z"/></symbol><symbol id="icon-chevron-down" viewBox="0 0 24 24"><path d="M12 13.586L7.707 9.293a1 1 0 1 0-1.414 1.414l5 5a1 1 0 0 0 1.414 0l5-5a1 1 0 1 0-1.414-1.414L12 13.586z"/></symbol><symbol id="icon-chevron-left" viewBox="0 0 24 24"><path d="M10.414 12l4.293-4.293a1 1 0 1 0-1.414-1.414l-5 5a1 1 0 0 0 0 1.414l5 5a1 1 0 1 0 1.414-1.414L10.414 12z"/></symbol><symbol id="icon-chevron-right" viewBox="0 0 24 24"><path d="M13.086 12.5l-4.293 4.293a1 1 0 1 0 1.414 1.414l5-5a1 1 0 0 0 0-1.414l-5-5a1 1 0 1 0-1.414 1.414l4.293 4.293z"/></symbol><symbol id="icon-chevron-up" viewBox="0 0 24 24"><path d="M12 10.414l4.293 4.293a1 1 0 0 0 1.414-1.414l-5-5a1 1 0 0 0-1.414 0l-5 5a1 1 0 1 0 1.414 1.414L12 10.414z"/></symbol><symbol id="icon-circle" viewBox="0 0 24 24"><style>.st0{fill:#33ab4e}</style><path class="st0" d="M21 11.1c0-.6.4-1 1-1s1 .4 1 1v.9c0 4.9-3.2 9.2-7.9 10.5-4.7 1.4-9.7-.5-12.3-4.6S.5 8.6 3.6 4.8 12 0 16.5 1.9c.5.3.7.9.5 1.4-.2.5-.8.7-1.3.5-3.7-1.6-8-.7-10.5 2.3s-2.9 7.4-.7 10.7 6.3 4.9 10.1 3.7S21 16 21 12v-.9z"/><path class="st0" d="M21 11.1c0-.6.4-1 1-1s1 .4 1 1v.9c0 4.9-3.2 9.2-7.9 10.5-4.7 1.4-9.7-.5-12.3-4.6S.5 8.6 3.6 4.8 12 0 16.5 1.9c.5.3.7.9.5 1.4-.2.5-.8.7-1.3.5-3.7-1.6-8-.7-10.5 2.3s-2.9 7.4-.7 10.7 6.3 4.9 10.1 3.7S21 16 21 12v-.9z"/><path d="M12 1C5.9 1 1 5.9 1 12s4.9 11 11 11 11-4.9 11-11S18.1 1 12 1zm0 20c-5 0-9-4-9-9s4-9 9-9 9 4 9 9-4 9-9 9z"/></symbol><symbol id="icon-close" viewBox="0 0 24 24"><path d="M13.414 12l5.293-5.293a1 1 0 1 0-1.414-1.414L12 10.586 6.707 5.293a1 1 0 0 0-1.414 1.414L10.586 12l-5.293 5.293a1 1 0 0 0 1.414 1.414L12 13.414l5.293 5.293a1 1 0 0 0 1.414-1.414L13.414 12z"/></symbol><symbol id="icon-coffee" viewBox="0 0 24 24"><style>.st0{fill:#231f20}.st1{fill:none;stroke:#231f20;stroke-width:5;stroke-linecap:round;stroke-linejoin:round;stroke-miterlimit:10}</style><path class="st0" d="M16.2 9.5c.5 0 .9.4.9.9v.8c.5-.2 1-.4 1.5-.4 1.8 0 3.3 1.5 3.3 3.3 0 1.8-1.5 3.3-3.3 3.3-.9 0-1.7-.3-2.3-.9-1.2 2.5-3.7 4.2-6.7 4.2-4.1 0-7.4-3.3-7.4-7.4v-3c0-.5.4-.9.9-.9h13.1m2 6.6c1 0 1.8-.8 1.8-1.8s-.8-1.8-1.8-1.8c-.4 0-.8.2-1.2.4v.8c0 .6-.1 1.2-.3 1.7.4.4.9.7 1.5.7m-2-8.5H3.1C1.5 7.5.2 8.8.2 10.4v3c0 5.2 4.2 9.4 9.4 9.4 2.9 0 5.6-1.3 7.3-3.5.5.2 1 .2 1.6.2 2.9 0 5.3-2.4 5.3-5.3s-2.4-5.3-5.3-5.3c-.4-.9-1.3-1.4-2.3-1.4zm-10-.9c-.6 0-1-.4-1-1V1.1c0-.6.4-1 1-1s1 .4 1 1v4.5c0 .5-.5 1-1 1zm3.6 0c-.6 0-1-.4-1-1V1.1c0-.6.4-1 1-1s1 .4 1 1v4.5c0 .5-.5 1-1 1zm3.5 0c-.6 0-1-.4-1-1V1.1c0-.6.4-1 1-1s1 .4 1 1v4.5c0 .5-.4 1-1 1zM253 229.4c2.2 0 4 1.8 4 4v3.7c2.1-1 4.4-1.7 6.9-1.7 8.5 0 15.4 6.9 15.4 15.4s-6.9 15.4-15.4 15.4c-4 0-7.7-1.6-10.4-4.1-5.6 11.4-17.3 19.2-30.8 19.2-18.8 0-34.2-15.4-34.2-34.3v-13.8c0-2.2 1.8-4 4-4H253m11 32.5c6 0 10.9-4.9 10.9-10.9s-4.9-10.9-10.9-10.9c-2.6 0-5 .9-6.9 2.5v4.8c0 3.6-.6 7.1-1.6 10.4 1.9 2.5 5 4.1 8.5 4.1m-11-37.3h-60.5c-5 0-9 4-9 9v13.8c0 21.6 17.6 39.3 39.2 39.3 12.9 0 25.1-6.6 32.4-17.2 2.7 1.3 5.7 2 8.8 2 11.3 0 20.4-9.2 20.4-20.4 0-11.3-9.2-20.4-20.4-20.4-.8 0-1.6 0-2.4.1-1.1-3.7-4.5-6.2-8.5-6.2zm9 20.8c.6-.2 1.2-.3 1.9-.3 3.3 0 5.9 2.6 5.9 5.9 0 3.3-2.6 5.9-5.9 5.9-1 0-2-.3-2.9-.8.7-2.9 1-5.8 1-8.8v-1.9z"/><path class="st1" d="M214.6 168c5.5 2.4 5.9 10.7 4.5 15.7-2.1 7.1-8.4 12.1-9.6 19.4-.7 4.1.3 12 5 13.7m8.8-48.8c5.5 2.4 5.9 10.7 4.5 15.7-2.1 7.1-8.4 12.1-9.6 19.4-.7 4.1.3 12 5 13.7m9.4-48.8c5.5 2.4 5.9 10.7 4.5 15.7-2.1 7.1-8.4 12.1-9.6 19.4-.7 4.1.3 12 5 13.7"/><path class="st0" d="M256.6 229.4c2.2 0 4 1.8 4 4v3.7c2.1-1 4.4-1.7 6.9-1.7 8.5 0 15.4 6.9 15.4 15.4s-6.9 15.4-15.4 15.4c-4 0-7.7-1.6-10.4-4.1-5.6 11.4-17.3 19.2-30.8 19.2-18.8 0-34.2-15.4-34.2-34.3v-13.8c0-2.2 1.8-4 4-4h60.5m10.9 32.5c6 0 10.9-4.9 10.9-10.9s-4.9-10.9-10.9-10.9c-2.6 0-5 .9-6.9 2.5v4.8c0 3.6-.6 7.1-1.6 10.4 2 2.5 5.1 4.1 8.5 4.1m-10.9-37.3h-60.5c-5 0-9 4-9 9v13.8c0 21.6 17.6 39.3 39.2 39.3 12.9 0 25.1-6.6 32.4-17.2 2.7 1.3 5.7 2 8.8 2 11.3 0 20.4-9.2 20.4-20.4 0-11.3-9.2-20.4-20.4-20.4-.8 0-1.6 0-2.4.1-1.1-3.7-4.5-6.2-8.5-6.2zm9 20.8c.6-.2 1.2-.3 1.9-.3 3.3 0 5.9 2.6 5.9 5.9 0 3.3-2.6 5.9-5.9 5.9-1 0-2-.3-2.9-.8.7-2.9 1-5.8 1-8.8v-1.9z"/><path class="st1" d="M218.2 168c5.5 2.4 5.9 10.7 4.5 15.7-2.1 7.1-8.4 12.1-9.6 19.4-.7 4.1.3 12 5 13.7m8.8-48.8c5.5 2.4 5.9 10.7 4.5 15.7-2.1 7.1-8.4 12.1-9.6 19.4-.7 4.1.3 12 5 13.7m9.3-48.8c5.5 2.4 5.9 10.7 4.5 15.7-2.1 7.1-8.4 12.1-9.6 19.4-.7 4.1.3 12 5 13.7"/></symbol><symbol id="icon-collection" viewBox="0 0 24 24"><path d="M11.553 1.106a1 1 0 0 1 .894 0l10 5a1 1 0 0 1 0 1.788l-10 5a1 1 0 0 1-.894 0l-10-5a1 1 0 0 1 0-1.788l10-5zM12 3.118L4.236 7 12 10.882 19.764 7 12 3.118zM2.447 16.106L12 20.882l9.553-4.776a1 1 0 0 1 .894 1.788l-10 5a1 1 0 0 1-.894 0l-10-5a1 1 0 0 1 .894-1.788zm0-5L12 15.882l9.553-4.776a1 1 0 0 1 .894 1.788l-10 5a1 1 0 0 1-.894 0l-10-5a1 1 0 0 1 .894-1.788z"/></symbol><symbol id="icon-delivery" viewBox="0 0 24 24"><path fill-rule="evenodd" d="M17 19.364a.826.826 0 0 1-.833-.819c0-.451.373-.818.833-.818.46 0 .833.367.833.818a.826.826 0 0 1-.833.819zm-8.487-1.637a2.494 2.494 0 0 0-2.346-1.636 2.494 2.494 0 0 0-2.347 1.636h-.153V4.637h9.166V12H6.167a.826.826 0 0 0-.834.818c0 .452.373.818.834.818h12.988l1.178 1.157v2.934h-.986A2.494 2.494 0 0 0 17 16.091c-1.096 0-2.018.7-2.356 1.665-.048-.01-.092-.029-.144-.029H8.513zm-2.346 1.637a.826.826 0 0 1-.834-.819c0-.451.374-.818.834-.818.46 0 .833.367.833.818a.826.826 0 0 1-.833.819zM17.183 7.09l1.25 4.91H14.5V7.09h2.683zm2.164 12.273h1.82c.46 0 .833-.366.833-.819v-4.09a.807.807 0 0 0-.244-.579L20.253 12.4l-1.611-6.326a.832.832 0 0 0-.809-.62H14.5V3.819A.826.826 0 0 0 13.667 3H2.833A.826.826 0 0 0 2 3.818v14.727c0 .453.373.819.833.819h.987A2.494 2.494 0 0 0 6.167 21a2.494 2.494 0 0 0 2.346-1.636H14.5c.052 0 .096-.02.144-.029A2.493 2.493 0 0 0 17 21a2.494 2.494 0 0 0 2.347-1.636z"/></symbol><symbol id="icon-dislike" viewBox="0 0 24 24"><path d="M6 6v8h2V6H6zm4-1h7.512a2 2 0 0 1 1.916 1.425l1.8 6A2 2 0 0 1 19.312 15H17a1 1 0 0 0-1 1v2a2 2 0 1 1-4 0v-1a2 2 0 0 0-2-2 1 1 0 0 1-1 1H5a1 1 0 0 1-1-1V5a1 1 0 0 1 1-1h4a1 1 0 0 1 1 1zm4 11a3 3 0 0 1 3-3h2.312l-1.8-6H10v6a4 4 0 0 1 4 4v1-2z"/></symbol><symbol id="icon-dots" viewBox="0 0 24 24"><path fill-rule="evenodd" d="M4 14a2 2 0 1 1 0-4 2 2 0 0 1 0 4zm8 0a2 2 0 1 1 0-4 2 2 0 0 1 0 4zm8 0a2 2 0 1 1 0-4 2 2 0 0 1 0 4z"/></symbol><symbol id="icon-download" viewBox="0 0 24 24"><path d="M11 13.586V2a1 1 0 0 1 2 0v11.586l2.293-2.293a1 1 0 0 1 1.414 1.414l-4 4a1 1 0 0 1-1.414 0l-4-4a1 1 0 0 1 1.414-1.414L11 13.586zM2 17a1 1 0 0 1 2 0v3a1 1 0 0 0 1 1h14a1 1 0 0 0 1-1v-3a1 1 0 0 1 2 0v3a3 3 0 0 1-3 3H5a3 3 0 0 1-3-3v-3z"/></symbol><symbol id="icon-edit" viewBox="0 0 24 24"><path d="M17.669 7.762l1.414-1.414-1.414-1.414-1.414 1.414 1.414 1.414zm-1.414 1.415L14.84 7.762l-9.149 9.15-.067 1.48 1.482-.066 9.149-9.15zm2.828-5.657l1.414 1.414a2 2 0 0 1 0 2.828L8.52 19.74a2 2 0 0 1-1.323.583l-1.482.068a2 2 0 0 1-2.089-2.089l.068-1.482a2 2 0 0 1 .583-1.323L16.255 3.52a2 2 0 0 1 2.828 0z"/></symbol><symbol id="icon-error" viewBox="0 0 24 24"><path d="M12 23C5.925 23 1 18.075 1 12S5.925 1 12 1s11 4.925 11 11-4.925 11-11 11zm0-2a9 9 0 1 0 0-18 9 9 0 0 0 0 18zM11 8a1 1 0 1 1 2 0v4a1 1 0 0 1-2 0V8zm1 10a1 1 0 1 1 0-2 1 1 0 0 1 0 2z"/></symbol><symbol id="icon-eye-off" viewBox="0 0 24 24"><path d="M17.94 17.94A10.07 10.07 0 0 1 12 20c-7 0-11-8-11-8a18.45 18.45 0 0 1 5.06-5.94M9.9 4.24A9.12 9.12 0 0 1 12 4c7 0 11 8 11 8a18.5 18.5 0 0 1-2.16 3.19m-6.72-1.07a3 3 0 1 1-4.24-4.24M1 1l22 22" fill-rule="evenodd" stroke="#000" stroke-linecap="round" stroke-linejoin="round" stroke-width="2"/></symbol><symbol id="icon-eye" viewBox="0 0 24 24"><path d="M12 9a3 3 0 1 1 0 6 3 3 0 0 1 0-6zm0-4.5c5 0 9.27 3.11 11 7.5-1.73 4.39-6 7.5-11 7.5S2.73 16.39 1 12c1.73-4.39 6-7.5 11-7.5zM3.18 12a9.821 9.821 0 0 0 17.64 0 9.821 9.821 0 0 0-17.64 0z"/></symbol><symbol id="icon-facebook" viewBox="0 0 24 24"><path d="M9 7a6 6 0 0 1 6-6h3a1 1 0 0 1 1 1v4a1 1 0 0 1-1 1h-3v2h3a1 1 0 0 1 .97 1.243l-1 4A1 1 0 0 1 17 15h-2v7a1 1 0 0 1-1 1h-4a1 1 0 0 1-1-1v-7H7a1 1 0 0 1-1-1v-4a1 1 0 0 1 1-1h2V7zm8-4h-2a4 4 0 0 0-4 4v3a1 1 0 0 1-1 1H8v2h2a1 1 0 0 1 1 1v7h2v-7a1 1 0 0 1 1-1h2.22l.5-2H14a1 1 0 0 1-1-1V7a2 2 0 0 1 2-2h2V3z"/></symbol><symbol id="icon-fb" viewBox="0 0 24 24"><path d="M17 8.476h-3.065V6.4c0-.78.5-.961.853-.961h2.163V2.012L13.97 2c-3.306 0-4.059 2.556-4.059 4.192v2.284H8v3.531h1.912V22h4.023v-9.993h2.714L17 8.477z"/></symbol><symbol id="icon-file" viewBox="0 0 24 24"><path d="M15 4.414V7h2.586L15 4.414zM19 9h-5a1 1 0 0 1-1-1V3H6a1 1 0 0 0-1 1v16a1 1 0 0 0 1 1h12a1 1 0 0 0 1-1V9zm-5-8a1 1 0 0 1 .707.293l6 6A1 1 0 0 1 21 8v12a3 3 0 0 1-3 3H6a3 3 0 0 1-3-3V4a3 3 0 0 1 3-3h8zm2 11a1 1 0 0 1 0 2H8a1 1 0 0 1 0-2h8zm0 4a1 1 0 0 1 0 2H8a1 1 0 0 1 0-2h8zm-6-8a1 1 0 0 1 0 2H8a1 1 0 1 1 0-2h2z"/></symbol><symbol id="icon-flag" viewBox="0 0 24 24"><path d="M6 4.148A9.738 9.738 0 0 1 7.75 4c2.25 0 5.642 1.554 7.5 1.694a6.423 6.423 0 0 0 2.447-.3A1 1 0 0 1 19 6.347v7.421a1 1 0 0 1-.464.845c-.647.41-1.742.542-3.286.397-3.017-.283-5.625-1.694-7.5-1.694-.583 0-1.167.062-1.75.185V20.5a1 1 0 0 1-2 0v-17a1 1 0 1 1 2 0v.648zm0 7.317a10.415 10.415 0 0 1 1.75-.149c1.14 0 1.337.052 4.33.958 1.423.43 2.373.653 3.357.745.64.06 1.16.063 1.552.015.002 0 .006-1.808.011-5.424-.632.1-1.267.126-1.9.078-.94-.07-1.475-.212-3.836-.92a58.152 58.152 0 0 0-.77-.227C9.22 6.174 8.355 6 7.75 6c-.665 0-1.247.066-1.75.193v5.272z"/></symbol><symbol id="icon-folder" viewBox="0 0 24 24"><path d="M2 9.9h20v2H2z"/><path d="M8.4 5l2.1 2.3.6.7h8.4c.3 0 .5.2.5.5v11.4c0 .6-.5 1.2-1.2 1.2H5.2C4.5 21 4 20.5 4 19.8V6.2C4 5.5 4.5 5 5.2 5h3.2m.8-2h-4C3.4 3 2 4.4 2 6.2v13.7C2 21.6 3.4 23 5.2 23h13.7c1.7 0 3.2-1.4 3.2-3.2V8.5C22 7.1 20.9 6 19.5 6H12L9.2 3z"/></symbol><symbol id="icon-footer-events" viewBox="0 0 64 64"><g fill-rule="evenodd"><path fill-opacity=".2" d="M27 15.6l-6.5 6.6 23.2 24 6-2.5.6-7.3zM9.1 56.2h40.6v3.9H9.1z"/><path fill-rule="nonzero" d="M15.1 10.3c.8-.8.8-2 0-2.8-.8-.8-2-.8-2.8 0-.8.8-.8 2 0 2.8.8.7 2 .7 2.8 0zm5.7 1.5c.3 1 1.3 1.7 2.4 1.4s1.7-1.3 1.4-2.4c-.3-1-1.3-1.7-2.4-1.4-1 .3-1.7 1.4-1.4 2.4zm-6.6 1.8c-.3-1-1.3-1.7-2.4-1.4s-1.7 1.3-1.4 2.4 1.3 1.7 2.4 1.4c1.1-.3 1.7-1.4 1.4-2.4zm4.2-4.2c1 .3 2.1-.3 2.4-1.4.3-1-.3-2.1-1.4-2.4-1-.3-2.1.4-2.4 1.4-.3 1 .4 2.1 1.4 2.4zm.5 1.9c-.8-.8-2-.8-2.8 0-.8.8-.8 2 0 2.8.8.8 2 .8 2.8 0 .8-.8.8-2 0-2.8zm38.9 39.2L51 43.7l-.1-.1c1.9-2.8 1.6-6.7-.9-9.2L29.2 13.7v-1c0-3.1-1.2-6.1-3.4-8.3C23.6 2.2 20.6 1 17.5 1c-3.1 0-6.1 1.2-8.3 3.4C7 6.6 5.8 9.6 5.8 12.7c0 3.1 1.2 6.1 3.4 8.3 2.2 2.2 5.2 3.4 8.3 3.4h1l6.3 6.3v22.5H9.1c-1.6 0-3 1.3-3 3v3.9c0 1.6 1.3 3 3 3h40.6c1.6 0 3-1.3 3-3v-3.9c0-1.6-1.3-3-3-3H33.4V39.3l5.8 5.8c2.6 2.6 6.8 2.8 9.6.6v.1l6.8 6.8c.3.3.7.4 1 .4.4 0 .8-.1 1-.4.8-.6.8-1.5.2-2.1zm-40.3-29c-2.2 0-4.5-.9-6.2-2.6-3.4-3.4-3.4-9 0-12.4 1.7-1.7 4-2.6 6.2-2.6s4.5.9 6.2 2.6c3.4 3.4 3.4 9 0 12.4-1.7 1.7-3.9 2.6-6.2 2.6zm32.2 34.7v3.9H9.1v-3.9h40.6zm-19.1-2.9h-2.8V33.7l2.7 2.7v16.5c0 .1 0 .3.1.4zm17.3-10.6l-.4.4c-1.7 1.7-4.4 1.7-6.1 0L21.9 23.6c1.5-.6 2.8-1.5 3.9-2.6s2-2.5 2.6-3.9l19.5 19.5c1.7 1.6 1.7 4.4 0 6.1zM16.6 16c-1-.3-2.1.3-2.4 1.4-.3 1 .3 2.1 1.4 2.4 1 .3 2.1-.3 2.4-1.4.3-1.1-.3-2.1-1.4-2.4zm3.3-.9c-.8.8-.8 2 0 2.8s2 .8 2.8 0 .8-2 0-2.8c-.8-.8-2-.8-2.8 0z"/></g></symbol><symbol id="icon-footer-mastercard" viewBox="0 0 64 64"><g fill-rule="evenodd"><path fill-rule="nonzero" d="M11.9 56.4v-3.3c.1-1.1-.7-2-1.8-2.1h-.2c-.8 0-1.5.3-1.9 1-.4-.6-1-1-1.7-.9-.6 0-1.2.3-1.5.8v-.6H3.7v5.2h1.1v-2.9c-.1-.7.4-1.3 1-1.4H6c.7 0 1.1.5 1.1 1.4v2.9h1.1v-2.9c-.1-.7.4-1.3 1.1-1.4h.2c.8 0 1.1.5 1.1 1.4v2.9l1.3-.1zm16.9-5.2h-1.9v-1.6h-1.1v1.6h-1v1h1.1v2.4c0 1.2.5 1.9 1.8 1.9.5 0 1-.1 1.4-.4l-.3-1c-.3.2-.6.3-1 .3-.5 0-.7-.3-.7-.9v-2.4h1.8l-.1-.9zm9.6-.2c-.6 0-1.1.3-1.4.8v-.6h-1.1v5.2H37v-2.9c0-.9.4-1.3 1.1-1.3.2 0 .5 0 .7.1l.3-1.1c-.2-.1-.5-.2-.7-.2zm-14.6.6c-.6-.4-1.4-.6-2.1-.5-1.3 0-2.2.6-2.2 1.7 0 .8.6 1.4 1.8 1.5l.5.1c.6.1.9.2.9.5 0 .4-.4.6-1.2.6-.6 0-1.2-.2-1.7-.5l-.5.9c.7.5 1.4.7 2.2.7 1.5 0 2.4-.7 2.4-1.7s-.7-1.4-1.8-1.6l-.5-.1c-.5-.1-.9-.2-.9-.5s.4-.6 1-.6 1.1.2 1.6.4l.5-.9zM54 51c-.6 0-1.1.3-1.4.8v-.6h-1.1v5.2h1.1v-2.9c0-.9.4-1.3 1.1-1.3.2 0 .5 0 .7.1l.3-1.1c-.1-.1-.4-.2-.7-.2zm-14.5 2.8c-.1 1.4 1.1 2.7 2.5 2.7h.2c.7 0 1.3-.2 1.9-.6l-.5-.9c-.4.3-.9.5-1.4.5-.9-.1-1.6-.9-1.5-1.8.1-.8.7-1.5 1.5-1.5.5 0 1 .2 1.4.5l.5-.9c-.5-.6-1.1-.8-1.8-.8-1.4-.1-2.7 1-2.8 2.5v.3zm10.6 0v-2.6H49v.6c-.4-.5-1-.8-1.6-.8-1.5 0-2.7 1.2-2.7 2.7 0 1.5 1.2 2.7 2.7 2.7.6 0 1.2-.3 1.6-.8v.6h1.1v-2.4zm-4.2 0c.1-.9.8-1.5 1.7-1.5.9.1 1.5.8 1.5 1.7 0 .8-.7 1.5-1.6 1.5-.9 0-1.6-.7-1.6-1.5v-.2zM32.3 51c-1.5 0-2.7 1.3-2.7 2.7 0 1.5 1.3 2.7 2.7 2.7.8 0 1.5-.2 2.2-.7l-.5-.8c-.4.3-1 .5-1.5.5-.8.1-1.5-.5-1.6-1.3h3.8v-.4c0-1.6-1-2.6-2.4-2.7zm0 1c.7 0 1.3.5 1.3 1.3h-2.7c0-.7.6-1.3 1.4-1.3zm28.2 1.8v-4.7h-1.1v2.7c-.4-.5-1-.8-1.6-.8-1.5 0-2.7 1.2-2.7 2.7 0 1.5 1.2 2.7 2.7 2.7.6 0 1.2-.3 1.6-.8v.6h1.1v-2.4zm-4.1 0c.1-.9.8-1.5 1.7-1.5.9.1 1.5.8 1.5 1.7 0 .8-.7 1.5-1.6 1.5-.9 0-1.6-.7-1.6-1.5-.1-.2-.1-.2 0-.2zm-38.1 0v-2.6h-1.1v.6c-.4-.5-1-.8-1.6-.8-1.5 0-2.7 1.2-2.7 2.7 0 1.5 1.2 2.7 2.7 2.7.6 0 1.2-.3 1.6-.8v.6h1.1v-2.4zm-4.2 0c.1-.9.8-1.5 1.7-1.5.9.1 1.5.8 1.5 1.7 0 .8-.7 1.5-1.6 1.5-.9 0-1.6-.7-1.6-1.5v-.2z"/><path fill-opacity=".5" class="st0" d="M24.5 27c0-6 2.7-11.7 7.5-15.4C23.5 5 11.3 6.5 4.6 15S-.6 35.7 7.9 42.4c7.1 5.6 17 5.6 24.1 0-4.7-3.7-7.5-9.4-7.5-15.4z"/><path fill-opacity=".2" d="M63.6 27c0 10.8-8.7 19.5-19.5 19.5-4.4 0-8.6-1.5-12.1-4.2 8.5-6.7 9.9-18.9 3.3-27.4-1-1.2-2.1-2.3-3.3-3.3C40.5 5 52.7 6.5 59.4 15c2.7 3.4 4.2 7.6 4.2 12z"/><path fill-rule="nonzero" d="M35.3 15c-1-1.2-2.1-2.3-3.3-3.3-4.7 3.7-7.5 9.4-7.5 15.4s2.7 11.6 7.5 15.3c8.5-6.7 9.9-19 3.3-27.4z"/></g></symbol><symbol id="icon-footer-package" viewBox="0 0 64 64"><g fill-rule="evenodd"><path fill-opacity=".2" d="M9.2 31.1h45.7c1.7 0 3-1.4 3-3V19c0-1.7-1.4-3-3-3H9.2c-1.7 0-3 1.4-3 3v9c-.1 1.7 1.3 3.1 3 3.1z"/><path fill-rule="nonzero" d="M25.1 15.8c-7.6-3.6-10-7.5-6.1-11.5 2.4-2.4 5.2-2.3 7.7.1 2 2 3.9 5.7 5.9 11.1C36.8 4 41.4-.4 46.2 4.4c2.4 2.4 2.3 5.2-.1 7.7-1.3 1.3-3.2 2.5-5.9 3.8h14.7c1.7 0 3 1.4 3 3V28c0 1.7-1.4 3-3 3v27.4c0 1.7-1.4 3-3 3H12.2c-1.7 0-3-1.4-3-3V31.1c-1.7 0-3-1.4-3-3V19c0-1.7 1.4-3 3-3h15.9zM12.2 31.1v27.4h39.6V31.1H12.2zm-3-12.2V28h45.7v-9.1H9.2zm34.7-9c1.3-1.3 1.3-2.2.1-3.4-2.1-2.1-4.5 0-7.6 7.6 3.7-1.4 6.2-2.9 7.5-4.2zM24.6 6.7c-1.3-1.3-2.2-1.3-3.4-.1-2.1 2.1 0 4.5 7.6 7.6-1.5-3.7-2.9-6.2-4.2-7.5z"/></g></symbol><symbol id="icon-footer-positive" viewBox="0 0 64 64"><g fill-rule="evenodd"><path fill-rule="nonzero" d="M23.1 25.6v29.2H6.7V25.6h16.4m0-2.8H6.7c-1.5 0-2.8 1.3-2.8 2.8v29.2c0 1.5 1.3 2.8 2.8 2.8h16.4c1.5 0 2.8-1.3 2.8-2.8V25.6c0-1.6-1.3-2.8-2.8-2.8z"/><path fill-opacity=".2" d="M53.6 27.1H46c-3.9 0-7.1-3.2-7.1-7.1v-7.5c0-1.7-1.3-3.3-3-3.3-1.8-.1-3.3 1.4-3.3 3.2v8.3c0 3.6-2.9 6.4-6.4 6.4v25.2h20.1c2.6 0 4.9-1.7 5.7-4.1L57.1 32c.8-2.4-1-4.9-3.5-4.9z"/><path fill-rule="nonzero" d="M35.7 9.2h.2c1.7.1 3 1.6 3 3.3V20c0 3.9 3.2 7.1 7.1 7.1h7.6c2.5 0 4.3 2.5 3.6 4.9l-5.3 16.2c-.8 2.5-3.1 4.1-5.7 4.1H26.1V27.1c3.6 0 6.4-2.9 6.4-6.4v-8.3c0-1.8 1.4-3.2 3.2-3.2m0-2.8c-1.6 0-3.1.6-4.2 1.7s-1.7 2.6-1.7 4.2v8.3c0 2-1.6 3.6-3.6 3.6-1.5 0-2.8 1.3-2.8 2.8v25.2c0 .7.3 1.5.8 2s1.2.8 2 .8h20.1c3.8 0 7.2-2.4 8.3-6.1l5.3-16.2c.6-2 .3-4.2-.9-5.9-1.2-1.7-3.2-2.7-5.3-2.7h-7.6c-2.4 0-4.3-1.9-4.3-4.3v-7.5c0-3.3-2.5-6-5.6-6.1-.3.2-.4.2-.5.2z"/></g></symbol><symbol id="icon-footer-reading" viewBox="0 0 64 64"><g fill-rule="evenodd"><path fill-opacity=".2" class="st0" d="M15.5 41.6h41.9v15.2H15.5z"/><path fill-opacity=".2" class="st1" d="M13.9 19.6H55v9.2H13.9z"/><path fill-rule="nonzero" d="M58.6 44H18.5c-.8 0-1.4.6-1.4 1.4s.6 1.4 1.4 1.4h40.1c.8 0 1.4-.6 1.4-1.4s-.7-1.4-1.4-1.4zm0 4.1H18.5c-.8 0-1.4.6-1.4 1.4s.6 1.4 1.4 1.4h40.1c.8 0 1.4-.6 1.4-1.4s-.7-1.4-1.4-1.4zm0 4.1H18.5c-.8 0-1.4.6-1.4 1.4s.6 1.4 1.4 1.4h40.1c.8 0 1.4-.6 1.4-1.4s-.7-1.4-1.4-1.4zm.1 4.2h-41c-.8 0-1.4-.6-1.4-1.4V43.9c0-.8.6-1.4 1.4-1.4h41c1.7 0 2-2.5.3-2.8H44.6v-8.1H55c1.5 0 2.8-1.3 2.8-2.8v-9.2c0-1.5-1.3-2.8-2.8-2.8h-2.3V7.6c0-1.5-1.3-2.8-2.8-2.8h-41C7.2 4.8 6 6 6 7.6v9.2c0 1.5 1.3 2.8 2.8 2.8h2.3v9.2H6.7c-1.5 0-2.8 1.3-2.8 2.8v8.1c0 1.5 1.3 2.8 2.8 2.8h6.9c-.2.4-.3.9-.3 1.4V55c0 2.3 1.9 4.2 4.2 4.2h41.3c1.8-.2 1.5-2.8-.1-2.8zm-8.4-36.8h4.6v9.2h-41v-9.2h36.4zM8.8 7.6h41v3.1h-41V7.6zm0 9.2v-3.3h41v3.3h-41zM6.7 39.7v-8.1h35v8.1h-35z"/></g></symbol><symbol id="icon-footer-shipping" viewBox="0 0 64 64"><g fill-rule="evenodd"><path fill-opacity=".2" d="M13.8 33.8V13.1c0-.8.6-1.4 1.4-1.4h26.2c.8 0 1.4.6 1.4 1.4v20.7"/><path fill-rule="nonzero" d="M57.9 49c-.3 3.1-3 5.5-6.2 5.5s-5.8-2.4-6.2-5.5H30.3c-.3 3.1-3 5.5-6.2 5.5S18.3 52.1 18 49h-2.8c-1.5 0-2.8-1.2-2.8-2.8V13.1c0-1.5 1.2-2.8 2.8-2.8h26.2c1.5 0 2.8 1.2 2.8 2.8v5.5h4.6c2.4 0 4.5 1.5 5.3 3.8l3.3 10.1 1.8 1.4c2.8 2.1 4.4 5.4 4.4 8.8v3.4c0 1.5-1.2 2.8-2.8 2.8h-2.9zm-12-2.8a6.3 6.3 0 0 1 5.9-4.1c2.7 0 5 1.7 5.9 4.1h3.1v-3.4c0-2.6-1.2-5.1-3.3-6.6l-1.3-1H15.3v11h3.1c.9-2.4 3.2-4.1 5.9-4.1s5 1.7 5.9 4.1h15.7zm-4.5-13.8V13.1H15.2v19.3h26.2zm2.8 0h10.1l-2.9-9.1c-.4-1.1-1.4-1.9-2.6-1.9h-4.6v11zM24.1 51.7c1.9 0 3.4-1.5 3.4-3.4s-1.5-3.4-3.4-3.4-3.4 1.5-3.4 3.4 1.5 3.4 3.4 3.4zm0-1.4c-1.1 0-2.1-.9-2.1-2.1 0-1.1.9-2.1 2.1-2.1s2.1.9 2.1 2.1c0 1.2-.9 2.1-2.1 2.1zm27.6 1.4c1.9 0 3.4-1.5 3.4-3.4s-1.5-3.4-3.4-3.4-3.4 1.5-3.4 3.4 1.5 3.4 3.4 3.4zm0-1.4c-1.1 0-2.1-.9-2.1-2.1s.9-2.1 2.1-2.1c1.1 0 2.1.9 2.1 2.1s-.9 2.1-2.1 2.1zM41.4 37.9c0-.8.6-1.4 1.4-1.4s1.4.6 1.4 1.4v8.3c0 .8-.6 1.4-1.4 1.4s-1.4-.6-1.4-1.4v-8.3zm7-7.8c-.2-.7.1-1.5.9-1.7.7-.2 1.5.1 1.7.9l1.4 4.1c.2.7-.1 1.5-.9 1.7-.7.2-1.5-.1-1.7-.9l-1.4-4.1zm-40.1-17c.8 0 1.4.6 1.4 1.4 0 .8-.6 1.4-1.4 1.4H6.9c-.8 0-1.4-.6-1.4-1.4 0-.8.6-1.4 1.4-1.4h1.4zm0 16.5c.8 0 1.4.6 1.4 1.4 0 .8-.6 1.4-1.4 1.4H6.9c-.8 0-1.4-.6-1.4-1.4 0-.8.6-1.4 1.4-1.4h1.4zm0-11c.8 0 1.4.6 1.4 1.4 0 .8-.6 1.4-1.4 1.4H1.4C.6 21.4 0 20.7 0 20c0-.8.6-1.4 1.4-1.4h6.9zm0 5.5c.8 0 1.4.6 1.4 1.4s-.7 1.4-1.4 1.4H2.8c-.8 0-1.4-.6-1.4-1.4 0-.8.6-1.4 1.4-1.4h5.5z"/></g></symbol><symbol id="icon-footer-stores" viewBox="0 0 64 64"><g fill-rule="evenodd"><path fill-opacity=".2" class="st0" d="M20 39.7h14.1v14.1H20z"/><path fill-rule="nonzero" class="st1" d="M15.8 14.3c.7-6.7 5.8-7.1 10.4-7.1 4.6 0 9.7.3 10.4 7.1h6c1.6 0 2.8 1.3 2.8 2.8v39.6H8.7V17.1c0-1.6 1.3-2.8 2.8-2.8h4.3zm0 2.8h-4.3v36.7h31.1V17.1h-6c-.6 7.2-6.5 7.5-10.4 7.5-3.9.1-9.8-.3-10.4-7.5zm16.8-.4l1.5-1.5-1.7-1.7c-1.9-1.9-3.3-3.2-6.3 0-1.3-1.4-3.4-4.3-7.6 1.7l7.8 7.8 1.5-1.5-6.5-6.5c1.4-1.7 2.2-.9 3-.1l5 5 1.5-1.5-3.4-3.4c1.5-1.8 2.3-.9 3.1-.1l2.1 1.8zm-4.1 40l-2.8.1v-.1H20c-1.6 0-2.8-1.3-2.8-2.8V39.7c0-1.6 1.3-2.8 2.8-2.8h14.1c1.6 0 2.8 1.3 2.8 2.8v14.1c0 1.6-1.3 2.8-2.8 2.8h-5.6zm-2.9-17H20v14.1h5.7V39.7zm2.9 0v14.1h5.7V39.7h-5.7zM3 34.1h8.5v22.6H.2V36.9c0-1.5 1.3-2.8 2.8-2.8zm5.7 19.8v-17H3v17h5.7zm36.7-17H61c1.6 0 2.8 1.3 2.8 2.8v17H42.6v-17c0-1.5 1.3-2.8 2.8-2.8zM61 39.7H45.4v14.1H61V39.7z"/></g></symbol><symbol id="icon-footer-tradition" viewBox="0 0 24 24"><g fill-rule="evenodd"><path fill-opacity=".2" d="M1.5 5.2h13.7V9h-4.4l-.5 1.1v11H5.4l-2.5-1.4L1.5 17z"/><path fill-opacity=".2" d="M9.7 11.8h12.6v10.9c0 .6-.5 1.1-1.1 1.1h-9.3c-1.2 0-2.2-1-2.2-2.2v-9.8z"/><path fill-rule="nonzero" d="M14.7 9V1.4H4.8V.3h9.8c.6 0 1.1.5 1.1 1.1v7.7h-1zm-4.4 11.5v1.1H5.4c-2.1 0-3.8-1.7-3.8-3.8V3h1.1v14.8c0 1.5 1.2 2.7 2.7 2.7h4.9zM22 8.8c.2.2.3.5.3.8v13.1c0 .6-.5 1.1-1.1 1.1h-9.3c-1.2 0-2.2-1-2.2-2.2V10.5c0-1.1.9-1.9 1.9-1.9h9.6c.3-.1.6 0 .8.2zm-10.4 3.5c-.3 0-.6-.1-.8-.2v9.5c0 .6.5 1.1 1.1 1.1h9.3V12.3h-9.6zM15.8 3v1.6c0 .6-.5 1.1-1.1 1.1H4.3C2.8 5.8 1.5 4.5 1.5 3S2.7.3 4.2.3h10.4c.6 0 1.1.5 1.1 1.1v1.5c.1 0 .1.1.1.1zm-1.1-.5V1.4H4.3c-.9 0-1.7.7-1.7 1.6s.7 1.6 1.6 1.6h10.4v-1H4.8c-.3 0-.5-.3-.5-.6s.2-.5.5-.5h9.9zm-3.1 7.1c-.5 0-.8.4-.8.8s.4.8.8.8h9.6V9.6h-9.6z"/></g></symbol><symbol id="icon-foursquare" viewBox="0 0 24 24"><path d="M17.684 7.017L18.438 4H7v14l3.6-4.8A3 3 0 0 1 13 12h3.438l.75-3H10.5a1 1 0 1 1 0-2h7c.063 0 .125.006.184.017zM6 2h13.72a1 1 0 0 1 .97 1.243l-2.5 10a1 1 0 0 1-.97.757H13a1 1 0 0 0-.8.4l-5.4 7.2A1 1 0 0 1 5 21V3a1 1 0 0 1 1-1z"/></symbol><symbol id="icon-fwd" viewBox="0 0 24 24"><path d="M8.5 12.5l-4.3 4.3c-.4.4-.4 1 0 1.4.4.4 1 .4 1.4 0l5-5c.4-.4.4-1 0-1.4l-5-5c-.4-.4-1-.4-1.4 0-.4.4-.4 1 0 1.4l4.3 4.3z"/><path d="M13.4 12.5l-4.3 4.3c-.4.4-.4 1 0 1.4.4.4 1 .4 1.4 0l5-5c.4-.4.4-1 0-1.4l-5-5c-.4-.4-1-.4-1.4 0-.4.4-.4 1 0 1.4l4.3 4.3z"/><path d="M18.4 12.5l-4.3 4.3c-.4.4-.4 1 0 1.4.4.4 1 .4 1.4 0l5-5c.4-.4.4-1 0-1.4l-5-5c-.4-.4-1-.4-1.4 0-.4.4-.4 1 0 1.4l4.3 4.3z"/></symbol><symbol id="icon-google" viewBox="0 0 24 24"><path d="M12.665 10.425c-.004.985 0 1.97.005 2.954 1.65.054 3.305.029 4.956.054-.728 3.661-5.71 4.848-8.345 2.457-2.71-2.097-2.581-6.698.236-8.646 1.97-1.572 4.77-1.184 6.74.178a30.836 30.836 0 0 0 2.196-2.276c-1.638-1.307-3.649-2.238-5.788-2.139-4.463-.149-8.568 3.76-8.642 8.225-.285 3.649 2.114 7.227 5.502 8.518 3.376 1.3 7.704.414 9.86-2.619 1.422-1.915 1.728-4.38 1.563-6.698-2.764-.02-5.523-.016-8.283-.008z"/></symbol><symbol id="icon-guard" viewBox="0 0 24 24"><path d="M12 4.108L5 6.442V13a7 7 0 0 0 7 7V4.108zM3 5l9-3 9 3v8a9 9 0 0 1-18 0V5z"/></symbol><symbol id="icon-heart-full" viewBox="0 0 24 24"><path fill-rule="evenodd" d="M11.382 19.755l-7.007-7.238C3.49 11.58 3 10.325 3 8.99c0-1.337.489-2.59 1.375-3.53 1.838-1.945 4.826-1.945 6.661 0L12 6.48l.962-1.02c1.836-1.945 4.824-1.945 6.661 0 1.837 1.946 1.837 5.113 0 7.058l-1.544 1.636-5.557 5.607a.792.792 0 0 1-1.14-.005z"/></symbol><symbol id="icon-heart" viewBox="0 0 24 24"><path fill-rule="evenodd" d="M6.706 5.742c-.785 0-1.57.317-2.168.95a3.33 3.33 0 0 0-.893 2.297c0 .87.318 1.686.893 2.296l1.544 1.636 4.877 5 4.971-5.015 1.53-1.621c1.194-1.266 1.194-3.327 0-4.593a2.95 2.95 0 0 0-4.336 0L11.58 8.328a.79.79 0 0 1-1.163 0L8.873 6.692a2.972 2.972 0 0 0-2.167-.95M20 18h1.01c.546 0 .99.444.99 1a1 1 0 0 1-.99 1H20v1.01c0 .546-.444.99-1 .99a1 1 0 0 1-1-.99V20h-1.01a.993.993 0 0 1-.99-1 1 1 0 0 1 .99-1H18v-1.01c0-.546.444-.99 1-.99a1 1 0 0 1 1 .99V18zm-9.618 1.755l-7.007-7.238C2.49 11.58 2 10.325 2 8.99c0-1.337.489-2.59 1.375-3.53 1.838-1.945 4.826-1.945 6.661 0L11 6.48l.962-1.02c1.836-1.945 4.824-1.945 6.661 0 1.837 1.946 1.837 5.113 0 7.058l-1.544 1.636-5.557 5.607a.792.792 0 0 1-1.14-.005z"/></symbol><symbol id="icon-hex" viewBox="0 0 24 24"><path d="M16.1 3.1H7.9c-.7 0-1.2.3-1.5.9l-4.1 7.2c-.3.5-.3 1.2 0 1.7L6.4 20c.3.5.9.9 1.5.9h8.3c.6 0 1.2-.3 1.5-.9l4.1-7.2c.3-.5.3-1.2 0-1.7L17.6 4c-.3-.6-.8-.9-1.5-.9z"/></symbol><symbol id="icon-info" viewBox="0 0 24 24"><path d="M12 11.3c-.6 0-1 .4-1 1v4c0 .6.4 1 1 1s1-.4 1-1v-4c0-.6-.4-1-1-1zm0-4c-.6 0-1 .4-1 1s.4 1 1 1 1-.4 1-1-.4-1-1-1zm0-5c-5.3 0-9.7 4.3-9.7 9.7s4.3 9.7 9.7 9.7c5.3 0 9.7-4.3 9.7-9.7S17.3 2.3 12 2.3zm0 17.6c-4.4 0-7.9-3.6-7.9-7.9 0-4.4 3.6-7.9 7.9-7.9s7.9 3.6 7.9 7.9c0 4.4-3.5 7.9-7.9 7.9z"/></symbol><symbol id="icon-instagram" viewBox="0 0 24 24"><path d="M17.998 2H5.832C3.72 2 2 3.685 2 5.757v11.928c0 2.071 1.72 3.756 3.832 3.756h12.166c2.114 0 3.832-1.685 3.832-3.757V5.756C21.83 3.685 20.111 2 17.998 2zm1.1 2.24l.438-.001v3.295l-3.35.01-.012-3.294 2.923-.01zM9.084 9.725a3.51 3.51 0 0 1 2.83-1.427c1.165 0 2.195.566 2.83 1.427.413.562.66 1.25.66 1.995 0 1.887-1.567 3.422-3.49 3.422-1.925 0-3.49-1.535-3.49-3.422 0-.745.247-1.433.66-1.995zm10.813 7.959c0 1.028-.852 1.863-1.9 1.863H5.832c-1.048 0-1.9-.835-1.9-1.863V9.725h2.96c-.256.617-.4 1.29-.4 1.995 0 2.931 2.433 5.317 5.423 5.317s5.422-2.386 5.422-5.317c0-.705-.144-1.378-.4-1.995h2.961v7.959z"/></symbol><symbol id="icon-invoice" viewBox="0 0 24 24"><path d="M7.17 5A3.001 3.001 0 0 1 10 3h4c1.306 0 2.417.835 2.83 2H17a3 3 0 0 1 3 3v10a3 3 0 0 1-3 3H7a3 3 0 0 1-3-3V8a3 3 0 0 1 3-3h.17zm0 2H7a1 1 0 0 0-1 1v10a1 1 0 0 0 1 1h10a1 1 0 0 0 1-1V8a1 1 0 0 0-1-1h-.17A3.001 3.001 0 0 1 14 9h-4a3.001 3.001 0 0 1-2.83-2zM15 15a1 1 0 0 1 0 2h-2a1 1 0 0 1 0-2h2zm0-4a1 1 0 0 1 0 2H9a1 1 0 0 1 0-2h6zm-5-6a1 1 0 1 0 0 2h4a1 1 0 0 0 0-2h-4z"/></symbol><symbol id="icon-knihonaut" viewBox="0 0 50 50"><style>.st0{fill:#231f20}</style><path class="st0" d="M33.5 21.9l-17.8-1.1c-.5 0-.8-.4-.9-.8 0-.2-.8-4.1-.9-8-.1-4 1.7-8.7 1.8-8.9.1-.3.4-.5.7-.6.2 0 3.8-.8 9-.7 5.2.1 9.1 1.3 9.3 1.3.4.1.6.4.7.8 0 .2.8 4.1 1 8.3.1 4.3-1.9 8.9-2 9.1-.1.4-.5.6-.9.6zm-16.8-3l16.2 1c.5-1.4 1.6-4.6 1.5-7.6-.1-3.1-.6-6.1-.8-7.4-1.3-.3-4.4-1-8.2-1.1-3.8-.1-6.8.4-8 .6-.4 1.3-1.6 4.7-1.5 7.6.1 2.8.5 5.6.8 6.9zm3.5 16c-.5 0-1-.4-1-.9l-.6-9.7c0-.6.4-1 .9-1.1l9.7-.6c.6 0 1 .4 1.1.9l.6 9.7c0 .6-.4 1-.9 1.1l-9.8.6c.1 0 0 0 0 0zm.4-9.7l.5 7.7 7.7-.5-.5-7.7-7.7.5zm.2 22.6h-.1l-4.6-.7c-.3 0-.6-.2-.7-.5-.1-.3-.2-.6 0-.9l4.6-9.4c.2-.3.5-.5.9-.6l2.7-.1c.3 0 .6.1.8.4.2.2.3.6.2.9L21.8 47c-.1.5-.5.8-1 .8zm-3.1-2.5l2.4.3 2.1-8h-.7l-3.8 7.7zm11 2.7l-4.9-.3c-.3 0-.6-.2-.7-.4-.2-.2-.2-.5-.2-.8l2.3-10.2c.1-.4.5-.8.9-.8l2.3-.1c.3 0 .5.1.7.3.2.2.3.4.3.7l.3 10.6c0 .3-.1.5-.3.7-.2.2-.4.3-.7.3zm-3.6-2.2l2.6.1-.1-8.5h-.5l-2 8.4zM9 35.7c-.3 0-.5-.1-.7-.3l-2-2c-.4-.4-.4-1 0-1.4l7.6-7.6c.2-.2.4-.3.7-.3.3 0 .5.1.7.3l2 2c.4.4.4 1 0 1.4l-7.6 7.6c-.2.2-.4.3-.7.3zm-.6-3l.6.6 6.2-6.2-.6-.6-6.2 6.2zm31.9 2.2c-.3 0-.5-.1-.7-.3L32 27c-.4-.4-.4-1 0-1.4l2-2c.2-.2.5-.3.7-.3.3 0 .5.1.7.3l7.6 7.6c.2.2.3.4.3.7 0 .3-.1.5-.3.7l-2.1 2c-.1.2-.3.3-.6.3zm-6.1-8.6l6.2 6.2.6-.6-6.2-6.2-.6.6z"/><path class="st0" d="M43.2 38.3c-.1 0-.3 0-.4-.1L40 36.9c-.4-.2-.6-.5-.6-.9l.1-2.1c0-.3.1-.5.3-.7l2-1.9c.3-.3.8-.4 1.2-.2l2.2 1.3c.3.2.5.6.5 1l-.2 2.6c0 .2-.1.4-.3.6L43.9 38c-.2.2-.4.3-.7.3zm-1.7-2.9l1.5.7.6-.7.1-1.7-1-.6-1.1 1.1-.1 1.2zM6.4 38.8c-.2 0-.5-.1-.6-.2l-1.6-1.3c-.2-.2-.3-.4-.4-.7l-.3-2.7c0-.4.2-.9.6-1l2.4-1c.4-.2.8-.1 1.1.2l1.9 1.8c.2.1.3.3.3.6l.3 1.9c.1.4-.1.9-.5 1.1l-2.7 1.3h-.5zM5.8 36l.8.7 1.4-.8-.2-.9-1.2-1.1-1.1.5.3 1.6zm15.7-19.4s-.1 0 0 0c-.6 0-1-.5-1-1l.3-7.5c0-.6.5-1 1-1 .6 0 1 .5 1 1l-.3 7.5c0 .6-.5 1-1 1zm7.1.4c-.6 0-1-.5-1-1l.3-7.5c0-.6.5-1 1-1 .6 0 1 .5 1 1l-.3 7.5c0 .6-.5 1-1 1z"/></symbol><symbol id="icon-like" viewBox="0 0 24 24"><path d="M6 10v8h2v-8H6zm4-1a2 2 0 0 0 2-2V6a2 2 0 1 1 4 0v2a1 1 0 0 0 1 1h2.312a2 2 0 0 1 1.916 2.575l-1.8 6A2 2 0 0 1 17.512 19H10a1 1 0 0 1-1 1H5a1 1 0 0 1-1-1V9a1 1 0 0 1 1-1h4a1 1 0 0 1 1 1zm4-1V6v1a4 4 0 0 1-4 4v6h7.512l1.8-6H17a3 3 0 0 1-3-3z"/></symbol><symbol id="icon-link" viewBox="0 0 24 24"><path d="M13.1 14.1c-.3 0-.5-.1-.7-.3-.4-.4-.4-1 0-1.4 1.4-1.4 1.4-3.6 0-4.9l-2.1-2.1C8.9 4 6.7 4 5.3 5.3c-1.4 1.4-1.4 3.6 0 5l2.1 2.1c.4.4.4 1 0 1.4-.4.4-1 .4-1.4 0l-2.1-2.1c-2.1-2.1-2.1-5.6 0-7.8 2.1-2.1 5.6-2.1 7.8 0L13.8 6c2.1 2.1 2.1 5.6 0 7.8-.2.2-.4.3-.7.3z"/><path d="M16.2 21.7c-1.4 0-2.8-.5-3.9-1.6L10.2 18c-2.1-2.1-2.1-5.6 0-7.8.4-.4 1-.4 1.4 0s.4 1 0 1.4c-1.4 1.4-1.4 3.6 0 5l2.1 2.1c1.4 1.4 3.6 1.4 5 0s1.4-3.6 0-5l-2.1-2.1c-.4-.4-.4-1 0-1.4s1-.4 1.4 0l2.1 2.1c1 1 1.6 2.4 1.6 3.9s-.6 2.8-1.6 3.9c-1.1 1.1-2.5 1.6-3.9 1.6z"/></symbol><symbol id="icon-loader" viewBox="0 0 128 128"><script type="text/ecmascript" xlink:href="//preloaders.net/jscripts/smil.user.js"/><path d="M64 14.75a6.73 6.73 0 0 1 6.75 6.7V38.8a6.75 6.75 0 0 1-13.5 0V21.45a6.73 6.73 0 0 1 6.75-6.7z"/><path d="M98.825 29.175a6.73 6.73 0 0 1 .035 9.51l-12.268 12.27a6.75 6.75 0 0 1-9.546-9.546L89.314 29.14a6.73 6.73 0 0 1 9.511.035z" fill-opacity=".26"/><path d="M113.25 64a6.73 6.73 0 0 1-6.7 6.75H89.2a6.75 6.75 0 0 1 0-13.5h17.35a6.73 6.73 0 0 1 6.7 6.75z" fill-opacity=".35"/><path d="M98.825 98.825a6.73 6.73 0 0 1-9.51.035l-12.27-12.268a6.75 6.75 0 0 1 9.546-9.546L98.86 89.314a6.73 6.73 0 0 1-.035 9.511z" fill-opacity=".44"/><path d="M64 113.25a6.73 6.73 0 0 1-6.75-6.7V89.2a6.75 6.75 0 0 1 13.5 0v17.35a6.73 6.73 0 0 1-6.75 6.7z" fill-opacity=".52"/><path d="M29.175 98.825a6.73 6.73 0 0 1-.035-9.51l12.268-12.269a6.75 6.75 0 0 1 9.546 9.546L38.686 98.86a6.73 6.73 0 0 1-9.511-.035z" fill-opacity=".61"/><path d="M14.75 64a6.73 6.73 0 0 1 6.7-6.75H38.8a6.75 6.75 0 0 1 0 13.5H21.45a6.73 6.73 0 0 1-6.7-6.75z" fill-opacity=".69"/><path d="M29.175 29.175a6.73 6.73 0 0 1 9.51-.035l12.269 12.268a6.75 6.75 0 0 1-9.546 9.546L29.14 38.686a6.73 6.73 0 0 1 .035-9.511z" fill-opacity=".78"/></symbol><symbol id="icon-logout" viewBox="0 0 24 24"><path d="M19.5 22H4a2 2 0 0 1-2-2V4a2 2 0 0 1 2-2h17a1 1 0 0 1 0 2H4v16h17a1 1 0 0 1 0 2h-1.5zm-.914-9H9a1 1 0 0 1 0-2h9.586l-2.293-2.293a1 1 0 1 1 1.414-1.414l4 4a1 1 0 0 1 0 1.414l-4 4a1 1 0 0 1-1.414-1.414L18.586 13z"/></symbol><symbol id="icon-martinus" viewBox="0 0 24 24"><path d="M12 2.3C6.6 2.3.3 2.7.3 12s7 9.7 11.7 9.7c4.6 0 11.7-.4 11.7-9.7 0-9.3-6.2-9.7-11.7-9.7zm7.6 9.6l-2.3-2.3c-.9-.9-1.9-2-3.7.1l4.1 4.1-1.9 1.9-6.1-6.1c-1-1-2-2-3.7.2l7.9 7.9-1.9 1.8L2.6 10c5.2-7.3 7.6-3.8 9.2-2.1 3.7-3.9 5.4-2.3 7.6 0l2 2.1-1.8 1.9z"/></symbol><symbol id="icon-menu" viewBox="0 0 24 24"><path d="M3 7a1 1 0 1 1 0-2h18a1 1 0 0 1 0 2H3zm0 6a1 1 0 0 1 0-2h18a1 1 0 0 1 0 2H3zm0 6a1 1 0 0 1 0-2h18a1 1 0 0 1 0 2H3z"/></symbol><symbol id="icon-minus" viewBox="0 0 24 24"><rect width="12" height="2" x="6" y="11" fill-rule="evenodd" rx="1"/></symbol><symbol id="icon-order-cancel" viewBox="0 0 24 24"><path d="M12 13.586l2.293-2.293a1 1 0 0 1 1.414 1.414L13.414 15l2.293 2.293a1 1 0 0 1-1.414 1.414L12 16.414l-2.293 2.293a1 1 0 1 1-1.414-1.414L10.586 15l-2.293-2.293a1 1 0 0 1 1.414-1.414L12 13.586zm3-9.172V7h2.586L15 4.414zM19 9h-5a1 1 0 0 1-1-1V3H6a1 1 0 0 0-1 1v16a1 1 0 0 0 1 1h12a1 1 0 0 0 1-1V9zm-5-8a1 1 0 0 1 .707.293l6 6A1 1 0 0 1 21 8v12a3 3 0 0 1-3 3H6a3 3 0 0 1-3-3V4a3 3 0 0 1 3-3h8z"/></symbol><symbol id="icon-order-progress-1" viewBox="0 0 64 64"><g fill-rule="evenodd"><path fill-rule="nonzero" d="M21.043 47a1 1 0 0 0 1-1v-2a2 2 0 0 1 2-2h20.914a2 2 0 0 1 2 2v2a3 3 0 0 1-3 3H21a3 3 0 0 1-3-3V17a2 2 0 0 1 2-2h21a2 2 0 0 1 2 2v25h-2V17H20v29a1 1 0 0 0 1 1h.043zm22.914 0a1 1 0 0 0 1-1v-2H24.043v2c0 .35-.06.687-.17 1h20.084zM23 22a1 1 0 0 1 0-2h15a1 1 0 0 1 0 2H23zm0 5a1 1 0 0 1 0-2h9a1 1 0 0 1 0 2h-9zm13 0a1 1 0 0 1 0-2h2a1 1 0 0 1 0 2h-2zm-13 4a1 1 0 0 1 0-2h6a1 1 0 0 1 0 2h-6zm13 0a1 1 0 0 1 0-2h2a1 1 0 0 1 0 2h-2zm-13 7a1 1 0 0 1 0-2h9a1 1 0 0 1 0 2h-9zm13 0a1 1 0 0 1 0-2h2a1 1 0 0 1 0 2h-2z"/><path fill-opacity=".2" d="M46.957 44v2a3 3 0 0 1-3 3H21l.043-2a1 1 0 0 0 1-1v-2a2 2 0 0 1 2-2h20.914a2 2 0 0 1 2 2z"/></g></symbol><symbol id="icon-order-progress-2" viewBox="0 0 64 64"><g fill-rule="evenodd"><path fill-opacity=".2" d="M15 23h3a2 2 0 0 1 2 2v2a2 2 0 0 1-2 2h-3a2 2 0 0 1-2-2v-2a2 2 0 0 1 2-2zm-1.5 23h22a1.5 1.5 0 0 0 0-3h-22a1.5 1.5 0 0 0 0 3z"/><path fill-rule="nonzero" d="M14 19h21a6 6 0 0 1 6 6v10a6 6 0 0 1-6 6H14a6 6 0 0 1-6-6V25a6 6 0 0 1 6-6zm0 2a4 4 0 0 0-4 4v10a4 4 0 0 0 4 4h21a4 4 0 0 0 4-4V25a4 4 0 0 0-4-4H14zm1 2h3a2 2 0 0 1 2 2v2a2 2 0 0 1-2 2h-3a2 2 0 0 1-2-2v-2a2 2 0 0 1 2-2zm0 2v2h3v-2h-3zm-1 8a1 1 0 0 1 0-2h3a1 1 0 0 1 0 2h-3zm6 0a1 1 0 0 1 0-2h3a1 1 0 0 1 0 2h-3zm-6 3a1 1 0 0 1 0-2h6a1 1 0 0 1 0 2h-6zm9 0a1 1 0 0 1 0-2h6a1 1 0 0 1 0 2h-6zm3-3a1 1 0 0 1 0-2h3a1 1 0 0 1 0 2h-3zm6 0a1 1 0 0 1 0-2h3a1 1 0 0 1 0 2h-3zm0 3a1 1 0 0 1 0-2h3a1 1 0 0 1 0 2h-3zm21.997 5.074l-.011.2v-.132a.768.768 0 0 0 .01-.068zm-9.01-.013l.013.227v-.15a.792.792 0 0 1-.012-.077zM54 37h2l-.014 4.281c-.223 2.138-3.042 3.828-6.486 3.828s-6.263-1.69-6.5-3.828L43.014 37h2L45 41.139c.196.917 2.044 1.97 4.5 1.97 2.463 0 4.307-1.058 4.486-1.967L54 37zm-9.012 4.06l.012.228v-.15a.792.792 0 0 1-.012-.077zm9.009.014l-.011.2v-.132a.768.768 0 0 0 .01-.068zm-10.984-7.71a2.634 2.634 0 0 1-.013-.262C43 30.836 45.91 29 49.5 29c3.536 0 6.413 1.782 6.498 4H56v.067a2.642 2.642 0 0 1 0 .086L55.986 37H56l-.014 4.281c-.223 2.138-3.042 3.828-6.486 3.828s-6.263-1.69-6.5-3.828l.013-3.9a2.66 2.66 0 0 1-.013-.1l.013-3.918zm1.991 2.7l-.003.936h.013v.192c.253.904 2.077 1.917 4.486 1.917 2.463 0 4.307-1.058 4.486-1.967l.004-1.075c-1.167.704-2.749 1.136-4.49 1.136-1.744 0-3.328-.434-4.496-1.14zm2.033 4.74a7.656 7.656 0 0 1-2.033-.833L45 41.14c.196.917 2.044 1.97 4.5 1.97 2.463 0 4.307-1.058 4.486-1.967l.004-1.169a7.64 7.64 0 0 1-2.03.832 9.871 9.871 0 0 1-2.46.304 9.874 9.874 0 0 1-2.463-.304zm2.463-5.6c2.624 0 4.5-1.185 4.5-2.102C54 32.184 52.124 31 49.5 31S45 32.184 45 33.102c0 .917 1.876 2.101 4.5 2.101z"/><path fill-opacity=".2" d="M44 34l5.5 2.5L55 34v9l-5.5 1-5.5-1z"/></g></symbol><symbol id="icon-order-progress-3" viewBox="0 0 64 64"><g fill-rule="evenodd"><path fill-opacity=".2" d="M13 20h25v7h-8l-1 2v20h-9l-4.5-2.5-2.5-5z"/><path fill-opacity=".2" d="M28 32h23v20a2 2 0 0 1-2 2H32a4 4 0 0 1-4-4V32z"/><path fill-rule="nonzero" d="M37 27V13H19v-2h18a2 2 0 0 1 2 2v14h-2zm-8 21v2h-9a7 7 0 0 1-7-7V16h2v27a5 5 0 0 0 5 5h9zm21.414-21.414c.362.362.586.862.586 1.414v24a2 2 0 0 1-2 2H32a4 4 0 0 1-4-4V30c0-.087.003-.173.008-.258A3.5 3.5 0 0 1 31.5 26H49c.552 0 1.052.224 1.414.586zM31.5 33c-.537 0-1.045-.12-1.5-.337V50a2 2 0 0 0 2 2h17V33H31.5zm7.528-17c0 .08-.01.16-.028.235V19a2 2 0 0 1-2 2H18a5 5 0 0 1 0-10h19a2 2 0 0 1 2 2v2.765c.018.075.028.154.028.235zM37 15v-2H18a3 3 0 0 0 0 6h19v-2H19a1 1 0 0 1 0-2h18zm-5.5 13a1.5 1.5 0 0 0 0 3H49v-3H31.5z"/></g></symbol><symbol id="icon-order-progress-4" viewBox="0 0 64 64"><g fill-rule="evenodd"><path fill-opacity=".2" d="M19 33V18a1 1 0 0 1 1-1h19a1 1 0 0 1 1 1v15"/><path fill-rule="nonzero" d="M50.973 44a4.5 4.5 0 0 1-8.946 0H30.973a4.5 4.5 0 0 1-8.946 0H20a2 2 0 0 1-2-2V18a2 2 0 0 1 2-2h19a2 2 0 0 1 2 2v4h3.316a4 4 0 0 1 3.806 2.771l2.372 7.35 1.306.979a8 8 0 0 1 3.2 6.4V42a2 2 0 0 1-2 2h-2.027zm-8.717-2a4.502 4.502 0 0 1 8.488 0H53v-2.5a6 6 0 0 0-2.4-4.8l-.933-.7H20v8h2.256a4.502 4.502 0 0 1 8.488 0h11.512zM39 32V18H20v14h19zm2 0h7.354l-2.135-6.614A2 2 0 0 0 44.316 24H41v8zM26.5 46a2.5 2.5 0 1 0 0-5 2.5 2.5 0 0 0 0 5zm0-1a1.5 1.5 0 1 1 0-3 1.5 1.5 0 0 1 0 3zm20 1a2.5 2.5 0 1 0 0-5 2.5 2.5 0 0 0 0 5zm0-1a1.5 1.5 0 1 1 0-3 1.5 1.5 0 0 1 0 3zM39 36a1 1 0 0 1 2 0v6a1 1 0 0 1-2 0v-6zm5.051-5.684a1 1 0 1 1 1.898-.632l1 3a1 1 0 1 1-1.898.632l-1-3zM15 18a1 1 0 0 1 0 2h-1a1 1 0 0 1 0-2h1zm0 12a1 1 0 0 1 0 2h-1a1 1 0 0 1 0-2h1zm0-8a1 1 0 0 1 0 2h-5a1 1 0 0 1 0-2h5zm0 4a1 1 0 0 1 0 2h-4a1 1 0 0 1 0-2h4z"/></g></symbol><symbol id="icon-order-progress-5" viewBox="0 0 64 64"><g fill-rule="evenodd"><path fill-opacity=".2" d="M34 36H24v10h10z"/><path fill-rule="nonzero" d="M21.058 18c.5-4.742 4.132-5 7.345-5 3.228 0 6.846.233 7.34 5H40a2 2 0 0 1 2 2v28H16V20a2 2 0 0 1 2-2h3.058zm-.026 2H18v26h22V20h-4.23c-.404 5.106-4.571 5.34-7.367 5.34-2.794 0-6.964-.276-7.37-5.34zm11.883-.33l1.087-1.088-1.193-1.194c-1.319-1.37-2.304-2.261-4.434-.019-.94-.983-2.373-3.038-5.375 1.21l5.503 5.503 1.087-1.088-4.575-4.575c1.008-1.23 1.568-.67 2.148-.09l3.546 3.547 1.088-1.088-2.373-2.373c1.085-1.257 1.618-.618 2.17-.066l1.32 1.32zM30 48v.036h-2V48h-4a2 2 0 0 1-2-2V36a2 2 0 0 1 2-2h10a2 2 0 0 1 2 2v10a2 2 0 0 1-2 2h-4zm-2-12h-4v10h4V36zm2 0v10h4V36h-4zm-18-4h6v16h-8V34a2 2 0 0 1 2-2zm4 14V34h-4v12h4zm26-12h11a2 2 0 0 1 2 2v12H40V36a2 2 0 0 1 2-2zm11 2H42v10h11V36z"/></g></symbol><symbol id="icon-order-progress-6" viewBox="0 0 64 64"><g fill-rule="evenodd"><path d="M49 35.999c1.073-.002 2 .868 2 2.001v3a2 2 0 0 1-1.515 1.94l-.485.122V46a2 2 0 0 1-1.642 1.968l-11 2c-.12.022-.24.032-.358.033A2 2 0 0 1 34 52h-3a2 2 0 0 1-2-2c-.118 0-.237-.01-.358-.032l-11-2A2 2 0 0 1 16 46v-2.938l-.485-.122A2 2 0 0 1 14 41v-3c0-1.133.927-2.003 2-2.001V29a2 2 0 0 1 2.358-1.968l3.642.662V23a9 9 0 0 1 9-9h3a9 9 0 0 1 9 9v4.694l3.642-.662A2 2 0 0 1 49 29v6.999zm-2 .44V29l-11 2v17l11-2v-2.438l-.272.068A3 3 0 0 1 43 40.72v-.94a3 3 0 0 1 2.272-2.91L47 36.438zm-29 7.123V46l11 2V31l-11-2v7.438l1.728.432A3 3 0 0 1 22 39.78v.94a3 3 0 0 1-3.728 2.91L18 43.562zm20-14.958V24.5L30 21l-3 4v3.604l2.358.428A2 2 0 0 1 31 31h3a2 2 0 0 1 1.642-1.968L38 28.604zm3-.546V23a7 7 0 0 0-7-7h-3a7 7 0 0 0-7 7v5.058l1 .182V25a2 2 0 0 1 .4-1.2l3-4a2 2 0 0 1 2.402-.632l8 3.5A2 2 0 0 1 40 24.5v3.74l1-.182zM30 28a1 1 0 1 1 0-2 1 1 0 0 1 0 2zm5 0a1 1 0 1 1 0-2 1 1 0 0 1 0 2zm-4 5v17h3V33h-3zm-15 5v3l2.757.69A1 1 0 0 0 20 40.72v-.94a1 1 0 0 0-.757-.97L16 38zm33 0l-3.243.81a1 1 0 0 0-.757.97v.94a1 1 0 0 0 1.243.97L49 41v-3z"/><path fill-opacity=".2" d="M49 38l-3.243.81a1 1 0 0 0-.757.97v.94a1 1 0 0 0 1.243.97L49 41v-3zm-33 0l3.243.81a1 1 0 0 1 .757.97v.94a1 1 0 0 1-1.243.97L16 41v-3zm13.5-18l-3 4.5L26 29l3.5 1 .5 2h5l.5-2 3.5-.5V24z"/></g></symbol><symbol id="icon-order-progress-gift-heart" viewBox="0 0 64 64"><g fill-rule="evenodd"><rect width="34" height="10" x="15" y="19" rx="2" transform="matrix(1 0 0 -1 0 48)"/><path d="M39 36a4 4 0 0 0-7-2.646A4 4 0 0 0 25 36c0 1.32 1.873 3.77 5.618 7.35a2 2 0 0 0 2.764 0C37.127 39.77 39 37.32 39 36z"/><path fill-rule="nonzero" d="M27.467 19c-5.014-2.376-6.602-4.91-3.985-7.525 1.576-1.577 3.417-1.532 5.038.088 1.316 1.317 2.592 3.733 3.882 7.282 2.768-7.598 5.784-10.498 8.918-7.363 1.577 1.576 1.532 3.417-.088 5.038-.839.838-2.123 1.66-3.862 2.48H47a2 2 0 0 1 2 2v6a2 2 0 0 1-2 2v18a2 2 0 0 1-2 2H19a2 2 0 0 1-2-2V29a2 2 0 0 1-2-2v-6a2 2 0 0 1 2-2h10.467zM19 29v18h26V29H19zm-2-8v6h30v-6H17zm22.818-5.895c.854-.854.868-1.43.088-2.21-1.352-1.351-2.987-.016-5.002 5 2.395-.975 4.039-1.914 4.914-2.79zm-12.713-2.128c-.854-.854-1.43-.868-2.21-.088-1.351 1.352-.016 2.987 5 5.002-.975-2.394-1.914-4.038-2.79-4.914zM32 33.354l.75-.661A4 4 0 0 1 39 36c0 1.32-1.873 3.77-5.618 7.35a2 2 0 0 1-2.764 0C26.873 39.77 25 37.32 25 36a4 4 0 0 1 6.25-3.307l.75.661zM37 36a2 2 0 0 0-3.5-1.322L32 36.377l-1.5-1.7A2 2 0 0 0 27 36c0 .524 1.706 2.757 5 5.906 3.294-3.15 5-5.382 5-5.905z"/></g></symbol><symbol id="icon-order-progress-gift" viewBox="0 0 64 64"><g fill-rule="evenodd"><rect width="34" height="10" x="15" y="19" rx="2" transform="matrix(1 0 0 -1 0 48)"/><path d="M39 36a4 4 0 0 0-7-2.646A4 4 0 0 0 25 36c0 1.32 1.873 3.77 5.618 7.35a2 2 0 0 0 2.764 0C37.127 39.77 39 37.32 39 36z"/><path fill-rule="nonzero" d="M27.467 19c-5.014-2.376-6.602-4.91-3.985-7.525 1.576-1.577 3.417-1.532 5.038.088 1.316 1.317 2.592 3.733 3.882 7.282 2.768-7.598 5.784-10.498 8.918-7.363 1.577 1.576 1.532 3.417-.088 5.038-.839.838-2.123 1.66-3.862 2.48H47a2 2 0 0 1 2 2v6a2 2 0 0 1-2 2v18a2 2 0 0 1-2 2H19a2 2 0 0 1-2-2V29a2 2 0 0 1-2-2v-6a2 2 0 0 1 2-2h10.467zM19 29v18h26V29H19zm-2-8v6h30v-6H17zm22.818-5.895c.854-.854.868-1.43.088-2.21-1.352-1.351-2.987-.016-5.002 5 2.395-.975 4.039-1.914 4.914-2.79zm-12.713-2.128c-.854-.854-1.43-.868-2.21-.088-1.351 1.352-.016 2.987 5 5.002-.975-2.394-1.914-4.038-2.79-4.914zM32 33.354l.75-.661A4 4 0 0 1 39 36c0 1.32-1.873 3.77-5.618 7.35a2 2 0 0 1-2.764 0C26.873 39.77 25 37.32 25 36a4 4 0 0 1 6.25-3.307l.75.661zM37 36a2 2 0 0 0-3.5-1.322L32 36.377l-1.5-1.7A2 2 0 0 0 27 36c0 .524 1.706 2.757 5 5.906 3.294-3.15 5-5.382 5-5.905z"/></g></symbol><symbol id="icon-order-progress-line-download" viewBox="0 0 64 64"><g fill-rule="evenodd"><path fill-opacity=".2" d="M17 18h30v13H34l-3.5-2-.5 2H17z"/><path fill-rule="nonzero" d="M38.484 33l3.25 2.578a2 2 0 0 1-.242 3.3l-1.408.812 2.064 3.576a2 2 0 0 1-.732 2.732l-1.517.875a2 2 0 0 1-2.732-.732l-2.064-3.575-1.408.813a2 2 0 0 1-2.979-1.44L29.393 33H17a2 2 0 0 1-2-2V18a2 2 0 0 1 2-2h30a2 2 0 0 1 2 2v13a2 2 0 0 1-2 2h-8.516zm-2.522-2H47V18H17v13h12.097l-.173-1.167c-.265-1.794 1.801-2.987 3.222-1.86L35.962 31zm1.39 7.958l3.14-1.813-9.59-7.605 1.793 12.107 3.14-1.813L38.9 45.14l1.517-.875-3.064-5.308z"/></g></symbol><symbol id="icon-order" viewBox="0 0 24 24"><path d="M17 9H3a1 1 0 1 0 0 2h14a1 1 0 0 0 0-2zm4-4H3a1 1 0 1 0 0 2h18a1 1 0 0 0 0-2zm-8 8H3a1 1 0 0 0 0 2h10a1 1 0 0 0 0-2zm-4 4H3a1 1 0 0 0 0 2h6a1 1 0 0 0 0-2z"/></symbol><symbol id="icon-pause" viewBox="0 0 24 24"><g fill-rule="evenodd"><rect width="2" height="18" x="7" y="3" rx="1"/><rect width="2" height="18" x="15" y="3" rx="1"/></g></symbol><symbol id="icon-pin" viewBox="0 0 24 24"><path d="M12 22.67l-6.129-6.13a8.667 8.667 0 1 1 12.258 0L12 22.67zm4.714-7.543a6.667 6.667 0 1 0-9.428 0L12 19.84l4.714-4.714zM12 13.83a4 4 0 1 1 0-8 4 4 0 0 1 0 8zm0-2a2 2 0 1 0 0-4 2 2 0 0 0 0 4z"/></symbol><symbol id="icon-play" viewBox="0 0 24 24"><path d="M6 4.832v14.336L17.15 12 6 4.832zm-.46-2.673l14 9a1 1 0 0 1 0 1.682l-14 9A1 1 0 0 1 4 21V3a1 1 0 0 1 1.54-.841z"/></symbol><symbol id="icon-plus" viewBox="0 0 24 24"><path fill-rule="evenodd" d="M11 13v3.998a.999.999 0 1 0 2 0V13h3.998a.999.999 0 1 0 0-2H13V7.002a.999.999 0 1 0-2 0V11H7.002a.999.999 0 1 0 0 2H11z"/></symbol><symbol id="icon-products-audiobooks" viewBox="0 0 64 64"><g fill-rule="evenodd"><path fill-opacity=".2" d="M31.1 11c-.6 0-1.3.2-1.8.8l-9.8 9.8H8.3c-1.5 0-2.6 1.2-2.6 2.6V40c0 1.5 1.2 2.6 2.6 2.6h11.2l9.8 9.8c.5.5 1.2.8 1.8.8 1.4 0 2.7-1 2.7-2.6v-37c-.1-1.6-1.4-2.6-2.7-2.6zm10.8 14.2c-.9-.4-1.9-.1-2.3.8-.4.9 0 1.9.8 2.3 1.5.7 2.5 2.2 2.5 3.7s-1 2.9-2.5 3.7c-.9.4-1.2 1.5-.8 2.3.4.9 1.5 1.2 2.3.8 2.8-1.3 4.5-4 4.5-6.8s-1.7-5.5-4.5-6.8zm5.3-10.5c-.8-.5-1.9-.2-2.4.6s-.2 1.9.7 2.4c4.9 2.8 8 8.3 8 14.3s-3.1 11.5-8 14.3c-.8.5-1.1 1.6-.7 2.4.5.8 1.5 1.1 2.4.6 6-3.4 9.7-10.1 9.7-17.3 0-7.2-3.7-13.9-9.7-17.3z"/><path fill-rule="nonzero" d="M31.1 9.8c-1 0-1.9.4-2.6 1.1L19 20.3H8.3c-2.1 0-3.8 1.7-3.8 3.8v15.8c0 2.1 1.7 3.8 3.8 3.8H19l9.4 9.4c.7.7 1.6 1.1 2.6 1.1 2.1 0 3.8-1.7 3.8-3.8V13.6c.1-2.4-1.9-3.8-3.7-3.8zm1.5 40.6c0 .9-.8 1.5-1.5 1.5-.3 0-.7-.1-1-.4L20 41.4H8.3c-.8 0-1.5-.7-1.5-1.5V24.1c0-.8.7-1.5 1.5-1.5H20l10-10.1c.4-.4.8-.4 1-.4.7 0 1.5.6 1.5 1.5v36.8zM48.7 32c0-3.8-2.2-7.2-5.8-8.9-.5-.3-1.1-.4-1.7-.4-1.5 0-3 .9-3.6 2.3-1 2-.1 4.4 1.9 5.4.8.4 1.2 1 1.2 1.6 0 .7-.5 1.3-1.2 1.6-1 .5-1.7 1.3-2 2.3-.4 1-.3 2.1.2 3.1.7 1.4 2.1 2.3 3.6 2.3.6 0 1.2-.1 1.7-.4 3.5-1.7 5.7-5.1 5.7-8.9zm-7.5 7c-.6 0-1.3-.4-1.6-1-.4-.9 0-1.9.8-2.3 1.5-.7 2.5-2.2 2.5-3.7s-1-2.9-2.5-3.7c-.9-.4-1.2-1.5-.8-2.3.3-.6.9-1 1.6-1 .3 0 .5.1.8.2 2.8 1.3 4.5 4 4.5 6.8s-1.7 5.5-4.5 6.8c-.3.2-.6.2-.8.2zm7.1-26.3c-.6-.3-1.3-.5-2-.5-1.4 0-2.8.8-3.5 2-.5.9-.7 2-.4 3 .3 1 1 1.9 1.9 2.4 4.2 2.4 6.8 7.1 6.8 12.3 0 5.2-2.6 9.9-6.8 12.3-.9.5-1.6 1.4-1.9 2.4-.3 1-.1 2.1.4 3 .7 1.2 2.1 2 3.5 2 .7 0 1.4-.2 2-.5 6.7-3.7 10.9-11 10.9-19.1 0-8.1-4.2-15.4-10.9-19.3zm-1.1 36.6c-.3.2-.6.2-.9.2-.6 0-1.2-.3-1.5-.9-.5-.8-.2-1.9.7-2.4 4.9-2.8 8-8.3 8-14.3s-3.1-11.5-8-14.3c-.8-.5-1.1-1.6-.7-2.4.3-.6.9-.9 1.5-.9.3 0 .6.1.9.2 6 3.4 9.7 10.1 9.7 17.3 0 7.4-3.7 14.1-9.7 17.5z"/></g></symbol><symbol id="icon-products-books" viewBox="0 0 64 64"><g fill-rule="evenodd"><path fill-opacity=".2" class="st0" d="M15.5 41.6h41.9v15.2H15.5z"/><path fill-opacity=".2" class="st1" d="M13.9 19.6H55v9.2H13.9z"/><path fill-rule="nonzero" d="M58.6 44H18.5c-.8 0-1.4.6-1.4 1.4s.6 1.4 1.4 1.4h40.1c.8 0 1.4-.6 1.4-1.4s-.7-1.4-1.4-1.4zm0 4.1H18.5c-.8 0-1.4.6-1.4 1.4s.6 1.4 1.4 1.4h40.1c.8 0 1.4-.6 1.4-1.4s-.7-1.4-1.4-1.4zm0 4.1H18.5c-.8 0-1.4.6-1.4 1.4s.6 1.4 1.4 1.4h40.1c.8 0 1.4-.6 1.4-1.4s-.7-1.4-1.4-1.4zm.1 4.2h-41c-.8 0-1.4-.6-1.4-1.4V43.9c0-.8.6-1.4 1.4-1.4h41c1.7 0 2-2.5.3-2.8H44.6v-8.1H55c1.5 0 2.8-1.3 2.8-2.8v-9.2c0-1.5-1.3-2.8-2.8-2.8h-2.3V7.6c0-1.5-1.3-2.8-2.8-2.8h-41C7.2 4.8 6 6 6 7.6v9.2c0 1.5 1.3 2.8 2.8 2.8h2.3v9.2H6.7c-1.5 0-2.8 1.3-2.8 2.8v8.1c0 1.5 1.3 2.8 2.8 2.8h6.9c-.2.4-.3.9-.3 1.4V55c0 2.3 1.9 4.2 4.2 4.2h41.3c1.8-.2 1.5-2.8-.1-2.8zm-8.4-36.8h4.6v9.2h-41v-9.2h36.4zM8.8 7.6h41v3.1h-41V7.6zm0 9.2v-3.3h41v3.3h-41zM6.7 39.7v-8.1h35v8.1h-35z"/></g></symbol><symbol id="icon-products-ebooks" viewBox="0 0 64 64"><g fill-rule="evenodd"><path fill-rule="nonzero" class="st0" d="M47.5 7.5c.8 0 1.5.7 1.5 1.5v46c0 .8-.7 1.5-1.5 1.5H16.3c-.8 0-1.5-.7-1.5-1.5V9c0-.8.7-1.5 1.5-1.5h31.2m0-2.5H16.3c-2.2 0-4 1.8-4 4v46c0 2.2 1.8 4 4 4h31.3c2.2 0 4-1.8 4-4V9c-.1-2.2-1.8-4-4.1-4z"/><path fill-rule="nonzero" class="st0" d="M43.8 13v31.1H20.2V13h23.6m2.5-2.5H17.8v36.1h28.7V10.5h-.2z"/><path fill-opacity=".2" class="st1" d="M47.5 5H16.3c-2.2 0-4 1.8-4 4v46c0 2.2 1.8 4 4 4h31.3c2.2 0 4-1.8 4-4V9c-.1-2.2-1.8-4-4.1-4zm-1.2 41.6H17.8V10.5h28.7v36.1h-.2z"/><path fill-rule="nonzero" class="st0" d="M31 50.4c.5 0 .9.4.9 1 0 .5-.4.9-.9.9s-1-.4-1-.9c0-.6.5-1 1-1m0-2.5c-1.9 0-3.5 1.5-3.5 3.5s1.5 3.4 3.5 3.4c1.9 0 3.4-1.5 3.4-3.4S33 47.9 31 47.9z"/></g></symbol><symbol id="icon-products-games" viewBox="0 0 64 64"><g fill-rule="evenodd"><path fill-rule="nonzero" class="st0" d="M35.9 25.3h-27c-2.2 0-4 1.8-4 4v27c0 2.2 1.8 4 4 4h27c2.2 0 4-1.8 4-4v-27c0-2.2-1.8-4-4-4zm1.5 31c0 .8-.7 1.5-1.5 1.5h-27c-.8 0-1.5-.7-1.5-1.5v-27c0-.8.7-1.5 1.5-1.5h27c.8 0 1.5.7 1.5 1.5v27zm18.7-45.1L30.2 3.9c-2.1-.6-4.3.6-4.9 2.8l-4.6 16.5h2.6l4.5-15.8c.2-.8 1.1-1.3 1.9-1l25.9 7.3c.8.2 1.3 1.1 1 1.9l-7.3 25.9c-.2.8-1.1 1.3-1.9 1L42.2 41v2.6l4.5 1.3c2.1.6 4.3-.6 4.9-2.8l7.3-25.9c.6-2.2-.6-4.4-2.8-5z"/><path fill-opacity=".2" class="st1" d="M14.8 46.6c-2 0-3.7 1.7-3.7 3.7s1.7 3.7 3.7 3.7 3.7-1.7 3.7-3.7-1.7-3.7-3.7-3.7zm7.8-7.9c-2 0-3.7 1.7-3.7 3.7s1.7 3.7 3.7 3.7 3.7-1.7 3.7-3.7-1.6-3.7-3.7-3.7zm7.8-7.8c-2 0-3.7 1.7-3.7 3.7s1.7 3.7 3.7 3.7 3.7-1.7 3.7-3.7-1.7-3.7-3.7-3.7zm3.3-20.1c-2 0-3.7 1.7-3.7 3.7s1.7 3.7 3.7 3.7 3.7-1.7 3.7-3.7-1.7-3.7-3.7-3.7zm14.8 3.7c-2 0-3.7 1.7-3.7 3.7s1.7 3.7 3.7 3.7 3.7-1.7 3.7-3.7-1.7-3.7-3.7-3.7zm-3.7 15.2c-1 0-1.9.4-2.6 1.1v5.3c.7.7 1.6 1.1 2.6 1.1 2 0 3.7-1.7 3.7-3.7s-1.7-3.8-3.7-3.8z"/></g></symbol><symbol id="icon-products-movies" viewBox="0 0 64 64"><g fill-rule="evenodd"><path fill-rule="nonzero" class="st1" d="M25.7 12.9c4.2 0 8.3 1.4 11.7 3.9l.6.5h.4l2 2.3c3.1 3.6 4.8 8.1 4.8 12.8 0 10.8-8.7 19.5-19.5 19.5S6.2 43.2 6.2 32.4c0-10.7 8.7-19.5 19.5-19.5M19 20.8c-.2-.1-.4-.2-.6-.4-1-.6-2.2-.9-3.4-.9-2.4 0-4.6 1.3-5.8 3.4-.9 1.6-1.1 3.4-.7 5.1.5 1.7 1.6 3.2 3.1 4.1l.6.3-.6.3c-1.6.9-2.7 2.3-3.1 4.1-.5 1.7-.2 3.5.7 5.1 1.2 2.1 3.4 3.4 5.8 3.4 1.2 0 2.3-.3 3.4-.9.2-.1.4-.2.6-.4v.7c0 3.7 3 6.7 6.7 6.7 1.8 0 3.5-.7 4.8-2 1.3-1.3 2-3 2-4.8v-.7c.2.1.4.2.6.4 1 .6 2.2.9 3.4.9 2.4 0 4.6-1.3 5.8-3.4.9-1.6 1.1-3.4.7-5.1-.5-1.7-1.6-3.2-3.1-4.1l-.6-.3.6-.3c1.6-.9 2.7-2.3 3.1-4.1.5-1.7.2-3.5-.7-5.1-1.2-2.1-3.4-3.4-5.8-3.4-1.2 0-2.3.3-3.4.9-.2.1-.4.2-.6.4V20a6.7 6.7 0 0 0-13.4 0c-.1.4-.1.6-.1.8m2.8 4.8c1.1.8 2.5 1.3 3.9 1.3s2.8-.4 3.9-1.3c-.1 1.4.1 2.8.9 4 .7 1.2 1.8 2.2 3.1 2.8-1.3.6-2.3 1.5-3.1 2.8-.7 1.2-1 2.6-.9 4-1.1-.8-2.5-1.3-3.9-1.3-1.5 0-2.8.5-3.9 1.3.1-1.4-.2-2.8-.9-4-.7-1.2-1.8-2.2-3.1-2.8 1.3-.6 2.3-1.5 3.1-2.8.7-1.2 1-2.6.9-4m3.9 11.7c2.7 0 4.9-2.2 4.9-4.9s-2.2-4.9-4.9-4.9-4.9 2.2-4.9 4.9 2.2 4.9 4.9 4.9m0-26.9c-12.1 0-22 9.8-22 22 0 12.1 9.8 22 22 22 12.1 0 22-9.8 22-22 0-5.5-2.1-10.6-5.4-14.5 3.8 1.4 8.4 5.2 8.7 13.8.5 13.7 9.3 13.9 9.4 13.9v-2.4c-.1 0-6.7-.1-7.1-11.6-.4-12.1-8.7-16.7-14.5-16.9-3.6-2.6-8.2-4.3-13.1-4.3zm0 14c-2.3 0-4.2-1.9-4.2-4.2 0-2.3 1.9-4.2 4.2-4.2 2.3 0 4.2 1.9 4.2 4.2 0 2.3-1.9 4.2-4.2 4.2zm-10.6 6.1c-.7 0-1.4-.2-2.1-.6-2-1.2-2.7-3.8-1.5-5.8.8-1.4 2.2-2.1 3.7-2.1.7 0 1.4.2 2.1.6 2 1.2 2.7 3.8 1.5 5.8-.9 1.4-2.3 2.1-3.7 2.1zm21.2 0c-1.5 0-2.9-.8-3.7-2.1-1.2-2-.5-4.6 1.5-5.8.7-.4 1.4-.6 2.1-.6 1.5 0 2.9.8 3.7 2.1 1.2 2 .5 4.6-1.5 5.8-.6.4-1.4.6-2.1.6zm-10.6 4.3c-1.3 0-2.4-1.1-2.4-2.4 0-1.3 1.1-2.4 2.4-2.4 1.3 0 2.4 1.1 2.4 2.4 0 1.3-1.1 2.4-2.4 2.4zm10.6 8c-.7 0-1.4-.2-2.1-.6-2-1.2-2.7-3.8-1.5-5.8.8-1.4 2.2-2.1 3.7-2.1.7 0 1.4.2 2.1.6 2 1.2 2.7 3.8 1.5 5.8-.8 1.3-2.2 2.1-3.7 2.1zm-21.2 0c-1.5 0-2.9-.8-3.7-2.1-1.2-2-.5-4.6 1.5-5.8.7-.4 1.4-.6 2.1-.6 1.5 0 2.9.8 3.7 2.1 1.2 2 .5 4.6-1.5 5.8-.7.4-1.4.6-2.1.6zm10.6 6.1c-2.3 0-4.2-1.9-4.2-4.2 0-2.3 1.9-4.2 4.2-4.2 2.3 0 4.2 1.9 4.2 4.2 0 2.3-1.9 4.2-4.2 4.2z"/><path fill-opacity=".2" class="st1" d="M25.7 15.9c-2.3 0-4.2 1.9-4.2 4.2 0 2.3 1.9 4.2 4.2 4.2 2.3 0 4.2-1.9 4.2-4.2 0-2.3-1.9-4.2-4.2-4.2zm10.6 14.6c2.3 0 4.2-1.9 4.2-4.2 0-2.3-1.9-4.2-4.2-4.2-2.3 0-4.2 1.9-4.2 4.2 0 2.3 1.9 4.2 4.2 4.2zm0 3.8c-2.3 0-4.2 1.9-4.2 4.2 0 2.3 1.9 4.2 4.2 4.2 2.3 0 4.2-1.9 4.2-4.2 0-2.3-1.9-4.2-4.2-4.2zm-10.6 6.2c-2.3 0-4.2 1.9-4.2 4.2 0 2.3 1.9 4.2 4.2 4.2 2.3 0 4.2-1.9 4.2-4.2 0-2.4-1.9-4.2-4.2-4.2zm-10.6-6.2c-2.3 0-4.2 1.9-4.2 4.2 0 2.3 1.9 4.2 4.2 4.2 2.3 0 4.2-1.9 4.2-4.2 0-2.3-1.9-4.2-4.2-4.2zm0-12.2c-2.3 0-4.2 1.9-4.2 4.2 0 2.3 1.9 4.2 4.2 4.2 2.3 0 4.2-1.9 4.2-4.2 0-2.3-1.9-4.2-4.2-4.2z"/></g></symbol><symbol id="icon-react" viewBox="0 0 24 24"><path d="M11.172 16H19a1 1 0 0 0 1-1V6a1 1 0 0 0-1-1H5a1 1 0 0 0-1 1v9a1 1 0 0 0 1 1h4v2.172L11.172 16zm-.41-6.5l.878-.732a1 1 0 1 0-1.28-1.536l-3 2.5a1 1 0 0 0 0 1.536l3 2.5a1 1 0 1 0 1.28-1.536l-.878-.732H14a1.5 1.5 0 0 1 1.5 1.5 1 1 0 0 0 2 0A3.5 3.5 0 0 0 14 9.5h-3.238zM12 18l-3.293 3.293A1 1 0 0 1 7 20.586V18H5a3 3 0 0 1-3-3V6a3 3 0 0 1 3-3h14a3 3 0 0 1 3 3v9a3 3 0 0 1-3 3h-7z"/></symbol><symbol id="icon-reaction" viewBox="0 0 24 24"><path d="M15.238 13.5l-.878.732a1 1 0 1 0 1.28 1.536l3-2.5a1 1 0 0 0 0-1.536l-3-2.5a1 1 0 0 0-1.28 1.536l.878.732h-4.965A3.773 3.773 0 0 1 6.5 7.727a1 1 0 1 0-2 0 5.773 5.773 0 0 0 5.773 5.773h4.965z"/></symbol><symbol id="icon-reduction" viewBox="0 0 24 24"><path d="M10.988 10.587l-.041.44a.823.823 0 0 0-.004.077v6.503a1 1 0 0 0 .22.624l1.362 1.704c.01.003.017-2.94.02-8.83a.823.823 0 0 0-.003-.078l-.042-.44L18.49 4H5l5.988 6.587zm-2.045.724L3.52 5.345A2 2 0 0 1 5 2h13.489a2 2 0 0 1 1.48 3.345l-5.424 5.966v8.617a2.011 2.011 0 0 1-3.582 1.256l-1.362-1.703a3 3 0 0 1-.658-1.874V11.31z"/></symbol><symbol id="icon-sad" viewBox="0 0 24 24"><path d="M12 23C5.925 23 1 18.075 1 12S5.925 1 12 1s11 4.925 11 11-4.925 11-11 11zm0-2a9 9 0 1 0 0-18 9 9 0 0 0 0 18zM8.5 10a1.5 1.5 0 1 1 0-3 1.5 1.5 0 0 1 0 3zm7 0a1.5 1.5 0 1 1 0-3 1.5 1.5 0 0 1 0 3zm-8.424 6.288A5.335 5.335 0 0 1 12 13a5.335 5.335 0 0 1 4.924 3.289 1 1 0 1 1-1.848.765A3.335 3.335 0 0 0 12 15a3.335 3.335 0 0 0-3.076 2.055 1 1 0 0 1-1.848-.767z"/></symbol><symbol id="icon-save" viewBox="0 0 24 24"><path d="M6 4H5a1 1 0 0 0-1 1v14a1 1 0 0 0 1 1h14a1 1 0 0 0 1-1V8.414L15.586 4H8v4h8a1 1 0 0 1 0 2H7a1 1 0 0 1-1-1V4zm13 18H5a3 3 0 0 1-3-3V5a3 3 0 0 1 3-3h11a1 1 0 0 1 .707.293l5 5A1 1 0 0 1 22 8v11a3 3 0 0 1-3 3zm-7-3a4 4 0 1 1 0-8 4 4 0 0 1 0 8zm0-2a2 2 0 1 0 0-4 2 2 0 0 0 0 4z"/></symbol><symbol id="icon-search" viewBox="0 0 24 24"><path d="M21.7 20.3L18 16.6c1.2-1.5 2-3.5 2-5.6 0-5-4-9-9-9s-9 4-9 9 4 9 9 9c2.1 0 4.1-.7 5.6-2l3.7 3.7c.2.2.5.3.7.3.2 0 .5-.1.7-.3.4-.4.4-1 0-1.4zM11 18c-3.9 0-7-3.1-7-7s3.1-7 7-7 7 3.1 7 7-3.1 7-7 7z"/></symbol><symbol id="icon-share" viewBox="0 0 24 24"><path d="M9.85 10.912a4.003 4.003 0 0 1 0 2.175l5.311 3.095a4 4 0 1 1-1.01 1.726l-5.309-3.094a4 4 0 1 1 0-5.63L14.15 6.09A4.003 4.003 0 0 1 18 1a4 4 0 1 1-2.842 6.815L9.85 10.912zm-2.094.13a1.016 1.016 0 0 1-.056-.097A1.999 1.999 0 0 0 4 12a2 2 0 1 0 3.756-.959zM16.3 6.054A1.999 1.999 0 0 0 20 5a2 2 0 1 0-3.7 1.055zm-.085 12.041a2 2 0 1 0 .122-.209 1.01 1.01 0 0 1-.122.21z"/></symbol><symbol id="icon-smart-list" viewBox="0 0 16 16"><path d="M12.808 10.861a1.908 1.908 0 0 1-2.905 1.63 1.91 1.91 0 0 1-3.731.013 1.91 1.91 0 0 1-2.664-2.6 1.91 1.91 0 0 1-.012-3.732A1.91 1.91 0 0 1 6.13 3.528a1.91 1.91 0 0 1 3.73-.052 1.91 1.91 0 0 1 2.613 2.653 1.91 1.91 0 0 1 .052 3.73c.184.3.284.646.284 1.002zm-2.36-1.901c.194-.45.573-.795 1.031-.954a1.75 1.75 0 0 1-1.07-.976l-.082-.188v-.076a1.748 1.748 0 0 1 .122-1.25 1.74 1.74 0 0 1-1.48.04 1.749 1.749 0 0 1-.963-1.035 1.75 1.75 0 0 1-.976 1.07l-.188.082h-.076a1.748 1.748 0 0 1-1.25-.122c.23.455.255.99.059 1.43A1.742 1.742 0 0 1 4.51 8.027c.478.15.877.501 1.078.97a1.746 1.746 0 0 1-.037 1.487c.455-.23.99-.254 1.43-.058.497.183.874.575 1.045 1.065a1.74 1.74 0 0 1 .97-1.078 1.746 1.746 0 0 1 1.488.037 1.75 1.75 0 0 1-.035-1.49zM8 9.714a1.714 1.714 0 1 1 0-3.428 1.714 1.714 0 0 1 0 3.428zm0-2a.286.286 0 1 0 0 .572.286.286 0 0 0 0-.572z"/></symbol><symbol id="icon-smile" viewBox="0 0 24 24"><path d="M12 23C5.925 23 1 18.075 1 12S5.925 1 12 1s11 4.925 11 11-4.925 11-11 11zm0-2a9 9 0 1 0 0-18 9 9 0 0 0 0 18zM8.5 10a1.5 1.5 0 1 1 0-3 1.5 1.5 0 0 1 0 3zm7 0a1.5 1.5 0 1 1 0-3 1.5 1.5 0 0 1 0 3zm-8.424 4.383a1 1 0 1 1 1.848-.766A3.335 3.335 0 0 0 12 15.672a3.335 3.335 0 0 0 3.076-2.055 1 1 0 1 1 1.848.766A5.335 5.335 0 0 1 12 17.672a5.335 5.335 0 0 1-4.924-3.289z"/></symbol><symbol id="icon-star-half" viewBox="0 0 24 24"><g fill-rule="evenodd"><path fill="currentColor" data-keep-fill="true" d="M12.002 16.515L7.43 19.807c-.678.488-1.579-.186-1.314-.982l1.727-5.178-4.472-3.102c-.692-.484-.352-1.556.49-1.556h5.571l1.754-5.388c.13-.399.314-.601.82-.601-.006 3-.004 13.515-.004 13.515z"/><path fill="#e5e5e5" data-keep-fill="true" d="M12.005 16.515l4.572 3.292c.678.488 1.579-.186 1.314-.982l-1.727-5.178 4.472-3.102c.692-.484.352-1.556-.49-1.556h-5.571L12.82 3.601C12.69 3.202 12.507 3 12 3c.006 3 .004 13.515.004 13.515z"/></g></symbol><symbol id="icon-star" viewBox="0 0 24 24"><path fill-rule="evenodd" d="M12.818 3.59l1.755 5.399h5.566c.842 0 1.181 1.074.488 1.557l-4.465 3.102 1.73 5.23c.262.799-.644 1.466-1.32.973l-4.57-3.336-4.572 3.292c-.678.488-1.579-.186-1.314-.982l1.727-5.178-4.472-3.102c-.692-.484-.352-1.556.49-1.556h5.571l1.754-5.388c.26-.794 1.373-.805 1.632-.011"/></symbol><symbol id="icon-target" viewBox="0 0 24 24"><path d="M3.055 11A9.004 9.004 0 0 1 11 3.055V1.5a1 1 0 0 1 2 0v1.555A9.004 9.004 0 0 1 20.945 11h1.678a1 1 0 1 1 0 2h-1.678A9.004 9.004 0 0 1 13 20.945V22.5a1 1 0 0 1-2 0v-1.555A9.004 9.004 0 0 1 3.055 13H1.5a1 1 0 0 1 0-2h1.555zM12 19a7 7 0 1 0 0-14 7 7 0 0 0 0 14zm0-3a4 4 0 1 1 0-8 4 4 0 0 1 0 8zm0-2a2 2 0 1 0 0-4 2 2 0 0 0 0 4z"/></symbol><symbol id="icon-time" viewBox="0 0 24 24"><path d="M12 23C5.925 23 1 18.075 1 12S5.925 1 12 1s11 4.925 11 11-4.925 11-11 11zm0-2a9 9 0 1 0 0-18 9 9 0 0 0 0 18zm1-15v5.586l2.707 2.707a1 1 0 0 1-1.414 1.414l-3-3A1 1 0 0 1 11 12V6a1 1 0 0 1 2 0z"/></symbol><symbol id="icon-tip-heart" viewBox="0 0 24 24"><style>.st0{fill-rule:evenodd;clip-rule:evenodd}</style><path class="st0" d="M15.2 20.2l-3.3-3.4c-.4-.4-.6-1-.6-1.7 0-.6.2-1.2.6-1.7.9-.9 2.3-.9 3.1 0l.5.5.5-.5c.9-.9 2.3-.9 3.1 0 .9.9.9 2.4 0 3.3l-.7.8-2.6 2.6c-.1.1-.2.1-.3.1-.1.1-.2.1-.3 0z"/><path d="M15.4 23.4c-4.2 0-7.6-3.4-7.6-7.6s3.4-7.6 7.6-7.6 7.6 3.4 7.6 7.6-3.4 7.6-7.6 7.6zm0-13.2c-3.1 0-5.7 2.5-5.7 5.7s2.5 5.7 5.7 5.7 5.7-2.5 5.7-5.7-2.6-5.7-5.7-5.7z"/><path d="M9.7 19.1h-.4c-3.7 0-6.2-1.3-6.2-2.2V16c1.4.9 3.5 1.4 6 1.4-.1-.5-.2-1-.2-1.6v-.3C5.3 15.4 3 14.1 3 13.3v-.7c1.5.8 3.6 1.4 6.1 1.4.4-1.4 1.3-2.6 2.4-3.5C8.1 10.4 6 9.2 6 8.3v-.7C7.4 8.5 9.6 9 12.2 9s4.8-.5 6.2-1.4v.7c0 .4-.4.8-1.1 1.2.7.2 1.4.5 2 1 .7-.6 1.1-1.3 1.1-2.1V4.9c0-2.4-3.5-4.2-8.2-4.2C7.5.7 4 2.5 4 4.9v1.7c-1.8.8-2.9 1.9-2.9 3.2v7c0 2.4 3.5 4.2 8.2 4.2.7 0 1.3 0 1.9-.1-.6-.5-1.1-1.1-1.5-1.8zm2.5-16.5c3.7 0 6.2 1.3 6.2 2.2S15.9 7 12.2 7C8.4 7.1 6 5.8 6 4.9s2.4-2.3 6.2-2.3zM4.1 8.7c0 .2.1.4.2.5 0 0 0 .1.1.1.1.1.1.2.2.4l.1.1.3.3.1.1c.1.1.3.3.5.4l.1.1c0 .2.1.3.3.4.1 0 .1.1.2.1.2.1.3.2.5.2.1 0 .1.1.2.1.2.1.5.2.7.3h.1c.2.1.4.2.7.2h.1C5.2 11.9 3 10.7 3 9.8c0-.3.4-.7 1.1-1.1z"/></symbol><symbol id="icon-tip" viewBox="0 0 24 24"><path d="M10.5 18.7c-4.8 0-8.5-1.9-8.5-4.3v-3.6h2v3.6c0 .9 2.6 2.3 6.5 2.3s6.5-1.4 6.5-2.3v-2.6h2v2.6c0 2.5-3.6 4.3-8.5 4.3z"/><path d="M10.5 22.5c-4.8 0-8.5-1.9-8.5-4.3v-3.6h2v3.6c0 .9 2.6 2.3 6.5 2.3s6.5-1.4 6.5-2.3v-3.6h2v3.6c0 2.4-3.6 4.3-8.5 4.3zm3.1-8.9c-4.8 0-8.5-1.9-8.5-4.3V5.7h2v3.6c0 .9 2.6 2.3 6.5 2.3s6.5-1.4 6.5-2.3V5.7h2v3.6c0 2.4-3.7 4.3-8.5 4.3z"/><path d="M10.5 15.1c-4.8 0-8.5-1.9-8.5-4.3C2 9.3 3.4 8 5.8 7.2c.3-.1.6 0 .9.1.3.2.4.5.4.8v1.1c0 .9 2.6 2.3 6.5 2.3 1.3 0 2.5-.2 3.6-.5.4-.1.9.1 1.1.4.2.4.2.9-.1 1.2-1.4 1.6-4.3 2.5-7.7 2.5zM5.1 9.6c-.7.5-1.1.9-1.1 1.2 0 .9 2.2 2.1 5.7 2.3-2.6-.6-4.3-1.9-4.6-3.5z"/><path d="M13.6 10c-4.8 0-8.5-1.9-8.5-4.3s3.6-4.3 8.5-4.3c4.8 0 8.5 1.9 8.5 4.3S18.4 10 13.6 10zm0-6.7c-3.9 0-6.5 1.4-6.5 2.3S9.7 8 13.6 8s6.5-1.4 6.5-2.3-2.6-2.4-6.5-2.4z"/></symbol><symbol id="icon-transit" viewBox="0 0 24 24"><path fill-rule="evenodd" d="M17 19.364a.826.826 0 0 1-.833-.819c0-.451.373-.818.833-.818.46 0 .833.367.833.818a.826.826 0 0 1-.833.819zm-8.487-1.637a2.494 2.494 0 0 0-2.346-1.636 2.494 2.494 0 0 0-2.347 1.636h-.153V4.637h9.166V12H6.167a.826.826 0 0 0-.834.818c0 .452.373.818.834.818h12.988l1.178 1.157v2.934h-.986A2.494 2.494 0 0 0 17 16.091c-1.096 0-2.018.7-2.356 1.665-.048-.01-.092-.029-.144-.029H8.513zm-2.346 1.637a.826.826 0 0 1-.834-.819c0-.451.374-.818.834-.818.46 0 .833.367.833.818a.826.826 0 0 1-.833.819zM17.183 7.09l1.25 4.91H14.5V7.09h2.683zm2.164 12.273h1.82c.46 0 .833-.366.833-.819v-4.09a.807.807 0 0 0-.244-.579L20.253 12.4l-1.611-6.326a.832.832 0 0 0-.809-.62H14.5V3.819A.826.826 0 0 0 13.667 3H2.833A.826.826 0 0 0 2 3.818v14.727c0 .453.373.819.833.819h.987A2.494 2.494 0 0 0 6.167 21a2.494 2.494 0 0 0 2.346-1.636H14.5c.052 0 .096-.02.144-.029A2.493 2.493 0 0 0 17 21a2.494 2.494 0 0 0 2.347-1.636z"/></symbol><symbol id="icon-trash" viewBox="0 0 24 24"><g fill-rule="evenodd"><path fill-rule="nonzero" d="M7 5V4a3 3 0 0 1 3-3h4a3 3 0 0 1 3 3v1h4c1.333 0 1.333 2 0 2h-1v13a3 3 0 0 1-3 3H7a3 3 0 0 1-3-3V7H3C1.667 7 1.667 5 3 5h4zm2 0h6V4a1 1 0 0 0-1-1h-4a1 1 0 0 0-1 1v1zm9 2H6v13a1 1 0 0 0 1 1h10a1 1 0 0 0 1-1V7z"/><path d="M12.071 15.485l2.125 2.125c.381.382 1.02.387 1.41-.003a.995.995 0 0 0 .004-1.411l-2.125-2.125 2.125-2.125a1.004 1.004 0 0 0-.003-1.41.995.995 0 0 0-1.411-.004l-2.125 2.125-2.125-2.125a1.004 1.004 0 0 0-1.41.004.995.995 0 0 0-.004 1.41l2.125 2.125-2.125 2.125a1.004 1.004 0 0 0 .004 1.41.995.995 0 0 0 1.41.004l2.125-2.125z"/></g></symbol><symbol id="icon-tripadvisor" viewBox="0 0 24 24"><path d="M14.3 6.1c.6.1 1.1.2 1.7.4 1 .3 1.9.7 2.7 1.3.1 0 .1 0 .2.1h2.4c.4 0 .6.4.4.7-.2.4-.5.9-.5 1.2v.2c.9 1.3 1.2 2.8.7 4.4-.2.8-.7 1.6-1.3 2.2-1 1-2.3 1.5-3.6 1.5-.4 0-.8-.1-1.2-.2-1-.3-1.8-.7-2.5-1.5l-.3-.3c-.2.3-.4.7-.7 1-.2.3-.7.3-.9 0-.2-.3-.4-.6-.6-1-.8 1-1.9 1.6-3.2 1.8-.7.1-1.4.1-2.1-.1-1-.3-1.8-.8-2.5-1.6s-1.1-1.6-1.2-2.6c-.2-.9 0-1.8.1-2 .1-.6.4-1.1.8-1.7v-.2c-.1-.2-.3-.7-.6-1.2-.2-.3.1-.7.4-.7H5c.7-.5 1.5-.8 2.3-1.1.6-.2 1.2-.4 1.8-.5.6-.1 1.2-.2 1.8-.2 1.5-.2 2.6 0 3.4.1zM13 12.9c0 2.3 1.8 4.1 4.1 4.1s4.1-1.8 4.1-4.1c0-2.4-1.9-4.1-4.2-4.1-2.2.1-4 1.9-4 4.1zM6.9 8.8c-2.2 0-4.1 1.8-4.1 4.2 0 2.2 1.8 4 4.1 4 2.2 0 4.1-1.9 4.1-4.1 0-2.2-1.9-4.1-4.1-4.1zm.2-1c1.2.1 2.3.5 3.3 1.4.9.8 1.5 1.9 1.7 3.1.2-1.2.7-2.3 1.6-3.1.9-.8 2-1.3 3.2-1.4-1.5-.6-3-.9-4.6-1-1.8 0-3.6.3-5.2 1z"/><path d="M17.1 10.3c1.4 0 2.5 1.1 2.5 2.5s-1.1 2.5-2.4 2.5c-1.5.1-2.7-1.1-2.7-2.5.1-1.4 1.3-2.5 2.6-2.5zm1.7 2.6c0-.9-.7-1.7-1.6-1.7-.9 0-1.7.7-1.7 1.7 0 .9.7 1.7 1.7 1.7.8-.1 1.6-.8 1.6-1.7zm-12-2.6c1.4 0 2.5 1.1 2.5 2.5s-1.1 2.5-2.4 2.5c-1.5.1-2.7-1.1-2.7-2.5.1-1.4 1.3-2.5 2.6-2.5zm1.7 2.6c0-.9-.7-1.7-1.7-1.7-.9 0-1.6.8-1.6 1.7 0 .9.8 1.7 1.7 1.7.8-.1 1.6-.8 1.6-1.7z"/><path d="M17.1 12c.5 0 .8.4.8.8 0 .5-.4.8-.8.8-.5 0-.8-.4-.8-.8s.3-.8.8-.8zM6.8 12c.5 0 .9.4.9.8 0 .5-.4.9-.9.9s-.9-.4-.9-.9c.1-.4.4-.8.9-.8z"/></symbol><symbol id="icon-twitter" viewBox="0 0 24 24"><path d="M1.4 18.7c2.3.2 4.5-.4 6.3-1.8-.9 0-1.7-.3-2.5-.9-.7-.5-1.2-1.3-1.5-2.1h.9c.3 0 .6-.1.9-.1-1.3-.3-2.2-1-2.9-2.2-.3-.7-.5-1.6-.4-2.1l.9.3c.3.1.6.1 1 .2-2-1.6-2.4-3.6-1.3-5.9 2.4 2.8 5.4 4.3 9 4.6 0-.3-.1-.5-.1-.8-.1-1.4.4-2.5 1.4-3.4 1.1-1 2.4-1.3 3.9-1.1.8.2 1.6.6 2.2 1.2.1.1.2.1.3.1.8-.2 1.6-.5 2.3-.9.1 0 .2-.1.3-.1-.3 1-1 1.8-1.8 2.4.8-.1 1.6-.3 2.4-.6-.5.5-.9 1-1.4 1.5-.2.2-.4.4-.7.6-.1.1-.2.2-.2.3.1 1.3-.1 2.5-.5 3.7-.3 1-.7 2-1.2 2.9-.6 1-1.3 1.9-2.1 2.7-1.1 1.1-2.4 2-3.9 2.5-1.4.6-2.8.8-4.3.9-1 0-2.1 0-3.1-.2s-2-.5-2.9-1c-.3-.2-.6-.4-1-.7 0 .1 0 0 0 0z"/></symbol><symbol id="icon-upload" viewBox="0 0 24 24"><path d="M13 4.414V16a1 1 0 0 1-2 0V4.414L8.707 6.707a1 1 0 0 1-1.414-1.414l4-4a1 1 0 0 1 1.414 0l4 4a1 1 0 1 1-1.414 1.414L13 4.414zM2 17a1 1 0 0 1 2 0v3a1 1 0 0 0 1 1h14a1 1 0 0 0 1-1v-3a1 1 0 0 1 2 0v3a3 3 0 0 1-3 3H5a3 3 0 0 1-3-3v-3z"/></symbol><symbol id="icon-user" viewBox="0 0 24 24"><path d="M7.987 21.162A9.966 9.966 0 0 0 12 22a9.966 9.966 0 0 0 4.013-.838A1.007 1.007 0 0 1 16 21a4 4 0 1 0-8 0c0 .055-.004.11-.013.162zm-1.913-1.106a6.002 6.002 0 0 1 11.852 0A9.986 9.986 0 0 0 22 12c0-5.523-4.477-10-10-10S2 6.477 2 12a9.986 9.986 0 0 0 4.074 8.056zM12 24C5.373 24 0 18.627 0 12S5.373 0 12 0s12 5.373 12 12-5.373 12-12 12zm0-10a4 4 0 1 1 0-8 4 4 0 0 1 0 8zm0-2a2 2 0 1 0 0-4 2 2 0 0 0 0 4z"/></symbol><symbol id="icon-warning" viewBox="0 0 24 24"><path d="M9.432 3.346a3.002 3.002 0 0 1 5.136 0L23.046 17.5A3 3 0 0 1 20.47 22H3.519a3 3 0 0 1-2.557-4.514l8.47-14.14zm1.714 1.03L2.686 18.5A1 1 0 0 0 3.53 20h16.929a1 1 0 0 0 .863-1.486L12.855 4.379a1 1 0 0 0-1.709-.002zM11 9a1 1 0 0 1 2 0v4a1 1 0 0 1-2 0V9zm1 9a1 1 0 1 1 0-2 1 1 0 0 1 0 2z"/></symbol><symbol id="icon-xmas-small" viewBox="0 0 24 24"><path d="M12 2.7c.1 0 .1 0 .2.1l3.7 3.6c.1.2.1.5 0 .6l-1 1c-.2.1-.2.4 0 .6l3.7 3.7c.2.1.2.4 0 .6l-1.9 1.9c-.2.1-.2.4 0 .6l3.5 3.5c.2.2.2.7-.1.8-.7.3-1.9.8-3.7 1.2-2 .4-3.3.5-3.9.5h-.8c-.6 0-1.9-.1-3.9-.5-1.9-.4-3.1-.9-3.7-1.2-.3-.2-.4-.6-.1-.8l3.5-3.5c.2-.1.2-.4 0-.6l-1.9-1.9c-.2-.1-.2-.4 0-.6l3.7-3.7c.2-.1.2-.4 0-.6l-1-1c-.3-.1-.3-.4-.2-.6l3.7-3.6c.1 0 .1-.1.2-.1m0-2c-.6 0-1.2.2-1.6.7L6.7 5c-.4.5-.7 1.1-.7 1.7 0 .6.2 1.1.5 1.5L4 10.8c-.4.4-.7 1.1-.7 1.7 0 .6.3 1.3.7 1.7l.8.8-2.4 2.4c-.6.6-.8 1.4-.7 2.2.1.8.6 1.5 1.4 1.8.8.4 2.2.9 4.2 1.3 2.1.4 3.5.5 4.3.5h.8c.8 0 2.2-.1 4.3-.5 2-.4 3.4-.9 4.2-1.3.7-.4 1.2-1 1.4-1.8.1-.8-.1-1.6-.7-2.2L19.2 15l.8-.8c.4-.4.7-1.1.7-1.7 0-.6-.3-1.3-.7-1.7l-2.6-2.6c.3-.4.5-1 .5-1.5 0-.6-.3-1.3-.7-1.7l-3.7-3.6c-.3-.4-.9-.7-1.5-.7z"/></symbol><symbol id="icon-xmas" viewBox="0 0 24 24"><path d="M12 8.2c.1 0 .1 0 .2.1l3.1 2.6c.1.1.1.3 0 .4l-.8.7c-.1.1-.1.3 0 .4l3.2 2.6c.1.1.1.3 0 .4L16 16.6c-.1.1-.1.3 0 .4l3 2.5c.2.2.2.5-.1.6-.6.2-1.6.6-3.2.8-1.7.3-2.8.3-3.3.3h-.8c-.5 0-1.6 0-3.3-.3-1.6-.3-2.6-.6-3.2-.8-.3-.1-.3-.4-.1-.6L8 17c.1-.1.1-.3 0-.4l-1.6-1.3c-.1-.1-.1-.3 0-.4l3.2-2.6c.1-.1.1-.3 0-.4l-.8-.7c-.1-.1-.1-.3 0-.4l3.1-2.6h.1m0-2c-.5 0-1 .2-1.4.5L7.4 9.2c-.5.5-.8 1.1-.8 1.8 0 .3.1.6.2.9l-1.7 1.4c-.5.4-.8 1.1-.8 1.8s.3 1.3.8 1.8L3.7 18c-.6.5-1 1.3-.8 2.2.1.8.7 1.5 1.5 1.8.6.2 1.8.6 3.6.9 1.8.3 3 .4 3.7.4h.8c.7 0 1.9-.1 3.7-.4 1.7-.3 2.9-.7 3.6-.9.8-.3 1.3-1 1.5-1.8.1-.8-.2-1.6-.8-2.2l-1.4-1.1c.5-.4.8-1.1.8-1.8s-.3-1.3-.8-1.8l-1.7-1.4c.1-.3.2-.6.2-.9 0-.7-.3-1.3-.8-1.8l-3.1-2.6c-.7-.3-1.2-.4-1.7-.4z"/><path d="M12 2.8l.6 1.2 1.3.2-1 .9.2 1.3-1.1-.6-1.2.6.2-1.3-1-.9 1.4-.2.6-1.2m0-2c-.8 0-1.5.4-1.8 1.1l-.1.3h-.3c-.8.1-1.4.7-1.6 1.4-.2.7 0 1.5.5 2.1l.2.2-.1.2c-.1.8.2 1.5.8 2 .3.3.8.4 1.2.4.3 0 .6-.1.9-.2l.3-.2.3.1c.3.2.6.2.9.2.4 0 .8-.1 1.2-.4.6-.4.9-1.2.8-2l-.1-.3.2-.2c.5-.5.7-1.3.5-2.1-.2-.7-.9-1.3-1.6-1.4h-.3l-.1-.3c-.4-.5-1-.9-1.8-.9z"/><circle cx="11.1" cy="13.1" r="1.1"/><circle cx="13.3" cy="15.7" r="1.1"/><circle cx="9.6" cy="18.8" r="1.1"/><circle cx="15" cy="19.2" r="1.1"/></symbol><symbol id="icon-youtube" viewBox="0 0 24 24"><path d="M19 11.42H5.305c-2.177 0-3.942 1.803-3.942 4.025v3.233c0 2.22 1.765 4.023 3.942 4.023h13.697c2.177 0 3.942-1.802 3.942-4.023v-3.233c0-2.222-1.765-4.024-3.942-4.024zM8.183 13.939H6.908v6.456h-1.23v-6.456H4.406V12.84h3.776v1.098zm3.597 6.456h-1.092v-.61a2.343 2.343 0 0 1-.63.514 1.295 1.295 0 0 1-.634.178c-.253 0-.441-.082-.57-.25-.127-.166-.192-.413-.192-.746v-4.66h1.091v4.276a.49.49 0 0 0 .068.286c.047.06.122.088.225.088.079 0 .18-.038.304-.117.123-.079.236-.177.338-.3V14.82h1.092v5.574zm3.961-1.15c0 .393-.085.696-.257.907-.17.21-.419.315-.741.315-.215 0-.406-.04-.572-.122a1.408 1.408 0 0 1-.467-.377v.427H12.6V12.84h1.104v2.433a1.71 1.71 0 0 1 .468-.387c.166-.09.334-.132.504-.132.345 0 .608.117.79.355.183.237.275.585.275 1.041v3.093zm3.786-1.502h-2.088v1.05c0 .292.035.496.106.61.073.114.196.17.37.17.182 0 .307-.048.38-.145.07-.097.108-.308.108-.635v-.254h1.124v.286c0 .571-.136 1.002-.412 1.292-.272.288-.68.43-1.225.43-.49 0-.875-.151-1.155-.458-.28-.304-.422-.727-.422-1.264v-2.503c0-.482.155-.878.465-1.182.308-.304.705-.456 1.194-.456.5 0 .885.14 1.153.423.268.282.402.686.402 1.215v1.42zm-1.601-2.085c-.174 0-.298.05-.374.154-.077.098-.113.266-.113.5v.563h.964v-.563c0-.234-.038-.402-.115-.5-.073-.103-.196-.154-.362-.154zm-3.765-.018c.147 0 .26.048.34.144.078.098.115.24.115.429v2.878c0 .179-.032.305-.094.384-.063.08-.16.12-.295.12a.63.63 0 0 1-.264-.06.934.934 0 0 1-.258-.199v-3.472a.783.783 0 0 1 .225-.17.529.529 0 0 1 .231-.054zM7.098 9.485V6.188L5.45 1.162h1.393l.9 3.327h.086l.856-3.327h1.407L8.48 6.032v3.453H7.098zm4.868.155c-.537 0-.968-.155-1.29-.464-.323-.31-.485-.722-.485-1.245V4.75c0-.477.166-.855.496-1.136.33-.282.776-.423 1.335-.423.508 0 .925.15 1.25.445.324.297.487.682.487 1.149v3.172c0 .525-.16.935-.476 1.235-.32.3-.758.449-1.317.449zm-.51-4.938v3.345c0 .169.044.298.13.39.089.094.214.14.377.14a.547.547 0 0 0 .396-.141.51.51 0 0 0 .147-.388V4.702a.406.406 0 0 0-.15-.325.6.6 0 0 0-.393-.123c-.15 0-.272.04-.367.123a.422.422 0 0 0-.14.325zm4.158 4.873c-.285 0-.497-.093-.643-.277-.142-.182-.214-.455-.214-.821V3.345h1.227v4.708c0 .144.028.249.079.313.05.067.135.1.25.1.09 0 .204-.044.344-.13a1.71 1.71 0 0 0 .377-.33v-4.66h1.23v6.14h-1.23v-.68c-.224.25-.46.44-.707.572a1.52 1.52 0 0 1-.713.197z"/></symbol><symbol id="icon-zoom-in" viewBox="0 0 24 24"><path d="M21.7 20.3L18 16.6c1.2-1.5 2-3.5 2-5.6 0-5-4-9-9-9s-9 4-9 9 4 9 9 9c2.1 0 4.1-.7 5.6-2l3.7 3.7c.2.2.5.3.7.3.2 0 .5-.1.7-.3.4-.4.4-1 0-1.4zM12 10V7.997C12 7.453 11.552 7 11 7c-.556 0-1 .446-1 .997V10H7.997C7.453 10 7 10.448 7 11c0 .556.446 1 .997 1H10v2.003c0 .544.448.997 1 .997.556 0 1-.446 1-.997V12h2.003c.544 0 .997-.448.997-1 0-.556-.446-1-.997-1H12zm-1 8c-3.9 0-7-3.1-7-7s3.1-7 7-7 7 3.1 7 7-3.1 7-7 7z"/></symbol><symbol id="icon-zoom-out" viewBox="0 0 24 24"><path d="M21.7 20.3L18 16.6c1.2-1.5 2-3.5 2-5.6 0-5-4-9-9-9s-9 4-9 9 4 9 9 9c2.1 0 4.1-.7 5.6-2l3.7 3.7c.2.2.5.3.7.3.2 0 .5-.1.7-.3.4-.4.4-1 0-1.4zM11 18c-3.9 0-7-3.1-7-7s3.1-7 7-7 7 3.1 7 7-3.1 7-7 7zm3.003-8H7.997C7.453 10 7 10.448 7 11c0 .556.446 1 .997 1h6.006c.544 0 .997-.448.997-1 0-.556-.446-1-.997-1z"/></symbol></svg>