<?xml version="1.0" encoding="UTF-8"?><!DOCTYPE svg PUBLIC "-//W3C//DTD SVG 1.1//EN" "http://www.w3.org/Graphics/SVG/1.1/DTD/svg11.dtd"><svg xmlns="http://www.w3.org/2000/svg"><symbol id="icon-sg-add" viewBox="0 0 32 32"><path d="M25.313 17.313h-8v8h-2.625v-8h-8v-2.625h8v-8h2.625v8h8v2.625z"/></symbol><symbol id="icon-sg-caretdown" viewBox="0 0 18 32"><path d="M18.286 12.571q0 .464-.339.804l-8 8q-.339.339-.804.339t-.804-.339l-8-8Q0 13.036 0 12.571t.339-.804.804-.339h16q.464 0 .804.339t.339.804z"/></symbol><symbol id="icon-sg-caretleft" viewBox="0 0 11 32"><path d="M11.429 8v16q0 .464-.339.804t-.804.339-.804-.339l-8-8q-.339-.339-.339-.804t.339-.804l8-8q.339-.339.804-.339t.804.339.339.804z"/></symbol><symbol id="icon-sg-caretright" viewBox="0 0 11 32"><path d="M10.226 16q0 .458-.335.793l-7.896 7.896q-.335.335-.793.335t-.793-.335-.335-.793V8.104q0-.458.335-.793t.793-.335.793.335l7.896 7.896q.335.335.335.793z"/></symbol><symbol id="icon-sg-caretup" viewBox="0 0 18 32"><path d="M18.286 21.714q0 .464-.339.804t-.804.339h-16q-.464 0-.804-.339T0 21.714t.339-.804l8-8q.339-.339.804-.339t.804.339l8 8q.339.339.339.804z"/></symbol><symbol id="icon-sg-check" viewBox="0 0 32 32"><path d="M12 21.563L26.125 7.438 28 9.313l-16 16-7.438-7.438L6.437 16z"/></symbol><symbol id="icon-sg-chevrondown" viewBox="0 0 32 32"><path d="M9.875 10.438L16 16.563l6.125-6.125L24 12.313l-8 8-8-8z"/></symbol><symbol id="icon-sg-chevronleft" viewBox="0 0 32 32"><path d="M20.563 21.438l-1.875 1.875-8-8 8-8 1.875 1.875-6.125 6.125z"/></symbol><symbol id="icon-sg-chevronright" viewBox="0 0 32 32"><path d="M11.438 21.813l6.125-6.125-6.125-6.125 1.875-1.875 8 8-8 8z"/></symbol><symbol id="icon-sg-chevronup" viewBox="0 0 32 32"><path d="M9.875 20.563L8 18.688l8-8 8 8-1.875 1.875L16 14.438z"/></symbol><symbol id="icon-sg-close" viewBox="0 0 32 32"><path d="M25.313 8.563l-7.438 7.438 7.438 7.438-1.875 1.875L16 17.876l-7.438 7.438-1.875-1.875 7.438-7.438-7.438-7.438 1.875-1.875L16 14.126l7.438-7.438z"/></symbol><symbol id="icon-sg-code" viewBox="0 0 40 32"><path d="M26 23l3 3 10-10L29 6l-3 3 7 7zM14 9l-3-3L1 16l10 10 3-3-7-7zm7.916-4.296l2.171.592-6 22.001-2.171-.592 6-22.001z"/></symbol><symbol id="icon-sg-download" viewBox="0 0 32 32"><path d="M6.688 24h18.625v2.688H6.688V24zm18.625-12L16 21.313 6.687 12H12V4h8v8h5.313z"/></symbol><symbol id="icon-sg-edit" viewBox="0 0 32 32"><path d="M27.625 9.375l-2.438 2.438-5-5 2.438-2.438Q23 4 23.563 4t.938.375L27.626 7.5q.375.375.375.938t-.375.938zM4 23L18.75 8.25l5 5L9 28H4v-5z"/></symbol><symbol id="icon-sg-facebook" viewBox="0 0 18 32"><path d="M17.125.214v4.714h-2.804q-1.536 0-2.071.643T11.714 7.5v3.375h5.232l-.696 5.286h-4.536v13.554H6.25V16.161H1.696v-5.286H6.25V6.982q0-3.321 1.857-5.152T13.053 0q2.625 0 4.071.214z"/></symbol><symbol id="icon-sg-home" viewBox="0 0 32 32"><path d="M13.313 26.688H6.688V16h-4L16.001 4l13.313 12h-4v10.688h-6.625v-8h-5.375v8z"/></symbol><symbol id="icon-sg-settings" viewBox="0 0 32 32"><path d="M16 20.688q1.938 0 3.313-1.375T20.688 16t-1.375-3.313T16 11.312t-3.313 1.375T11.312 16t1.375 3.313T16 20.688zm9.938-3.375l2.813 2.188q.438.313.125.875l-2.688 4.625q-.25.438-.813.25l-3.313-1.313q-1.313.938-2.25 1.313l-.5 3.5q-.125.563-.625.563h-5.375q-.5 0-.625-.563l-.5-3.5q-1.188-.5-2.25-1.313l-3.313 1.313q-.563.188-.813-.25l-2.688-4.625q-.313-.563.125-.875l2.813-2.188q-.063-.438-.063-1.313t.063-1.313l-2.813-2.188q-.438-.313-.125-.875l2.688-4.625q.25-.438.813-.25l3.313 1.313q1.313-.938 2.25-1.313l.5-3.5q.125-.563.625-.563h5.375q.5 0 .625.563l.5 3.5q1.188.5 2.25 1.313l3.313-1.313q.563-.188.813.25l2.688 4.625q.313.563-.125.875l-2.813 2.188q.063.438.063 1.313t-.063 1.313z"/></symbol></svg>