<svg id="Layer_1" xmlns="http://www.w3.org/2000/svg" viewBox="0 0 589.1 286.6"><style>.st0{fill:#fff}.st1{fill:#0ff}.st2{fill:#f0f}</style><title>Asset 6</title><g id="Layer_1-2"><path class="st0" d="M20.2 31.1c-8.2 0-8.2 12.8 0 12.8s8.2-12.8 0-12.8zm1.7 127.6c-8.2 0-8.2 12.8 0 12.8s8.2-12.8 0-12.8zm80.8-120c-8.2 0-8.2 12.8 0 12.8s8.2-12.8 0-12.8zm3.4 117.4c-8.2 0-8.2 12.8 0 12.8s8.2-12.8 0-12.8zm26.4 0c-8.2 0-8.2 12.8 0 12.8s8.2-12.8 0-12.8zm90.2-118.2c-8.2 0-8.2 12.8 0 12.8s8.2-12.8 0-12.8zm34-.9c-8.2 0-8.2 12.8 0 12.8s8.2-12.8 0-12.8zm6 120.8c-8.2 0-8.2 12.8 0 12.8s8.2-12.8 0-12.8zm28-120.8c-8.2 0-8.2 12.8 0 12.8s8.3-12.8 0-12.8zm5.2 122.6c-8.2 0-8.2 12.8 0 12.8s8.2-12.8 0-12.8zm79.9-5.2c-8.2 0-8.2 12.8 0 12.8s8.3-12.8 0-12.8zM306.1.4c-8.2 0-8.2 12.8 0 12.8s8.2-12.8 0-12.8zM409 158.7c-8.2 0-8.2 12.8 0 12.8s8.2-12.8 0-12.8zm83.4-120.8c-8.2 0-8.2 12.8 0 12.8s8.2-12.8 0-12.8zM26.1 107.2c-5.5 0-5.5 8.5 0 8.5s5.5-8.5 0-8.5zM55 94.4c-5.5 0-5.5 8.5 0 8.5s5.5-8.5 0-8.5zm86-51.9c-5.5 0-5.5 8.5 0 8.5s5.5-8.5 0-8.5zm76.6 113.2c-5.5 0-5.5 8.5 0 8.5s5.5-8.5 0-8.5zm44.2-54.4c-5.5 0-5.5 8.5 0 8.5s5.5-8.5 0-8.5zm111.5-60.5c-5.5 0-5.5 8.5 0 8.5s5.5-8.5 0-8.5zm-43.4 57c-5.5 0-5.5 8.5 0 8.5s5.5-8.5 0-8.5zm5.1-77.4c-5.5 0-5.5 8.5 0 8.5s5.5-8.5 0-8.5zM361.4 0c-5.5 0-5.5 8.5 0 8.5s5.5-8.5 0-8.5zm49.3 40.8c-5.5 0-5.5 8.5 0 8.5s5.5-8.5 0-8.5zm79.2 118.3c-5.5 0-5.5 8.5 0 8.5s5.4-8.5 0-8.5z"/><path transform="rotate(-84.56 23.978 137.85)" class="st0" d="M-2.9 136.6H51v2.6H-2.9z"/><path transform="rotate(-24.453 40.552 104.669)" class="st0" d="M25.1 103.4h30.8v2.6H25.1z"/><path transform="rotate(-88.23 331.582 43.394) scale(.99998)" class="st0" d="M330.3 2.1h2.5v82.6h-2.5z"/><path transform="rotate(-5.25 23.132 74.033)" class="st0" d="M21.9 36.9h2.5v74.3h-2.5z"/><path transform="rotate(-48.361 78.448 71.494)" class="st0" d="M42.6 70.2h71.7v2.6H42.6z"/><path transform="rotate(-38.659 80.146 130.188)" class="st0" d="M78.9 89.3h2.6V171h-2.6z"/><path transform="rotate(-85.86 136.291 105.077) scale(1.00001)" class="st0" d="M77.4 103.8h117.7v2.6H77.4z"/><path transform="rotate(-34.006 179.124 103.226)" class="st0" d="M177.8 34.8h2.6v136.8h-2.6z"/><path transform="matrix(.05181 -.9987 .9987 .05181 106.734 316.657)" class="st0" d="M162.6 100.8h115v2.6h-115z"/><path transform="rotate(-4.656 258.8 73.647)" class="st0" d="M257.6 42h2.5v63.2h-2.5z"/><path transform="rotate(-1.641 262.247 134.85) scale(1.00001)" class="st0" d="M261 105h2.5v59.6H261z"/><path transform="rotate(-52.714 351.145 73.202)" class="st0" d="M315.3 71.9h71.6v2.6h-71.6z"/><path transform="rotate(-61.92 312.426 133.575)" class="st0" d="M276.3 132.3h72.3v2.6h-72.3z"/><path transform="rotate(-3.66 335.435 162.94) scale(1.00004)" class="st0" d="M295.3 161.7h80.1v2.6h-80.1z"/><path transform="rotate(-58.298 320.095 15.309)" class="st0" d="M318.8-1.7h2.5v34h-2.5z"/><path transform="rotate(-37.74 347.73 14.032)" class="st0" d="M331.1 12.8h33.4v2.6h-33.4z"/><path transform="rotate(-89.2 409.433 105.087)" class="st0" d="M349 103.8h120.8v2.6H349z"/><path transform="rotate(-33.792 449.808 103.773)" class="st0" d="M448.6 32.6h2.5v142.3h-2.5z"/><path transform="rotate(-88.77 490.694 103.387) scale(1.00003)" class="st0" d="M431.1 102.1h119.2v2.6H431.1z"/><path class="st0" d="M543.1 157.9c-8.5 0-8.5 13.2 0 13.2s8.5-13.2 0-13.2zm3.5-121.1c-8.5 0-8.5 13.2 0 13.2s8.5-13.2 0-13.2zm2.7-24.6c-8.5 0-8.5 13.2 0 13.2s8.5-13.2 0-13.2zM568.6.3c-5.7 0-5.7 8.8 0 8.8s5.7-8.8 0-8.8z"/><path transform="rotate(-88.55 544.684 104.59) scale(1.00002)" class="st0" d="M483 103.3h123.4v2.6H483z"/><path transform="rotate(-36.021 558.477 11.297)" class="st0" d="M546.6 10h23.9v2.6h-23.9z"/><path class="st1" d="M42.6 200.9c24.5 0 42.6 16.5 42.6 40.7s-18.1 40.9-42.6 40.9S0 266 0 241.6s18.1-40.7 42.6-40.7zm0 70c14.6 0 25.4-11.8 25.4-29.3s-10.9-29.1-25.4-29.1-25.4 11.6-25.4 29.1 10.7 29.3 25.4 29.3zm62-68.3h35.2c24.4 0 42 15.7 42 39s-17.6 39.1-42 39.1h-35.2v-78.1zm34.6 66c14.9 0 25.4-10.4 25.4-27.1s-10.6-26.9-25.4-26.9h-18.1v54h18.1zm79.1-16.2l-32.5-49.7h18.8l14.7 23.4 7.5 14.6 7.5-14.6 14.7-23.4h18.4l-32.6 49.7v28.4h-16.5v-28.4zm62.8 12.9c8.9 3.5 18.8 5.7 25.9 5.7 8.3 0 17.5-3.2 17.5-12.2 0-6.8-7.8-8.8-16.4-11.2-13-3.4-30.5-7.6-30.5-24.6 0-13.4 11.9-22.2 31.1-22.2 9.5 0 18.9 1.7 27.7 5l-2.6 11.3c-8.4-3.1-17.8-5-24.7-5-7.7 0-15.3 2.6-15.3 10.1 0 6 6.3 8.5 13.8 10.6 13.5 3.4 33.1 7.2 33.1 24.7s-16.7 24.9-34.8 24.9c-9.3-.2-18.6-2-27.3-5.4l2.5-11.7zm80.1-62.7h60.4l-.9 12.1h-42.9v21.5l36-1v12l-36-1v22.5h45l-.9 12.1h-60.6v-78.2zm102.5 0H483l32.6 78.1h-18.4l-7-19.3h-34.5l-7 19.3h-17.6l32.6-78.1zm-3.7 47.3h26l-3.8-10.4-9.2-25.3-9 25.3-4 10.4z"/><path class="st2" d="M582.4 283.9l-52.6-2.2-3.1-14.4 15.4-12.2 14.3-12.5 9-13.1-1.5-10.9-10.6-5.7-9.9 2.4v14.1l-14.5 2.4-2.8-27 26.8-9.2 22.7 10 7.3 19.4-8 18.5-.1.1-14.9 16.7-10.5 7.9 36.6-1.5-3.6 17.2zm-51-4.1l49.4 2 2.7-13-40.4 1.7 15.5-11.7 14.6-16.3 7.5-17.4-6.7-17.9-21.2-9.3-24.5 8.4 2.4 23.3 10.8-1.8v-14l12.2-2.9 12.2 6.6 1.7 12.7-9.7 14-14.4 12.7-14.5 11.4 2.4 11.5z"/><path class="st2" d="M530.6 226.2c-4.8 0-4.8 7.4 0 7.4s4.7-7.4 0-7.4zm12-2c-4.8 0-4.8 7.4 0 7.4s4.7-7.4 0-7.4zm-16-22c-4.8 0-4.8 7.4 0 7.4s4.7-7.4 0-7.4zm26-9c-4.8 0-4.8 7.4 0 7.4s4.7-7.4 0-7.4zm22 10c-4.8 0-4.8 7.4 0 7.4s4.7-7.4 0-7.4zm7 19c-4.8 0-4.8 7.4 0 7.4s4.7-7.4 0-7.4zm-39-11c-4.8 0-4.8 7.4 0 7.4s4.7-7.4 0-7.4zm11-3c-4.8 0-4.8 7.4 0 7.4s4.7-7.4 0-7.4zm11 6c-4.8 0-4.8 7.4 0 7.4s4.7-7.4 0-7.4zm2 12c-4.8 0-4.8 7.4 0 7.4s4.7-7.4 0-7.4zm-9 14c-4.8 0-4.8 7.4 0 7.4s4.7-7.4 0-7.4zm-30 23c-4.8 0-4.8 7.4 0 7.4s4.7-7.4 0-7.4zm4 13c-4.8 0-4.8 7.4 0 7.4s4.7-7.4 0-7.4zm51 3c-4.8 0-4.8 7.4 0 7.4s4.7-7.4 0-7.4zm3-16c-4.8 0-4.8 7.4 0 7.4s4.7-7.4 0-7.4zm-40 3c-4.8 0-4.8 7.4 0 7.4s4.7-7.4 0-7.4z"/></g></svg>