<svg id="Layer_1" xmlns="http://www.w3.org/2000/svg" viewBox="0 0 589.1 270.8"><style>.st0{fill:#fff}.st1{fill:#0ff}.st2{fill:#f0f}</style><title>Asset 5</title><g id="Layer_1-2"><path class="st0" d="M12.7 29.2c-7.7 0-7.8 12 0 12s7.7-12 0-12zm1.6 120.2c-7.7 0-7.7 12 0 12s7.7-12 0-12zM90.4 36.5c-7.7 0-7.8 12 0 12s7.7-12 0-12zM93.6 147c-7.7 0-7.7 12 0 12s7.7-12 0-12zm24.8 0c-7.7 0-7.7 12 0 12s7.8-12 0-12zm84.9-111.4c-7.7 0-7.8 12 0 12s7.8-12 0-12zm32.1-.8c-7.7 0-7.8 12 0 12s7.7-12 0-12zm5.6 113.8c-7.7 0-7.8 12 0 12s7.7-12 0-12zm26.4-113.8c-7.7 0-7.8 12 0 12s7.7-12 0-12zm4.8 115.4c-7.7 0-7.7 12 0 12s7.8-12 0-12zm75.3-4.8c-7.7 0-7.8 12 0 12s7.7-12 0-12zM281.8.4c-7.7 0-7.8 12 0 12s7.8-12 0-12zm96.9 149c-7.7 0-7.8 12 0 12s7.8-12 0-12zm78.5-113.8c-7.7 0-7.8 12 0 12s7.8-12 0-12zm31.3 110.6c-7.7 0-7.8 12 0 12s7.7-12 0-12zm45.6-110.6c-7.7 0-7.7 12 0 12s7.8-12 0-12zm-32 68.9c-7.7 0-7.7 12 0 12s7.7-12 0-12zm34.4-91.3c-7.7 0-7.8 12 0 12s7.8-12 0-12zM18.3 100.9c-5.2 0-5.2 8 0 8s5.2-8 0-8zm27.2-12c-5.2 0-5.2 8 0 8s5.2-8 0-8zM126.4 40c-5.2 0-5.2 8 0 8s5.2-8 0-8zm72.1 106.6c-5.1 0-5.2 8 0 8s5.2-8 0-8zm41.7-51.3c-5.1 0-5.2 8 0 8s5.1-8 0-8zm104.9-56.8c-5.2 0-5.2 8 0 8s5.2-8 0-8zm-40.9 53.6c-5.1 0-5.2 8 0 8s5.2-8 0-8zm4.8-72.9c-5.1 0-5.2 8 0 8s5.2-8 0-8zM333.9 0c-5.1 0-5.2 8 0 8s5.1-8 0-8zm46.4 38.5c-5.1 0-5.2 8 0 8s5.2-8 0-8zm74.5 111.3c-5.1 0-5.2 8 0 8s5.2-8 0-8zm110.6-41.7c-5.2 0-5.2 8 0 8s5.1-8 0-8zm16.8 45.7c-5.2 0-5.2 8 0 8s5.2-8 0-8zm-28-151.4c-5.2 0-5.2 8 0 8s5.1-8 0-8z"/><path transform="rotate(-84.56 16.28 129.77)" class="st0" d="M-9.1 128.6h50.7v2.4H-9.1z"/><path transform="rotate(-24.453 31.891 98.532)" class="st0" d="M17.4 97.3h29v2.4h-29z"/><path transform="rotate(-88.23 305.834 40.857) scale(.99998)" class="st0" d="M304.6 2h2.4v77.7h-2.4z"/><path transform="rotate(-5.25 15.472 69.692)" class="st0" d="M14.3 34.7h2.4v70h-2.4z"/><path transform="rotate(-48.361 67.547 67.295)" class="st0" d="M33.8 66.1h67.5v2.4H33.8z"/><path transform="rotate(-38.659 69.148 122.55)" class="st0" d="M67.9 84.1h2.4V161h-2.4z"/><path transform="rotate(-85.86 122 98.915) scale(1.00001)" class="st0" d="M66.6 97.7h110.8v2.4H66.6z"/><path transform="rotate(-34.089 162.057 96.913)" class="st0" d="M160.9 32.6h2.4v128.6h-2.4z"/><path transform="matrix(.05181 -.9987 .9987 .05181 94.51 291.8)" class="st0" d="M146.8 94.9h108.3v2.4H146.8z"/><path transform="rotate(-4.656 237.333 69.323)" class="st0" d="M236.2 39.5h2.4V99h-2.4z"/><path transform="rotate(-1.641 240.564 126.944) scale(1.00001)" class="st0" d="M239.4 98.9h2.4V155h-2.4z"/><path transform="rotate(-52.714 324.254 68.894)" class="st0" d="M290.5 67.7H358v2.4h-67.5z"/><path transform="rotate(-61.92 287.815 125.739)" class="st0" d="M253.8 124.5h68.1v2.4h-68.1z"/><path transform="rotate(-3.66 309.467 153.381) scale(1.00004)" class="st0" d="M271.7 152.2h75.4v2.4h-75.4z"/><path transform="rotate(-58.057 296.332 14.717)" class="st0" d="M295.1-1.3h2.4v32.1h-2.4z"/><path transform="rotate(-37.74 321.056 13.215)" class="st0" d="M305.4 12h31.4v2.4h-31.4z"/><path transform="rotate(-89.2 379.125 98.923)" class="st0" d="M322.2 97.7H436v2.4H322.2z"/><path transform="rotate(-33.792 417.127 97.686)" class="st0" d="M416 30.7h2.4v134H416z"/><path transform="rotate(-88.77 455.628 97.319) scale(1.00003)" class="st0" d="M399.5 96.1h112.2v2.4H399.5z"/><path transform="rotate(-73.19 496.05 130.125)" class="st0" d="M473.8 128.9h44.5v2.4h-44.5z"/><path transform="rotate(-65.052 517.715 75.71)" class="st0" d="M479.7 74.5h76v2.4h-76z"/><path transform="rotate(-23.897 549.42 76.509)" class="st0" d="M548.2 38h2.4v77.1h-2.4z"/><path transform="rotate(-20.215 573.443 134.597)" class="st0" d="M572.2 110.3h2.4V159h-2.4z"/><path transform="rotate(-88.55 533.33 110.938) scale(1.00002)" class="st0" d="M532.1 79.3h2.4v63.3h-2.4z"/><path transform="rotate(-36.021 544.905 12.403)" class="st0" d="M534 11.2h21.8v2.4H534z"/><path class="st1" d="M42.6 185.1c24.5 0 42.6 16.5 42.6 40.7s-18.1 40.9-42.6 40.9S0 250.3 0 225.9s18.1-40.8 42.6-40.8zm0 70c14.6 0 25.4-11.8 25.4-29.3s-10.9-29.1-25.4-29.1-25.4 11.6-25.4 29.1 10.7 29.3 25.4 29.3zm62-68.2h35.2c24.4 0 42 15.7 42 39s-17.6 39.1-42 39.1h-35.2v-78.1zm34.6 66c14.9 0 25.4-10.4 25.4-27.1S154.1 199 139.2 199h-18.1v54l18.1-.1zm79.1-16.3l-32.5-49.7h18.8l14.7 23.4 7.5 14.6 7.5-14.6 14.7-23.4h18.4l-32.6 49.7V265h-16.5v-28.4zm62.8 13c8.9 3.5 18.8 5.7 25.9 5.7 8.3 0 17.5-3.2 17.5-12.2 0-6.8-7.8-8.8-16.4-11.2-13-3.4-30.5-7.6-30.5-24.6 0-13.4 11.9-22.2 31.1-22.2 9.5 0 18.9 1.7 27.7 5l-2.6 11.3c-8.4-3.1-17.8-5-24.7-5-7.7 0-15.3 2.6-15.3 10.1 0 6 6.3 8.5 13.8 10.6 13.5 3.4 33.1 7.2 33.1 24.7s-16.7 24.9-34.8 24.9c-9.3-.2-18.6-2-27.3-5.4l2.5-11.7zm80.1-62.7h60.4l-.9 12.1h-42.9v21.5l36-1v12.1l-36-1V253h45l-.9 12h-60.6v-78.1zm102.5 0H483l32.6 78.1h-18.4l-7-19.3h-34.5l-7 19.3h-17.6l32.6-78.1zm-3.7 47.2h26l-3.8-10.4-9.2-25.3-9 25.3-4 10.4z"/><path class="st2" d="M582.4 268.2l-52.6-2.2-3.1-14.4 15.4-12.2 14.3-12.5 9-13.1-1.5-10.9-10.6-5.7-9.9 2.4v14.1l-14.5 2.4-2.8-27 26.8-9.2 22.7 10 7.3 19.4-8 18.5-.1.1-14.9 16.7-10.5 7.9L586 251l-3.6 17.2zm-51-4.2l49.4 2.1 2.7-13-40.4 1.7 15.5-11.7 14.6-16.3 7.5-17.4-6.7-17.9-21.2-9.3-24.5 8.4 2.4 23.3 10.8-1.8v-14l12.2-2.9 12.2 6.6 1.7 12.7-9.7 14-14.5 12.5-14.5 11.4 2.5 11.6z"/><path class="st2" d="M530.6 210.4c-4.8 0-4.8 7.4 0 7.4s4.7-7.4 0-7.4zm12-2c-4.8 0-4.8 7.4 0 7.4s4.7-7.4 0-7.4zm-16-22c-4.8 0-4.8 7.4 0 7.4s4.7-7.4 0-7.4zm26-9c-4.8 0-4.8 7.4 0 7.4s4.7-7.4 0-7.4zm22 10c-4.8 0-4.8 7.4 0 7.4s4.7-7.4 0-7.4zm7 19c-4.8 0-4.8 7.4 0 7.4s4.7-7.4 0-7.4zm-39-11c-4.8 0-4.8 7.4 0 7.4s4.7-7.4 0-7.4zm11-3c-4.8 0-4.8 7.4 0 7.4s4.7-7.4 0-7.4zm11 6c-4.8 0-4.8 7.4 0 7.4s4.7-7.4 0-7.4zm2 12c-4.8 0-4.8 7.4 0 7.4s4.7-7.4 0-7.4zm-9 14c-4.8 0-4.8 7.4 0 7.4s4.7-7.4 0-7.4zm-30 23c-4.8 0-4.8 7.4 0 7.4s4.7-7.4 0-7.4zm4 13c-4.8 0-4.8 7.4 0 7.4s4.7-7.4 0-7.4zm51 3c-4.8 0-4.8 7.4 0 7.4s4.7-7.4 0-7.4zm3-16c-4.8 0-4.8 7.4 0 7.4s4.7-7.4 0-7.4zm-40 3c-4.8 0-4.8 7.4 0 7.4s4.7-7.4 0-7.4z"/></g></svg>