<svg xmlns="http://www.w3.org/2000/svg" viewBox="0 0 646.68 69.74"><defs><style>.cls-1{fill:#fff}.cls-2{fill:#0ff}.cls-3{fill:#f0f}</style></defs><title>Asset 7</title><g id="Layer_2" data-name="Layer 2"><g id="Layer_1-2" data-name="Layer 1"><path class="cls-1" d="M3.33 12.72c-3.1 0-3.11 4.81 0 4.81s3.1-4.81 0-4.81z"/><path class="cls-1" d="M3.33 18.53A3.26 3.26 0 0 1 0 15.13a3.26 3.26 0 0 1 3.33-3.41 3.23 3.23 0 0 1 2.5 1.1 3.54 3.54 0 0 1 .82 2.3 3.26 3.26 0 0 1-3.32 3.41zm0-4.81A1.32 1.32 0 0 0 2 15.13a1.33 1.33 0 1 0 2.65 0 1.53 1.53 0 0 0-.34-1 1.22 1.22 0 0 0-.98-.41zM4 60.88c-3.1 0-3.11 4.81 0 4.81s3.07-4.81 0-4.81z"/><path class="cls-1" d="M4 66.69a3.22 3.22 0 0 1-2.5-1.1 3.45 3.45 0 0 1-.83-2.3A3.27 3.27 0 0 1 4 59.88a3.41 3.41 0 0 1 0 6.81zm0-4.81a1.32 1.32 0 0 0-1.33 1.41 1.59 1.59 0 0 0 .34 1 1.23 1.23 0 0 0 1 .4 1.41 1.41 0 0 0 0-2.81zm30.47-46.27c-3.1 0-3.1 4.81 0 4.81s3.1-4.81 0-4.81z"/><path class="cls-1" d="M34.47 21.42A3.26 3.26 0 0 1 31.14 18a3.27 3.27 0 0 1 3.33-3.41 3.23 3.23 0 0 1 2.5 1.1 3.54 3.54 0 0 1 .82 2.3 3.26 3.26 0 0 1-3.32 3.43zm0-4.81A1.41 1.41 0 1 0 35.79 18a1.32 1.32 0 0 0-1.32-1.39zm1.28 43.3c-3.1 0-3.1 4.82 0 4.82s3.11-4.82 0-4.82z"/><path class="cls-1" d="M35.75 65.73A3.41 3.41 0 1 1 38.26 60a3.5 3.5 0 0 1 .82 2.3 3.26 3.26 0 0 1-3.33 3.43zm0-4.82a1.41 1.41 0 1 0 1.33 1.41 1.32 1.32 0 0 0-1.33-1.41zm9.96-1c-3.1 0-3.11 4.82 0 4.82s3.1-4.82 0-4.82z"/><path class="cls-1" d="M45.71 65.73A3.41 3.41 0 1 1 49 62.32a3.26 3.26 0 0 1-3.29 3.41zm0-4.82a1.41 1.41 0 0 0 0 2.82 1.41 1.41 0 0 0 0-2.82zm34.03-45.62c-3.1 0-3.11 4.81 0 4.81s3.1-4.81 0-4.81z"/><path class="cls-1" d="M79.74 21.1a3.26 3.26 0 0 1-3.33-3.4 3.33 3.33 0 1 1 6.65 0 3.26 3.26 0 0 1-3.32 3.4zm0-4.81a1.41 1.41 0 1 0 1.32 1.4 1.32 1.32 0 0 0-1.32-1.4zM92.58 15c-3.1 0-3.1 4.81 0 4.81s3.1-4.81 0-4.81z"/><path class="cls-1" d="M92.58 20.78a3.26 3.26 0 0 1-3.33-3.4 3.33 3.33 0 1 1 6.66 0 3.27 3.27 0 0 1-3.33 3.4zm0-4.81a1.41 1.41 0 1 0 1.33 1.4A1.32 1.32 0 0 0 92.58 16zm2.25 44.59c-3.1 0-3.11 4.81 0 4.81s3.1-4.81 0-4.81z"/><path class="cls-1" d="M94.83 66.37A3.41 3.41 0 1 1 98.15 63a3.26 3.26 0 0 1-3.32 3.37zm0-4.81A1.41 1.41 0 1 0 96.15 63a1.32 1.32 0 0 0-1.32-1.44zM105.42 15c-3.1 0-3.1 4.81 0 4.81s3.11-4.81 0-4.81z"/><path class="cls-1" d="M105.42 20.78a3.26 3.26 0 0 1-3.32-3.4 3.35 3.35 0 0 1 5.83-2.31 3.5 3.5 0 0 1 .82 2.3 3.26 3.26 0 0 1-3.33 3.41zm0-4.81a1.31 1.31 0 0 0-1.32 1.41 1.33 1.33 0 1 0 2.65 0 1.59 1.59 0 0 0-.34-1 1.23 1.23 0 0 0-.99-.38zm1.93 45.23c-3.1 0-3.1 4.81 0 4.81s3.1-4.81 0-4.81z"/><path class="cls-1" d="M107.35 67a3.22 3.22 0 0 1-2.5-1.1 3.51 3.51 0 0 1-.83-2.3 3.33 3.33 0 1 1 3.33 3.4zm0-4.81a1.32 1.32 0 0 0-1.35 1.42 1.59 1.59 0 0 0 .34 1 1.23 1.23 0 0 0 1 .4 1.41 1.41 0 0 0 0-2.81zm30.18-2.92c-3.1 0-3.11 4.82 0 4.82s3.1-4.82 0-4.82z"/><path class="cls-1" d="M137.53 65.09a3.41 3.41 0 1 1 3.33-3.41 3.27 3.27 0 0 1-3.33 3.41zm0-4.82a1.41 1.41 0 1 0 1.33 1.41 1.33 1.33 0 0 0-1.33-1.41zM111.2 1.16c-3.1 0-3.1 4.82 0 4.82s3.11-4.82 0-4.82z"/><path class="cls-1" d="M111.2 7a3.23 3.23 0 0 1-2.5-1.1 3.54 3.54 0 0 1-.82-2.31 3.33 3.33 0 1 1 6.65 0A3.27 3.27 0 0 1 111.2 7zm0-4.82a1.32 1.32 0 0 0-1.32 1.41 1.51 1.51 0 0 0 .34 1 1.22 1.22 0 0 0 1 .41 1.33 1.33 0 0 0 1.33-1.41 1.32 1.32 0 0 0-1.35-1.43zm38.85 58.7c-3.1 0-3.1 4.81 0 4.81s3.1-4.81 0-4.81z"/><path class="cls-1" d="M150.05 66.69a3.41 3.41 0 0 1 0-6.81 3.23 3.23 0 0 1 2.5 1.1 3.52 3.52 0 0 1 .83 2.3 3.27 3.27 0 0 1-3.33 3.41zm0-4.81a1.41 1.41 0 1 0 1.33 1.4 1.59 1.59 0 0 0-.34-1 1.24 1.24 0 0 0-.99-.4zm31.46-46.59c-3.09 0-3.1 4.81 0 4.81s3.11-4.81 0-4.81z"/><path class="cls-1" d="M181.51 21.1a3.26 3.26 0 0 1-3.32-3.4 3.35 3.35 0 0 1 5.81-2.31 3.5 3.5 0 0 1 .82 2.3 3.26 3.26 0 0 1-3.31 3.41zm0-4.81a1.31 1.31 0 0 0-1.32 1.41 1.33 1.33 0 1 0 2.65 0 1.53 1.53 0 0 0-.34-1 1.23 1.23 0 0 0-.99-.41zM194 59.59c-3.1 0-3.11 4.82 0 4.82s3.14-4.82 0-4.82z"/><path class="cls-1" d="M194 65.41a3.41 3.41 0 1 1 3.36-3.41 3.27 3.27 0 0 1-3.36 3.41zm0-4.82a1.41 1.41 0 1 0 1.36 1.41 1.33 1.33 0 0 0-1.36-1.41zm18.34-45.3c-3.1 0-3.11 4.81 0 4.81s3.1-4.81 0-4.81z"/><path class="cls-1" d="M212.33 21.1a3.26 3.26 0 0 1-3.33-3.4 3.35 3.35 0 0 1 5.83-2.31 3.5 3.5 0 0 1 .82 2.3 3.26 3.26 0 0 1-3.32 3.41zm0-4.81a1.41 1.41 0 1 0 1.33 1.4 1.32 1.32 0 0 0-1.33-1.4zM199.49 42.9c-3.1 0-3.1 4.81 0 4.81s3.11-4.81 0-4.81z"/><path class="cls-1" d="M199.49 48.71a3.23 3.23 0 0 1-2.5-1.1 3.5 3.5 0 0 1-.82-2.3 3.33 3.33 0 1 1 3.32 3.4zm0-4.81a1.31 1.31 0 0 0-1.32 1.41 1.53 1.53 0 0 0 .34 1 1.22 1.22 0 0 0 1 .4 1.41 1.41 0 0 0 0-2.81zM213.3 6.3c-3.1 0-3.11 4.81 0 4.81s3.1-4.81 0-4.81z"/><path class="cls-1" d="M213.3 12.11a3.22 3.22 0 0 1-2.5-1.1 3.45 3.45 0 0 1-.83-2.3 3.33 3.33 0 1 1 6.65 0 3.26 3.26 0 0 1-3.32 3.4zm0-4.81a1.32 1.32 0 0 0-1.3 1.41 1.59 1.59 0 0 0 .34 1 1.23 1.23 0 0 0 1 .4 1.31 1.31 0 0 0 1.32-1.41 1.31 1.31 0 0 0-1.36-1.4zM5.57 41.45a1.61 1.61 0 0 0 0 3.21 1.61 1.61 0 0 0 0-3.21z"/><path class="cls-1" d="M5.57 45.66A2.52 2.52 0 0 1 3 43.06a2.75 2.75 0 0 1 .63-1.76 2.52 2.52 0 0 1 1.92-.85 2.61 2.61 0 0 1 0 5.21zm0-3.21a.61.61 0 1 0 .55.61.69.69 0 0 0-.12-.45.48.48 0 0 0-.43-.16zm10.92-5.81a1.61 1.61 0 0 0 0 3.21 1.61 1.61 0 0 0 0-3.21z"/><path class="cls-1" d="M16.49 40.85a2.52 2.52 0 0 1-2.55-2.61 2.65 2.65 0 0 1 .63-1.75 2.47 2.47 0 0 1 1.92-.85 2.61 2.61 0 0 1 0 5.21zm0-3.21a.61.61 0 1 0 .55.6.68.68 0 0 0-.15-.45.47.47 0 0 0-.4-.15zm32.43-20.59a1.61 1.61 0 0 0 0 3.21 1.61 1.61 0 0 0 0-3.21z"/><path class="cls-1" d="M48.92 21.26a2.52 2.52 0 0 1-2.55-2.6A2.69 2.69 0 0 1 47 16.9a2.47 2.47 0 0 1 1.92-.85 2.61 2.61 0 0 1 0 5.21zm0-3.21a.61.61 0 1 0 .55.61.69.69 0 0 0-.15-.45.47.47 0 0 0-.4-.16zm28.89 41.7a1.61 1.61 0 0 0 0 3.21 1.61 1.61 0 0 0 0-3.21z"/><path class="cls-1" d="M77.81 64a2.61 2.61 0 1 1 2.55-2.6 2.52 2.52 0 0 1-2.55 2.6zm0-3.21a.53.53 0 0 0-.55.61.52.52 0 0 0 .55.6.48.48 0 0 0 .41-.15.73.73 0 0 0 .14-.45.53.53 0 0 0-.55-.65zm16.7-21.58a1.61 1.61 0 0 0 0 3.21 1.61 1.61 0 0 0 0-3.21z"/><path class="cls-1" d="M94.51 43.42a2.61 2.61 0 1 1 2.55-2.61 2.52 2.52 0 0 1-2.55 2.61zm0-3.21a.53.53 0 0 0-.55.6.69.69 0 0 0 .14.45.48.48 0 0 0 .41.16.47.47 0 0 0 .4-.16.69.69 0 0 0 .15-.45.52.52 0 0 0-.55-.6zm42.06-23.8a1.61 1.61 0 0 0 0 3.21 1.61 1.61 0 0 0 0-3.21z"/><path class="cls-1" d="M136.57 20.62a2.61 2.61 0 1 1 2.55-2.6 2.52 2.52 0 0 1-2.55 2.6zm0-3.21a.54.54 0 0 0-.57.59.74.74 0 0 0 .15.45.51.51 0 0 0 .41.15.5.5 0 0 0 .4-.15.74.74 0 0 0 .15-.45.54.54 0 0 0-.54-.59zm-16.38 20.51a1.61 1.61 0 0 0 0 3.21 1.61 1.61 0 0 0 0-3.21z"/><path class="cls-1" d="M120.19 42.13a2.61 2.61 0 1 1 2.55-2.6 2.52 2.52 0 0 1-2.55 2.6zm0-3.21a.53.53 0 0 0-.55.61.74.74 0 0 0 .15.45.48.48 0 0 0 .4.15.51.51 0 0 0 .41-.15.73.73 0 0 0 .14-.45.53.53 0 0 0-.55-.61zm1.93-30.21a1.61 1.61 0 0 0 0 3.21 1.61 1.61 0 0 0 0-3.21z"/><path class="cls-1" d="M122.12 12.92a2.52 2.52 0 0 1-2.55-2.61 2.65 2.65 0 0 1 .63-1.75 2.47 2.47 0 0 1 1.92-.85 2.52 2.52 0 0 1 2.55 2.6 2.52 2.52 0 0 1-2.55 2.61zm0-3.21a.53.53 0 0 0-.55.6.55.55 0 1 0 1.1 0 .69.69 0 0 0-.15-.45.46.46 0 0 0-.4-.15zM132.07 1a1.61 1.61 0 0 0 0 3.21 1.61 1.61 0 0 0 0-3.21z"/><path class="cls-1" d="M132.07 5.21a2.52 2.52 0 0 1-2.55-2.6 2.67 2.67 0 0 1 .63-1.76 2.47 2.47 0 0 1 1.92-.85 2.52 2.52 0 0 1 2.55 2.6 2.52 2.52 0 0 1-2.55 2.61zm0-3.21a.53.53 0 0 0-.55.61.55.55 0 1 0 1.1 0 .53.53 0 0 0-.55-.61zm18.62 14.41a1.61 1.61 0 0 0 0 3.21 1.61 1.61 0 0 0 0-3.21z"/><path class="cls-1" d="M150.69 20.62a2.52 2.52 0 0 1-2.55-2.6 2.73 2.73 0 0 1 .63-1.76 2.47 2.47 0 0 1 1.92-.85 2.61 2.61 0 0 1 0 5.21zm0-3.21a.61.61 0 1 0 .55.61.74.74 0 0 0-.14-.46.51.51 0 0 0-.41-.15zM180.55 61a1.61 1.61 0 0 0 0 3.21 1.61 1.61 0 0 0 0-3.21z"/><path class="cls-1" d="M180.55 65.25a2.52 2.52 0 0 1-2.55-2.61 2.65 2.65 0 0 1 .63-1.75 2.47 2.47 0 0 1 1.92-.85 2.61 2.61 0 0 1 0 5.21zm0-3.21a.61.61 0 1 0 .55.6.73.73 0 0 0-.14-.45.48.48 0 0 0-.41-.19zm44.31-17.7a1.61 1.61 0 0 0 0 3.21 1.61 1.61 0 0 0 0-3.21z"/><path class="cls-1" d="M224.86 48.55a2.61 2.61 0 1 1 2.55-2.6 2.52 2.52 0 0 1-2.55 2.6zm0-3.21a.53.53 0 0 0-.55.61.71.71 0 0 0 .14.45.48.48 0 0 0 .41.15.47.47 0 0 0 .4-.15.74.74 0 0 0 .15-.45.53.53 0 0 0-.55-.61zm6.74 17.3a1.61 1.61 0 0 0 0 3.21 1.61 1.61 0 0 0 0-3.21z"/><path class="cls-1" d="M231.6 66.85a2.61 2.61 0 1 1 2.55-2.6 2.52 2.52 0 0 1-2.55 2.6zm0-3.21a.53.53 0 0 0-.55.61.71.71 0 0 0 .14.45.48.48 0 0 0 .41.15.46.46 0 0 0 .4-.15.74.74 0 0 0 .15-.45.53.53 0 0 0-.55-.61zM220.36 2a1.61 1.61 0 0 0 0 3.21 1.61 1.61 0 0 0 0-3.21z"/><path class="cls-1" d="M220.36 6.17a2.52 2.52 0 0 1-2.55-2.6 2.75 2.75 0 0 1 .63-1.76 2.56 2.56 0 0 1 4.47 1.76 2.52 2.52 0 0 1-2.55 2.6zm0-3.21a.53.53 0 0 0-.55.61.55.55 0 1 0 1.1 0 .69.69 0 0 0-.14-.45.48.48 0 0 0-.41-.12z"/><path class="cls-1" transform="rotate(-84.56 4.776 53.012)" d="M-5.39 52.53h20.32v.96H-5.39z"/><path class="cls-1" transform="rotate(-84.59 4.771 53.008)" d="M-6.39 51.53h22.32v2.96H-6.39z"/><path class="cls-1" transform="rotate(-24.45 11.038 40.493)" d="M5.21 40.01h11.64v.96H5.21z"/><path class="cls-1" transform="rotate(-24.43 11.036 40.495)" d="M4.21 39.01h13.64v2.96H4.21z"/><path class="cls-1" transform="rotate(-88.23 120.83 17.375)" d="M120.35 1.8h.96v31.16h-.96z"/><path class="cls-1" transform="rotate(-88.23 120.834 17.37)" d="M119.35.8h2.96v33.16h-2.96z"/><path class="cls-1" transform="rotate(-5.25 4.465 28.947)" d="M3.97 14.91h.96v28.05h-.96z"/><path class="cls-1" transform="rotate(-5.25 4.465 28.947)" d="M2.97 13.91h2.96v30.05H2.97z"/><path class="cls-1" transform="rotate(-48.36 25.32 27.975)" d="M11.79 27.49h27.06v.96H11.79z"/><path class="cls-1" transform="rotate(-48.39 25.31 27.97)" d="M10.79 26.49h29.06v2.96H10.79z"/><path class="cls-1" transform="rotate(-38.66 25.96 50.118)" d="M25.48 34.7h.96v30.84h-.96z"/><path class="cls-1" transform="rotate(-38.66 25.96 50.118)" d="M24.48 33.7h2.96v32.84h-2.96z"/><path class="cls-1" transform="rotate(-85.86 47.148 40.65)" d="M24.94 40.17h44.42v.96H24.94z"/><path class="cls-1" transform="rotate(-85.88 47.153 40.65)" d="M23.94 39.17h46.42v2.96H23.94z"/><path class="cls-1" transform="rotate(-34.09 63.2 39.84)" d="M62.72 14.07h.96v51.56h-.96z"/><path class="cls-1" transform="rotate(-34.09 63.2 39.84)" d="M61.72 13.07h2.96v53.56h-2.96z"/><path class="cls-1" transform="rotate(-87.03 78.776 39.528)" d="M57.07 39.05h43.4v.96h-43.4z"/><path class="cls-1" transform="rotate(-87.03 78.781 39.522)" d="M56.07 38.05h45.4v2.96h-45.4z"/><path class="cls-1" transform="matrix(1 -.08 .08 1 -2.02 7.64)" d="M92.9 16.85h.96v23.84h-.96z"/><path class="cls-1" transform="rotate(-4.63 93.483 28.804)" d="M91.9 15.85h2.96v25.84H91.9z"/><path class="cls-1" transform="rotate(-1.64 94.3 51.665)" d="M94.19 40.65h.96v22.48h-.96z"/><path class="cls-1" transform="rotate(-1.64 94.3 51.665)" d="M93.19 39.65h2.96v24.48h-2.96z"/><path class="cls-1" transform="rotate(-52.71 128.226 28.609)" d="M114.7 28.13h27.03v.96H114.7z"/><path class="cls-1" transform="rotate(-52.73 128.206 28.61)" d="M113.7 27.13h29.03v2.96H113.7z"/><path class="cls-1" transform="rotate(-61.92 113.6 51.41)" d="M99.96 50.92h27.29v.96H99.96z"/><path class="cls-1" transform="rotate(-61.94 113.607 51.41)" d="M98.97 49.92h29.29v2.96H98.97z"/><path class="cls-1" transform="translate(-3.74 7.93)" d="M107.16 62h30.24v.96h-30.24z"/><path class="cls-1" transform="rotate(-3.67 122.202 62.344)" d="M106.16 61h32.24v2.96h-32.24z"/><path class="cls-1" transform="rotate(-58.3 116.492 6.78)" d="M116.02.36h.96v12.83h-.96z"/><path class="cls-1" transform="rotate(-58.3 116.492 6.78)" d="M115.02-.64h2.96v14.83h-2.96z"/><path class="cls-1" transform="rotate(-37.74 126.932 6.298)" d="M120.64 5.82h12.59v.96h-12.59z"/><path class="cls-1" transform="rotate(-37.72 126.944 6.293)" d="M119.64 4.82h14.59v2.96h-14.59z"/><path class="cls-1" transform="rotate(-89.2 150.208 40.655)" d="M127.41 40.17H173v.96h-45.59z"/><path class="cls-1" transform="rotate(-89.19 150.205 40.655)" d="M126.41 39.17H174v2.96h-47.59z"/><path class="cls-1" transform="rotate(-33.79 165.43 40.176)" d="M164.98 13.32h.96v53.69h-.96z"/><path class="cls-1" transform="rotate(-33.79 165.43 40.176)" d="M163.98 12.32h2.96v55.69h-2.96z"/><path class="cls-1" transform="rotate(-88.77 180.872 40.009)" d="M158.39 39.53h44.96v.96h-44.96z"/><path class="cls-1" transform="rotate(-88.77 180.877 40.003)" d="M157.39 38.53h46.96v2.96h-46.96z"/><path class="cls-1" transform="rotate(-73.19 196.774 53.65)" d="M187.88 53.17h17.77v.96h-17.77z"/><path class="cls-1" transform="rotate(-73.14 196.766 53.653)" d="M186.88 52.17h19.77v2.96h-19.77z"/><path class="cls-1" transform="rotate(-65.05 205.762 31.34)" d="M190.53 30.86h30.45v.96h-30.45z"/><path class="cls-1" transform="rotate(-65.07 205.767 31.333)" d="M189.53 29.86h32.45v2.96h-32.45z"/><path class="cls-1" transform="rotate(-23.9 218.453 31.672)" d="M217.95 16.21h.96v30.9h-.96z"/><path class="cls-1" transform="rotate(-23.9 218.453 31.672)" d="M216.95 15.21h2.96v32.9h-2.96z"/><path class="cls-1" transform="rotate(-20.22 228.12 54.94)" d="M227.59 45.19h.96v19.5h-.96z"/><path class="cls-1" transform="rotate(-20.22 228.12 54.94)" d="M226.59 44.19h2.96v21.5h-2.96z"/><path class="cls-1" transform="rotate(-88.55 212.014 45.464)" d="M211.53 32.78h.96v25.37h-.96z"/><path class="cls-1" transform="rotate(-88.55 212.014 45.464)" d="M210.53 31.78h2.96v27.37h-2.96z"/><path class="cls-1" transform="rotate(-35.9 216.172 5.36)" d="M212.3 5.49h8.73v.96h-8.73z"/><path class="cls-1" transform="rotate(-36.02 216.65 5.988)" d="M211.3 4.49h10.73v2.96H211.3z"/><path class="cls-2" d="M276.71 13.32c16.41 0 28.5 11 28.5 27.27S293.12 68 276.71 68 248.2 57 248.2 40.63s12.1-27.31 28.51-27.31zm0 46.86c9.74 0 17-7.88 17-19.59s-7.28-19.5-17-19.5-17 7.78-17 19.5 7.15 19.59 17 19.59zm41.53-45.68h23.58c16.31 0 28.1 10.53 28.1 26.09s-11.79 26.19-28.1 26.19h-23.58zm23.17 44.2c9.95 0 17-7 17-18.11s-7.08-18-17-18h-12.1V58.7zm52.92-10.93L372.59 14.5h12.61l9.85 15.65 5 9.75 5-9.75 9.85-15.65h12.3l-21.8 33.27v19h-11.07zm42.04 8.67c5.95 2.36 12.61 3.84 17.33 3.84 5.54 0 11.69-2.17 11.69-8.17 0-4.53-5.23-5.91-11-7.49C445.7 42.36 434 39.5 434 28.18c0-9 8-14.86 20.82-14.86a53.63 53.63 0 0 1 18.56 3.34l-1.74 7.58a52.25 52.25 0 0 0-16.51-3.34c-5.13 0-10.26 1.77-10.26 6.79 0 4 4.21 5.71 9.23 7.09 9 2.26 22.15 4.82 22.15 16.54S465.08 68 453 68a52.91 52.91 0 0 1-18.25-3.64zM490 14.5h40.4l-.61 8.07h-28.71v14.37l24.1-.68v8.07l-24.1-.69V58.7h30.14l-.61 8.08H490zm68.6 0h12.92l21.85 52.28h-12.31l-4.72-12.9h-23.07l-4.71 12.9h-11.8zm-2.46 31.6h17.44l-2.57-7-6.15-16.93-6.05 16.93z"/><path class="cls-3" d="M643.1 68.5L606.16 67l-2.24-10.38 10.84-8.54 9.85-8.65 6.17-9-1-7.27-7.13-3.84-6.54 1.55v9.8l-10.65 1.78-2-19.26 18.9-6.48 16 7 5.16 13.68-5.58 12.94-.11.12-10.4 11.62L621 57l24.77-1zM607.79 65l33.7 1.39 1.75-8.39-28.58 1.18 11.48-8.69 10.06-11.21 5.13-11.91-4.58-12.13-14.48-6.37-16.65 5.7 1.63 15.57 6.88-1.14v-9.7l8.81-2.09 8.7 4.68 1.22 9.05-6.86 9.88-10 8.76-9.9 7.81z"/><path class="cls-3" d="M604.92 12.45a1.36 1.36 0 0 0 0 2.71 1.36 1.36 0 0 0 0-2.71z"/><path class="cls-3" d="M604.92 16.15a2.28 2.28 0 0 1-2.31-2.35 2.41 2.41 0 0 1 .57-1.58 2.24 2.24 0 0 1 1.74-.77 2.35 2.35 0 0 1 0 4.7zm0-2.7c-.09 0-.31 0-.31.35s.22.35.31.35.31 0 .31-.35-.23-.35-.31-.35zm1.82 16.41a1.36 1.36 0 0 0 0 2.71 1.36 1.36 0 0 0 0-2.71z"/><path class="cls-3" d="M606.74 33.57a2.27 2.27 0 0 1-2.3-2.35 2.42 2.42 0 0 1 .57-1.59 2.25 2.25 0 0 1 1.73-.77 2.36 2.36 0 0 1 0 4.71zm0-2.71c-.08 0-.3 0-.3.36s.22.35.3.35.31 0 .31-.35-.22-.36-.31-.36zm8.77-2.46a1.36 1.36 0 0 0 0 2.71 1.36 1.36 0 0 0 0-2.71z"/><path class="cls-3" d="M615.51 32.11a2.27 2.27 0 0 1-2.3-2.35 2.47 2.47 0 0 1 .56-1.59 2.34 2.34 0 1 1 1.74 3.94zm0-2.71c-.08 0-.3 0-.3.36s.22.35.3.35.31 0 .31-.36-.22-.35-.31-.35zm22.41-16.34a1.35 1.35 0 0 0 0 2.7 1.35 1.35 0 0 0 0-2.7z"/><path class="cls-3" d="M637.92 16.76a2.28 2.28 0 0 1-2.31-2.35 2.41 2.41 0 0 1 .57-1.58 2.25 2.25 0 0 1 1.74-.77 2.35 2.35 0 0 1 0 4.7zm0-2.7c-.08 0-.31 0-.31.35s.23.35.31.35.31 0 .31-.35-.23-.35-.31-.35zm-32.51 41.5a1.35 1.35 0 0 0 0 2.7 1.35 1.35 0 0 0 0-2.7z"/><path class="cls-3" d="M605.41 59.26a2.28 2.28 0 0 1-2.31-2.35 2.41 2.41 0 0 1 .57-1.58 2.22 2.22 0 0 1 1.74-.77 2.35 2.35 0 0 1 0 4.7zm0-2.7c-.09 0-.31 0-.31.35s.22.35.31.35.3 0 .3-.35-.22-.35-.3-.35zM642.18 66a1.36 1.36 0 0 0 0 2.71 1.36 1.36 0 0 0 0-2.71z"/><path class="cls-3" d="M642.18 69.74a2.28 2.28 0 0 1-2.3-2.36 2.46 2.46 0 0 1 .56-1.58 2.25 2.25 0 0 1 1.74-.77 2.28 2.28 0 0 1 2.31 2.35 2.37 2.37 0 0 1-.57 1.58 2.24 2.24 0 0 1-1.74.78zm0-2.71c-.08 0-.3 0-.3.35s.22.36.3.36.2-.06.22-.08a.41.41 0 0 0 .09-.28c0-.38-.22-.38-.31-.38zm2.19-11.47a1.35 1.35 0 0 0 0 2.7 1.35 1.35 0 0 0 0-2.7z"/><path class="cls-3" d="M644.37 59.26a2.27 2.27 0 0 1-2.3-2.35 2.46 2.46 0 0 1 .56-1.58 2.25 2.25 0 0 1 1.74-.77 2.35 2.35 0 0 1 0 4.7zm0-2.7c-.08 0-.3 0-.3.35s.22.35.3.35.31 0 .31-.35-.22-.35-.31-.35zm-26.3.22a1.35 1.35 0 0 0 0 2.7 1.35 1.35 0 0 0 0-2.7z"/><path class="cls-3" d="M618.07 60.48a2.28 2.28 0 0 1-2.31-2.35 2.39 2.39 0 0 1 .57-1.58 2.26 2.26 0 0 1 1.74-.78 2.36 2.36 0 0 1 0 4.71zm0-2.71c-.08 0-.31 0-.31.36s.23.35.31.35.31 0 .31-.35-.23-.36-.31-.36zm-11.18 7.28a.91.91 0 0 0 0 1.81.91.91 0 0 0 0-1.81z"/><path class="cls-3" d="M606.89 67.86a1.91 1.91 0 1 1 1.87-1.86 1.85 1.85 0 0 1-1.87 1.86zm0-2a.19.19 0 0 0-.13.1.27.27 0 0 0 .13.09.23.23 0 0 0 .11-.05.18.18 0 0 0-.11-.14zm8.16-46.72a.91.91 0 0 0 0 1.81.91.91 0 0 0 0-1.81z"/><path class="cls-3" d="M615.05 22a1.91 1.91 0 1 1 1.87-2 1.84 1.84 0 0 1-1.87 2zm0-2a.19.19 0 0 0-.13.1.27.27 0 0 0 .13.09.23.23 0 0 0 .13-.1.22.22 0 0 0-.13-.09zm7.67-2.68a.9.9 0 0 0 0 1.8.9.9 0 0 0 0-1.8z"/><path class="cls-3" d="M622.72 20.12a1.9 1.9 0 1 1 1.87-1.9 1.85 1.85 0 0 1-1.87 1.9zm0-2a.24.24 0 0 0-.13.11.27.27 0 0 0 .13.09.18.18 0 0 0 .13-.11.27.27 0 0 0-.13-.09zm7.92 3.46a.9.9 0 0 0 0 1.8.9.9 0 0 0 0-1.8z"/><path class="cls-3" d="M630.64 24.38a1.9 1.9 0 1 1 1.87-1.9 1.84 1.84 0 0 1-1.87 1.9zm0-2a.22.22 0 0 0-.12.11.27.27 0 0 0 .13.09.21.21 0 0 0 .13-.11.26.26 0 0 0-.15-.09zm1.09 7.36a.9.9 0 0 0 0 1.8.9.9 0 0 0 0-1.8z"/><path class="cls-3" d="M631.73 32.54a1.85 1.85 0 0 1-1.87-1.9 2 2 0 0 1 .46-1.27 1.81 1.81 0 0 1 1.41-.63 1.9 1.9 0 0 1 0 3.8zm0-2s-.12.07-.12.11.07.08.12.09a.18.18 0 0 0 .13-.11.27.27 0 0 0-.13-.09zm-6.45 8.57a.91.91 0 0 0 0 1.81.91.91 0 0 0 0-1.81z"/><path class="cls-3" d="M625.28 41.92a1.91 1.91 0 1 1 1.87-1.9 1.84 1.84 0 0 1-1.87 1.9zm0-2s-.11.07-.12.1a.22.22 0 0 0 .13.09.19.19 0 0 0 .13-.1.21.21 0 0 0-.15-.09zm1.46 10.4a.9.9 0 0 0 0 1.8.9.9 0 0 0 0-1.8z"/><path class="cls-3" d="M626.74 53.12a1.9 1.9 0 1 1 1.87-1.9 1.85 1.85 0 0 1-1.87 1.9zm0-2a.21.21 0 0 0-.13.11.27.27 0 0 0 .13.09.21.21 0 0 0 .13-.11.27.27 0 0 0-.13-.09zM637 38.87a.9.9 0 0 0 0 1.8.9.9 0 0 0 0-1.8z"/><path class="cls-3" d="M637 41.68a1.85 1.85 0 0 1-1.87-1.91 1.94 1.94 0 0 1 .46-1.27 1.81 1.81 0 0 1 1.41-.63 1.91 1.91 0 0 1 0 3.81zm0-2a.17.17 0 0 0-.13.1.27.27 0 0 0 .13.09.23.23 0 0 0 .13-.1.18.18 0 0 0-.13-.09zm5.33-13.23a.9.9 0 0 0 0 1.8.9.9 0 0 0 0-1.8z"/><path class="cls-3" d="M642.33 29.25a1.9 1.9 0 1 1 1.87-1.9 1.84 1.84 0 0 1-1.87 1.9zm0-2a.22.22 0 0 0-.12.11.27.27 0 0 0 .13.09.21.21 0 0 0 .13-.11.26.26 0 0 0-.15-.09zM622.24 6.84a.91.91 0 0 0 0 1.81.91.91 0 0 0 0-1.81z"/><path class="cls-3" d="M622.24 9.65a1.84 1.84 0 0 1-1.87-1.9 1.87 1.87 0 1 1 3.74 0 1.85 1.85 0 0 1-1.87 1.9zm0-2s-.11.07-.12.1a.19.19 0 0 0 .13.09.19.19 0 0 0 .13-.1.24.24 0 0 0-.15-.09z"/></g></g></svg>