<svg xmlns="http://www.w3.org/2000/svg" width="24" height="24" viewBox="0 0 24 24" xmlns:xlink="http://www.w3.org/1999/xlink"><defs><path id="a" d="M0 0h14v22H0z"/></defs><g transform="translate(-2)" fill="none" fill-rule="evenodd"><path fill="#000" d="M16.573 8.99h5.566c.84 0 1.18 1.073.487 1.556l-4.465 3.102 1.73 5.23c.262.8-.644 1.466-1.32.973l-4.57-3.335-4.572 3.292c-.678.488-1.58-.186-1.314-.982l1.727-5.178-4.472-3.102c-.69-.484-.35-1.556.49-1.556h5.572l1.754-5.39c.26-.793 1.373-.804 1.632-.01l1.755 5.4z" opacity=".05"/><mask id="b" fill="#fff"><use xlink:href="#a"/></mask><path fill="#FCC34C" d="M14.818 3.59l1.755 5.4h5.566c.84 0 1.18 1.073.487 1.556l-4.465 3.102 1.73 5.23c.262.8-.644 1.466-1.32.973l-4.57-3.335-4.572 3.292c-.678.488-1.58-.186-1.314-.982l1.727-5.178-4.472-3.102c-.69-.484-.35-1.556.49-1.556h5.572l1.754-5.39c.26-.793 1.373-.804 1.632-.01" mask="url(#b)"/></g></svg>