<svg id="Layer_1" xmlns="http://www.w3.org/2000/svg" viewBox="0 0 161 38"><style>.st0{fill-rule:evenodd;clip-rule:evenodd;fill:#fff}.st1{fill:#d22121}.st2{fill:#fff}.st3{fill:#828282}</style><title>Page 1 Copy</title><path id="Fill-1" class="st0" d="M91.2 26.2h3.7v-9.8c0-.6.2-1.1.5-1.5.8-.7 2.3-.7 4.1-.7v-3c-3.5-.5-6.1 0-7.3 1.4l-.1.1S91 13.8 91 16.4v9.8h.2z"/><path id="Fill-3" class="st0" d="M69.5 26.2h3.7v-9.7c0-3.5-2.2-5.4-6-5.4-1.6 0-3 .4-4 1.1l-.2.1-.2-.1c-1-.7-2.4-1.1-4-1.1-3.8 0-6 2-6 5.4v9.7h3.7v-10c0-1.3.9-2 2.3-2s2.2.7 2.2 2v10h4v-10c0-1.3.8-2 2.3-2 1.4 0 2.2.7 2.2 2v10z"/><path id="Fill-5" class="st0" d="M111.5 26.2h3.7V11.4h-3.7z"/><path id="Fill-7" class="st0" d="M127.2 26.2h3.7v-9.3c0-3.7-2.3-5.8-6.4-5.8s-6.5 2.1-6.5 5.8v9.3h3.8v-9.6c0-1.5 1-2.4 2.7-2.4s2.7.9 2.7 2.4v9.6z"/><path id="Fill-8" class="st0" d="M133.2 11.4v9.3c0 3.7 2.3 5.8 6.4 5.8 4.1 0 6.5-2.1 6.5-5.8v-9.3h-3.7V21c0 1.5-1 2.4-2.7 2.4s-2.7-.9-2.7-2.4v-9.6h-3.8z"/><path id="Fill-9" class="st0" d="M148.2 21.8v.2c0 2.9 2.2 4.5 6.3 4.5 2.9 0 6.3-.8 6.3-4.7 0-2.2-1.5-3.7-4.3-4.3l-2.8-.6c-1.1-.2-1.6-.7-1.6-1.4 0-1 .8-1.5 2.4-1.5.6 0 2.4 0 2.4 1.6h3.8v-.2c0-2.9-2.2-4.5-6.1-4.5-4 0-6.2 1.6-6.2 4.6 0 2.2 1.5 3.8 4.3 4.3l2.8.6c1.1.2 1.6.7 1.6 1.4s-.4 1.5-2.6 1.5c-2.1 0-2.5-.9-2.5-1.6h-3.8v.1z"/><path id="Fill-10" class="st0" d="M113.4 4.7c-1.2 0-2.3 1-2.3 2.3s1 2.3 2.3 2.3 2.3-1 2.3-2.3c0-1.3-1-2.3-2.3-2.3"/><path id="Fill-11" class="st0" d="M101.3 14.5v6.4c0 2.2.5 3.6 1.4 4.5 1.2 1 3.2 1.3 6.2.8v-3c-1.7.1-2.7.1-3.3-.5-.4-.3-.5-.8-.5-1.7v-6.6h3.8v-3.2H105V6.9L101.3 8v6.5z"/><path id="Fill-12" class="st0" d="M84.9 20.2v1.2c0 .7-.9 2-3.2 2-2 0-2.7-.6-2.7-1.8 0-1.2.7-1.7 2.8-1.7h3l.1.3zm-2.7-9.1c-3.9 0-5.9 1.7-6.1 4.5h3.8c.1-1.2.8-1.7 2.3-1.7 1.4 0 2.5.9 2.5 2.2v.9h-3.9c-3.8 0-5.4 1.8-5.4 4.7s1.8 4.7 5 4.7c2.1 0 3.7-.7 4.5-2l.1-.3V26h3.3v-9.6c0-3.3-2.2-5.3-6.1-5.3z"/><path class="st1" d="M17.6 9.9c3.8-1.3 7.9.7 9.1 4.5s-.7 7.9-4.5 9.1c-.9.3-1.8.4-2.7.4l-1.3 2.7-2.2.8 1 3-3 1 1 3-4.5 1.5-1.3-3.8 5.3-10.8c-.6-.7-1-1.5-1.4-2.4-1.3-3.6.8-7.7 4.5-9m-.5-1.5C12.5 10 10 15 11.6 19.6c.2.7.6 1.4 1 2l-5 10.1c-.1.3-.2.6-.1.9L9 37c.2.6.9 1 1.5.8l5.3-1.8c.6-.2 1-.9.8-1.5l-.6-2 1.9-.6c.6-.2 1-.9.8-1.5l-.7-2 .9-.3c.3-.1.6-.3.7-.6l1-2c.8-.1 1.5-.2 2.2-.4 4.6-1.6 7.1-6.6 5.5-11.2s-6.6-7-11.2-5.5zm4 4.4c.5-.2 1.1.1 1.3.6s-.1 1.1-.6 1.3-1.1-.1-1.3-.6.1-1.1.6-1.3m-.4-1.3c-1.3.4-1.9 1.8-1.5 3s1.8 1.9 3 1.5c1.3-.4 1.9-1.8 1.5-3-.4-1.3-1.8-2-3-1.5z"/><path class="st2" d="M32.5 11.5C31 9.8 29 8.8 26.9 8.7c-.2 0-.3.3-.2.4 2.1 1.9 3.4 4.7 3.4 7.8 0 4.7-3 8.6-7.2 10l.1 7.4c0 .3.1.6.3.8l2.5 2.5c.4.4 1.1.4 1.5 0l3.5-3.6c.4-.4.4-1.1 0-1.5L29.7 31l1.3-1.3c.4-.4.4-1.1 0-1.5l-1.3-1.3 1.2-1.2c.2-.2.3-.5.3-.8l-.2-1.7c.8-.5 1.5-1.2 2-2.1 2.1-2.9 1.8-6.9-.5-9.6z"/><path class="st2" d="M34.2 10.7c-.5-.1-.8-.5-.7-.9.1-.3.1-.7.1-1 .1-3.8-2.9-7-6.7-7.1-3-.1-5.7 1.7-6.7 4.6-.1.4-.6.6-1 .5s-.6-.6-.5-1C19.9 2.3 23.3.1 26.9.2c4.7.1 8.4 4 8.2 8.7 0 .4-.1.9-.1 1.3-.1.2-.4.5-.8.5z"/><path class="st3" d="M40.1 27.9l-1.4-.7.7-1.4c.2-.5 0-1.1-.4-1.3l-1.4-.7.7-1.3c.1-.2.1-.5 0-.8l-.6-1.3c.3-.3.5-.7.7-1.1 1.3-2.7.8-5.8-1.2-7.9-.3-.3-.7-.3-1 0s-.6.6-.9.8c-.2.1-.3.4-.2.7.5 1.2.8 2.5.8 3.8 0 2.9-1.3 5.4-3.3 7.2-.2.2-.3.4-.3.6.1.6-.1.9-.2 1.2-.1.2-.1.4 0 .6l1.9 5.5c.1.2.3.4.5.6l2.8 1.4c.5.2 1.1 0 1.3-.4l2-4c.2-.7 0-1.3-.5-1.5z"/></svg>