<svg width="161" height="38" viewBox="0 0 161 38" xmlns="http://www.w3.org/2000/svg"><defs><style>.cls-1,.cls-3{fill:#fff}.cls-1{fill-rule:evenodd}.cls-2{fill:#d22121}.cls-4{fill:#828282}</style></defs><title>Asset 1</title><g id="Layer_2" data-name="Layer 2"><g id="Layer_1-2" data-name="Layer 1"><path id="Fill-1" class="cls-1" d="M83.74 26h3.7v-9.8a2.46 2.46 0 0 1 .5-1.5c.8-.7 2.3-.7 4.1-.7v-3c-3.5-.5-6.1 0-7.3 1.4l-.1.1a5.35 5.35 0 0 0-1.1 3.7V26z"/><path id="Fill-3" class="cls-1" d="M62 26h3.7v-9.7c0-3.5-2.2-5.4-6-5.4a7 7 0 0 0-4 1.1l-.2.1-.2-.1a7 7 0 0 0-4-1.1c-3.8 0-6 2-6 5.4V26H49V16c0-1.3.9-2 2.3-2s2.2.7 2.2 2v10h4V16c0-1.3.8-2 2.3-2s2.2.7 2.2 2z"/><path id="Fill-5" class="cls-1" d="M104.04 26h3.7V11.2h-3.7V26z"/><path id="Fill-7" class="cls-1" d="M119.74 26h3.7v-9.3c0-3.7-2.3-5.8-6.4-5.8s-6.5 2.1-6.5 5.8V26h3.8v-9.6c0-1.5 1-2.4 2.7-2.4s2.7.9 2.7 2.4z"/><path id="Fill-8" class="cls-1" d="M125.74 11.2v9.3c0 3.7 2.3 5.8 6.4 5.8s6.5-2.1 6.5-5.8v-9.3h-3.7v9.6c0 1.5-1 2.4-2.7 2.4s-2.7-.9-2.7-2.4v-9.6z"/><path id="Fill-9" class="cls-1" d="M140.74 21.6v.2c0 2.9 2.2 4.5 6.3 4.5 2.9 0 6.3-.8 6.3-4.7 0-2.2-1.5-3.7-4.3-4.3l-2.8-.6c-1.1-.2-1.6-.7-1.6-1.4q0-1.5 2.4-1.5c.6 0 2.4 0 2.4 1.6h3.8v-.2c0-2.9-2.2-4.5-6.1-4.5s-6.2 1.6-6.2 4.6c0 2.2 1.5 3.8 4.3 4.3l2.8.6c1.1.2 1.6.7 1.6 1.4s-.4 1.5-2.6 1.5-2.5-.9-2.5-1.6h-3.8z"/><path id="Fill-10" class="cls-1" d="M105.94 4.5a2.33 2.33 0 0 0-2.3 2.3 2.3 2.3 0 0 0 4.6 0 2.26 2.26 0 0 0-2.3-2.3"/><path id="Fill-11" class="cls-1" d="M93.84 14.3v6.4c0 2.2.5 3.6 1.4 4.5 1.2 1 3.2 1.3 6.2.8v-3c-1.7.1-2.7.1-3.3-.5-.4-.3-.5-.8-.5-1.7v-6.6h3.8V11h-3.9V6.7l-3.7 1.1v6.5z"/><path id="Fill-12" class="cls-1" d="M77.44 20v1.2c0 .7-.9 2-3.2 2-2 0-2.7-.6-2.7-1.8s.7-1.7 2.8-1.7h3v.3zm-2.7-9.1c-3.9 0-5.9 1.7-6.1 4.5h3.8c.1-1.2.8-1.7 2.3-1.7a2.3 2.3 0 0 1 2.5 2.2v.9h-3.9c-3.8 0-5.4 1.8-5.4 4.7s1.8 4.7 5 4.7c2.1 0 3.7-.7 4.5-2l.1-.3v1.9h3.3v-9.6c0-3.3-2.2-5.3-6.1-5.3z"/><path class="cls-2" d="M10.14 9.7a7.07 7.07 0 0 1 9.1 4.5 7.15 7.15 0 0 1-4.5 9.1 8.42 8.42 0 0 1-2.7.4l-1.3 2.7-2.2.8 1 3-3 1 1 3L3 35.7l-1.3-3.8L7 21.1a9.46 9.46 0 0 1-1.4-2.4 7.17 7.17 0 0 1 4.5-9m-.5-1.5a8.83 8.83 0 0 0-5.5 11.2 7.5 7.5 0 0 0 1 2l-5 10.1a1.41 1.41 0 0 0-.1.9l1.5 4.4a1.24 1.24 0 0 0 1.5.8l5.3-1.8a1.24 1.24 0 0 0 .8-1.5l-.6-2 1.9-.6a1.24 1.24 0 0 0 .8-1.5l-.7-2 .9-.3a1.06 1.06 0 0 0 .7-.6l1-2a14.35 14.35 0 0 0 2.2-.4A8.82 8.82 0 0 0 9.64 8.2zm4 4.4a1 1 0 1 1-.6 1.3 1 1 0 0 1 .6-1.3m-.4-1.3a2.35 2.35 0 0 0-1.5 3 2.43 2.43 0 0 0 3 1.5 2.35 2.35 0 0 0 1.5-3 2.27 2.27 0 0 0-2.96-1.5z"/><path class="cls-3" d="M25 11.3a8 8 0 0 0-5.6-2.8.27.27 0 0 0-.2.4 10.58 10.58 0 0 1-3.8 17.8l.1 7.4a1.14 1.14 0 0 0 .3.8l2.5 2.5a1.09 1.09 0 0 0 1.5 0l3.5-3.6a1.09 1.09 0 0 0 0-1.5l-1.1-1.5 1.3-1.3a1.09 1.09 0 0 0 0-1.5l-1.3-1.3 1.2-1.2a1.14 1.14 0 0 0 .3-.8l-.2-1.7a5.78 5.78 0 0 0 2-2.1 7.82 7.82 0 0 0-.5-9.6z"/><path class="cls-3" d="M26.74 10.5h-.1a.78.78 0 0 1-.6-.9 3.4 3.4 0 0 0 .1-1 6.92 6.92 0 0 0-6.7-7.1 6.78 6.78 0 0 0-6.7 4.6.79.79 0 0 1-1.5-.5 8.45 8.45 0 0 1 16.4 3.1c0 .4-.1.9-.1 1.3a1 1 0 0 1-.8.5z"/><path class="cls-4" d="M32.64 27.7l-1.4-.7.7-1.4a1.05 1.05 0 0 0-.4-1.3l-1.4-.7.7-1.3a1.1 1.1 0 0 0 0-.8l-.6-1.3a4.13 4.13 0 0 0 .7-1.1 7 7 0 0 0-1.2-7.9.67.67 0 0 0-1 0 6.47 6.47 0 0 1-.9.8.57.57 0 0 0-.2.7 10 10 0 0 1 .8 3.8 9.61 9.61 0 0 1-3.3 7.2.86.86 0 0 0-.3.6 2 2 0 0 1-.2 1.2.64.64 0 0 0 0 .6l1.9 5.5a2.65 2.65 0 0 0 .5.6l2.8 1.4a1.05 1.05 0 0 0 1.3-.4l2-4c.2-.7 0-1.3-.5-1.5z"/></g></g></svg>