<svg xmlns="http://www.w3.org/2000/svg" width="595.28" height="275.501" viewBox="0 0 595.28 275.501"><path d="M208.854 78.393c14.366-22.881-6.398-39.122-7.949-40.289l.003-.004s-22.958-16.602-40.855 4.999c-23.728 2.956-49.751 6.304-53.914 7.303L94.937 26.79 79.94 33.169l7.458 25.493S66.179 68.738 64.455 69.885L46.643 59.446 38.854 74.27s12.498 9.273 13.144 10.383c0 0-7.416 23.651-8.353 24.947l-22.573-8.245-6.292 17.475 22.971 9.016-.11.5c-.624 2.905-1.281 16.613-1.281 16.613-1.331-.124-25.541 4.441-25.541 4.441l2.434 19.191 24.032-4.522 28.062 61.258-.04.055.069.008.03.065.042-.057 66.958 7.469 3.124 23.583 18.995-3.701s-3.145-23.761-3.678-24.988c0 0 12.809-4.92 15.381-6.419l.433-.258 15.762 18.992 14.622-11.449-14.897-18.858c.935-1.293 21.077-15.743 21.077-15.743 1.258.266 13.971 9.229 13.971 9.229l11.643-12.037-15.494-13.646c.557-1.997 3.477-25.302 3.477-25.302l24.661 2.837 4.175-17.166-26.861-6.06c-.355-4.263-5.317-30.029-9.943-53.488zM142.47 211.494l-56.11-4.94-6.917-.608-2.75-6.384-22.259-51.74 19.459-61.958 62.416-18.128.713.462-24.401 40.976 29.875 6.405-48.915 72.467 100.905-54.171.73 39.734-52.746 37.885zM278.926 90.089h-11.509c-2.553 0-3.402-.78-3.402-3.549V50.471c0-.781-.641-1.423-1.424-1.423H251.02c-.779 0-1.491.643-1.491 1.423V86.54c0 13.773 9.159 15.903 18.245 15.903 3.768 0 8.594-.355 11.153-.852.919-.142 1.415-.565 1.415-1.418V91.51a1.423 1.423 0 0 0-1.416-1.421zm9.076 11.716h11.648c.786 0 1.422-.639 1.422-1.419V50.397c0-.782-.636-1.349-1.422-1.349h-11.648c-.773 0-1.415.567-1.415 1.349v49.988c0 .782.642 1.42 1.415 1.42zm60.211-2.698V75.319c0-.778-.642-1.417-1.422-1.417H335.57c-.773 0-1.346.638-1.346 1.417v14.557a34.088 34.088 0 0 1-3.906.212c-2.767 0-6.817-1.348-6.817-10.862v-7.525c0-8.595 3.058-10.653 9.805-10.653 5.252 0 11.002.429 13.699.639h.22c.636 0 .988-.283.988-1.135v-8.946c0-.922-.353-1.066-1.347-1.348-2.911-.782-8.17-1.917-15.553-1.917-9.869 0-22.435 3.901-22.435 23.361v7.455c0 19.24 12.918 23.287 21.439 23.287 6.889 0 12.36-.852 16.403-1.704 1.14-.21 1.493-.566 1.493-1.633zm39.478 2.698h11.567c.781 0 1.422-.639 1.422-1.419V50.397c0-.782-.641-1.349-1.422-1.349h-11.567c-.786 0-1.427.567-1.427 1.349v18.179h-14.831V50.397c0-.782-.647-1.349-1.427-1.349h-11.573c-.78 0-1.49.567-1.49 1.349v49.988c0 .781.71 1.419 1.49 1.419h11.573c.779 0 1.427-.639 1.427-1.419V81.07h14.831v19.315c.001.782.641 1.42 1.427 1.42zm20.796-40.97h10.791v39.549c0 .783.636 1.423 1.417 1.423h11.578c.78 0 1.415-.64 1.415-1.423V60.835h10.579c.785 0 1.497-.564 1.497-1.349v-9.087c0-.782-.712-1.35-1.497-1.35h-35.78c-.781 0-1.422.567-1.422 1.35v9.087c0 .785.641 1.349 1.422 1.349zm45.008 40.97h11.642c.786 0 1.422-.639 1.422-1.419V50.397c0-.782-.636-1.349-1.422-1.349h-11.642c-.781 0-1.422.567-1.422 1.349v49.988c0 .782.641 1.42 1.422 1.42zm35.851-1.419V76.172c0-.497.146-.638.365-.638.212 0 .421.073.704.57l13.988 23.784c.779 1.349 1.704 1.917 2.98 1.917h9.51c1.429 0 2.635-1.208 2.635-2.627v-48.71a1.43 1.43 0 0 0-1.427-1.42H507.46c-.786 0-1.427.642-1.427 1.42v25.139c0 .565-.141.636-.354.636-.214 0-.352-.139-.643-.636l-14.414-24.5c-.7-1.274-1.491-2.059-2.837-2.059h-9.371c-1.423 0-2.623 1.207-2.623 2.63v48.707c0 .781.71 1.419 1.484 1.419h10.647a1.418 1.418 0 0 0 1.424-1.418zm62.412-39.337c5.252 0 11 .429 13.699.639h.213c.641 0 .993-.283.993-1.135v-8.946c0-.922-.353-1.066-1.346-1.348-2.911-.782-8.169-1.917-15.554-1.917-9.869 0-22.435 3.901-22.435 23.361v7.455c0 19.24 12.919 23.287 21.441 23.287 6.887 0 12.358-.852 16.403-1.704 1.137-.209 1.489-.565 1.489-1.632v-23.79c0-.778-.641-1.417-1.415-1.417h-11.227c-.772 0-1.347.638-1.347 1.417v14.557a34.078 34.078 0 0 1-3.904.212c-2.768 0-6.817-1.348-6.817-10.862v-7.525c.002-8.594 3.058-10.652 9.807-10.652zm-229.041 89.154c3.726-2.071 6.377-6.543 6.377-11.762v-1.409c0-13.915-10.607-17.725-26.918-17.725-4.143 0-12.261.41-15.739.994-3.813.579-5.136 1.74-5.136 6.211v48.622c0 4.473 1.323 5.633 5.217 6.296 3.9.658 11.682.994 15.901.994 13.254 0 27.006-3.147 27.006-19.135v-1.076c0-5.301-2.983-9.857-6.708-12.01zm-24.851-17.146c.583 0 5.887-.084 6.539-.084 6.472 0 8.454 2.071 8.454 5.302v1.325c0 2.9-1.491 5.219-6.963 5.219h-8.03v-11.762zm15.327 29.735c0 3.562-2.068 5.964-8.538 5.964h-6.789V156.08h8.03c5.472 0 7.297 2.653 7.297 5.967v.745zm62.2-42.492c-3.145-.413-8.28-.994-16.317-.994-10.603 0-21.204 2.568-21.204 18.554v26.009c0 16.069 10.602 18.554 21.204 18.554 8.037 0 13.173-.579 16.317-.993 1.079-.166 1.663-.663 1.663-1.657v-10.105c0-.91-.751-1.655-1.663-1.655h-16.728c-2.982 0-3.98-.912-3.98-4.143v-6.874h20.377c.913 0 1.658-.746 1.658-1.657v-9.774c0-.911-.745-1.656-1.658-1.656h-20.377v-6.047c0-3.229.998-4.141 3.98-4.141h16.728c.912 0 1.663-.746 1.663-1.656v-10.106c0-.994-.584-1.493-1.663-1.659zm48.457 0c-3.149-.413-8.285-.994-16.317-.994-10.601 0-21.203 2.568-21.203 18.554v26.009c0 16.069 10.603 18.554 21.203 18.554 8.032 0 13.168-.579 16.317-.993 1.079-.166 1.658-.663 1.658-1.657v-10.105c0-.91-.746-1.655-1.658-1.655h-16.732c-2.981 0-3.976-.912-3.976-4.143v-6.874h20.379a1.66 1.66 0 0 0 1.651-1.657v-9.774a1.66 1.66 0 0 0-1.651-1.656h-20.379v-6.047c0-3.229.994-4.141 3.976-4.141h16.732c.912 0 1.658-.746 1.658-1.656v-10.106c0-.994-.579-1.493-1.658-1.659zm51.52-.164h-41.744c-.913 0-1.658.66-1.658 1.575v10.603c0 .906.745 1.569 1.658 1.569h12.59v46.14c0 .908.745 1.652 1.65 1.652h13.509a1.66 1.66 0 0 0 1.653-1.652v-46.14h12.342c.912 0 1.739-.663 1.739-1.569v-10.603c0-.915-.827-1.575-1.739-1.575zm43.407 47.875h-13.421c-2.987 0-3.98-.912-3.98-4.143v-42.077c0-.912-.74-1.656-1.653-1.656h-13.502c-.914 0-1.739.745-1.739 1.656v42.077c0 16.069 10.683 18.554 21.285 18.554 4.396 0 10.023-.413 13.011-.993 1.069-.166 1.653-.663 1.653-1.657v-10.105a1.66 1.66 0 0 0-1.654-1.656zM564.74 120.3c-3.149-.413-8.285-.994-16.317-.994-10.601 0-21.203 2.568-21.203 18.554v26.009c0 16.069 10.603 18.554 21.203 18.554 8.032 0 13.168-.579 16.317-.993 1.074-.166 1.658-.663 1.658-1.657v-10.105c0-.91-.746-1.655-1.658-1.655h-16.732c-2.977 0-3.976-.912-3.976-4.143v-6.874h20.379a1.66 1.66 0 0 0 1.651-1.657v-9.774a1.66 1.66 0 0 0-1.651-1.656h-20.379v-6.047c0-3.229.999-4.141 3.976-4.141h16.732c.912 0 1.658-.746 1.658-1.656v-10.106c0-.994-.584-1.493-1.658-1.659z"/></svg>