<svg xmlns="http://www.w3.org/2000/svg" viewBox="0 0 221.14 43.7"><defs><style>.cls-1{fill:#868383}</style></defs><title>Asset 5</title><g id="Layer_2" data-name="Layer 2"><g id="Layer_1-2" data-name="Layer 1"><path class="cls-1" d="M217.54 3.47a5.17 5.17 0 0 0-4.06-2.76c-4.13-.85-8.92-.46-13.12-.57a457.09 457.09 0 0 0-64.7 3c-1.26.15-1.28 2.15 0 2A457.58 457.58 0 0 1 192.5 2q6.88.06 13.75.32c3.9.15 7.69-.56 10.13 3.71.83 1.46 1 3.88 1.31 5.48 1.8 8.89 4.09 23.57-8.46 25.16-8.57 1.09-18-.8-26.69-1.07q-13.53-.45-27.07-.06-6.78.2-13.53.59c-3.18.18-11.19 2.5-13.31-1-.94-1.57-.19-5.88-.2-7.7s0-3.82 0-5.73l-.13-15.29a1 1 0 0 0-2 0c0 9-.61 18.35.18 27.32.53 5.9 4.7 5.14 9.67 4.79a446.24 446.24 0 0 1 56.06-.5c6.72.37 15.35 2.48 21.76-.47 5-2.32 6.86-7.42 7.11-12.65.3-6.36-.45-15.81-3.54-21.43zM102.2 15.36c-.21-2.41.28-6.56-1.4-8.62-1.44-1.74-4.19-1.87-6.27-2.13A122.19 122.19 0 0 0 80 4.09L9 3.84a1 1 0 0 0 0 2l64 .23c5.11 0 10.24-.07 15.35.1 2.42.08 6.43-.19 8.6.81 3.66 1.68 3 5.17 3.29 8.38.69 7.88 2.51 18.08-3.83 22.61L44.7 21.05A77 77 0 0 1 65 17.6c1.28-.05 1.29-2.05 0-2A79.25 79.25 0 0 0 41.51 20l-17.6-5.76c-1.22-.4-1.75 1.53-.53 1.93l15.12 4.95a78.91 78.91 0 0 0-18.91 10.74c-1 .78 0 2.52 1 1.73a78 78 0 0 1 20.94-11.48l52.39 17.16a15.74 15.74 0 0 1-3.33.83c-8.81 1.25-18.35-.73-27.2-1-10.5-.36-21-.26-31.52.28q-7.87.42-15.73 1.16c-2.47.24-5.37 1-7.84.84-2.07.72-3.74 0-5-2.19-.1-1.28-.19-2.57-.28-3.85Q2 19.87 2 4.4a1 1 0 0 0-2 0q0 15 1 30c.14 2.13-.3 5.84 1.1 7.74 1.89 2.59 5.48 1.34 8.19 1a366.77 366.77 0 0 1 62-1.65c7.55.44 17.68 1.94 24.23-1.37l1.63.53c1.22.4 1.75-1.51.54-1.92 2.58-2.08 4.26-5.31 4.44-10.27.11-4.36-.55-8.78-.93-13.1z"/><path class="cls-1" d="M200.87 26.19a132.18 132.18 0 0 0-23.43-9.38c5.69-1.5 11.42-2.88 17.19-4.1 1.26-.27.73-2.19-.53-1.93q-10.33 2.18-20.49 5a130.72 130.72 0 0 0-37.91-4.11c-1.28 0-1.28 2 0 2a129.19 129.19 0 0 1 34 3.22q-15.4 4.41-30.39 10.23c-1.19.46-.67 2.4.53 1.93a347.11 347.11 0 0 1 33.78-11.22 128.55 128.55 0 0 1 26.24 10.09c1.14.59 2.14-1.13 1.01-1.73z"/></g></g></svg>