<svg xmlns="http://www.w3.org/2000/svg" viewBox="0 0 329.86 99.75"><defs><style>.cls-1,.cls-2,.cls-3,.cls-5{fill:none;stroke:gray}.cls-1,.cls-3,.cls-5{stroke-linecap:round}.cls-1,.cls-2,.cls-3{stroke-miterlimit:10}.cls-1,.cls-5{stroke-width:2px}.cls-2,.cls-3{stroke-width:3px}.cls-4{fill:gray}.cls-5{stroke-linejoin:round}</style></defs><title>Asset 9</title><g id="Layer_2" data-name="Layer 2"><g id="Layer_1-2" data-name="Layer 1"><path class="cls-1" d="M1 27.84c31 7.61 38.49 53.11 75 59 19 3.08 36.46-6 48-14m204.86-6.59c-31.09-7.21-39.15-52.62-75.74-58C234 5.37 216.75 14.7 205.3 22.81"/><rect class="cls-2" x="119.76" y="59.72" width="24" height="17" rx="5.72" ry="5.72" transform="rotate(58.39 131.768 68.23)"/><path class="cls-3" d="M135.33 57.8l9.37-5.76m-2.03 17.68l9.37-5.76"/><rect class="cls-2" x="177.04" y="18.38" width="33.42" height="23.68" rx="7.96" ry="7.96" transform="rotate(58.4 193.754 30.221)"/><path class="cls-4" d="M190.25 23.09c-2.57 0-2.58 4 0 4s2.58-4 0-4zm6.5 10.25c-2.57 0-2.58 4 0 4s2.58-4 0-4z"/><path class="cls-5" d="M187.82 56.62l22.22 4.82m-42.13-38.22L172.73 1m-25.64 25.26L134.78 7.14m-.27 35.99l-22.22-4.82m42.13 38.21l-4.82 22.23m25.64-25.26l12.31 19.12"/></g></g></svg>