<svg xmlns="http://www.w3.org/2000/svg" viewBox="0 0 331.53 137.28"><defs><style>.cls-1{fill:#fff}</style></defs><title>Asset 6</title><g id="Layer_2" data-name="Layer 2"><g id="Layer_1-2" data-name="Layer 1"><path class="cls-1" d="M68.53 54.5v.91L68 56.5l-.19 1.1a7 7 0 0 0-1.09 2l-.73.55a5.32 5.32 0 0 1-.91 2.37c-.18 0-.18.18-.18.36a3.1 3.1 0 0 1-.73 1.28l-.91 1.64-1.26.91c-.36 1.28-1.46 1.82-1.82 3.1a16.92 16.92 0 0 0-3.28 2.91l-1.64 1.64c-.37.37-.91.73-1.28 1.1a2.46 2.46 0 0 1-1.64.91 8.08 8.08 0 0 0-1.34.73 2.89 2.89 0 0 1-2 .9 3.69 3.69 0 0 0-.91.55c-.37 0-.37.18-.73.36a3.07 3.07 0 0 0-1.64 2 36.75 36.75 0 0 1-1.82 3.82 25.61 25.61 0 0 0-1.28 3.47L41 89.86a2.58 2.58 0 0 1-.91 2c-.18.18-.37.55-.73.91a.39.39 0 0 1-.37.37c-.91.73-1.64 1.64-2.55 2.37a4.08 4.08 0 0 1-1.09.73A13.89 13.89 0 0 0 33 97.33c-.55.18-1.09.18-1.82.36a4.21 4.21 0 0 1-3.28-1.09c-.55-.36-.91-.73-1.28-.91a4.78 4.78 0 0 1-.91-3.46 7.53 7.53 0 0 1 .73-2.92 5.09 5.09 0 0 0 1.64-2.37 5 5 0 0 0 1.46-1.27 7.75 7.75 0 0 1 2-1.46 8.4 8.4 0 0 0 1.64-1.1 3.32 3.32 0 0 1 1.46-.91 2.89 2.89 0 0 0 1.28-.73A8.86 8.86 0 0 1 39.19 80a2.15 2.15 0 0 0 .91-2v-3.27c0-.91-.18-2-.18-3.1l-.37-1.09a14 14 0 0 0-.18-2.74v-.36a17 17 0 0 1-.55-3.28 2.36 2.36 0 0 1-.18-1.1 13.62 13.62 0 0 0-.55-3.82 36.37 36.37 0 0 1-.54-4.38l-.37-.54v-.73l-1.09-3.28a6.45 6.45 0 0 0-2.92-2.92 1.12 1.12 0 0 1-.73-.18c-.73.36-1.09.91-1.82 1.09-.73.91-2 1.28-2.92 2.37-1.09.55-1.64 1.82-2.73 2.55v.55c0 .36-.36.36-.55.36l-1.09 1.1L21 59.6a14.08 14.08 0 0 0 .18 2.74 15 15 0 0 0 .19 2.91 25.53 25.53 0 0 1 .91 5.29 66.39 66.39 0 0 0 .91 10.39V82c-.37 2.37.18 4.74.54 6.93a21.28 21.28 0 0 1 .37 4.74c0 .91-.18 1.82-.18 2.73a11.54 11.54 0 0 0-.23 2.6h.19v1.28c0 .18 0 .18-.19.36a10.57 10.57 0 0 1 0 3.46 7 7 0 0 0 0 2.74 2.6 2.6 0 0 0-.36 1.09 12.48 12.48 0 0 1-.55 3.65 7.8 7.8 0 0 0-.36 2c.18.18 0 .37 0 .55a12 12 0 0 1-.73 2.37 7.8 7.8 0 0 0-.36 2l-.73.73a2.25 2.25 0 0 1-.19 1.1 3.72 3.72 0 0 1-.54 2 2.06 2.06 0 0 0-.55 1.46 1.39 1.39 0 0 1-.36.73 10.87 10.87 0 0 0-1.28 2.48l-.73.73-.36.36a15 15 0 0 1-1.46 2 13.69 13.69 0 0 1-2.19 2.37 18.22 18.22 0 0 1-2.94 2.42L8.93 136l-.91.18c-.55.37-.73.73-1.28.91-.91-.18-2 .37-3.09.19l-.92-.37A4.11 4.11 0 0 1 0 133.05c.36-.54-.18-1.45.18-2.18s1.1-.55 1.82-.73l1.28.73a2.86 2.86 0 0 1 .72 1.27c0 .91-.91 1.46-1.28 2.37a3.34 3.34 0 0 0 1.83 1.1 4.4 4.4 0 0 0 1.64-.37l.18-.18a8.21 8.21 0 0 0 2-2.92 22.91 22.91 0 0 0 1.28-3.28 2.32 2.32 0 0 0 .18-1.09c.18-1.09.55-2 .73-3.1a20.33 20.33 0 0 0 .73-3.28c0-.18-.55-.37-.36-.73l.54-.36c0-.55.19-.92.19-1.46.18-.37 0-.73 0-1.1.18-.54 0-1.27.36-1.64V113a4.51 4.51 0 0 0 0-2.19 1.39 1.39 0 0 0 .36-.73V109a12.39 12.39 0 0 1 0-3.65 7.15 7.15 0 0 0-.36-2.73c0-.37.18-.73 0-1.1A6.09 6.09 0 0 1 12 99v-1.12h.18c-.18-.88-.18-1.83-.33-2.55-.37-2-.55-4-.91-5.84a16.94 16.94 0 0 1-.19-3.1 50 50 0 0 1-.18-5.28 6.22 6.22 0 0 0-.18-1.82 27.73 27.73 0 0 1-.39-3.83 17.36 17.36 0 0 0-.54-5.29 29.13 29.13 0 0 1-.18-8 38.56 38.56 0 0 1 .36-4.55c-.18-2 .73-3.83.91-5.84a4.52 4.52 0 0 1 .73-2l1.46-3.1c1.27-1.46 2.91-2.55 4.19-4a21.45 21.45 0 0 1 3.28-.73 1.66 1.66 0 0 1 .79 1.43 6.22 6.22 0 0 1-.18 1.82 5.17 5.17 0 0 0-.37 2.92 22.58 22.58 0 0 0 .37 3.46v1.28a4 4 0 0 0 0 1.46v1.09a18.59 18.59 0 0 1 2.18-3.1l.91-1.09a38.5 38.5 0 0 1 2.91-2.74 20.86 20.86 0 0 1 2.37-1.82 7.41 7.41 0 0 0 2.74-1.28 8.17 8.17 0 0 1 3.64-.18l3.83 1.1a1.39 1.39 0 0 1 .73.36 7.12 7.12 0 0 0 2 1.09 2.75 2.75 0 0 1 1.1.92 1.84 1.84 0 0 0 .91 1.09A7.74 7.74 0 0 1 45 51a3.94 3.94 0 0 0 .91 1.46 20.08 20.08 0 0 1 2 5.11 9.65 9.65 0 0 1 .54 2.18c.37 1.28.37 2.56.73 3.83V64a38.69 38.69 0 0 0-.36 4.73c-.18 1.46-.37 3.1-.73 4.74a5.17 5.17 0 0 0-.18 2.37.64.64 0 0 0 .54.19 23 23 0 0 0 3.65-1.83 7 7 0 0 0 1.9-1.48c.18-.18.37-.54.73-.54a1.63 1.63 0 0 0 1.09-1.1l.73-.36 1.1-1.46c.54-.73 1.27-1.64 1.82-2.55a5.58 5.58 0 0 1 1.46-1.46 3.93 3.93 0 0 1 1.64-2.19c0-1.27.91-2.18 1.46-3.09.91-1.83 1.64-3.65 2.36-5.47a1.87 1.87 0 0 1 1.1-.91c.36-.19.73.36 1.27.36-.05.18-.23.37-.23.55zm-29 27.88c-.55-.18-.73-.18-.91 0a16.16 16.16 0 0 1-1.82 1.1 1.38 1.38 0 0 0-.91.36 14 14 0 0 0-2.56 2l-.18.18a11.84 11.84 0 0 0-2.37 1.82 3.19 3.19 0 0 1-1.27.91 11.28 11.28 0 0 1-1.28 1.83 7.19 7.19 0 0 1-.55 2.73l.37.73a13 13 0 0 1 1.64 1.09l.91.19c1.09-.55 2.19-.92 3.28-1.46a2.46 2.46 0 0 0 1.28-1.1A11.56 11.56 0 0 0 37 90.4a7.52 7.52 0 0 0 .73-1.27c.36-1.28 1.09-2.55 1.46-4.19 0-.19 0-.19.18-.37a9 9 0 0 0 .18-2.19z"/><path class="cls-1" d="M101.52 60.33c-.36.36-.36.91-.73 1.09l-2 2.74c-.91 1.09-1.82 2-2.74 2.91 0 0-1.27.92-2.55 2a4.69 4.69 0 0 1-1.82 1.09l-.91.55c-.55.36-1.28.55-1.82.91l-2.56.73-1.82.36c-.91.19-1.82.19-2.55.37a8.92 8.92 0 0 0-2.19 0h-.91a10.43 10.43 0 0 1-2.19-.37 4 4 0 0 1-1.45-.18 5.43 5.43 0 0 0 1.27 1.64 4.72 4.72 0 0 0 1.45 2.2 6.09 6.09 0 0 1 1.28 2.37 3.81 3.81 0 0 1 1.09 1.82c.55.73 1.09 1.1 1.27 2a4 4 0 0 0 .93 1.44c.54.92.72 1.83 1.27 2.74a5.57 5.57 0 0 0 .55 1.64c.18.91.73 1.64.91 2.37a7.39 7.39 0 0 1 .55 2.73c.36 1.46.18 2.92.73 4.19a5.78 5.78 0 0 1 .36 1.46c0 1.64.37 3.28 0 4.92 0 .19.18.37.18.55 0 1.28.37 2.55 0 3.83v.36c.19.55 0 .91 0 1.46a5.1 5.1 0 0 0-.18 1.64 3.74 3.74 0 0 0-.55 2 2.69 2.69 0 0 1-.73 1.64 6.39 6.39 0 0 1-1.27 1.82L80.56 119a11.34 11.34 0 0 1-2.37-.18 3.79 3.79 0 0 1-1.46-.73 6.88 6.88 0 0 0-1.64-.91l-.73-.73a6.81 6.81 0 0 1-2.18-2.92l-1.1-2.37a16.81 16.81 0 0 1-1.27-2.55 11 11 0 0 1-1.46-3.83c0-.36-.18-.54-.18-.73-.55-.72-.55-1.82-1.1-2.55a.63.63 0 0 0-.18-.36 11 11 0 0 0-.89-3.45c0-.36.18-.72.18-1.09l-1.09-2.91a2.71 2.71 0 0 0-.37-1.83 3.74 3.74 0 0 0 0-1.46 23 23 0 0 1-.54-3.46A5.1 5.1 0 0 1 64 85.3a8.54 8.54 0 0 0-.19-2.19v-.73a4.4 4.4 0 0 0-.54-2.73c0-.55.36-.91.36-1.28v-.18a4.32 4.32 0 0 1-.55-2.55A2.61 2.61 0 0 0 62 74c-1.46-.36-2.92.18-4.74.18a35.46 35.46 0 0 0-3.64-.91l-.92-.73c-.72-.91-.72-2.19-1.27-3.28l.57-2.73a9.5 9.5 0 0 1 4.19-2.37L60 65.43a14.19 14.19 0 0 0 2.74-.36 16.34 16.34 0 0 0 .73-4.38c0-.54.36-1.27.36-2.18a25.45 25.45 0 0 1 .17-3.28v-4.38c.36-.73.18-1.82.72-2.55s.37-1.64.92-2.19V45c.36-1.46 1.82-8.93 2-9.3a8.46 8.46 0 0 0 1.28-2.91 10.24 10.24 0 0 1 .91-2.55c.36-.73.91-2.92 1.27-3.1v-.91a7.36 7.36 0 0 0 .73-1.83c0-.36 1.28-2.73 1.64-3.64.55-1.09 1.46-2.19 2-3.28a13 13 0 0 0 1.09-1.64c0-.18.18-.37.37-.55.54-.36.73-1.09 1.27-1.82l1.8-2.72a1.75 1.75 0 0 0 .73-.91c.19-.36.55-.54.73-.73a6.18 6.18 0 0 0 1.64-1.45 5.73 5.73 0 0 0 2.37-1.1c.18-.18.37-.36.55-.36a16 16 0 0 0 2.55-1.28h1.64L92.41 6c.55 1.09.73 2.18 1.27 3.09v1.28l.73.55.59 1.66c0 .54-.18 1.09-.18 1.64v1.64c-.37.91-.18 2.18-.55 3.1a2.51 2.51 0 0 1-.18 2.55l-.18.73a14.62 14.62 0 0 1-.55 1.45 9.59 9.59 0 0 0-.55 2.37 4.11 4.11 0 0 0-.91 2 4.74 4.74 0 0 1-.9 1.65l-.55.91a3.59 3.59 0 0 1-.73 1.46 10.42 10.42 0 0 0-.91 2 6.08 6.08 0 0 1-.81 1.64 7.64 7.64 0 0 0-1.27 2.37 7 7 0 0 1-1.1 2 2.16 2.16 0 0 1-.91.91 4.19 4.19 0 0 0-1.27 1.28 5.22 5.22 0 0 1-1.46 2 3.78 3.78 0 0 0-.73 1.09c-.36.37-.55.92-.91 1.28-.37.18-.37.73-.91 1.09a14.09 14.09 0 0 1-1.64 1.64c-.73.73-1.1 1.46-2 1.64a2.48 2.48 0 0 0-1.09 1.28l-.55 2.37c-.18.91.55 1.46.37 2.19 0 .54-.55.54-.73 1.09l.2 1.47-.36.91c-.19.36 0 .91-.37 1.46a2.17 2.17 0 0 0 .18 1.82l.73 1.09-.36.73a2.56 2.56 0 0 1 0 1.64 3.57 3.57 0 0 0 .54 2.37h.19c0 .37.18.73.18 1.1.18 0 .18.18.36.18a6.67 6.67 0 0 1 2 .36h1.09a18.05 18.05 0 0 0 3.1.19 15.25 15.25 0 0 1 2.92-.37 7.61 7.61 0 0 1 .91-.18 7.61 7.61 0 0 1 .91-.18c.91-.19 1.82-.73 2.55-.91a8.19 8.19 0 0 0 2.73-1.46c0 .18 1.1-.37 1.1-.55a6.3 6.3 0 0 1 1.64-1.27c.36-.37.91-.55 1.09-1.1a10.45 10.45 0 0 0 2.19-2.73l1.28-1.64.72-.91v-.19c.55-.18.55-.73.92-.91.92.18 1.28.18 1.28 1.46zM62.15 70.54a1.37 1.37 0 0 0-.73-.73 1.37 1.37 0 0 1-.73-.37A7.38 7.38 0 0 1 57.78 68a5.71 5.71 0 0 0-2.55.36c-.37.36-.92.55-1.1 1.09 0 .73.73 1.1.91 1.46 1.1.55 2 1.46 3.28 1.46.92-.55 2.19-.36 3.29-.55a2.73 2.73 0 0 0 .54-1.28zm14.22 8.56c-.18-.73-.91-1.27-1.46-1.82h-.18a1.21 1.21 0 0 0-.91.73 80.18 80.18 0 0 0 .36 9.11 3.76 3.76 0 0 0 .37 2.74 20.38 20.38 0 0 1 .36 3.1.25.25 0 0 1 0 .36v.55l.37.73c.18.73 0 1.45.18 2.18.18.37.54.73.54 1.1 0 .54-.36 1.09-.18 1.82.55.73 0 2 .91 2.73.37.19.73 3.65.73 4.56a16.19 16.19 0 0 1 1.28 4.19l.55.55a3.19 3.19 0 0 0 1.09 2.37c.36.18.55.73.91 1.09 0 .18.18.37.55.55.36-.18.91-.18 1.09-.37 1.09-1.09.91-2.55 1.64-3.46a8.94 8.94 0 0 1 .37-3.1 2.56 2.56 0 0 0 0-1.64 3.84 3.84 0 0 1-.19-1.46 3.11 3.11 0 0 0-.18-1.27v-2c-.18-2 0-4-.55-6l-.54-1.09c.73-1.28 0-2.19-.55-3.29A7.64 7.64 0 0 0 82 89l-.55-1.28a6.31 6.31 0 0 0-1.09-2.55l-.55-1.28a9 9 0 0 1-.54-1.27c-.73-.19-1.1-.91-1.46-1.46a7 7 0 0 0-1.46-1.82zm-1.46-33.17a6.66 6.66 0 0 1 .37 2 .63.63 0 0 0 .18.36c.73-.18 1.09-.91 1.46-1.28l.73-.36a27.62 27.62 0 0 0 4-5.47 14.79 14.79 0 0 0 2.74-3.1 3.52 3.52 0 0 1 1.09-2.37c0-.18.18-.36.18-.54.73-1.28 1.28-2.74 2-4a11 11 0 0 1 1.09-2 9.8 9.8 0 0 0 2-4.74c.18-.54.54-.91.54-1.27a14 14 0 0 0 .73-4v-2a6.17 6.17 0 0 0 .55-2c-.18-.55-.18-1.1-.36-1.82a6.66 6.66 0 0 0-.37-2 2.67 2.67 0 0 0-.53-1.34c-.54-.18-.72-.72-1.09-1.09l-2.37.37a2.85 2.85 0 0 0-1.46 1.09A4.6 4.6 0 0 1 84.75 12a4 4 0 0 0-.54.91 2.53 2.53 0 0 1-.55 2.19c-.55.91-.55 2-1.28 2.73v.73a35.62 35.62 0 0 1-1.82 3.83 3.45 3.45 0 0 0-.36 1.46c0 .91-.19 2-.19 3.1 0 .18-.18.18-.18.36-.18.55-.18 1.09-.36 1.46l-.55 1.46a2.72 2.72 0 0 0-.73 1.64c-.18 1.09-.54 2.18-.73 3.46a3.25 3.25 0 0 0-.91 1.28 7.7 7.7 0 0 1-.91 1.64 8.27 8.27 0 0 1-.18 2v2.19a8.81 8.81 0 0 1-.37 2.19 1.5 1.5 0 0 0-.18 1.3zM176.43 93a7.44 7.44 0 0 1 1.28 2 16.3 16.3 0 0 1 .91 3.1 9.28 9.28 0 0 1 .36 2.19c-.36 2.18-.55 4.37-1.64 6.19a17.33 17.33 0 0 1-.91 1.83c-.73.73-1.64 1.27-2.37 2a1 1 0 0 1-.73.37 8.13 8.13 0 0 0-2.91 2.18 3.32 3.32 0 0 1-1.28.37c-.91.18-1.64.18-2.73.36a4.85 4.85 0 0 0-2.74.18l-1.46-.36-3.64.73c-1.46-.18-2.74-.73-4.19-.91-1.46 0-2.74-.91-4.2-.55-1.64-1.09-3.64-1.46-5.1-2.19h-1.46c-1.46-.54-2.55-1.82-4-2.18a9.59 9.59 0 0 1-2.37-.55 7.61 7.61 0 0 0-2.91-.37c-.55 0-1.1-.18-1.64-.18a30.82 30.82 0 0 1-4 .91c-1.28 1.28-1.46 3.28-2.92 4.38l-2 .18c-.18-.18-.54-.18-.72-.36a15 15 0 0 0-1.46-2.92c-.18-.36-.37-.55-.37-.91-.54-2.19.37-4 .55-6a45.29 45.29 0 0 1 3.46-5.83c.91-1.46 1.83-2.91 2.92-4.92 1.28-1.46 2.73-3.46 4.56-5.29a36.73 36.73 0 0 1 3.46-4c1.27-1.09 2.37-2.55 3.64-3.64a3.28 3.28 0 0 1 .73-.91 35.64 35.64 0 0 0 5.47-6.2 12.26 12.26 0 0 1 2.37-2.92 5.57 5.57 0 0 1 .91-1.27 3.32 3.32 0 0 1 .91-1.28c1.64-2 3.47-4 5.11-5.83a2.65 2.65 0 0 1 .73-.73l1.09-.91c1.64-2.37 3.46-4.56 5.1-6.93a25.89 25.89 0 0 0 1.46-2.37V47a17.28 17.28 0 0 1 2-4.92 45 45 0 0 0 .18-4.92c0-.91-.18-1.82-.18-2.73a11 11 0 0 0-.73-3.1 1.52 1.52 0 0 1-.55-.91c-.55-2.37-2.37-4-3.65-5.83a5.44 5.44 0 0 0-1.45-1.46 25 25 0 0 0-2.37-1.64c-.37-.18-1.1-.37-1.64-.55a7.88 7.88 0 0 0-2-.36c-.54 0-1.09-.19-1.64-.19a3 3 0 0 0-2.19.19l-.72.18a7.14 7.14 0 0 1-3.65 1.46 6.24 6.24 0 0 0-2 .73l-1.28.54c-.91.91-2.19 1.28-3.1 2.19a9.72 9.72 0 0 1-1.46 1.09 4.84 4.84 0 0 1-1.27 1.48 23.51 23.51 0 0 0-1.83 2.19 2.16 2.16 0 0 1-.91.91 8.86 8.86 0 0 1-1.46 1.28l-.91 2.18-1.27 1.64-.37 4a18.25 18.25 0 0 0-.91 4c0 .37-.18.73 0 1.1a31.11 31.11 0 0 0 .91 3.82c.37.92.55 1.83.91 2.74 1.46 2 3.1 3.83 6.2 4.56a26.88 26.88 0 0 0 3.83 0 5.81 5.81 0 0 0 4.89-2.67 18.75 18.75 0 0 0 2.37-5.1V47L146 45.75c-.36-1.64 0-2.73 1.46-3.46a1.06 1.06 0 0 1 .73-.19H150a4.27 4.27 0 0 1 1.82 3.1l-.73 2.19.19 1.28a5.23 5.23 0 0 0-.73 1.82c-.18.73-.91 1.27-1.1 2.19a7 7 0 0 1-.72 2.36l-3.83 3.65-3.65 1.31-4.55.18-1.28-.37c-1.28-.73-2.73-1.45-4-2.18a5.45 5.45 0 0 1-2.19-1.83 8.67 8.67 0 0 0-1.82-2.18c-.36-1.1-.91-2.56-1.46-3.83a10.43 10.43 0 0 1-.54-3.28 18.58 18.58 0 0 1 .72-7.11 44.9 44.9 0 0 1 2.37-6.93l.55-.91a13.08 13.08 0 0 0 3.1-3.28 27.32 27.32 0 0 1 4.56-4.56l.91-.54a15.29 15.29 0 0 0 2.38-1.31 14.78 14.78 0 0 1 4.55-2.18c1.46-.55 2.74-.92 4-1.46a13 13 0 0 1 2-.73 27.89 27.89 0 0 1 6.74-.18 10.64 10.64 0 0 1 2.55.54 32.16 32.16 0 0 1 5.47 3.1 21.1 21.1 0 0 1 4.56 4.37c.73.92 1.46 2 2.19 3.1l.72 1.64a12.87 12.87 0 0 1 .92 2.37 8.59 8.59 0 0 0 .91 3.1 8.73 8.73 0 0 1 .18 5.29 25.14 25.14 0 0 1-2 5.47 3.81 3.81 0 0 0-.72 2c-.19 1.64-1.28 2.73-2 4-1.09.91-1.64 2.19-2.55 3.1a10 10 0 0 0-2 3.28c-1.09 1.09-2.55 2-2.91 3.46-.73.73-1.46 1.1-1.83 2v.91l-.36.55c-1.64 1.64-3.28 3.46-5.1 5.1a9.7 9.7 0 0 0-2 2.55 3.72 3.72 0 0 1-1.46 1.46 9.24 9.24 0 0 0-2.73 2.55 10.58 10.58 0 0 1-1.46 1.46c-.36.55-.73 1.28-1.27 2l-1.46.92-1.1 1.82a12.31 12.31 0 0 0-1.27 1.64 7.83 7.83 0 0 0-2.92 2.55 19.9 19.9 0 0 1-2 2l-.59 1.35c-1.09 1.28-1.64 2.74-2.73 4a5.86 5.86 0 0 0-.73 2.55 19.78 19.78 0 0 0-2.55 3.83c0 .91-.55 2-.55 3.1.55.55 1.09.36 1.64.18h1.46a14.51 14.51 0 0 0 2.55.37 11.25 11.25 0 0 1 2.37.54c.91.18 1.82.18 2.73.37.91.36 1.83.73 2.92 1.27a11.16 11.16 0 0 0 3.46 1.28 2.64 2.64 0 0 1 1.1.36c2.55 1.1 5.46 1.46 8.2 2a22.56 22.56 0 0 0 2.73.73c1.28-.19 2.37-.73 3.65-.55h3.46c1.28-.73 2.73-1.09 3.83-2 1.64-.55 2.73-1.65 4-3.47l1.27-2.73a21.63 21.63 0 0 0 0-6 15.87 15.87 0 0 1-1.82-2.91 5.34 5.34 0 0 0-2.55-2.37c-1.64-.37-1.64-.37-4.56 0-.18.18-.54.36-.73.73a3.65 3.65 0 0 0-1.09.73 1.37 1.37 0 0 0 0 1.82l1.64-.37a4.85 4.85 0 0 1 1.64.92 13 13 0 0 1 .18 2.55 2.26 2.26 0 0 1-1.09 1.46 6.89 6.89 0 0 1-2.74-.19l-2.18-1.09c-.55-.73-.73-1.64-1.1-2.19v-2.6l1.28-2.19a16.67 16.67 0 0 1 3.65-2.55c.91-.18 2.18-.18 2.91-.91a11.79 11.79 0 0 1 7.12 5.33zm82.74-11.34a7.1 7.1 0 0 1-1.09 2.73c-.18.36-.18.91-.36 1.28l-.55 1.27a25.68 25.68 0 0 0-1.64 4 6.68 6.68 0 0 1-1.64 2.55 13.51 13.51 0 0 1-3.28 5.29 21.76 21.76 0 0 0-2.37 3.28c-.73.91-1.28 1.82-2.19 2.19a28.41 28.41 0 0 1-2.19 2.37 26.4 26.4 0 0 0-2 2.37 21.17 21.17 0 0 0-2.55 1.82 4.72 4.72 0 0 1-2.19 1.46l-2.73 1.64a8.69 8.69 0 0 1-2.92 1.45 58.82 58.82 0 0 0-6.56 1.65h-5.1a4.68 4.68 0 0 0-1.28.36 27 27 0 0 0-3.65-.55 34.78 34.78 0 0 1-4.73-.91 21.7 21.7 0 0 0-4.74-.73c-1.64-.54-3.28-1.27-4.74-1.82a4.53 4.53 0 0 0-2.19-.73 1.55 1.55 0 0 1-1.09-.55c-1.64-1.27-3.47-2.18-5.11-3.64l-2.55-2.92a2.65 2.65 0 0 1-.73-.73l-.54-1.09-1.1-.91c-.18-.18-.36-.37-.36-.55l-2.19-4.74a13 13 0 0 0-1.09-1.64l-.19-1.09-1.09-1.09a4.28 4.28 0 0 0-.73-1.28l-1.64-1.28c0-.73.73-.91.91-1.82l-1.27-5.47a6.89 6.89 0 0 0-.37-3.82 6 6 0 0 1 0-3.1 20.11 20.11 0 0 0 .18-3.28 10.09 10.09 0 0 1 0-3.29 33.06 33.06 0 0 1 .37-4 7 7 0 0 0 .18-2 5.2 5.2 0 0 1 .37-2.92l-.55-1.09a3.07 3.07 0 0 1 .36-.91l1.64-1.82a4.44 4.44 0 0 0 .19-2.19 34.23 34.23 0 0 0 2-6.56 10.47 10.47 0 0 0 1.46-2.37 8.14 8.14 0 0 1 2.19-3.65 4 4 0 0 1 .54-.91 16.89 16.89 0 0 1 1.28-2.55v-.91a24.3 24.3 0 0 1 3.45-4.19 4.12 4.12 0 0 0 .55-.92c.73-1.09 1.27-2.18 2-3.09.55-.73 1.1-1.1 1.64-1.83l1.64-1.82a19.1 19.1 0 0 0 2.74-2.73l2.73-2.74a6 6 0 0 1 .91-.73c1.46-.72 3.1-1.45 4.74-2.37l2.38-1.04c.91-.36 1.64-.73 2.37-1.09a12.14 12.14 0 0 1 2.37-.91l1.46.36 2-.55a6.6 6.6 0 0 0 1.83-.36H224a6.39 6.39 0 0 0 3.64-.55 5.07 5.07 0 0 1 1.64.18c1.46.37 2.92.37 4.56.73a8.15 8.15 0 0 0 2.19 0 3.85 3.85 0 0 1 2 .92 12.59 12.59 0 0 0 2.74.91l2.55 2.73 2.55.73a16.93 16.93 0 0 0 2.92 3.46c.18.18.36.37.36.55.91 1.64 2.19 2.92 3.1 4.37a2.27 2.27 0 0 0 .55.73c.54 1.64 1.82 3.1 2.55 4.74a17.27 17.27 0 0 0 3.1 4.92c1.27 2.74 1.64 5.47 3.09 8l.19 3.28L263 53.4a23.49 23.49 0 0 0-.36 6.2 11.34 11.34 0 0 1 .18 2.55 5.11 5.11 0 0 0 .18 2.37 6.77 6.77 0 0 1-.18 3.28 7.88 7.88 0 0 0-.36 2 14.22 14.22 0 0 1-.37 2.73c-.73 1.82-1.09 3.83-1.64 5.65v.91a6.79 6.79 0 0 0-1.28 2.57zM217.44 19l-1.64.54a6.77 6.77 0 0 0-1.64.73c-1.65 1.28-3.47 2.19-5.11 3.46a12 12 0 0 0-3.1 3.65 2.6 2.6 0 0 1-.36 1.09 7.19 7.19 0 0 1-3.1 3.47l-1.64 2.55-.18 1.82a6.21 6.21 0 0 0-.73 1.64 13.78 13.78 0 0 1-1.64 3.28 3.8 3.8 0 0 0-.73 2 6 6 0 0 1-.73 2.55 13.45 13.45 0 0 1-.91 2.19c0 .91.36 1.45.18 2l-1.28 2.19c.19 2-.91 4-.72 5.47a12.49 12.49 0 0 1-1.28 3.28c0 .91.55 1.27.36 2l-1.09 2.19c0 .36-.18.73 0 1.09l.55 2.74c.36.54.91 1.09.73 1.82l-1.1 1.46c-.36.91.19 1.46 0 2l-.73 2.74c.55 1.45.37 2.91.55 4.55 1.09 1.64 1.09 3.65 2 5.29a10.89 10.89 0 0 0 .36 2.55 4.58 4.58 0 0 1 .18 1.64 11.31 11.31 0 0 0 1.64 5.83c.73 1.28 1.28 2.74 2 4a31.63 31.63 0 0 1 3.28 3.65l3.28 3.28a10.87 10.87 0 0 1 2.55 1.28 12 12 0 0 0 2.19.91l2.55.54 2 1.28c.91.18 2 0 2.91.73l1.28.91a17.87 17.87 0 0 0 6.19 0c1.1-.18 2-.73 2.92-.91 1.09-.18 2-.91 2.92-1.1A5.31 5.31 0 0 1 232 111a14.44 14.44 0 0 0 2.55-.91 28.37 28.37 0 0 0 3.46-1.46c.91-.91 1.82-2 2.74-3.1l1.45-.54c1.28-1.28 2.37-2.92 3.65-4.2.91-1.64 2.37-2.91 3.46-4.55 1.46-3.65 3.28-8.57 4.38-10a9.73 9.73 0 0 1 .54-2.19l.77-1.85c.19-.36.19-.54.37-.73.73-3.28 2-6.19 2.55-9.47a14.48 14.48 0 0 0 .36-2.92 12.12 12.12 0 0 1 .19-3.65 1.17 1.17 0 0 0 0-1.09c-.37-2-.19-4-.92-5.65a14.16 14.16 0 0 0 0-4 14.39 14.39 0 0 1-.54-4 16 16 0 0 0-.91-5.1 19.48 19.48 0 0 1-.73-2.74l-1.46-2.91-.18-2.19a32.8 32.8 0 0 0-5.47-7.47l-.75-1.28c-.91-1.09-1.82-2-2.73-3.1a16.11 16.11 0 0 0-5.11-4.19l-1.09-.71-1.64-1.09c-.55-.18-1.1-.55-1.64-.73l-.18-1.28-.92-.54a5.86 5.86 0 0 1-2.37.36 6.73 6.73 0 0 0-3.28-.36c-2-.19-4 0-6.19 0a.67.67 0 0 0-.55.18l-1.64.73-1.46.18z"/><path class="cls-1" d="M291.07 111l-.54.55a2.68 2.68 0 0 1-1.28.36c-2 0-3.83.18-5.83 0a13.47 13.47 0 0 0-3.83.37 12.17 12.17 0 0 1-2.55.18h-3.83a47.41 47.41 0 0 0-7.29 1.27l-.73.19c-.73-.19-1.27-.55-1.27-1.46l.36-.73a50.27 50.27 0 0 1 6-2.19l1.65-1.09 1.64-2.19a4.69 4.69 0 0 0 .36-2.19 12.73 12.73 0 0 1-.18-4.55v-1.28c-.55-1.82-.18-3.64-.18-5.28.18-2.92.18-5.84.18-8.57 0-2.92.18-5.83 0-8.75v-4.56a5.34 5.34 0 0 0-1.1-3.64l.55-1.28-.2-1.64a18.59 18.59 0 0 0 .18-5.47 4 4 0 0 1-.18-1.45 9 9 0 0 0-.18-4.38c0-2-.19-3.83-.19-5.65-.18-.55 0-1.09-.18-1.64a11.92 11.92 0 0 1-.18-4.37c0-.19.18-.37.18-.55a71.42 71.42 0 0 1 .91-8.93l-.36.36-2.92 2.19a2.9 2.9 0 0 0-1.46.55 5.64 5.64 0 0 1-4.55.18l-2.74-.55a4.59 4.59 0 0 1-1.82-1.46 3.43 3.43 0 0 1 1.49-3.09 3.12 3.12 0 0 1 2.92.36c.91.55.54 1.28 1.09 2l.73.36a21.06 21.06 0 0 0 3.64-.55A10.14 10.14 0 0 0 272.3 29l.91-.55A3.73 3.73 0 0 0 274.3 27l.37-1.65c0-.54.18-.91.18-1.27a11.3 11.3 0 0 1 1.64-5.47 1.41 1.41 0 0 0 .37-.91 4.63 4.63 0 0 1 2.18-.36 4.18 4.18 0 0 1 2.19 1.45 9.5 9.5 0 0 1 1.28 4.38 13.84 13.84 0 0 1 0 2.73 20.49 20.49 0 0 0 .36 4.74 6.1 6.1 0 0 0-.36 2.55v.91c-.73 2.37-.37 4.74-.37 7.11.37 1.46.37 2.92.73 4.38a6.78 6.78 0 0 1-.18 2.73c.55 2.19.91 2.55 0 6 .18.54.18 1.27.36 1.82l.55 1.46c.18 1.27-.36 2-.18 2.91a12.17 12.17 0 0 1 .18 2.55 12.34 12.34 0 0 0 .55 2.56 16.74 16.74 0 0 0 .36 5.28 20.44 20.44 0 0 0-.36 3.28c0 1.46.18 2.74.36 4.56a6.66 6.66 0 0 0-.36 2 7.54 7.54 0 0 1-.19 2.92 4.69 4.69 0 0 0-.36 2.19 12.53 12.53 0 0 1-.36 2.73 9.53 9.53 0 0 1 .36 2 5.44 5.44 0 0 1-.36 1.64c0 1.09-.19 2.37-.19 3.46a19.5 19.5 0 0 1-.36 4.56l.36 1.45-.54 1.65a.66.66 0 0 0 .18.54c.73 1.46.91 3.1 2.19 4.56.18 0 .73.18 1.09.18a10.09 10.09 0 0 1 4.56 1.28zM312.21.36a4.2 4.2 0 0 1 2.56.37.8.8 0 0 0 1.09.36c.55.55 1.09 1.28 2 1.28A7.25 7.25 0 0 0 319.5 4c.37 0 .37.36.55.55a1.84 1.84 0 0 0 .73.91c.18 0 .37 0 .37.18.18.55.72.91.72 1.64.55.18.55.91 1.1 1.09.18.37.18.73.36 1.1h.55a.66.66 0 0 1 .18.54 12.34 12.34 0 0 1 .91 1.65 9.36 9.36 0 0 1 .91 1.45V14c.19.19.37 0 .55.19.18.36 0 .73 0 1.09.73.18.91.73 1.09 1.46a2 2 0 0 1-.18.91.64.64 0 0 0 .18.91 5.66 5.66 0 0 1 .55 1.64 1.64 1.64 0 0 1-.18.91 2 2 0 0 1 0 1.46 5.1 5.1 0 0 0 .18 1.64c.18.18.18.37 0 .73 0 .55-.36.91 0 1.46-.18.18-.18.55-.36.91v.36c.18.73-.19 1.46 0 2.19 0 .37-.19.55-.55.91a1.38 1.38 0 0 1-.55 1.64c0 .37.19.55.19.91a2 2 0 0 0-.37 1.46c0 .55-.36.91-.55 1.46a.89.89 0 0 0-.18 1.28c-.18.36-.36.54-.36.91-.37.18-.55.73-.91.91-.37.55-.19 1.09-.55 1.64 0 .18-.18.55-.37.55-.18.36-.18.73-.36 1.09 0 .37 0 .55-.36.73a.65.65 0 0 0-.19.55c0 .18-.18.36-.18.54-.55.19-.73.55-1.09.73-.18.55 0 1.1-.37 1.64-.54 0-.54.55-.73.91a1.11 1.11 0 0 1-.54 1.1c0 .36-.55.73-.37 1.09a4.39 4.39 0 0 0-.91 1.82l-.55.37c-.54.18-.54.36-.18.91-.54 1.09.37 3.46 1.64 4.19a5 5 0 0 0 1.68 2.22 6.63 6.63 0 0 0 1.28 1.82c.18.18.18.37.55.55l.17.21a1.81 1.81 0 0 0 1.09.91c-.36.55 0 .91.18 1.28a2 2 0 0 1 .55 1.46l.55.36c0 .37.36.73.54 1.09a5.17 5.17 0 0 1 1.46 2.56c.18.54.55.91.55 1.45a1.13 1.13 0 0 1 .36 1.28 3.07 3.07 0 0 1 .73.91 4.76 4.76 0 0 0 .37 1.28c-.37.36 0 .91 0 1.46a4 4 0 0 1 .91 2c.18.55.18 1.09.36 1.64a1.51 1.51 0 0 1 0 1.28c0 .36.37.73-.18.91a7.86 7.86 0 0 1 .55 2c0 .55.18 1.1.18 1.64 0 .37.18.37.36.55v.91a1.4 1.4 0 0 0-.18 1.64A3.49 3.49 0 0 0 331 90a1.63 1.63 0 0 1-.18 1.28 10.57 10.57 0 0 0-.55 2.37 5.65 5.65 0 0 0-.18 1.82 1 1 0 0 1-.55.91 16.35 16.35 0 0 0-1.09 2.73 3.34 3.34 0 0 1-.55 1.1 4.31 4.31 0 0 0-.37 1.45 1.38 1.38 0 0 1-1.09 1.46 2.89 2.89 0 0 1-.73 1.28c-.18.36-.18.73-.36 1.09-.55.37-1.28.55-1.28 1.28-.18.73-1.09.54-1.09 1.27-.73.19-.91.92-1.64 1.1l-.37.54c-.36 0-.54.19-.91.55h-.55c-.18.18 0 .37-.36.55s-.91.18-1.28.73h-.54a5.31 5.31 0 0 0-1.64.36 5 5 0 0 1-2.37.55 1.36 1.36 0 0 0-1.1.36 1.07 1.07 0 0 1-1.27.19c-.37.18-.73.36-.91.18a3 3 0 0 0-2.19 0c-.36-.18-.91 0-1.28-.18a2.64 2.64 0 0 0-1.27-.55c-.37-.18-.73-.18-1.1-.37h-.2a3.24 3.24 0 0 0-1.82-.73.24.24 0 0 1-.36 0c-.37-.54-.92-.54-1.46-.72a1 1 0 0 1-.37-.73l-.18-.19a4.19 4.19 0 0 1-1.28-1.27c-.18-.18-.36-.18-.72-.37-.55 0-.73-.54-.73-1.09-.37-.18-.55-.55-.92-.73a2.49 2.49 0 0 0-.91-1.46.84.84 0 0 0-.54-.91c-.37 0-.55-.36-.73-.73a8.84 8.84 0 0 0-.91-1.82c-.19-.36-.19-.91-.55-1.09a5.31 5.31 0 0 0-.36-1.64 10.25 10.25 0 0 1-.37-2.37 7.61 7.61 0 0 1-.18-2c0-.36.36-.73.18-1.27-.18-.19-.55-.37-.55-.73s.37-.37.37-.55c.55-.73.55-1.64 1.09-2.37l.18-.18a8.11 8.11 0 0 1 1.1-2.92c.18-.36 0-.73.18-1.09l.36-.55a3.65 3.65 0 0 0 .73-1.09 2.52 2.52 0 0 0 .37-1.1 14.22 14.22 0 0 0 1.27-2.91 2.58 2.58 0 0 0 .37-1.28 3.16 3.16 0 0 0 1.27-1.46 10.17 10.17 0 0 1 .92-1.45l.91-1.64a2.18 2.18 0 0 1 .91-.92c.18 0 .36-.36.55-.54a1.12 1.12 0 0 1 .54-1.1c.18-.18 0-.36.18-.54a2.89 2.89 0 0 0 .73-1.28c.19-.73.91-1.27 1.28-1.82a2.27 2.27 0 0 1 .55-.73c0-.36.18-.55.36-.55a7.94 7.94 0 0 1 .73-1.27 6.25 6.25 0 0 0 1.64-2.19 1 1 0 0 1 .36-.73.58.58 0 0 0 .55-.55c-.18-.36-.73-.54-.73-.91a2.72 2.72 0 0 1-.18-1.09c-.36-.55-.91-.37-1.28-.73a1 1 0 0 0-.36-.73c-.18-.18 0-.36 0-.55-.37-.18-.37-.72-.91-.91-.37-.18-.37-.73-.73-1.09a2 2 0 0 0-.91-.73c-.18 0-.18-.18-.37-.36.19-.37 0-.73-.18-1.1a3.94 3.94 0 0 0-1.09-1.43c-.18-.18-.37-.54-.73-.91-.18-.18-.37-.36-.55-.36-.73-.91-.91-1.82-2-2.19a2.33 2.33 0 0 0-1.28-1.64L296.36 45a2.75 2.75 0 0 0-.55-.73 5.59 5.59 0 0 1-1.09-2.37 1.79 1.79 0 0 1-.72-.9 7.47 7.47 0 0 0-.91-1.64l-.55-1.46a2.6 2.6 0 0 0-.36-1.09 1.41 1.41 0 0 0-.37-.73v-1.27a2.31 2.31 0 0 1-.73-1.82c.18-.73-.18-1.46.18-2.19-.36-.54 0-1.27 0-1.82s.19-1.09.19-1.64c0-.36.36-.36.36-.55a3.35 3.35 0 0 1 .73-1.64c0-.18.36-.54.36-.73 0-.36.37-.36.55-.73a5.31 5.31 0 0 1 1.64-1.82l.37-.54a9.94 9.94 0 0 0 2-1.83 3.86 3.86 0 0 1 1.46-.73l1.09-.54a6.12 6.12 0 0 1 3.1-.91h1.46a7.5 7.5 0 0 1 2.92.36 1.67 1.67 0 0 1 .91.18.66.66 0 0 1 .54.18 21.69 21.69 0 0 0 2 .92c.18-.19.36-.19.73-.19.18.19.54.37.91.73a.39.39 0 0 0 .36.37c.37 0 .73.36 1.1.54.18 0 .36.19.54.37l1.42 1.09a4.67 4.67 0 0 0 1.64.91l.18.19c.19.54.73.91.73 1.64 0 .36.19.91 0 1.27 0 .37.19.55.37.91a2.93 2.93 0 0 1 .73.55 4.07 4.07 0 0 1 .18 1.46c0 .55-.18.91-.18 1.46-.55.54-.73 1.27-1.83 1.45v-.18a.18.18 0 0 1-.18-.18.94.94 0 0 1-.73.36c-.73-.18-1.09-.72-1.82-1.09.18-.55 0-.91.18-1.46.19-.36 0-.91 0-1.27a5.16 5.16 0 0 0 1.73-1.83v-.18a3.24 3.24 0 0 0-1.45-1.64c-.55-.36-.92-.91-1.46-1.27a5.6 5.6 0 0 0-1.1-.55c0-.18-.18-.18-.36-.18a1.41 1.41 0 0 0-.73-.73 3.47 3.47 0 0 1-1.9-.91 2.58 2.58 0 0 0-1.28-.37c-.73 0-1.27-.36-2-.36a8.81 8.81 0 0 1-2.19-.37H304c-.54.19-.54.19-.91 0-.55 0-1.09.37-1.64.37a.39.39 0 0 0-.36.36 2.52 2.52 0 0 0-1.1.37.39.39 0 0 1-.36.36 8.31 8.31 0 0 0-2.19 1.09 1.59 1.59 0 0 1-1.09 1.46 3.18 3.18 0 0 0-.91 1.46c-.19.55-.19.91-.55 1.28a1.84 1.84 0 0 1 .36 1.64c0 .73.19 1.64.19 2.37 0 .18.18.36.36.73a2.34 2.34 0 0 0 .18 1.09 3.81 3.81 0 0 1 1.28 2.37v.18a18.72 18.72 0 0 1 1.65 2.37 9.72 9.72 0 0 1 1.09 1.46c0 .18.18.18.18.36a19.66 19.66 0 0 0 2.19 1.83c.18 0 .37.18.55.36 0 .36.36.55.55 1.09.18.19.36.37.54.37a3.16 3.16 0 0 1 1.1 1.09 2.49 2.49 0 0 1 .72.55 7.14 7.14 0 0 1 2.17 1.82 11.17 11.17 0 0 0 1.46 1.46 8.08 8.08 0 0 1 1.28.73c.18 0 0 .18.18.36.55 0 .91.55 1.46.55l1.27 1.09c0 .19-.18.19-.18.37v.36l.55.37h.54c.37 0 .37.36.73.36.19-.18.37-.73.73-.73.18-.54.37-1.09.91-1.27a1.67 1.67 0 0 1 .73-1.46 1.34 1.34 0 0 1 .37-.73 1.39 1.39 0 0 0 .36-.73 3.24 3.24 0 0 1 .73-.91 1.66 1.66 0 0 1 .73-1.46c0-.73.73-.91 1.09-1.46l.19-.73c0-.18.18-.36.18-.54a1 1 0 0 0 .54-.91c0-.19 0-.55.19-.55a3.43 3.43 0 0 0 .36-1.28 2.41 2.41 0 0 1 .55-.91 4.18 4.18 0 0 0 1.09-2.19l.18-.36c.19-.55.19-1.09.37-1.64a6.89 6.89 0 0 1 .18-1.82l.55-1.64c0-.19.18-.37.18-.73 0-.73.36-1.46.36-2.19a4.28 4.28 0 0 0 0-2.19 7.15 7.15 0 0 0 .19-2.18 8.54 8.54 0 0 1-.19-2.19c-.18-.37-.18-.91-.36-1.46a5 5 0 0 1 0-1.64 2.6 2.6 0 0 0-.36-1.09c-.37-.19-.37-.55-.37-.91a5.59 5.59 0 0 1-1.09-2.37l-1.46-1.64-.37-.19v-.18l-.18-.18v-.73a7.21 7.21 0 0 0-2.19-2.55 3.24 3.24 0 0 0-1.45-2 5.87 5.87 0 0 0-1.64-1.27A10 10 0 0 0 314 3.28h-.73l-.37-.36c-.54 0-1.09-.19-1.64-.19l-.91.55a1.38 1.38 0 0 1-.91-.18c-.36.36-.91.18-1.46.55 0 .54-.73.72-.73 1.27.19.37.55.18.73.55h.73a1.1 1.1 0 0 1 1.28.18l.54.37.55 1.09c0 .18-.18.36 0 .55.55.72-.18 1.27-.36 1.82-.55.18-1.1.18-1.46.73a1.36 1.36 0 0 1-1.1.36c-.36 0-.18.37-.36.37a1 1 0 0 1-.73-.37 1.56 1.56 0 0 1-1.28-.36c-.18 0-.18-.37-.54-.55-.18-.18-.55 0-.91-.18a1.44 1.44 0 0 0-.73-.73 14.22 14.22 0 0 1-.33-2.75 2.57 2.57 0 0 1 .19-1.65 2.22 2.22 0 0 1 .91-.91 8 8 0 0 1 1.09-1.27 2.75 2.75 0 0 0 .73-.55 4.27 4.27 0 0 1 1.8-.89.68.68 0 0 0 .55-.18A3.3 3.3 0 0 1 310 .18a1.41 1.41 0 0 0 .73-.18h1.09zm8.39 77.1c-.55-.54-.55-1.27-.91-1.82-.55-.55-.91-1.28-1.46-1.46-.18-.36 0-.54 0-.73-.37-.18-.18-.73-.18-.91-.19-.36-.37-.36-.73-.54-.18-1.1-.91-1.65-1.46-2.56a5.19 5.19 0 0 1-1.09-2 2.46 2.46 0 0 1-1.64-.91V66c-.55-.36-.55-1.28-1.28-1.28-.18-.18 0-.54-.36-.91l-.37-.18c-.36-.18-.36-.55-.73-.73-.73.37-1.09.73-1.09 1.46-.37.18-.37.73-.73.91a1.79 1.79 0 0 0-.73.91 3.76 3.76 0 0 1-1.09 1.28c-.19.91-1.1 1.46-1.1 2.37a7.26 7.26 0 0 0-1.46 1.82c0 .18-.18.37-.36.55a9.79 9.79 0 0 0-.91 1.46 1.56 1.56 0 0 1-.73 1.27c0 .18-.18.37-.18.55a.39.39 0 0 1-.37.36 1.6 1.6 0 0 0-.54 1.1c-.55.36-.73.91-1.1 1.45a1.43 1.43 0 0 1-.36.92c-.37.54-.37 1.27-1.28 1.45a1.2 1.2 0 0 1-.54 1.64c.36.37 0 .73 0 1.1l-.37.36c-.18.37 0 .55-.18.91a2.54 2.54 0 0 0-.55 1.64 1.38 1.38 0 0 0-.73 1.28c-.36.36-.54 1.09-.91 1.46.18.55-.36.91-.36 1.46a1.49 1.49 0 0 1-.37 1.45 4 4 0 0 1 0 1.46 1.19 1.19 0 0 0 0 1.1v.91c-.18.18 0 .18 0 .36-.18.91.18 1.64 0 2.37.37.55.91.73.73 1.46a1.41 1.41 0 0 1 .37.91l.54.55a1.64 1.64 0 0 1 .18.91 1 1 0 0 1 .55.91c.37.18.55.37.55.55.18.18.18.36.36.36.55.18.55.73.73 1.1.37.54.55 1.09 1.1 1.27.91.55 1.82.91 2.55 1.46.18 0 .18-.18.36-.18.37.18.18.54.37.73a4.59 4.59 0 0 0 2 1.27c.73.55 1.64.37 2.37.55l.55.55c.54 0 1.09.18 1.64-.19.36 0 .73-.18 1.09-.18H312c.18 0 .37-.36.73-.36a1.57 1.57 0 0 0 .91-.19c.18 0 .37-.18.55-.36.18 0 .36.18.55.18.73-.18 1.45-.73 2.18-.73.19 0 .19-.36.37-.36a3.76 3.76 0 0 0 1.82-1.1c.55-.36 1.09-.54 1.46-1.27 0-.18 0-.18.18-.18.55-.37.55-.91.91-1.28.18-.36.18-.73.55-.91a5.25 5.25 0 0 1 .73-1.46v-.18a5.23 5.23 0 0 1 .73-1.82 5.79 5.79 0 0 0 .73-1.83c.18-.54 0-1.09.18-1.64 0-.36.18-.54.18-.73a2.44 2.44 0 0 1 .37-1.64c-.19-.72-.55-1.45 0-2-.19-.37-.37-.55-.19-.91.19-.91-.36-1.82-.54-2.92s-.55-2.19-.73-3.1l-.37-.54c-.18-.92-.54-1.83-.73-2.92a1.79 1.79 0 0 0-.73-.91c-.18-.73 0-1.28-.36-1.64 0-.55-.55-1.1-.36-1.64-.12-.39-.34-.2-.52-.39z"/></g></g></svg>