<svg xmlns="http://www.w3.org/2000/svg" viewBox="0 0 148.93 93.99"><defs><style>.cls-1{fill:none}.cls-2{clip-path:url(#clip-path)}.cls-3{fill:#d02826}.cls-4{fill:#fff}.cls-5{fill:#1d1d1b}.cls-6{fill:#9d9d9c}</style><clipPath id="clip-path"><path class="cls-1" d="M0 0h148.93v93.99H0z"/></clipPath></defs><title>Asset 10</title><g id="Layer_2" data-name="Layer 2"><g id="Layer_1-2" data-name="Layer 1"><g class="cls-2" id="CZ_logo_vyska_CMYK" data-name="CZ logo vyska CMYK"><g class="cls-2"><path class="cls-3" d="M74.48 0C57 0 37.06 1.51 37.06 31.17s22.56 31.2 37.42 31.2 37.39-1.31 37.39-31.2S92 0 74.48 0"/><path class="cls-4" d="M98.79 30.93l-7.27-7.27c-3-3.05-6-6.57-12 .36l13.11 13.07-6 6-19.54-19.54c-3.19-3.2-6.28-6.29-11.83.49l25.21 25.21-6 6-30.32-30.33C60.7 1.51 68.59 12.84 73.77 18.26c11.74-12.36 17.17-7.45 24.44.1l6.57 6.58z"/><path class="cls-5" d="M39.81 93.68h3.91v-10.2a2 2 0 0 1 .58-1.56c.8-.76 2.36-.77 4.32-.68v-3.13c-3.7-.53-6.33 0-7.61 1.44v.07s-1.14 1.11-1.15 3.85zm-22.56 0h3.91v-10.1c0-3.6-2.28-5.67-6.25-5.67A7.25 7.25 0 0 0 10.72 79l-.16.11-.15-.11a7.16 7.16 0 0 0-4.13-1.12C2.29 77.91 0 80 0 83.58v10.1h3.91V83.3c0-1.31.89-2.09 2.37-2.09s2.34.79 2.34 2.09v10.38h3.91V83.3c0-1.31.89-2.09 2.38-2.09s2.34.76 2.34 2.09zM61 78.22h3.91v15.46H61zm16.41 15.46h3.91V84c0-3.88-2.45-6.1-6.72-6.1s-6.74 2.22-6.74 6.1v9.67h3.91v-10c0-1.56 1.06-2.49 2.83-2.49s2.81.91 2.81 2.49zm6.27-15.46v9.67c0 3.88 2.45 6.1 6.72 6.1s6.74-2.22 6.74-6.1v-9.67h-3.91v10c0 1.56-1.06 2.49-2.83 2.49s-2.81-.91-2.81-2.49v-10zm15.61 10.93v.19c0 3 2.33 4.65 6.56 4.65 3 0 6.59-.85 6.59-4.87 0-2.27-1.6-3.85-4.49-4.44l-3-.61c-1.1-.22-1.64-.69-1.64-1.45 0-1 .85-1.57 2.53-1.57.62 0 2.49 0 2.49 1.67h3.91v-.19c0-3-2.27-4.65-6.4-4.65s-6.44 1.66-6.44 4.81c0 2.31 1.6 3.91 4.49 4.5l3 .61c1.1.22 1.64.69 1.64 1.45s-.47 1.57-2.68 1.57-2.65-.91-2.65-1.67zM63.05 71.26a2.37 2.37 0 1 0 2.36 2.36 2.37 2.37 0 0 0-2.36-2.36M50.44 81.51v6.69c0 2.29.47 3.76 1.5 4.64 1.21 1 3.31 1.33 6.41.88v-3.14c-1.75.09-2.86.08-3.47-.49a2.25 2.25 0 0 1-.53-1.74v-6.84h4v-3.29h-4v-4.69l-3.89 1.11v6.87zm-19.94-3.6c-4 0-6.18 1.8-6.34 4.68h3.92c.09-1.21.83-1.73 2.42-1.73a2.35 2.35 0 0 1 2.59 2.34v1h-4c-3.91 0-5.67 1.88-5.67 4.9s1.85 4.9 5.14 4.9a5.32 5.32 0 0 0 4.85-2.49v2.18h3.44v-10c0-3.64-2.32-5.73-6.35-5.73m2.75 10.71c0 .73-1 2.07-3.31 2.07-2.13 0-2.8-.66-2.8-1.91s.74-1.81 3-1.81h3.15z"/><path class="cls-6" d="M116.88 89.25a2.36 2.36 0 1 0 2.36 2.36 2.36 2.36 0 0 0-2.36-2.36m10.68-11.34c-4.29 0-6.75 2.22-6.75 6.11v3.85c0 3.88 2.45 6.1 6.72 6.1s6.67-2.15 6.75-5.92h-4v.12c0 1.56-1 2.42-2.76 2.42s-2.72-.88-2.72-2.42v-4.46c0-1.54 1-2.42 2.75-2.42s2.73.88 2.73 2.42v.12h4c-.08-3.77-2.52-5.92-6.72-5.92m8.82 15.76h12.55v-3.39h-7.76l7.76-8.55v-3.52h-12.55v3.39h7.76l-7.76 8.55v3.52z"/></g></g></g></g></svg>