<svg xmlns="http://www.w3.org/2000/svg" viewBox="0 0 192.1 104.16"><defs><style>.cls-1,.cls-8{fill:none}.cls-2{fill:#837270}.cls-3{fill:#b9afa5}.cls-4{fill:#231f20}.cls-5{fill:#625652}.cls-6{fill:#ece1d7}.cls-7{fill:#302d26}.cls-8{stroke:#302d26;stroke-linecap:round;stroke-linejoin:round;stroke-width:0}</style></defs><title>Asset 1</title><g id="Layer_2" data-name="Layer 2"><g id="Layer_1-2" data-name="Layer 1"><path class="cls-1" d="M110.56 74.72l.31-.61a3.91 3.91 0 0 0-.31.61z"/><path class="cls-2" d="M120.85 49.19a34.53 34.53 0 0 0-8.29-.19 1 1 0 0 1 .09.21 3.2 3.2 0 0 1 .19.79 7 7 0 0 1-3.84 6.86c3.58 2 6 2.17 9.61 3.24.29-.27.58-.52.88-.76l-.17.09c1.1-1.86 4.22-4.49 1.53-10.24zm24.15-1.5a25.31 25.31 0 0 1 6.25.79l-5.61-1.62zm-20.41.2a5.91 5.91 0 0 0 .23-1.1 4.45 4.45 0 0 0-.15-1.75 4.51 4.51 0 0 0-.8-1.46 4 4 0 0 0-.54-.55L123 43a27 27 0 0 0-6.31-.2l.13.08.18.12.23.21a4 4 0 0 1 .93 1.44 4.16 4.16 0 0 1 .27 1.73 2.9 2.9 0 0 1-.47 1.46c3.58.31 7.13 1.13 10.7 1.37a25.12 25.12 0 0 0 3.88-.07 14.22 14.22 0 0 0 1.14-4.09c-3.11-.29-6.12-1.25-9.24-1.84a3.71 3.71 0 0 1 1 1.55 3.94 3.94 0 0 1 .07 2.11 3.55 3.55 0 0 1-.53 1.18 2.16 2.16 0 0 1-.44.48.61.61 0 0 1-.15.11l.05-.18z"/><path class="cls-2" d="M109.18 62.73a5.83 5.83 0 0 1-2.64.79c2.7 2.29 5.25 2.88 6.86 3.69a23.13 23.13 0 0 1 4.25-6.2c-4-.42-11.54-3.68-14.38-6.74a.3.3 0 0 1-.2.1c-.47 3.44.13 6.08 3 8.76 4.55-1.46 4.63-2.88 5.64-3.54a3.35 3.35 0 0 1-1 1.85 5.88 5.88 0 0 1-1.53 1.29zM151 56.69a28.62 28.62 0 0 1 7.14-3.84c-2.91-1.57-6.19-4-12.69-4.15-5.25-.11-10.33 1.65-15.59 1.46-2.8-.11-5.79-.59-8.77-.95 2.08 1.92 2.4 6.52-.41 9.26a32.39 32.39 0 0 1 13.59-5 2.47 2.47 0 0 1 .17-1.44 2.64 2.64 0 0 1 1.14-1.34 1.36 1.36 0 0 1 .33-.12h.1a15.22 15.22 0 0 0-1.21 2.83 28.53 28.53 0 0 1 10 .07 5.15 5.15 0 0 1 .72-2 4.45 4.45 0 0 1 2.71-2.25c-.66 1-1.94 1.89-2.87 4.37a11.4 11.4 0 0 1 5.64 3.1zm-52.65-.11a7 7 0 0 1 3.65-3.37 7.27 7.27 0 0 1-.69-2.86 8.18 8.18 0 0 1 3-6.19 15 15 0 0 0-5.96 12.42z"/><path class="cls-2" d="M112.24 68.75h.51c.07-.21.16-.41.24-.62-8.11-1.87-12.83-9.71-10.68-14.06h-.18a6.36 6.36 0 0 0-2.94 2.81c-2 4.59 5 10.52 12.74 11.72a.77.77 0 0 1 .31.15zm-10-8.61a1.22 1.22 0 0 1-.89.3A2.08 2.08 0 0 1 99.47 59a.82.82 0 0 1 0-.4h.08c.25.1.59.46 1.22.85a6.19 6.19 0 0 0 1.47.56h.08a.24.24 0 0 1-.06.13zm13.84-17.31c-5.64.7-10.17 3.62-12.41 9.59 3-4 9-5 14.14-4.58v-1.43a5.66 5.66 0 0 0-.33-1.44 5.88 5.88 0 0 0-1.21-2z"/><path class="cls-2" d="M112.56 49a13 13 0 0 0-8.82 4.7c1.69.94 3.26 2 4.93 3 4.25-3.7 3.64-7.01 3.89-7.7z"/><path class="cls-3" d="M139.93 76.72a7.39 7.39 0 0 1-4.08.64 18.36 18.36 0 0 0 3.45-1.29 2.23 2.23 0 0 1-.27-.72 10 10 0 0 1-1.38.53 11.39 11.39 0 0 1-2.71.51 9.91 9.91 0 0 1-2.3-.09 17.43 17.43 0 0 0 2.24-.34 15.34 15.34 0 0 0 4.2-1.6 1.75 1.75 0 0 1 .17-.43c1-1.93 2.86-3.07 3.44-5.23 1.12-4.15 1.53-6.46 7-11-5.79-5.67-21.54-5.26-30.93 4.1-4.42 4.41-4.41 8-6.74 10.81a13.27 13.27 0 0 0-1.12 1.51l-.31.61c-.88 2.15 2.46 1.31 4.74 1.94 2.89.8 5.46 2.13 8.47 2.53a32.44 32.44 0 0 0 16.29-2.39zM137.8 58.3l-1.37.27a39.08 39.08 0 0 0-12.94 4.7l-1.54.86a9 9 0 0 1 1.14-1.06c.25-.19.53-.42.89-.66l.58-.39a25.22 25.22 0 0 1 11.8-3.83 13.81 13.81 0 0 1 1.43 0h.4a3.39 3.39 0 0 1-.39.11zm-5.61 16.94l-.18.12a4.33 4.33 0 0 1-.68.33 12 12 0 0 1-8.29.11h.18a5.31 5.31 0 0 1 .65-.05h3.61c1.86 0 3-.28 3.74-.35l.75-.08zm-4.86-17a27.31 27.31 0 0 1 12.79-2c.6.07 1.11.11 1.52.19l1 .2.7.15h-.71l-1-.07h-1.51a32.11 32.11 0 0 0-10.27 1.47c-1.73.61-1.83.63-2.13.77-6.51 2.61-9.43 5.86-12.25 8.68a25.25 25.25 0 0 1 11.86-9.36zm-14.25 15.17l.41-.09a9.16 9.16 0 0 1 5.69.94 5.9 5.9 0 0 1 2.15 1.74c-3.76-1.8-5.13-2.32-9.72-1.94a3.65 3.65 0 0 1 1.47-.65zm4 2.38a11.8 11.8 0 0 0-1.76-.65 4.18 4.18 0 0 0-3.49.44c4.31-3.65 6.52 3.23 22 2-5.83 1.34-10.11 1.21-16.75-1.79z"/><path class="cls-1" d="M158 73.35a9.88 9.88 0 0 0 6.34-2 3 3 0 0 0 .61-.65l-.19.06-.62.26c-4.73 1.91-3.48 1.13-7 2.22h.19a4.3 4.3 0 0 0 .67.11z"/><path class="cls-1" d="M155.6 74.89h-2.61a2.33 2.33 0 0 0-.35 0l.43.1a10.43 10.43 0 0 0 1.53.26c9.62 1.14 16.68-5.22 16.71-5.24-1.79.76-6.66 4.11-14.06 4.73l-.88.07zm-6.03-12.42a24.58 24.58 0 0 1 12.19-6.88 25.33 25.33 0 0 1 3.4-.51 27.37 27.37 0 0 1 4.78 0c1.17.12 1.95.24 2.43.32l.69.11-.67-.23a18.52 18.52 0 0 0-2.44-.59 21.89 21.89 0 0 0-4.91-.28 21.62 21.62 0 0 0-15.17 6.79 19 19 0 0 0-3.46 5s.13-.16.41-.55a28.26 28.26 0 0 1 2.75-3.18z"/><path class="cls-1" d="M177.47 67.18c-6.28 6.82-13.35 8.95-22.47 9.09h-1.13a15.75 15.75 0 0 1-2-.13 33.13 33.13 0 0 1-3.29-.7 21.56 21.56 0 0 0-2.48-.51 10.32 10.32 0 0 0-2.84 0l-.7.14h.89a12.67 12.67 0 0 1 3.07.4c.71.17 1.53.42 2.49.7a20.68 20.68 0 0 0 3.37.76 39.06 39.06 0 0 0 4.34.15c8.71-.37 15.65-2.84 21-9.67.34-.45.89-1.36 1.18-1.84l-.58.71c-.25.16-.49.51-.85.9z"/><path class="cls-3" d="M168.88 52.46c-5.88-.58-13.23 1.76-18.48 6.07a18.15 18.15 0 0 0-6.25 9.08 12.22 12.22 0 0 1-2 4.76c-1 1.1-2 3.27-.37 3.86a2.62 2.62 0 0 0 .81.14 15.51 15.51 0 0 1 3.18.44 47.2 47.2 0 0 0 6.18 1.62c8.38.95 19.69-2.3 26.44-8.74 6.31-6.02 3.19-16.19-9.51-17.23zm-19 8.76A21.62 21.62 0 0 1 165 54.43a21.89 21.89 0 0 1 4.91.28 18.52 18.52 0 0 1 2.44.59l.67.23-.69-.11c-.48-.08-1.26-.2-2.43-.32a27.37 27.37 0 0 0-4.78 0 25.33 25.33 0 0 0-3.4.51 24.58 24.58 0 0 0-12.19 6.88 28.26 28.26 0 0 0-2.75 3.24c-.28.39-.41.55-.41.55a19 19 0 0 1 3.5-5.06zm7.38 13.58c7.4-.62 12.27-4 14.06-4.73 0 0-7.09 6.38-16.71 5.24a10.43 10.43 0 0 1-1.53-.26l-.43-.1a2.33 2.33 0 0 1 .35 0h3.38zm-.07-1.58c3.51-1.09 2.26-.31 7-2.22l.62-.26.19-.06a3 3 0 0 1-.61.65 9.88 9.88 0 0 1-6.34 2 4.3 4.3 0 0 1-.66-.08zm20.5-5.9c-5.33 6.83-12.27 9.3-21 9.67a39.06 39.06 0 0 1-4.34-.15 20.68 20.68 0 0 1-3.37-.76c-1-.28-1.78-.53-2.49-.7a12.67 12.67 0 0 0-3.07-.4h-.89l.7-.14a10.32 10.32 0 0 1 2.84 0 21.56 21.56 0 0 1 2.48.51 33.13 33.13 0 0 0 3.29.7 15.75 15.75 0 0 0 2 .13h1.13c9.11-.14 16.18-2.24 22.46-9.09.36-.39.6-.74.81-1l.58-.71c-.25.62-.82 1.49-1.14 1.94z"/><path class="cls-2" d="M178.23 49.19a13.88 13.88 0 0 1-8.75 1.68c.1.19.2.37.29.56.43 0 .87.13 1.3.21a19.15 19.15 0 0 1 8.2 3.45 12.64 12.64 0 0 0 5.14-1.91 15.43 15.43 0 0 0 1.28-6.1 12.41 12.41 0 0 0-.9-3.68c0 .07-.13.1-.26.05-1.22 2.55-3.94 4.55-6.3 5.74zm6.17 1.61c-1.42 1.48-4.8 1.89-7.12.44a3 3 0 0 1-.53-.4l-.14-.14h.16l.58.14c4.86 1.13 6.3-.1 7.18-.2zm.85-9.87a.47.47 0 0 1 .11.52 5 5 0 0 0 4.74-1.76c-1.2-6.4-6.88-12.61-16.57-14.6a28 28 0 0 1 3 1.17c8.35 3.74 10.12 10.17 8.72 14.67zm2.67-3.71a2.82 2.82 0 0 1 .5 2.16 1.36 1.36 0 0 1-.32-.34c-.22-.3-1.54-2.62-1.61-2.75a1.63 1.63 0 0 1-.16-.41s.77-.06 1.59 1.34zm-28.45-12.74a74.43 74.43 0 0 1 8.6-.88 51.61 51.61 0 0 0-8.6.88z"/><path class="cls-1" d="M130.94 41.18a1.88 1.88 0 0 0-.58-.75 1.21 1.21 0 0 0-.51-.24.6.6 0 0 0-.28 0 .15.15 0 0 0-.08 0 6 6 0 0 1 1.06 2.31v.09l.09.27.05.09.07-.05a.8.8 0 0 0 .18-.25 1.55 1.55 0 0 0 .14-.55 2.05 2.05 0 0 0-.14-.92zm-10.75-1.41a.36.36 0 0 0-.26.16 13 13 0 0 0 1.46 1.31 1.09 1.09 0 0 0 .28.13.25.25 0 0 0 0-.07.65.65 0 0 0 0-.24 1.43 1.43 0 0 0-.53-1 1.12 1.12 0 0 0-.95-.29z"/><path class="cls-2" d="M167.08 50c-8.1-10.62-23.68-7.88-31.21-7.4-.17 0-.16-.24 0-.28l1.57-.46c-.84-.24-1.66-.61-2.48-.87a45.3 45.3 0 0 0-15.85-1.72 37.22 37.22 0 0 0-4.52.58 23.21 23.21 0 0 0-7 2.47 11.81 11.81 0 0 0-4 3.64 7 7 0 0 0-1.34 5.04c.07.4.56 1.3.49 1.64a12.88 12.88 0 0 1 7.79-9l-.22-.13c-.19-.13-.43-.34-.82-.65s-.65-.45-.83-.58a1.25 1.25 0 0 1-.19-.15l-.06-.06s0-.11.28-.18a1.47 1.47 0 0 1 1.23.32 1.75 1.75 0 0 1 .73 1.1.6.6 0 0 1 0 .28A23.38 23.38 0 0 1 123 42.2c2.67.34 5.28 1 7.9 1.55a18.87 18.87 0 0 0 5.22.39c5.29-.27 10.21-2.11 17.65.21a27.59 27.59 0 0 1 11.42 7 22.28 22.28 0 0 1 2.71 0 11.9 11.9 0 0 0-.82-1.35zm-45.38-8.7a.25.25 0 0 1 0 .07 1.09 1.09 0 0 1-.28-.13 13 13 0 0 1-1.46-1.31.36.36 0 0 1 .26-.16 1.12 1.12 0 0 1 1 .31 1.43 1.43 0 0 1 .53 1 .65.65 0 0 1-.05.22zm9.3 1.39a.8.8 0 0 1-.18.25l-.07.05-.05-.09-.09-.27v-.09a6 6 0 0 0-1.06-2.31.15.15 0 0 1 .08 0 .6.6 0 0 1 .28 0 1.21 1.21 0 0 1 .51.24 1.88 1.88 0 0 1 .58.75 2.05 2.05 0 0 1 .18.93 1.55 1.55 0 0 1-.14.55s-.04-.02-.04-.01z"/><path class="cls-2" d="M117.85 38.05h1l.63-.29c.46-.23.74-.43.93-.53a1.08 1.08 0 0 1 .21-.11h.07a.17.17 0 0 1 0 .08.62.62 0 0 1-.06.25 1.58 1.58 0 0 1-.57.67c3.78.15 11.48.62 15.93 2l.07-.16c.19-.38.21-.2 1.38-2.4.17-.33.19-.31.22-.35l.06.09a2.08 2.08 0 0 1-.25 1.89 2.47 2.47 0 0 1-1.14 1.05 7.92 7.92 0 0 1 2.44 1.25c7.61-1.82 23.64-2.44 30.47 9a.23.23 0 0 1 .15-.1 21.87 21.87 0 0 0 8.37-2.08c2.57-1.35 4.1-3.27 5.94-5.33l-.12-.05a.8.8 0 0 1-.41-.49c-4.45 1.51-9.37 1.31-14 .65.21.38.32 1.51.79 2.95a12.56 12.56 0 0 0 1.09 2.35l.25.48a.82.82 0 0 1 .06.14l-.15-.06a2.11 2.11 0 0 1-.46-.3 4.93 4.93 0 0 1-.73-.79 5.75 5.75 0 0 1-.79-1.54 4.85 4.85 0 0 1-.1-3.24c-7.53-1.07-12.26-3.57-18.77-4.67-23.94-4-25.2-1.24-32.4-3.72-.35-.12-.54-.45-.53-.34a7.23 7.23 0 0 0 .42 3.7z"/><path class="cls-2" d="M122.33 34.65c2.46.42 6.51.41 9.13.54A22.79 22.79 0 0 1 133 31.6a1.82 1.82 0 0 1 .26-.41 1.1 1.1 0 0 1 .12.49 4.28 4.28 0 0 1-1.8 3.52 172 172 0 0 1 18.9 2.43c7.92 1.35 20.9 7.45 32.86 3.66a15.13 15.13 0 0 0-7.57-6.57c-.29.57-.88 1.47-1.63 3.11a32.83 32.83 0 0 0-1.48 4.17.89.89 0 0 1-.07.2 3 3 0 0 1-.1-1 10.45 10.45 0 0 1 2.87-6.67A35.59 35.59 0 0 0 164 32.4l-.15.21a16.33 16.33 0 0 0-1.82 3 10.86 10.86 0 0 0-.7 2.13 23.14 23.14 0 0 0-.39 2.33 4.37 4.37 0 0 1-.26-2.42 8 8 0 0 1 2.82-5.22c-4.35-.19-8.61 0-12-.13-7-.26-18.68-5.87-27-4.09.66 1.51-.28 4.93-2.17 6.44zm31.52 1.5a3.5 3.5 0 0 1 .75-1.88 1.18 1.18 0 0 1 .29-.28l.1-.07a.41.41 0 0 1 0 .13 2.31 2.31 0 0 1 0 .38c-.06.36-.21.9-.32 1.77a14 14 0 0 0-.08 1.72v.37a1.13 1.13 0 0 1 0 .12l-.09-.06a.89.89 0 0 1-.23-.28 3 3 0 0 1-.42-1.92zm-14.62-.52c.12-.34.75-1.2 1.27-2.34a11.25 11.25 0 0 0 .69-2.23c.05-.22.09-.37.11-.47a1 1 0 0 1 0-.14l.08.13a2.51 2.51 0 0 1 .15.48 3.56 3.56 0 0 1 0 1 4.89 4.89 0 0 1-.4 1.53 4.19 4.19 0 0 1-1.9 2.13h-.13a.39.39 0 0 1 .13-.09zm50.94 4.44a4.9 4.9 0 0 1-4.44 2.34 12.75 12.75 0 0 1-.14 9.91 13 13 0 0 0 4.58-12.25z"/><path class="cls-2" d="M154 26.54a8.86 8.86 0 0 1-4.12-.41.16.16 0 0 1 0-.3q.39-.1.78-.18a45.25 45.25 0 0 0-6.66-1.34.64.64 0 0 1 .19.16 1.73 1.73 0 0 1 .41.73 2.38 2.38 0 0 1-.94 2.6 2 2 0 0 1-.82.34 1.38 1.38 0 0 1-.45 0h-.12a.29.29 0 0 1 .09-.09l.33-.25a4.68 4.68 0 0 0 .54-.47 2.64 2.64 0 0 0 .58-.9 2.48 2.48 0 0 0 .16-1 4.27 4.27 0 0 0-.19-1.07.09.09 0 0 0 0-.05 44.73 44.73 0 0 0-10.37-.19 1.23 1.23 0 0 1 .67 1.23 1.32 1.32 0 0 1-.45.92 1.13 1.13 0 0 1-.54.27.54.54 0 0 1-.39-.05.3.3 0 0 1 .05-.08l.16-.22a1.49 1.49 0 0 0 0-2 21.84 21.84 0 0 0-11.41 4.5c7.84-5.31 25.5 2 25.7 2.06 4.26 1 7.94.54 12 .37a3.12 3.12 0 0 1-.06-.44 4.57 4.57 0 0 1 .09-1.14 5.91 5.91 0 0 1 .64-1.73 5.55 5.55 0 0 1 1.88-2.09 3.52 3.52 0 0 1 .5-.26l.15-.05a.93.93 0 0 1 0 .13c-.05.09-.14.21-.28.42a18.06 18.06 0 0 0-1.5 2.19 10.16 10.16 0 0 0-.7 1.55c-.16.42-.26.76-.34 1l-.12.4c1 0 2.12-.06 3.23 0a46.92 46.92 0 0 1 6.7.71c0-1.11 1.35-3.27 3.5-4.43a6.68 6.68 0 0 1 1.15-.49 4.22 4.22 0 0 1 .63-.14h.19l-.14.12a6 6 0 0 1-.5.38 17.09 17.09 0 0 0-4.75 4.59 29 29 0 0 1 7.53 2.35c.45.23.91.48 1.39.77a4 4 0 0 1 1.79-1.14 3.7 3.7 0 0 1 2.67-.14l-.1.08-.39.17c-.37.14-1 .3-1.9.61s-1.35.51-1.71.64a15 15 0 0 1 5.4 5.44.83.83 0 0 1 .27 0c1.09-9.71-7.93-15.42-17.85-15.73-5.18-.17-8.95 1.28-12.31 1.66a.35.35 0 0 1-.26-.01zm-.5 1.12a1.61 1.61 0 0 1-.08.32c-.08.28-.28.68-.53 1.34s-.34 1-.44 1.31-.08.23-.11.29a.34.34 0 0 1-.05.08s-.12-.05-.23-.33a2.39 2.39 0 0 1 .09-1.59 2.78 2.78 0 0 1 1-1.34 1.27 1.27 0 0 1 .29-.16h.1a.87.87 0 0 1-.07.08z"/><path class="cls-2" d="M118.08 33.41a21.65 21.65 0 0 0 4 1.19c.39-.88.73-1.28 1.39-2.89a27 27 0 0 0 1-3.55c-4.76 1.03-6.82 4.18-6.39 5.25z"/><path class="cls-4" d="M111.83 75.58a4.18 4.18 0 0 1 3.49-.44 11.8 11.8 0 0 1 1.76.65c6.64 3 10.91 3.13 16.74 1.81-15.47 1.21-17.68-5.67-21.99-2.02zm30.92-.58h.68a12.67 12.67 0 0 1 3.07.4c.71.17 1.53.42 2.49.7a20.68 20.68 0 0 0 3.37.76 39.06 39.06 0 0 0 4.34.15c8.71-.37 15.65-2.84 21-9.67.34-.45.89-1.36 1.18-1.84l-.58.71c-.21.25-.45.6-.81 1-6.3 6.79-13.37 8.92-22.49 9.06h-1.13a15.75 15.75 0 0 1-2-.13 33.13 33.13 0 0 1-3.29-.7 21.56 21.56 0 0 0-2.48-.51 10.32 10.32 0 0 0-2.84 0l-.7.14z"/><path class="cls-4" d="M156.37 74.87h-3.38a2.33 2.33 0 0 0-.35 0l.43.1a10.43 10.43 0 0 0 1.53.26c9.62 1.14 16.68-5.22 16.71-5.24-1.79.76-6.66 4.11-14.06 4.73zM121.33 76a5.9 5.9 0 0 0-2.15-1.71 9.16 9.16 0 0 0-5.69-.94l-.41.09a3.65 3.65 0 0 0-1.47.62c4.59-.41 5.96.11 9.72 1.94zm25.08-9.74s.13-.16.41-.55a28.26 28.26 0 0 1 2.75-3.24 24.48 24.48 0 0 1 12.19-6.87 23.94 23.94 0 0 1 3.4-.52 27.37 27.37 0 0 1 4.78 0c1.17.12 1.95.24 2.43.32l.69.11-.67-.23a18.52 18.52 0 0 0-2.44-.59 21.89 21.89 0 0 0-4.91-.28 21.62 21.62 0 0 0-15.17 6.79 19 19 0 0 0-3.46 5.06zm-18.68-7.32c.3-.14.4-.16 2.13-.77a32.11 32.11 0 0 1 10.27-1.47h1.51l1 .07h.71l-.7-.15-1-.2c-.41-.08-.92-.12-1.52-.19a27.31 27.31 0 0 0-12.79 2 25.25 25.25 0 0 0-11.85 9.35c2.81-2.78 5.73-6.03 12.24-8.64zm49.62-8.09l-.58-.14h-.16l.14.14a3 3 0 0 0 .53.4c2.32 1.45 5.7 1 7.12-.44l.13-.15c-.88.09-2.32 1.34-7.18.19zm-36.12-17.28a4.89 4.89 0 0 0 .4-1.53 3.56 3.56 0 0 0 0-1 2.51 2.51 0 0 0-.15-.48l-.08-.13a1 1 0 0 0 0 .14c0 .1-.06.25-.11.47a11.25 11.25 0 0 1-.69 2.23c-.52 1.14-1.15 2-1.27 2.34a.39.39 0 0 0 0 .12h.13a4.19 4.19 0 0 0 1.77-2.16zm15.22 16.68a1.3 1.3 0 0 0 .61-.14 4.11 4.11 0 0 0 .8-.47c1-.73 1-1.26 1-1.26s-.46-.08-1.47.66a2.29 2.29 0 0 0-.87 1 .6.6 0 0 0-.07.21zm-3.36-22.51a2.78 2.78 0 0 0-1 1.34 2.39 2.39 0 0 0-.09 1.59c.11.28.23.33.23.33a.34.34 0 0 0 .05-.08c0-.06.06-.16.11-.29s.21-.69.44-1.31.45-1.06.53-1.34a1.61 1.61 0 0 0 .08-.32.87.87 0 0 0 0-.11h-.1a1.27 1.27 0 0 0-.25.19zm1.33 10.61l.09.06a1.13 1.13 0 0 0 0-.12v-.37a14 14 0 0 1 .08-1.72c.11-.87.26-1.41.32-1.77a2.31 2.31 0 0 0 0-.38.41.41 0 0 0 0-.13l-.1.07a1.18 1.18 0 0 0-.29.28 3.5 3.5 0 0 0-.75 1.88 3 3 0 0 0 .34 1.92.89.89 0 0 0 .31.28zm-53.65 21.11c-.63-.39-1-.75-1.22-.85h-.08a.82.82 0 0 0 0 .4 2.08 2.08 0 0 0 1.9 1.46 1.22 1.22 0 0 0 .89-.3.24.24 0 0 0 .06-.08h-.08a6.19 6.19 0 0 1-1.47-.63z"/><path class="cls-4" d="M136.36 58.19a25.22 25.22 0 0 0-11.8 3.81l-.58.39c-.36.24-.64.47-.89.66a9 9 0 0 0-1.09 1.08l1.54-.86a39.08 39.08 0 0 1 12.94-4.7l1.37-.27a3.39 3.39 0 0 0 .39-.1h-.4a13.81 13.81 0 0 0-1.48-.01zm-5.14 17.13c-.71.07-1.87.26-3.74.35s-3 0-3.61 0a5.31 5.31 0 0 0-.65.05h-.18a12 12 0 0 0 8.29-.11 4.33 4.33 0 0 0 .68-.33l.18-.12H132zm25.96-2.1h.19a4.3 4.3 0 0 0 .66.08 9.88 9.88 0 0 0 6.34-2 3 3 0 0 0 .61-.65l-.19.06-.62.26c-4.73 1.94-3.48 1.16-6.99 2.25zM188.1 39a1.36 1.36 0 0 0 .32.34 2.82 2.82 0 0 0-.5-2.16c-.82-1.4-1.55-1.32-1.59-1.34a1.63 1.63 0 0 0 .16.41c.07.17 1.39 2.49 1.61 2.75zm-57.43 3.9l.05.09.07-.05a.8.8 0 0 0 .18-.25 1.55 1.55 0 0 0 .14-.55 2.05 2.05 0 0 0-.18-.93 1.88 1.88 0 0 0-.58-.75 1.21 1.21 0 0 0-.51-.24.6.6 0 0 0-.28 0 .15.15 0 0 0-.08 0 6 6 0 0 1 1.06 2.31v.09z"/><path class="cls-1" d="M116.08 42.83c-5.64.7-10.17 3.62-12.41 9.59 3-4 9-5 14.14-4.58v-1.43a5.66 5.66 0 0 0-.33-1.44 5.88 5.88 0 0 0-1.21-2z"/><path class="cls-1" d="M102.25 51c.07.4.56 1.3.49 1.64a12.88 12.88 0 0 1 7.79-9l-.22-.13c-.19-.13-.43-.34-.82-.65s-.65-.45-.83-.58a1.25 1.25 0 0 1-.19-.15l-.06-.06s0-.11.28-.18a1.47 1.47 0 0 1 1.23.32 1.75 1.75 0 0 1 .73 1.1.6.6 0 0 1 0 .28A23.38 23.38 0 0 1 123 42.2c2.67.34 5.28 1 7.9 1.55a18.87 18.87 0 0 0 5.22.39c5.29-.27 10.21-2.11 17.65.21a27.59 27.59 0 0 1 11.42 7 22.28 22.28 0 0 1 2.71 0 11.9 11.9 0 0 0-.83-1.3c-8.1-10.62-23.68-7.88-31.21-7.4-.17 0-.16-.24 0-.28l1.57-.46c-.84-.24-1.66-.61-2.48-.87a45.3 45.3 0 0 0-15.85-1.72 37.22 37.22 0 0 0-4.52.58 23.21 23.21 0 0 0-7 2.47 11.81 11.81 0 0 0-4 3.64 7 7 0 0 0-1.33 4.99z"/><path class="cls-1" d="M120.85 49.19a34.53 34.53 0 0 0-8.29-.19 1 1 0 0 1 .09.21 3.2 3.2 0 0 1 .19.79 7 7 0 0 1-3.84 6.86c3.58 2 6 2.17 9.61 3.24.29-.27.58-.52.88-.76l-.17.09c1.1-1.86 4.22-4.49 1.53-10.24zm-3-11.14h1l.63-.29c.46-.23.74-.43.93-.53a1.08 1.08 0 0 1 .21-.11h.07a.17.17 0 0 1 0 .08.62.62 0 0 1-.06.25 1.58 1.58 0 0 1-.57.67c3.78.15 11.48.62 15.93 2l.07-.16c.19-.38.21-.2 1.38-2.4.17-.33.19-.31.22-.35l.06.09a2.08 2.08 0 0 1-.25 1.89 2.47 2.47 0 0 1-1.14 1.05 7.92 7.92 0 0 1 2.44 1.25c7.61-1.82 23.64-2.44 30.47 9a.23.23 0 0 1 .15-.1 21.87 21.87 0 0 0 8.37-2.08c2.57-1.35 4.1-3.27 5.94-5.33l-.12-.05a.8.8 0 0 1-.41-.49c-4.45 1.51-9.37 1.31-14 .65.21.38.32 1.51.79 2.95a12.56 12.56 0 0 0 1.09 2.35l.25.48a.82.82 0 0 1 .06.14l-.15-.06a2.11 2.11 0 0 1-.46-.3 4.93 4.93 0 0 1-.73-.79 5.75 5.75 0 0 1-.79-1.54 4.85 4.85 0 0 1-.1-3.24c-7.53-1.07-12.26-3.57-18.77-4.67-23.94-4-25.2-1.24-32.4-3.72-.35-.12-.54-.45-.53-.34a7.23 7.23 0 0 0 .42 3.7zm6.74 9.84a5.91 5.91 0 0 0 .23-1.1 4.45 4.45 0 0 0-.15-1.75 4.51 4.51 0 0 0-.8-1.46 4 4 0 0 0-.54-.55L123 43a27 27 0 0 0-6.31-.2l.13.08.18.12.23.21a4 4 0 0 1 .93 1.44 4.16 4.16 0 0 1 .27 1.73 2.9 2.9 0 0 1-.47 1.46c3.58.31 7.13 1.13 10.7 1.37a25.12 25.12 0 0 0 3.88-.07 14.22 14.22 0 0 0 1.14-4.09c-3.11-.29-6.12-1.25-9.24-1.84a3.71 3.71 0 0 1 1 1.55 3.94 3.94 0 0 1 .07 2.11 3.55 3.55 0 0 1-.53 1.18 2.16 2.16 0 0 1-.44.48.61.61 0 0 1-.15.11l.05-.18z"/><path class="cls-1" d="M109.18 62.73a5.83 5.83 0 0 1-2.64.79c2.7 2.29 5.25 2.88 6.86 3.69a23.13 23.13 0 0 1 4.25-6.2c-4-.42-11.54-3.68-14.38-6.74a.3.3 0 0 1-.2.1c-.47 3.44.13 6.08 3 8.76 4.55-1.46 4.63-2.88 5.64-3.54a3.35 3.35 0 0 1-1 1.85 5.88 5.88 0 0 1-1.53 1.29zM151 56.69a28.62 28.62 0 0 1 7.14-3.84c-2.91-1.57-6.19-4-12.69-4.15-5.25-.11-10.33 1.65-15.59 1.46-2.8-.11-5.79-.59-8.77-.95 2.08 1.92 2.4 6.52-.41 9.26a32.39 32.39 0 0 1 13.59-5 2.47 2.47 0 0 1 .17-1.44 2.64 2.64 0 0 1 1.14-1.34 1.36 1.36 0 0 1 .33-.12h.1a15.22 15.22 0 0 0-1.21 2.83 28.53 28.53 0 0 1 10 .07 5.15 5.15 0 0 1 .72-2 4.45 4.45 0 0 1 2.71-2.25c-.66 1-1.94 1.89-2.87 4.37a11.4 11.4 0 0 1 5.64 3.1zm34.25-15.76a.47.47 0 0 1 .11.52 5 5 0 0 0 4.74-1.76c-1.2-6.4-6.88-12.61-16.57-14.6a28 28 0 0 1 3 1.17c8.35 3.74 10.12 10.17 8.72 14.67zm-53.72-5.73a172 172 0 0 1 18.9 2.43c7.92 1.35 20.9 7.45 32.86 3.66a15.13 15.13 0 0 0-7.57-6.57c-.29.57-.88 1.47-1.63 3.11a32.83 32.83 0 0 0-1.43 4.17.89.89 0 0 1-.07.2 3 3 0 0 1-.1-1 10.45 10.45 0 0 1 2.87-6.67A35.59 35.59 0 0 0 164 32.4l-.15.21a16.33 16.33 0 0 0-1.82 3 10.86 10.86 0 0 0-.7 2.13 23.14 23.14 0 0 0-.39 2.33 4.37 4.37 0 0 1-.26-2.42 8 8 0 0 1 2.82-5.22c-4.35-.19-8.61 0-12-.13-7-.26-18.68-5.87-27-4.09.66 1.56-.28 5-2.17 6.49 2.46.42 6.51.41 9.13.54A22.79 22.79 0 0 1 133 31.6a1.82 1.82 0 0 1 .26-.41 1.1 1.1 0 0 1 .12.49 4.28 4.28 0 0 1-1.85 3.52z"/><path class="cls-1" d="M122.06 34.6c.39-.88.73-1.28 1.39-2.89a27 27 0 0 0 1-3.55c-4.74 1-6.8 4.18-6.37 5.25a21.65 21.65 0 0 0 3.98 1.19z"/><path class="cls-1" d="M147.23 30.7c4.26 1 7.94.54 12 .37a3.12 3.12 0 0 1-.06-.44 4.57 4.57 0 0 1 .09-1.14 5.91 5.91 0 0 1 .64-1.73 5.55 5.55 0 0 1 1.88-2.09 3.52 3.52 0 0 1 .5-.26l.15-.05a.93.93 0 0 1 0 .13c-.05.09-.14.21-.28.42a18.06 18.06 0 0 0-1.5 2.19 10.16 10.16 0 0 0-.7 1.55c-.16.42-.26.76-.34 1l-.12.4c1 0 2.12-.06 3.23 0a46.92 46.92 0 0 1 6.7.71c0-1.11 1.35-3.27 3.5-4.43a6.68 6.68 0 0 1 1.15-.49 4.22 4.22 0 0 1 .63-.14h.19l-.14.12a6 6 0 0 1-.5.38 17.09 17.09 0 0 0-4.75 4.59 29 29 0 0 1 7.5 2.4c.45.23.91.48 1.39.77a4 4 0 0 1 1.79-1.14 3.7 3.7 0 0 1 2.67-.14l-.1.08-.39.17c-.37.14-1 .3-1.9.61s-1.35.51-1.71.64a15 15 0 0 1 5.4 5.44.83.83 0 0 1 .27 0c1.09-9.71-7.93-15.42-17.85-15.73-5.18-.17-8.95 1.28-12.31 1.66a.35.35 0 0 1-.26 0 8.86 8.86 0 0 1-4.12-.41.16.16 0 0 1 0-.3q.39-.1.78-.18a45.25 45.25 0 0 0-6.66-1.35.64.64 0 0 1 .19.16 1.73 1.73 0 0 1 .41.73 2.38 2.38 0 0 1-.94 2.6 2 2 0 0 1-.82.34 1.38 1.38 0 0 1-.45 0h-.12a.29.29 0 0 1 .09-.09l.33-.25a4.68 4.68 0 0 0 .54-.47 2.64 2.64 0 0 0 .58-.9 2.48 2.48 0 0 0 .16-1 4.27 4.27 0 0 0-.19-1.07.09.09 0 0 0 0-.05 44.73 44.73 0 0 0-10.37-.19 1.23 1.23 0 0 1 .67 1.23 1.32 1.32 0 0 1-.45.92 1.13 1.13 0 0 1-.54.27.54.54 0 0 1-.39-.05.3.3 0 0 1 .05-.08l.16-.22a1.49 1.49 0 0 0 0-2 21.84 21.84 0 0 0-11.41 4.5c7.87-5.36 25.5 1.96 25.73 2.01zm-11.38 46.66a18.36 18.36 0 0 0 3.45-1.29 2.23 2.23 0 0 1-.27-.72 10 10 0 0 1-1.38.53 11.39 11.39 0 0 1-2.71.51 9.91 9.91 0 0 1-2.3-.09 17.43 17.43 0 0 0 2.24-.34 15.34 15.34 0 0 0 4.2-1.6 1.75 1.75 0 0 1 .17-.43c1-1.93 2.86-3.07 3.44-5.23 1.12-4.15 1.53-6.46 7-11-5.79-5.67-21.54-5.26-30.93 4.1-4.42 4.41-4.41 8-6.74 10.81a13.27 13.27 0 0 0-1.12 1.51 3.91 3.91 0 0 0-.31.61c-.88 2.15 2.46 1.31 4.74 1.94 2.89.8 5.46 2.13 8.47 2.53a32.44 32.44 0 0 0 16.29-2.39l-.13-.08a7.39 7.39 0 0 1-4.11.63zm48.94-33.96c0 .07-.13.1-.26.05-1.22 2.5-3.94 4.51-6.3 5.74a13.88 13.88 0 0 1-8.75 1.68c.1.19.2.37.29.56.43 0 .87.13 1.3.21a19.15 19.15 0 0 1 8.2 3.45 12.64 12.64 0 0 0 5.14-1.91 15.43 15.43 0 0 0 1.28-6.1 12.41 12.41 0 0 0-.9-3.68z"/><path class="cls-1" d="M168.88 52.46c-5.88-.58-13.23 1.76-18.48 6.07a18.15 18.15 0 0 0-6.25 9.08 12.22 12.22 0 0 1-2 4.76c-1 1.1-2 3.27-.37 3.86a2.62 2.62 0 0 0 .81.14 15.51 15.51 0 0 1 3.18.44 47.2 47.2 0 0 0 6.18 1.62c8.38.95 19.69-2.3 26.44-8.74 6.31-6.02 3.19-16.19-9.51-17.23zm21.29-12.39a4.9 4.9 0 0 1-4.44 2.34 12.75 12.75 0 0 1-.14 9.91 13 13 0 0 0 4.58-12.25zM113 68.12c-8.11-1.87-12.83-9.71-10.68-14.06h-.18a6.36 6.36 0 0 0-2.94 2.81c-2 4.59 5 10.52 12.74 11.72a.77.77 0 0 1 .31.12h.51c.06-.18.15-.38.24-.59zm-4.33-11.44c4.25-3.67 3.64-7 3.89-7.68a13 13 0 0 0-8.82 4.7c1.69.94 3.26 2.03 4.93 2.98zM145 47.69a25.31 25.31 0 0 1 6.25.79l-5.61-1.62zm13.84.69s-.46-.08-1.47.66a2.29 2.29 0 0 0-.87 1 .6.6 0 0 0-.05.25 1.3 1.3 0 0 0 .61-.14 4.11 4.11 0 0 0 .8-.47c1-.77.98-1.3.98-1.3zM102 53.21a7.27 7.27 0 0 1-.69-2.86 8.18 8.18 0 0 1 3-6.19 15 15 0 0 0-5.92 12.42 7 7 0 0 1 3.61-3.37zm49 3.48a28.62 28.62 0 0 1 7.14-3.84c-2.91-1.57-6.19-4-12.69-4.15-5.25-.11-10.33 1.65-15.59 1.46-2.8-.11-5.79-.59-8.77-.95 2.08 1.92 2.4 6.52-.41 9.26a32.39 32.39 0 0 1 13.59-5 2.47 2.47 0 0 1 .17-1.44 2.64 2.64 0 0 1 1.14-1.34 1.36 1.36 0 0 1 .33-.12h.1a15.22 15.22 0 0 0-1.21 2.83 28.53 28.53 0 0 1 10 .07 5.15 5.15 0 0 1 .72-2 4.45 4.45 0 0 1 2.71-2.25c-.66 1-1.94 1.89-2.87 4.37a11.4 11.4 0 0 1 5.64 3.1z"/><path class="cls-1" d="M120.85 49.19a34.53 34.53 0 0 0-8.29-.19 1 1 0 0 1 .09.21 3.2 3.2 0 0 1 .19.79 7 7 0 0 1-3.84 6.86c3.58 2 6 2.17 9.61 3.24.29-.27.58-.52.88-.76l-.17.09c1.1-1.86 4.22-4.49 1.53-10.24z"/><path class="cls-1" d="M102.25 51c.07.4.56 1.3.49 1.64a12.88 12.88 0 0 1 7.79-9l-.22-.13c-.19-.13-.43-.34-.82-.65s-.65-.45-.83-.58a1.25 1.25 0 0 1-.19-.15l-.06-.06s0-.11.28-.18a1.47 1.47 0 0 1 1.23.32 1.75 1.75 0 0 1 .73 1.1.6.6 0 0 1 0 .28A23.38 23.38 0 0 1 123 42.2c2.67.34 5.28 1 7.9 1.55a18.87 18.87 0 0 0 5.22.39c5.29-.27 10.21-2.11 17.65.21a27.59 27.59 0 0 1 11.42 7 22.28 22.28 0 0 1 2.71 0 11.9 11.9 0 0 0-.83-1.3c-8.1-10.62-23.68-7.88-31.21-7.4-.17 0-.16-.24 0-.28l1.57-.46c-.84-.24-1.66-.61-2.48-.87a45.3 45.3 0 0 0-15.85-1.72 37.22 37.22 0 0 0-4.52.58 23.21 23.21 0 0 0-7 2.47 11.81 11.81 0 0 0-4 3.64 7 7 0 0 0-1.33 4.99z"/><path class="cls-1" d="M124.59 47.89a5.91 5.91 0 0 0 .23-1.1 4.45 4.45 0 0 0-.15-1.75 4.51 4.51 0 0 0-.8-1.46 4 4 0 0 0-.54-.55L123 43a27 27 0 0 0-6.31-.2l.13.08.18.12.23.21a4 4 0 0 1 .93 1.44 4.16 4.16 0 0 1 .27 1.73 2.9 2.9 0 0 1-.47 1.46c3.58.31 7.13 1.13 10.7 1.37a25.12 25.12 0 0 0 3.88-.07 14.22 14.22 0 0 0 1.14-4.09c-3.11-.29-6.12-1.25-9.24-1.84a3.71 3.71 0 0 1 1 1.55 3.94 3.94 0 0 1 .07 2.11 3.55 3.55 0 0 1-.53 1.18 2.16 2.16 0 0 1-.44.48.61.61 0 0 1-.15.11l.05-.18zm-15.41 14.84a5.83 5.83 0 0 1-2.64.79c2.7 2.29 5.25 2.88 6.86 3.69a23.13 23.13 0 0 1 4.25-6.2c-4-.42-11.54-3.68-14.38-6.74a.3.3 0 0 1-.2.1c-.47 3.44.13 6.08 3 8.76 4.55-1.46 4.63-2.88 5.64-3.54a3.35 3.35 0 0 1-1 1.85 5.88 5.88 0 0 1-1.53 1.29zm8.67-24.68h1l.63-.29c.46-.23.74-.43.93-.53a1.08 1.08 0 0 1 .21-.11h.07a.17.17 0 0 1 0 .08.62.62 0 0 1-.06.25 1.58 1.58 0 0 1-.57.67c3.78.15 11.48.62 15.93 2l.07-.16c.19-.38.21-.2 1.38-2.4.17-.33.19-.31.22-.35l.06.09a2.08 2.08 0 0 1-.25 1.89 2.47 2.47 0 0 1-1.14 1.05 7.92 7.92 0 0 1 2.44 1.25c7.61-1.82 23.64-2.44 30.47 9a.23.23 0 0 1 .15-.1 21.87 21.87 0 0 0 8.37-2.08c2.57-1.35 4.1-3.27 5.94-5.33l-.12-.05a.8.8 0 0 1-.41-.49c-4.45 1.51-9.37 1.31-14 .65.21.38.32 1.51.79 2.95a12.56 12.56 0 0 0 1.09 2.35l.25.48a.82.82 0 0 1 .06.14l-.15-.06a2.11 2.11 0 0 1-.46-.3 4.93 4.93 0 0 1-.73-.79 5.75 5.75 0 0 1-.79-1.54 4.85 4.85 0 0 1-.1-3.24c-7.53-1.07-12.26-3.57-18.77-4.67-23.94-4-25.2-1.24-32.4-3.72-.35-.12-.54-.45-.53-.34a7.23 7.23 0 0 0 .42 3.7zm67.4 2.88a.47.47 0 0 1 .11.52 5 5 0 0 0 4.74-1.76c-1.2-6.4-6.88-12.61-16.57-14.6a28 28 0 0 1 3 1.17c8.35 3.74 10.12 10.17 8.72 14.67z"/><path class="cls-1" d="M116.08 42.83c-5.64.7-10.17 3.62-12.41 9.59 3-4 9-5 14.14-4.58v-1.43a5.66 5.66 0 0 0-.33-1.44 5.88 5.88 0 0 0-1.21-2zm15.45-7.63a172 172 0 0 1 18.9 2.43c7.92 1.35 20.9 7.45 32.86 3.66a15.13 15.13 0 0 0-7.57-6.57c-.29.57-.88 1.47-1.63 3.11a32.83 32.83 0 0 0-1.43 4.17.89.89 0 0 1-.07.2 3 3 0 0 1-.1-1 10.45 10.45 0 0 1 2.87-6.67A35.59 35.59 0 0 0 164 32.4l-.15.21a16.33 16.33 0 0 0-1.82 3 10.86 10.86 0 0 0-.7 2.13 23.14 23.14 0 0 0-.39 2.33 4.37 4.37 0 0 1-.26-2.42 8 8 0 0 1 2.82-5.22c-4.35-.19-8.61 0-12-.13-7-.26-18.68-5.87-27-4.09.66 1.56-.28 5-2.17 6.49 2.46.42 6.51.41 9.13.54A22.79 22.79 0 0 1 133 31.6a1.82 1.82 0 0 1 .26-.41 1.1 1.1 0 0 1 .12.49 4.28 4.28 0 0 1-1.85 3.52z"/><path class="cls-1" d="M122.06 34.6c.39-.88.73-1.28 1.39-2.89a27 27 0 0 0 1-3.55c-4.74 1-6.8 4.18-6.37 5.25a21.65 21.65 0 0 0 3.98 1.19z"/><path class="cls-1" d="M147.23 30.7c4.26 1 7.94.54 12 .37a3.12 3.12 0 0 1-.06-.44 4.57 4.57 0 0 1 .09-1.14 5.91 5.91 0 0 1 .64-1.73 5.55 5.55 0 0 1 1.88-2.09 3.52 3.52 0 0 1 .5-.26l.15-.05a.93.93 0 0 1 0 .13c-.05.09-.14.21-.28.42a18.06 18.06 0 0 0-1.5 2.19 10.16 10.16 0 0 0-.7 1.55c-.16.42-.26.76-.34 1l-.12.4c1 0 2.12-.06 3.23 0a46.92 46.92 0 0 1 6.7.71c0-1.11 1.35-3.27 3.5-4.43a6.68 6.68 0 0 1 1.15-.49 4.22 4.22 0 0 1 .63-.14h.19l-.14.12a6 6 0 0 1-.5.38 17.09 17.09 0 0 0-4.75 4.59 29 29 0 0 1 7.5 2.4c.45.23.91.48 1.39.77a4 4 0 0 1 1.79-1.14 3.7 3.7 0 0 1 2.67-.14l-.1.08-.39.17c-.37.14-1 .3-1.9.61s-1.35.51-1.71.64a15 15 0 0 1 5.4 5.44.83.83 0 0 1 .27 0c1.09-9.71-7.93-15.42-17.85-15.73-5.18-.17-8.95 1.28-12.31 1.66a.35.35 0 0 1-.26 0 8.86 8.86 0 0 1-4.12-.41.16.16 0 0 1 0-.3q.39-.1.78-.18a45.25 45.25 0 0 0-6.66-1.35.64.64 0 0 1 .19.16 1.73 1.73 0 0 1 .41.73 2.38 2.38 0 0 1-.94 2.6 2 2 0 0 1-.82.34 1.38 1.38 0 0 1-.45 0h-.12a.29.29 0 0 1 .09-.09l.33-.25a4.68 4.68 0 0 0 .54-.47 2.64 2.64 0 0 0 .58-.9 2.48 2.48 0 0 0 .16-1 4.27 4.27 0 0 0-.19-1.07.09.09 0 0 0 0-.05 44.73 44.73 0 0 0-10.37-.19 1.23 1.23 0 0 1 .67 1.23 1.32 1.32 0 0 1-.45.92 1.13 1.13 0 0 1-.54.27.54.54 0 0 1-.39-.05.3.3 0 0 1 .05-.08l.16-.22a1.49 1.49 0 0 0 0-2 21.84 21.84 0 0 0-11.41 4.5c7.87-5.36 25.5 1.96 25.73 2.01zm42.94 9.37a4.9 4.9 0 0 1-4.44 2.34 12.75 12.75 0 0 1-.14 9.91 13 13 0 0 0 4.58-12.25zm-54.32 37.29a18.36 18.36 0 0 0 3.45-1.29 2.23 2.23 0 0 1-.27-.72 10 10 0 0 1-1.38.53 11.39 11.39 0 0 1-2.71.51 9.91 9.91 0 0 1-2.3-.09 17.43 17.43 0 0 0 2.24-.34 15.34 15.34 0 0 0 4.2-1.6 1.75 1.75 0 0 1 .17-.43c1-1.93 2.86-3.07 3.44-5.23 1.12-4.15 1.53-6.46 7-11-5.79-5.67-21.54-5.26-30.93 4.1-4.42 4.41-4.41 8-6.74 10.81a13.27 13.27 0 0 0-1.12 1.51 3.91 3.91 0 0 0-.31.61c-.88 2.15 2.46 1.31 4.74 1.94 2.89.8 5.46 2.13 8.47 2.53a32.44 32.44 0 0 0 16.29-2.39l-.13-.08a7.39 7.39 0 0 1-4.11.63z"/><path class="cls-1" d="M184.79 43.4c0 .07-.13.1-.26.05-1.22 2.5-3.94 4.51-6.3 5.74a13.88 13.88 0 0 1-8.75 1.68c.1.19.2.37.29.56.43 0 .87.13 1.3.21a19.15 19.15 0 0 1 8.2 3.45 12.64 12.64 0 0 0 5.14-1.91 15.43 15.43 0 0 0 1.28-6.1 12.41 12.41 0 0 0-.9-3.68zm-76.12 13.28c4.25-3.67 3.64-7 3.89-7.68a13 13 0 0 0-8.82 4.7c1.69.94 3.26 2.03 4.93 2.98zM113 68.12c-8.11-1.87-12.83-9.71-10.68-14.06h-.18a6.36 6.36 0 0 0-2.94 2.81c-2 4.59 5 10.52 12.74 11.72a.77.77 0 0 1 .31.12h.51c.06-.18.15-.38.24-.59z"/><path class="cls-1" d="M168.88 52.46c-5.88-.58-13.23 1.76-18.48 6.07a18.15 18.15 0 0 0-6.25 9.08 12.22 12.22 0 0 1-2 4.76c-1 1.1-2 3.27-.37 3.86a2.62 2.62 0 0 0 .81.14 15.51 15.51 0 0 1 3.18.44 47.2 47.2 0 0 0 6.18 1.62c8.38.95 19.69-2.3 26.44-8.74 6.31-6.02 3.19-16.19-9.51-17.23zM157.37 49a2.29 2.29 0 0 0-.87 1 .6.6 0 0 0-.05.25 1.3 1.3 0 0 0 .61-.14 4.11 4.11 0 0 0 .8-.47c1-.73 1-1.26 1-1.26s-.48-.08-1.49.62zM102 53.21a7.27 7.27 0 0 1-.69-2.86 8.18 8.18 0 0 1 3-6.19 15 15 0 0 0-5.92 12.42 7 7 0 0 1 3.61-3.37zm43-5.52a25.31 25.31 0 0 1 6.25.79l-5.61-1.62z"/><path class="cls-2" d="M159.47 52.38a25.26 25.26 0 0 1 4.8-1l-.26-.23a26.92 26.92 0 0 0-19.83-7.1c-2.12.16-3.81.54-5.54.8a19.36 19.36 0 0 1-4.53.23 4.12 4.12 0 0 1-1.21 4c3.82-.36 7.59-1.31 11.43-1.42a5 5 0 0 1 .5-1.06 6.52 6.52 0 0 1 2.17-2.18 2.37 2.37 0 0 1 .42-.2h.13a.58.58 0 0 1-.05.13 3.14 3.14 0 0 1-.24.4c-.29.42-.69.83-1.71 2.15l5.61 1.62c.52.13 1 .27 1.53.43a15.79 15.79 0 0 1 6.32 3.61zm-1.61-2.74a4.11 4.11 0 0 1-.8.47 1.3 1.3 0 0 1-.61.14.6.6 0 0 1 .05-.25 2.29 2.29 0 0 1 .87-1c1-.74 1.47-.66 1.47-.66s.02.57-.98 1.3z"/><path class="cls-4" d="M191.48 38.4c-3-9.2-11.61-14.52-20.91-14.8h-2.5a74.43 74.43 0 0 0-8.6.88c-2.14.31-4.19.63-6.1.82a69.41 69.41 0 0 0-14.71-2.66c-10.87-.37-25.07 4.74-22 15.83a49 49 0 0 0-9.22 2.31C99.27 44 93.86 54.29 99.33 63c3.88 6.21 12.29 7.55 13 6.91-.3.27-.45 1.44-.66 1.83-.68 1.25-4.32 3.65-1.76 5.3 1.22.78 3 .16 4.38.49 0 0 13.22 6.68 26.8.07a.36.36 0 0 0 .13-.19c5 .09 7.27 2.77 14.2 2.57 9.49-.28 23.68-5.25 27.21-13.85 1.27-3.11 1-6.42-2.23-9.92 8.01-1.4 13.6-10.13 11.08-17.81zm-1.38 1.29a5 5 0 0 1-4.74 1.76.47.47 0 0 0-.11-.52c1.4-4.5-.37-11-8.68-14.67a28 28 0 0 0-3-1.17c9.65 1.99 15.33 8.2 16.53 14.6zm-57.16-15.55a1.49 1.49 0 0 1 0 2l-.16.22a.3.3 0 0 0-.05.08.54.54 0 0 0 .39.05 1.13 1.13 0 0 0 .54-.27 1.32 1.32 0 0 0 .45-.92 1.23 1.23 0 0 0-.67-1.23 44.73 44.73 0 0 1 10.37.19.09.09 0 0 1 0 .05 4.27 4.27 0 0 1 .19 1.07 2.48 2.48 0 0 1-.16 1 2.64 2.64 0 0 1-.58.9 4.68 4.68 0 0 1-.54.47l-.33.25a.29.29 0 0 0-.09.09h.12a1.38 1.38 0 0 0 .45 0 2 2 0 0 0 .82-.34 2.38 2.38 0 0 0 .94-2.6 1.73 1.73 0 0 0-.41-.73.64.64 0 0 0-.19-.16 45.25 45.25 0 0 1 6.65 1.34q-.39.08-.78.18a.16.16 0 0 0 0 .3 8.86 8.86 0 0 0 4.12.41.35.35 0 0 0 .26 0c3.36-.38 7.13-1.83 12.31-1.66 9.92.31 18.94 6 17.85 15.73a.83.83 0 0 0-.27 0 15 15 0 0 0-5.4-5.44c.36-.13.89-.36 1.71-.64s1.53-.47 1.9-.61l.39-.17.1-.08a3.7 3.7 0 0 0-2.67.14 4 4 0 0 0-1.84 1.24c-.48-.29-.94-.54-1.39-.77a29 29 0 0 0-7.53-2.41 17.09 17.09 0 0 1 4.75-4.59 6 6 0 0 0 .5-.38l.14-.12h-.19a4.22 4.22 0 0 0-.63.14 6.68 6.68 0 0 0-1.15.49c-2.15 1.16-3.49 3.32-3.5 4.43a46.92 46.92 0 0 0-6.7-.71h-3.23l.12-.4c.08-.26.18-.6.34-1a10.16 10.16 0 0 1 .7-1.55 18.06 18.06 0 0 1 1.5-2.19c.14-.21.23-.33.28-.42a.93.93 0 0 0 0-.13l-.15.05a3.52 3.52 0 0 0-.5.26 5.55 5.55 0 0 0-1.88 2.09 5.91 5.91 0 0 0-.64 1.73 4.57 4.57 0 0 0-.09 1.14 3.12 3.12 0 0 0 .06.44c-4.05.17-7.73.67-12-.37-.2-.05-17.86-7.37-25.7-2.06a21.84 21.84 0 0 1 11.47-4.53zm.27 7.05a1.82 1.82 0 0 0-.26.41 22.79 22.79 0 0 0-1.49 3.59c-2.62-.13-6.67-.12-9.13-.54 1.89-1.51 2.83-4.93 2.17-6.49 8.35-1.78 20.06 3.83 27 4.09 3.38.14 7.64-.06 12 .13a8 8 0 0 0-2.82 5.22 4.37 4.37 0 0 0 .26 2.42 23.14 23.14 0 0 1 .39-2.33 10.86 10.86 0 0 1 .7-2.13 16.33 16.33 0 0 1 1.82-3l.15-.21a35.59 35.59 0 0 1 11.38 2.16 10.45 10.45 0 0 0-2.87 6.67 3 3 0 0 0 .1 1 .89.89 0 0 0 .07-.2 32.83 32.83 0 0 1 1.44-4.16c.75-1.64 1.34-2.54 1.63-3.11a15.13 15.13 0 0 1 7.57 6.57c-12 3.79-24.94-2.31-32.86-3.66a172 172 0 0 0-18.9-2.43 4.28 4.28 0 0 0 1.8-3.52 1.1 1.1 0 0 0-.15-.48zm-8.76-3a27 27 0 0 1-1 3.55c-.66 1.61-1 2-1.39 2.89a21.65 21.65 0 0 1-4-1.19c-.41-1.1 1.65-4.25 6.39-5.28zm-7 6.2c0-.11.18.22.53.34 7.2 2.48 8.46-.32 32.4 3.72 6.51 1.1 11.24 3.6 18.77 4.67a4.85 4.85 0 0 0 .1 3.24 5.75 5.75 0 0 0 .79 1.54 4.93 4.93 0 0 0 .73.79 2.11 2.11 0 0 0 .46.3l.15.06a.82.82 0 0 0-.06-.14l-.25-.48a12.56 12.56 0 0 1-1.07-2.38c-.47-1.44-.58-2.57-.79-2.95 4.64.66 9.56.86 14-.65a.8.8 0 0 0 .41.49l.12.05c-1.84 2.06-3.37 4-5.94 5.33a21.87 21.87 0 0 1-8.37 2.08.23.23 0 0 0-.15.1c-6.83-11.45-22.86-10.83-30.47-9a7.92 7.92 0 0 0-2.44-1.25 2.47 2.47 0 0 0 1.14-1.05 2.08 2.08 0 0 0 .25-1.89l-.06-.09s-.05 0-.22.35c-1.17 2.2-1.19 2-1.38 2.4l-.07.16c-4.45-1.39-12.15-1.86-15.93-2a1.58 1.58 0 0 0 .57-.67.62.62 0 0 0 .06-.25.17.17 0 0 0 0-.08h-.07a1.08 1.08 0 0 0-.21.11c-.19.1-.47.3-.93.53l-.63.29h-1a7.23 7.23 0 0 1-.45-3.7zm-9.88 7.93a23.21 23.21 0 0 1 7-2.47 37.22 37.22 0 0 1 4.52-.58A45.3 45.3 0 0 1 134.94 41c.82.26 1.64.63 2.48.87l-1.57.46c-.14 0-.15.29 0 .28 7.53-.48 23.11-3.22 31.21 7.4a11.9 11.9 0 0 1 .83 1.3 22.28 22.28 0 0 0-2.71 0 27.59 27.59 0 0 0-11.42-7c-7.44-2.32-12.36-.48-17.65-.21a18.87 18.87 0 0 1-5.22-.39c-2.62-.59-5.23-1.21-7.9-1.55a23.38 23.38 0 0 0-12.43 1.38.6.6 0 0 0 0-.28 1.75 1.75 0 0 0-.73-1.1 1.47 1.47 0 0 0-1.23-.32c-.23.07-.28.18-.28.18l.06.06a1.25 1.25 0 0 0 .19.15c.18.13.45.29.83.58s.63.52.82.65l.22.13a12.88 12.88 0 0 0-7.79 9c.07-.34-.42-1.24-.49-1.64a7 7 0 0 1 1.26-5.07 11.81 11.81 0 0 1 4.14-3.59zm37.88 9.13a5.15 5.15 0 0 0-.72 2 28.53 28.53 0 0 0-10-.07 15.22 15.22 0 0 1 1.27-2.87h-.1a1.36 1.36 0 0 0-.33.12 2.64 2.64 0 0 0-1.18 1.37 2.47 2.47 0 0 0-.17 1.44 32.39 32.39 0 0 0-13.59 5c2.81-2.74 2.49-7.34.41-9.26 3 .36 6 .84 8.77.95 5.26.19 10.34-1.57 15.59-1.46 6.5.15 9.78 2.58 12.69 4.15a28.62 28.62 0 0 0-7.09 3.87 11.4 11.4 0 0 0-5.67-3.15c.93-2.48 2.21-3.4 2.87-4.37a4.45 4.45 0 0 0-2.76 2.25zm-26 7.92c-.3.24-.59.49-.88.76-3.63-1.07-6-1.25-9.61-3.24a7 7 0 0 0 3.88-6.89 3.2 3.2 0 0 0-.19-.79 1 1 0 0 0-.09-.21 34.53 34.53 0 0 1 8.29.19c2.69 5.75-.43 8.38-1.55 10.24zm-13.35 3.76c-2.9-2.68-3.5-5.32-3-8.76a.3.3 0 0 0 .2-.1c2.84 3.06 10.4 6.32 14.38 6.74a23.13 23.13 0 0 0-4.25 6.2c-1.61-.81-4.16-1.4-6.86-3.69a6.24 6.24 0 0 0 4.24-2.08 3.35 3.35 0 0 0 1-1.85c-1.08.66-1.16 2.08-5.71 3.54zm18.4-14.59a2.16 2.16 0 0 0 .44-.48 3.55 3.55 0 0 0 .53-1.18 3.94 3.94 0 0 0-.07-2.11 3.71 3.71 0 0 0-1-1.55c3.12.59 6.13 1.55 9.24 1.84a14.22 14.22 0 0 1-1.14 4.09 25.12 25.12 0 0 1-3.88.07c-3.57-.24-7.12-1.06-10.7-1.37a2.9 2.9 0 0 0 .47-1.46 4.16 4.16 0 0 0-.27-1.73 4 4 0 0 0-.93-1.44L117 43l-.22-.16-.13-.08A27 27 0 0 1 123 43l.37.06a4 4 0 0 1 .54.55 4.51 4.51 0 0 1 .8 1.46 4.45 4.45 0 0 1 .15 1.75 5.91 5.91 0 0 1-.23 1.1l-.19.58c0 .13-.05.18-.05.18a.61.61 0 0 0 .11-.14zM117.44 45a5.66 5.66 0 0 1 .33 1.44c.06.75 0 1.13 0 1.43-5.11-.42-11.1.54-14.14 4.58 2.24-6 6.77-8.89 12.41-9.59l.15.17a5.88 5.88 0 0 1 1.25 1.97zm-4.88 4c-.25.69.36 4-3.89 7.68-1.67-1-3.24-2-4.93-3a13 13 0 0 1 8.82-4.68zm40.17-.09c-.5-.16-1-.3-1.53-.43a25.31 25.31 0 0 0-6.25-.79l.64-.83c1-1.32 1.42-1.73 1.71-2.15a3.14 3.14 0 0 0 .24-.4.58.58 0 0 0 .05-.13h-.13a2.37 2.37 0 0 0-.42.2 6.52 6.52 0 0 0-2.21 2.22 5 5 0 0 0-.5 1.06c-3.84.11-7.61 1.06-11.43 1.42a4.12 4.12 0 0 0 1.21-4 19.36 19.36 0 0 0 4.53-.23c1.73-.26 3.42-.64 5.54-.8A26.92 26.92 0 0 1 164 51.16l.26.23a25.26 25.26 0 0 0-4.8 1l-.42.14a15.79 15.79 0 0 0-6.31-3.62zm-48.46-4.75a8.18 8.18 0 0 0-3 6.19 7.27 7.27 0 0 0 .69 2.86 7 7 0 0 0-3.65 3.37 15 15 0 0 1 5.96-12.42zm8 24.59a.77.77 0 0 0-.31-.12c-7.78-1.2-14.69-7.13-12.74-11.72a6.36 6.36 0 0 1 2.94-2.81h.18c-2.15 4.35 2.57 12.19 10.68 14.06-.08.21-.17.41-.24.62zm11.53 10.44c-3-.4-5.58-1.73-8.47-2.53-2.28-.63-5.62.21-4.74-1.94a3.91 3.91 0 0 1 .31-.61 13.27 13.27 0 0 1 1.1-1.51c2.33-2.78 2.32-6.4 6.74-10.81 9.39-9.36 25.14-9.77 30.93-4.1-5.44 4.55-5.85 6.86-7 11-.58 2.16-2.48 3.3-3.44 5.23a1.75 1.75 0 0 0-.17.43 15.34 15.34 0 0 1-4.2 1.6 17.43 17.43 0 0 1-2.24.34 9.91 9.91 0 0 0 2.3.09 11.39 11.39 0 0 0 2.71-.51 10 10 0 0 0 1.38-.53 2.23 2.23 0 0 0 .27.72 18.36 18.36 0 0 1-3.45 1.29 7.39 7.39 0 0 0 4.08-.64l.13.08a32.44 32.44 0 0 1-16.27 2.4zm54.61-9.5c-6.75 6.44-18.06 9.69-26.44 8.74a47.2 47.2 0 0 1-6.18-1.62 15.51 15.51 0 0 0-3.18-.44 2.62 2.62 0 0 1-.81-.14c-1.61-.59-.59-2.76.37-3.86a12.22 12.22 0 0 0 2-4.76 18.15 18.15 0 0 1 6.25-9.08c5.25-4.31 12.6-6.65 18.48-6.07 12.68 1.04 15.8 11.21 9.48 17.23zm.89-14.6a19.15 19.15 0 0 0-8.2-3.45c-.43-.08-.87-.16-1.3-.21-.09-.19-.19-.37-.29-.56a13.88 13.88 0 0 0 8.75-1.68c2.36-1.23 5.08-3.24 6.3-5.74.13 0 .21 0 .26-.05a12.41 12.41 0 0 1 .9 3.68 15.43 15.43 0 0 1-1.28 6.1 12.64 12.64 0 0 1-5.17 1.91zm6.32-2.77a12.75 12.75 0 0 0 .14-9.91 4.9 4.9 0 0 0 4.44-2.34 13 13 0 0 1-4.61 12.25z"/><path class="cls-4" d="M120.19 39.77a.36.36 0 0 0-.26.16 13 13 0 0 0 1.46 1.31 1.09 1.09 0 0 0 .28.13.25.25 0 0 0 0-.07.65.65 0 0 0 0-.24 1.43 1.43 0 0 0-.53-1 1.12 1.12 0 0 0-.95-.29z"/><path class="cls-1" d="M29.15 53.32v.47l.41-1.79a6.71 6.71 0 0 0-.41 1.32zm23.56-19.79l-.13.15z"/><path class="cls-5" d="M95.35 77.58c7.57-1.18 11.08-3.41 14.34-4.86a2.27 2.27 0 0 0 1.14-1.49s-9.36-15.06-9.83-16.48c-4.74-7.23-10.1-14.15-17.38-19-6.46-4.29-14.82-7.49-22.33-5.59a16.13 16.13 0 0 0-7.21 3.74c1.24-.88 5.39-2.49 7.68-1.84 5.33 1.53 9.55-.62 18.65 5.7a21.47 21.47 0 0 1 3.49 2.88A21.37 21.37 0 0 1 86.81 45c.06.09-.08.2-.14.1a23 23 0 0 0-20-11c-6.79 0-5-1.79-9.54-.22 2.93.65 2.14 2.28 7.87 5.71-.43-.26-1.26-.21-1.77-.45a7.22 7.22 0 0 1-1.48-1 26.6 26.6 0 0 0-2.71-2.26c-1.71-1-5.69-1.35-6.65.92a21.08 21.08 0 0 1 4 0 21.27 21.27 0 0 1-4.19 1c0 .22.05.44.08.65a7.9 7.9 0 0 1 6 .36 11.64 11.64 0 0 0-5.76.55q.16.42.3.84c2.29-.08 4.78.38 6.26 1.83 4.58-3.14 10.8-1.86 14.36 2 1.29-.52 5.39 1.36 6.58 5.72.12.26.25.52.36.78 1.62.68 2.87 2.6 4.36 3.43 2.25 1.24 5.17.38 7.14 2.29a17.22 17.22 0 0 1 2.14 3.05c3.53 5.43 3.73 6.15 9.85 10.8.16.12 0 .34-.2.23a32.17 32.17 0 0 1-6.26-5.45c-4.78-5.13-3.27-4.69-5.1-7-2.07-2.54-5.49-1.39-8.09-2.83a10.22 10.22 0 0 1-2.35-2c-.26-.27-.53-.52-.81-.77a31.9 31.9 0 0 1 1.2 5.31c1.39 1.21 1.12 1 4.22 2.42 9 4.08 8 11 12.11 13.5.09.06 0 .21-.07.15-4.72-2.56-4.48-6.57-7.51-9.79-2.3-2.45-5.5-2.33-8.5-4.11.18 1.89.21 3 .23 3.86 1.16 1.2-.37.52 4.72 4.11 2 1 2.56 1.43 2.72 1.52-2.54-1-5.54-1.67-7.43-3.81-.05 4-.48 5.66-.54 7.2a20.51 20.51 0 0 1 4.25.79 21 21 0 0 1-4.3.16 5.07 5.07 0 0 1-.12.95 32.09 32.09 0 0 1 5.11 1 33.6 33.6 0 0 1-5.36-.06c-.08.27-.18.53-.27.79a61 61 0 0 0 8.41.64 25.3 25.3 0 0 1-8.75.27c0 .1-.07.19-.1.29a44.84 44.84 0 0 0 14.27.11zM86.08 39.3c-.85-.6-2-1.37-3.57-2.31-8.17-4.88-14.85-5.76-18.85-6.49a22.21 22.21 0 0 1 6.42.6A37.44 37.44 0 0 1 86.3 39a23.71 23.71 0 0 1 2.07 1.95zm16.82 22.81c-2.45-1-3.67-2.85-4.94-5.1-5.6-10-7.89-4.57-15.34-10.62-2.63-2.14-4.93-4.8-7.93-6.45-.21-.11-.07-.44.15-.34 3 1.4 5.22 3.59 7.73 5.6 5.91 4.73 11.45 2.24 15.14 9.22 1.37 2.61 2.57 6 5.27 7.5a.1.1 0 0 1-.08.19zM90.51 43.18c7.34 7.87 13.28 15.92 17.56 26.61a242.88 242.88 0 0 0-17.56-26.61zm2.35 33.45c.21-.07.56-.15 1.12-.29 8.64-2.2 6.14-1.42 14.25-4.57 0 0-7 5.06-15.28 5h-.38z"/><path class="cls-5" d="M94.56 23.72a28.64 28.64 0 0 0-16.14-4 46.67 46.67 0 0 0-7.69 1.41A22.71 22.71 0 0 0 64.59 24a21.16 21.16 0 0 1 12.65-2.21c.2 0 8.39.45 17.82 7.25a27.28 27.28 0 0 1 2.76 2l2.94 2.69-.91-.63c.21.22.37.39.5.5.32.28.3.29 0 0A39.2 39.2 0 0 0 97 31.24c-2.43-1.51-5-2.71-7.6-4.07 4.22 3.6 7.43 8.31 11.86 11.65 1.56 1.17 3.62 2.42 4.18 4.52.1.39-.26.42-.42 0-.66-1.69-2.42-2.61-3.93-3.61-9.74-6.47-11-19-31.28-16.55 29 .87 44.05 43.54 44.64 44.38a7.3 7.3 0 0 0-.45-4.7c-3.66-10.58-1.33-9.89-5.51-15.79a11.73 11.73 0 0 1 3.42 5.2c1.53 4.16 1.14 7 3.2 10.2a47.81 47.81 0 0 0-1.71-13.7c-3.02-11.59-8.04-18.7-18.84-25.05z"/><path class="cls-6" d="M44.5 43.84a11 11 0 0 1 5.91-3.37 8.82 8.82 0 0 1-.06-2.41 12.89 12.89 0 0 1-6.92 5.16 16.41 16.41 0 0 0 6-5.29 74.09 74.09 0 0 0-9.09-.93l.14.06a23.81 23.81 0 0 1-7.95 9 32.27 32.27 0 0 0 7-9 73.09 73.09 0 0 0-15.4 1.54 15.61 15.61 0 0 1-6.25 9.59 18.78 18.78 0 0 0 5.36-9.4 84.13 84.13 0 0 0-17.6 6.03A36.26 36.26 0 0 1 15.45 40a19.47 19.47 0 0 0-9.09-1.61 12.87 12.87 0 0 1 6-.19 15.05 15.05 0 0 1 4.2 1.39A71.5 71.5 0 0 1 33.81 36 27 27 0 0 0 21 31a22.29 22.29 0 0 1 14 4.9 67.79 67.79 0 0 1 11.93.1 21.29 21.29 0 0 0-9-6.36 17.59 17.59 0 0 1 10.08 6.41l-.08.07c4 .49 2.06.82 3.31-1.19a5.38 5.38 0 0 1 1.25-1.27l.13-.15c-1.4-.68-2.83-1.52-4.84-2.48A24.08 24.08 0 0 1 37 27.13l-.74-.13a46.15 46.15 0 0 0-13.17-.3C12.78 28.3 3.72 35.57 1.37 45.88a.39.39 0 0 1-.09.17c3.79.55 5.78 2.46 15 3.4 7.6.76 11.11-.31 14.08-.61 3.73-3.93 11.5-5.76 14.14-5zM15.42 30.25l1.16-.54a30.36 30.36 0 0 1 13.86-2.48 27.23 27.23 0 0 1 4.4.62c.53.13 1 .22 1.33.34 1.66.53 1.17.38 1.46.48-.19 0 .11 0-1.49-.23-.36-.07-.81-.1-1.34-.18a40.08 40.08 0 0 0-4.32-.34H29c-9 .4-17.42 4.95-18 5.28a19 19 0 0 1 4.42-2.95z"/><path class="cls-2" d="M25.65 89.59C45.57 88.64 64 78.07 74.38 62.7c2-2.92 4.13-6.26 4.41-9.88.22-3-1.25-6.09-4-7.13 2.88 4.7 2.14 11-4.73 15.89a16.12 16.12 0 0 1-4.65 2.65 5.56 5.56 0 0 1-.53 2.23 40.1 40.1 0 0 1 4.21-2.75 40.37 40.37 0 0 1-5.51 4.64 15.28 15.28 0 0 1-2.9 2.16 54.7 54.7 0 0 1-6.25 4.2 16.62 16.62 0 0 1 2.48-2.26 11.54 11.54 0 0 1-2.37.78c-.68 6.34-10.57 10.44-17.17 8.64L32.08 85s.45-.43 1.34-1.14a12.19 12.19 0 0 1-5.32 1.35 13.91 13.91 0 0 1-3.36 1.4 12.44 12.44 0 0 1 1.78-1.51 8.08 8.08 0 0 1-2.63-.83l.11.16a13.08 13.08 0 0 1-3.26 1.74 12.93 12.93 0 0 1 2.44-2.32 7.28 7.28 0 0 1-1.12-.93A19.58 19.58 0 0 1 18.15 85a19.77 19.77 0 0 1 3.28-2.87 3 3 0 0 1-.2-.29c-.93 1.06-1.24.25-9 5.17a92.205 92.205 0 0 1-5.88 3.46c5.96-1.97 13.22-.59 19.3-.88zm37.18-19.8a13.41 13.41 0 0 1 3.43-2.3s-.34.87-2.89 2.9a12.21 12.21 0 0 1-3.25 2.15s.15-.71 2.71-2.75zm.86 3.33c-.65.49-7.21 7-15.62 10.47a60.48 60.48 0 0 1-17.32 4.57c21.68-5.92 20.48-6.77 32.94-15.04zm-43.34 6.63a4.4 4.4 0 0 1-.12-.74 56 56 0 0 1-6 3.43 59.37 59.37 0 0 1 6-4.59 4.2 4.2 0 0 1 .41-1.3c-6.09 4.09-9.87 6.16-9.87 6.16s3.1-2.59 8.77-6.56a3.24 3.24 0 0 1-1.18-.53 29.22 29.22 0 0 1-4.07 2A29.47 29.47 0 0 1 17.7 75a8.15 8.15 0 0 1-1.56-2.86 17.25 17.25 0 0 0-2.77 3c-2.89 4.54-3.66 10-6.45 13.8 10.31-6.94 10.19-7.55 13.43-9.19z"/><path class="cls-3" d="M26.31 83.28c4.13 1 7.49-1.46 8.93-2.31-1.84-1.33-1.53-3.87-.73-3a7 7 0 0 0 5.23 2.59 17.34 17.34 0 0 0 6.12-.62c5-1.5 6.37-4.3 7.83-8.38.07-.2 1.25-.21 1.45-.23a15.45 15.45 0 0 0 7.4-4.06 5.42 5.42 0 0 0 1-6.17c-.07-.12.11-.21.2-.15a4.76 4.76 0 0 1 .47.41 14 14 0 0 1 3.31-1.66 13.51 13.51 0 0 1-2.72 2.42 3.64 3.64 0 0 1 .33.69c.9-.68 2-1.16 2.92-1.77 4.45-2.88 7.68-6.85 6.38-11.92-1.44-5.61-7.06-9-15-6.2-1 .35-3.51-2-8.18-1-7.91 1.58-10.26 9.39-.41 11.89 3.93 1 5.62 0 7.46.07-.15 0 .3-4.69 1.78-5.74-.32.26-.85 4.47 0 7.81a5.52 5.52 0 0 0 1.47 2.36 7.34 7.34 0 0 0-2.72-.52 13.62 13.62 0 0 0-6.58 3.89 15.82 15.82 0 0 0-2.31 3.24l.6.2a20.08 20.08 0 0 1 3.05-2.68 18.43 18.43 0 0 1-2.15 3.07 15.28 15.28 0 0 1 1.71 1 10 10 0 0 0-2.21-.4l-.08.09-.13-.2c-3.25-.31-7.81-1.38-11.57 1.43-2.44 1.85-6.16 8.57-9.78 6.45.88.5 2.75-.8 3.4-1.33 4-3.22 4.92-9.84 15.31-8.1 2.77-1.89 3.29-5.2 7.45-6.9a30.8 30.8 0 0 0-6.85 2.94A20.64 20.64 0 0 1 57.93 56a2.42 2.42 0 0 1-.12-.35 63.32 63.32 0 0 1-7.31 1.82 55.33 55.33 0 0 1 5.15-2.08c-4.45.7-4.8-1.2-11.81 1.13a10.72 10.72 0 0 1 4.73-1.9l-.41-.18a16.19 16.19 0 0 0-8.5 1.94 13.11 13.11 0 0 1 6.89-2.78l-.3-.19A9.11 9.11 0 0 0 38 56.64c-1 1.24-1.41 3-2.29 4.28 6.62-.81 10.53-2.44 9.65-1.62-4.36 4.09-12.56.96-17.55 6.7-2.47 2.86-1.46 6.27-.91 6.18a5.59 5.59 0 0 0-3.29 1.31c-3.91 4.51-1.39 8.8 2.7 9.79zm21.16-32.17c-2-2-1.94-5.24.81-6.26a3.76 3.76 0 0 0-.86.88A3.56 3.56 0 0 0 47 49c1.24 3.37 6.2 3.67 7.69 4.08-.03-.08-4.48.72-7.22-1.97zm9.81 1.29a2.38 2.38 0 0 1-.61-1.58A4.85 4.85 0 0 1 58 47a2.32 2.32 0 0 1 .41-.3.5.5 0 0 1 .13-.07c-.54 2.04-.97 1.14-1.26 5.77zm9.78-7h.16a2.94 2.94 0 0 1 1.06.35 4 4 0 0 1 .61.39 5.47 5.47 0 0 1 2 5.6.92.92 0 0 1-.07.18.94.94 0 0 1-.06-.19c0-.13-.06-.33-.12-.63a8.92 8.92 0 0 0-3.58-5.7zm5.63 8.81a7.81 7.81 0 0 1-2.27 3.07 6.66 6.66 0 0 1-1.66 1l-.51.17.42-.32A11.06 11.06 0 0 0 70 56.88a8.52 8.52 0 0 0 1.76-3 8.3 8.3 0 0 0 .29-1.12 8.48 8.48 0 0 0 .11-1.28 7.58 7.58 0 0 0-.61-2.93 10.25 10.25 0 0 0-3.42-3.73 9.23 9.23 0 0 0-5.47-.82c6.28-2.91 12.62 4 10.03 10.21zM58.58 68a11 11 0 0 0 2.06-1.54 15.2 15.2 0 0 0 1.12-1.18c.27-.31.45-.53.56-.67l.18-.18a1.26 1.26 0 0 1 0 .26 3.74 3.74 0 0 1-.23.87 5.85 5.85 0 0 1-.89 1.53c-1.6 2-4.73 3.52-7.44 2.72A22.12 22.12 0 0 0 58.58 68zM44.11 79.33A9.39 9.39 0 0 1 37 78.14s2.74.32 3.38.34c5.9.26 8.83-2.87 10-3.54-.1.06-1.47 3.37-6.27 4.39zm-6.63-8.68c4.14-4.53 8.73-2.82 8.76-2.82-1.44.62-4.35 0-9.58 4.66l-.21.17a4 4 0 0 1 1.03-2.01zm-9-3.26c2.74-3.44 8.44-3.21 8.47-3.22-3.15 1.31-7.12 1.28-9.5 5.9a3.73 3.73 0 0 1 1-2.68zM24.18 75a5 5 0 0 0 0 4.23c2 3.85 7.06 2.19 7.48 2.2a5.13 5.13 0 0 1-3.51 1.27c-4.46.05-7.22-4.98-3.97-7.7z"/><path class="cls-3" d="M20.72 74.73a.69.69 0 0 1 .53.37c.93-2.92 3.69-4.21 4.35-4-1.48-3.54 1-8.54 8.2-9.86 1.51-2.08 1.3-4.49 4.53-7.08a10.46 10.46 0 0 1 6-2.28 5.37 5.37 0 0 1-1.56-4.36c0-.28.56-1.81.8-1.84-3.08.28-6.19.28-9 1.59a9.51 9.51 0 0 0-5 4.74l-.46 1.81a12.63 12.63 0 0 0 .68 4.53c-.23-.32-.65-1-1.11-1.59-.51.24-3.46.29-5.9 1.79-6.67 4.09-7.29 15.35-2.06 16.18zm12.54-25.41A6.82 6.82 0 0 1 39.58 48c-.33.16-6.12-.21-8.49 5.69-.09.22-.18.45-.43 1.18a6.22 6.22 0 0 1 2.6-5.55zm-10.89 12.6c-1.44 2.45-5 7.07-.5 10.41a1.09 1.09 0 0 1-.3 0 4.22 4.22 0 0 1-2.48-2c-1.37-2.51-.09-6.8 3.28-8.41z"/><path class="cls-5" d="M79.51 74.69a26 26 0 0 1-3.18 4.92 36 36 0 0 0 4.52-11.45 34.43 34.43 0 0 0 .15-4.67.76.76 0 0 1-.16-.51A58.1 58.1 0 0 1 77 73c-4.66 10-6.23 9.11-10.28 12.32-4.32 3.42-4.7 5.22-6.57 6.14 7.67-10.51 10-7.43 13.65-14.73C66 85.25 50.46 84 44.72 93.36c-.82 1.35.82-4.87 10-8.57 10.12-4.1 19.67-3.8 24.62-21.54-4.54 8.22-14.56 15-14.83 15-1.39.94-2.17 1.42-2.17 1.42 2.68-2.71 17.21-13.28 17.63-24A16.2 16.2 0 0 1 76 63C64.66 80.22 47.9 90.1 26.7 91.19c-5.75.3-11.88-.94-17.54 0-.84.14-3-.08-3.34.87a10.13 10.13 0 0 1 5.66-.12 16.18 16.18 0 0 0-5.41 1l.08.07c5-1 9.28 1.18 13.59 3.22 22.34 10.58 52.72 1 59.77-21.54zm-34 14.23a30.11 30.11 0 0 1-6.66 2.47A44.51 44.51 0 0 1 32 92.63a40.32 40.32 0 0 1-13.33-.57c11.33.25 14.33.33 26.81-3.14zm-24 6.81a18.44 18.44 0 0 1-3.21-1.59c-6.15-3.56 3.3 1 10.34 1.62 5.82.53 10.07-2.26 12.17-3.08 1.05-.41-.92 2.16-5.66 3.46 2.95.43 9.46 2.43 15 0 .12 0 .18.13.07.19-6.56 3.31-8.72 1.69-14.74 1.13-3.15-.3-8.37.18-14.02-1.73zm41.03-2.33c-9.6 5.34-16.1 6.16-24.4 6.2C53.62 97.4 60.7 94.73 74 83.66c-1 1.09-3 4.57-11.46 9.74z"/><path class="cls-2" d="M114 71.06c.68-1.36-1.76-4.39-3.35-7.92-17.3-38.39-40.95-43-51.83-35.59L57 29.14a15 15 0 0 1 6.12-2.46 22.08 22.08 0 0 0-7.83 5c12-9.6 30 .92 40 12.54 8.31 9.6 17.14 26.66 17.45 27.18a.87.87 0 0 0 1.26-.34z"/><path class="cls-6" d="M58.28 16.22A12.85 12.85 0 0 1 62 9.8c-.79 2-2.16 3.55-3.29 7.85l2 6.92 1.55-.88a8.41 8.41 0 0 1-2.8-3.69A15.26 15.26 0 0 0 63 23.17c.33-.23.67-.46 1-.67a39.37 39.37 0 0 1 1.23-5.26A13.93 13.93 0 0 1 64 10.75a34.31 34.31 0 0 0 1.64 5.19c-.12-.28.38-1.35.47-1.66.65-2.18 1.2-3.83 1.68-5.62 0 .58.13 4.41-2.34 12.76a51.81 51.81 0 0 0 5.63-5.11 22.72 22.72 0 0 1-3.57 4.35 30.56 30.56 0 0 1 5.93-1.89c-.13-2.46 2.21-4.77-4.45-16a23.49 23.49 0 0 0-10.9 12.73zM28.14.77c.66 4-1 18.26 8.93 24.93a59.82 59.82 0 0 1 13.1 4.73 28.33 28.33 0 0 0 3.92-.13 20.32 20.32 0 0 1 1.44-2c-.07-.08.18.23-.83-1a22.82 22.82 0 0 1-10-.71 34.94 34.94 0 0 0 9.41 0c-2.09-2.54-4.19-5-6.43-7.42a47 47 0 0 1-14.16-2.94 73.63 73.63 0 0 0 13.32 2.06A77.84 77.84 0 0 0 33.89 7.34c-.18-.13-1.17-1.17-1-1.06a75.11 75.11 0 0 1 11.33 8.05 25.93 25.93 0 0 0-4.17-10 20.62 20.62 0 0 1 5.15 10.86 74.9 74.9 0 0 1 8 7.74 29.37 29.37 0 0 0-1.16-11.85A23.27 23.27 0 0 1 54 23.78c.95 1.12 1.85 2.27 2.68 3.44l.53-.42c-1.65-2.52-1.76-8.54-.41-12.44C51.41-.06 32.34 1.16 28.14.77zm8.71 22.86a15.28 15.28 0 0 0 4 2.36 8.1 8.1 0 0 1-4.35-1.79 12.48 12.48 0 0 1-3.17-3.41 15.52 15.52 0 0 1-2.41-8.46c1.08 3.55 1.83 7.86 5.93 11.3zm4.54 4.86A37.05 37.05 0 0 0 37 27.13 24.08 24.08 0 0 0 47.83 31a55.46 55.46 0 0 0-6.44-2.51zm15.34.82l.26-.17 1.86-1.59a15.12 15.12 0 0 0-2.12 1.76z"/><path class="cls-6" d="M58.42 18.8c-.1.42-.21.84-.28 1.12a1.24 1.24 0 0 1-.06-.25 5.29 5.29 0 0 1-.07-.9 10.9 10.9 0 0 1 .27-2.55l-.21-.71a15.86 15.86 0 0 0-.81 5.4 17.09 17.09 0 0 0 1 5.18 17.11 17.11 0 0 1 2.45-1.52l-2-6.92c-.1.35-.2.75-.29 1.15z"/><path class="cls-7" d="M115.52 50.61c-3.7-14.74-7.4-19.43-18.75-27a31.24 31.24 0 0 0-16.43-5.52 33.13 33.13 0 0 0-5.51.41 10.9 10.9 0 0 0 .2-2.59C75.16 8 69.23 2 68.93 2.21c-3.64 2.45-7.51 4-10.43 8.59-.14.22-1 1.39-.92 1.62-1.91-4.4-6-7.8-10.3-9.7C40.18-.43 26.79-.57 27.59.9c-.43 1.2-1.7 16.63 6.3 24.22-14-2-25 3.73-29.89 11.78-.39.64-4.47 9.29-4 9.94a.81.81 0 0 0 .47.23c3.55.84 14.38 5.9 28.33 3.7a5.7 5.7 0 0 0-1.1 4.46C21.41 55.65 15 62 15.82 70.5c-6.14 5.57-7.21 14-9.61 17.42-.57.81-1.73 1.57-2.15 2.42a4.27 4.27 0 0 0 .26 3.36C5.76 95.39 9 94.8 11 95c7.25.77 10.81 5.54 21.69 7.3 20.21 3.25 42.14-8.87 47.64-22.17 11.37 3 25.9-4 30.37-5.21 3.22-.86 6 .42 5.86-6.75-.13-5.9.44-11.79-1.04-17.56zM19.74 96.25C15.43 94.21 11.13 92 6.15 93h-.08a16.18 16.18 0 0 1 5.41-1 10.13 10.13 0 0 0-5.66.12c.29-1 2.5-.73 3.34-.87 5.66-.94 11.79.3 17.54 0C47.9 90.1 64.66 80.22 76 63a16.2 16.2 0 0 0 3.88-7.29c-.42 10.69-15 21.26-17.63 24 0 0 .78-.48 2.17-1.42.27 0 10.29-6.76 14.83-15-5 17.74-14.5 17.44-24.62 21.54-9.13 3.7-10.77 9.92-10 8.57C50.46 84 66 85.25 73.81 76.75c-3.6 7.3-6 4.22-13.65 14.73 1.87-.92 2.25-2.72 6.57-6.14C70.78 82.13 72.35 83 77 73a58.1 58.1 0 0 0 3.85-10 .76.76 0 0 0 .16.51 34.43 34.43 0 0 1-.17 4.67 36 36 0 0 1-4.52 11.45 26 26 0 0 0 3.18-4.92c-7.04 22.52-37.42 32.1-59.76 21.54zm-3.6-24.11A8.15 8.15 0 0 0 17.7 75a29.47 29.47 0 0 0-3.37 2.58 29.22 29.22 0 0 0 4.07-2 3.24 3.24 0 0 0 1.18.53c-5.67 4-8.77 6.56-8.77 6.56s3.78-2.07 9.87-6.16a4.2 4.2 0 0 0-.41 1.3 59.37 59.37 0 0 0-6 4.59 56 56 0 0 0 6-3.43 4.4 4.4 0 0 0 .12.74C17.11 81.39 17.23 82 6.92 89c2.79-3.85 3.56-9.26 6.45-13.8a17.25 17.25 0 0 1 2.77-3.06zm6.63-13.62c2.44-1.5 5.39-1.55 5.9-1.79.46.55.88 1.27 1.11 1.59a12.63 12.63 0 0 1-.68-4.53v-.47a6.71 6.71 0 0 1 .46-1.32 9.51 9.51 0 0 1 5-4.74c2.86-1.31 6-1.31 9-1.59-.24 0-.76 1.56-.8 1.84a5.37 5.37 0 0 0 1.56 4.36 10.46 10.46 0 0 0-6 2.28c-3.23 2.59-3 5-4.53 7.08-7.18 1.32-9.68 6.32-8.2 9.86-.66-.18-3.42 1.11-4.35 4a.69.69 0 0 0-.53-.37c-5.22-.82-4.6-12.08 2.06-16.2zm-6.49-9.07c-9.22-.94-11.21-2.85-15-3.4a.39.39 0 0 0 .09-.17C3.72 35.57 12.78 28.3 23.09 26.69a46.15 46.15 0 0 1 13.17.3l.69.14a37.05 37.05 0 0 1 4.44 1.36A55.46 55.46 0 0 1 47.83 31c2 1 3.44 1.8 4.84 2.48l-.17.13a5.38 5.38 0 0 0-1.25 1.27C50 36.94 52 36.61 48 36.12l.08-.07A17.59 17.59 0 0 0 38 29.64 21.29 21.29 0 0 1 47 36a67.79 67.79 0 0 0-12-.08A22.29 22.29 0 0 0 21 31a27 27 0 0 1 12.85 5 71.5 71.5 0 0 0-17.29 3.56 15.05 15.05 0 0 0-4.2-1.39 12.87 12.87 0 0 0-6 .19A19.47 19.47 0 0 1 15.45 40a36.26 36.26 0 0 0-9.81 4.86 84.13 84.13 0 0 1 17.64-6.11 18.78 18.78 0 0 1-5.36 9.4 15.61 15.61 0 0 0 6.25-9.59A73.09 73.09 0 0 1 39.57 37a32.27 32.27 0 0 1-7 9 23.81 23.81 0 0 0 7.95-9h-.18a74.09 74.09 0 0 1 9.09.93 16.41 16.41 0 0 1-6 5.29 12.89 12.89 0 0 0 6.92-5.16 8.82 8.82 0 0 0 .06 2.41 11 11 0 0 0-5.91 3.37c-2.64-.76-10.41 1.07-14.14 5-2.97.3-6.48 1.37-14.08.61zM69 2.78c6.66 11.22 4.32 13.53 4.45 16a30.56 30.56 0 0 0-5.93 1.89 22.72 22.72 0 0 0 3.57-4.35 51.81 51.81 0 0 1-5.63 5.11c2.47-8.35 2.3-12.18 2.34-12.76-.48 1.79-1 3.44-1.68 5.62-.09.31-.59 1.38-.47 1.66a34.31 34.31 0 0 1-1.65-5.2 13.93 13.93 0 0 0 1.28 6.49A39.37 39.37 0 0 0 64 22.5c-.35.21-.69.44-1 .67A15.26 15.26 0 0 1 59.46 20a8.41 8.41 0 0 0 2.84 3.67l-1.55.88a17.11 17.11 0 0 0-2.45 1.52 17.09 17.09 0 0 1-1-5.18 15.86 15.86 0 0 1 .81-5.4A23.49 23.49 0 0 1 69 2.78zM23.61 73.53a5.59 5.59 0 0 1 3.29-1.31c-.55.09-1.56-3.32.91-6.18 5-5.78 13.17-2.65 17.56-6.74.88-.82-3 .81-9.65 1.62.88-1.31 1.28-3 2.29-4.28a9.11 9.11 0 0 1 8.24-3.21l.3.19a13.11 13.11 0 0 0-6.89 2.78 16.19 16.19 0 0 1 8.5-1.94l.41.18a10.72 10.72 0 0 0-4.73 1.9c7-2.33 7.36-.43 11.81-1.13a55.33 55.33 0 0 0-5.15 2.08 63.32 63.32 0 0 0 7.31-1.82 2.42 2.42 0 0 0 .12.35 20.64 20.64 0 0 0-9.24 4.47 30.8 30.8 0 0 1 6.85-2.94c-4.16 1.7-4.68 5-7.45 6.9-10.39-1.74-11.34 4.88-15.31 8.1-.65.53-2.52 1.83-3.4 1.33 3.66 2.07 7.34-4.6 9.78-6.42 3.76-2.81 8.32-1.74 11.57-1.43l.13.11.08-.09a10 10 0 0 1 2.21.4 15.28 15.28 0 0 0-1.71-1 18.43 18.43 0 0 0 2.15-3.07 20.08 20.08 0 0 0-3.05 2.68l-.6-.2a15.82 15.82 0 0 1 2.31-3.24 13.62 13.62 0 0 1 6.58-3.89 7.34 7.34 0 0 1 2.72.52 5.52 5.52 0 0 1-1.47-2.36c-.86-3.34-.33-7.55 0-7.81-1.48 1-1.93 5.73-1.78 5.74-1.84-.12-3.53.93-7.46-.07-9.85-2.5-7.5-10.31.41-11.89 4.67-.93 7.2 1.38 8.18 1 8-2.84 13.59.59 15 6.2 1.3 5.07-1.93 9-6.38 11.92-.94.61-2 1.09-2.92 1.77a3.64 3.64 0 0 0-.33-.69 13.51 13.51 0 0 0 2.72-2.42 14 14 0 0 0-3.31 1.66 4.76 4.76 0 0 0-.47-.41c-.09-.06-.27 0-.2.15a5.42 5.42 0 0 1-1 6.17 15.45 15.45 0 0 1-7.4 4.06c-.2 0-1.38 0-1.45.23-1.46 4.08-2.8 6.88-7.83 8.38a17.34 17.34 0 0 1-6.12.62 7 7 0 0 1-5.23-2.5c-.8-.85-1.11 1.69.73 3-1.44.85-4.8 3.3-8.93 2.31s-6.61-5.31-2.7-9.78zM12.26 87c7.73-4.92 8-4.11 9-5.17a3 3 0 0 0 .2.29A19.77 19.77 0 0 0 18.15 85a19.58 19.58 0 0 0 3.91-2.13 7.28 7.28 0 0 0 1.12.93 12.93 12.93 0 0 0-2.44 2.32A13.08 13.08 0 0 0 24 84.41l-.11-.16a8.08 8.08 0 0 0 2.63.83 12.44 12.44 0 0 0-1.78 1.51 13.91 13.91 0 0 0 3.36-1.4 12.19 12.19 0 0 0 5.32-1.35c-.89.71-1.34 1.14-1.34 1.14l5.25-3.11c6.6 1.8 16.49-2.3 17.17-8.64a11.54 11.54 0 0 0 2.37-.78 16.62 16.62 0 0 0-2.48 2.26 54.7 54.7 0 0 0 6.25-4.2 15.28 15.28 0 0 0 2.9-2.16 40.37 40.37 0 0 0 5.51-4.64 40.1 40.1 0 0 0-4.21 2.75 5.56 5.56 0 0 0 .53-2.23A16.12 16.12 0 0 0 70 61.58c6.87-4.85 7.61-11.19 4.73-15.89 2.79 1 4.26 4.16 4 7.13-.28 3.62-2.43 7-4.41 9.88C64 78.07 45.57 88.64 25.65 89.59c-6.08.29-13.34-1.09-19.27.91 1.99-1.08 3.95-2.22 5.88-3.5zm43-55.34a22.08 22.08 0 0 1 7.83-5A15 15 0 0 0 57 29.14l-.26.17a15.12 15.12 0 0 1 2.12-1.76c10.88-7.43 34.53-2.8 51.83 35.59 1.59 3.53 4 6.56 3.35 7.92a.87.87 0 0 1-1.3.36c-.31-.52-9.14-17.58-17.45-27.18C85.23 32.62 67.33 22.1 55.28 31.7zm1.89-4.9l-.53.42c-.83-1.17-1.73-2.32-2.68-3.44a23.27 23.27 0 0 0-1.91-12.72 29.37 29.37 0 0 1 1.16 11.85 74.9 74.9 0 0 0-8-7.74 20.62 20.62 0 0 0-5.12-10.82 25.93 25.93 0 0 1 4.17 10 75.11 75.11 0 0 0-11.33-8c-.19-.11.8.93 1 1.06a77.84 77.84 0 0 1 12.9 10.84 73.63 73.63 0 0 1-13.32-2.06 47 47 0 0 0 14.16 2.94c2.24 2.4 4.34 4.88 6.43 7.42a34.94 34.94 0 0 1-9.41 0 22.82 22.82 0 0 0 10 .71c1 1.24.76.93.83 1a20.32 20.32 0 0 0-1.44 2 28.33 28.33 0 0 1-3.92.13 59.82 59.82 0 0 0-13.1-4.73C27.11 19 28.8 4.81 28.14.77c4.2.39 23.27-.83 28.62 13.59-1.35 3.9-1.24 9.92.41 12.44zm24 50.39a25.3 25.3 0 0 0 8.85-.23 61 61 0 0 1-8.41-.64c.09-.26.19-.52.27-.79a33.6 33.6 0 0 0 5.36.06 32.09 32.09 0 0 0-5.11-1 5.07 5.07 0 0 0 .12-.95 21 21 0 0 0 4.3-.16 20.51 20.51 0 0 0-4.25-.79c.06-1.54.49-3.23.54-7.2 1.89 2.14 4.89 2.85 7.43 3.81-.16-.09-.77-.48-2.72-1.52-5.09-3.59-3.56-2.91-4.72-4.11 0-.85 0-2-.23-3.86 3 1.78 6.2 1.66 8.5 4.11 3 3.22 2.79 7.23 7.51 9.79.1.06.16-.09.07-.15-4.07-2.48-3.08-9.42-12.11-13.5-3.1-1.39-2.83-1.21-4.22-2.42a31.9 31.9 0 0 0-1.2-5.31c.28.25.55.5.81.77a10.22 10.22 0 0 0 2.35 2c2.6 1.44 6 .29 8.09 2.83 1.83 2.26.32 1.82 5.1 7a32.17 32.17 0 0 0 6.26 5.45c.17.11.36-.11.2-.23-6.12-4.65-6.32-5.37-9.85-10.8a17.22 17.22 0 0 0-2.14-3.05c-2-1.91-4.89-1-7.14-2.29-1.49-.83-2.74-2.75-4.36-3.43-.11-.26-.24-.52-.36-.78-1.19-4.36-5.29-6.24-6.58-5.72-3.56-3.86-9.78-5.14-14.36-2-1.48-1.45-4-1.91-6.26-1.83q-.13-.42-.3-.84a11.64 11.64 0 0 1 5.76-.55 7.9 7.9 0 0 0-6-.36c0-.21-.05-.43-.08-.65a21.27 21.27 0 0 0 4.19-1 21.08 21.08 0 0 0-4 0c1-2.27 4.94-2 6.65-.92a26.6 26.6 0 0 1 2.71 2.26 7.22 7.22 0 0 0 1.48 1c.51.24 1.34.19 1.77.45-5.73-3.43-4.94-5.06-7.87-5.71 4.52-1.57 2.75.22 9.54.22a23 23 0 0 1 20 11c.06.1.2 0 .14-.1a21.37 21.37 0 0 0-2.89-4.33 21.47 21.47 0 0 0-3.49-2.88c-9.1-6.32-13.32-4.17-18.65-5.7-2.29-.65-6.44 1-7.68 1.84a16.13 16.13 0 0 1 7.21-3.74c7.51-1.9 15.87 1.3 22.33 5.59 7.28 4.83 12.64 11.75 17.38 19 .45 1.42 9.79 16.45 9.81 16.48a2.27 2.27 0 0 1-1.14 1.49c-3.26 1.45-6.77 3.68-14.34 4.86a44.84 44.84 0 0 1-14.23-.1c-.04-.14 0-.23.03-.33zm33.91-14.71c-2.06-3.23-1.67-6-3.2-10.2a11.73 11.73 0 0 0-3.42-5.2c4.18 5.9 1.85 5.21 5.51 15.79a7.3 7.3 0 0 1 .45 4.7c-.59-.84-15.62-43.51-44.64-44.38 20.27-2.48 21.54 10.08 31.28 16.55 1.51 1 3.27 1.92 3.93 3.61.16.41.52.38.42 0-.56-2.1-2.62-3.35-4.18-4.52-4.43-3.34-7.64-8-11.86-11.65 2.56 1.36 5.17 2.56 7.6 4.07a39.2 39.2 0 0 1 3.33 2.42c-.13-.11-.29-.28-.5-.5l.91.63-2.87-2.66a27.28 27.28 0 0 0-2.76-2c-9.43-6.8-17.62-7.23-17.82-7.25A21.16 21.16 0 0 0 64.59 24a22.71 22.71 0 0 1 6.14-2.86 46.67 46.67 0 0 1 7.69-1.41 28.64 28.64 0 0 1 16.14 4c10.8 6.35 15.82 13.46 18.86 25.06a47.81 47.81 0 0 1 1.71 13.69z"/><path class="cls-7" d="M100.35 33.66c.3.29.32.28 0 0zM50.2 96.32c.11-.06 0-.24-.07-.19-5.57 2.44-12.08.44-15 0 4.74-1.3 6.71-3.87 5.66-3.46-2.1.82-6.35 3.61-12.17 3.08-7-.63-16.49-5.18-10.34-1.62a18.44 18.44 0 0 0 3.21 1.59c5.65 1.91 10.87 1.43 14 1.72 5.99.56 8.15 2.19 14.71-1.12zm47.51-41.9c-3.69-7-9.23-4.49-15.14-9.22-2.51-2-4.78-4.2-7.73-5.6-.22-.1-.36.23-.15.34 3 1.65 5.3 4.31 7.93 6.45 7.45 6 9.74.66 15.34 10.62 1.27 2.25 2.49 4.08 4.94 5.1a.1.1 0 0 0 .08-.19c-2.7-1.53-3.9-4.92-5.27-7.5zM40.34 78.48c-.64 0-3.34-.33-3.38-.34a9.39 9.39 0 0 0 7.15 1.19c4.8-1 6.17-4.36 6.2-4.39-1.14.67-4.07 3.8-9.97 3.54zm-12.23 4.2a5.13 5.13 0 0 0 3.51-1.27c-.42 0-5.45 1.65-7.48-2.2a5 5 0 0 1 0-4.23c-3.21 2.74-.45 7.77 3.97 7.7zm33.26-15.56a5.85 5.85 0 0 0 .89-1.53 3.74 3.74 0 0 0 .23-.87 1.26 1.26 0 0 0 0-.26l-.18.18c-.11.14-.29.36-.56.67a15.2 15.2 0 0 1-1.12 1.18A11 11 0 0 1 58.58 68a22.12 22.12 0 0 1-4.65 1.81c2.71.83 5.84-.65 7.44-2.69zm6.77-22.26a10.25 10.25 0 0 1 3.42 3.73 7.58 7.58 0 0 1 .61 2.93 8.48 8.48 0 0 1-.11 1.28 8.3 8.3 0 0 1-.29 1.12 8.52 8.52 0 0 1-1.76 3 11.06 11.06 0 0 1-1.34 1.24l-.42.32.51-.17a6.66 6.66 0 0 0 1.66-1 7.81 7.81 0 0 0 2.27-3.07C75.28 48 68.94 41.09 62.66 44a9.23 9.23 0 0 1 5.48.86zM21.57 72.33a1.09 1.09 0 0 0 .3 0c-4.52-3.34-.94-8 .5-10.41-3.33 1.61-4.65 5.9-3.28 8.45a4.22 4.22 0 0 0 2.48 1.96zm24.67-4.5s-4.62-1.71-8.76 2.82a4 4 0 0 0-1 2l.21-.17c5.2-4.62 8.11-4.03 9.55-4.65zm-9.32-3.66s-5.73-.22-8.47 3.22a3.73 3.73 0 0 0-1 2.68c2.35-4.62 6.32-4.59 9.47-5.9z"/><path class="cls-7" d="M38.14 99.6c8.3 0 14.8-.86 24.4-6.2C71 88.23 73 84.75 74 83.66 60.7 94.73 53.62 97.4 38.14 99.6zm70.09-27.83c-8.11 3.15-5.61 2.37-14.25 4.57-.56.14-.91.22-1.12.29l-.29.11H93c8.19.09 15.2-4.95 15.23-4.97zM31.09 53.65c2.37-5.9 8.16-5.53 8.49-5.69a6.82 6.82 0 0 0-6.32 1.36 6.22 6.22 0 0 0-2.6 5.51c.25-.73.34-.96.43-1.18zM47 49a3.56 3.56 0 0 1 .42-3.23 3.76 3.76 0 0 1 .86-.88c-2.75 1-2.83 4.27-.81 6.26C50.21 53.8 54.66 53 54.69 53c-1.49-.37-6.45-.67-7.69-4zm11.45-2.33A2.32 2.32 0 0 0 58 47a4.85 4.85 0 0 0-1.37 3.85 2.38 2.38 0 0 0 .61 1.58c.29-4.63.75-3.73 1.3-5.8a.5.5 0 0 0-.09.04zm12.3 5.06a.94.94 0 0 0 .06.19.92.92 0 0 0 .07-.18 5.47 5.47 0 0 0-2-5.6 4 4 0 0 0-.61-.39 2.94 2.94 0 0 0-1.06-.35h-.16a8.92 8.92 0 0 1 3.57 5.7c.07.3.1.5.13.63zM30.48 27.92a40.08 40.08 0 0 1 4.32.34c.53.08 1 .11 1.34.18 1.6.27 1.3.2 1.49.23-.29-.1.2 0-1.46-.48-.35-.12-.8-.21-1.33-.34a27.23 27.23 0 0 0-4.4-.62 30.36 30.36 0 0 0-13.86 2.48l-1.16.54A19 19 0 0 0 11 33.19c.61-.33 9-4.88 18-5.28zm2.82-7.13a12.48 12.48 0 0 0 3.17 3.41 8.1 8.1 0 0 0 4.35 1.8 15.28 15.28 0 0 1-4-2.36c-4.1-3.44-4.81-7.75-6-11.3a15.52 15.52 0 0 0 2.48 8.45zm24.78-1.12a1.24 1.24 0 0 0 .06.25c.07-.28.18-.7.28-1.12s.19-.78.28-1.15c1.13-4.3 2.5-5.89 3.29-7.85a12.85 12.85 0 0 0-3.71 6.42 10.9 10.9 0 0 0-.28 2.55 5.29 5.29 0 0 0 .08.9zm8.18 47.82a13.41 13.41 0 0 0-3.43 2.3c-2.56 2-2.71 2.75-2.71 2.75a12.21 12.21 0 0 0 3.25-2.15c2.55-2.03 2.89-2.9 2.89-2.9zM32 92.63a44.51 44.51 0 0 0 6.83-1.24 30.11 30.11 0 0 0 6.66-2.47C33 92.39 30 92.31 18.66 92.06a40.32 40.32 0 0 0 13.34.57zm58.51-49.45a242.88 242.88 0 0 1 17.56 26.61c-4.28-10.69-10.22-18.74-17.56-26.61zM86.3 39a37.44 37.44 0 0 0-16.22-7.9 22.21 22.21 0 0 0-6.42-.6c4 .73 10.68 1.61 18.85 6.49 1.56.94 2.72 1.71 3.57 2.31l2.29 1.61A23.71 23.71 0 0 0 86.3 39zM63.69 73.12c-12.46 8.27-11.26 9.12-32.94 15a60.48 60.48 0 0 0 17.32-4.57c8.41-3.41 14.93-9.94 15.62-10.43z"/><path class="cls-1" d="M102.24 72.25a74.85 74.85 0 0 0 5.33 9.68zm-2.96 6.84l-.12-.24-.2-.19zm32.37.91h.13a2.18 2.18 0 0 0-.38-.07z"/><path class="cls-3" d="M124.89 89.41a4.63 4.63 0 0 1 1.61.11 10.6 10.6 0 0 0-2.6.66c-.11.08-.21.16-.31.22-2.28 1.54-5.17 3.15-7.83 2.31-2.94.61-5 1.14-7.11 1.65a37.62 37.62 0 0 1 6.26-2 2.72 2.72 0 0 1-.42-.34 5 5 0 0 1-.54-.08 7.34 7.34 0 0 1-.82.08 53.43 53.43 0 0 0-7.43 2.83c.18.11.35.23.52.35a5.93 5.93 0 0 1 1.32-.4 6.06 6.06 0 0 1-.91.74 6.63 6.63 0 0 1 .54.52 21.55 21.55 0 0 1 7.9-2.35 36.1 36.1 0 0 0-7.52 2.79c1.72 2.33.15 4.67-.54 4.54 6.6-.39 10-1 17.21-3.68a5.52 5.52 0 0 0 2.7-1.72 2.84 2.84 0 0 0 .36-.63A32 32 0 0 1 116 98a43 43 0 0 0 11.54-3.73.29.29 0 0 0 0-.09c-2.63 1.29-14 3.94-16.64 3.92-.17 0-1.67.28-1.53.21 2.37-1.17 13-3 15.44-3.88 1-.38 3.47-.66 3.74-2.07.15-.81-.89-1.22-1.52-1.36-1.35-.31-2.69.21-4 .36a4.86 4.86 0 0 1 4.84-1 2.71 2.71 0 0 0-2-1.31 2 2 0 0 0-.98.36zM86.1 92.3a2.63 2.63 0 0 1-1.95-1.06h-.45a13.84 13.84 0 0 1 2.07 1.37c-6-2.68-8.22-4.15-9.78-2.51a1.61 1.61 0 0 1 .78-.75c1.23-.59 2.75 0 4.1.59A2.57 2.57 0 0 1 80.1 88c-4.93-.92-5.95 1.88-5.21 3.41 1.29 2.66 6 3.25 12.65 5.38.31.1 1.27.53 1 .46-9.59-2.14-11.16-2.47-13-4 .78 1.7 2.42 2.67 7.61 4.13A48.86 48.86 0 0 0 91.6 99a29 29 0 0 1-5.5-6.7zM77 90.47h.21c4 .44 8.37 3.4 8.39 3.41-8.05-3.19-8.48-3.35-8.6-3.41z"/><path class="cls-3" d="M107 100.38a2.94 2.94 0 0 0-.38-3.66c-.91-1-2.17-1.32-3.24-2a16.7 16.7 0 0 1-3.58.64c-2.89.11-4.49-.7-4.34-1.74-1.57.21-2.6-.12-3.26-1.57a7.82 7.82 0 0 1-1.45-.74c-.71.47-1.37.86-1.5.69a25.2 25.2 0 0 0 5.44 5.8 26.68 26.68 0 0 1-6-5.64 7.45 7.45 0 0 1-1.6.22 43.84 43.84 0 0 0 6 6.94.15.15 0 0 1 .12.12 35.71 35.71 0 0 0 4 3c1.5 1 3.14 1.74 4.7.85-1.9-.46-3.25-1.66-4.83-2.73 2 .87 4.45 2.74 7.23 2a2.28 2.28 0 0 0 1.08-4s-3.33-2.51-4-2.83c.75.38 5.27 1.45 5.61 4.65zM104.26 99c1.42 1.49.64 2.81-.45 3 0 0 1.85-.91.2-2.56a53 53 0 0 0-5.14-3.86 15.85 15.85 0 0 1 5.39 3.42zm-23.9-13.73a31 31 0 0 1-6.62-3.88 65.57 65.57 0 0 0 6.84 3.36c.79-1.46 2.52-2.39 3.89-3.08-1.66-.43-1.86-.64-6-1.85l-2.47-.7.67.09a85.48 85.48 0 0 1 8.63 2.07l.8-.39A109.52 109.52 0 0 0 75 78a47.63 47.63 0 0 1 11.7 2.21c.25 0 .5.05.74.09.34-.12.69-.25 1-.35l-2.54-1.29a34.57 34.57 0 0 0-8.36-1.93c-1.43-.1-5.73-.07-6.43.3a1.67 1.67 0 0 0-.46.37 8.6 8.6 0 0 1 2.93.45c-1.82.06-2.6.09-3.21.13v-.08a1.12 1.12 0 0 0 .16 1.1 26.67 26.67 0 0 0 9.71 7.12 2.63 2.63 0 0 1 .12-.85zm40.54-5.72c0 1.41 0 2.22-1 3.07 1.19-.43 5.34-1.38 6-1.71a.06.06 0 0 1 0 .11c-1.54.77-5.71 2.08-7.35 2.89a4.17 4.17 0 0 1-1.7 1.68 44.13 44.13 0 0 1 6.14-2.5 11 11 0 0 1 1.28-.33 1.37 1.37 0 0 1-.21.12c-.16.08-.42.2-.84.38-8.86 3.94-9.91 4.3-10 5.84V89a1.34 1.34 0 0 1 0-.66c.21-.81 1.65-1.78 3.39-2.67a4.42 4.42 0 0 1-2.62.35 2.86 2.86 0 0 1-2.68.74c-.9 2.33.67 4.64 3.52 4.56 3.37-.1 10.57-4.34 13.74-6.92.17-.14 1.06-.57.9-.42-4.89 4.44-11 7.48-13.66 7.91 2.78 1 6.26-1.49 8.68-3.21 4.92-3.48 4.44-2.88 7.86-6.83a5.93 5.93 0 0 1-1 .49 6.74 6.74 0 0 1 1.13-1.17q-.21-.36-.39-.72a36.46 36.46 0 0 0-4.14.32 11.34 11.34 0 0 1 3.59-.85l-.25-.08a88.75 88.75 0 0 0-10.39-.29zm-10.74-8.49l.78.38zm-25.38-3.41a14.68 14.68 0 0 1 4.13 2.9 54.61 54.61 0 0 1 9.33 8.83l-.24-.2c-.18-.15-.46-.42-.91-.83C91.59 73.27 86.5 68 82.41 68.17a3.66 3.66 0 0 0-3.31 2.3c-.75 2.25 1.47 3.37 3.13 4.2.92.46 1.86 1 2.82 1.43 2.34.89-.22-.08 5.13 1.91a14.39 14.39 0 0 1-6.1-1.91 16.34 16.34 0 0 1-4-1.68c1.64 2.1 5.58 3.28 8.73 4.19.43.12 8.61 2.44 9.7 2.15s1-1 .73-1.67l-.24-.43c-6.49-6.09-9.4-11.5-14.22-11.01zm9.83 9.43c-5.42-3.89-10.15-7.52-12-7.82a2.85 2.85 0 0 0-1.39.11 2.72 2.72 0 0 0-.28.13h-.08l.07-.07a1.66 1.66 0 0 1 .26-.17 2.48 2.48 0 0 1 1.46-.26c2.75.2 11.14 7 13.25 9-.02 0-.25-.16-1.29-.92z"/><path class="cls-3" d="M109.63 84.64c1.07 1.12 2.17 1.63 3.51 1.14-2.93-1.17-6-6.25-10.39-13.61 0 0 .88 1.21 2.46 3.49 2.85 4.15 6.14 10.13 10.07 9.68a3.38 3.38 0 0 0 3-2.86c.34-3.92-8.36-8.54-13.88-12.54 7.89 4.48 14.78 8.26 14.68 12.38 1.62-1.21.67-3.51-.54-4.74a25.48 25.48 0 0 0-5.09-3.72 62.44 62.44 0 0 0-6-3.13c-1.44-.68-3.93-2-4.93-1.92a1 1 0 0 1 .65.61l-.12-.08a1.34 1.34 0 0 0-.37-.15 1.41 1.41 0 0 0-.91.09 3.59 3.59 0 0 0-.17.34 2.68 2.68 0 0 0-.11.68 17.38 17.38 0 0 0 .77 2l5.33 9.68a21.08 21.08 0 0 0 2.04 2.66zm-.75-10.93c.5.29 1.16.68 2 1.24 1.94 1.31 6.2 4.65 6.72 6.82a1.73 1.73 0 0 1-.22 1.49 2.31 2.31 0 0 0-.34-2.05c-1.29-2-4.46-4.49-6.36-5.9l-1.91-1.39c-.94-.69-1.24-.94-1.24-.94a13.72 13.72 0 0 1 1.35.73zm1.25 6.46c.77 1 1.38 1.89 1.88 2.56a6.16 6.16 0 0 0 2.42 2.2c-.05 0-1.09 0-2.61-1.78-.57-.68-1.22-1.55-2-2.65a61.16 61.16 0 0 1-4-5.67 46.5 46.5 0 0 1 4.31 5.34zm-29.95 7.16a1.3 1.3 0 0 0-.3-.32 3.6 3.6 0 0 0-.55-.29v-.06h-.11a3.57 3.57 0 0 0-1.62.51 7.23 7.23 0 0 1 2.55.79 2.33 2.33 0 0 1 .03-.63zm18.4-1.86L98 86a22.06 22.06 0 0 1 5.93-.41 47.63 47.63 0 0 0-6.94 1.21l-.88.68a47.32 47.32 0 0 1 9.83-1.29 83 83 0 0 0-11 2.17l-1.64 1.17.18.12c3-1.45 17.15-3.52 14.78-2.86-12 3.37-14.68 2.64-15.53 4.75a2 2 0 0 0 .29.63l.14.15a3.48 3.48 0 0 0 1.43.49c3.5.17 15.63-3.3 15.45-3.21a51.84 51.84 0 0 1-14 3.9c.83 2.21 5.43.72 7.23.4 4.84-1.05 5.15-1.62 8.9-2.88a3 3 0 0 1-1.42-4.11v-.06a2.29 2.29 0 0 1 .08-.28 6.36 6.36 0 0 1-2.05-1.8c-3.78.01-2.92-.52-10.2.7zm-.16 8.2c3.6-.93 5.7-1.4 10.39-2.37a34.06 34.06 0 0 1-10.39 2.37zm-6-3.32v-.09c-.29.17-.69.44-1.1.72a8.18 8.18 0 0 1 .81.72 1.07 1.07 0 0 1 0-.75 2.53 2.53 0 0 1 .29-.6zM95.79 81c-1.26-.23-2.51-.48-3.76-.78-1 .27-2 .36-3.06.6-2.36.57-7.38 2.64-7.81 5.06 1.62-1.36 11.63-5.82 10.55-4.79-.67.65-9.78 4.46-10.72 6.38-.79 1.62 1 4.19 6 2.78 3.73-1.06 7.38-4.25 10-5.89.15-.1-5.79 6.2-11.24 6.9 3.18.74 5-.75 7.63-2.75 1.24-1 2.58-1.83 3.76-2.87 3.85-3.42 4.15-3.5 4.24-4.22A13.36 13.36 0 0 1 98 83.33c.63-.48 1.78-1.31 3.18-2.53a.86.86 0 0 0-.16-.18c-.07-.07-1-.55-1-.47-.35 1.96-3.02 1.06-4.23.85zm-2.45.6c-1.27.54-2.39 1.1-3.64 1.77-.58.3-1.22.66-1.94 1-1.44.76-2.61 1.37-3.52 1.91a5.33 5.33 0 0 0-1.9 1.48 1.21 1.21 0 0 0 .06 1.47.92.92 0 0 1-.41-.76c-.18-1.6 2.54-3 5.49-4.49 1.46-.77 2.3-1.23 3.37-1.71a16.64 16.64 0 0 1 3.42-1.17l.35-.07a12.59 12.59 0 0 1-1.28.56z"/><path class="cls-7" d="M132.88 80c-.75-.89-2.46-1-3.54-1.07-15.73-1.26-3.58 1.55-14.41-5.22a45.6 45.6 0 0 0-4-2.22l-.78-.38c-1-.48-2-.94-3-1.39-.73-.32-1.44-.7-2.18-1a5.85 5.85 0 0 0-2.71-.54c-.55.11-1.63.63-1.82 1.21-.38 1.15 6.84 13.38 7.85 14.8a46.21 46.21 0 0 0-8.52.27 9.24 9.24 0 0 0 2.07-2.47 1.89 1.89 0 0 0-1.85-2.6c.21 0-1-1.5-1-1.58-2.83-2.79-4-5-8.08-8.59-3.34-3-6.74-2.87-8.26-1.79-4 .12-5.71 3.9-3.73 6.07-.2.67-.13 2 3 3.59-3.53-1-5.75-1.51-9.44-1.05a8.48 8.48 0 0 0-2.2.35c-.34.64-.65 1.28-1 1.93C69 80.34 76 85 78 86a2.08 2.08 0 0 0-1.52 1.19s-1.21.48-1.38.61a3.38 3.38 0 0 0-.51 4.6c-.35.39.26 2.12 2.45 3.49 3.4 2.13 13.49 3.93 15.4 3.82a20.81 20.81 0 0 0 6.2 4c1.31.46 3.05.86 4.27-.29 1.61.2 3.17-.19 3.92-1.72 5.53.13 21.89-2.93 21.65-8.06 1.4-1 1.16-2.17 0-3a2.39 2.39 0 0 0-2-2.23c.35.06 1.64-1.17 1.94-1.41 3.58-2.93 4.82-4.75 5-5.48a2.34 2.34 0 0 0-.54-1.52zm-1.23 0a11.34 11.34 0 0 0-3.59.85 36.46 36.46 0 0 1 4.14-.32q.18.36.39.72a6.74 6.74 0 0 0-1.13 1.17 5.93 5.93 0 0 0 1-.49c-3.42 4-2.94 3.35-7.86 6.83-2.42 1.72-5.9 4.23-8.68 3.21 2.7-.43 8.77-3.47 13.66-7.91.16-.15-.73.28-.9.42-3.15 2.52-10.35 6.77-13.68 6.87-2.85.08-4.42-2.23-3.52-4.56a2.86 2.86 0 0 0 2.68-.74 4.42 4.42 0 0 0 2.62-.35l.21-.11a4.17 4.17 0 0 0 1.7-1.68c1.64-.81 5.81-2.12 7.35-2.89a.06.06 0 0 0 0-.11c-.69.33-4.84 1.28-6 1.71 1-.85.94-1.66 1-3.07a88.75 88.75 0 0 1 10.5.32 2.18 2.18 0 0 1 .38.07zm-3.81 10.39a4.86 4.86 0 0 0-4.84 1c1.36-.15 2.7-.67 4-.36.63.14 1.67.55 1.52 1.36-.27 1.41-2.7 1.69-3.74 2.07-2.43.89-13.07 2.71-15.44 3.88-.14.07 1.36-.21 1.53-.21 2.59 0 14-2.63 16.64-3.92a.29.29 0 0 1 0 .09A43 43 0 0 1 116 98a32 32 0 0 0 11.28-3 2.84 2.84 0 0 1-.36.63 5.52 5.52 0 0 1-2.7 1.72c-7.17 2.65-10.61 3.28-17.22 3.65.69.13 2.26-2.21.54-4.54a36.1 36.1 0 0 1 7.52-2.79 21.55 21.55 0 0 0-7.9 2.35 6.63 6.63 0 0 0-.54-.52 6.06 6.06 0 0 0 .91-.74 5.93 5.93 0 0 0-1.32.4c-.17-.12-.34-.24-.52-.35a53.43 53.43 0 0 1 7.44-2.81 7.34 7.34 0 0 0 .82-.08 5 5 0 0 0 .54.08 2.72 2.72 0 0 0 .42.34 37.62 37.62 0 0 0-6.26 2c2.12-.51 4.17-1 7.11-1.65 2.66.84 5.55-.77 7.83-2.31.1-.06.2-.14.31-.22a10.6 10.6 0 0 1 2.6-.66 4.63 4.63 0 0 0-1.61-.11 2 2 0 0 1 1-.38 2.71 2.71 0 0 1 1.95 1.33zm-22.38 8.27a2.28 2.28 0 0 1-1.08 4c-2.78.69-5.22-1.18-7.23-2 1.58 1.07 2.93 2.27 4.83 2.73-1.56.89-3.2.13-4.7-.85a35.71 35.71 0 0 1-4-3 .15.15 0 0 0-.12-.12 43.84 43.84 0 0 1-6-6.94 7.45 7.45 0 0 0 1.6-.22 26.68 26.68 0 0 0 6 5.64 25.2 25.2 0 0 1-5.49-5.9c.13.17.79-.22 1.5-.69a7.82 7.82 0 0 0 1.45.74c.66 1.45 1.69 1.78 3.26 1.57-.15 1 1.45 1.85 4.34 1.74a16.7 16.7 0 0 0 3.58-.64c1.07.71 2.33 1 3.24 2a2.94 2.94 0 0 1 .38 3.66c-.36-3.2-4.88-4.27-5.6-4.6.71.32 4.02 2.81 4.04 2.83zm-22.37-1.2C77.9 96 76.26 95 75.48 93.33c1.86 1.49 3.43 1.82 13 4 .31.07-.65-.36-1-.46-6.63-2.13-11.36-2.72-12.65-5.38-.74-1.53.28-4.33 5.21-3.41a2.57 2.57 0 0 0 .79 1.86c-1.35-.55-2.87-1.18-4.1-.59a1.61 1.61 0 0 0-.78.75c1.56-1.64 3.76-.17 9.78 2.51a13.84 13.84 0 0 0-2.07-1.37h.45a2.63 2.63 0 0 0 1.99 1.06 29 29 0 0 0 5.5 6.7 48.86 48.86 0 0 1-8.51-1.54zM70.53 79a1.12 1.12 0 0 1-.17-1.09V78c.61 0 1.39-.07 3.21-.13a8.6 8.6 0 0 0-2.93-.45 1.67 1.67 0 0 1 .46-.37c.7-.37 5-.4 6.43-.3a34.57 34.57 0 0 1 8.36 1.93L88.48 80c-.35.1-.7.23-1 .35-.24 0-.49-.07-.74-.09A47.63 47.63 0 0 0 75 78a109.52 109.52 0 0 1 11.09 2.86l-.8.39a85.48 85.48 0 0 0-8.63-2.07l-.66-.06 2.51.7c4.15 1.21 4.35 1.42 6 1.85-1.37.69-3.1 1.62-3.89 3.08a65.57 65.57 0 0 1-6.84-3.36 31 31 0 0 0 6.62 3.88 2.63 2.63 0 0 0-.12.84A26.67 26.67 0 0 1 70.53 79zm30.53 1.63a.86.86 0 0 1 .16.18c-1.4 1.22-2.55 2-3.18 2.53a13.36 13.36 0 0 0 3.32-1.92c-.09.72-.39.8-4.24 4.22-1.18 1-2.52 1.9-3.76 2.87-2.58 2-4.45 3.49-7.63 2.75 5.45-.7 11.39-7 11.24-6.9-2.63 1.64-6.28 4.83-10 5.89-5 1.41-6.76-1.16-6-2.78.94-1.92 10.05-5.73 10.72-6.38 1.08-1-8.93 3.43-10.55 4.79.43-2.42 5.45-4.49 7.81-5.06 1-.24 2.06-.33 3.06-.6 1.25.3 2.5.55 3.76.78s3.88 1.12 4.28-.84c.04-.09.95.39 1.01.46zm.41-10.32a2.68 2.68 0 0 1 .11-.68 3.59 3.59 0 0 1 .17-.34 1.41 1.41 0 0 1 .91-.09 1.34 1.34 0 0 1 .37.15l.12.08a1 1 0 0 0-.65-.61c1-.13 3.49 1.24 4.93 1.92a62.44 62.44 0 0 1 6 3.13 25.48 25.48 0 0 1 5.09 3.72c1.21 1.23 2.16 3.53.54 4.74.1-4.12-6.79-7.9-14.68-12.38 5.52 4 14.22 8.62 13.88 12.54a3.38 3.38 0 0 1-3 2.86c-3.93.45-7.22-5.53-10.07-9.68-1.58-2.28-2.46-3.49-2.46-3.49 4.38 7.36 7.46 12.44 10.39 13.61-1.34.49-2.44 0-3.51-1.14a21.08 21.08 0 0 1-2.06-2.71 74.85 74.85 0 0 1-5.33-9.68 17.38 17.38 0 0 1-.75-1.96zm9.4 16.27a2.29 2.29 0 0 0-.08.28v.06a3 3 0 0 0 1.39 4.08c-3.75 1.26-4.06 1.83-8.9 2.88-1.8.32-6.4 1.81-7.23-.4a51.84 51.84 0 0 0 14-3.9c.18-.09-12 3.38-15.45 3.21a3.48 3.48 0 0 1-1.43-.49l-.17-.13a2 2 0 0 1-.29-.63c.85-2.11 3.53-1.38 15.53-4.75 2.37-.66-11.74 1.41-14.78 2.86l-.18-.12 1.59-1.18a83 83 0 0 1 11-2.17 47.32 47.32 0 0 0-9.83 1.29l.88-.68a47.63 47.63 0 0 1 6.94-1.21A22.06 22.06 0 0 0 98 86l.63-.52c7.28-1.22 6.4-.69 10.24-.7a6.36 6.36 0 0 0 2 1.79zm-18.79 5.1a8.18 8.18 0 0 0-.81-.72c.41-.28.81-.55 1.1-.72s0 .06 0 .09a2.53 2.53 0 0 0-.37.57 1.07 1.07 0 0 0 .08.77zm-12.91-5h.11v.06a3.6 3.6 0 0 1 .55.29 1.3 1.3 0 0 1 .3.32 2.33 2.33 0 0 0-.08.59 7.23 7.23 0 0 0-2.55-.79 3.57 3.57 0 0 1 1.67-.53zm20-7.77l.12.24c.32.7.28 1.4-.73 1.67s-9.27-2-9.7-2.15c-3.15-.91-7.09-2.09-8.73-4.19a16.34 16.34 0 0 0 4 1.68A14.39 14.39 0 0 0 90.18 78c-5.35-2-2.79-1-5.13-1.91-1-.46-1.9-1-2.82-1.43-1.66-.83-3.88-2-3.13-4.2a3.66 3.66 0 0 1 3.31-2.3c4.09-.2 9.18 5.1 14.68 10.18.45.41.73.68.91.83l.24.2a54.61 54.61 0 0 0-9.33-8.83 14.68 14.68 0 0 0-4.13-2.9c4.82-.49 7.73 4.92 14.18 11z"/><path class="cls-7" d="M110.68 75.31c1.9 1.41 5.07 3.91 6.36 5.9a2.31 2.31 0 0 1 .34 2.05 1.73 1.73 0 0 0 .22-1.49c-.52-2.17-4.78-5.51-6.72-6.82-.84-.56-1.5-1-2-1.24a13.72 13.72 0 0 0-1.35-.73s.3.25 1.24.94zm1.14 7.84c1.52 1.75 2.56 1.76 2.61 1.78a6.16 6.16 0 0 1-2.42-2.2c-.5-.67-1.11-1.54-1.88-2.56a46.5 46.5 0 0 0-4.32-5.34 61.16 61.16 0 0 0 4 5.67c.79 1.1 1.44 1.97 2.01 2.65zm-30.6-13.84a1.66 1.66 0 0 0-.26.17l-.07.07h.08a2.72 2.72 0 0 1 .28-.13 2.85 2.85 0 0 1 1.39-.11c1.82.3 6.55 3.93 12 7.82 1 .76 1.27.88 1.29.9-2.11-2-10.5-8.78-13.25-9a2.48 2.48 0 0 0-1.46.28zm13.05 11.81a16.64 16.64 0 0 0-3.42 1.17c-1.07.48-1.91.94-3.37 1.71-3 1.53-5.67 2.89-5.49 4.49a.92.92 0 0 0 .41.76 1.21 1.21 0 0 1-.06-1.47 5.33 5.33 0 0 1 1.9-1.48c.91-.54 2.08-1.15 3.52-1.91.72-.37 1.36-.73 1.94-1 1.25-.67 2.37-1.23 3.64-1.77a12.59 12.59 0 0 0 1.28-.54zM104 99.41c1.65 1.65-.19 2.53-.2 2.56 1.09-.16 1.87-1.48.45-3a15.85 15.85 0 0 0-5.39-3.45 53 53 0 0 1 5.14 3.89zm9.35-11.04a1.34 1.34 0 0 0 0 .66v.07c0-1.54 1.1-1.9 10-5.84.42-.18.68-.3.84-.38a1.37 1.37 0 0 0 .21-.12 11 11 0 0 0-1.28.33 44.13 44.13 0 0 0-6.14 2.5l-.21.11c-1.77.89-3.21 1.86-3.42 2.67zm-4.54 2.93c-4.69 1-6.79 1.44-10.39 2.37a34.06 34.06 0 0 0 10.39-2.37zM77 90.47c.08.06.51.22 8.6 3.43 0 0-4.36-3-8.39-3.41z"/></g></g></svg>