<svg id="Layer_1" xmlns="http://www.w3.org/2000/svg" viewBox="0 0 500 500"><style>.st0{fill:#003c84}.st1{fill:#fff}.st2{fill:#00c6ff}.st3{fill:url(#SVGID_1_)}.st4{fill:none}.st5{font-family:&apos;Arial-BoldMT&apos;}.st6{font-size:24px}</style><circle class="st0" cx="249.8" cy="249.8" r="249.1"/><path class="st1" d="M80 108h230.6c10.7 0 19.4 8.7 19.4 19.4v44.3c0 10.7-8.7 19.4-19.4 19.4H119.2c-10.7 0-19.4-8.7-19.4-19.4v-39.2L80 108z"/><path class="st2" d="M481.4 224.9H122.6c-12.2 0-22 9.9-22 22v76.4c0 12.2 9.9 22 22 22h314.3c12.2 0 22-9.9 22-22v-70.5l22.5-27.9z"/><path class="st1" d="M100.7 373.5h317c10.7 0 19.4 8.7 19.4 19.4v44.3c0 10.7-8.7 19.4-19.4 19.4H139.8c-10.7 0-19.4-8.7-19.4-19.4V398l-19.7-24.5z"/><linearGradient id="SVGID_1_" gradientUnits="userSpaceOnUse" x1="109.228" y1="197.111" x2="109.228" y2="6.73"><stop offset="0" stop-color="#0068ff"/><stop offset="1" stop-color="#00c6ff"/></linearGradient><path class="st3" d="M33.8 216.5c.7-12.4 1.2-23.6 2.1-34.8.3-3.9-.4-6.6-3.3-9.3C-22.2 119.9-1.7 35.8 68.9 9.1c45-17 96-4 125 30.7 39.4 47.1 27.1 115.4-26.5 146.6-27.9 16.2-57.6 19.7-88.6 11.7-4-1-7.2-.8-10.7 1.1-11 5.8-22.2 11.3-34.3 17.3z"/><path class="st1" d="M180.7 69.7c-19.2 21.4-38.5 42.7-57.7 64.2-2.8 3.2-4.2 2.3-6.3-.6-7.3-10.2-15-20-22-30.3-2.6-3.9-4.4-4.2-8.1-1.6-14.1 9.6-28.5 19.1-42.8 28.6-1.9 1.3-3.5 3.1-7.3 3.5C56.9 110.4 76.7 88 97.1 65c8.7 11.9 17.2 23.2 25.3 34.7 2.6 3.7 4.2 4.4 8.2 1.7 16.3-11 32.9-21.7 49.4-32.6.2.4.5.7.7.9z"/><path class="st4" d="M129.1 250.3h305.1v75.8H129.1z"/><text transform="translate(129.102 267.441)"><tspan x="0" y="0" class="st1 st5 st6">Vaša objednávka bola </tspan><tspan x="0" y="28.8" class="st1 st5 st6">práve odoslaná. Môžete ju </tspan><tspan x="0" y="57.6" class="st1 st5 st6">očakávať do 3 dní :)</tspan></text></svg>