<svg xmlns="http://www.w3.org/2000/svg" viewBox="0 0 664.18 396.29"><defs><style>.cls-1{fill:#e1ff6b}.cls-2{fill:#fff}</style></defs><title>Asset 4</title><g id="Layer_2" data-name="Layer 2"><g id="Layer_1-2" data-name="Layer 1"><path class="cls-1" d="M173.84 217.72c25.4 0 44.14 17.08 44.14 42.23 0 25.31-18.74 42.39-44.14 42.39S129.7 285.26 129.7 260c0-25.2 18.73-42.28 44.14-42.28zm0 72.57c15.08 0 26.36-12.19 26.36-30.34s-11.28-30.18-26.36-30.18c-15.25 0-26.36 12-26.36 30.18s11.11 30.34 26.36 30.34zm64.31-70.74h36.52c25.25 0 43.51 16.32 43.51 40.4 0 24.24-18.26 40.56-43.51 40.56h-36.52zM274 288c15.41 0 26.36-10.83 26.36-28.06 0-17.07-10.95-27.9-26.36-27.9h-18.7v56zm82-16.92l-33.66-51.53h19.53l15.24 24.24 7.78 15.1 7.78-15.1 15.25-24.24h19.05l-33.82 51.53v29.43H356zm65.07 13.42c9.21 3.66 19.53 5.95 26.84 5.95 8.57 0 18.1-3.36 18.1-12.66 0-7-8.1-9.15-17-11.59-13.5-3.5-31.6-7.92-31.6-25.46 0-13.87 12.39-23 32.23-23a82.47 82.47 0 0 1 28.74 5.19l-2.69 11.74c-8.74-3.21-18.42-5.19-25.57-5.19-7.94 0-15.88 2.75-15.88 10.52 0 6.25 6.51 8.84 14.29 11 14 3.51 34.3 7.47 34.3 25.61s-17.31 25.77-36 25.77c-9.85 0-19.85-2.44-28.27-5.64zm83.05-64.95h62.56l-.95 12.5h-44.46v22.26l37.31-1.06v12.5l-37.31-1.07V288H568l-1 12.5h-62.88zm106.23 0h20l33.82 81h-19.05l-7.3-20h-35.73l-7.3 20h-18.26zm-3.81 48.94h27l-4-10.82-9.54-26.23-9.36 26.23z"/><path class="cls-2" d="M38.19 100.47L120.4 0 17.14 96.4 0 236.63l77 118.43 135.12 41.23 130-55.27-124.65 32.67L98.84 337.2 27.12 226.9z"/><path class="cls-2" d="M133.57 67.3c-8 0-8 12.4 0 12.4s7.99-12.4 0-12.4zm1.65 124c-8 0-8 12.4 0 12.4s7.99-12.4 0-12.4zm78.53-116.56c-8 0-8 12.4 0 12.4s7.99-12.4 0-12.4zm3.31 114.08c-8 0-8 12.4 0 12.4s7.99-12.4 0-12.4zm25.62 0c-8 0-8 12.4 0 12.4s8-12.4 0-12.4zm87.63-114.91c-8 0-8 12.4 0 12.4s7.99-12.4 0-12.4zm33.06-.82c-8 0-8 12.4 0 12.4s8-12.4 0-12.4zm5.79 117.38c-8 0-8 12.4 0 12.4s7.99-12.4 0-12.4zm27.28-117.38c-8 0-8 12.4 0 12.4s7.99-12.4 0-12.4zm4.96 119.03c-8 0-8 12.4 0 12.4s7.99-12.4 0-12.4zm77.7-4.96c-8 0-8 12.4 0 12.4s8-12.4 0-12.4zM411.32 37.54c-8 0-8 12.4 0 12.4s7.99-12.4 0-12.4zM511.34 191.3c-8 0-8 12.4 0 12.4s7.99-12.4 0-12.4zm81.01-117.39c-8 0-8 12.4 0 12.4s8-12.4 0-12.4zM634.51 188c-8 0-8 12.4 0 12.4s8-12.4 0-12.4zm3.31-114.09c-8 0-8 12.4 0 12.4s7.99-12.4 0-12.4zm2.48-23.14c-8 0-8 12.4 0 12.4s7.99-12.4 0-12.4zm-500.95 90.51c-5.32 0-5.32 8.27 0 8.27s5.33-8.27 0-8.27zm28.11-12.4c-5.32 0-5.33 8.27 0 8.27s5.33-8.27 0-8.27zM251 78.46c-5.32 0-5.33 8.27 0 8.27s5.28-8.27 0-8.27zm74.35 109.94c-5.32 0-5.33 8.27 0 8.27s5.33-8.27 0-8.27zm42.98-52.9c-5.32 0-5.32 8.26 0 8.26s5.33-8.26 0-8.26zm108.29-58.69c-5.31 0-5.32 8.26 0 8.26s5.38-8.26 0-8.26zm-42.15 55.38c-5.32 0-5.33 8.27 0 8.27s5.32-8.27 0-8.27zM439.43 57c-5.32 0-5.33 8.26 0 8.26s5.32-8.26 0-8.26zm25.62-19.87c-5.32 0-5.33 8.26 0 8.26s5.33-8.26 0-8.26zM513 76.81c-5.32 0-5.33 8.26 0 8.26s5.32-8.26 0-8.26zm76.87 114.9c-5.31 0-5.32 8.27 0 8.27s5.33-8.27 0-8.27zm68.62-152.1c-5.32 0-5.33 8.26 0 8.26s5.32-8.26 0-8.26z"/><path class="cls-2" transform="rotate(-84 138.134 170.35)" d="M111.13 169.8h52.31v2.48h-52.31z"/><path class="cls-2" transform="rotate(-24.44 153.39 138.794)" d="M138.42 137.56h29.97v2.48h-29.97z"/><path class="cls-2" transform="rotate(-88.23 436.11 79.287)" d="M434.88 39.17h2.48v80.22h-2.48z"/><path class="cls-2" transform="rotate(-5.25 136.526 109.099)" d="M135.22 72.93h2.48v72.22h-2.48z"/><path class="cls-2" transform="rotate(-48.36 190.209 106.572)" d="M155.35 105.32h69.68v2.48h-69.68z"/><path class="cls-2" transform="rotate(-38.66 191.852 163.601)" d="M190.61 123.91h2.48v79.4h-2.48z"/><path class="cls-2" transform="rotate(-85.86 246.405 139.22)" d="M189.22 137.98H303.6v2.48H189.22z"/><path class="cls-2" transform="rotate(-34.09 287.698 137.144)" d="M286.5 70.78h2.48v132.75h-2.48z"/><path class="cls-2" transform="rotate(-87.03 327.848 136.315)" d="M271.95 135.08H383.7v2.48H271.95z"/><path class="cls-2" transform="rotate(-4.63 365.894 108.696)" d="M364.2 77.95h2.48v61.37h-2.48z"/><path class="cls-2" transform="rotate(-1.64 367.976 167.743)" d="M367.51 139.21h2.48v57.89h-2.48z"/><path class="cls-2" transform="rotate(-52.72 455.158 108.214)" d="M420.33 106.98h69.61v2.48h-69.61z"/><path class="cls-2" transform="rotate(-61.94 417.521 166.91)" d="M382.39 165.67h70.26v2.48h-70.26z"/><path class="cls-2" transform="rotate(-3.66 439.28 195.282)" d="M400.91 194.19h77.86v2.48h-77.86z"/><path class="cls-2" transform="rotate(-58.3 424.943 52.018)" d="M423.72 35.49h2.48v33.03h-2.48z"/><path class="cls-2" transform="rotate(-37.75 451.769 50.783)" d="M435.62 49.53h32.41v2.48h-32.41z"/><path class="cls-2" transform="rotate(-89.21 511.745 139.223)" d="M453.06 137.98h117.4v2.48h-117.4z"/><path class="cls-2" transform="rotate(-33.79 550.932 137.989)" d="M549.78 68.85h2.48V207.1h-2.48z"/><path class="cls-2" transform="rotate(-88.76 590.698 137.567)" d="M532.82 136.32h115.76v2.48H532.82z"/><path class="cls-2" transform="rotate(-88.55 635.97 137.76)" d="M577.87 136.53h116.18v2.48H577.87z"/><path class="cls-2" transform="rotate(-36.02 649.013 49.932)" d="M637.74 48.7h22.49v2.48h-22.49z"/></g></g></svg>