<svg xmlns="http://www.w3.org/2000/svg" viewBox="0 0 664.18 396.29"><defs><style>.cls-1{fill:#fff}.cls-2{fill:#e1ff6b}</style></defs><title>Asset 3</title><g id="Layer_2" data-name="Layer 2"><g id="Layer_1-2" data-name="Layer 1"><path class="cls-1" d="M133.94 71.83c-7.15 0-7.16 11.11 0 11.11s7.16-11.11 0-11.11zm1.48 111.11c-7.15 0-7.16 11.11 0 11.11s7.16-11.11 0-11.11zM205.79 78.5c-7.15 0-7.16 11.11 0 11.11s7.21-11.11 0-11.11zm2.96 102.22c-7.15 0-7.16 11.11 0 11.11s7.16-11.11 0-11.11zm22.96 0c-7.15 0-7.16 11.11 0 11.11s7.16-11.11 0-11.11zm78.52-102.96c-7.15 0-7.16 11.11 0 11.11s7.16-11.11 0-11.11zm29.63-.76c-7.15 0-7.17 11.11 0 11.11S347 77 339.86 77zM345 182.2c-7.15 0-7.16 11.11 0 11.11s7.2-11.11 0-11.11zM369.48 77c-7.14 0-7.16 11.11 0 11.11s7.17-11.11 0-11.11zm4.45 106.68c-7.15 0-7.16 11.11 0 11.11s7.16-11.11 0-11.11zm69.63-4.44c-7.15 0-7.17 11.11 0 11.11s7.16-11.11 0-11.11zM382.82 45.17c-7.15 0-7.16 11.11 0 11.11s7.18-11.11 0-11.11zm89.62 137.77c-7.15 0-7.16 11.11 0 11.11s7.16-11.11 0-11.11zM545 77.76c-7.15 0-7.16 11.11 0 11.11s7.19-11.11 0-11.11zM573.92 180c-7.15 0-7.16 11.11 0 11.11s7.16-11.11 0-11.11zm42.22-102.24c-7.15 0-7.16 11.11 0 11.11s7.16-11.11 0-11.11zm-29.63 63.7c-7.15 0-7.16 11.11 0 11.11s7.16-11.11 0-11.11zM618.36 57c-7.14 0-7.16 11.11 0 11.11s7.17-11.11 0-11.11zm-479.24 81.13c-4.76 0-4.77 7.4 0 7.4s4.78-7.4 0-7.4zM164.31 127c-4.77 0-4.78 7.4 0 7.4s4.77-7.4 0-7.4zm74.81-45.17c-4.77 0-4.78 7.41 0 7.41s4.77-7.41 0-7.41zm66.66 98.52c-4.76 0-4.77 7.4 0 7.4s4.78-7.4 0-7.4zm38.52-47.41c-4.77 0-4.77 7.41 0 7.41s4.77-7.41 0-7.41zm97.03-52.59c-4.76 0-4.77 7.41 0 7.41s4.78-7.41 0-7.41zM403.56 130c-4.77 0-4.78 7.41 0 7.41s4.77-7.41 0-7.41zM408 62.57c-4.76 0-4.77 7.41 0 7.41s4.78-7.41 0-7.41zm23-17.77c-4.76 0-4.77 7.4 0 7.4s4.74-7.4 0-7.4zm42.93 35.55c-4.77 0-4.78 7.41 0 7.41s4.77-7.41 0-7.41zm68.88 102.96c-4.76 0-4.77 7.41 0 7.41s4.78-7.41 0-7.41zM645 144.79c-4.77 0-4.77 7.41 0 7.41s4.8-7.41 0-7.41zM660.59 187c-4.77 0-4.78 7.41 0 7.41s4.77-7.41 0-7.41zM634.66 47c-4.77 0-4.77 7.41 0 7.41s4.77-7.41 0-7.41z"/><path class="cls-1" transform="rotate(-84.56 137.282 164.79)" d="M113.83 163.68h46.88v2.22h-46.88z"/><path class="cls-1" transform="rotate(-24.45 151.754 135.924)" d="M138.29 134.79h26.85v2.22h-26.85z"/><path class="cls-1" transform="rotate(-88.23 405.027 82.576)" d="M403.93 46.63h2.22v71.88h-2.22z"/><path class="cls-1" transform="rotate(-5.25 136.625 109.322)" d="M135.42 76.88h2.22v64.71h-2.22z"/><path class="cls-1" transform="rotate(-48.36 184.698 107.015)" d="M153.46 105.9h62.44v2.22h-62.44z"/><path class="cls-1" transform="rotate(-38.66 186.152 158.128)" d="M185.05 122.55h2.22v71.14h-2.22z"/><path class="cls-1" transform="rotate(-85.86 235.032 136.28)" d="M183.8 135.16h102.49v2.22H183.8z"/><path class="cls-1" transform="rotate(-34.09 272.049 134.416)" d="M270.97 74.95h2.22V193.9h-2.22z"/><path class="cls-1" transform="rotate(-87.03 308.015 133.675)" d="M257.94 132.57h100.13v2.22H257.94z"/><path class="cls-1" transform="rotate(-4.64 341.351 108.768)" d="M340.6 81.37h2.22v54.99h-2.22z"/><path class="cls-1" transform="rotate(-1.64 343.952 161.809)" d="M343.56 136.26h2.22v51.87h-2.22z"/><path class="cls-1" transform="rotate(-52.71 422.09 108.496)" d="M390.89 107.39h62.37v2.22h-62.37z"/><path class="cls-1" transform="rotate(-61.92 388.346 161.092)" d="M356.89 159.98h62.96v2.22h-62.96z"/><path class="cls-1" transform="rotate(-3.66 408.07 186.609)" d="M373.49 185.53h69.77v2.22h-69.77z"/><path class="cls-1" transform="rotate(-58.3 395.027 58.135)" d="M393.93 43.33h2.22v29.6h-2.22z"/><path class="cls-1" transform="rotate(-37.74 419.1 57.014)" d="M404.59 55.91h29.04v2.22h-29.04z"/><path class="cls-1" transform="rotate(-89.2 472.803 136.275)" d="M420.22 135.16h105.19v2.22H420.22z"/><path class="cls-1" transform="rotate(-33.79 507.914 135.172)" d="M506.89 73.22h2.22V197.1h-2.22z"/><path class="cls-1" transform="rotate(-88.77 543.548 134.791)" d="M491.69 133.68h103.72v2.22H491.69z"/><path class="cls-1" transform="rotate(-73.19 580.244 166.263)" d="M559.71 165.16h41.01v2.22h-41.01z"/><path class="cls-1" transform="rotate(-65.05 600.981 114.783)" d="M565.83 113.68h70.25v2.22h-70.25z"/><path class="cls-1" transform="rotate(-23.9 630.284 115.526)" d="M629.1 79.89h2.22v71.3h-2.22z"/><path class="cls-1" transform="rotate(-20.22 652.611 169.255)" d="M651.33 146.74h2.22v44.99h-2.22z"/><path class="cls-1" transform="rotate(-88.55 615.4 147.386)" d="M614.29 118.12h2.22v58.54h-2.22z"/><path class="cls-1" transform="rotate(-36.02 626.118 56.28)" d="M616.07 55.17h20.15v2.22h-20.15z"/><path class="cls-2" d="M173.84 217.72c25.4 0 44.14 17.08 44.14 42.23 0 25.31-18.74 42.39-44.14 42.39S129.7 285.26 129.7 260c0-25.2 18.73-42.28 44.14-42.28zm0 72.57c15.08 0 26.36-12.19 26.36-30.34s-11.28-30.18-26.36-30.18c-15.25 0-26.36 12-26.36 30.18s11.11 30.34 26.36 30.34zm64.31-70.74h36.52c25.25 0 43.51 16.32 43.51 40.4 0 24.24-18.26 40.56-43.51 40.56h-36.52zM274 288c15.41 0 26.36-10.83 26.36-28.06 0-17.07-10.95-27.9-26.36-27.9h-18.7v56zm82-16.92l-33.66-51.53h19.53l15.24 24.24 7.78 15.1 7.78-15.1 15.25-24.24h19.05l-33.82 51.53v29.43H356zm65.07 13.42c9.21 3.66 19.53 5.95 26.84 5.95 8.57 0 18.1-3.36 18.1-12.66 0-7-8.1-9.15-17-11.59-13.5-3.5-31.6-7.92-31.6-25.46 0-13.87 12.39-23 32.23-23a82.47 82.47 0 0 1 28.74 5.19l-2.69 11.74c-8.74-3.21-18.42-5.19-25.57-5.19-7.94 0-15.88 2.75-15.88 10.52 0 6.25 6.51 8.84 14.29 11 14 3.51 34.3 7.47 34.3 25.61s-17.31 25.77-36 25.77c-9.85 0-19.85-2.44-28.27-5.64zm83.05-64.95h62.56l-.95 12.5h-44.46v22.26l37.31-1.06v12.5l-37.31-1.07V288H568l-1 12.5h-62.88zm106.23 0h20l33.82 81h-19.05l-7.3-20h-35.73l-7.3 20h-18.26zm-3.81 48.94h27l-4-10.82-9.54-26.23-9.36 26.23z"/><path class="cls-1" d="M38.19 100.47L120.4 0 17.14 96.4 0 236.63l77 118.43 135.12 41.23 130-55.27-124.65 32.67L98.84 337.2 27.12 226.9z"/></g></g></svg>