<svg xmlns="http://www.w3.org/2000/svg" viewBox="0 0 619.55 106.68"><defs><style>.cls-1{fill:#e1ff6b}.cls-2{fill:#fff}</style></defs><title>Asset 1</title><g id="Layer_2" data-name="Layer 2"><g id="Layer_1-2" data-name="Layer 1"><path class="cls-1" d="M302.89 24.53c16.41 0 28.51 11 28.51 27.27s-12.1 27.37-28.51 27.37-28.51-11-28.51-27.37 12.1-27.27 28.51-27.27zm0 46.86c9.74 0 17-7.88 17-19.59s-7.28-19.5-17-19.5-17 7.78-17 19.5 7.16 19.59 17 19.59zm41.53-45.68H368c16.3 0 28.09 10.53 28.09 26.09S384.31 78 368 78h-23.58zm23.18 44.2c9.94 0 17-7 17-18.11s-7.08-18-17-18h-12.1v36.11zM420.51 59l-21.74-33.29h12.61l9.85 15.65 5 9.75 5-9.75 9.84-15.65h12.31L431.58 59v19h-11.07zm42.04 8.65c5.95 2.36 12.62 3.84 17.33 3.84 5.54 0 11.69-2.17 11.69-8.17 0-4.53-5.23-5.91-11-7.49-8.72-2.26-20.41-5.12-20.41-16.44 0-9 8-14.86 20.82-14.86a53.36 53.36 0 0 1 18.56 3.34l-1.74 7.58a52.25 52.25 0 0 0-16.51-3.34c-5.13 0-10.26 1.77-10.26 6.79 0 4 4.21 5.71 9.23 7.09 9 2.26 22.15 4.82 22.15 16.54s-11.17 16.64-23.28 16.64a52.91 52.91 0 0 1-18.25-3.64zm53.63-41.94h40.41l-.59 8.07h-28.74v14.37l24.1-.68v8.07l-24.1-.69v15.06h30.15l-.62 8.09h-40.61zm68.61 0h12.92L619.55 78h-12.31l-4.71-12.9h-23.08L574.74 78h-11.8zm-2.46 31.6h17.43l-2.57-7L591 33.39l-6 16.93z"/><path class="cls-2" d="M10.28 27L32.41 0 4.61 26 0 63.7l20.73 31.88 36.37 11.1 35-14.88-33.56 8.8-31.94-9.83L7.3 61.08z"/><path class="cls-2" d="M48.56 23.07c-3.21 0-3.21 5 0 5s3.22-5 0-5zM49.23 73c-3.21 0-3.22 5 0 5s3.21-5 0-5zm31.6-46.93c-3.21 0-3.21 5 0 5s3.22-5 0-5zM82.16 72c-3.21 0-3.21 5 0 5s3.22-5 0-5zm10.32 0c-3.22 0-3.22 5 0 5s3.21-5 0-5zm35.26-46.27c-3.21 0-3.22 5 0 5s3.26-5 0-5zm13.31-.33c-3.21 0-3.22 5 0 5s3.21-5 0-5zm2.33 47.24c-3.22 0-3.22 5 0 5s3.21-5 0-5zm10.97-47.24c-3.21 0-3.21 5 0 5s3.22-5 0-5zm2 47.91c-3.21 0-3.22 5 0 5s3.22-5 0-5zm31.27-2c-3.21 0-3.21 5 0 5s3.22-5 0-5zm-27.28-60.22c-3.21 0-3.21 5 0 5s3.22-5 0-5zM200.6 73c-3.21 0-3.22 5 0 5s3.21-5 0-5zm32.6-47.27c-3.21 0-3.22 5 0 5s3.22-5 0-5zm16.97 45.91c-3.21 0-3.22 5 0 5s3.21-5 0-5zm1.33-45.91c-3.21 0-3.22 5 0 5s3.21-5 0-5zm1-9.31c-3.22 0-3.22 5 0 5s3.21-5 0-5zM50.89 52.85a1.66 1.66 0 0 0 0 3.32 1.66 1.66 0 0 0 0-3.32zm11.31-4.99a1.66 1.66 0 0 0 0 3.32 1.66 1.66 0 0 0 0-3.32zm33.6-20.3a1.67 1.67 0 0 0 0 3.33 1.67 1.67 0 0 0 0-3.33zm29.94 44.25a1.67 1.67 0 0 0 0 3.33 1.67 1.67 0 0 0 0-3.33zM143 50.52a1.66 1.66 0 0 0 0 3.32 1.66 1.66 0 0 0 0-3.32zm43.62-23.62a1.66 1.66 0 0 0 0 3.32 1.66 1.66 0 0 0 0-3.32zm-16.96 22.29a1.66 1.66 0 0 0 0 3.32 1.66 1.66 0 0 0 0-3.32zm1.99-30.28a1.67 1.67 0 0 0 0 3.33 1.67 1.67 0 0 0 0-3.33zM182 10.93a1.67 1.67 0 0 0 0 3.33 1.67 1.67 0 0 0 0-3.33zm19.26 15.97a1.66 1.66 0 0 0 0 3.32 1.66 1.66 0 0 0 0-3.32zm30.94 46.24a1.67 1.67 0 0 0 0 3.33 1.67 1.67 0 0 0 0-3.33zm27.61-61.21a1.66 1.66 0 0 0 0 3.32 1.66 1.66 0 0 0 0-3.32z"/><path class="cls-2" transform="rotate(-84.55 50.052 64.821)" d="M39.53 64.32h21.05v1H39.53z"/><path class="cls-2" transform="rotate(-24.44 56.546 51.836)" d="M50.52 51.35h12.06v1H50.52z"/><path class="cls-2" transform="rotate(-88.23 170.32 27.893)" d="M169.82 11.75h1v32.29h-1z"/><path class="cls-2" transform="rotate(-5.25 49.756 39.876)" d="M49.23 25.34h1v29.07h-1z"/><path class="cls-2" transform="rotate(-48.7 70.845 38.93)" d="M57.33 38.37h28.04v1H57.33z"/><path class="cls-2" transform="rotate(-38.66 72.022 61.826)" d="M71.52 45.85h1V77.8h-1z"/><path class="cls-2" transform="rotate(-85.86 93.975 52.016)" d="M70.96 51.52h46.03v1H70.96z"/><path class="cls-2" transform="rotate(-34.09 110.591 51.177)" d="M110.11 24.47h1V77.9h-1z"/><path class="cls-2" transform="rotate(-87.03 126.747 50.848)" d="M104.26 50.35h44.97v1h-44.97z"/><path class="cls-2" transform="rotate(-4.63 141.977 39.684)" d="M141.38 27.36h1v24.7h-1z"/><path class="cls-2" transform="rotate(-1.64 143.048 63.544)" d="M142.71 52.01h1v23.3h-1z"/><path class="cls-2" transform="rotate(-52.72 177.987 39.536)" d="M163.97 39.04h28.01v1h-28.01z"/><path class="cls-2" transform="rotate(-61.94 162.839 63.165)" d="M148.7 62.66h28.28v1H148.7z"/><path class="cls-2" transform="rotate(-3.66 171.658 74.568)" d="M156.15 74.14h31.34v1h-31.34z"/><path class="cls-2" transform="rotate(-58.3 165.828 16.925)" d="M165.33 10.27h1v13.29h-1z"/><path class="cls-2" transform="rotate(-37.75 176.622 16.43)" d="M170.12 15.92h13.04v1h-13.04z"/><path class="cls-2" transform="rotate(-89.21 200.76 52.017)" d="M177.14 51.52h47.25v1h-47.25z"/><path class="cls-2" transform="rotate(-33.79 216.535 51.527)" d="M216.07 23.7h1v55.64h-1z"/><path class="cls-2" transform="rotate(-88.76 232.533 51.353)" d="M209.24 50.85h46.59v1h-46.59z"/><path class="cls-2" transform="rotate(-88.55 250.755 51.426)" d="M227.37 50.93h46.76v1h-46.76z"/><path class="cls-2" transform="rotate(-36.02 256.002 16.077)" d="M251.46 15.59h9.05v1h-9.05z"/></g></g></svg>