<svg xmlns="http://www.w3.org/2000/svg" viewBox="0 0 637.55 106.68"><defs><style>.cls-1{fill:#fff}.cls-2{fill:#e1ff6b}</style></defs><title>Asset 2</title><g id="Layer_2" data-name="Layer 2"><g id="Layer_1-2" data-name="Layer 1"><path class="cls-1" d="M47.51 23.93c-3.1 0-3.11 4.81 0 4.81s3.1-4.81 0-4.81z"/><path class="cls-1" d="M47.51 29.74a3.26 3.26 0 0 1-3.33-3.4A3.35 3.35 0 0 1 50 24a3.54 3.54 0 0 1 .82 2.3 3.26 3.26 0 0 1-3.31 3.44zm0-4.81a1.41 1.41 0 1 0 1.32 1.4 1.53 1.53 0 0 0-.34-1 1.22 1.22 0 0 0-.98-.4zm.64 47.16c-3.1 0-3.1 4.81 0 4.81s3.1-4.81 0-4.81z"/><path class="cls-1" d="M48.15 77.9a3.23 3.23 0 0 1-2.5-1.1 3.52 3.52 0 0 1-.83-2.3 3.33 3.33 0 1 1 3.33 3.4zm0-4.81a1.32 1.32 0 0 0-1.33 1.41 1.59 1.59 0 0 0 .34 1 1.24 1.24 0 0 0 1 .4 1.41 1.41 0 0 0 0-2.81zm30.5-46.27c-3.1 0-3.1 4.81 0 4.81s3.1-4.81 0-4.81z"/><path class="cls-1" d="M78.65 32.63a3.41 3.41 0 0 1 0-6.81 3.22 3.22 0 0 1 2.5 1.1 3.52 3.52 0 0 1 .83 2.3 3.27 3.27 0 0 1-3.33 3.41zm0-4.81a1.41 1.41 0 1 0 1.35 1.4 1.32 1.32 0 0 0-1.35-1.4zm1.29 43.3c-3.1 0-3.11 4.82 0 4.82s3.06-4.82 0-4.82z"/><path class="cls-1" d="M79.93 76.94a3.41 3.41 0 1 1 2.51-5.72 3.54 3.54 0 0 1 .82 2.31 3.27 3.27 0 0 1-3.33 3.41zm0-4.82a1.41 1.41 0 1 0 1.33 1.41 1.32 1.32 0 0 0-1.33-1.41zm9.96-1c-3.1 0-3.11 4.82 0 4.82s3.11-4.82 0-4.82z"/><path class="cls-1" d="M89.89 76.94a3.41 3.41 0 1 1 3.32-3.41 3.26 3.26 0 0 1-3.32 3.41zm0-4.82a1.41 1.41 0 0 0 0 2.82 1.41 1.41 0 0 0 0-2.82zm34.03-45.62c-3.1 0-3.1 4.81 0 4.81s3.08-4.81 0-4.81z"/><path class="cls-1" d="M123.92 32.31a3.41 3.41 0 1 1 3.33-3.41 3.26 3.26 0 0 1-3.33 3.41zm0-4.81a1.41 1.41 0 1 0 1.33 1.4 1.32 1.32 0 0 0-1.33-1.4zm12.84-1.32c-3.1 0-3.1 4.81 0 4.81s3.11-4.81 0-4.81z"/><path class="cls-1" d="M136.76 32a3.26 3.26 0 0 1-3.32-3.4 3.33 3.33 0 1 1 6.65 0 3.26 3.26 0 0 1-3.33 3.4zm0-4.81a1.41 1.41 0 1 0 1.33 1.4 1.31 1.31 0 0 0-1.33-1.41zM139 71.77c-3.1 0-3.1 4.81 0 4.81s3.11-4.81 0-4.81z"/><path class="cls-1" d="M139 77.58a3.41 3.41 0 1 1 3.33-3.41 3.26 3.26 0 0 1-3.33 3.41zm0-4.81a1.41 1.41 0 1 0 1.33 1.4 1.32 1.32 0 0 0-1.33-1.4zm10.6-46.59c-3.09 0-3.1 4.81 0 4.81s3.11-4.81 0-4.81z"/><path class="cls-1" d="M149.6 32a3.26 3.26 0 0 1-3.32-3.4 3.35 3.35 0 0 1 5.83-2.31 3.5 3.5 0 0 1 .82 2.3A3.26 3.26 0 0 1 149.6 32zm0-4.81a1.41 1.41 0 1 0 1.33 1.4 1.53 1.53 0 0 0-.34-1 1.23 1.23 0 0 0-.99-.41zm1.93 45.22c-3.1 0-3.1 4.81 0 4.81s3.11-4.81 0-4.81z"/><path class="cls-1" d="M151.53 78.22a3.23 3.23 0 0 1-2.5-1.1 3.5 3.5 0 0 1-.82-2.3 3.33 3.33 0 1 1 3.32 3.4zm0-4.81a1.31 1.31 0 0 0-1.32 1.41 1.53 1.53 0 0 0 .34 1 1.2 1.2 0 0 0 1 .4 1.41 1.41 0 0 0 0-2.81zm30.18-2.93c-3.1 0-3.1 4.82 0 4.82s3.1-4.82 0-4.82z"/><path class="cls-1" d="M181.71 76.3a3.41 3.41 0 1 1 3.29-3.41 3.27 3.27 0 0 1-3.29 3.41zm0-4.82a1.41 1.41 0 1 0 1.29 1.41 1.33 1.33 0 0 0-1.29-1.41zm-26.33-59.11c-3.09 0-3.1 4.82 0 4.82s3.11-4.82 0-4.82z"/><path class="cls-1" d="M155.38 18.19a3.23 3.23 0 0 1-2.5-1.1 3.54 3.54 0 0 1-.82-2.31 3.33 3.33 0 1 1 6.65 0 3.27 3.27 0 0 1-3.33 3.41zm0-4.82a1.32 1.32 0 0 0-1.32 1.41 1.51 1.51 0 0 0 .34 1 1.22 1.22 0 0 0 1 .41 1.33 1.33 0 0 0 1.33-1.41 1.32 1.32 0 0 0-1.35-1.41zm38.85 58.72c-3.1 0-3.1 4.81 0 4.81s3.11-4.81 0-4.81z"/><path class="cls-1" d="M194.23 77.9a3.41 3.41 0 0 1 0-6.81 3.2 3.2 0 0 1 2.5 1.1 3.45 3.45 0 0 1 .83 2.3 3.26 3.26 0 0 1-3.33 3.41zm0-4.81a1.41 1.41 0 1 0 1.33 1.4 1.59 1.59 0 0 0-.34-1 1.23 1.23 0 0 0-.99-.4zM225.7 26.5c-3.1 0-3.11 4.81 0 4.81s3.1-4.81 0-4.81z"/><path class="cls-1" d="M225.7 32.31a3.26 3.26 0 0 1-3.33-3.4 3.35 3.35 0 0 1 5.83-2.31 3.52 3.52 0 0 1 .82 2.3 3.26 3.26 0 0 1-3.32 3.41zm0-4.81a1.41 1.41 0 1 0 1.3 1.4 1.53 1.53 0 0 0-.34-1 1.22 1.22 0 0 0-.96-.4zm12.52 43.3c-3.1 0-3.11 4.82 0 4.82s3.1-4.82 0-4.82z"/><path class="cls-1" d="M238.22 76.62a3.41 3.41 0 1 1 3.32-3.41 3.27 3.27 0 0 1-3.32 3.41zm0-4.82a1.41 1.41 0 1 0 1.32 1.41 1.33 1.33 0 0 0-1.32-1.41zm18.3-45.3c-3.1 0-3.11 4.81 0 4.81s3.1-4.81 0-4.81z"/><path class="cls-1" d="M256.52 32.31a3.26 3.26 0 0 1-3.33-3.4A3.35 3.35 0 0 1 259 26.6a3.52 3.52 0 0 1 .82 2.3 3.26 3.26 0 0 1-3.3 3.41zm0-4.81a1.41 1.41 0 1 0 1.32 1.4 1.32 1.32 0 0 0-1.32-1.4zm-12.85 26.61c-3.09 0-3.1 4.81 0 4.81s3.11-4.81 0-4.81z"/><path class="cls-1" d="M243.67 59.92a3.23 3.23 0 0 1-2.5-1.1 3.5 3.5 0 0 1-.82-2.3 3.33 3.33 0 1 1 3.32 3.4zm0-4.81a1.32 1.32 0 0 0-1.32 1.41 1.53 1.53 0 0 0 .34 1 1.22 1.22 0 0 0 1 .4 1.41 1.41 0 0 0 0-2.81zm13.81-37.6c-3.1 0-3.1 4.81 0 4.81s3.1-4.81 0-4.81z"/><path class="cls-1" d="M257.48 23.32a3.23 3.23 0 0 1-2.5-1.1 3.51 3.51 0 0 1-.83-2.3 3.33 3.33 0 1 1 6.66 0 3.27 3.27 0 0 1-3.33 3.4zm0-4.81a1.32 1.32 0 0 0-1.33 1.41 1.59 1.59 0 0 0 .34 1 1.24 1.24 0 0 0 1 .4 1.41 1.41 0 0 0 0-2.81zM49.76 52.66a1.61 1.61 0 0 0 0 3.21 1.61 1.61 0 0 0 0-3.21z"/><path class="cls-1" d="M49.76 56.87a2.52 2.52 0 0 1-2.55-2.6 2.74 2.74 0 0 1 .62-1.76 2.59 2.59 0 1 1 1.93 4.36zm0-3.21a.61.61 0 1 0 .55.61.69.69 0 0 0-.15-.45.47.47 0 0 0-.4-.16zm10.91-5.81a1.61 1.61 0 0 0 0 3.21 1.61 1.61 0 0 0 0-3.21z"/><path class="cls-1" d="M60.67 52.06a2.52 2.52 0 0 1-2.55-2.61 2.65 2.65 0 0 1 .63-1.75 2.47 2.47 0 0 1 1.92-.85 2.61 2.61 0 0 1 0 5.21zm0-3.21a.61.61 0 1 0 .55.6.71.71 0 0 0-.14-.45.48.48 0 0 0-.41-.15zM93.1 28.26a1.61 1.61 0 0 0 0 3.21 1.61 1.61 0 0 0 0-3.21z"/><path class="cls-1" d="M93.1 32.47a2.52 2.52 0 0 1-2.55-2.6 2.69 2.69 0 0 1 .63-1.76 2.47 2.47 0 0 1 1.92-.85 2.61 2.61 0 0 1 0 5.21zm0-3.21a.61.61 0 1 0 .55.61.69.69 0 0 0-.15-.45.45.45 0 0 0-.4-.16zM122 71a1.61 1.61 0 0 0 0 3.21 1.61 1.61 0 0 0 0-3.21z"/><path class="cls-1" d="M122 75.17a2.61 2.61 0 1 1 2.55-2.6 2.52 2.52 0 0 1-2.55 2.6zm0-3.17a.53.53 0 0 0-.55.61.52.52 0 0 0 .55.6.48.48 0 0 0 .41-.15.73.73 0 0 0 .14-.45.53.53 0 0 0-.55-.61zm16.69-21.58a1.61 1.61 0 0 0 0 3.21 1.61 1.61 0 0 0 0-3.21z"/><path class="cls-1" d="M138.69 54.63a2.61 2.61 0 1 1 2.55-2.63 2.52 2.52 0 0 1-2.55 2.63zm0-3.21a.53.53 0 0 0-.55.6.69.69 0 0 0 .14.45.48.48 0 0 0 .41.16.45.45 0 0 0 .4-.16.69.69 0 0 0 .15-.45.52.52 0 0 0-.55-.6zm42.06-23.8a1.61 1.61 0 0 0 0 3.21 1.61 1.61 0 0 0 0-3.21z"/><path class="cls-1" d="M180.75 31.83a2.61 2.61 0 1 1 2.55-2.61 2.52 2.52 0 0 1-2.55 2.61zm0-3.21a.53.53 0 0 0-.55.61.73.73 0 0 0 .14.45.51.51 0 0 0 .41.15.5.5 0 0 0 .4-.15.75.75 0 0 0 .15-.46.53.53 0 0 0-.55-.6zm-16.38 20.51a1.61 1.61 0 0 0 0 3.21 1.61 1.61 0 0 0 0-3.21z"/><path class="cls-1" d="M164.37 53.34a2.61 2.61 0 1 1 2.55-2.6 2.52 2.52 0 0 1-2.55 2.6zm0-3.21a.53.53 0 0 0-.55.61.74.74 0 0 0 .15.45.47.47 0 0 0 .4.15.51.51 0 0 0 .41-.15.73.73 0 0 0 .14-.45.53.53 0 0 0-.55-.61zm1.93-30.21a1.61 1.61 0 0 0 0 3.21 1.61 1.61 0 0 0 0-3.21z"/><path class="cls-1" d="M166.3 24.13a2.52 2.52 0 0 1-2.55-2.61 2.65 2.65 0 0 1 .63-1.75 2.47 2.47 0 0 1 1.92-.85 2.61 2.61 0 0 1 0 5.21zm0-3.21a.61.61 0 1 0 .55.6.66.66 0 0 0-.15-.45c-.05-.07-.15-.15-.4-.15zm9.95-8.71a1.61 1.61 0 0 0 0 3.21 1.61 1.61 0 0 0 0-3.21z"/><path class="cls-1" d="M176.25 16.42a2.52 2.52 0 0 1-2.55-2.6 2.73 2.73 0 0 1 .63-1.76 2.47 2.47 0 0 1 1.92-.85 2.52 2.52 0 0 1 2.55 2.6 2.52 2.52 0 0 1-2.55 2.61zm0-3.21a.53.53 0 0 0-.55.61.55.55 0 1 0 1.1 0 .53.53 0 0 0-.55-.61zm18.62 14.41a1.61 1.61 0 0 0 0 3.21 1.61 1.61 0 0 0 0-3.21z"/><path class="cls-1" d="M194.87 31.83a2.52 2.52 0 0 1-2.55-2.6 2.73 2.73 0 0 1 .63-1.76 2.48 2.48 0 0 1 1.92-.85 2.61 2.61 0 0 1 0 5.21zm0-3.21a.61.61 0 1 0 .55.6.73.73 0 0 0-.14-.45.51.51 0 0 0-.41-.15zm29.86 43.63a1.61 1.61 0 0 0 0 3.21 1.61 1.61 0 0 0 0-3.21z"/><path class="cls-1" d="M224.73 76.46a2.52 2.52 0 0 1-2.55-2.61 2.7 2.7 0 0 1 .63-1.75 2.47 2.47 0 0 1 1.92-.85 2.61 2.61 0 0 1 0 5.21zm0-3.21a.61.61 0 1 0 .55.6.73.73 0 0 0-.14-.45.48.48 0 0 0-.41-.15zM269 55.55a1.61 1.61 0 0 0 0 3.21 1.61 1.61 0 0 0 0-3.21z"/><path class="cls-1" d="M269 59.76a2.61 2.61 0 1 1 2.55-2.6 2.52 2.52 0 0 1-2.55 2.6zm0-3.21a.53.53 0 0 0-.55.61.71.71 0 0 0 .14.45.48.48 0 0 0 .41.15.46.46 0 0 0 .4-.15.74.74 0 0 0 .15-.45.53.53 0 0 0-.55-.61zm6.78 17.3a1.61 1.61 0 0 0 0 3.21 1.61 1.61 0 0 0 0-3.21z"/><path class="cls-1" d="M275.78 78.06a2.61 2.61 0 1 1 2.55-2.6 2.52 2.52 0 0 1-2.55 2.6zm0-3.21a.53.53 0 0 0-.55.61.66.66 0 0 0 .15.45.61.61 0 0 0 .8 0 .68.68 0 0 0 .15-.45.53.53 0 0 0-.55-.61zm-11.24-61.68a1.61 1.61 0 0 0 0 3.21 1.61 1.61 0 0 0 0-3.21z"/><path class="cls-1" d="M264.54 17.38a2.52 2.52 0 0 1-2.55-2.6 2.75 2.75 0 0 1 .63-1.76 2.48 2.48 0 0 1 1.92-.85 2.52 2.52 0 0 1 2.55 2.61 2.52 2.52 0 0 1-2.55 2.6zm0-3.21a.53.53 0 0 0-.55.61.55.55 0 1 0 1.1 0 .69.69 0 0 0-.14-.45.48.48 0 0 0-.41-.16z"/><path class="cls-1" transform="rotate(-84.56 48.955 64.224)" d="M38.79 63.74h20.32v.96H38.79z"/><path class="cls-1" transform="rotate(-84.59 48.951 64.222)" d="M37.79 62.74h22.32v2.96H37.79z"/><path class="cls-1" transform="rotate(-24.45 55.237 51.712)" d="M49.39 51.22h11.64v.96H49.39z"/><path class="cls-1" transform="rotate(-24.43 55.203 51.7)" d="M48.39 50.22h13.64v2.96H48.39z"/><path class="cls-1" transform="rotate(-88.23 165.012 28.59)" d="M164.53 13h.96v31.16h-.96z"/><path class="cls-1" transform="rotate(-88.23 165.012 28.59)" d="M163.53 12.01h2.96v33.16h-2.96z"/><path class="cls-1" transform="rotate(-5.25 48.65 40.153)" d="M48.15 26.12h.96v28.05h-.96z"/><path class="cls-1" transform="rotate(-5.25 48.65 40.153)" d="M47.15 25.12h2.96v30.05h-2.96z"/><path class="cls-1" transform="rotate(-48.36 69.504 39.182)" d="M55.97 38.7h27.06v.96H55.97z"/><path class="cls-1" transform="rotate(-48.42 69.506 39.18)" d="M54.97 37.7h29.06v2.96H54.97z"/><path class="cls-1" transform="rotate(-38.66 70.147 61.328)" d="M69.66 45.91h.96v30.84h-.96z"/><path class="cls-1" transform="rotate(-38.66 70.147 61.328)" d="M68.66 44.91h2.96v32.84h-2.96z"/><path class="cls-1" transform="rotate(-85.86 91.33 51.862)" d="M69.12 51.38h44.42v.96H69.12z"/><path class="cls-1" transform="rotate(-85.88 91.33 51.862)" d="M68.12 50.38h46.42v2.96H68.12z"/><path class="cls-1" transform="rotate(-34.09 107.362 51.06)" d="M106.9 25.28h.96v51.56h-.96z"/><path class="cls-1" transform="rotate(-34.09 107.378 51.066)" d="M105.9 24.28h2.96v53.56h-2.96z"/><path class="cls-1" transform="rotate(-87.03 122.958 50.736)" d="M101.26 50.26h43.4v.96h-43.4z"/><path class="cls-1" transform="rotate(-87.03 122.963 50.73)" d="M100.26 49.25h45.4v2.96h-45.4z"/><path class="cls-1" transform="rotate(-4.64 137.452 39.934)" d="M137.08 28.06h.96V51.9h-.96z"/><path class="cls-1" transform="rotate(-4.63 137.628 40.003)" d="M136.08 27.06h2.96V52.9h-2.96z"/><path class="cls-1" transform="rotate(-1.64 138.512 63.13)" d="M138.37 51.86h.96v22.48h-.96z"/><path class="cls-1" transform="rotate(-1.64 138.512 63.13)" d="M137.37 50.86h2.96v24.48h-2.96z"/><path class="cls-1" transform="rotate(-52.71 172.411 39.815)" d="M158.88 39.34h27.03v.96h-27.03z"/><path class="cls-1" transform="rotate(-52.7 172.4 39.822)" d="M157.88 38.34h29.03v2.96h-29.03z"/><path class="cls-1" transform="rotate(-61.92 157.781 62.613)" d="M144.15 62.13h27.29v.96h-27.29z"/><path class="cls-1" transform="rotate(-61.94 157.795 62.62)" d="M143.15 61.13h29.29v2.96h-29.29z"/><path class="cls-1" transform="translate(-4.36 10.77)" d="M151.34 73.21h30.24v.96h-30.24z"/><path class="cls-1" transform="rotate(-3.67 166.21 73.596)" d="M150.34 72.21h32.24v2.96h-32.24z"/><path class="cls-1" transform="rotate(-58.3 160.675 17.988)" d="M160.2 11.57h.96V24.4h-.96z"/><path class="cls-1" transform="rotate(-58.3 160.675 17.988)" d="M159.2 10.57h2.96V25.4h-2.96z"/><path class="cls-1" transform="rotate(-37.74 171.116 17.511)" d="M164.82 17.03h12.59v.96h-12.59z"/><path class="cls-1" transform="rotate(-37.72 171.099 17.519)" d="M163.82 16.03h14.59v2.96h-14.59z"/><path class="cls-1" transform="rotate(-89.2 194.391 51.862)" d="M171.59 51.38h45.59v.96h-45.59z"/><path class="cls-1" transform="rotate(-89.19 194.388 51.865)" d="M170.6 50.38h47.59v2.96H170.6z"/><path class="cls-1" transform="rotate(-33.79 209.603 51.381)" d="M209.16 24.53h.96v53.69h-.96z"/><path class="cls-1" transform="rotate(-33.79 209.603 51.381)" d="M208.16 23.53h2.96v55.69h-2.96z"/><path class="cls-1" transform="rotate(-88.77 225.05 51.221)" d="M202.57 50.74h44.96v.96h-44.96z"/><path class="cls-1" transform="rotate(-88.77 225.06 51.21)" d="M201.57 49.74h46.96v2.96h-46.96z"/><path class="cls-1" transform="rotate(-73.19 240.958 64.854)" d="M232.06 64.38h17.77v.96h-17.77z"/><path class="cls-1" transform="rotate(-73.14 240.947 64.862)" d="M231.06 63.38h19.77v2.96h-19.77z"/><path class="cls-1" transform="rotate(-65.05 249.948 42.544)" d="M234.71 42.07h30.45v.96h-30.45z"/><path class="cls-1" transform="rotate(-65.07 249.947 42.546)" d="M233.71 41.07h32.45v2.96h-32.45z"/><path class="cls-1" transform="rotate(-23.9 262.634 42.873)" d="M262.14 27.42h.96v30.9h-.96z"/><path class="cls-1" transform="rotate(-23.9 262.634 42.873)" d="M261.14 26.42h2.96v32.9h-2.96z"/><path class="cls-1" transform="rotate(-20.22 272.327 66.15)" d="M271.77 56.4h.96v19.5h-.96z"/><path class="cls-1" transform="rotate(-20.22 272.327 66.15)" d="M270.77 55.4h2.96v21.5h-2.96z"/><path class="cls-1" transform="rotate(-88.55 256.196 56.68)" d="M255.71 43.99h.96v25.37h-.96z"/><path class="cls-1" transform="rotate(-88.55 256.2 56.676)" d="M254.71 42.99h2.96v27.37h-2.96z"/><path class="cls-1" transform="rotate(-35.9 260.27 16.426)" d="M256.48 16.7h8.73v.96h-8.73z"/><path class="cls-1" transform="rotate(-36.04 260.868 17.181)" d="M255.48 15.71h10.73v2.96h-10.73z"/><path class="cls-2" d="M320.89 24.53c16.41 0 28.51 11 28.51 27.27s-12.1 27.37-28.51 27.37-28.51-11-28.51-27.37 12.1-27.27 28.51-27.27zm0 46.86c9.74 0 17-7.88 17-19.59s-7.28-19.5-17-19.5-17 7.78-17 19.5 7.16 19.59 17 19.59zm41.53-45.68H386c16.3 0 28.09 10.53 28.09 26.09S402.31 78 386 78h-23.58zm23.18 44.2c9.94 0 17-7 17-18.11s-7.08-18-17-18h-12.1v36.11zM438.51 59l-21.74-33.29h12.61l9.85 15.65 5 9.75 5-9.75 9.84-15.65h12.31L449.58 59v19h-11.07zm42.04 8.65c5.95 2.36 12.62 3.84 17.33 3.84 5.54 0 11.69-2.17 11.69-8.17 0-4.53-5.23-5.91-11-7.49-8.72-2.26-20.41-5.12-20.41-16.44 0-9 8-14.86 20.82-14.86a53.36 53.36 0 0 1 18.56 3.34l-1.74 7.58a52.25 52.25 0 0 0-16.51-3.34c-5.13 0-10.26 1.77-10.26 6.79 0 4 4.21 5.71 9.23 7.09 9 2.26 22.15 4.82 22.15 16.54s-11.17 16.64-23.28 16.64a52.91 52.91 0 0 1-18.25-3.64zm53.63-41.94h40.41l-.59 8.07h-28.74v14.37l24.1-.68v8.07l-24.1-.69v15.06h30.15l-.62 8.09h-40.61zm68.61 0h12.92L637.55 78h-12.31l-4.71-12.9h-23.08L592.74 78h-11.8zm-2.46 31.6h17.43l-2.57-7L609 33.39l-6 16.93z"/><path class="cls-1" d="M10.28 27L32.41 0 4.61 26 0 63.7l20.73 31.88 36.37 11.1 35-14.88-33.56 8.8-31.94-9.83L7.3 61.08z"/></g></g></svg>